%TF.GenerationSoftware,KiCad,Pcbnew,8.0.1*%
%TF.CreationDate,2024-05-06T20:31:15+02:00*%
%TF.ProjectId,smartknob,736d6172-746b-46e6-9f62-2e6b69636164,rev?*%
%TF.SameCoordinates,Original*%
%TF.FileFunction,Drillmap*%
%TF.FilePolarity,Positive*%
%FSLAX45Y45*%
G04 Gerber Fmt 4.5, Leading zero omitted, Abs format (unit mm)*
G04 Created by KiCad (PCBNEW 8.0.1) date 2024-05-06 20:31:15*
%MOMM*%
%LPD*%
G01*
G04 APERTURE LIST*
%ADD10C,0.050000*%
%ADD11C,0.200000*%
%ADD12C,0.100000*%
%ADD13C,0.230000*%
%ADD14C,0.300000*%
G04 APERTURE END LIST*
D10*
X11000000Y-9980000D02*
G75*
G02*
X10176840Y-6325762I402500J2010500D01*
G01*
X13232127Y-7731027D02*
G75*
G02*
X12270000Y-9600000I-1832128J-238973D01*
G01*
D11*
X13232128Y-7731027D02*
X13437570Y-7700321D01*
D10*
X11018243Y-9788368D02*
G75*
G02*
X10290000Y-6480000I381757J1818368D01*
G01*
D11*
X11018243Y-9788368D02*
X11000000Y-9980000D01*
D10*
X10860000Y-6200000D02*
G75*
G02*
X13070780Y-7174390I540000J-1770000D01*
G01*
X10860000Y-6200000D02*
X10800000Y-6010000D01*
X10800000Y-6010000D02*
G75*
G02*
X13253498Y-7088335I602500J-1959500D01*
G01*
D11*
X12270000Y-9600000D02*
X12370000Y-9780000D01*
D10*
X13437570Y-7700321D02*
G75*
G02*
X12370000Y-9780000I-2035070J-269179D01*
G01*
X13070780Y-7174390D02*
X13253498Y-7088335D01*
D11*
X10290000Y-6480000D02*
X10176840Y-6325762D01*
X9100000Y-5700000D02*
X13700000Y-5700000D01*
X13700000Y-10200000D01*
X9100000Y-10200000D01*
X9100000Y-5700000D01*
D12*
X9645000Y-8045000D02*
X9675000Y-8075000D01*
X9675000Y-8045000D02*
X9645000Y-8075000D01*
X9745000Y-7465000D02*
X9775000Y-7495000D01*
X9775000Y-7465000D02*
X9745000Y-7495000D01*
X9808348Y-8558750D02*
X9838348Y-8588750D01*
X9838348Y-8558750D02*
X9808348Y-8588750D01*
X9877500Y-8105000D02*
X9907500Y-8135000D01*
X9907500Y-8105000D02*
X9877500Y-8135000D01*
X9985000Y-7605000D02*
X10015000Y-7635000D01*
X10015000Y-7605000D02*
X9985000Y-7635000D01*
X9992427Y-8867574D02*
X10022427Y-8897574D01*
X10022427Y-8867574D02*
X9992427Y-8897574D01*
X9992574Y-8052573D02*
X10022574Y-8082573D01*
X10022574Y-8052573D02*
X9992574Y-8082573D01*
X10085000Y-8445000D02*
X10115000Y-8475000D01*
X10115000Y-8445000D02*
X10085000Y-8475000D01*
X10100077Y-8735323D02*
X10130077Y-8765323D01*
X10130077Y-8735323D02*
X10100077Y-8765323D01*
X10165000Y-7445000D02*
X10195000Y-7475000D01*
X10195000Y-7445000D02*
X10165000Y-7475000D01*
X10205000Y-8745000D02*
X10235000Y-8775000D01*
X10235000Y-8745000D02*
X10205000Y-8775000D01*
X10296563Y-7835000D02*
X10326563Y-7865000D01*
X10326563Y-7835000D02*
X10296563Y-7865000D01*
X10317500Y-8558750D02*
X10347500Y-8588750D01*
X10347500Y-8558750D02*
X10317500Y-8588750D01*
X10700033Y-7769967D02*
X10730033Y-7799967D01*
X10730033Y-7769967D02*
X10700033Y-7799967D01*
X10765000Y-8785000D02*
X10795000Y-8815000D01*
X10795000Y-8785000D02*
X10765000Y-8815000D01*
X10775000Y-8605000D02*
X10805000Y-8635000D01*
X10805000Y-8605000D02*
X10775000Y-8635000D01*
X10777500Y-7940000D02*
X10807500Y-7970000D01*
X10807500Y-7940000D02*
X10777500Y-7970000D01*
X10885000Y-7645000D02*
X10915000Y-7675000D01*
X10915000Y-7645000D02*
X10885000Y-7675000D01*
X10885000Y-7845000D02*
X10915000Y-7875000D01*
X10915000Y-7845000D02*
X10885000Y-7875000D01*
X10885000Y-8465000D02*
X10915000Y-8495000D01*
X10915000Y-8465000D02*
X10885000Y-8495000D01*
X10995000Y-8345000D02*
X11025000Y-8375000D01*
X11025000Y-8345000D02*
X10995000Y-8375000D01*
X11073714Y-8272743D02*
X11103714Y-8302743D01*
X11103714Y-8272743D02*
X11073714Y-8302743D01*
X11125000Y-7085000D02*
X11155000Y-7115000D01*
X11155000Y-7085000D02*
X11125000Y-7115000D01*
X11125000Y-7685000D02*
X11155000Y-7715000D01*
X11155000Y-7685000D02*
X11125000Y-7715000D01*
X11135000Y-8485000D02*
X11165000Y-8515000D01*
X11165000Y-8485000D02*
X11135000Y-8515000D01*
X11255000Y-8295000D02*
X11285000Y-8325000D01*
X11285000Y-8295000D02*
X11255000Y-8325000D01*
X11420000Y-9142750D02*
X11450000Y-9172750D01*
X11450000Y-9142750D02*
X11420000Y-9172750D01*
X11430000Y-7120000D02*
X11460000Y-7150000D01*
X11460000Y-7120000D02*
X11430000Y-7150000D01*
X11694467Y-8620533D02*
X11724467Y-8650533D01*
X11724467Y-8620533D02*
X11694467Y-8650533D01*
X11900000Y-9142750D02*
X11930000Y-9172750D01*
X11930000Y-9142750D02*
X11900000Y-9172750D01*
X11905000Y-8505000D02*
X11935000Y-8535000D01*
X11935000Y-8505000D02*
X11905000Y-8535000D01*
X11915000Y-8675000D02*
X11945000Y-8705000D01*
X11945000Y-8675000D02*
X11915000Y-8705000D01*
X11925000Y-7685000D02*
X11955000Y-7715000D01*
X11955000Y-7685000D02*
X11925000Y-7715000D01*
X11995000Y-7835000D02*
X12025000Y-7865000D01*
X12025000Y-7835000D02*
X11995000Y-7865000D01*
X11997680Y-8156458D02*
X12027680Y-8186458D01*
X12027680Y-8156458D02*
X11997680Y-8186458D01*
X12053785Y-8286458D02*
X12083785Y-8316458D01*
X12083785Y-8286458D02*
X12053785Y-8316458D01*
X12055000Y-8415000D02*
X12085000Y-8445000D01*
X12085000Y-8415000D02*
X12055000Y-8445000D01*
X12105000Y-8225000D02*
X12135000Y-8255000D01*
X12135000Y-8225000D02*
X12105000Y-8255000D01*
X12105541Y-8350000D02*
X12135541Y-8380000D01*
X12135541Y-8350000D02*
X12105541Y-8380000D01*
X12125000Y-7155000D02*
X12155000Y-7185000D01*
X12155000Y-7155000D02*
X12125000Y-7185000D01*
X12125000Y-8755000D02*
X12155000Y-8785000D01*
X12155000Y-8755000D02*
X12125000Y-8785000D01*
X12145000Y-8655000D02*
X12175000Y-8685000D01*
X12175000Y-8655000D02*
X12145000Y-8685000D01*
X12152613Y-7725093D02*
X12182613Y-7755093D01*
X12182613Y-7725093D02*
X12152613Y-7755093D01*
X12185000Y-7085000D02*
X12215000Y-7115000D01*
X12215000Y-7085000D02*
X12185000Y-7115000D01*
X12260000Y-7388000D02*
X12290000Y-7418000D01*
X12290000Y-7388000D02*
X12260000Y-7418000D01*
X12385000Y-8430000D02*
X12415000Y-8460000D01*
X12415000Y-8430000D02*
X12385000Y-8460000D01*
X12425000Y-8665000D02*
X12455000Y-8695000D01*
X12455000Y-8665000D02*
X12425000Y-8695000D01*
X12498114Y-7934828D02*
X12528114Y-7964828D01*
X12528114Y-7934828D02*
X12498114Y-7964828D01*
X12785000Y-8195000D02*
X12815000Y-8225000D01*
X12815000Y-8195000D02*
X12785000Y-8225000D01*
X12795000Y-7835000D02*
X12825000Y-7865000D01*
X12825000Y-7835000D02*
X12795000Y-7865000D01*
X12915000Y-8675000D02*
X12945000Y-8705000D01*
X12945000Y-8675000D02*
X12915000Y-8705000D01*
X12922082Y-8768541D02*
X12952082Y-8798541D01*
X12952082Y-8768541D02*
X12922082Y-8798541D01*
X12965000Y-7635000D02*
X12995000Y-7665000D01*
X12995000Y-7635000D02*
X12965000Y-7665000D01*
X12965000Y-7985000D02*
X12995000Y-8015000D01*
X12995000Y-7985000D02*
X12965000Y-8015000D01*
X12965000Y-8335000D02*
X12995000Y-8365000D01*
X12995000Y-8335000D02*
X12965000Y-8365000D01*
X13155000Y-8065000D02*
X13185000Y-8095000D01*
X13185000Y-8065000D02*
X13155000Y-8095000D01*
X13365000Y-9025000D02*
X13395000Y-9055000D01*
X13395000Y-9025000D02*
X13365000Y-9055000D01*
X13445000Y-9225000D02*
X13475000Y-9255000D01*
X13475000Y-9225000D02*
X13445000Y-9255000D01*
X11242293Y-7935220D02*
G75*
G02*
X11172293Y-7935220I-35000J0D01*
G01*
X11172293Y-7935220D02*
G75*
G02*
X11242293Y-7935220I35000J0D01*
G01*
X11337920Y-7730147D02*
G75*
G02*
X11267920Y-7730147I-35000J0D01*
G01*
X11267920Y-7730147D02*
G75*
G02*
X11337920Y-7730147I35000J0D01*
G01*
X11729343Y-8162336D02*
G75*
G02*
X11659343Y-8162336I-35000J0D01*
G01*
X11659343Y-8162336D02*
G75*
G02*
X11729343Y-8162336I35000J0D01*
G01*
X11824971Y-7957262D02*
G75*
G02*
X11754971Y-7957262I-35000J0D01*
G01*
X11754971Y-7957262D02*
G75*
G02*
X11824971Y-7957262I35000J0D01*
G01*
X11242500Y-9224550D02*
X11242500Y-9304550D01*
X11202500Y-9264550D02*
X11282500Y-9264550D01*
X11202500Y-9224550D02*
X11202500Y-9304550D01*
X11282500Y-9304550D02*
G75*
G02*
X11202500Y-9304550I-40000J0D01*
G01*
X11282500Y-9304550D02*
X11282500Y-9224550D01*
X11282500Y-9224550D02*
G75*
G03*
X11202500Y-9224550I-40000J0D01*
G01*
X11242500Y-9644550D02*
X11242500Y-9724550D01*
X11202500Y-9684550D02*
X11282500Y-9684550D01*
X11202500Y-9654550D02*
X11202500Y-9714550D01*
X11282500Y-9714550D02*
G75*
G02*
X11202500Y-9714550I-40000J0D01*
G01*
X11282500Y-9714550D02*
X11282500Y-9654550D01*
X11282500Y-9654550D02*
G75*
G03*
X11202500Y-9654550I-40000J0D01*
G01*
X12107500Y-9224550D02*
X12107500Y-9304550D01*
X12067500Y-9264550D02*
X12147500Y-9264550D01*
X12067500Y-9224550D02*
X12067500Y-9304550D01*
X12147500Y-9304550D02*
G75*
G02*
X12067500Y-9304550I-40000J0D01*
G01*
X12147500Y-9304550D02*
X12147500Y-9224550D01*
X12147500Y-9224550D02*
G75*
G03*
X12067500Y-9224550I-40000J0D01*
G01*
X12107500Y-9644550D02*
X12107500Y-9724550D01*
X12067500Y-9684550D02*
X12147500Y-9684550D01*
X12067500Y-9654550D02*
X12067500Y-9714550D01*
X12147500Y-9714550D02*
G75*
G02*
X12067500Y-9714550I-40000J0D01*
G01*
X12147500Y-9714550D02*
X12147500Y-9654550D01*
X12147500Y-9654550D02*
G75*
G03*
X12067500Y-9654550I-40000J0D01*
G01*
X12237223Y-6476817D02*
X12237223Y-6409641D01*
X12170047Y-6409641D01*
X12170047Y-6476817D01*
X12237223Y-6476817D01*
X12593191Y-6735442D02*
X12593191Y-6668267D01*
X12526015Y-6668267D01*
X12526015Y-6735442D01*
X12593191Y-6735442D01*
X10140395Y-9031456D02*
X10190395Y-8981456D01*
X10140395Y-8931456D01*
X10090395Y-8981456D01*
X10140395Y-9031456D01*
X10320000Y-9211061D02*
X10370000Y-9161061D01*
X10320000Y-9111061D01*
X10270000Y-9161061D01*
X10320000Y-9211061D01*
X10499605Y-9390666D02*
X10549605Y-9340666D01*
X10499605Y-9290666D01*
X10449605Y-9340666D01*
X10499605Y-9390666D01*
X12660000Y-7115000D02*
X12710000Y-7065000D01*
X12660000Y-7015000D01*
X12610000Y-7065000D01*
X12660000Y-7115000D01*
X12660000Y-7369000D02*
X12710000Y-7319000D01*
X12660000Y-7269000D01*
X12610000Y-7319000D01*
X12660000Y-7369000D01*
X12660000Y-7623000D02*
X12710000Y-7573000D01*
X12660000Y-7523000D01*
X12610000Y-7573000D01*
X12660000Y-7623000D01*
X12660000Y-7877000D02*
X12710000Y-7827000D01*
X12660000Y-7777000D01*
X12610000Y-7827000D01*
X12660000Y-7877000D01*
X12660000Y-8131000D02*
X12710000Y-8081000D01*
X12660000Y-8031000D01*
X12610000Y-8081000D01*
X12660000Y-8131000D01*
X12660000Y-8385000D02*
X12710000Y-8335000D01*
X12660000Y-8285000D01*
X12610000Y-8335000D01*
X12660000Y-8385000D01*
X13420000Y-6820000D02*
X13470000Y-6770000D01*
X13420000Y-6720000D01*
X13370000Y-6770000D01*
X13420000Y-6820000D01*
X13420000Y-7074000D02*
X13470000Y-7024000D01*
X13420000Y-6974000D01*
X13370000Y-7024000D01*
X13420000Y-7074000D01*
X13420000Y-7328000D02*
X13470000Y-7278000D01*
X13420000Y-7228000D01*
X13370000Y-7278000D01*
X13420000Y-7328000D01*
X13420000Y-7582000D02*
X13470000Y-7532000D01*
X13420000Y-7482000D01*
X13370000Y-7532000D01*
X13420000Y-7582000D01*
D11*
X11300000Y-7880000D02*
X11500000Y-8080000D01*
X11500000Y-7880000D02*
X11300000Y-8080000D01*
X11500000Y-7980000D02*
G75*
G02*
X11300000Y-7980000I-100000J0D01*
G01*
X11300000Y-7980000D02*
G75*
G02*
X11500000Y-7980000I100000J0D01*
G01*
D13*
X9485000Y-5985000D02*
X9715000Y-6215000D01*
X9715000Y-5985000D02*
X9485000Y-6215000D01*
X9600000Y-5985000D02*
X9600000Y-6215000D01*
X9485000Y-6100000D02*
X9715000Y-6100000D01*
X9485000Y-9685000D02*
X9715000Y-9915000D01*
X9715000Y-9685000D02*
X9485000Y-9915000D01*
X9600000Y-9685000D02*
X9600000Y-9915000D01*
X9485000Y-9800000D02*
X9715000Y-9800000D01*
X13085000Y-5985000D02*
X13315000Y-6215000D01*
X13315000Y-5985000D02*
X13085000Y-6215000D01*
X13200000Y-5985000D02*
X13200000Y-6215000D01*
X13085000Y-6100000D02*
X13315000Y-6100000D01*
X13085000Y-9685000D02*
X13315000Y-9915000D01*
X13315000Y-9685000D02*
X13085000Y-9915000D01*
X13200000Y-9685000D02*
X13200000Y-9915000D01*
X13085000Y-9800000D02*
X13315000Y-9800000D01*
D14*
X10130000Y-6710000D02*
X10430000Y-7010000D01*
X10430000Y-6710000D02*
X10130000Y-7010000D01*
X10386067Y-6966067D02*
X10386067Y-6753933D01*
X10173933Y-6753933D01*
X10173933Y-6966067D01*
X10386067Y-6966067D01*
X12410000Y-8910000D02*
X12710000Y-9210000D01*
X12710000Y-8910000D02*
X12410000Y-9210000D01*
X12666067Y-9166067D02*
X12666067Y-8953933D01*
X12453933Y-8953933D01*
X12453933Y-9166067D01*
X12666067Y-9166067D01*
D11*
X9350777Y-10521484D02*
X9350777Y-10321484D01*
X9350777Y-10321484D02*
X9398396Y-10321484D01*
X9398396Y-10321484D02*
X9426967Y-10331008D01*
X9426967Y-10331008D02*
X9446015Y-10350055D01*
X9446015Y-10350055D02*
X9455539Y-10369103D01*
X9455539Y-10369103D02*
X9465063Y-10407198D01*
X9465063Y-10407198D02*
X9465063Y-10435770D01*
X9465063Y-10435770D02*
X9455539Y-10473865D01*
X9455539Y-10473865D02*
X9446015Y-10492912D01*
X9446015Y-10492912D02*
X9426967Y-10511960D01*
X9426967Y-10511960D02*
X9398396Y-10521484D01*
X9398396Y-10521484D02*
X9350777Y-10521484D01*
X9550777Y-10521484D02*
X9550777Y-10388150D01*
X9550777Y-10426246D02*
X9560301Y-10407198D01*
X9560301Y-10407198D02*
X9569824Y-10397674D01*
X9569824Y-10397674D02*
X9588872Y-10388150D01*
X9588872Y-10388150D02*
X9607920Y-10388150D01*
X9674586Y-10521484D02*
X9674586Y-10388150D01*
X9674586Y-10321484D02*
X9665063Y-10331008D01*
X9665063Y-10331008D02*
X9674586Y-10340531D01*
X9674586Y-10340531D02*
X9684110Y-10331008D01*
X9684110Y-10331008D02*
X9674586Y-10321484D01*
X9674586Y-10321484D02*
X9674586Y-10340531D01*
X9798396Y-10521484D02*
X9779348Y-10511960D01*
X9779348Y-10511960D02*
X9769824Y-10492912D01*
X9769824Y-10492912D02*
X9769824Y-10321484D01*
X9903158Y-10521484D02*
X9884110Y-10511960D01*
X9884110Y-10511960D02*
X9874586Y-10492912D01*
X9874586Y-10492912D02*
X9874586Y-10321484D01*
X10131729Y-10521484D02*
X10131729Y-10321484D01*
X10131729Y-10321484D02*
X10198396Y-10464341D01*
X10198396Y-10464341D02*
X10265063Y-10321484D01*
X10265063Y-10321484D02*
X10265063Y-10521484D01*
X10446015Y-10521484D02*
X10446015Y-10416722D01*
X10446015Y-10416722D02*
X10436491Y-10397674D01*
X10436491Y-10397674D02*
X10417444Y-10388150D01*
X10417444Y-10388150D02*
X10379348Y-10388150D01*
X10379348Y-10388150D02*
X10360301Y-10397674D01*
X10446015Y-10511960D02*
X10426967Y-10521484D01*
X10426967Y-10521484D02*
X10379348Y-10521484D01*
X10379348Y-10521484D02*
X10360301Y-10511960D01*
X10360301Y-10511960D02*
X10350777Y-10492912D01*
X10350777Y-10492912D02*
X10350777Y-10473865D01*
X10350777Y-10473865D02*
X10360301Y-10454817D01*
X10360301Y-10454817D02*
X10379348Y-10445293D01*
X10379348Y-10445293D02*
X10426967Y-10445293D01*
X10426967Y-10445293D02*
X10446015Y-10435770D01*
X10541253Y-10388150D02*
X10541253Y-10588150D01*
X10541253Y-10397674D02*
X10560301Y-10388150D01*
X10560301Y-10388150D02*
X10598396Y-10388150D01*
X10598396Y-10388150D02*
X10617444Y-10397674D01*
X10617444Y-10397674D02*
X10626967Y-10407198D01*
X10626967Y-10407198D02*
X10636491Y-10426246D01*
X10636491Y-10426246D02*
X10636491Y-10483389D01*
X10636491Y-10483389D02*
X10626967Y-10502436D01*
X10626967Y-10502436D02*
X10617444Y-10511960D01*
X10617444Y-10511960D02*
X10598396Y-10521484D01*
X10598396Y-10521484D02*
X10560301Y-10521484D01*
X10560301Y-10521484D02*
X10541253Y-10511960D01*
X10722205Y-10502436D02*
X10731729Y-10511960D01*
X10731729Y-10511960D02*
X10722205Y-10521484D01*
X10722205Y-10521484D02*
X10712682Y-10511960D01*
X10712682Y-10511960D02*
X10722205Y-10502436D01*
X10722205Y-10502436D02*
X10722205Y-10521484D01*
X10722205Y-10397674D02*
X10731729Y-10407198D01*
X10731729Y-10407198D02*
X10722205Y-10416722D01*
X10722205Y-10416722D02*
X10712682Y-10407198D01*
X10712682Y-10407198D02*
X10722205Y-10397674D01*
X10722205Y-10397674D02*
X10722205Y-10416722D01*
D12*
X9060000Y-10835000D02*
X9090000Y-10865000D01*
X9090000Y-10835000D02*
X9060000Y-10865000D01*
D11*
X9388872Y-10741484D02*
X9407920Y-10741484D01*
X9407920Y-10741484D02*
X9426967Y-10751008D01*
X9426967Y-10751008D02*
X9436491Y-10760531D01*
X9436491Y-10760531D02*
X9446015Y-10779579D01*
X9446015Y-10779579D02*
X9455539Y-10817674D01*
X9455539Y-10817674D02*
X9455539Y-10865293D01*
X9455539Y-10865293D02*
X9446015Y-10903389D01*
X9446015Y-10903389D02*
X9436491Y-10922436D01*
X9436491Y-10922436D02*
X9426967Y-10931960D01*
X9426967Y-10931960D02*
X9407920Y-10941484D01*
X9407920Y-10941484D02*
X9388872Y-10941484D01*
X9388872Y-10941484D02*
X9369824Y-10931960D01*
X9369824Y-10931960D02*
X9360301Y-10922436D01*
X9360301Y-10922436D02*
X9350777Y-10903389D01*
X9350777Y-10903389D02*
X9341253Y-10865293D01*
X9341253Y-10865293D02*
X9341253Y-10817674D01*
X9341253Y-10817674D02*
X9350777Y-10779579D01*
X9350777Y-10779579D02*
X9360301Y-10760531D01*
X9360301Y-10760531D02*
X9369824Y-10751008D01*
X9369824Y-10751008D02*
X9388872Y-10741484D01*
X9541253Y-10922436D02*
X9550777Y-10931960D01*
X9550777Y-10931960D02*
X9541253Y-10941484D01*
X9541253Y-10941484D02*
X9531729Y-10931960D01*
X9531729Y-10931960D02*
X9541253Y-10922436D01*
X9541253Y-10922436D02*
X9541253Y-10941484D01*
X9617444Y-10741484D02*
X9741253Y-10741484D01*
X9741253Y-10741484D02*
X9674586Y-10817674D01*
X9674586Y-10817674D02*
X9703158Y-10817674D01*
X9703158Y-10817674D02*
X9722205Y-10827198D01*
X9722205Y-10827198D02*
X9731729Y-10836722D01*
X9731729Y-10836722D02*
X9741253Y-10855770D01*
X9741253Y-10855770D02*
X9741253Y-10903389D01*
X9741253Y-10903389D02*
X9731729Y-10922436D01*
X9731729Y-10922436D02*
X9722205Y-10931960D01*
X9722205Y-10931960D02*
X9703158Y-10941484D01*
X9703158Y-10941484D02*
X9646015Y-10941484D01*
X9646015Y-10941484D02*
X9626967Y-10931960D01*
X9626967Y-10931960D02*
X9617444Y-10922436D01*
X9865063Y-10741484D02*
X9884110Y-10741484D01*
X9884110Y-10741484D02*
X9903158Y-10751008D01*
X9903158Y-10751008D02*
X9912682Y-10760531D01*
X9912682Y-10760531D02*
X9922205Y-10779579D01*
X9922205Y-10779579D02*
X9931729Y-10817674D01*
X9931729Y-10817674D02*
X9931729Y-10865293D01*
X9931729Y-10865293D02*
X9922205Y-10903389D01*
X9922205Y-10903389D02*
X9912682Y-10922436D01*
X9912682Y-10922436D02*
X9903158Y-10931960D01*
X9903158Y-10931960D02*
X9884110Y-10941484D01*
X9884110Y-10941484D02*
X9865063Y-10941484D01*
X9865063Y-10941484D02*
X9846015Y-10931960D01*
X9846015Y-10931960D02*
X9836491Y-10922436D01*
X9836491Y-10922436D02*
X9826967Y-10903389D01*
X9826967Y-10903389D02*
X9817444Y-10865293D01*
X9817444Y-10865293D02*
X9817444Y-10817674D01*
X9817444Y-10817674D02*
X9826967Y-10779579D01*
X9826967Y-10779579D02*
X9836491Y-10760531D01*
X9836491Y-10760531D02*
X9846015Y-10751008D01*
X9846015Y-10751008D02*
X9865063Y-10741484D01*
X10055539Y-10741484D02*
X10074586Y-10741484D01*
X10074586Y-10741484D02*
X10093634Y-10751008D01*
X10093634Y-10751008D02*
X10103158Y-10760531D01*
X10103158Y-10760531D02*
X10112682Y-10779579D01*
X10112682Y-10779579D02*
X10122205Y-10817674D01*
X10122205Y-10817674D02*
X10122205Y-10865293D01*
X10122205Y-10865293D02*
X10112682Y-10903389D01*
X10112682Y-10903389D02*
X10103158Y-10922436D01*
X10103158Y-10922436D02*
X10093634Y-10931960D01*
X10093634Y-10931960D02*
X10074586Y-10941484D01*
X10074586Y-10941484D02*
X10055539Y-10941484D01*
X10055539Y-10941484D02*
X10036491Y-10931960D01*
X10036491Y-10931960D02*
X10026967Y-10922436D01*
X10026967Y-10922436D02*
X10017444Y-10903389D01*
X10017444Y-10903389D02*
X10007920Y-10865293D01*
X10007920Y-10865293D02*
X10007920Y-10817674D01*
X10007920Y-10817674D02*
X10017444Y-10779579D01*
X10017444Y-10779579D02*
X10026967Y-10760531D01*
X10026967Y-10760531D02*
X10036491Y-10751008D01*
X10036491Y-10751008D02*
X10055539Y-10741484D01*
X10207920Y-10941484D02*
X10207920Y-10808150D01*
X10207920Y-10827198D02*
X10217444Y-10817674D01*
X10217444Y-10817674D02*
X10236491Y-10808150D01*
X10236491Y-10808150D02*
X10265063Y-10808150D01*
X10265063Y-10808150D02*
X10284110Y-10817674D01*
X10284110Y-10817674D02*
X10293634Y-10836722D01*
X10293634Y-10836722D02*
X10293634Y-10941484D01*
X10293634Y-10836722D02*
X10303158Y-10817674D01*
X10303158Y-10817674D02*
X10322205Y-10808150D01*
X10322205Y-10808150D02*
X10350777Y-10808150D01*
X10350777Y-10808150D02*
X10369825Y-10817674D01*
X10369825Y-10817674D02*
X10379348Y-10836722D01*
X10379348Y-10836722D02*
X10379348Y-10941484D01*
X10474586Y-10941484D02*
X10474586Y-10808150D01*
X10474586Y-10827198D02*
X10484110Y-10817674D01*
X10484110Y-10817674D02*
X10503158Y-10808150D01*
X10503158Y-10808150D02*
X10531729Y-10808150D01*
X10531729Y-10808150D02*
X10550777Y-10817674D01*
X10550777Y-10817674D02*
X10560301Y-10836722D01*
X10560301Y-10836722D02*
X10560301Y-10941484D01*
X10560301Y-10836722D02*
X10569825Y-10817674D01*
X10569825Y-10817674D02*
X10588872Y-10808150D01*
X10588872Y-10808150D02*
X10617444Y-10808150D01*
X10617444Y-10808150D02*
X10636491Y-10817674D01*
X10636491Y-10817674D02*
X10646015Y-10836722D01*
X10646015Y-10836722D02*
X10646015Y-10941484D01*
X11036491Y-10731960D02*
X10865063Y-10989103D01*
X11293634Y-10741484D02*
X11312682Y-10741484D01*
X11312682Y-10741484D02*
X11331729Y-10751008D01*
X11331729Y-10751008D02*
X11341253Y-10760531D01*
X11341253Y-10760531D02*
X11350777Y-10779579D01*
X11350777Y-10779579D02*
X11360301Y-10817674D01*
X11360301Y-10817674D02*
X11360301Y-10865293D01*
X11360301Y-10865293D02*
X11350777Y-10903389D01*
X11350777Y-10903389D02*
X11341253Y-10922436D01*
X11341253Y-10922436D02*
X11331729Y-10931960D01*
X11331729Y-10931960D02*
X11312682Y-10941484D01*
X11312682Y-10941484D02*
X11293634Y-10941484D01*
X11293634Y-10941484D02*
X11274586Y-10931960D01*
X11274586Y-10931960D02*
X11265063Y-10922436D01*
X11265063Y-10922436D02*
X11255539Y-10903389D01*
X11255539Y-10903389D02*
X11246015Y-10865293D01*
X11246015Y-10865293D02*
X11246015Y-10817674D01*
X11246015Y-10817674D02*
X11255539Y-10779579D01*
X11255539Y-10779579D02*
X11265063Y-10760531D01*
X11265063Y-10760531D02*
X11274586Y-10751008D01*
X11274586Y-10751008D02*
X11293634Y-10741484D01*
X11446015Y-10922436D02*
X11455539Y-10931960D01*
X11455539Y-10931960D02*
X11446015Y-10941484D01*
X11446015Y-10941484D02*
X11436491Y-10931960D01*
X11436491Y-10931960D02*
X11446015Y-10922436D01*
X11446015Y-10922436D02*
X11446015Y-10941484D01*
X11579348Y-10741484D02*
X11598396Y-10741484D01*
X11598396Y-10741484D02*
X11617444Y-10751008D01*
X11617444Y-10751008D02*
X11626967Y-10760531D01*
X11626967Y-10760531D02*
X11636491Y-10779579D01*
X11636491Y-10779579D02*
X11646015Y-10817674D01*
X11646015Y-10817674D02*
X11646015Y-10865293D01*
X11646015Y-10865293D02*
X11636491Y-10903389D01*
X11636491Y-10903389D02*
X11626967Y-10922436D01*
X11626967Y-10922436D02*
X11617444Y-10931960D01*
X11617444Y-10931960D02*
X11598396Y-10941484D01*
X11598396Y-10941484D02*
X11579348Y-10941484D01*
X11579348Y-10941484D02*
X11560301Y-10931960D01*
X11560301Y-10931960D02*
X11550777Y-10922436D01*
X11550777Y-10922436D02*
X11541253Y-10903389D01*
X11541253Y-10903389D02*
X11531729Y-10865293D01*
X11531729Y-10865293D02*
X11531729Y-10817674D01*
X11531729Y-10817674D02*
X11541253Y-10779579D01*
X11541253Y-10779579D02*
X11550777Y-10760531D01*
X11550777Y-10760531D02*
X11560301Y-10751008D01*
X11560301Y-10751008D02*
X11579348Y-10741484D01*
X11836491Y-10941484D02*
X11722206Y-10941484D01*
X11779348Y-10941484D02*
X11779348Y-10741484D01*
X11779348Y-10741484D02*
X11760301Y-10770055D01*
X11760301Y-10770055D02*
X11741253Y-10789103D01*
X11741253Y-10789103D02*
X11722206Y-10798627D01*
X12026967Y-10941484D02*
X11912682Y-10941484D01*
X11969825Y-10941484D02*
X11969825Y-10741484D01*
X11969825Y-10741484D02*
X11950777Y-10770055D01*
X11950777Y-10770055D02*
X11931729Y-10789103D01*
X11931729Y-10789103D02*
X11912682Y-10798627D01*
X12141253Y-10827198D02*
X12122206Y-10817674D01*
X12122206Y-10817674D02*
X12112682Y-10808150D01*
X12112682Y-10808150D02*
X12103158Y-10789103D01*
X12103158Y-10789103D02*
X12103158Y-10779579D01*
X12103158Y-10779579D02*
X12112682Y-10760531D01*
X12112682Y-10760531D02*
X12122206Y-10751008D01*
X12122206Y-10751008D02*
X12141253Y-10741484D01*
X12141253Y-10741484D02*
X12179348Y-10741484D01*
X12179348Y-10741484D02*
X12198396Y-10751008D01*
X12198396Y-10751008D02*
X12207920Y-10760531D01*
X12207920Y-10760531D02*
X12217444Y-10779579D01*
X12217444Y-10779579D02*
X12217444Y-10789103D01*
X12217444Y-10789103D02*
X12207920Y-10808150D01*
X12207920Y-10808150D02*
X12198396Y-10817674D01*
X12198396Y-10817674D02*
X12179348Y-10827198D01*
X12179348Y-10827198D02*
X12141253Y-10827198D01*
X12141253Y-10827198D02*
X12122206Y-10836722D01*
X12122206Y-10836722D02*
X12112682Y-10846246D01*
X12112682Y-10846246D02*
X12103158Y-10865293D01*
X12103158Y-10865293D02*
X12103158Y-10903389D01*
X12103158Y-10903389D02*
X12112682Y-10922436D01*
X12112682Y-10922436D02*
X12122206Y-10931960D01*
X12122206Y-10931960D02*
X12141253Y-10941484D01*
X12141253Y-10941484D02*
X12179348Y-10941484D01*
X12179348Y-10941484D02*
X12198396Y-10931960D01*
X12198396Y-10931960D02*
X12207920Y-10922436D01*
X12207920Y-10922436D02*
X12217444Y-10903389D01*
X12217444Y-10903389D02*
X12217444Y-10865293D01*
X12217444Y-10865293D02*
X12207920Y-10846246D01*
X12207920Y-10846246D02*
X12198396Y-10836722D01*
X12198396Y-10836722D02*
X12179348Y-10827198D01*
X12293634Y-10741484D02*
X12293634Y-10779579D01*
X12369825Y-10741484D02*
X12369825Y-10779579D01*
X12665063Y-11017674D02*
X12655539Y-11008150D01*
X12655539Y-11008150D02*
X12636491Y-10979579D01*
X12636491Y-10979579D02*
X12626968Y-10960531D01*
X12626968Y-10960531D02*
X12617444Y-10931960D01*
X12617444Y-10931960D02*
X12607920Y-10884341D01*
X12607920Y-10884341D02*
X12607920Y-10846246D01*
X12607920Y-10846246D02*
X12617444Y-10798627D01*
X12617444Y-10798627D02*
X12626968Y-10770055D01*
X12626968Y-10770055D02*
X12636491Y-10751008D01*
X12636491Y-10751008D02*
X12655539Y-10722436D01*
X12655539Y-10722436D02*
X12665063Y-10712912D01*
X12836491Y-10741484D02*
X12741253Y-10741484D01*
X12741253Y-10741484D02*
X12731729Y-10836722D01*
X12731729Y-10836722D02*
X12741253Y-10827198D01*
X12741253Y-10827198D02*
X12760301Y-10817674D01*
X12760301Y-10817674D02*
X12807920Y-10817674D01*
X12807920Y-10817674D02*
X12826968Y-10827198D01*
X12826968Y-10827198D02*
X12836491Y-10836722D01*
X12836491Y-10836722D02*
X12846015Y-10855770D01*
X12846015Y-10855770D02*
X12846015Y-10903389D01*
X12846015Y-10903389D02*
X12836491Y-10922436D01*
X12836491Y-10922436D02*
X12826968Y-10931960D01*
X12826968Y-10931960D02*
X12807920Y-10941484D01*
X12807920Y-10941484D02*
X12760301Y-10941484D01*
X12760301Y-10941484D02*
X12741253Y-10931960D01*
X12741253Y-10931960D02*
X12731729Y-10922436D01*
X12960301Y-10827198D02*
X12941253Y-10817674D01*
X12941253Y-10817674D02*
X12931729Y-10808150D01*
X12931729Y-10808150D02*
X12922206Y-10789103D01*
X12922206Y-10789103D02*
X12922206Y-10779579D01*
X12922206Y-10779579D02*
X12931729Y-10760531D01*
X12931729Y-10760531D02*
X12941253Y-10751008D01*
X12941253Y-10751008D02*
X12960301Y-10741484D01*
X12960301Y-10741484D02*
X12998396Y-10741484D01*
X12998396Y-10741484D02*
X13017444Y-10751008D01*
X13017444Y-10751008D02*
X13026968Y-10760531D01*
X13026968Y-10760531D02*
X13036491Y-10779579D01*
X13036491Y-10779579D02*
X13036491Y-10789103D01*
X13036491Y-10789103D02*
X13026968Y-10808150D01*
X13026968Y-10808150D02*
X13017444Y-10817674D01*
X13017444Y-10817674D02*
X12998396Y-10827198D01*
X12998396Y-10827198D02*
X12960301Y-10827198D01*
X12960301Y-10827198D02*
X12941253Y-10836722D01*
X12941253Y-10836722D02*
X12931729Y-10846246D01*
X12931729Y-10846246D02*
X12922206Y-10865293D01*
X12922206Y-10865293D02*
X12922206Y-10903389D01*
X12922206Y-10903389D02*
X12931729Y-10922436D01*
X12931729Y-10922436D02*
X12941253Y-10931960D01*
X12941253Y-10931960D02*
X12960301Y-10941484D01*
X12960301Y-10941484D02*
X12998396Y-10941484D01*
X12998396Y-10941484D02*
X13017444Y-10931960D01*
X13017444Y-10931960D02*
X13026968Y-10922436D01*
X13026968Y-10922436D02*
X13036491Y-10903389D01*
X13036491Y-10903389D02*
X13036491Y-10865293D01*
X13036491Y-10865293D02*
X13026968Y-10846246D01*
X13026968Y-10846246D02*
X13017444Y-10836722D01*
X13017444Y-10836722D02*
X12998396Y-10827198D01*
X13274587Y-10941484D02*
X13274587Y-10741484D01*
X13360301Y-10941484D02*
X13360301Y-10836722D01*
X13360301Y-10836722D02*
X13350777Y-10817674D01*
X13350777Y-10817674D02*
X13331730Y-10808150D01*
X13331730Y-10808150D02*
X13303158Y-10808150D01*
X13303158Y-10808150D02*
X13284110Y-10817674D01*
X13284110Y-10817674D02*
X13274587Y-10827198D01*
X13484110Y-10941484D02*
X13465063Y-10931960D01*
X13465063Y-10931960D02*
X13455539Y-10922436D01*
X13455539Y-10922436D02*
X13446015Y-10903389D01*
X13446015Y-10903389D02*
X13446015Y-10846246D01*
X13446015Y-10846246D02*
X13455539Y-10827198D01*
X13455539Y-10827198D02*
X13465063Y-10817674D01*
X13465063Y-10817674D02*
X13484110Y-10808150D01*
X13484110Y-10808150D02*
X13512682Y-10808150D01*
X13512682Y-10808150D02*
X13531730Y-10817674D01*
X13531730Y-10817674D02*
X13541253Y-10827198D01*
X13541253Y-10827198D02*
X13550777Y-10846246D01*
X13550777Y-10846246D02*
X13550777Y-10903389D01*
X13550777Y-10903389D02*
X13541253Y-10922436D01*
X13541253Y-10922436D02*
X13531730Y-10931960D01*
X13531730Y-10931960D02*
X13512682Y-10941484D01*
X13512682Y-10941484D02*
X13484110Y-10941484D01*
X13665063Y-10941484D02*
X13646015Y-10931960D01*
X13646015Y-10931960D02*
X13636491Y-10912912D01*
X13636491Y-10912912D02*
X13636491Y-10741484D01*
X13817444Y-10931960D02*
X13798396Y-10941484D01*
X13798396Y-10941484D02*
X13760301Y-10941484D01*
X13760301Y-10941484D02*
X13741253Y-10931960D01*
X13741253Y-10931960D02*
X13731730Y-10912912D01*
X13731730Y-10912912D02*
X13731730Y-10836722D01*
X13731730Y-10836722D02*
X13741253Y-10817674D01*
X13741253Y-10817674D02*
X13760301Y-10808150D01*
X13760301Y-10808150D02*
X13798396Y-10808150D01*
X13798396Y-10808150D02*
X13817444Y-10817674D01*
X13817444Y-10817674D02*
X13826968Y-10836722D01*
X13826968Y-10836722D02*
X13826968Y-10855770D01*
X13826968Y-10855770D02*
X13731730Y-10874817D01*
X13903158Y-10931960D02*
X13922206Y-10941484D01*
X13922206Y-10941484D02*
X13960301Y-10941484D01*
X13960301Y-10941484D02*
X13979349Y-10931960D01*
X13979349Y-10931960D02*
X13988872Y-10912912D01*
X13988872Y-10912912D02*
X13988872Y-10903389D01*
X13988872Y-10903389D02*
X13979349Y-10884341D01*
X13979349Y-10884341D02*
X13960301Y-10874817D01*
X13960301Y-10874817D02*
X13931730Y-10874817D01*
X13931730Y-10874817D02*
X13912682Y-10865293D01*
X13912682Y-10865293D02*
X13903158Y-10846246D01*
X13903158Y-10846246D02*
X13903158Y-10836722D01*
X13903158Y-10836722D02*
X13912682Y-10817674D01*
X13912682Y-10817674D02*
X13931730Y-10808150D01*
X13931730Y-10808150D02*
X13960301Y-10808150D01*
X13960301Y-10808150D02*
X13979349Y-10817674D01*
X14055539Y-11017674D02*
X14065063Y-11008150D01*
X14065063Y-11008150D02*
X14084111Y-10979579D01*
X14084111Y-10979579D02*
X14093634Y-10960531D01*
X14093634Y-10960531D02*
X14103158Y-10931960D01*
X14103158Y-10931960D02*
X14112682Y-10884341D01*
X14112682Y-10884341D02*
X14112682Y-10846246D01*
X14112682Y-10846246D02*
X14103158Y-10798627D01*
X14103158Y-10798627D02*
X14093634Y-10770055D01*
X14093634Y-10770055D02*
X14084111Y-10751008D01*
X14084111Y-10751008D02*
X14065063Y-10722436D01*
X14065063Y-10722436D02*
X14055539Y-10712912D01*
D12*
X9090000Y-11114000D02*
G75*
G02*
X9020000Y-11114000I-35000J0D01*
G01*
X9020000Y-11114000D02*
G75*
G02*
X9090000Y-11114000I35000J0D01*
G01*
D11*
X9388872Y-11005484D02*
X9407920Y-11005484D01*
X9407920Y-11005484D02*
X9426967Y-11015008D01*
X9426967Y-11015008D02*
X9436491Y-11024531D01*
X9436491Y-11024531D02*
X9446015Y-11043579D01*
X9446015Y-11043579D02*
X9455539Y-11081674D01*
X9455539Y-11081674D02*
X9455539Y-11129293D01*
X9455539Y-11129293D02*
X9446015Y-11167389D01*
X9446015Y-11167389D02*
X9436491Y-11186436D01*
X9436491Y-11186436D02*
X9426967Y-11195960D01*
X9426967Y-11195960D02*
X9407920Y-11205484D01*
X9407920Y-11205484D02*
X9388872Y-11205484D01*
X9388872Y-11205484D02*
X9369824Y-11195960D01*
X9369824Y-11195960D02*
X9360301Y-11186436D01*
X9360301Y-11186436D02*
X9350777Y-11167389D01*
X9350777Y-11167389D02*
X9341253Y-11129293D01*
X9341253Y-11129293D02*
X9341253Y-11081674D01*
X9341253Y-11081674D02*
X9350777Y-11043579D01*
X9350777Y-11043579D02*
X9360301Y-11024531D01*
X9360301Y-11024531D02*
X9369824Y-11015008D01*
X9369824Y-11015008D02*
X9388872Y-11005484D01*
X9541253Y-11186436D02*
X9550777Y-11195960D01*
X9550777Y-11195960D02*
X9541253Y-11205484D01*
X9541253Y-11205484D02*
X9531729Y-11195960D01*
X9531729Y-11195960D02*
X9541253Y-11186436D01*
X9541253Y-11186436D02*
X9541253Y-11205484D01*
X9617444Y-11005484D02*
X9750777Y-11005484D01*
X9750777Y-11005484D02*
X9665063Y-11205484D01*
X9865063Y-11005484D02*
X9884110Y-11005484D01*
X9884110Y-11005484D02*
X9903158Y-11015008D01*
X9903158Y-11015008D02*
X9912682Y-11024531D01*
X9912682Y-11024531D02*
X9922205Y-11043579D01*
X9922205Y-11043579D02*
X9931729Y-11081674D01*
X9931729Y-11081674D02*
X9931729Y-11129293D01*
X9931729Y-11129293D02*
X9922205Y-11167389D01*
X9922205Y-11167389D02*
X9912682Y-11186436D01*
X9912682Y-11186436D02*
X9903158Y-11195960D01*
X9903158Y-11195960D02*
X9884110Y-11205484D01*
X9884110Y-11205484D02*
X9865063Y-11205484D01*
X9865063Y-11205484D02*
X9846015Y-11195960D01*
X9846015Y-11195960D02*
X9836491Y-11186436D01*
X9836491Y-11186436D02*
X9826967Y-11167389D01*
X9826967Y-11167389D02*
X9817444Y-11129293D01*
X9817444Y-11129293D02*
X9817444Y-11081674D01*
X9817444Y-11081674D02*
X9826967Y-11043579D01*
X9826967Y-11043579D02*
X9836491Y-11024531D01*
X9836491Y-11024531D02*
X9846015Y-11015008D01*
X9846015Y-11015008D02*
X9865063Y-11005484D01*
X10055539Y-11005484D02*
X10074586Y-11005484D01*
X10074586Y-11005484D02*
X10093634Y-11015008D01*
X10093634Y-11015008D02*
X10103158Y-11024531D01*
X10103158Y-11024531D02*
X10112682Y-11043579D01*
X10112682Y-11043579D02*
X10122205Y-11081674D01*
X10122205Y-11081674D02*
X10122205Y-11129293D01*
X10122205Y-11129293D02*
X10112682Y-11167389D01*
X10112682Y-11167389D02*
X10103158Y-11186436D01*
X10103158Y-11186436D02*
X10093634Y-11195960D01*
X10093634Y-11195960D02*
X10074586Y-11205484D01*
X10074586Y-11205484D02*
X10055539Y-11205484D01*
X10055539Y-11205484D02*
X10036491Y-11195960D01*
X10036491Y-11195960D02*
X10026967Y-11186436D01*
X10026967Y-11186436D02*
X10017444Y-11167389D01*
X10017444Y-11167389D02*
X10007920Y-11129293D01*
X10007920Y-11129293D02*
X10007920Y-11081674D01*
X10007920Y-11081674D02*
X10017444Y-11043579D01*
X10017444Y-11043579D02*
X10026967Y-11024531D01*
X10026967Y-11024531D02*
X10036491Y-11015008D01*
X10036491Y-11015008D02*
X10055539Y-11005484D01*
X10207920Y-11205484D02*
X10207920Y-11072150D01*
X10207920Y-11091198D02*
X10217444Y-11081674D01*
X10217444Y-11081674D02*
X10236491Y-11072150D01*
X10236491Y-11072150D02*
X10265063Y-11072150D01*
X10265063Y-11072150D02*
X10284110Y-11081674D01*
X10284110Y-11081674D02*
X10293634Y-11100722D01*
X10293634Y-11100722D02*
X10293634Y-11205484D01*
X10293634Y-11100722D02*
X10303158Y-11081674D01*
X10303158Y-11081674D02*
X10322205Y-11072150D01*
X10322205Y-11072150D02*
X10350777Y-11072150D01*
X10350777Y-11072150D02*
X10369825Y-11081674D01*
X10369825Y-11081674D02*
X10379348Y-11100722D01*
X10379348Y-11100722D02*
X10379348Y-11205484D01*
X10474586Y-11205484D02*
X10474586Y-11072150D01*
X10474586Y-11091198D02*
X10484110Y-11081674D01*
X10484110Y-11081674D02*
X10503158Y-11072150D01*
X10503158Y-11072150D02*
X10531729Y-11072150D01*
X10531729Y-11072150D02*
X10550777Y-11081674D01*
X10550777Y-11081674D02*
X10560301Y-11100722D01*
X10560301Y-11100722D02*
X10560301Y-11205484D01*
X10560301Y-11100722D02*
X10569825Y-11081674D01*
X10569825Y-11081674D02*
X10588872Y-11072150D01*
X10588872Y-11072150D02*
X10617444Y-11072150D01*
X10617444Y-11072150D02*
X10636491Y-11081674D01*
X10636491Y-11081674D02*
X10646015Y-11100722D01*
X10646015Y-11100722D02*
X10646015Y-11205484D01*
X11036491Y-10995960D02*
X10865063Y-11253103D01*
X11293634Y-11005484D02*
X11312682Y-11005484D01*
X11312682Y-11005484D02*
X11331729Y-11015008D01*
X11331729Y-11015008D02*
X11341253Y-11024531D01*
X11341253Y-11024531D02*
X11350777Y-11043579D01*
X11350777Y-11043579D02*
X11360301Y-11081674D01*
X11360301Y-11081674D02*
X11360301Y-11129293D01*
X11360301Y-11129293D02*
X11350777Y-11167389D01*
X11350777Y-11167389D02*
X11341253Y-11186436D01*
X11341253Y-11186436D02*
X11331729Y-11195960D01*
X11331729Y-11195960D02*
X11312682Y-11205484D01*
X11312682Y-11205484D02*
X11293634Y-11205484D01*
X11293634Y-11205484D02*
X11274586Y-11195960D01*
X11274586Y-11195960D02*
X11265063Y-11186436D01*
X11265063Y-11186436D02*
X11255539Y-11167389D01*
X11255539Y-11167389D02*
X11246015Y-11129293D01*
X11246015Y-11129293D02*
X11246015Y-11081674D01*
X11246015Y-11081674D02*
X11255539Y-11043579D01*
X11255539Y-11043579D02*
X11265063Y-11024531D01*
X11265063Y-11024531D02*
X11274586Y-11015008D01*
X11274586Y-11015008D02*
X11293634Y-11005484D01*
X11446015Y-11186436D02*
X11455539Y-11195960D01*
X11455539Y-11195960D02*
X11446015Y-11205484D01*
X11446015Y-11205484D02*
X11436491Y-11195960D01*
X11436491Y-11195960D02*
X11446015Y-11186436D01*
X11446015Y-11186436D02*
X11446015Y-11205484D01*
X11579348Y-11005484D02*
X11598396Y-11005484D01*
X11598396Y-11005484D02*
X11617444Y-11015008D01*
X11617444Y-11015008D02*
X11626967Y-11024531D01*
X11626967Y-11024531D02*
X11636491Y-11043579D01*
X11636491Y-11043579D02*
X11646015Y-11081674D01*
X11646015Y-11081674D02*
X11646015Y-11129293D01*
X11646015Y-11129293D02*
X11636491Y-11167389D01*
X11636491Y-11167389D02*
X11626967Y-11186436D01*
X11626967Y-11186436D02*
X11617444Y-11195960D01*
X11617444Y-11195960D02*
X11598396Y-11205484D01*
X11598396Y-11205484D02*
X11579348Y-11205484D01*
X11579348Y-11205484D02*
X11560301Y-11195960D01*
X11560301Y-11195960D02*
X11550777Y-11186436D01*
X11550777Y-11186436D02*
X11541253Y-11167389D01*
X11541253Y-11167389D02*
X11531729Y-11129293D01*
X11531729Y-11129293D02*
X11531729Y-11081674D01*
X11531729Y-11081674D02*
X11541253Y-11043579D01*
X11541253Y-11043579D02*
X11550777Y-11024531D01*
X11550777Y-11024531D02*
X11560301Y-11015008D01*
X11560301Y-11015008D02*
X11579348Y-11005484D01*
X11722206Y-11024531D02*
X11731729Y-11015008D01*
X11731729Y-11015008D02*
X11750777Y-11005484D01*
X11750777Y-11005484D02*
X11798396Y-11005484D01*
X11798396Y-11005484D02*
X11817444Y-11015008D01*
X11817444Y-11015008D02*
X11826967Y-11024531D01*
X11826967Y-11024531D02*
X11836491Y-11043579D01*
X11836491Y-11043579D02*
X11836491Y-11062627D01*
X11836491Y-11062627D02*
X11826967Y-11091198D01*
X11826967Y-11091198D02*
X11712682Y-11205484D01*
X11712682Y-11205484D02*
X11836491Y-11205484D01*
X11903158Y-11005484D02*
X12036491Y-11005484D01*
X12036491Y-11005484D02*
X11950777Y-11205484D01*
X12198396Y-11005484D02*
X12160301Y-11005484D01*
X12160301Y-11005484D02*
X12141253Y-11015008D01*
X12141253Y-11015008D02*
X12131729Y-11024531D01*
X12131729Y-11024531D02*
X12112682Y-11053103D01*
X12112682Y-11053103D02*
X12103158Y-11091198D01*
X12103158Y-11091198D02*
X12103158Y-11167389D01*
X12103158Y-11167389D02*
X12112682Y-11186436D01*
X12112682Y-11186436D02*
X12122206Y-11195960D01*
X12122206Y-11195960D02*
X12141253Y-11205484D01*
X12141253Y-11205484D02*
X12179348Y-11205484D01*
X12179348Y-11205484D02*
X12198396Y-11195960D01*
X12198396Y-11195960D02*
X12207920Y-11186436D01*
X12207920Y-11186436D02*
X12217444Y-11167389D01*
X12217444Y-11167389D02*
X12217444Y-11119770D01*
X12217444Y-11119770D02*
X12207920Y-11100722D01*
X12207920Y-11100722D02*
X12198396Y-11091198D01*
X12198396Y-11091198D02*
X12179348Y-11081674D01*
X12179348Y-11081674D02*
X12141253Y-11081674D01*
X12141253Y-11081674D02*
X12122206Y-11091198D01*
X12122206Y-11091198D02*
X12112682Y-11100722D01*
X12112682Y-11100722D02*
X12103158Y-11119770D01*
X12293634Y-11005484D02*
X12293634Y-11043579D01*
X12369825Y-11005484D02*
X12369825Y-11043579D01*
X12665063Y-11281674D02*
X12655539Y-11272150D01*
X12655539Y-11272150D02*
X12636491Y-11243579D01*
X12636491Y-11243579D02*
X12626968Y-11224531D01*
X12626968Y-11224531D02*
X12617444Y-11195960D01*
X12617444Y-11195960D02*
X12607920Y-11148341D01*
X12607920Y-11148341D02*
X12607920Y-11110246D01*
X12607920Y-11110246D02*
X12617444Y-11062627D01*
X12617444Y-11062627D02*
X12626968Y-11034055D01*
X12626968Y-11034055D02*
X12636491Y-11015008D01*
X12636491Y-11015008D02*
X12655539Y-10986436D01*
X12655539Y-10986436D02*
X12665063Y-10976912D01*
X12826968Y-11072150D02*
X12826968Y-11205484D01*
X12779348Y-10995960D02*
X12731729Y-11138817D01*
X12731729Y-11138817D02*
X12855539Y-11138817D01*
X13084110Y-11205484D02*
X13084110Y-11005484D01*
X13169825Y-11205484D02*
X13169825Y-11100722D01*
X13169825Y-11100722D02*
X13160301Y-11081674D01*
X13160301Y-11081674D02*
X13141253Y-11072150D01*
X13141253Y-11072150D02*
X13112682Y-11072150D01*
X13112682Y-11072150D02*
X13093634Y-11081674D01*
X13093634Y-11081674D02*
X13084110Y-11091198D01*
X13293634Y-11205484D02*
X13274587Y-11195960D01*
X13274587Y-11195960D02*
X13265063Y-11186436D01*
X13265063Y-11186436D02*
X13255539Y-11167389D01*
X13255539Y-11167389D02*
X13255539Y-11110246D01*
X13255539Y-11110246D02*
X13265063Y-11091198D01*
X13265063Y-11091198D02*
X13274587Y-11081674D01*
X13274587Y-11081674D02*
X13293634Y-11072150D01*
X13293634Y-11072150D02*
X13322206Y-11072150D01*
X13322206Y-11072150D02*
X13341253Y-11081674D01*
X13341253Y-11081674D02*
X13350777Y-11091198D01*
X13350777Y-11091198D02*
X13360301Y-11110246D01*
X13360301Y-11110246D02*
X13360301Y-11167389D01*
X13360301Y-11167389D02*
X13350777Y-11186436D01*
X13350777Y-11186436D02*
X13341253Y-11195960D01*
X13341253Y-11195960D02*
X13322206Y-11205484D01*
X13322206Y-11205484D02*
X13293634Y-11205484D01*
X13474587Y-11205484D02*
X13455539Y-11195960D01*
X13455539Y-11195960D02*
X13446015Y-11176912D01*
X13446015Y-11176912D02*
X13446015Y-11005484D01*
X13626968Y-11195960D02*
X13607920Y-11205484D01*
X13607920Y-11205484D02*
X13569825Y-11205484D01*
X13569825Y-11205484D02*
X13550777Y-11195960D01*
X13550777Y-11195960D02*
X13541253Y-11176912D01*
X13541253Y-11176912D02*
X13541253Y-11100722D01*
X13541253Y-11100722D02*
X13550777Y-11081674D01*
X13550777Y-11081674D02*
X13569825Y-11072150D01*
X13569825Y-11072150D02*
X13607920Y-11072150D01*
X13607920Y-11072150D02*
X13626968Y-11081674D01*
X13626968Y-11081674D02*
X13636491Y-11100722D01*
X13636491Y-11100722D02*
X13636491Y-11119770D01*
X13636491Y-11119770D02*
X13541253Y-11138817D01*
X13712682Y-11195960D02*
X13731730Y-11205484D01*
X13731730Y-11205484D02*
X13769825Y-11205484D01*
X13769825Y-11205484D02*
X13788872Y-11195960D01*
X13788872Y-11195960D02*
X13798396Y-11176912D01*
X13798396Y-11176912D02*
X13798396Y-11167389D01*
X13798396Y-11167389D02*
X13788872Y-11148341D01*
X13788872Y-11148341D02*
X13769825Y-11138817D01*
X13769825Y-11138817D02*
X13741253Y-11138817D01*
X13741253Y-11138817D02*
X13722206Y-11129293D01*
X13722206Y-11129293D02*
X13712682Y-11110246D01*
X13712682Y-11110246D02*
X13712682Y-11100722D01*
X13712682Y-11100722D02*
X13722206Y-11081674D01*
X13722206Y-11081674D02*
X13741253Y-11072150D01*
X13741253Y-11072150D02*
X13769825Y-11072150D01*
X13769825Y-11072150D02*
X13788872Y-11081674D01*
X13865063Y-11281674D02*
X13874587Y-11272150D01*
X13874587Y-11272150D02*
X13893634Y-11243579D01*
X13893634Y-11243579D02*
X13903158Y-11224531D01*
X13903158Y-11224531D02*
X13912682Y-11195960D01*
X13912682Y-11195960D02*
X13922206Y-11148341D01*
X13922206Y-11148341D02*
X13922206Y-11110246D01*
X13922206Y-11110246D02*
X13912682Y-11062627D01*
X13912682Y-11062627D02*
X13903158Y-11034055D01*
X13903158Y-11034055D02*
X13893634Y-11015008D01*
X13893634Y-11015008D02*
X13874587Y-10986436D01*
X13874587Y-10986436D02*
X13865063Y-10976912D01*
D12*
X9050000Y-11338000D02*
X9050000Y-11418000D01*
X9010000Y-11378000D02*
X9090000Y-11378000D01*
D11*
X9388872Y-11269484D02*
X9407920Y-11269484D01*
X9407920Y-11269484D02*
X9426967Y-11279008D01*
X9426967Y-11279008D02*
X9436491Y-11288531D01*
X9436491Y-11288531D02*
X9446015Y-11307579D01*
X9446015Y-11307579D02*
X9455539Y-11345674D01*
X9455539Y-11345674D02*
X9455539Y-11393293D01*
X9455539Y-11393293D02*
X9446015Y-11431388D01*
X9446015Y-11431388D02*
X9436491Y-11450436D01*
X9436491Y-11450436D02*
X9426967Y-11459960D01*
X9426967Y-11459960D02*
X9407920Y-11469484D01*
X9407920Y-11469484D02*
X9388872Y-11469484D01*
X9388872Y-11469484D02*
X9369824Y-11459960D01*
X9369824Y-11459960D02*
X9360301Y-11450436D01*
X9360301Y-11450436D02*
X9350777Y-11431388D01*
X9350777Y-11431388D02*
X9341253Y-11393293D01*
X9341253Y-11393293D02*
X9341253Y-11345674D01*
X9341253Y-11345674D02*
X9350777Y-11307579D01*
X9350777Y-11307579D02*
X9360301Y-11288531D01*
X9360301Y-11288531D02*
X9369824Y-11279008D01*
X9369824Y-11279008D02*
X9388872Y-11269484D01*
X9541253Y-11450436D02*
X9550777Y-11459960D01*
X9550777Y-11459960D02*
X9541253Y-11469484D01*
X9541253Y-11469484D02*
X9531729Y-11459960D01*
X9531729Y-11459960D02*
X9541253Y-11450436D01*
X9541253Y-11450436D02*
X9541253Y-11469484D01*
X9665063Y-11355198D02*
X9646015Y-11345674D01*
X9646015Y-11345674D02*
X9636491Y-11336150D01*
X9636491Y-11336150D02*
X9626967Y-11317103D01*
X9626967Y-11317103D02*
X9626967Y-11307579D01*
X9626967Y-11307579D02*
X9636491Y-11288531D01*
X9636491Y-11288531D02*
X9646015Y-11279008D01*
X9646015Y-11279008D02*
X9665063Y-11269484D01*
X9665063Y-11269484D02*
X9703158Y-11269484D01*
X9703158Y-11269484D02*
X9722205Y-11279008D01*
X9722205Y-11279008D02*
X9731729Y-11288531D01*
X9731729Y-11288531D02*
X9741253Y-11307579D01*
X9741253Y-11307579D02*
X9741253Y-11317103D01*
X9741253Y-11317103D02*
X9731729Y-11336150D01*
X9731729Y-11336150D02*
X9722205Y-11345674D01*
X9722205Y-11345674D02*
X9703158Y-11355198D01*
X9703158Y-11355198D02*
X9665063Y-11355198D01*
X9665063Y-11355198D02*
X9646015Y-11364722D01*
X9646015Y-11364722D02*
X9636491Y-11374246D01*
X9636491Y-11374246D02*
X9626967Y-11393293D01*
X9626967Y-11393293D02*
X9626967Y-11431388D01*
X9626967Y-11431388D02*
X9636491Y-11450436D01*
X9636491Y-11450436D02*
X9646015Y-11459960D01*
X9646015Y-11459960D02*
X9665063Y-11469484D01*
X9665063Y-11469484D02*
X9703158Y-11469484D01*
X9703158Y-11469484D02*
X9722205Y-11459960D01*
X9722205Y-11459960D02*
X9731729Y-11450436D01*
X9731729Y-11450436D02*
X9741253Y-11431388D01*
X9741253Y-11431388D02*
X9741253Y-11393293D01*
X9741253Y-11393293D02*
X9731729Y-11374246D01*
X9731729Y-11374246D02*
X9722205Y-11364722D01*
X9722205Y-11364722D02*
X9703158Y-11355198D01*
X9865063Y-11269484D02*
X9884110Y-11269484D01*
X9884110Y-11269484D02*
X9903158Y-11279008D01*
X9903158Y-11279008D02*
X9912682Y-11288531D01*
X9912682Y-11288531D02*
X9922205Y-11307579D01*
X9922205Y-11307579D02*
X9931729Y-11345674D01*
X9931729Y-11345674D02*
X9931729Y-11393293D01*
X9931729Y-11393293D02*
X9922205Y-11431388D01*
X9922205Y-11431388D02*
X9912682Y-11450436D01*
X9912682Y-11450436D02*
X9903158Y-11459960D01*
X9903158Y-11459960D02*
X9884110Y-11469484D01*
X9884110Y-11469484D02*
X9865063Y-11469484D01*
X9865063Y-11469484D02*
X9846015Y-11459960D01*
X9846015Y-11459960D02*
X9836491Y-11450436D01*
X9836491Y-11450436D02*
X9826967Y-11431388D01*
X9826967Y-11431388D02*
X9817444Y-11393293D01*
X9817444Y-11393293D02*
X9817444Y-11345674D01*
X9817444Y-11345674D02*
X9826967Y-11307579D01*
X9826967Y-11307579D02*
X9836491Y-11288531D01*
X9836491Y-11288531D02*
X9846015Y-11279008D01*
X9846015Y-11279008D02*
X9865063Y-11269484D01*
X10055539Y-11269484D02*
X10074586Y-11269484D01*
X10074586Y-11269484D02*
X10093634Y-11279008D01*
X10093634Y-11279008D02*
X10103158Y-11288531D01*
X10103158Y-11288531D02*
X10112682Y-11307579D01*
X10112682Y-11307579D02*
X10122205Y-11345674D01*
X10122205Y-11345674D02*
X10122205Y-11393293D01*
X10122205Y-11393293D02*
X10112682Y-11431388D01*
X10112682Y-11431388D02*
X10103158Y-11450436D01*
X10103158Y-11450436D02*
X10093634Y-11459960D01*
X10093634Y-11459960D02*
X10074586Y-11469484D01*
X10074586Y-11469484D02*
X10055539Y-11469484D01*
X10055539Y-11469484D02*
X10036491Y-11459960D01*
X10036491Y-11459960D02*
X10026967Y-11450436D01*
X10026967Y-11450436D02*
X10017444Y-11431388D01*
X10017444Y-11431388D02*
X10007920Y-11393293D01*
X10007920Y-11393293D02*
X10007920Y-11345674D01*
X10007920Y-11345674D02*
X10017444Y-11307579D01*
X10017444Y-11307579D02*
X10026967Y-11288531D01*
X10026967Y-11288531D02*
X10036491Y-11279008D01*
X10036491Y-11279008D02*
X10055539Y-11269484D01*
X10207920Y-11469484D02*
X10207920Y-11336150D01*
X10207920Y-11355198D02*
X10217444Y-11345674D01*
X10217444Y-11345674D02*
X10236491Y-11336150D01*
X10236491Y-11336150D02*
X10265063Y-11336150D01*
X10265063Y-11336150D02*
X10284110Y-11345674D01*
X10284110Y-11345674D02*
X10293634Y-11364722D01*
X10293634Y-11364722D02*
X10293634Y-11469484D01*
X10293634Y-11364722D02*
X10303158Y-11345674D01*
X10303158Y-11345674D02*
X10322205Y-11336150D01*
X10322205Y-11336150D02*
X10350777Y-11336150D01*
X10350777Y-11336150D02*
X10369825Y-11345674D01*
X10369825Y-11345674D02*
X10379348Y-11364722D01*
X10379348Y-11364722D02*
X10379348Y-11469484D01*
X10474586Y-11469484D02*
X10474586Y-11336150D01*
X10474586Y-11355198D02*
X10484110Y-11345674D01*
X10484110Y-11345674D02*
X10503158Y-11336150D01*
X10503158Y-11336150D02*
X10531729Y-11336150D01*
X10531729Y-11336150D02*
X10550777Y-11345674D01*
X10550777Y-11345674D02*
X10560301Y-11364722D01*
X10560301Y-11364722D02*
X10560301Y-11469484D01*
X10560301Y-11364722D02*
X10569825Y-11345674D01*
X10569825Y-11345674D02*
X10588872Y-11336150D01*
X10588872Y-11336150D02*
X10617444Y-11336150D01*
X10617444Y-11336150D02*
X10636491Y-11345674D01*
X10636491Y-11345674D02*
X10646015Y-11364722D01*
X10646015Y-11364722D02*
X10646015Y-11469484D01*
X11036491Y-11259960D02*
X10865063Y-11517103D01*
X11293634Y-11269484D02*
X11312682Y-11269484D01*
X11312682Y-11269484D02*
X11331729Y-11279008D01*
X11331729Y-11279008D02*
X11341253Y-11288531D01*
X11341253Y-11288531D02*
X11350777Y-11307579D01*
X11350777Y-11307579D02*
X11360301Y-11345674D01*
X11360301Y-11345674D02*
X11360301Y-11393293D01*
X11360301Y-11393293D02*
X11350777Y-11431388D01*
X11350777Y-11431388D02*
X11341253Y-11450436D01*
X11341253Y-11450436D02*
X11331729Y-11459960D01*
X11331729Y-11459960D02*
X11312682Y-11469484D01*
X11312682Y-11469484D02*
X11293634Y-11469484D01*
X11293634Y-11469484D02*
X11274586Y-11459960D01*
X11274586Y-11459960D02*
X11265063Y-11450436D01*
X11265063Y-11450436D02*
X11255539Y-11431388D01*
X11255539Y-11431388D02*
X11246015Y-11393293D01*
X11246015Y-11393293D02*
X11246015Y-11345674D01*
X11246015Y-11345674D02*
X11255539Y-11307579D01*
X11255539Y-11307579D02*
X11265063Y-11288531D01*
X11265063Y-11288531D02*
X11274586Y-11279008D01*
X11274586Y-11279008D02*
X11293634Y-11269484D01*
X11446015Y-11450436D02*
X11455539Y-11459960D01*
X11455539Y-11459960D02*
X11446015Y-11469484D01*
X11446015Y-11469484D02*
X11436491Y-11459960D01*
X11436491Y-11459960D02*
X11446015Y-11450436D01*
X11446015Y-11450436D02*
X11446015Y-11469484D01*
X11579348Y-11269484D02*
X11598396Y-11269484D01*
X11598396Y-11269484D02*
X11617444Y-11279008D01*
X11617444Y-11279008D02*
X11626967Y-11288531D01*
X11626967Y-11288531D02*
X11636491Y-11307579D01*
X11636491Y-11307579D02*
X11646015Y-11345674D01*
X11646015Y-11345674D02*
X11646015Y-11393293D01*
X11646015Y-11393293D02*
X11636491Y-11431388D01*
X11636491Y-11431388D02*
X11626967Y-11450436D01*
X11626967Y-11450436D02*
X11617444Y-11459960D01*
X11617444Y-11459960D02*
X11598396Y-11469484D01*
X11598396Y-11469484D02*
X11579348Y-11469484D01*
X11579348Y-11469484D02*
X11560301Y-11459960D01*
X11560301Y-11459960D02*
X11550777Y-11450436D01*
X11550777Y-11450436D02*
X11541253Y-11431388D01*
X11541253Y-11431388D02*
X11531729Y-11393293D01*
X11531729Y-11393293D02*
X11531729Y-11345674D01*
X11531729Y-11345674D02*
X11541253Y-11307579D01*
X11541253Y-11307579D02*
X11550777Y-11288531D01*
X11550777Y-11288531D02*
X11560301Y-11279008D01*
X11560301Y-11279008D02*
X11579348Y-11269484D01*
X11712682Y-11269484D02*
X11836491Y-11269484D01*
X11836491Y-11269484D02*
X11769825Y-11345674D01*
X11769825Y-11345674D02*
X11798396Y-11345674D01*
X11798396Y-11345674D02*
X11817444Y-11355198D01*
X11817444Y-11355198D02*
X11826967Y-11364722D01*
X11826967Y-11364722D02*
X11836491Y-11383769D01*
X11836491Y-11383769D02*
X11836491Y-11431388D01*
X11836491Y-11431388D02*
X11826967Y-11450436D01*
X11826967Y-11450436D02*
X11817444Y-11459960D01*
X11817444Y-11459960D02*
X11798396Y-11469484D01*
X11798396Y-11469484D02*
X11741253Y-11469484D01*
X11741253Y-11469484D02*
X11722206Y-11459960D01*
X11722206Y-11459960D02*
X11712682Y-11450436D01*
X12026967Y-11469484D02*
X11912682Y-11469484D01*
X11969825Y-11469484D02*
X11969825Y-11269484D01*
X11969825Y-11269484D02*
X11950777Y-11298055D01*
X11950777Y-11298055D02*
X11931729Y-11317103D01*
X11931729Y-11317103D02*
X11912682Y-11326627D01*
X12207920Y-11269484D02*
X12112682Y-11269484D01*
X12112682Y-11269484D02*
X12103158Y-11364722D01*
X12103158Y-11364722D02*
X12112682Y-11355198D01*
X12112682Y-11355198D02*
X12131729Y-11345674D01*
X12131729Y-11345674D02*
X12179348Y-11345674D01*
X12179348Y-11345674D02*
X12198396Y-11355198D01*
X12198396Y-11355198D02*
X12207920Y-11364722D01*
X12207920Y-11364722D02*
X12217444Y-11383769D01*
X12217444Y-11383769D02*
X12217444Y-11431388D01*
X12217444Y-11431388D02*
X12207920Y-11450436D01*
X12207920Y-11450436D02*
X12198396Y-11459960D01*
X12198396Y-11459960D02*
X12179348Y-11469484D01*
X12179348Y-11469484D02*
X12131729Y-11469484D01*
X12131729Y-11469484D02*
X12112682Y-11459960D01*
X12112682Y-11459960D02*
X12103158Y-11450436D01*
X12293634Y-11269484D02*
X12293634Y-11307579D01*
X12369825Y-11269484D02*
X12369825Y-11307579D01*
X12665063Y-11545674D02*
X12655539Y-11536150D01*
X12655539Y-11536150D02*
X12636491Y-11507579D01*
X12636491Y-11507579D02*
X12626968Y-11488531D01*
X12626968Y-11488531D02*
X12617444Y-11459960D01*
X12617444Y-11459960D02*
X12607920Y-11412341D01*
X12607920Y-11412341D02*
X12607920Y-11374246D01*
X12607920Y-11374246D02*
X12617444Y-11326627D01*
X12617444Y-11326627D02*
X12626968Y-11298055D01*
X12626968Y-11298055D02*
X12636491Y-11279008D01*
X12636491Y-11279008D02*
X12655539Y-11250436D01*
X12655539Y-11250436D02*
X12665063Y-11240912D01*
X12779348Y-11269484D02*
X12798396Y-11269484D01*
X12798396Y-11269484D02*
X12817444Y-11279008D01*
X12817444Y-11279008D02*
X12826968Y-11288531D01*
X12826968Y-11288531D02*
X12836491Y-11307579D01*
X12836491Y-11307579D02*
X12846015Y-11345674D01*
X12846015Y-11345674D02*
X12846015Y-11393293D01*
X12846015Y-11393293D02*
X12836491Y-11431388D01*
X12836491Y-11431388D02*
X12826968Y-11450436D01*
X12826968Y-11450436D02*
X12817444Y-11459960D01*
X12817444Y-11459960D02*
X12798396Y-11469484D01*
X12798396Y-11469484D02*
X12779348Y-11469484D01*
X12779348Y-11469484D02*
X12760301Y-11459960D01*
X12760301Y-11459960D02*
X12750777Y-11450436D01*
X12750777Y-11450436D02*
X12741253Y-11431388D01*
X12741253Y-11431388D02*
X12731729Y-11393293D01*
X12731729Y-11393293D02*
X12731729Y-11345674D01*
X12731729Y-11345674D02*
X12741253Y-11307579D01*
X12741253Y-11307579D02*
X12750777Y-11288531D01*
X12750777Y-11288531D02*
X12760301Y-11279008D01*
X12760301Y-11279008D02*
X12779348Y-11269484D01*
X13084110Y-11469484D02*
X13084110Y-11269484D01*
X13169825Y-11469484D02*
X13169825Y-11364722D01*
X13169825Y-11364722D02*
X13160301Y-11345674D01*
X13160301Y-11345674D02*
X13141253Y-11336150D01*
X13141253Y-11336150D02*
X13112682Y-11336150D01*
X13112682Y-11336150D02*
X13093634Y-11345674D01*
X13093634Y-11345674D02*
X13084110Y-11355198D01*
X13293634Y-11469484D02*
X13274587Y-11459960D01*
X13274587Y-11459960D02*
X13265063Y-11450436D01*
X13265063Y-11450436D02*
X13255539Y-11431388D01*
X13255539Y-11431388D02*
X13255539Y-11374246D01*
X13255539Y-11374246D02*
X13265063Y-11355198D01*
X13265063Y-11355198D02*
X13274587Y-11345674D01*
X13274587Y-11345674D02*
X13293634Y-11336150D01*
X13293634Y-11336150D02*
X13322206Y-11336150D01*
X13322206Y-11336150D02*
X13341253Y-11345674D01*
X13341253Y-11345674D02*
X13350777Y-11355198D01*
X13350777Y-11355198D02*
X13360301Y-11374246D01*
X13360301Y-11374246D02*
X13360301Y-11431388D01*
X13360301Y-11431388D02*
X13350777Y-11450436D01*
X13350777Y-11450436D02*
X13341253Y-11459960D01*
X13341253Y-11459960D02*
X13322206Y-11469484D01*
X13322206Y-11469484D02*
X13293634Y-11469484D01*
X13474587Y-11469484D02*
X13455539Y-11459960D01*
X13455539Y-11459960D02*
X13446015Y-11440912D01*
X13446015Y-11440912D02*
X13446015Y-11269484D01*
X13626968Y-11459960D02*
X13607920Y-11469484D01*
X13607920Y-11469484D02*
X13569825Y-11469484D01*
X13569825Y-11469484D02*
X13550777Y-11459960D01*
X13550777Y-11459960D02*
X13541253Y-11440912D01*
X13541253Y-11440912D02*
X13541253Y-11364722D01*
X13541253Y-11364722D02*
X13550777Y-11345674D01*
X13550777Y-11345674D02*
X13569825Y-11336150D01*
X13569825Y-11336150D02*
X13607920Y-11336150D01*
X13607920Y-11336150D02*
X13626968Y-11345674D01*
X13626968Y-11345674D02*
X13636491Y-11364722D01*
X13636491Y-11364722D02*
X13636491Y-11383769D01*
X13636491Y-11383769D02*
X13541253Y-11402817D01*
X13712682Y-11459960D02*
X13731730Y-11469484D01*
X13731730Y-11469484D02*
X13769825Y-11469484D01*
X13769825Y-11469484D02*
X13788872Y-11459960D01*
X13788872Y-11459960D02*
X13798396Y-11440912D01*
X13798396Y-11440912D02*
X13798396Y-11431388D01*
X13798396Y-11431388D02*
X13788872Y-11412341D01*
X13788872Y-11412341D02*
X13769825Y-11402817D01*
X13769825Y-11402817D02*
X13741253Y-11402817D01*
X13741253Y-11402817D02*
X13722206Y-11393293D01*
X13722206Y-11393293D02*
X13712682Y-11374246D01*
X13712682Y-11374246D02*
X13712682Y-11364722D01*
X13712682Y-11364722D02*
X13722206Y-11345674D01*
X13722206Y-11345674D02*
X13741253Y-11336150D01*
X13741253Y-11336150D02*
X13769825Y-11336150D01*
X13769825Y-11336150D02*
X13788872Y-11345674D01*
X14036492Y-11393293D02*
X14188873Y-11393293D01*
X14112682Y-11469484D02*
X14112682Y-11317103D01*
X14522206Y-11336150D02*
X14522206Y-11469484D01*
X14474587Y-11259960D02*
X14426968Y-11402817D01*
X14426968Y-11402817D02*
X14550777Y-11402817D01*
X14769825Y-11459960D02*
X14788873Y-11469484D01*
X14788873Y-11469484D02*
X14826968Y-11469484D01*
X14826968Y-11469484D02*
X14846015Y-11459960D01*
X14846015Y-11459960D02*
X14855539Y-11440912D01*
X14855539Y-11440912D02*
X14855539Y-11431388D01*
X14855539Y-11431388D02*
X14846015Y-11412341D01*
X14846015Y-11412341D02*
X14826968Y-11402817D01*
X14826968Y-11402817D02*
X14798396Y-11402817D01*
X14798396Y-11402817D02*
X14779349Y-11393293D01*
X14779349Y-11393293D02*
X14769825Y-11374246D01*
X14769825Y-11374246D02*
X14769825Y-11364722D01*
X14769825Y-11364722D02*
X14779349Y-11345674D01*
X14779349Y-11345674D02*
X14798396Y-11336150D01*
X14798396Y-11336150D02*
X14826968Y-11336150D01*
X14826968Y-11336150D02*
X14846015Y-11345674D01*
X14969825Y-11469484D02*
X14950777Y-11459960D01*
X14950777Y-11459960D02*
X14941254Y-11440912D01*
X14941254Y-11440912D02*
X14941254Y-11269484D01*
X15074587Y-11469484D02*
X15055539Y-11459960D01*
X15055539Y-11459960D02*
X15046015Y-11450436D01*
X15046015Y-11450436D02*
X15036492Y-11431388D01*
X15036492Y-11431388D02*
X15036492Y-11374246D01*
X15036492Y-11374246D02*
X15046015Y-11355198D01*
X15046015Y-11355198D02*
X15055539Y-11345674D01*
X15055539Y-11345674D02*
X15074587Y-11336150D01*
X15074587Y-11336150D02*
X15103158Y-11336150D01*
X15103158Y-11336150D02*
X15122206Y-11345674D01*
X15122206Y-11345674D02*
X15131730Y-11355198D01*
X15131730Y-11355198D02*
X15141254Y-11374246D01*
X15141254Y-11374246D02*
X15141254Y-11431388D01*
X15141254Y-11431388D02*
X15131730Y-11450436D01*
X15131730Y-11450436D02*
X15122206Y-11459960D01*
X15122206Y-11459960D02*
X15103158Y-11469484D01*
X15103158Y-11469484D02*
X15074587Y-11469484D01*
X15198396Y-11336150D02*
X15274587Y-11336150D01*
X15226968Y-11269484D02*
X15226968Y-11440912D01*
X15226968Y-11440912D02*
X15236492Y-11459960D01*
X15236492Y-11459960D02*
X15255539Y-11469484D01*
X15255539Y-11469484D02*
X15274587Y-11469484D01*
X15331730Y-11459960D02*
X15350777Y-11469484D01*
X15350777Y-11469484D02*
X15388873Y-11469484D01*
X15388873Y-11469484D02*
X15407920Y-11459960D01*
X15407920Y-11459960D02*
X15417444Y-11440912D01*
X15417444Y-11440912D02*
X15417444Y-11431388D01*
X15417444Y-11431388D02*
X15407920Y-11412341D01*
X15407920Y-11412341D02*
X15388873Y-11402817D01*
X15388873Y-11402817D02*
X15360301Y-11402817D01*
X15360301Y-11402817D02*
X15341254Y-11393293D01*
X15341254Y-11393293D02*
X15331730Y-11374246D01*
X15331730Y-11374246D02*
X15331730Y-11364722D01*
X15331730Y-11364722D02*
X15341254Y-11345674D01*
X15341254Y-11345674D02*
X15360301Y-11336150D01*
X15360301Y-11336150D02*
X15388873Y-11336150D01*
X15388873Y-11336150D02*
X15407920Y-11345674D01*
X15484111Y-11545674D02*
X15493635Y-11536150D01*
X15493635Y-11536150D02*
X15512682Y-11507579D01*
X15512682Y-11507579D02*
X15522206Y-11488531D01*
X15522206Y-11488531D02*
X15531730Y-11459960D01*
X15531730Y-11459960D02*
X15541254Y-11412341D01*
X15541254Y-11412341D02*
X15541254Y-11374246D01*
X15541254Y-11374246D02*
X15531730Y-11326627D01*
X15531730Y-11326627D02*
X15522206Y-11298055D01*
X15522206Y-11298055D02*
X15512682Y-11279008D01*
X15512682Y-11279008D02*
X15493635Y-11250436D01*
X15493635Y-11250436D02*
X15484111Y-11240912D01*
D12*
X9076088Y-11675588D02*
X9076088Y-11608412D01*
X9008912Y-11608412D01*
X9008912Y-11675588D01*
X9076088Y-11675588D01*
D11*
X9388872Y-11533484D02*
X9407920Y-11533484D01*
X9407920Y-11533484D02*
X9426967Y-11543008D01*
X9426967Y-11543008D02*
X9436491Y-11552531D01*
X9436491Y-11552531D02*
X9446015Y-11571579D01*
X9446015Y-11571579D02*
X9455539Y-11609674D01*
X9455539Y-11609674D02*
X9455539Y-11657293D01*
X9455539Y-11657293D02*
X9446015Y-11695388D01*
X9446015Y-11695388D02*
X9436491Y-11714436D01*
X9436491Y-11714436D02*
X9426967Y-11723960D01*
X9426967Y-11723960D02*
X9407920Y-11733484D01*
X9407920Y-11733484D02*
X9388872Y-11733484D01*
X9388872Y-11733484D02*
X9369824Y-11723960D01*
X9369824Y-11723960D02*
X9360301Y-11714436D01*
X9360301Y-11714436D02*
X9350777Y-11695388D01*
X9350777Y-11695388D02*
X9341253Y-11657293D01*
X9341253Y-11657293D02*
X9341253Y-11609674D01*
X9341253Y-11609674D02*
X9350777Y-11571579D01*
X9350777Y-11571579D02*
X9360301Y-11552531D01*
X9360301Y-11552531D02*
X9369824Y-11543008D01*
X9369824Y-11543008D02*
X9388872Y-11533484D01*
X9541253Y-11714436D02*
X9550777Y-11723960D01*
X9550777Y-11723960D02*
X9541253Y-11733484D01*
X9541253Y-11733484D02*
X9531729Y-11723960D01*
X9531729Y-11723960D02*
X9541253Y-11714436D01*
X9541253Y-11714436D02*
X9541253Y-11733484D01*
X9646015Y-11733484D02*
X9684110Y-11733484D01*
X9684110Y-11733484D02*
X9703158Y-11723960D01*
X9703158Y-11723960D02*
X9712682Y-11714436D01*
X9712682Y-11714436D02*
X9731729Y-11685865D01*
X9731729Y-11685865D02*
X9741253Y-11647769D01*
X9741253Y-11647769D02*
X9741253Y-11571579D01*
X9741253Y-11571579D02*
X9731729Y-11552531D01*
X9731729Y-11552531D02*
X9722205Y-11543008D01*
X9722205Y-11543008D02*
X9703158Y-11533484D01*
X9703158Y-11533484D02*
X9665063Y-11533484D01*
X9665063Y-11533484D02*
X9646015Y-11543008D01*
X9646015Y-11543008D02*
X9636491Y-11552531D01*
X9636491Y-11552531D02*
X9626967Y-11571579D01*
X9626967Y-11571579D02*
X9626967Y-11619198D01*
X9626967Y-11619198D02*
X9636491Y-11638246D01*
X9636491Y-11638246D02*
X9646015Y-11647769D01*
X9646015Y-11647769D02*
X9665063Y-11657293D01*
X9665063Y-11657293D02*
X9703158Y-11657293D01*
X9703158Y-11657293D02*
X9722205Y-11647769D01*
X9722205Y-11647769D02*
X9731729Y-11638246D01*
X9731729Y-11638246D02*
X9741253Y-11619198D01*
X9922205Y-11533484D02*
X9826967Y-11533484D01*
X9826967Y-11533484D02*
X9817444Y-11628722D01*
X9817444Y-11628722D02*
X9826967Y-11619198D01*
X9826967Y-11619198D02*
X9846015Y-11609674D01*
X9846015Y-11609674D02*
X9893634Y-11609674D01*
X9893634Y-11609674D02*
X9912682Y-11619198D01*
X9912682Y-11619198D02*
X9922205Y-11628722D01*
X9922205Y-11628722D02*
X9931729Y-11647769D01*
X9931729Y-11647769D02*
X9931729Y-11695388D01*
X9931729Y-11695388D02*
X9922205Y-11714436D01*
X9922205Y-11714436D02*
X9912682Y-11723960D01*
X9912682Y-11723960D02*
X9893634Y-11733484D01*
X9893634Y-11733484D02*
X9846015Y-11733484D01*
X9846015Y-11733484D02*
X9826967Y-11723960D01*
X9826967Y-11723960D02*
X9817444Y-11714436D01*
X10055539Y-11533484D02*
X10074586Y-11533484D01*
X10074586Y-11533484D02*
X10093634Y-11543008D01*
X10093634Y-11543008D02*
X10103158Y-11552531D01*
X10103158Y-11552531D02*
X10112682Y-11571579D01*
X10112682Y-11571579D02*
X10122205Y-11609674D01*
X10122205Y-11609674D02*
X10122205Y-11657293D01*
X10122205Y-11657293D02*
X10112682Y-11695388D01*
X10112682Y-11695388D02*
X10103158Y-11714436D01*
X10103158Y-11714436D02*
X10093634Y-11723960D01*
X10093634Y-11723960D02*
X10074586Y-11733484D01*
X10074586Y-11733484D02*
X10055539Y-11733484D01*
X10055539Y-11733484D02*
X10036491Y-11723960D01*
X10036491Y-11723960D02*
X10026967Y-11714436D01*
X10026967Y-11714436D02*
X10017444Y-11695388D01*
X10017444Y-11695388D02*
X10007920Y-11657293D01*
X10007920Y-11657293D02*
X10007920Y-11609674D01*
X10007920Y-11609674D02*
X10017444Y-11571579D01*
X10017444Y-11571579D02*
X10026967Y-11552531D01*
X10026967Y-11552531D02*
X10036491Y-11543008D01*
X10036491Y-11543008D02*
X10055539Y-11533484D01*
X10207920Y-11733484D02*
X10207920Y-11600150D01*
X10207920Y-11619198D02*
X10217444Y-11609674D01*
X10217444Y-11609674D02*
X10236491Y-11600150D01*
X10236491Y-11600150D02*
X10265063Y-11600150D01*
X10265063Y-11600150D02*
X10284110Y-11609674D01*
X10284110Y-11609674D02*
X10293634Y-11628722D01*
X10293634Y-11628722D02*
X10293634Y-11733484D01*
X10293634Y-11628722D02*
X10303158Y-11609674D01*
X10303158Y-11609674D02*
X10322205Y-11600150D01*
X10322205Y-11600150D02*
X10350777Y-11600150D01*
X10350777Y-11600150D02*
X10369825Y-11609674D01*
X10369825Y-11609674D02*
X10379348Y-11628722D01*
X10379348Y-11628722D02*
X10379348Y-11733484D01*
X10474586Y-11733484D02*
X10474586Y-11600150D01*
X10474586Y-11619198D02*
X10484110Y-11609674D01*
X10484110Y-11609674D02*
X10503158Y-11600150D01*
X10503158Y-11600150D02*
X10531729Y-11600150D01*
X10531729Y-11600150D02*
X10550777Y-11609674D01*
X10550777Y-11609674D02*
X10560301Y-11628722D01*
X10560301Y-11628722D02*
X10560301Y-11733484D01*
X10560301Y-11628722D02*
X10569825Y-11609674D01*
X10569825Y-11609674D02*
X10588872Y-11600150D01*
X10588872Y-11600150D02*
X10617444Y-11600150D01*
X10617444Y-11600150D02*
X10636491Y-11609674D01*
X10636491Y-11609674D02*
X10646015Y-11628722D01*
X10646015Y-11628722D02*
X10646015Y-11733484D01*
X11036491Y-11523960D02*
X10865063Y-11781103D01*
X11293634Y-11533484D02*
X11312682Y-11533484D01*
X11312682Y-11533484D02*
X11331729Y-11543008D01*
X11331729Y-11543008D02*
X11341253Y-11552531D01*
X11341253Y-11552531D02*
X11350777Y-11571579D01*
X11350777Y-11571579D02*
X11360301Y-11609674D01*
X11360301Y-11609674D02*
X11360301Y-11657293D01*
X11360301Y-11657293D02*
X11350777Y-11695388D01*
X11350777Y-11695388D02*
X11341253Y-11714436D01*
X11341253Y-11714436D02*
X11331729Y-11723960D01*
X11331729Y-11723960D02*
X11312682Y-11733484D01*
X11312682Y-11733484D02*
X11293634Y-11733484D01*
X11293634Y-11733484D02*
X11274586Y-11723960D01*
X11274586Y-11723960D02*
X11265063Y-11714436D01*
X11265063Y-11714436D02*
X11255539Y-11695388D01*
X11255539Y-11695388D02*
X11246015Y-11657293D01*
X11246015Y-11657293D02*
X11246015Y-11609674D01*
X11246015Y-11609674D02*
X11255539Y-11571579D01*
X11255539Y-11571579D02*
X11265063Y-11552531D01*
X11265063Y-11552531D02*
X11274586Y-11543008D01*
X11274586Y-11543008D02*
X11293634Y-11533484D01*
X11446015Y-11714436D02*
X11455539Y-11723960D01*
X11455539Y-11723960D02*
X11446015Y-11733484D01*
X11446015Y-11733484D02*
X11436491Y-11723960D01*
X11436491Y-11723960D02*
X11446015Y-11714436D01*
X11446015Y-11714436D02*
X11446015Y-11733484D01*
X11579348Y-11533484D02*
X11598396Y-11533484D01*
X11598396Y-11533484D02*
X11617444Y-11543008D01*
X11617444Y-11543008D02*
X11626967Y-11552531D01*
X11626967Y-11552531D02*
X11636491Y-11571579D01*
X11636491Y-11571579D02*
X11646015Y-11609674D01*
X11646015Y-11609674D02*
X11646015Y-11657293D01*
X11646015Y-11657293D02*
X11636491Y-11695388D01*
X11636491Y-11695388D02*
X11626967Y-11714436D01*
X11626967Y-11714436D02*
X11617444Y-11723960D01*
X11617444Y-11723960D02*
X11598396Y-11733484D01*
X11598396Y-11733484D02*
X11579348Y-11733484D01*
X11579348Y-11733484D02*
X11560301Y-11723960D01*
X11560301Y-11723960D02*
X11550777Y-11714436D01*
X11550777Y-11714436D02*
X11541253Y-11695388D01*
X11541253Y-11695388D02*
X11531729Y-11657293D01*
X11531729Y-11657293D02*
X11531729Y-11609674D01*
X11531729Y-11609674D02*
X11541253Y-11571579D01*
X11541253Y-11571579D02*
X11550777Y-11552531D01*
X11550777Y-11552531D02*
X11560301Y-11543008D01*
X11560301Y-11543008D02*
X11579348Y-11533484D01*
X11712682Y-11533484D02*
X11836491Y-11533484D01*
X11836491Y-11533484D02*
X11769825Y-11609674D01*
X11769825Y-11609674D02*
X11798396Y-11609674D01*
X11798396Y-11609674D02*
X11817444Y-11619198D01*
X11817444Y-11619198D02*
X11826967Y-11628722D01*
X11826967Y-11628722D02*
X11836491Y-11647769D01*
X11836491Y-11647769D02*
X11836491Y-11695388D01*
X11836491Y-11695388D02*
X11826967Y-11714436D01*
X11826967Y-11714436D02*
X11817444Y-11723960D01*
X11817444Y-11723960D02*
X11798396Y-11733484D01*
X11798396Y-11733484D02*
X11741253Y-11733484D01*
X11741253Y-11733484D02*
X11722206Y-11723960D01*
X11722206Y-11723960D02*
X11712682Y-11714436D01*
X11903158Y-11533484D02*
X12036491Y-11533484D01*
X12036491Y-11533484D02*
X11950777Y-11733484D01*
X12198396Y-11600150D02*
X12198396Y-11733484D01*
X12150777Y-11523960D02*
X12103158Y-11666817D01*
X12103158Y-11666817D02*
X12226967Y-11666817D01*
X12293634Y-11533484D02*
X12293634Y-11571579D01*
X12369825Y-11533484D02*
X12369825Y-11571579D01*
X12665063Y-11809674D02*
X12655539Y-11800150D01*
X12655539Y-11800150D02*
X12636491Y-11771579D01*
X12636491Y-11771579D02*
X12626968Y-11752531D01*
X12626968Y-11752531D02*
X12617444Y-11723960D01*
X12617444Y-11723960D02*
X12607920Y-11676341D01*
X12607920Y-11676341D02*
X12607920Y-11638246D01*
X12607920Y-11638246D02*
X12617444Y-11590627D01*
X12617444Y-11590627D02*
X12626968Y-11562055D01*
X12626968Y-11562055D02*
X12636491Y-11543008D01*
X12636491Y-11543008D02*
X12655539Y-11514436D01*
X12655539Y-11514436D02*
X12665063Y-11504912D01*
X12731729Y-11552531D02*
X12741253Y-11543008D01*
X12741253Y-11543008D02*
X12760301Y-11533484D01*
X12760301Y-11533484D02*
X12807920Y-11533484D01*
X12807920Y-11533484D02*
X12826968Y-11543008D01*
X12826968Y-11543008D02*
X12836491Y-11552531D01*
X12836491Y-11552531D02*
X12846015Y-11571579D01*
X12846015Y-11571579D02*
X12846015Y-11590627D01*
X12846015Y-11590627D02*
X12836491Y-11619198D01*
X12836491Y-11619198D02*
X12722206Y-11733484D01*
X12722206Y-11733484D02*
X12846015Y-11733484D01*
X13084110Y-11733484D02*
X13084110Y-11533484D01*
X13169825Y-11733484D02*
X13169825Y-11628722D01*
X13169825Y-11628722D02*
X13160301Y-11609674D01*
X13160301Y-11609674D02*
X13141253Y-11600150D01*
X13141253Y-11600150D02*
X13112682Y-11600150D01*
X13112682Y-11600150D02*
X13093634Y-11609674D01*
X13093634Y-11609674D02*
X13084110Y-11619198D01*
X13293634Y-11733484D02*
X13274587Y-11723960D01*
X13274587Y-11723960D02*
X13265063Y-11714436D01*
X13265063Y-11714436D02*
X13255539Y-11695388D01*
X13255539Y-11695388D02*
X13255539Y-11638246D01*
X13255539Y-11638246D02*
X13265063Y-11619198D01*
X13265063Y-11619198D02*
X13274587Y-11609674D01*
X13274587Y-11609674D02*
X13293634Y-11600150D01*
X13293634Y-11600150D02*
X13322206Y-11600150D01*
X13322206Y-11600150D02*
X13341253Y-11609674D01*
X13341253Y-11609674D02*
X13350777Y-11619198D01*
X13350777Y-11619198D02*
X13360301Y-11638246D01*
X13360301Y-11638246D02*
X13360301Y-11695388D01*
X13360301Y-11695388D02*
X13350777Y-11714436D01*
X13350777Y-11714436D02*
X13341253Y-11723960D01*
X13341253Y-11723960D02*
X13322206Y-11733484D01*
X13322206Y-11733484D02*
X13293634Y-11733484D01*
X13474587Y-11733484D02*
X13455539Y-11723960D01*
X13455539Y-11723960D02*
X13446015Y-11704912D01*
X13446015Y-11704912D02*
X13446015Y-11533484D01*
X13626968Y-11723960D02*
X13607920Y-11733484D01*
X13607920Y-11733484D02*
X13569825Y-11733484D01*
X13569825Y-11733484D02*
X13550777Y-11723960D01*
X13550777Y-11723960D02*
X13541253Y-11704912D01*
X13541253Y-11704912D02*
X13541253Y-11628722D01*
X13541253Y-11628722D02*
X13550777Y-11609674D01*
X13550777Y-11609674D02*
X13569825Y-11600150D01*
X13569825Y-11600150D02*
X13607920Y-11600150D01*
X13607920Y-11600150D02*
X13626968Y-11609674D01*
X13626968Y-11609674D02*
X13636491Y-11628722D01*
X13636491Y-11628722D02*
X13636491Y-11647769D01*
X13636491Y-11647769D02*
X13541253Y-11666817D01*
X13712682Y-11723960D02*
X13731730Y-11733484D01*
X13731730Y-11733484D02*
X13769825Y-11733484D01*
X13769825Y-11733484D02*
X13788872Y-11723960D01*
X13788872Y-11723960D02*
X13798396Y-11704912D01*
X13798396Y-11704912D02*
X13798396Y-11695388D01*
X13798396Y-11695388D02*
X13788872Y-11676341D01*
X13788872Y-11676341D02*
X13769825Y-11666817D01*
X13769825Y-11666817D02*
X13741253Y-11666817D01*
X13741253Y-11666817D02*
X13722206Y-11657293D01*
X13722206Y-11657293D02*
X13712682Y-11638246D01*
X13712682Y-11638246D02*
X13712682Y-11628722D01*
X13712682Y-11628722D02*
X13722206Y-11609674D01*
X13722206Y-11609674D02*
X13741253Y-11600150D01*
X13741253Y-11600150D02*
X13769825Y-11600150D01*
X13769825Y-11600150D02*
X13788872Y-11609674D01*
X13865063Y-11809674D02*
X13874587Y-11800150D01*
X13874587Y-11800150D02*
X13893634Y-11771579D01*
X13893634Y-11771579D02*
X13903158Y-11752531D01*
X13903158Y-11752531D02*
X13912682Y-11723960D01*
X13912682Y-11723960D02*
X13922206Y-11676341D01*
X13922206Y-11676341D02*
X13922206Y-11638246D01*
X13922206Y-11638246D02*
X13912682Y-11590627D01*
X13912682Y-11590627D02*
X13903158Y-11562055D01*
X13903158Y-11562055D02*
X13893634Y-11543008D01*
X13893634Y-11543008D02*
X13874587Y-11514436D01*
X13874587Y-11514436D02*
X13865063Y-11504912D01*
D12*
X9040000Y-11956000D02*
X9090000Y-11906000D01*
X9040000Y-11856000D01*
X8990000Y-11906000D01*
X9040000Y-11956000D01*
D11*
X9455539Y-11997484D02*
X9341253Y-11997484D01*
X9398396Y-11997484D02*
X9398396Y-11797484D01*
X9398396Y-11797484D02*
X9379348Y-11826055D01*
X9379348Y-11826055D02*
X9360301Y-11845103D01*
X9360301Y-11845103D02*
X9341253Y-11854627D01*
X9541253Y-11978436D02*
X9550777Y-11987960D01*
X9550777Y-11987960D02*
X9541253Y-11997484D01*
X9541253Y-11997484D02*
X9531729Y-11987960D01*
X9531729Y-11987960D02*
X9541253Y-11978436D01*
X9541253Y-11978436D02*
X9541253Y-11997484D01*
X9674586Y-11797484D02*
X9693634Y-11797484D01*
X9693634Y-11797484D02*
X9712682Y-11807008D01*
X9712682Y-11807008D02*
X9722205Y-11816531D01*
X9722205Y-11816531D02*
X9731729Y-11835579D01*
X9731729Y-11835579D02*
X9741253Y-11873674D01*
X9741253Y-11873674D02*
X9741253Y-11921293D01*
X9741253Y-11921293D02*
X9731729Y-11959388D01*
X9731729Y-11959388D02*
X9722205Y-11978436D01*
X9722205Y-11978436D02*
X9712682Y-11987960D01*
X9712682Y-11987960D02*
X9693634Y-11997484D01*
X9693634Y-11997484D02*
X9674586Y-11997484D01*
X9674586Y-11997484D02*
X9655539Y-11987960D01*
X9655539Y-11987960D02*
X9646015Y-11978436D01*
X9646015Y-11978436D02*
X9636491Y-11959388D01*
X9636491Y-11959388D02*
X9626967Y-11921293D01*
X9626967Y-11921293D02*
X9626967Y-11873674D01*
X9626967Y-11873674D02*
X9636491Y-11835579D01*
X9636491Y-11835579D02*
X9646015Y-11816531D01*
X9646015Y-11816531D02*
X9655539Y-11807008D01*
X9655539Y-11807008D02*
X9674586Y-11797484D01*
X9865063Y-11797484D02*
X9884110Y-11797484D01*
X9884110Y-11797484D02*
X9903158Y-11807008D01*
X9903158Y-11807008D02*
X9912682Y-11816531D01*
X9912682Y-11816531D02*
X9922205Y-11835579D01*
X9922205Y-11835579D02*
X9931729Y-11873674D01*
X9931729Y-11873674D02*
X9931729Y-11921293D01*
X9931729Y-11921293D02*
X9922205Y-11959388D01*
X9922205Y-11959388D02*
X9912682Y-11978436D01*
X9912682Y-11978436D02*
X9903158Y-11987960D01*
X9903158Y-11987960D02*
X9884110Y-11997484D01*
X9884110Y-11997484D02*
X9865063Y-11997484D01*
X9865063Y-11997484D02*
X9846015Y-11987960D01*
X9846015Y-11987960D02*
X9836491Y-11978436D01*
X9836491Y-11978436D02*
X9826967Y-11959388D01*
X9826967Y-11959388D02*
X9817444Y-11921293D01*
X9817444Y-11921293D02*
X9817444Y-11873674D01*
X9817444Y-11873674D02*
X9826967Y-11835579D01*
X9826967Y-11835579D02*
X9836491Y-11816531D01*
X9836491Y-11816531D02*
X9846015Y-11807008D01*
X9846015Y-11807008D02*
X9865063Y-11797484D01*
X10055539Y-11797484D02*
X10074586Y-11797484D01*
X10074586Y-11797484D02*
X10093634Y-11807008D01*
X10093634Y-11807008D02*
X10103158Y-11816531D01*
X10103158Y-11816531D02*
X10112682Y-11835579D01*
X10112682Y-11835579D02*
X10122205Y-11873674D01*
X10122205Y-11873674D02*
X10122205Y-11921293D01*
X10122205Y-11921293D02*
X10112682Y-11959388D01*
X10112682Y-11959388D02*
X10103158Y-11978436D01*
X10103158Y-11978436D02*
X10093634Y-11987960D01*
X10093634Y-11987960D02*
X10074586Y-11997484D01*
X10074586Y-11997484D02*
X10055539Y-11997484D01*
X10055539Y-11997484D02*
X10036491Y-11987960D01*
X10036491Y-11987960D02*
X10026967Y-11978436D01*
X10026967Y-11978436D02*
X10017444Y-11959388D01*
X10017444Y-11959388D02*
X10007920Y-11921293D01*
X10007920Y-11921293D02*
X10007920Y-11873674D01*
X10007920Y-11873674D02*
X10017444Y-11835579D01*
X10017444Y-11835579D02*
X10026967Y-11816531D01*
X10026967Y-11816531D02*
X10036491Y-11807008D01*
X10036491Y-11807008D02*
X10055539Y-11797484D01*
X10207920Y-11997484D02*
X10207920Y-11864150D01*
X10207920Y-11883198D02*
X10217444Y-11873674D01*
X10217444Y-11873674D02*
X10236491Y-11864150D01*
X10236491Y-11864150D02*
X10265063Y-11864150D01*
X10265063Y-11864150D02*
X10284110Y-11873674D01*
X10284110Y-11873674D02*
X10293634Y-11892722D01*
X10293634Y-11892722D02*
X10293634Y-11997484D01*
X10293634Y-11892722D02*
X10303158Y-11873674D01*
X10303158Y-11873674D02*
X10322205Y-11864150D01*
X10322205Y-11864150D02*
X10350777Y-11864150D01*
X10350777Y-11864150D02*
X10369825Y-11873674D01*
X10369825Y-11873674D02*
X10379348Y-11892722D01*
X10379348Y-11892722D02*
X10379348Y-11997484D01*
X10474586Y-11997484D02*
X10474586Y-11864150D01*
X10474586Y-11883198D02*
X10484110Y-11873674D01*
X10484110Y-11873674D02*
X10503158Y-11864150D01*
X10503158Y-11864150D02*
X10531729Y-11864150D01*
X10531729Y-11864150D02*
X10550777Y-11873674D01*
X10550777Y-11873674D02*
X10560301Y-11892722D01*
X10560301Y-11892722D02*
X10560301Y-11997484D01*
X10560301Y-11892722D02*
X10569825Y-11873674D01*
X10569825Y-11873674D02*
X10588872Y-11864150D01*
X10588872Y-11864150D02*
X10617444Y-11864150D01*
X10617444Y-11864150D02*
X10636491Y-11873674D01*
X10636491Y-11873674D02*
X10646015Y-11892722D01*
X10646015Y-11892722D02*
X10646015Y-11997484D01*
X11036491Y-11787960D02*
X10865063Y-12045103D01*
X11293634Y-11797484D02*
X11312682Y-11797484D01*
X11312682Y-11797484D02*
X11331729Y-11807008D01*
X11331729Y-11807008D02*
X11341253Y-11816531D01*
X11341253Y-11816531D02*
X11350777Y-11835579D01*
X11350777Y-11835579D02*
X11360301Y-11873674D01*
X11360301Y-11873674D02*
X11360301Y-11921293D01*
X11360301Y-11921293D02*
X11350777Y-11959388D01*
X11350777Y-11959388D02*
X11341253Y-11978436D01*
X11341253Y-11978436D02*
X11331729Y-11987960D01*
X11331729Y-11987960D02*
X11312682Y-11997484D01*
X11312682Y-11997484D02*
X11293634Y-11997484D01*
X11293634Y-11997484D02*
X11274586Y-11987960D01*
X11274586Y-11987960D02*
X11265063Y-11978436D01*
X11265063Y-11978436D02*
X11255539Y-11959388D01*
X11255539Y-11959388D02*
X11246015Y-11921293D01*
X11246015Y-11921293D02*
X11246015Y-11873674D01*
X11246015Y-11873674D02*
X11255539Y-11835579D01*
X11255539Y-11835579D02*
X11265063Y-11816531D01*
X11265063Y-11816531D02*
X11274586Y-11807008D01*
X11274586Y-11807008D02*
X11293634Y-11797484D01*
X11446015Y-11978436D02*
X11455539Y-11987960D01*
X11455539Y-11987960D02*
X11446015Y-11997484D01*
X11446015Y-11997484D02*
X11436491Y-11987960D01*
X11436491Y-11987960D02*
X11446015Y-11978436D01*
X11446015Y-11978436D02*
X11446015Y-11997484D01*
X11579348Y-11797484D02*
X11598396Y-11797484D01*
X11598396Y-11797484D02*
X11617444Y-11807008D01*
X11617444Y-11807008D02*
X11626967Y-11816531D01*
X11626967Y-11816531D02*
X11636491Y-11835579D01*
X11636491Y-11835579D02*
X11646015Y-11873674D01*
X11646015Y-11873674D02*
X11646015Y-11921293D01*
X11646015Y-11921293D02*
X11636491Y-11959388D01*
X11636491Y-11959388D02*
X11626967Y-11978436D01*
X11626967Y-11978436D02*
X11617444Y-11987960D01*
X11617444Y-11987960D02*
X11598396Y-11997484D01*
X11598396Y-11997484D02*
X11579348Y-11997484D01*
X11579348Y-11997484D02*
X11560301Y-11987960D01*
X11560301Y-11987960D02*
X11550777Y-11978436D01*
X11550777Y-11978436D02*
X11541253Y-11959388D01*
X11541253Y-11959388D02*
X11531729Y-11921293D01*
X11531729Y-11921293D02*
X11531729Y-11873674D01*
X11531729Y-11873674D02*
X11541253Y-11835579D01*
X11541253Y-11835579D02*
X11550777Y-11816531D01*
X11550777Y-11816531D02*
X11560301Y-11807008D01*
X11560301Y-11807008D02*
X11579348Y-11797484D01*
X11712682Y-11797484D02*
X11836491Y-11797484D01*
X11836491Y-11797484D02*
X11769825Y-11873674D01*
X11769825Y-11873674D02*
X11798396Y-11873674D01*
X11798396Y-11873674D02*
X11817444Y-11883198D01*
X11817444Y-11883198D02*
X11826967Y-11892722D01*
X11826967Y-11892722D02*
X11836491Y-11911769D01*
X11836491Y-11911769D02*
X11836491Y-11959388D01*
X11836491Y-11959388D02*
X11826967Y-11978436D01*
X11826967Y-11978436D02*
X11817444Y-11987960D01*
X11817444Y-11987960D02*
X11798396Y-11997484D01*
X11798396Y-11997484D02*
X11741253Y-11997484D01*
X11741253Y-11997484D02*
X11722206Y-11987960D01*
X11722206Y-11987960D02*
X11712682Y-11978436D01*
X11931729Y-11997484D02*
X11969825Y-11997484D01*
X11969825Y-11997484D02*
X11988872Y-11987960D01*
X11988872Y-11987960D02*
X11998396Y-11978436D01*
X11998396Y-11978436D02*
X12017444Y-11949865D01*
X12017444Y-11949865D02*
X12026967Y-11911769D01*
X12026967Y-11911769D02*
X12026967Y-11835579D01*
X12026967Y-11835579D02*
X12017444Y-11816531D01*
X12017444Y-11816531D02*
X12007920Y-11807008D01*
X12007920Y-11807008D02*
X11988872Y-11797484D01*
X11988872Y-11797484D02*
X11950777Y-11797484D01*
X11950777Y-11797484D02*
X11931729Y-11807008D01*
X11931729Y-11807008D02*
X11922206Y-11816531D01*
X11922206Y-11816531D02*
X11912682Y-11835579D01*
X11912682Y-11835579D02*
X11912682Y-11883198D01*
X11912682Y-11883198D02*
X11922206Y-11902246D01*
X11922206Y-11902246D02*
X11931729Y-11911769D01*
X11931729Y-11911769D02*
X11950777Y-11921293D01*
X11950777Y-11921293D02*
X11988872Y-11921293D01*
X11988872Y-11921293D02*
X12007920Y-11911769D01*
X12007920Y-11911769D02*
X12017444Y-11902246D01*
X12017444Y-11902246D02*
X12026967Y-11883198D01*
X12198396Y-11864150D02*
X12198396Y-11997484D01*
X12150777Y-11787960D02*
X12103158Y-11930817D01*
X12103158Y-11930817D02*
X12226967Y-11930817D01*
X12293634Y-11797484D02*
X12293634Y-11835579D01*
X12369825Y-11797484D02*
X12369825Y-11835579D01*
X12665063Y-12073674D02*
X12655539Y-12064150D01*
X12655539Y-12064150D02*
X12636491Y-12035579D01*
X12636491Y-12035579D02*
X12626968Y-12016531D01*
X12626968Y-12016531D02*
X12617444Y-11987960D01*
X12617444Y-11987960D02*
X12607920Y-11940341D01*
X12607920Y-11940341D02*
X12607920Y-11902246D01*
X12607920Y-11902246D02*
X12617444Y-11854627D01*
X12617444Y-11854627D02*
X12626968Y-11826055D01*
X12626968Y-11826055D02*
X12636491Y-11807008D01*
X12636491Y-11807008D02*
X12655539Y-11778436D01*
X12655539Y-11778436D02*
X12665063Y-11768912D01*
X12846015Y-11997484D02*
X12731729Y-11997484D01*
X12788872Y-11997484D02*
X12788872Y-11797484D01*
X12788872Y-11797484D02*
X12769825Y-11826055D01*
X12769825Y-11826055D02*
X12750777Y-11845103D01*
X12750777Y-11845103D02*
X12731729Y-11854627D01*
X12912682Y-11797484D02*
X13036491Y-11797484D01*
X13036491Y-11797484D02*
X12969825Y-11873674D01*
X12969825Y-11873674D02*
X12998396Y-11873674D01*
X12998396Y-11873674D02*
X13017444Y-11883198D01*
X13017444Y-11883198D02*
X13026968Y-11892722D01*
X13026968Y-11892722D02*
X13036491Y-11911769D01*
X13036491Y-11911769D02*
X13036491Y-11959388D01*
X13036491Y-11959388D02*
X13026968Y-11978436D01*
X13026968Y-11978436D02*
X13017444Y-11987960D01*
X13017444Y-11987960D02*
X12998396Y-11997484D01*
X12998396Y-11997484D02*
X12941253Y-11997484D01*
X12941253Y-11997484D02*
X12922206Y-11987960D01*
X12922206Y-11987960D02*
X12912682Y-11978436D01*
X13274587Y-11997484D02*
X13274587Y-11797484D01*
X13360301Y-11997484D02*
X13360301Y-11892722D01*
X13360301Y-11892722D02*
X13350777Y-11873674D01*
X13350777Y-11873674D02*
X13331730Y-11864150D01*
X13331730Y-11864150D02*
X13303158Y-11864150D01*
X13303158Y-11864150D02*
X13284110Y-11873674D01*
X13284110Y-11873674D02*
X13274587Y-11883198D01*
X13484110Y-11997484D02*
X13465063Y-11987960D01*
X13465063Y-11987960D02*
X13455539Y-11978436D01*
X13455539Y-11978436D02*
X13446015Y-11959388D01*
X13446015Y-11959388D02*
X13446015Y-11902246D01*
X13446015Y-11902246D02*
X13455539Y-11883198D01*
X13455539Y-11883198D02*
X13465063Y-11873674D01*
X13465063Y-11873674D02*
X13484110Y-11864150D01*
X13484110Y-11864150D02*
X13512682Y-11864150D01*
X13512682Y-11864150D02*
X13531730Y-11873674D01*
X13531730Y-11873674D02*
X13541253Y-11883198D01*
X13541253Y-11883198D02*
X13550777Y-11902246D01*
X13550777Y-11902246D02*
X13550777Y-11959388D01*
X13550777Y-11959388D02*
X13541253Y-11978436D01*
X13541253Y-11978436D02*
X13531730Y-11987960D01*
X13531730Y-11987960D02*
X13512682Y-11997484D01*
X13512682Y-11997484D02*
X13484110Y-11997484D01*
X13665063Y-11997484D02*
X13646015Y-11987960D01*
X13646015Y-11987960D02*
X13636491Y-11968912D01*
X13636491Y-11968912D02*
X13636491Y-11797484D01*
X13817444Y-11987960D02*
X13798396Y-11997484D01*
X13798396Y-11997484D02*
X13760301Y-11997484D01*
X13760301Y-11997484D02*
X13741253Y-11987960D01*
X13741253Y-11987960D02*
X13731730Y-11968912D01*
X13731730Y-11968912D02*
X13731730Y-11892722D01*
X13731730Y-11892722D02*
X13741253Y-11873674D01*
X13741253Y-11873674D02*
X13760301Y-11864150D01*
X13760301Y-11864150D02*
X13798396Y-11864150D01*
X13798396Y-11864150D02*
X13817444Y-11873674D01*
X13817444Y-11873674D02*
X13826968Y-11892722D01*
X13826968Y-11892722D02*
X13826968Y-11911769D01*
X13826968Y-11911769D02*
X13731730Y-11930817D01*
X13903158Y-11987960D02*
X13922206Y-11997484D01*
X13922206Y-11997484D02*
X13960301Y-11997484D01*
X13960301Y-11997484D02*
X13979349Y-11987960D01*
X13979349Y-11987960D02*
X13988872Y-11968912D01*
X13988872Y-11968912D02*
X13988872Y-11959388D01*
X13988872Y-11959388D02*
X13979349Y-11940341D01*
X13979349Y-11940341D02*
X13960301Y-11930817D01*
X13960301Y-11930817D02*
X13931730Y-11930817D01*
X13931730Y-11930817D02*
X13912682Y-11921293D01*
X13912682Y-11921293D02*
X13903158Y-11902246D01*
X13903158Y-11902246D02*
X13903158Y-11892722D01*
X13903158Y-11892722D02*
X13912682Y-11873674D01*
X13912682Y-11873674D02*
X13931730Y-11864150D01*
X13931730Y-11864150D02*
X13960301Y-11864150D01*
X13960301Y-11864150D02*
X13979349Y-11873674D01*
X14055539Y-12073674D02*
X14065063Y-12064150D01*
X14065063Y-12064150D02*
X14084111Y-12035579D01*
X14084111Y-12035579D02*
X14093634Y-12016531D01*
X14093634Y-12016531D02*
X14103158Y-11987960D01*
X14103158Y-11987960D02*
X14112682Y-11940341D01*
X14112682Y-11940341D02*
X14112682Y-11902246D01*
X14112682Y-11902246D02*
X14103158Y-11854627D01*
X14103158Y-11854627D02*
X14093634Y-11826055D01*
X14093634Y-11826055D02*
X14084111Y-11807008D01*
X14084111Y-11807008D02*
X14065063Y-11778436D01*
X14065063Y-11778436D02*
X14055539Y-11768912D01*
X8890000Y-12070000D02*
X9090000Y-12270000D01*
X9090000Y-12070000D02*
X8890000Y-12270000D01*
X9090000Y-12170000D02*
G75*
G02*
X8890000Y-12170000I-100000J0D01*
G01*
X8890000Y-12170000D02*
G75*
G02*
X9090000Y-12170000I100000J0D01*
G01*
X9341253Y-12080531D02*
X9350777Y-12071008D01*
X9350777Y-12071008D02*
X9369824Y-12061484D01*
X9369824Y-12061484D02*
X9417444Y-12061484D01*
X9417444Y-12061484D02*
X9436491Y-12071008D01*
X9436491Y-12071008D02*
X9446015Y-12080531D01*
X9446015Y-12080531D02*
X9455539Y-12099579D01*
X9455539Y-12099579D02*
X9455539Y-12118627D01*
X9455539Y-12118627D02*
X9446015Y-12147198D01*
X9446015Y-12147198D02*
X9331729Y-12261484D01*
X9331729Y-12261484D02*
X9455539Y-12261484D01*
X9541253Y-12242436D02*
X9550777Y-12251960D01*
X9550777Y-12251960D02*
X9541253Y-12261484D01*
X9541253Y-12261484D02*
X9531729Y-12251960D01*
X9531729Y-12251960D02*
X9541253Y-12242436D01*
X9541253Y-12242436D02*
X9541253Y-12261484D01*
X9674586Y-12061484D02*
X9693634Y-12061484D01*
X9693634Y-12061484D02*
X9712682Y-12071008D01*
X9712682Y-12071008D02*
X9722205Y-12080531D01*
X9722205Y-12080531D02*
X9731729Y-12099579D01*
X9731729Y-12099579D02*
X9741253Y-12137674D01*
X9741253Y-12137674D02*
X9741253Y-12185293D01*
X9741253Y-12185293D02*
X9731729Y-12223388D01*
X9731729Y-12223388D02*
X9722205Y-12242436D01*
X9722205Y-12242436D02*
X9712682Y-12251960D01*
X9712682Y-12251960D02*
X9693634Y-12261484D01*
X9693634Y-12261484D02*
X9674586Y-12261484D01*
X9674586Y-12261484D02*
X9655539Y-12251960D01*
X9655539Y-12251960D02*
X9646015Y-12242436D01*
X9646015Y-12242436D02*
X9636491Y-12223388D01*
X9636491Y-12223388D02*
X9626967Y-12185293D01*
X9626967Y-12185293D02*
X9626967Y-12137674D01*
X9626967Y-12137674D02*
X9636491Y-12099579D01*
X9636491Y-12099579D02*
X9646015Y-12080531D01*
X9646015Y-12080531D02*
X9655539Y-12071008D01*
X9655539Y-12071008D02*
X9674586Y-12061484D01*
X9865063Y-12061484D02*
X9884110Y-12061484D01*
X9884110Y-12061484D02*
X9903158Y-12071008D01*
X9903158Y-12071008D02*
X9912682Y-12080531D01*
X9912682Y-12080531D02*
X9922205Y-12099579D01*
X9922205Y-12099579D02*
X9931729Y-12137674D01*
X9931729Y-12137674D02*
X9931729Y-12185293D01*
X9931729Y-12185293D02*
X9922205Y-12223388D01*
X9922205Y-12223388D02*
X9912682Y-12242436D01*
X9912682Y-12242436D02*
X9903158Y-12251960D01*
X9903158Y-12251960D02*
X9884110Y-12261484D01*
X9884110Y-12261484D02*
X9865063Y-12261484D01*
X9865063Y-12261484D02*
X9846015Y-12251960D01*
X9846015Y-12251960D02*
X9836491Y-12242436D01*
X9836491Y-12242436D02*
X9826967Y-12223388D01*
X9826967Y-12223388D02*
X9817444Y-12185293D01*
X9817444Y-12185293D02*
X9817444Y-12137674D01*
X9817444Y-12137674D02*
X9826967Y-12099579D01*
X9826967Y-12099579D02*
X9836491Y-12080531D01*
X9836491Y-12080531D02*
X9846015Y-12071008D01*
X9846015Y-12071008D02*
X9865063Y-12061484D01*
X10055539Y-12061484D02*
X10074586Y-12061484D01*
X10074586Y-12061484D02*
X10093634Y-12071008D01*
X10093634Y-12071008D02*
X10103158Y-12080531D01*
X10103158Y-12080531D02*
X10112682Y-12099579D01*
X10112682Y-12099579D02*
X10122205Y-12137674D01*
X10122205Y-12137674D02*
X10122205Y-12185293D01*
X10122205Y-12185293D02*
X10112682Y-12223388D01*
X10112682Y-12223388D02*
X10103158Y-12242436D01*
X10103158Y-12242436D02*
X10093634Y-12251960D01*
X10093634Y-12251960D02*
X10074586Y-12261484D01*
X10074586Y-12261484D02*
X10055539Y-12261484D01*
X10055539Y-12261484D02*
X10036491Y-12251960D01*
X10036491Y-12251960D02*
X10026967Y-12242436D01*
X10026967Y-12242436D02*
X10017444Y-12223388D01*
X10017444Y-12223388D02*
X10007920Y-12185293D01*
X10007920Y-12185293D02*
X10007920Y-12137674D01*
X10007920Y-12137674D02*
X10017444Y-12099579D01*
X10017444Y-12099579D02*
X10026967Y-12080531D01*
X10026967Y-12080531D02*
X10036491Y-12071008D01*
X10036491Y-12071008D02*
X10055539Y-12061484D01*
X10207920Y-12261484D02*
X10207920Y-12128150D01*
X10207920Y-12147198D02*
X10217444Y-12137674D01*
X10217444Y-12137674D02*
X10236491Y-12128150D01*
X10236491Y-12128150D02*
X10265063Y-12128150D01*
X10265063Y-12128150D02*
X10284110Y-12137674D01*
X10284110Y-12137674D02*
X10293634Y-12156722D01*
X10293634Y-12156722D02*
X10293634Y-12261484D01*
X10293634Y-12156722D02*
X10303158Y-12137674D01*
X10303158Y-12137674D02*
X10322205Y-12128150D01*
X10322205Y-12128150D02*
X10350777Y-12128150D01*
X10350777Y-12128150D02*
X10369825Y-12137674D01*
X10369825Y-12137674D02*
X10379348Y-12156722D01*
X10379348Y-12156722D02*
X10379348Y-12261484D01*
X10474586Y-12261484D02*
X10474586Y-12128150D01*
X10474586Y-12147198D02*
X10484110Y-12137674D01*
X10484110Y-12137674D02*
X10503158Y-12128150D01*
X10503158Y-12128150D02*
X10531729Y-12128150D01*
X10531729Y-12128150D02*
X10550777Y-12137674D01*
X10550777Y-12137674D02*
X10560301Y-12156722D01*
X10560301Y-12156722D02*
X10560301Y-12261484D01*
X10560301Y-12156722D02*
X10569825Y-12137674D01*
X10569825Y-12137674D02*
X10588872Y-12128150D01*
X10588872Y-12128150D02*
X10617444Y-12128150D01*
X10617444Y-12128150D02*
X10636491Y-12137674D01*
X10636491Y-12137674D02*
X10646015Y-12156722D01*
X10646015Y-12156722D02*
X10646015Y-12261484D01*
X11036491Y-12051960D02*
X10865063Y-12309103D01*
X11293634Y-12061484D02*
X11312682Y-12061484D01*
X11312682Y-12061484D02*
X11331729Y-12071008D01*
X11331729Y-12071008D02*
X11341253Y-12080531D01*
X11341253Y-12080531D02*
X11350777Y-12099579D01*
X11350777Y-12099579D02*
X11360301Y-12137674D01*
X11360301Y-12137674D02*
X11360301Y-12185293D01*
X11360301Y-12185293D02*
X11350777Y-12223388D01*
X11350777Y-12223388D02*
X11341253Y-12242436D01*
X11341253Y-12242436D02*
X11331729Y-12251960D01*
X11331729Y-12251960D02*
X11312682Y-12261484D01*
X11312682Y-12261484D02*
X11293634Y-12261484D01*
X11293634Y-12261484D02*
X11274586Y-12251960D01*
X11274586Y-12251960D02*
X11265063Y-12242436D01*
X11265063Y-12242436D02*
X11255539Y-12223388D01*
X11255539Y-12223388D02*
X11246015Y-12185293D01*
X11246015Y-12185293D02*
X11246015Y-12137674D01*
X11246015Y-12137674D02*
X11255539Y-12099579D01*
X11255539Y-12099579D02*
X11265063Y-12080531D01*
X11265063Y-12080531D02*
X11274586Y-12071008D01*
X11274586Y-12071008D02*
X11293634Y-12061484D01*
X11446015Y-12242436D02*
X11455539Y-12251960D01*
X11455539Y-12251960D02*
X11446015Y-12261484D01*
X11446015Y-12261484D02*
X11436491Y-12251960D01*
X11436491Y-12251960D02*
X11446015Y-12242436D01*
X11446015Y-12242436D02*
X11446015Y-12261484D01*
X11579348Y-12061484D02*
X11598396Y-12061484D01*
X11598396Y-12061484D02*
X11617444Y-12071008D01*
X11617444Y-12071008D02*
X11626967Y-12080531D01*
X11626967Y-12080531D02*
X11636491Y-12099579D01*
X11636491Y-12099579D02*
X11646015Y-12137674D01*
X11646015Y-12137674D02*
X11646015Y-12185293D01*
X11646015Y-12185293D02*
X11636491Y-12223388D01*
X11636491Y-12223388D02*
X11626967Y-12242436D01*
X11626967Y-12242436D02*
X11617444Y-12251960D01*
X11617444Y-12251960D02*
X11598396Y-12261484D01*
X11598396Y-12261484D02*
X11579348Y-12261484D01*
X11579348Y-12261484D02*
X11560301Y-12251960D01*
X11560301Y-12251960D02*
X11550777Y-12242436D01*
X11550777Y-12242436D02*
X11541253Y-12223388D01*
X11541253Y-12223388D02*
X11531729Y-12185293D01*
X11531729Y-12185293D02*
X11531729Y-12137674D01*
X11531729Y-12137674D02*
X11541253Y-12099579D01*
X11541253Y-12099579D02*
X11550777Y-12080531D01*
X11550777Y-12080531D02*
X11560301Y-12071008D01*
X11560301Y-12071008D02*
X11579348Y-12061484D01*
X11712682Y-12061484D02*
X11846015Y-12061484D01*
X11846015Y-12061484D02*
X11760301Y-12261484D01*
X11950777Y-12147198D02*
X11931729Y-12137674D01*
X11931729Y-12137674D02*
X11922206Y-12128150D01*
X11922206Y-12128150D02*
X11912682Y-12109103D01*
X11912682Y-12109103D02*
X11912682Y-12099579D01*
X11912682Y-12099579D02*
X11922206Y-12080531D01*
X11922206Y-12080531D02*
X11931729Y-12071008D01*
X11931729Y-12071008D02*
X11950777Y-12061484D01*
X11950777Y-12061484D02*
X11988872Y-12061484D01*
X11988872Y-12061484D02*
X12007920Y-12071008D01*
X12007920Y-12071008D02*
X12017444Y-12080531D01*
X12017444Y-12080531D02*
X12026967Y-12099579D01*
X12026967Y-12099579D02*
X12026967Y-12109103D01*
X12026967Y-12109103D02*
X12017444Y-12128150D01*
X12017444Y-12128150D02*
X12007920Y-12137674D01*
X12007920Y-12137674D02*
X11988872Y-12147198D01*
X11988872Y-12147198D02*
X11950777Y-12147198D01*
X11950777Y-12147198D02*
X11931729Y-12156722D01*
X11931729Y-12156722D02*
X11922206Y-12166246D01*
X11922206Y-12166246D02*
X11912682Y-12185293D01*
X11912682Y-12185293D02*
X11912682Y-12223388D01*
X11912682Y-12223388D02*
X11922206Y-12242436D01*
X11922206Y-12242436D02*
X11931729Y-12251960D01*
X11931729Y-12251960D02*
X11950777Y-12261484D01*
X11950777Y-12261484D02*
X11988872Y-12261484D01*
X11988872Y-12261484D02*
X12007920Y-12251960D01*
X12007920Y-12251960D02*
X12017444Y-12242436D01*
X12017444Y-12242436D02*
X12026967Y-12223388D01*
X12026967Y-12223388D02*
X12026967Y-12185293D01*
X12026967Y-12185293D02*
X12017444Y-12166246D01*
X12017444Y-12166246D02*
X12007920Y-12156722D01*
X12007920Y-12156722D02*
X11988872Y-12147198D01*
X12093634Y-12061484D02*
X12226967Y-12061484D01*
X12226967Y-12061484D02*
X12141253Y-12261484D01*
X12293634Y-12061484D02*
X12293634Y-12099579D01*
X12369825Y-12061484D02*
X12369825Y-12099579D01*
X12665063Y-12337674D02*
X12655539Y-12328150D01*
X12655539Y-12328150D02*
X12636491Y-12299579D01*
X12636491Y-12299579D02*
X12626968Y-12280531D01*
X12626968Y-12280531D02*
X12617444Y-12251960D01*
X12617444Y-12251960D02*
X12607920Y-12204341D01*
X12607920Y-12204341D02*
X12607920Y-12166246D01*
X12607920Y-12166246D02*
X12617444Y-12118627D01*
X12617444Y-12118627D02*
X12626968Y-12090055D01*
X12626968Y-12090055D02*
X12636491Y-12071008D01*
X12636491Y-12071008D02*
X12655539Y-12042436D01*
X12655539Y-12042436D02*
X12665063Y-12032912D01*
X12846015Y-12261484D02*
X12731729Y-12261484D01*
X12788872Y-12261484D02*
X12788872Y-12061484D01*
X12788872Y-12061484D02*
X12769825Y-12090055D01*
X12769825Y-12090055D02*
X12750777Y-12109103D01*
X12750777Y-12109103D02*
X12731729Y-12118627D01*
X13084110Y-12261484D02*
X13084110Y-12061484D01*
X13169825Y-12261484D02*
X13169825Y-12156722D01*
X13169825Y-12156722D02*
X13160301Y-12137674D01*
X13160301Y-12137674D02*
X13141253Y-12128150D01*
X13141253Y-12128150D02*
X13112682Y-12128150D01*
X13112682Y-12128150D02*
X13093634Y-12137674D01*
X13093634Y-12137674D02*
X13084110Y-12147198D01*
X13293634Y-12261484D02*
X13274587Y-12251960D01*
X13274587Y-12251960D02*
X13265063Y-12242436D01*
X13265063Y-12242436D02*
X13255539Y-12223388D01*
X13255539Y-12223388D02*
X13255539Y-12166246D01*
X13255539Y-12166246D02*
X13265063Y-12147198D01*
X13265063Y-12147198D02*
X13274587Y-12137674D01*
X13274587Y-12137674D02*
X13293634Y-12128150D01*
X13293634Y-12128150D02*
X13322206Y-12128150D01*
X13322206Y-12128150D02*
X13341253Y-12137674D01*
X13341253Y-12137674D02*
X13350777Y-12147198D01*
X13350777Y-12147198D02*
X13360301Y-12166246D01*
X13360301Y-12166246D02*
X13360301Y-12223388D01*
X13360301Y-12223388D02*
X13350777Y-12242436D01*
X13350777Y-12242436D02*
X13341253Y-12251960D01*
X13341253Y-12251960D02*
X13322206Y-12261484D01*
X13322206Y-12261484D02*
X13293634Y-12261484D01*
X13474587Y-12261484D02*
X13455539Y-12251960D01*
X13455539Y-12251960D02*
X13446015Y-12232912D01*
X13446015Y-12232912D02*
X13446015Y-12061484D01*
X13626968Y-12251960D02*
X13607920Y-12261484D01*
X13607920Y-12261484D02*
X13569825Y-12261484D01*
X13569825Y-12261484D02*
X13550777Y-12251960D01*
X13550777Y-12251960D02*
X13541253Y-12232912D01*
X13541253Y-12232912D02*
X13541253Y-12156722D01*
X13541253Y-12156722D02*
X13550777Y-12137674D01*
X13550777Y-12137674D02*
X13569825Y-12128150D01*
X13569825Y-12128150D02*
X13607920Y-12128150D01*
X13607920Y-12128150D02*
X13626968Y-12137674D01*
X13626968Y-12137674D02*
X13636491Y-12156722D01*
X13636491Y-12156722D02*
X13636491Y-12175769D01*
X13636491Y-12175769D02*
X13541253Y-12194817D01*
X13703158Y-12337674D02*
X13712682Y-12328150D01*
X13712682Y-12328150D02*
X13731730Y-12299579D01*
X13731730Y-12299579D02*
X13741253Y-12280531D01*
X13741253Y-12280531D02*
X13750777Y-12251960D01*
X13750777Y-12251960D02*
X13760301Y-12204341D01*
X13760301Y-12204341D02*
X13760301Y-12166246D01*
X13760301Y-12166246D02*
X13750777Y-12118627D01*
X13750777Y-12118627D02*
X13741253Y-12090055D01*
X13741253Y-12090055D02*
X13731730Y-12071008D01*
X13731730Y-12071008D02*
X13712682Y-12042436D01*
X13712682Y-12042436D02*
X13703158Y-12032912D01*
X8890000Y-12390000D02*
X9090000Y-12590000D01*
X9090000Y-12390000D02*
X8890000Y-12590000D01*
X8990000Y-12390000D02*
X8990000Y-12590000D01*
X8890000Y-12490000D02*
X9090000Y-12490000D01*
X9341253Y-12400531D02*
X9350777Y-12391008D01*
X9350777Y-12391008D02*
X9369824Y-12381484D01*
X9369824Y-12381484D02*
X9417444Y-12381484D01*
X9417444Y-12381484D02*
X9436491Y-12391008D01*
X9436491Y-12391008D02*
X9446015Y-12400531D01*
X9446015Y-12400531D02*
X9455539Y-12419579D01*
X9455539Y-12419579D02*
X9455539Y-12438627D01*
X9455539Y-12438627D02*
X9446015Y-12467198D01*
X9446015Y-12467198D02*
X9331729Y-12581484D01*
X9331729Y-12581484D02*
X9455539Y-12581484D01*
X9541253Y-12562436D02*
X9550777Y-12571960D01*
X9550777Y-12571960D02*
X9541253Y-12581484D01*
X9541253Y-12581484D02*
X9531729Y-12571960D01*
X9531729Y-12571960D02*
X9541253Y-12562436D01*
X9541253Y-12562436D02*
X9541253Y-12581484D01*
X9617444Y-12381484D02*
X9741253Y-12381484D01*
X9741253Y-12381484D02*
X9674586Y-12457674D01*
X9674586Y-12457674D02*
X9703158Y-12457674D01*
X9703158Y-12457674D02*
X9722205Y-12467198D01*
X9722205Y-12467198D02*
X9731729Y-12476722D01*
X9731729Y-12476722D02*
X9741253Y-12495769D01*
X9741253Y-12495769D02*
X9741253Y-12543388D01*
X9741253Y-12543388D02*
X9731729Y-12562436D01*
X9731729Y-12562436D02*
X9722205Y-12571960D01*
X9722205Y-12571960D02*
X9703158Y-12581484D01*
X9703158Y-12581484D02*
X9646015Y-12581484D01*
X9646015Y-12581484D02*
X9626967Y-12571960D01*
X9626967Y-12571960D02*
X9617444Y-12562436D01*
X9865063Y-12381484D02*
X9884110Y-12381484D01*
X9884110Y-12381484D02*
X9903158Y-12391008D01*
X9903158Y-12391008D02*
X9912682Y-12400531D01*
X9912682Y-12400531D02*
X9922205Y-12419579D01*
X9922205Y-12419579D02*
X9931729Y-12457674D01*
X9931729Y-12457674D02*
X9931729Y-12505293D01*
X9931729Y-12505293D02*
X9922205Y-12543388D01*
X9922205Y-12543388D02*
X9912682Y-12562436D01*
X9912682Y-12562436D02*
X9903158Y-12571960D01*
X9903158Y-12571960D02*
X9884110Y-12581484D01*
X9884110Y-12581484D02*
X9865063Y-12581484D01*
X9865063Y-12581484D02*
X9846015Y-12571960D01*
X9846015Y-12571960D02*
X9836491Y-12562436D01*
X9836491Y-12562436D02*
X9826967Y-12543388D01*
X9826967Y-12543388D02*
X9817444Y-12505293D01*
X9817444Y-12505293D02*
X9817444Y-12457674D01*
X9817444Y-12457674D02*
X9826967Y-12419579D01*
X9826967Y-12419579D02*
X9836491Y-12400531D01*
X9836491Y-12400531D02*
X9846015Y-12391008D01*
X9846015Y-12391008D02*
X9865063Y-12381484D01*
X10055539Y-12381484D02*
X10074586Y-12381484D01*
X10074586Y-12381484D02*
X10093634Y-12391008D01*
X10093634Y-12391008D02*
X10103158Y-12400531D01*
X10103158Y-12400531D02*
X10112682Y-12419579D01*
X10112682Y-12419579D02*
X10122205Y-12457674D01*
X10122205Y-12457674D02*
X10122205Y-12505293D01*
X10122205Y-12505293D02*
X10112682Y-12543388D01*
X10112682Y-12543388D02*
X10103158Y-12562436D01*
X10103158Y-12562436D02*
X10093634Y-12571960D01*
X10093634Y-12571960D02*
X10074586Y-12581484D01*
X10074586Y-12581484D02*
X10055539Y-12581484D01*
X10055539Y-12581484D02*
X10036491Y-12571960D01*
X10036491Y-12571960D02*
X10026967Y-12562436D01*
X10026967Y-12562436D02*
X10017444Y-12543388D01*
X10017444Y-12543388D02*
X10007920Y-12505293D01*
X10007920Y-12505293D02*
X10007920Y-12457674D01*
X10007920Y-12457674D02*
X10017444Y-12419579D01*
X10017444Y-12419579D02*
X10026967Y-12400531D01*
X10026967Y-12400531D02*
X10036491Y-12391008D01*
X10036491Y-12391008D02*
X10055539Y-12381484D01*
X10207920Y-12581484D02*
X10207920Y-12448150D01*
X10207920Y-12467198D02*
X10217444Y-12457674D01*
X10217444Y-12457674D02*
X10236491Y-12448150D01*
X10236491Y-12448150D02*
X10265063Y-12448150D01*
X10265063Y-12448150D02*
X10284110Y-12457674D01*
X10284110Y-12457674D02*
X10293634Y-12476722D01*
X10293634Y-12476722D02*
X10293634Y-12581484D01*
X10293634Y-12476722D02*
X10303158Y-12457674D01*
X10303158Y-12457674D02*
X10322205Y-12448150D01*
X10322205Y-12448150D02*
X10350777Y-12448150D01*
X10350777Y-12448150D02*
X10369825Y-12457674D01*
X10369825Y-12457674D02*
X10379348Y-12476722D01*
X10379348Y-12476722D02*
X10379348Y-12581484D01*
X10474586Y-12581484D02*
X10474586Y-12448150D01*
X10474586Y-12467198D02*
X10484110Y-12457674D01*
X10484110Y-12457674D02*
X10503158Y-12448150D01*
X10503158Y-12448150D02*
X10531729Y-12448150D01*
X10531729Y-12448150D02*
X10550777Y-12457674D01*
X10550777Y-12457674D02*
X10560301Y-12476722D01*
X10560301Y-12476722D02*
X10560301Y-12581484D01*
X10560301Y-12476722D02*
X10569825Y-12457674D01*
X10569825Y-12457674D02*
X10588872Y-12448150D01*
X10588872Y-12448150D02*
X10617444Y-12448150D01*
X10617444Y-12448150D02*
X10636491Y-12457674D01*
X10636491Y-12457674D02*
X10646015Y-12476722D01*
X10646015Y-12476722D02*
X10646015Y-12581484D01*
X11036491Y-12371960D02*
X10865063Y-12629103D01*
X11293634Y-12381484D02*
X11312682Y-12381484D01*
X11312682Y-12381484D02*
X11331729Y-12391008D01*
X11331729Y-12391008D02*
X11341253Y-12400531D01*
X11341253Y-12400531D02*
X11350777Y-12419579D01*
X11350777Y-12419579D02*
X11360301Y-12457674D01*
X11360301Y-12457674D02*
X11360301Y-12505293D01*
X11360301Y-12505293D02*
X11350777Y-12543388D01*
X11350777Y-12543388D02*
X11341253Y-12562436D01*
X11341253Y-12562436D02*
X11331729Y-12571960D01*
X11331729Y-12571960D02*
X11312682Y-12581484D01*
X11312682Y-12581484D02*
X11293634Y-12581484D01*
X11293634Y-12581484D02*
X11274586Y-12571960D01*
X11274586Y-12571960D02*
X11265063Y-12562436D01*
X11265063Y-12562436D02*
X11255539Y-12543388D01*
X11255539Y-12543388D02*
X11246015Y-12505293D01*
X11246015Y-12505293D02*
X11246015Y-12457674D01*
X11246015Y-12457674D02*
X11255539Y-12419579D01*
X11255539Y-12419579D02*
X11265063Y-12400531D01*
X11265063Y-12400531D02*
X11274586Y-12391008D01*
X11274586Y-12391008D02*
X11293634Y-12381484D01*
X11446015Y-12562436D02*
X11455539Y-12571960D01*
X11455539Y-12571960D02*
X11446015Y-12581484D01*
X11446015Y-12581484D02*
X11436491Y-12571960D01*
X11436491Y-12571960D02*
X11446015Y-12562436D01*
X11446015Y-12562436D02*
X11446015Y-12581484D01*
X11579348Y-12381484D02*
X11598396Y-12381484D01*
X11598396Y-12381484D02*
X11617444Y-12391008D01*
X11617444Y-12391008D02*
X11626967Y-12400531D01*
X11626967Y-12400531D02*
X11636491Y-12419579D01*
X11636491Y-12419579D02*
X11646015Y-12457674D01*
X11646015Y-12457674D02*
X11646015Y-12505293D01*
X11646015Y-12505293D02*
X11636491Y-12543388D01*
X11636491Y-12543388D02*
X11626967Y-12562436D01*
X11626967Y-12562436D02*
X11617444Y-12571960D01*
X11617444Y-12571960D02*
X11598396Y-12581484D01*
X11598396Y-12581484D02*
X11579348Y-12581484D01*
X11579348Y-12581484D02*
X11560301Y-12571960D01*
X11560301Y-12571960D02*
X11550777Y-12562436D01*
X11550777Y-12562436D02*
X11541253Y-12543388D01*
X11541253Y-12543388D02*
X11531729Y-12505293D01*
X11531729Y-12505293D02*
X11531729Y-12457674D01*
X11531729Y-12457674D02*
X11541253Y-12419579D01*
X11541253Y-12419579D02*
X11550777Y-12400531D01*
X11550777Y-12400531D02*
X11560301Y-12391008D01*
X11560301Y-12391008D02*
X11579348Y-12381484D01*
X11741253Y-12581484D02*
X11779348Y-12581484D01*
X11779348Y-12581484D02*
X11798396Y-12571960D01*
X11798396Y-12571960D02*
X11807920Y-12562436D01*
X11807920Y-12562436D02*
X11826967Y-12533865D01*
X11826967Y-12533865D02*
X11836491Y-12495769D01*
X11836491Y-12495769D02*
X11836491Y-12419579D01*
X11836491Y-12419579D02*
X11826967Y-12400531D01*
X11826967Y-12400531D02*
X11817444Y-12391008D01*
X11817444Y-12391008D02*
X11798396Y-12381484D01*
X11798396Y-12381484D02*
X11760301Y-12381484D01*
X11760301Y-12381484D02*
X11741253Y-12391008D01*
X11741253Y-12391008D02*
X11731729Y-12400531D01*
X11731729Y-12400531D02*
X11722206Y-12419579D01*
X11722206Y-12419579D02*
X11722206Y-12467198D01*
X11722206Y-12467198D02*
X11731729Y-12486246D01*
X11731729Y-12486246D02*
X11741253Y-12495769D01*
X11741253Y-12495769D02*
X11760301Y-12505293D01*
X11760301Y-12505293D02*
X11798396Y-12505293D01*
X11798396Y-12505293D02*
X11817444Y-12495769D01*
X11817444Y-12495769D02*
X11826967Y-12486246D01*
X11826967Y-12486246D02*
X11836491Y-12467198D01*
X11960301Y-12381484D02*
X11979348Y-12381484D01*
X11979348Y-12381484D02*
X11998396Y-12391008D01*
X11998396Y-12391008D02*
X12007920Y-12400531D01*
X12007920Y-12400531D02*
X12017444Y-12419579D01*
X12017444Y-12419579D02*
X12026967Y-12457674D01*
X12026967Y-12457674D02*
X12026967Y-12505293D01*
X12026967Y-12505293D02*
X12017444Y-12543388D01*
X12017444Y-12543388D02*
X12007920Y-12562436D01*
X12007920Y-12562436D02*
X11998396Y-12571960D01*
X11998396Y-12571960D02*
X11979348Y-12581484D01*
X11979348Y-12581484D02*
X11960301Y-12581484D01*
X11960301Y-12581484D02*
X11941253Y-12571960D01*
X11941253Y-12571960D02*
X11931729Y-12562436D01*
X11931729Y-12562436D02*
X11922206Y-12543388D01*
X11922206Y-12543388D02*
X11912682Y-12505293D01*
X11912682Y-12505293D02*
X11912682Y-12457674D01*
X11912682Y-12457674D02*
X11922206Y-12419579D01*
X11922206Y-12419579D02*
X11931729Y-12400531D01*
X11931729Y-12400531D02*
X11941253Y-12391008D01*
X11941253Y-12391008D02*
X11960301Y-12381484D01*
X12198396Y-12381484D02*
X12160301Y-12381484D01*
X12160301Y-12381484D02*
X12141253Y-12391008D01*
X12141253Y-12391008D02*
X12131729Y-12400531D01*
X12131729Y-12400531D02*
X12112682Y-12429103D01*
X12112682Y-12429103D02*
X12103158Y-12467198D01*
X12103158Y-12467198D02*
X12103158Y-12543388D01*
X12103158Y-12543388D02*
X12112682Y-12562436D01*
X12112682Y-12562436D02*
X12122206Y-12571960D01*
X12122206Y-12571960D02*
X12141253Y-12581484D01*
X12141253Y-12581484D02*
X12179348Y-12581484D01*
X12179348Y-12581484D02*
X12198396Y-12571960D01*
X12198396Y-12571960D02*
X12207920Y-12562436D01*
X12207920Y-12562436D02*
X12217444Y-12543388D01*
X12217444Y-12543388D02*
X12217444Y-12495769D01*
X12217444Y-12495769D02*
X12207920Y-12476722D01*
X12207920Y-12476722D02*
X12198396Y-12467198D01*
X12198396Y-12467198D02*
X12179348Y-12457674D01*
X12179348Y-12457674D02*
X12141253Y-12457674D01*
X12141253Y-12457674D02*
X12122206Y-12467198D01*
X12122206Y-12467198D02*
X12112682Y-12476722D01*
X12112682Y-12476722D02*
X12103158Y-12495769D01*
X12293634Y-12381484D02*
X12293634Y-12419579D01*
X12369825Y-12381484D02*
X12369825Y-12419579D01*
X12665063Y-12657674D02*
X12655539Y-12648150D01*
X12655539Y-12648150D02*
X12636491Y-12619579D01*
X12636491Y-12619579D02*
X12626968Y-12600531D01*
X12626968Y-12600531D02*
X12617444Y-12571960D01*
X12617444Y-12571960D02*
X12607920Y-12524341D01*
X12607920Y-12524341D02*
X12607920Y-12486246D01*
X12607920Y-12486246D02*
X12617444Y-12438627D01*
X12617444Y-12438627D02*
X12626968Y-12410055D01*
X12626968Y-12410055D02*
X12636491Y-12391008D01*
X12636491Y-12391008D02*
X12655539Y-12362436D01*
X12655539Y-12362436D02*
X12665063Y-12352912D01*
X12826968Y-12448150D02*
X12826968Y-12581484D01*
X12779348Y-12371960D02*
X12731729Y-12514817D01*
X12731729Y-12514817D02*
X12855539Y-12514817D01*
X13084110Y-12581484D02*
X13084110Y-12381484D01*
X13169825Y-12581484D02*
X13169825Y-12476722D01*
X13169825Y-12476722D02*
X13160301Y-12457674D01*
X13160301Y-12457674D02*
X13141253Y-12448150D01*
X13141253Y-12448150D02*
X13112682Y-12448150D01*
X13112682Y-12448150D02*
X13093634Y-12457674D01*
X13093634Y-12457674D02*
X13084110Y-12467198D01*
X13293634Y-12581484D02*
X13274587Y-12571960D01*
X13274587Y-12571960D02*
X13265063Y-12562436D01*
X13265063Y-12562436D02*
X13255539Y-12543388D01*
X13255539Y-12543388D02*
X13255539Y-12486246D01*
X13255539Y-12486246D02*
X13265063Y-12467198D01*
X13265063Y-12467198D02*
X13274587Y-12457674D01*
X13274587Y-12457674D02*
X13293634Y-12448150D01*
X13293634Y-12448150D02*
X13322206Y-12448150D01*
X13322206Y-12448150D02*
X13341253Y-12457674D01*
X13341253Y-12457674D02*
X13350777Y-12467198D01*
X13350777Y-12467198D02*
X13360301Y-12486246D01*
X13360301Y-12486246D02*
X13360301Y-12543388D01*
X13360301Y-12543388D02*
X13350777Y-12562436D01*
X13350777Y-12562436D02*
X13341253Y-12571960D01*
X13341253Y-12571960D02*
X13322206Y-12581484D01*
X13322206Y-12581484D02*
X13293634Y-12581484D01*
X13474587Y-12581484D02*
X13455539Y-12571960D01*
X13455539Y-12571960D02*
X13446015Y-12552912D01*
X13446015Y-12552912D02*
X13446015Y-12381484D01*
X13626968Y-12571960D02*
X13607920Y-12581484D01*
X13607920Y-12581484D02*
X13569825Y-12581484D01*
X13569825Y-12581484D02*
X13550777Y-12571960D01*
X13550777Y-12571960D02*
X13541253Y-12552912D01*
X13541253Y-12552912D02*
X13541253Y-12476722D01*
X13541253Y-12476722D02*
X13550777Y-12457674D01*
X13550777Y-12457674D02*
X13569825Y-12448150D01*
X13569825Y-12448150D02*
X13607920Y-12448150D01*
X13607920Y-12448150D02*
X13626968Y-12457674D01*
X13626968Y-12457674D02*
X13636491Y-12476722D01*
X13636491Y-12476722D02*
X13636491Y-12495769D01*
X13636491Y-12495769D02*
X13541253Y-12514817D01*
X13712682Y-12571960D02*
X13731730Y-12581484D01*
X13731730Y-12581484D02*
X13769825Y-12581484D01*
X13769825Y-12581484D02*
X13788872Y-12571960D01*
X13788872Y-12571960D02*
X13798396Y-12552912D01*
X13798396Y-12552912D02*
X13798396Y-12543388D01*
X13798396Y-12543388D02*
X13788872Y-12524341D01*
X13788872Y-12524341D02*
X13769825Y-12514817D01*
X13769825Y-12514817D02*
X13741253Y-12514817D01*
X13741253Y-12514817D02*
X13722206Y-12505293D01*
X13722206Y-12505293D02*
X13712682Y-12486246D01*
X13712682Y-12486246D02*
X13712682Y-12476722D01*
X13712682Y-12476722D02*
X13722206Y-12457674D01*
X13722206Y-12457674D02*
X13741253Y-12448150D01*
X13741253Y-12448150D02*
X13769825Y-12448150D01*
X13769825Y-12448150D02*
X13788872Y-12457674D01*
X13865063Y-12657674D02*
X13874587Y-12648150D01*
X13874587Y-12648150D02*
X13893634Y-12619579D01*
X13893634Y-12619579D02*
X13903158Y-12600531D01*
X13903158Y-12600531D02*
X13912682Y-12571960D01*
X13912682Y-12571960D02*
X13922206Y-12524341D01*
X13922206Y-12524341D02*
X13922206Y-12486246D01*
X13922206Y-12486246D02*
X13912682Y-12438627D01*
X13912682Y-12438627D02*
X13903158Y-12410055D01*
X13903158Y-12410055D02*
X13893634Y-12391008D01*
X13893634Y-12391008D02*
X13874587Y-12362436D01*
X13874587Y-12362436D02*
X13865063Y-12352912D01*
X8890000Y-12710000D02*
X9090000Y-12910000D01*
X9090000Y-12710000D02*
X8890000Y-12910000D01*
X9060711Y-12880711D02*
X9060711Y-12739289D01*
X8919289Y-12739289D01*
X8919289Y-12880711D01*
X9060711Y-12880711D01*
X9331729Y-12701484D02*
X9455539Y-12701484D01*
X9455539Y-12701484D02*
X9388872Y-12777674D01*
X9388872Y-12777674D02*
X9417444Y-12777674D01*
X9417444Y-12777674D02*
X9436491Y-12787198D01*
X9436491Y-12787198D02*
X9446015Y-12796722D01*
X9446015Y-12796722D02*
X9455539Y-12815769D01*
X9455539Y-12815769D02*
X9455539Y-12863388D01*
X9455539Y-12863388D02*
X9446015Y-12882436D01*
X9446015Y-12882436D02*
X9436491Y-12891960D01*
X9436491Y-12891960D02*
X9417444Y-12901484D01*
X9417444Y-12901484D02*
X9360301Y-12901484D01*
X9360301Y-12901484D02*
X9341253Y-12891960D01*
X9341253Y-12891960D02*
X9331729Y-12882436D01*
X9541253Y-12882436D02*
X9550777Y-12891960D01*
X9550777Y-12891960D02*
X9541253Y-12901484D01*
X9541253Y-12901484D02*
X9531729Y-12891960D01*
X9531729Y-12891960D02*
X9541253Y-12882436D01*
X9541253Y-12882436D02*
X9541253Y-12901484D01*
X9674586Y-12701484D02*
X9693634Y-12701484D01*
X9693634Y-12701484D02*
X9712682Y-12711008D01*
X9712682Y-12711008D02*
X9722205Y-12720531D01*
X9722205Y-12720531D02*
X9731729Y-12739579D01*
X9731729Y-12739579D02*
X9741253Y-12777674D01*
X9741253Y-12777674D02*
X9741253Y-12825293D01*
X9741253Y-12825293D02*
X9731729Y-12863388D01*
X9731729Y-12863388D02*
X9722205Y-12882436D01*
X9722205Y-12882436D02*
X9712682Y-12891960D01*
X9712682Y-12891960D02*
X9693634Y-12901484D01*
X9693634Y-12901484D02*
X9674586Y-12901484D01*
X9674586Y-12901484D02*
X9655539Y-12891960D01*
X9655539Y-12891960D02*
X9646015Y-12882436D01*
X9646015Y-12882436D02*
X9636491Y-12863388D01*
X9636491Y-12863388D02*
X9626967Y-12825293D01*
X9626967Y-12825293D02*
X9626967Y-12777674D01*
X9626967Y-12777674D02*
X9636491Y-12739579D01*
X9636491Y-12739579D02*
X9646015Y-12720531D01*
X9646015Y-12720531D02*
X9655539Y-12711008D01*
X9655539Y-12711008D02*
X9674586Y-12701484D01*
X9865063Y-12701484D02*
X9884110Y-12701484D01*
X9884110Y-12701484D02*
X9903158Y-12711008D01*
X9903158Y-12711008D02*
X9912682Y-12720531D01*
X9912682Y-12720531D02*
X9922205Y-12739579D01*
X9922205Y-12739579D02*
X9931729Y-12777674D01*
X9931729Y-12777674D02*
X9931729Y-12825293D01*
X9931729Y-12825293D02*
X9922205Y-12863388D01*
X9922205Y-12863388D02*
X9912682Y-12882436D01*
X9912682Y-12882436D02*
X9903158Y-12891960D01*
X9903158Y-12891960D02*
X9884110Y-12901484D01*
X9884110Y-12901484D02*
X9865063Y-12901484D01*
X9865063Y-12901484D02*
X9846015Y-12891960D01*
X9846015Y-12891960D02*
X9836491Y-12882436D01*
X9836491Y-12882436D02*
X9826967Y-12863388D01*
X9826967Y-12863388D02*
X9817444Y-12825293D01*
X9817444Y-12825293D02*
X9817444Y-12777674D01*
X9817444Y-12777674D02*
X9826967Y-12739579D01*
X9826967Y-12739579D02*
X9836491Y-12720531D01*
X9836491Y-12720531D02*
X9846015Y-12711008D01*
X9846015Y-12711008D02*
X9865063Y-12701484D01*
X10055539Y-12701484D02*
X10074586Y-12701484D01*
X10074586Y-12701484D02*
X10093634Y-12711008D01*
X10093634Y-12711008D02*
X10103158Y-12720531D01*
X10103158Y-12720531D02*
X10112682Y-12739579D01*
X10112682Y-12739579D02*
X10122205Y-12777674D01*
X10122205Y-12777674D02*
X10122205Y-12825293D01*
X10122205Y-12825293D02*
X10112682Y-12863388D01*
X10112682Y-12863388D02*
X10103158Y-12882436D01*
X10103158Y-12882436D02*
X10093634Y-12891960D01*
X10093634Y-12891960D02*
X10074586Y-12901484D01*
X10074586Y-12901484D02*
X10055539Y-12901484D01*
X10055539Y-12901484D02*
X10036491Y-12891960D01*
X10036491Y-12891960D02*
X10026967Y-12882436D01*
X10026967Y-12882436D02*
X10017444Y-12863388D01*
X10017444Y-12863388D02*
X10007920Y-12825293D01*
X10007920Y-12825293D02*
X10007920Y-12777674D01*
X10007920Y-12777674D02*
X10017444Y-12739579D01*
X10017444Y-12739579D02*
X10026967Y-12720531D01*
X10026967Y-12720531D02*
X10036491Y-12711008D01*
X10036491Y-12711008D02*
X10055539Y-12701484D01*
X10207920Y-12901484D02*
X10207920Y-12768150D01*
X10207920Y-12787198D02*
X10217444Y-12777674D01*
X10217444Y-12777674D02*
X10236491Y-12768150D01*
X10236491Y-12768150D02*
X10265063Y-12768150D01*
X10265063Y-12768150D02*
X10284110Y-12777674D01*
X10284110Y-12777674D02*
X10293634Y-12796722D01*
X10293634Y-12796722D02*
X10293634Y-12901484D01*
X10293634Y-12796722D02*
X10303158Y-12777674D01*
X10303158Y-12777674D02*
X10322205Y-12768150D01*
X10322205Y-12768150D02*
X10350777Y-12768150D01*
X10350777Y-12768150D02*
X10369825Y-12777674D01*
X10369825Y-12777674D02*
X10379348Y-12796722D01*
X10379348Y-12796722D02*
X10379348Y-12901484D01*
X10474586Y-12901484D02*
X10474586Y-12768150D01*
X10474586Y-12787198D02*
X10484110Y-12777674D01*
X10484110Y-12777674D02*
X10503158Y-12768150D01*
X10503158Y-12768150D02*
X10531729Y-12768150D01*
X10531729Y-12768150D02*
X10550777Y-12777674D01*
X10550777Y-12777674D02*
X10560301Y-12796722D01*
X10560301Y-12796722D02*
X10560301Y-12901484D01*
X10560301Y-12796722D02*
X10569825Y-12777674D01*
X10569825Y-12777674D02*
X10588872Y-12768150D01*
X10588872Y-12768150D02*
X10617444Y-12768150D01*
X10617444Y-12768150D02*
X10636491Y-12777674D01*
X10636491Y-12777674D02*
X10646015Y-12796722D01*
X10646015Y-12796722D02*
X10646015Y-12901484D01*
X11036491Y-12691960D02*
X10865063Y-12949103D01*
X11293634Y-12701484D02*
X11312682Y-12701484D01*
X11312682Y-12701484D02*
X11331729Y-12711008D01*
X11331729Y-12711008D02*
X11341253Y-12720531D01*
X11341253Y-12720531D02*
X11350777Y-12739579D01*
X11350777Y-12739579D02*
X11360301Y-12777674D01*
X11360301Y-12777674D02*
X11360301Y-12825293D01*
X11360301Y-12825293D02*
X11350777Y-12863388D01*
X11350777Y-12863388D02*
X11341253Y-12882436D01*
X11341253Y-12882436D02*
X11331729Y-12891960D01*
X11331729Y-12891960D02*
X11312682Y-12901484D01*
X11312682Y-12901484D02*
X11293634Y-12901484D01*
X11293634Y-12901484D02*
X11274586Y-12891960D01*
X11274586Y-12891960D02*
X11265063Y-12882436D01*
X11265063Y-12882436D02*
X11255539Y-12863388D01*
X11255539Y-12863388D02*
X11246015Y-12825293D01*
X11246015Y-12825293D02*
X11246015Y-12777674D01*
X11246015Y-12777674D02*
X11255539Y-12739579D01*
X11255539Y-12739579D02*
X11265063Y-12720531D01*
X11265063Y-12720531D02*
X11274586Y-12711008D01*
X11274586Y-12711008D02*
X11293634Y-12701484D01*
X11446015Y-12882436D02*
X11455539Y-12891960D01*
X11455539Y-12891960D02*
X11446015Y-12901484D01*
X11446015Y-12901484D02*
X11436491Y-12891960D01*
X11436491Y-12891960D02*
X11446015Y-12882436D01*
X11446015Y-12882436D02*
X11446015Y-12901484D01*
X11646015Y-12901484D02*
X11531729Y-12901484D01*
X11588872Y-12901484D02*
X11588872Y-12701484D01*
X11588872Y-12701484D02*
X11569825Y-12730055D01*
X11569825Y-12730055D02*
X11550777Y-12749103D01*
X11550777Y-12749103D02*
X11531729Y-12758627D01*
X11836491Y-12901484D02*
X11722206Y-12901484D01*
X11779348Y-12901484D02*
X11779348Y-12701484D01*
X11779348Y-12701484D02*
X11760301Y-12730055D01*
X11760301Y-12730055D02*
X11741253Y-12749103D01*
X11741253Y-12749103D02*
X11722206Y-12758627D01*
X11950777Y-12787198D02*
X11931729Y-12777674D01*
X11931729Y-12777674D02*
X11922206Y-12768150D01*
X11922206Y-12768150D02*
X11912682Y-12749103D01*
X11912682Y-12749103D02*
X11912682Y-12739579D01*
X11912682Y-12739579D02*
X11922206Y-12720531D01*
X11922206Y-12720531D02*
X11931729Y-12711008D01*
X11931729Y-12711008D02*
X11950777Y-12701484D01*
X11950777Y-12701484D02*
X11988872Y-12701484D01*
X11988872Y-12701484D02*
X12007920Y-12711008D01*
X12007920Y-12711008D02*
X12017444Y-12720531D01*
X12017444Y-12720531D02*
X12026967Y-12739579D01*
X12026967Y-12739579D02*
X12026967Y-12749103D01*
X12026967Y-12749103D02*
X12017444Y-12768150D01*
X12017444Y-12768150D02*
X12007920Y-12777674D01*
X12007920Y-12777674D02*
X11988872Y-12787198D01*
X11988872Y-12787198D02*
X11950777Y-12787198D01*
X11950777Y-12787198D02*
X11931729Y-12796722D01*
X11931729Y-12796722D02*
X11922206Y-12806246D01*
X11922206Y-12806246D02*
X11912682Y-12825293D01*
X11912682Y-12825293D02*
X11912682Y-12863388D01*
X11912682Y-12863388D02*
X11922206Y-12882436D01*
X11922206Y-12882436D02*
X11931729Y-12891960D01*
X11931729Y-12891960D02*
X11950777Y-12901484D01*
X11950777Y-12901484D02*
X11988872Y-12901484D01*
X11988872Y-12901484D02*
X12007920Y-12891960D01*
X12007920Y-12891960D02*
X12017444Y-12882436D01*
X12017444Y-12882436D02*
X12026967Y-12863388D01*
X12026967Y-12863388D02*
X12026967Y-12825293D01*
X12026967Y-12825293D02*
X12017444Y-12806246D01*
X12017444Y-12806246D02*
X12007920Y-12796722D01*
X12007920Y-12796722D02*
X11988872Y-12787198D01*
X12217444Y-12901484D02*
X12103158Y-12901484D01*
X12160301Y-12901484D02*
X12160301Y-12701484D01*
X12160301Y-12701484D02*
X12141253Y-12730055D01*
X12141253Y-12730055D02*
X12122206Y-12749103D01*
X12122206Y-12749103D02*
X12103158Y-12758627D01*
X12293634Y-12701484D02*
X12293634Y-12739579D01*
X12369825Y-12701484D02*
X12369825Y-12739579D01*
X12665063Y-12977674D02*
X12655539Y-12968150D01*
X12655539Y-12968150D02*
X12636491Y-12939579D01*
X12636491Y-12939579D02*
X12626968Y-12920531D01*
X12626968Y-12920531D02*
X12617444Y-12891960D01*
X12617444Y-12891960D02*
X12607920Y-12844341D01*
X12607920Y-12844341D02*
X12607920Y-12806246D01*
X12607920Y-12806246D02*
X12617444Y-12758627D01*
X12617444Y-12758627D02*
X12626968Y-12730055D01*
X12626968Y-12730055D02*
X12636491Y-12711008D01*
X12636491Y-12711008D02*
X12655539Y-12682436D01*
X12655539Y-12682436D02*
X12665063Y-12672912D01*
X12731729Y-12720531D02*
X12741253Y-12711008D01*
X12741253Y-12711008D02*
X12760301Y-12701484D01*
X12760301Y-12701484D02*
X12807920Y-12701484D01*
X12807920Y-12701484D02*
X12826968Y-12711008D01*
X12826968Y-12711008D02*
X12836491Y-12720531D01*
X12836491Y-12720531D02*
X12846015Y-12739579D01*
X12846015Y-12739579D02*
X12846015Y-12758627D01*
X12846015Y-12758627D02*
X12836491Y-12787198D01*
X12836491Y-12787198D02*
X12722206Y-12901484D01*
X12722206Y-12901484D02*
X12846015Y-12901484D01*
X13084110Y-12901484D02*
X13084110Y-12701484D01*
X13169825Y-12901484D02*
X13169825Y-12796722D01*
X13169825Y-12796722D02*
X13160301Y-12777674D01*
X13160301Y-12777674D02*
X13141253Y-12768150D01*
X13141253Y-12768150D02*
X13112682Y-12768150D01*
X13112682Y-12768150D02*
X13093634Y-12777674D01*
X13093634Y-12777674D02*
X13084110Y-12787198D01*
X13293634Y-12901484D02*
X13274587Y-12891960D01*
X13274587Y-12891960D02*
X13265063Y-12882436D01*
X13265063Y-12882436D02*
X13255539Y-12863388D01*
X13255539Y-12863388D02*
X13255539Y-12806246D01*
X13255539Y-12806246D02*
X13265063Y-12787198D01*
X13265063Y-12787198D02*
X13274587Y-12777674D01*
X13274587Y-12777674D02*
X13293634Y-12768150D01*
X13293634Y-12768150D02*
X13322206Y-12768150D01*
X13322206Y-12768150D02*
X13341253Y-12777674D01*
X13341253Y-12777674D02*
X13350777Y-12787198D01*
X13350777Y-12787198D02*
X13360301Y-12806246D01*
X13360301Y-12806246D02*
X13360301Y-12863388D01*
X13360301Y-12863388D02*
X13350777Y-12882436D01*
X13350777Y-12882436D02*
X13341253Y-12891960D01*
X13341253Y-12891960D02*
X13322206Y-12901484D01*
X13322206Y-12901484D02*
X13293634Y-12901484D01*
X13474587Y-12901484D02*
X13455539Y-12891960D01*
X13455539Y-12891960D02*
X13446015Y-12872912D01*
X13446015Y-12872912D02*
X13446015Y-12701484D01*
X13626968Y-12891960D02*
X13607920Y-12901484D01*
X13607920Y-12901484D02*
X13569825Y-12901484D01*
X13569825Y-12901484D02*
X13550777Y-12891960D01*
X13550777Y-12891960D02*
X13541253Y-12872912D01*
X13541253Y-12872912D02*
X13541253Y-12796722D01*
X13541253Y-12796722D02*
X13550777Y-12777674D01*
X13550777Y-12777674D02*
X13569825Y-12768150D01*
X13569825Y-12768150D02*
X13607920Y-12768150D01*
X13607920Y-12768150D02*
X13626968Y-12777674D01*
X13626968Y-12777674D02*
X13636491Y-12796722D01*
X13636491Y-12796722D02*
X13636491Y-12815769D01*
X13636491Y-12815769D02*
X13541253Y-12834817D01*
X13712682Y-12891960D02*
X13731730Y-12901484D01*
X13731730Y-12901484D02*
X13769825Y-12901484D01*
X13769825Y-12901484D02*
X13788872Y-12891960D01*
X13788872Y-12891960D02*
X13798396Y-12872912D01*
X13798396Y-12872912D02*
X13798396Y-12863388D01*
X13798396Y-12863388D02*
X13788872Y-12844341D01*
X13788872Y-12844341D02*
X13769825Y-12834817D01*
X13769825Y-12834817D02*
X13741253Y-12834817D01*
X13741253Y-12834817D02*
X13722206Y-12825293D01*
X13722206Y-12825293D02*
X13712682Y-12806246D01*
X13712682Y-12806246D02*
X13712682Y-12796722D01*
X13712682Y-12796722D02*
X13722206Y-12777674D01*
X13722206Y-12777674D02*
X13741253Y-12768150D01*
X13741253Y-12768150D02*
X13769825Y-12768150D01*
X13769825Y-12768150D02*
X13788872Y-12777674D01*
X13865063Y-12977674D02*
X13874587Y-12968150D01*
X13874587Y-12968150D02*
X13893634Y-12939579D01*
X13893634Y-12939579D02*
X13903158Y-12920531D01*
X13903158Y-12920531D02*
X13912682Y-12891960D01*
X13912682Y-12891960D02*
X13922206Y-12844341D01*
X13922206Y-12844341D02*
X13922206Y-12806246D01*
X13922206Y-12806246D02*
X13912682Y-12758627D01*
X13912682Y-12758627D02*
X13903158Y-12730055D01*
X13903158Y-12730055D02*
X13893634Y-12711008D01*
X13893634Y-12711008D02*
X13874587Y-12682436D01*
X13874587Y-12682436D02*
X13865063Y-12672912D01*
M02*
