%TF.GenerationSoftware,KiCad,Pcbnew,8.0.1*%
%TF.CreationDate,2024-05-06T20:31:10+02:00*%
%TF.ProjectId,smartknob,736d6172-746b-46e6-9f62-2e6b69636164,rev?*%
%TF.SameCoordinates,Original*%
%TF.FileFunction,Copper,L1,Top*%
%TF.FilePolarity,Positive*%
%FSLAX46Y46*%
G04 Gerber Fmt 4.6, Leading zero omitted, Abs format (unit mm)*
G04 Created by KiCad (PCBNEW 8.0.1) date 2024-05-06 20:31:10*
%MOMM*%
%LPD*%
G01*
G04 APERTURE LIST*
G04 Aperture macros list*
%AMRoundRect*
0 Rectangle with rounded corners*
0 $1 Rounding radius*
0 $2 $3 $4 $5 $6 $7 $8 $9 X,Y pos of 4 corners*
0 Add a 4 corners polygon primitive as box body*
4,1,4,$2,$3,$4,$5,$6,$7,$8,$9,$2,$3,0*
0 Add four circle primitives for the rounded corners*
1,1,$1+$1,$2,$3*
1,1,$1+$1,$4,$5*
1,1,$1+$1,$6,$7*
1,1,$1+$1,$8,$9*
0 Add four rect primitives between the rounded corners*
20,1,$1+$1,$2,$3,$4,$5,0*
20,1,$1+$1,$4,$5,$6,$7,0*
20,1,$1+$1,$6,$7,$8,$9,0*
20,1,$1+$1,$8,$9,$2,$3,0*%
%AMHorizOval*
0 Thick line with rounded ends*
0 $1 width*
0 $2 $3 position (X,Y) of the first rounded end (center of the circle)*
0 $4 $5 position (X,Y) of the second rounded end (center of the circle)*
0 Add line between two ends*
20,1,$1,$2,$3,$4,$5,0*
0 Add two circle primitives to create the rounded ends*
1,1,$1,$2,$3*
1,1,$1,$4,$5*%
%AMRotRect*
0 Rectangle, with rotation*
0 The origin of the aperture is its center*
0 $1 length*
0 $2 width*
0 $3 Rotation angle, in degrees counterclockwise*
0 Add horizontal line*
21,1,$1,$2,0,0,$3*%
G04 Aperture macros list end*
%TA.AperFunction,SMDPad,CuDef*%
%ADD10RoundRect,0.150000X0.150000X-0.512500X0.150000X0.512500X-0.150000X0.512500X-0.150000X-0.512500X0*%
%TD*%
%TA.AperFunction,SMDPad,CuDef*%
%ADD11RoundRect,0.250000X-0.475000X0.337500X-0.475000X-0.337500X0.475000X-0.337500X0.475000X0.337500X0*%
%TD*%
%TA.AperFunction,SMDPad,CuDef*%
%ADD12RoundRect,0.250000X-0.450000X0.262500X-0.450000X-0.262500X0.450000X-0.262500X0.450000X0.262500X0*%
%TD*%
%TA.AperFunction,SMDPad,CuDef*%
%ADD13RoundRect,0.250000X-0.262500X-0.450000X0.262500X-0.450000X0.262500X0.450000X-0.262500X0.450000X0*%
%TD*%
%TA.AperFunction,SMDPad,CuDef*%
%ADD14RoundRect,0.250000X-0.350000X-0.450000X0.350000X-0.450000X0.350000X0.450000X-0.350000X0.450000X0*%
%TD*%
%TA.AperFunction,SMDPad,CuDef*%
%ADD15C,1.000000*%
%TD*%
%TA.AperFunction,ComponentPad*%
%ADD16O,1.200000X2.000000*%
%TD*%
%TA.AperFunction,ComponentPad*%
%ADD17O,1.200000X1.800000*%
%TD*%
%TA.AperFunction,SMDPad,CuDef*%
%ADD18R,0.300000X1.300000*%
%TD*%
%TA.AperFunction,SMDPad,CuDef*%
%ADD19RoundRect,0.250000X0.450000X-0.350000X0.450000X0.350000X-0.450000X0.350000X-0.450000X-0.350000X0*%
%TD*%
%TA.AperFunction,SMDPad,CuDef*%
%ADD20RoundRect,0.250000X0.475000X-0.337500X0.475000X0.337500X-0.475000X0.337500X-0.475000X-0.337500X0*%
%TD*%
%TA.AperFunction,SMDPad,CuDef*%
%ADD21R,2.500000X0.350000*%
%TD*%
%TA.AperFunction,SMDPad,CuDef*%
%ADD22RoundRect,0.250000X0.350000X0.450000X-0.350000X0.450000X-0.350000X-0.450000X0.350000X-0.450000X0*%
%TD*%
%TA.AperFunction,SMDPad,CuDef*%
%ADD23RoundRect,0.050000X0.362500X0.050000X-0.362500X0.050000X-0.362500X-0.050000X0.362500X-0.050000X0*%
%TD*%
%TA.AperFunction,SMDPad,CuDef*%
%ADD24RoundRect,0.050000X0.050000X0.362500X-0.050000X0.362500X-0.050000X-0.362500X0.050000X-0.362500X0*%
%TD*%
%TA.AperFunction,SMDPad,CuDef*%
%ADD25R,1.700000X1.700000*%
%TD*%
%TA.AperFunction,SMDPad,CuDef*%
%ADD26C,1.500000*%
%TD*%
%TA.AperFunction,SMDPad,CuDef*%
%ADD27R,1.500000X0.900000*%
%TD*%
%TA.AperFunction,SMDPad,CuDef*%
%ADD28R,0.900000X1.500000*%
%TD*%
%TA.AperFunction,SMDPad,CuDef*%
%ADD29RoundRect,0.250000X0.450000X-0.262500X0.450000X0.262500X-0.450000X0.262500X-0.450000X-0.262500X0*%
%TD*%
%TA.AperFunction,ComponentPad*%
%ADD30R,1.700000X1.700000*%
%TD*%
%TA.AperFunction,ComponentPad*%
%ADD31O,1.700000X1.700000*%
%TD*%
%TA.AperFunction,SMDPad,CuDef*%
%ADD32RoundRect,0.250000X-0.337500X-0.475000X0.337500X-0.475000X0.337500X0.475000X-0.337500X0.475000X0*%
%TD*%
%TA.AperFunction,ComponentPad*%
%ADD33HorizOval,1.200000X0.068404X-0.187939X-0.068404X0.187939X0*%
%TD*%
%TA.AperFunction,ComponentPad*%
%ADD34HorizOval,1.200000X0.000000X0.000000X0.000000X0.000000X0*%
%TD*%
%TA.AperFunction,ComponentPad*%
%ADD35C,0.950000*%
%TD*%
%TA.AperFunction,ComponentPad*%
%ADD36RotRect,1.700000X1.700000X225.000000*%
%TD*%
%TA.AperFunction,ComponentPad*%
%ADD37HorizOval,1.700000X0.000000X0.000000X0.000000X0.000000X0*%
%TD*%
%TA.AperFunction,ViaPad*%
%ADD38C,2.300000*%
%TD*%
%TA.AperFunction,ViaPad*%
%ADD39C,0.600000*%
%TD*%
%TA.AperFunction,ViaPad*%
%ADD40C,3.300000*%
%TD*%
%TA.AperFunction,ViaPad*%
%ADD41C,2.600000*%
%TD*%
%TA.AperFunction,ViaPad*%
%ADD42C,0.500000*%
%TD*%
%TA.AperFunction,Conductor*%
%ADD43C,0.200000*%
%TD*%
%TA.AperFunction,Conductor*%
%ADD44C,0.300000*%
%TD*%
%TA.AperFunction,Conductor*%
%ADD45C,0.500000*%
%TD*%
%TA.AperFunction,Conductor*%
%ADD46C,0.400000*%
%TD*%
%TA.AperFunction,Conductor*%
%ADD47C,0.250000*%
%TD*%
G04 APERTURE END LIST*
D10*
%TO.P,U2,1,VIN*%
%TO.N,+BATT*%
X99050000Y-77537500D03*
%TO.P,U2,2,GND*%
%TO.N,GND*%
X100000000Y-77537500D03*
%TO.P,U2,3,EN*%
%TO.N,Net-(U2-EN)*%
X100950000Y-77537500D03*
%TO.P,U2,4,FB*%
%TO.N,unconnected-(U2-FB-Pad4)*%
X100950000Y-75262500D03*
%TO.P,U2,5,VOUT*%
%TO.N,+3.3VP*%
X99050000Y-75262500D03*
%TD*%
D11*
%TO.P,C7,1*%
%TO.N,GND*%
X97000000Y-81162500D03*
%TO.P,C7,2*%
%TO.N,Net-(U7-1.8VOUT)*%
X97000000Y-83237500D03*
%TD*%
D12*
%TO.P,R19,1*%
%TO.N,Net-(U5-~{RESET})*%
X124800000Y-86387500D03*
%TO.P,R19,2*%
%TO.N,/TFT_RST*%
X124800000Y-88212500D03*
%TD*%
D13*
%TO.P,R5,1*%
%TO.N,GND*%
X108300000Y-93500000D03*
%TO.P,R5,2*%
%TO.N,Net-(U3-CC1)*%
X110125000Y-93500000D03*
%TD*%
D14*
%TO.P,R9,1*%
%TO.N,/TFT_RST*%
X127000000Y-88300000D03*
%TO.P,R9,2*%
%TO.N,+3.3VP*%
X129000000Y-88300000D03*
%TD*%
D15*
%TO.P,TP2,1,1*%
%TO.N,/TMC_WH*%
X103200000Y-83000000D03*
%TD*%
%TO.P,TP4,1,1*%
%TO.N,/TMC_DIAG*%
X98800000Y-82300000D03*
%TD*%
D16*
%TO.P,U3,0,0*%
%TO.N,GND*%
X112425000Y-92645500D03*
D17*
X112425000Y-96845500D03*
D16*
X121075000Y-92645500D03*
D17*
X121075000Y-96845500D03*
D18*
%TO.P,U3,A1,GND*%
X113400000Y-91577500D03*
%TO.P,U3,A4,VBUS*%
%TO.N,+5VD*%
X114200000Y-91577500D03*
%TO.P,U3,A5,CC1*%
%TO.N,Net-(U3-CC1)*%
X115500000Y-91577500D03*
%TO.P,U3,A6,DP1*%
%TO.N,/DP*%
X116500000Y-91577500D03*
%TO.P,U3,A7,DN1*%
%TO.N,/DN*%
X117000000Y-91577500D03*
%TO.P,U3,A8,SBU1*%
%TO.N,unconnected-(U3-SBU1-PadA8)*%
X118000000Y-91577500D03*
%TO.P,U3,A9,VBUS*%
%TO.N,+5VD*%
X119300000Y-91577500D03*
%TO.P,U3,A12,GND*%
%TO.N,GND*%
X120100000Y-91577500D03*
%TO.P,U3,B1,GND*%
X119800000Y-91577500D03*
%TO.P,U3,B4,VBUS*%
%TO.N,+5VD*%
X119000000Y-91577500D03*
%TO.P,U3,B5,CC2*%
%TO.N,Net-(U3-CC2)*%
X118500000Y-91577500D03*
%TO.P,U3,B6,DP2*%
%TO.N,/DP*%
X117500000Y-91577500D03*
%TO.P,U3,B7,DN2*%
%TO.N,/DN*%
X116000000Y-91577500D03*
%TO.P,U3,B8,SBU2*%
%TO.N,unconnected-(U3-SBU2-PadB8)*%
X115000000Y-91577500D03*
%TO.P,U3,B9,VBUS*%
%TO.N,+5VD*%
X114500000Y-91577500D03*
%TO.P,U3,B12,GND*%
%TO.N,GND*%
X113700000Y-91577500D03*
%TD*%
D19*
%TO.P,R1,1*%
%TO.N,Net-(U1-EN)*%
X102800000Y-76400000D03*
%TO.P,R1,2*%
%TO.N,+3.3VP*%
X102800000Y-74400000D03*
%TD*%
D20*
%TO.P,C1,1*%
%TO.N,GND*%
X103200000Y-80237500D03*
%TO.P,C1,2*%
%TO.N,Net-(U1-EN)*%
X103200000Y-78162500D03*
%TD*%
D21*
%TO.P,U9,1,GND*%
%TO.N,GND*%
X129800000Y-77900000D03*
%TO.P,U9,2,LEDK*%
%TO.N,/LEDK*%
X129800000Y-78600000D03*
%TO.P,U9,3,LEDA*%
%TO.N,/LEDA*%
X129800000Y-79300000D03*
%TO.P,U9,4,VDD*%
%TO.N,+3.3VP*%
X129800000Y-80000000D03*
%TO.P,U9,5,GND*%
%TO.N,GND*%
X129800000Y-80700000D03*
%TO.P,U9,6,GND*%
X129800000Y-81400000D03*
%TO.P,U9,7,D/C*%
%TO.N,/TFT_DC*%
X129800000Y-82100000D03*
%TO.P,U9,8,~{CS}*%
%TO.N,/TFT2_CS*%
X129800000Y-82800000D03*
%TO.P,U9,9,SCK*%
%TO.N,/SCK*%
X129800000Y-83500000D03*
%TO.P,U9,10,SDI*%
%TO.N,/MOSI*%
X129800000Y-84200000D03*
%TO.P,U9,11,~{RESET}*%
%TO.N,/TFT_RST*%
X129800000Y-84900000D03*
%TO.P,U9,12,GND*%
%TO.N,GND*%
X129800000Y-85600000D03*
%TD*%
D22*
%TO.P,R8,1*%
%TO.N,/DN*%
X109800000Y-95400000D03*
%TO.P,R8,2*%
%TO.N,Net-(U1-GPIO19{slash}U1RTS{slash}ADC2_CH8{slash}CLK_OUT2{slash}USB_D-)*%
X107800000Y-95400000D03*
%TD*%
D23*
%TO.P,U7,1,W*%
%TO.N,/BLDC_W*%
X102062500Y-85937500D03*
%TO.P,U7,2,VCP*%
%TO.N,Net-(U7-VCP)*%
X102062500Y-85537500D03*
%TO.P,U7,3,UH*%
%TO.N,/TMC_UH*%
X102062500Y-85137500D03*
%TO.P,U7,4,VH*%
%TO.N,/TMC_VH*%
X102062500Y-84737500D03*
%TO.P,U7,5,WH*%
%TO.N,/TMC_WH*%
X102062500Y-84337500D03*
D24*
%TO.P,U7,6,UL*%
%TO.N,/TMC_UL*%
X101400000Y-83675000D03*
%TO.P,U7,7,WL*%
%TO.N,/TMC_WL*%
X101000000Y-83675000D03*
%TO.P,U7,8,GND*%
%TO.N,GND*%
X100600000Y-83675000D03*
%TO.P,U7,9,GND*%
X100200000Y-83675000D03*
%TO.P,U7,10,VL*%
%TO.N,/TMC_VL*%
X99800000Y-83675000D03*
D23*
%TO.P,U7,11,VIO*%
%TO.N,+3.3VP*%
X99137500Y-84337500D03*
%TO.P,U7,12,DIAG*%
%TO.N,/TMC_DIAG*%
X99137500Y-84737500D03*
%TO.P,U7,13,1.8VOUT*%
%TO.N,Net-(U7-1.8VOUT)*%
X99137500Y-85137500D03*
%TO.P,U7,14,GND*%
%TO.N,GND*%
X99137500Y-85537500D03*
%TO.P,U7,15,U*%
%TO.N,/BLDC_U*%
X99137500Y-85937500D03*
D24*
%TO.P,U7,16,BRUV*%
%TO.N,GND*%
X99800000Y-86600000D03*
%TO.P,U7,17,V*%
%TO.N,/BLDC_V*%
X100200000Y-86600000D03*
%TO.P,U7,18,VS*%
%TO.N,Net-(JP1-A)*%
X100600000Y-86600000D03*
%TO.P,U7,19,-*%
%TO.N,unconnected-(U7---Pad19)*%
X101000000Y-86600000D03*
%TO.P,U7,20,BRW*%
%TO.N,GND*%
X101400000Y-86600000D03*
D25*
%TO.P,U7,21,EP*%
X100600000Y-85137500D03*
%TD*%
D26*
%TO.P,BOT,1,1*%
%TO.N,/TFT_RST*%
X126800000Y-86500000D03*
%TD*%
D14*
%TO.P,R7,1*%
%TO.N,Net-(U1-GPIO20{slash}U1CTS{slash}ADC2_CH9{slash}CLK_OUT1{slash}USB_D+)*%
X107000000Y-91400000D03*
%TO.P,R7,2*%
%TO.N,/DP*%
X109000000Y-91400000D03*
%TD*%
D27*
%TO.P,U1,1,GND*%
%TO.N,GND*%
X105250000Y-71490000D03*
%TO.P,U1,2,3V3*%
%TO.N,+3.3VP*%
X105250000Y-72760000D03*
%TO.P,U1,3,EN*%
%TO.N,Net-(U1-EN)*%
X105250000Y-74030000D03*
%TO.P,U1,4,GPIO4/TOUCH4/ADC1_CH3*%
%TO.N,/MAG_CSN*%
X105250000Y-75300000D03*
%TO.P,U1,5,GPIO5/TOUCH5/ADC1_CH4*%
%TO.N,/MAG_CLK*%
X105250000Y-76570000D03*
%TO.P,U1,6,GPIO6/TOUCH6/ADC1_CH5*%
%TO.N,/MAG_DO*%
X105250000Y-77840000D03*
%TO.P,U1,7,GPIO7/TOUCH7/ADC1_CH6*%
%TO.N,/TMC_VL*%
X105250000Y-79110000D03*
%TO.P,U1,8,GPIO15/U0RTS/ADC2_CH4/XTAL_32K_P*%
%TO.N,/TMC_WL*%
X105250000Y-80380000D03*
%TO.P,U1,9,GPIO16/U0CTS/ADC2_CH5/XTAL_32K_NH5*%
%TO.N,/TMC_UL*%
X105250000Y-81650000D03*
%TO.P,U1,10,GPIO17/U1TXD/ADC2_CH6*%
%TO.N,/TMC_WH*%
X105250000Y-82920000D03*
%TO.P,U1,11,GPIO18/U1RXD/ADC2_CH7/CLK_OUT3*%
%TO.N,/TMC_VH*%
X105250000Y-84190000D03*
%TO.P,U1,12,GPIO8/TOUCH8/ADC1_CH7/SUBSPICS1*%
%TO.N,/TMC_UH*%
X105250000Y-85460000D03*
%TO.P,U1,13,GPIO19/U1RTS/ADC2_CH8/CLK_OUT2/USB_D-*%
%TO.N,Net-(U1-GPIO19{slash}U1RTS{slash}ADC2_CH8{slash}CLK_OUT2{slash}USB_D-)*%
X105250000Y-86730000D03*
%TO.P,U1,14,GPIO20/U1CTS/ADC2_CH9/CLK_OUT1/USB_D+*%
%TO.N,Net-(U1-GPIO20{slash}U1CTS{slash}ADC2_CH9{slash}CLK_OUT1{slash}USB_D+)*%
X105250000Y-88000000D03*
D28*
%TO.P,U1,15,GPIO3/TOUCH3/ADC1_CH2*%
%TO.N,unconnected-(U1-GPIO3{slash}TOUCH3{slash}ADC1_CH2-Pad15)*%
X107015000Y-89250000D03*
%TO.P,U1,16,GPIO46*%
%TO.N,unconnected-(U1-GPIO46-Pad16)*%
X108285000Y-89250000D03*
%TO.P,U1,17,GPIO9/TOUCH9/ADC1_CH8/FSPIHD/SUBSPIHD*%
%TO.N,/SDA*%
X109555000Y-89250000D03*
%TO.P,U1,18,GPIO10/TOUCH10/ADC1_CH9/FSPICS0/FSPIIO4/SUBSPICS0*%
%TO.N,/SCL*%
X110825000Y-89250000D03*
%TO.P,U1,19,GPIO11/TOUCH11/ADC2_CH0/FSPICS0/FSPIIO4/SUBSPICS0*%
%TO.N,/INT_MP6050*%
X112095000Y-89250000D03*
%TO.P,U1,20,GPIO12/TOUCH11/ADC2_CH0/FSPICS0/FSPIIO4/SUBSPICS0*%
%TO.N,unconnected-(U1-GPIO12{slash}TOUCH11{slash}ADC2_CH0{slash}FSPICS0{slash}FSPIIO4{slash}SUBSPICS0-Pad20)*%
X113365000Y-89250000D03*
%TO.P,U1,21,GPIO13/TOUCH13/ADC2_CH2/FSPIQ/FSPIIO7/SUBSPIQ*%
%TO.N,unconnected-(U1-GPIO13{slash}TOUCH13{slash}ADC2_CH2{slash}FSPIQ{slash}FSPIIO7{slash}SUBSPIQ-Pad21)*%
X114635000Y-89250000D03*
%TO.P,U1,22,GPIO14/TOUCH14/ADC2_CH3/FSPIWP/FSPIDQS/SUBSPIWP*%
%TO.N,unconnected-(U1-GPIO14{slash}TOUCH14{slash}ADC2_CH3{slash}FSPIWP{slash}FSPIDQS{slash}SUBSPIWP-Pad22)*%
X115905000Y-89250000D03*
%TO.P,U1,23,GPIO21*%
%TO.N,Net-(U1-GPIO21)*%
X117175000Y-89250000D03*
%TO.P,U1,24,GPIO47/SPICLK_P/SUBSPICLK_P_DIFF*%
%TO.N,unconnected-(U1-GPIO47{slash}SPICLK_P{slash}SUBSPICLK_P_DIFF-Pad24)*%
X118445000Y-89250000D03*
%TO.P,U1,25,GPIO48/SPICLK_N/SUBSPICLK_N_DIFF*%
%TO.N,unconnected-(U1-GPIO48{slash}SPICLK_N{slash}SUBSPICLK_N_DIFF-Pad25)*%
X119715000Y-89250000D03*
%TO.P,U1,26,GPIO45*%
%TO.N,unconnected-(U1-GPIO45-Pad26)*%
X120985000Y-89250000D03*
D27*
%TO.P,U1,27,GPIO0/BOOT*%
%TO.N,/TFT_RST*%
X122750000Y-88000000D03*
%TO.P,U1,28,SPIIO6/GPIO35/FSPID/SUBSPID*%
%TO.N,/MOSI*%
X122750000Y-86730000D03*
%TO.P,U1,29,SPIIO7/GPIO36/FSPICLK/SUBSPICLK*%
%TO.N,/SCK*%
X122750000Y-85460000D03*
%TO.P,U1,30,SPIDQS/GPIO37/FSPIQ/SUBSPIQ*%
%TO.N,/TFT_CS*%
X122750000Y-84190000D03*
%TO.P,U1,31,GPIO38/FSPIWP/SUBSPIWP*%
%TO.N,/TFT_DC*%
X122750000Y-82920000D03*
%TO.P,U1,32,MTCK/GPIO39/CLK_OUT3/SUBSPICS1*%
%TO.N,/TFT2_CS*%
X122750000Y-81650000D03*
%TO.P,U1,33,MTDO/GPIO40/CLK_OUT2*%
%TO.N,/GPIO40*%
X122750000Y-80380000D03*
%TO.P,U1,34,MTDI/GPIO41/CLK_OUT1*%
%TO.N,/GPIO41*%
X122750000Y-79110000D03*
%TO.P,U1,35,MTMS/GPIO42*%
%TO.N,/SW_X*%
X122750000Y-77840000D03*
%TO.P,U1,36,U0RXD/GPIO44/CLK_OUT2*%
%TO.N,/GPIO44*%
X122750000Y-76570000D03*
%TO.P,U1,37,U0TXD/GPIO43/CLK_OUT1*%
%TO.N,/GPIO43*%
X122750000Y-75300000D03*
%TO.P,U1,38,GPIO2/TOUCH2/ADC1_CH1*%
%TO.N,/LED_WS2812*%
X122750000Y-74030000D03*
%TO.P,U1,39,GPIO1/TOUCH1/ADC1_CH0*%
%TO.N,/BLK*%
X122750000Y-72760000D03*
%TO.P,U1,40,GND*%
%TO.N,GND*%
X122750000Y-71490000D03*
%TD*%
D20*
%TO.P,C6,1*%
%TO.N,GND*%
X129600000Y-74837500D03*
%TO.P,C6,2*%
%TO.N,+3.3VP*%
X129600000Y-72762500D03*
%TD*%
D29*
%TO.P,R6,1*%
%TO.N,Net-(U3-CC2)*%
X123200000Y-93912500D03*
%TO.P,R6,2*%
%TO.N,GND*%
X123200000Y-92087500D03*
%TD*%
D22*
%TO.P,R4,1*%
%TO.N,Net-(U2-EN)*%
X100850000Y-79600000D03*
%TO.P,R4,2*%
%TO.N,+BATT*%
X98850000Y-79600000D03*
%TD*%
D30*
%TO.P,J4,1,Pin_1*%
%TO.N,+3.3VP*%
X134200000Y-75320000D03*
D31*
%TO.P,J4,2,Pin_2*%
%TO.N,+BATT*%
X134200000Y-72780000D03*
%TO.P,J4,3,Pin_3*%
%TO.N,Net-(D8-DOUT)*%
X134200000Y-70240000D03*
%TO.P,J4,4,Pin_4*%
%TO.N,GND*%
X134200000Y-67700000D03*
%TD*%
D11*
%TO.P,C2,1*%
%TO.N,GND*%
X97000000Y-77162500D03*
%TO.P,C2,2*%
%TO.N,+BATT*%
X97000000Y-79237500D03*
%TD*%
D32*
%TO.P,C4,1*%
%TO.N,GND*%
X100962500Y-72400000D03*
%TO.P,C4,2*%
%TO.N,+3.3VP*%
X103037500Y-72400000D03*
%TD*%
D33*
%TO.P,Ur1,1,SDA*%
%TO.N,/MAG_DO*%
X113029202Y-77301466D03*
D34*
%TO.P,Ur1,2,VDD*%
%TO.N,+3.3VP*%
X117899712Y-79572620D03*
%TO.P,Ur1,3,GND*%
%TO.N,GND*%
X116943435Y-81623360D03*
%TO.P,Ur1,4,SCL*%
%TO.N,/MAG_CLK*%
X112072927Y-79352205D03*
%TD*%
D30*
%TO.P,J1,1,Pin_1*%
%TO.N,+3.3VP*%
X126600000Y-70650000D03*
D31*
%TO.P,J1,2,Pin_2*%
%TO.N,GND*%
X126600000Y-73190000D03*
%TO.P,J1,3,Pin_3*%
%TO.N,/GPIO43*%
X126600000Y-75730000D03*
%TO.P,J1,4,Pin_4*%
%TO.N,/GPIO44*%
X126600000Y-78270000D03*
%TO.P,J1,5,Pin_5*%
%TO.N,/GPIO41*%
X126600000Y-80810000D03*
%TO.P,J1,6,Pin_6*%
%TO.N,/GPIO40*%
X126600000Y-83350000D03*
%TD*%
D35*
%TO.P,SW2,SH*%
%TO.N,N/C*%
X122036353Y-64432289D03*
X125596029Y-67018545D03*
%TD*%
D36*
%TO.P,J2,1,Pin_1*%
%TO.N,/BLDC_U*%
X101403949Y-89814555D03*
D37*
%TO.P,J2,2,Pin_2*%
%TO.N,/BLDC_V*%
X103200000Y-91610606D03*
%TO.P,J2,3,Pin_3*%
%TO.N,/BLDC_W*%
X104996051Y-93406657D03*
%TD*%
D38*
%TO.N,*%
X114000000Y-79800000D03*
D39*
%TO.N,/SW_X*%
X121676132Y-77400935D03*
%TO.N,Net-(U1-EN)*%
X103115634Y-78500000D03*
%TO.N,GND*%
X121400000Y-87700000D03*
X129800000Y-76500000D03*
X97600000Y-74800000D03*
X131700000Y-80800000D03*
X109000000Y-84800000D03*
D40*
X102800000Y-68600000D03*
D39*
X119200000Y-85200000D03*
D41*
X132000000Y-61000000D03*
D39*
X121200000Y-82400000D03*
X112700000Y-83100000D03*
X121400000Y-71700000D03*
D41*
X96000000Y-98000000D03*
D39*
X122000000Y-71000000D03*
X110100000Y-83600000D03*
X101000000Y-84600000D03*
X100075735Y-80675735D03*
X102200000Y-87600000D03*
X114450000Y-71350000D03*
D41*
X132000000Y-98000000D03*
D39*
X117094669Y-86355331D03*
D40*
X125600000Y-90600000D03*
D39*
X96600000Y-80600000D03*
X133800000Y-90400000D03*
X98233482Y-85737500D03*
D42*
X120100000Y-78500000D03*
D41*
X96000000Y-61000000D03*
D39*
X100000000Y-76200000D03*
X111400000Y-71000000D03*
X100074265Y-88825735D03*
X107925000Y-79550000D03*
X129300000Y-86900000D03*
%TO.N,+3.3VP*%
X120126799Y-81714579D03*
X110887136Y-82877427D03*
X101800000Y-74600000D03*
X129370821Y-87835410D03*
X129800000Y-80000000D03*
X109000000Y-76600000D03*
%TO.N,+5VD*%
X114349998Y-91577500D03*
X119149998Y-91577500D03*
%TO.N,+BATT*%
X134600000Y-92400000D03*
X98925000Y-81200000D03*
%TO.N,/SDA*%
X107800000Y-88000000D03*
%TO.N,/LEDK*%
X128100000Y-78500000D03*
%TO.N,/BLK*%
X119400000Y-77000000D03*
%TO.N,/TFT_DC*%
X128000000Y-82100000D03*
X120687851Y-83014579D03*
%TO.N,/TFT_CS*%
X121205412Y-83650000D03*
%TO.N,/SCK*%
X120700000Y-84300000D03*
X129800000Y-83500000D03*
%TO.N,/MOSI*%
X121600000Y-86700000D03*
X124000002Y-84450000D03*
%TO.N,Net-(U5-~{RESET})*%
X124400000Y-86800000D03*
%TO.N,/MAG_DO*%
X109000000Y-78600000D03*
%TO.N,/MAG_CLK*%
X107150331Y-77849669D03*
%TO.N,/MAG_CSN*%
X111400000Y-77000000D03*
%TO.N,Net-(U7-VCP)*%
X103325000Y-85737500D03*
%TO.N,/SCL*%
X107900000Y-86200000D03*
%TO.N,/LED_WS2812*%
X122750000Y-74030000D03*
%TO.N,/INT_MP6050*%
X111500000Y-85000000D03*
%TO.N,Net-(JP1-A)*%
X101150765Y-87503229D03*
%TO.N,/LEDA*%
X125131136Y-79498278D03*
%TO.N,Net-(U1-GPIO21)*%
X119300000Y-86900000D03*
%TD*%
D43*
%TO.N,/SW_X*%
X122115197Y-77840000D02*
X121676132Y-77400935D01*
D44*
%TO.N,Net-(U1-EN)*%
X104000000Y-75000000D02*
X102800000Y-76200000D01*
X105250000Y-74030000D02*
X104620000Y-74030000D01*
X104000000Y-74650000D02*
X104000000Y-75000000D01*
X104620000Y-74030000D02*
X104000000Y-74650000D01*
D45*
X102800000Y-78162500D02*
X103200000Y-78562500D01*
X102800000Y-76800000D02*
X102800000Y-78162500D01*
D43*
X103200000Y-77000000D02*
X102600000Y-77600000D01*
D44*
X102800000Y-76200000D02*
X102800000Y-76400000D01*
D43*
%TO.N,GND*%
X99800000Y-87700000D02*
X99800000Y-88551470D01*
D44*
X98688738Y-76525000D02*
X98813738Y-76400000D01*
D46*
X120100000Y-91577500D02*
X120100000Y-91670500D01*
D43*
X98433482Y-85537500D02*
X98233482Y-85737500D01*
D45*
X116943435Y-81623360D02*
X118125000Y-82804925D01*
D43*
X100600000Y-83675000D02*
X100600000Y-82837500D01*
X108300000Y-93500000D02*
X109300000Y-92500000D01*
X100200000Y-83237500D02*
X100600000Y-82837500D01*
D44*
X110100000Y-83600000D02*
X112200000Y-83600000D01*
X102200000Y-87250000D02*
X101550000Y-86600000D01*
X109150000Y-84650000D02*
X109000000Y-84800000D01*
D43*
X109300000Y-92500000D02*
X112279500Y-92500000D01*
X112279500Y-92500000D02*
X112425000Y-92645500D01*
X99950000Y-80550000D02*
X100075735Y-80675735D01*
X99800000Y-87700000D02*
X99800000Y-88200000D01*
D45*
X118125000Y-82804925D02*
X118125000Y-84125000D01*
D43*
X100600000Y-83675000D02*
X100600000Y-84200000D01*
D46*
X124900000Y-71490000D02*
X122750000Y-71490000D01*
X123200000Y-92087500D02*
X121633000Y-92087500D01*
D45*
X118125000Y-84125000D02*
X119200000Y-85200000D01*
D43*
X99950000Y-77587500D02*
X99950000Y-80550000D01*
X100200000Y-83675000D02*
X100200000Y-83237500D01*
D44*
X121200000Y-82400000D02*
X121164579Y-82364579D01*
D43*
X97600000Y-75436262D02*
X97600000Y-74800000D01*
D44*
X121164579Y-82364579D02*
X117684654Y-82364579D01*
X109150000Y-80775000D02*
X109150000Y-84650000D01*
D43*
X98688738Y-76525000D02*
X97600000Y-75436262D01*
D46*
X120100000Y-91670500D02*
X121075000Y-92645500D01*
X126600000Y-73190000D02*
X124900000Y-71490000D01*
D44*
X117684654Y-82364579D02*
X116943435Y-81623360D01*
D43*
X100600000Y-84200000D02*
X101000000Y-84600000D01*
D45*
X122750000Y-71490000D02*
X123580000Y-71490000D01*
D44*
X102200000Y-87600000D02*
X102200000Y-87250000D01*
D43*
X100600000Y-82837500D02*
X103200000Y-80237500D01*
D44*
X112200000Y-83600000D02*
X112700000Y-83100000D01*
D43*
X99800000Y-88551470D02*
X100074265Y-88825735D01*
D44*
X129700000Y-85700000D02*
X129800000Y-85600000D01*
D43*
X99137500Y-85537500D02*
X98433482Y-85537500D01*
D44*
X99800000Y-76400000D02*
X100000000Y-76200000D01*
X107925000Y-79550000D02*
X109150000Y-80775000D01*
X129300000Y-86900000D02*
X129700000Y-86500000D01*
D46*
X121633000Y-92087500D02*
X121075000Y-92645500D01*
D44*
X98813738Y-76400000D02*
X99800000Y-76400000D01*
X129700000Y-86500000D02*
X129700000Y-85700000D01*
D43*
X99800000Y-86600000D02*
X99800000Y-87700000D01*
D44*
X97037500Y-77200000D02*
X98013738Y-77200000D01*
D46*
X112425000Y-92552500D02*
X113400000Y-91577500D01*
X99600000Y-72800000D02*
X97600000Y-74800000D01*
D44*
X98013738Y-77200000D02*
X98688738Y-76525000D01*
D43*
X99800000Y-88200000D02*
X100000000Y-88400000D01*
D46*
X100962500Y-72800000D02*
X99600000Y-72800000D01*
D45*
%TO.N,Net-(U2-EN)*%
X100950000Y-77537500D02*
X100950000Y-79550000D01*
D44*
%TO.N,/DP*%
X116550000Y-90577500D02*
X116500000Y-90627500D01*
X116450000Y-90577500D02*
X109800000Y-90577500D01*
X117500000Y-90577500D02*
X116550000Y-90577500D01*
X116500000Y-90627500D02*
X116450000Y-90577500D01*
X117500000Y-91577500D02*
X117500000Y-90577500D01*
X116500000Y-90627500D02*
X116500000Y-91577500D01*
X109800000Y-90577500D02*
X108777500Y-91600000D01*
D45*
%TO.N,+3.3VP*%
X131492665Y-77639266D02*
X131489861Y-77539210D01*
X131050000Y-74312500D02*
X131050000Y-75050000D01*
D43*
X101200430Y-80834315D02*
X101775000Y-80259744D01*
D45*
X103200000Y-74000000D02*
X103000000Y-74000000D01*
X131320000Y-75320000D02*
X134200000Y-75320000D01*
D43*
X99400000Y-84075000D02*
X99400000Y-82834314D01*
D45*
X131454884Y-79997145D02*
X131500000Y-79952029D01*
X131500000Y-77646601D02*
X131492665Y-77639266D01*
D43*
X99137500Y-84337500D02*
X99400000Y-84075000D01*
D45*
X131050000Y-75050000D02*
X131320000Y-75320000D01*
X131500000Y-75500000D02*
X131050000Y-75050000D01*
X126600000Y-70650000D02*
X127750000Y-70650000D01*
D43*
X101775000Y-74625000D02*
X101800000Y-74600000D01*
D45*
X129800000Y-73062500D02*
X131050000Y-74312500D01*
D43*
X99400000Y-82834314D02*
X101200430Y-81033884D01*
D45*
X105250000Y-72760000D02*
X103077500Y-72760000D01*
X100312500Y-74000000D02*
X99050000Y-75262500D01*
X109750000Y-81740291D02*
X109750000Y-77350000D01*
X131489861Y-77539210D02*
X131445327Y-77344117D01*
X131500000Y-79952029D02*
X131500000Y-77646601D01*
X103200000Y-74000000D02*
X103200000Y-72962500D01*
X110887136Y-82877427D02*
X109750000Y-81740291D01*
D43*
X101200430Y-81033884D02*
X101200430Y-80834315D01*
D45*
X129800000Y-72700000D02*
X129800000Y-73062500D01*
D44*
X117899712Y-79572620D02*
X120041671Y-81714579D01*
D43*
X101775000Y-80259744D02*
X101775000Y-74625000D01*
D45*
X127750000Y-70650000D02*
X129800000Y-72700000D01*
D46*
X101800000Y-74600000D02*
X102400000Y-74000000D01*
D45*
X131425000Y-80000000D02*
X131454884Y-79997145D01*
X109750000Y-77350000D02*
X109000000Y-76600000D01*
D44*
X120041671Y-81714579D02*
X120126799Y-81714579D01*
D45*
X131425000Y-80000000D02*
X131500000Y-79925000D01*
X131500000Y-79925000D02*
X131500000Y-75500000D01*
X129800000Y-80000000D02*
X131425000Y-80000000D01*
X103000000Y-74000000D02*
X100312500Y-74000000D01*
D46*
%TO.N,Net-(U1-GPIO20{slash}U1CTS{slash}ADC2_CH9{slash}CLK_OUT1{slash}USB_D+)*%
X105250000Y-88000000D02*
X105250000Y-89485000D01*
X107000000Y-91235000D02*
X107000000Y-91400000D01*
X105250000Y-89485000D02*
X107000000Y-91235000D01*
D44*
%TO.N,/DN*%
X115788750Y-92788750D02*
X115788750Y-92911250D01*
X112100000Y-94600000D02*
X111300000Y-95400000D01*
X116000000Y-92577500D02*
X116000000Y-91577500D01*
D43*
X109800000Y-95400000D02*
X110000000Y-95400000D01*
D44*
X117000000Y-91577500D02*
X117000000Y-92577500D01*
X111300000Y-95400000D02*
X109800000Y-95400000D01*
X117000000Y-92577500D02*
X116788750Y-92788750D01*
X114100000Y-94600000D02*
X112100000Y-94600000D01*
X115888750Y-92688750D02*
X116000000Y-92577500D01*
X115788750Y-92788750D02*
X115888750Y-92688750D01*
X115788750Y-92911250D02*
X114100000Y-94600000D01*
X116788750Y-92788750D02*
X115788750Y-92788750D01*
D43*
X115888750Y-92697741D02*
X115888750Y-92688750D01*
%TO.N,Net-(U1-GPIO19{slash}U1RTS{slash}ADC2_CH8{slash}CLK_OUT2{slash}USB_D-)*%
X107800000Y-95400000D02*
X107800000Y-94984744D01*
X103800000Y-87230000D02*
X104300000Y-86730000D01*
X107800000Y-94984744D02*
X107200000Y-94384744D01*
X107200000Y-94384744D02*
X107200000Y-93784744D01*
X105396051Y-91980795D02*
X105396051Y-90396051D01*
X107200000Y-93784744D02*
X105396051Y-91980795D01*
X104300000Y-86730000D02*
X105250000Y-86730000D01*
X105396051Y-90396051D02*
X103800000Y-88800000D01*
X103800000Y-88800000D02*
X103800000Y-87230000D01*
D44*
%TO.N,+5VD*%
X114200000Y-91577500D02*
X114349998Y-91577500D01*
D43*
%TO.N,Net-(U3-CC2)*%
X119879195Y-94400000D02*
X118500000Y-93020805D01*
X123200000Y-93912500D02*
X122712500Y-94400000D01*
X118500000Y-93020805D02*
X118500000Y-91577500D01*
X122712500Y-94400000D02*
X119879195Y-94400000D01*
%TO.N,Net-(U3-CC1)*%
X111233000Y-93945500D02*
X110600000Y-93312500D01*
X115500000Y-92441104D02*
X114575000Y-93366104D01*
X114075305Y-93945500D02*
X111233000Y-93945500D01*
X114575000Y-93445805D02*
X114075305Y-93945500D01*
X115500000Y-91577500D02*
X115500000Y-92441104D01*
X114575000Y-93366104D02*
X114575000Y-93445805D01*
D45*
%TO.N,/GPIO43*%
X124070000Y-75730000D02*
X126600000Y-75730000D01*
X123640000Y-75300000D02*
X124070000Y-75730000D01*
X122750000Y-75300000D02*
X123640000Y-75300000D01*
D46*
%TO.N,/GPIO44*%
X125280000Y-78270000D02*
X126600000Y-78270000D01*
X124600000Y-77590000D02*
X125280000Y-78270000D01*
D45*
X122750000Y-76570000D02*
X123580000Y-76570000D01*
X123580000Y-76570000D02*
X124600000Y-77590000D01*
%TO.N,/GPIO40*%
X123630000Y-80380000D02*
X122750000Y-80380000D01*
X126350000Y-83600000D02*
X126600000Y-83350000D01*
X126600000Y-83350000D02*
X123630000Y-80380000D01*
D46*
%TO.N,+BATT*%
X134200000Y-72780000D02*
X135450000Y-74030000D01*
X97000000Y-79637500D02*
X98962500Y-79637500D01*
X135450000Y-91550000D02*
X134600000Y-92400000D01*
D45*
X98925000Y-81200000D02*
X98925000Y-79675000D01*
D46*
X135450000Y-74030000D02*
X135450000Y-91550000D01*
D45*
X99050000Y-77537500D02*
X99050000Y-79550000D01*
D44*
%TO.N,/SDA*%
X108942483Y-88007483D02*
X109555000Y-88620000D01*
X107748810Y-88007483D02*
X108942483Y-88007483D01*
X109555000Y-88620000D02*
X109555000Y-89250000D01*
D46*
%TO.N,/LEDK*%
X129800000Y-78600000D02*
X128200000Y-78600000D01*
X128200000Y-78600000D02*
X128100000Y-78500000D01*
D43*
%TO.N,/BLK*%
X120000000Y-76400000D02*
X119400000Y-77000000D01*
X120000000Y-74560000D02*
X120000000Y-76400000D01*
X122750000Y-72760000D02*
X121800000Y-72760000D01*
X121800000Y-72760000D02*
X120000000Y-74560000D01*
D44*
%TO.N,/TFT_DC*%
X122445000Y-83225000D02*
X122750000Y-82920000D01*
D47*
X120687851Y-83014579D02*
X120930695Y-83014579D01*
X120941116Y-83025000D02*
X122645000Y-83025000D01*
X120930695Y-83014579D02*
X120941116Y-83025000D01*
X122645000Y-83025000D02*
X122750000Y-82920000D01*
D44*
X129800000Y-82100000D02*
X128000000Y-82100000D01*
D47*
%TO.N,/TFT_CS*%
X121205412Y-83650000D02*
X121755412Y-84200000D01*
X121755412Y-84200000D02*
X122740000Y-84200000D01*
%TO.N,/SCK*%
X121860000Y-85460000D02*
X122750000Y-85460000D01*
X120700000Y-84300000D02*
X121860000Y-85460000D01*
D44*
%TO.N,/MOSI*%
X124600002Y-85050000D02*
X124000002Y-84450000D01*
X128250000Y-84200000D02*
X127400000Y-85050000D01*
X129800000Y-84200000D02*
X128250000Y-84200000D01*
X121600000Y-86700000D02*
X122720000Y-86700000D01*
X127400000Y-85050000D02*
X124600002Y-85050000D01*
X122720000Y-86700000D02*
X122750000Y-86730000D01*
D45*
%TO.N,/TFT_RST*%
X128398528Y-84900000D02*
X127000000Y-86298528D01*
X129800000Y-84900000D02*
X128398528Y-84900000D01*
X122845590Y-87904410D02*
X127000000Y-87904410D01*
X127000000Y-86298528D02*
X127000000Y-87904410D01*
%TO.N,/MAG_DO*%
X106080000Y-77840000D02*
X105250000Y-77840000D01*
X109000000Y-78600000D02*
X108800000Y-78800000D01*
D44*
X111019239Y-77700000D02*
X112630669Y-77700000D01*
D45*
X107040000Y-78800000D02*
X106080000Y-77840000D01*
D44*
X108730761Y-75950000D02*
X109269239Y-75950000D01*
D45*
X108800000Y-78800000D02*
X107040000Y-78800000D01*
D44*
X109000000Y-78600000D02*
X108350000Y-77950000D01*
X108350000Y-77950000D02*
X108350000Y-76330761D01*
X108350000Y-76330761D02*
X108730761Y-75950000D01*
X112630669Y-77700000D02*
X113029203Y-77301466D01*
X109269239Y-75950000D02*
X111019239Y-77700000D01*
D45*
%TO.N,/MAG_CLK*%
X105870662Y-76570000D02*
X107150331Y-77849669D01*
X105250000Y-76570000D02*
X105870662Y-76570000D01*
%TO.N,/MAG_CSN*%
X105250000Y-75300000D02*
X110560661Y-75300000D01*
X110560661Y-75300000D02*
X111400000Y-76139339D01*
X111400000Y-76139339D02*
X111400000Y-77000000D01*
D43*
%TO.N,Net-(U7-1.8VOUT)*%
X99137500Y-85137500D02*
X97737500Y-85137500D01*
X97737500Y-85137500D02*
X97000000Y-84400000D01*
X97000000Y-84400000D02*
X97000000Y-83437500D01*
%TO.N,Net-(U7-VCP)*%
X102062500Y-85537500D02*
X103125000Y-85537500D01*
X103125000Y-85537500D02*
X103325000Y-85737500D01*
%TO.N,/BLDC_U*%
X99137500Y-85937500D02*
X99137500Y-88737500D01*
X99137500Y-88737500D02*
X100214555Y-89814555D01*
X100214555Y-89814555D02*
X101403949Y-89814555D01*
%TO.N,/TMC_UL*%
X103075000Y-81725000D02*
X104075429Y-81725000D01*
X101400000Y-83400000D02*
X103075000Y-81725000D01*
X104150429Y-81650000D02*
X105250000Y-81650000D01*
X104075429Y-81725000D02*
X104150429Y-81650000D01*
%TO.N,/TMC_UH*%
X104927500Y-85137500D02*
X102062500Y-85137500D01*
%TO.N,/TMC_WL*%
X104820000Y-80380000D02*
X104225000Y-80975000D01*
X103909744Y-81325000D02*
X102841140Y-81325000D01*
X101000000Y-83675000D02*
X101000000Y-83166140D01*
X101000000Y-83166140D02*
X102841140Y-81325000D01*
X104225000Y-80975000D02*
X104225000Y-81009744D01*
X104225000Y-81009744D02*
X103909744Y-81325000D01*
%TO.N,/TMC_WH*%
X103680000Y-82920000D02*
X105250000Y-82920000D01*
X102262500Y-84337500D02*
X103680000Y-82920000D01*
%TO.N,/BLDC_V*%
X103200000Y-89984260D02*
X103200000Y-91610606D01*
X100200000Y-87600000D02*
X100912473Y-88312473D01*
X100912473Y-88312473D02*
X101528213Y-88312473D01*
X101528213Y-88312473D02*
X103200000Y-89984260D01*
X100200000Y-86600000D02*
X100200000Y-87600000D01*
%TO.N,/TMC_VH*%
X104200000Y-84737500D02*
X104747500Y-84190000D01*
X102062500Y-84737500D02*
X104200000Y-84737500D01*
%TO.N,/TMC_VL*%
X99800000Y-83000000D02*
X101600430Y-81199570D01*
X99800000Y-83675000D02*
X99800000Y-83000000D01*
X101600430Y-81000000D02*
X102175000Y-80425430D01*
X102175000Y-80425430D02*
X102175000Y-79647183D01*
X102572183Y-79250000D02*
X105110000Y-79250000D01*
X101600430Y-81199570D02*
X101600430Y-81000000D01*
X102175000Y-79647183D02*
X102572183Y-79250000D01*
%TO.N,/TMC_DIAG*%
X98400000Y-84508860D02*
X98400000Y-82800000D01*
X98628640Y-84737500D02*
X98400000Y-84508860D01*
X98400000Y-82800000D02*
X98600000Y-82600000D01*
X99137500Y-84737500D02*
X98628640Y-84737500D01*
%TO.N,/BLDC_W*%
X104996051Y-91214625D02*
X104996051Y-93406657D01*
X102062500Y-85937500D02*
X102800000Y-86675000D01*
X102800000Y-89018574D02*
X104996051Y-91214625D01*
X102800000Y-86675000D02*
X102800000Y-89018574D01*
D44*
%TO.N,/SCL*%
X110355000Y-88150000D02*
X110825000Y-88620000D01*
X110825000Y-88620000D02*
X110825000Y-89250000D01*
X107900000Y-86200000D02*
X107900000Y-86257894D01*
X109792106Y-88150000D02*
X110355000Y-88150000D01*
X107900000Y-86257894D02*
X109792106Y-88150000D01*
%TO.N,/INT_MP6050*%
X111500000Y-85000000D02*
X112095000Y-85595000D01*
X112095000Y-85595000D02*
X112095000Y-89250000D01*
D43*
%TO.N,Net-(JP1-A)*%
X100994369Y-87503229D02*
X101150765Y-87503229D01*
X100600000Y-87108860D02*
X100994369Y-87503229D01*
X100600000Y-86600000D02*
X100600000Y-87108860D01*
D46*
%TO.N,/LEDA*%
X127117767Y-79520000D02*
X127337767Y-79300000D01*
X125131136Y-79498278D02*
X125152858Y-79520000D01*
X125152858Y-79520000D02*
X127117767Y-79520000D01*
X127337767Y-79300000D02*
X129800000Y-79300000D01*
D45*
%TO.N,/GPIO41*%
X126600000Y-80810000D02*
X125280000Y-80810000D01*
D46*
X126170000Y-80380000D02*
X126600000Y-80810000D01*
D45*
X125280000Y-80810000D02*
X123580000Y-79110000D01*
D43*
X123147818Y-79110000D02*
X122750000Y-79110000D01*
D45*
X123580000Y-79110000D02*
X122750000Y-79110000D01*
D44*
%TO.N,/TFT2_CS*%
X124300000Y-83800000D02*
X125050000Y-84550000D01*
X125050000Y-84550000D02*
X127097057Y-84550000D01*
X128250000Y-82800000D02*
X129800000Y-82800000D01*
X127097057Y-84550000D02*
X128073528Y-83573528D01*
X128073528Y-83573528D02*
X128073528Y-82976472D01*
X124300000Y-82150000D02*
X123800000Y-81650000D01*
X128073528Y-82976472D02*
X128250000Y-82800000D01*
X123800000Y-81650000D02*
X122750000Y-81650000D01*
X124300000Y-83800000D02*
X124300000Y-82150000D01*
%TO.N,Net-(U1-GPIO21)*%
X117175000Y-88200000D02*
X118475000Y-86900000D01*
X117175000Y-89250000D02*
X117175000Y-88200000D01*
X118475000Y-86900000D02*
X119300000Y-86900000D01*
%TD*%
%TA.AperFunction,Conductor*%
%TO.N,GND*%
G36*
X104876388Y-58156050D02*
G01*
X104943363Y-58175941D01*
X104988954Y-58228887D01*
X105000000Y-58280048D01*
X105000000Y-70000000D01*
X123000000Y-70000000D01*
X123000000Y-64324540D01*
X123019685Y-64257501D01*
X123072489Y-64211746D01*
X123141647Y-64201802D01*
X123189106Y-64219007D01*
X123295824Y-64284847D01*
X123800380Y-64596135D01*
X123805152Y-64599233D01*
X124115236Y-64810771D01*
X124481530Y-65060656D01*
X124482869Y-65061569D01*
X124487487Y-65064876D01*
X124727478Y-65245269D01*
X125143326Y-65557848D01*
X125147794Y-65561370D01*
X125770522Y-66075803D01*
X125809670Y-66133676D01*
X125811315Y-66203526D01*
X125774935Y-66263177D01*
X125712080Y-66293690D01*
X125673601Y-66293113D01*
X125673549Y-66293642D01*
X125667487Y-66293045D01*
X125667484Y-66293045D01*
X125524574Y-66293045D01*
X125524572Y-66293045D01*
X125384414Y-66320924D01*
X125384408Y-66320926D01*
X125252378Y-66375614D01*
X125252369Y-66375619D01*
X125133550Y-66455012D01*
X125133546Y-66455015D01*
X125032499Y-66556062D01*
X125032496Y-66556066D01*
X124953103Y-66674885D01*
X124953098Y-66674894D01*
X124898410Y-66806924D01*
X124898408Y-66806930D01*
X124870529Y-66947087D01*
X124870529Y-66947088D01*
X124870529Y-66947090D01*
X124870529Y-67090000D01*
X124870529Y-67090002D01*
X124870528Y-67090002D01*
X124898408Y-67230159D01*
X124898410Y-67230165D01*
X124953098Y-67362195D01*
X124953103Y-67362204D01*
X125032496Y-67481023D01*
X125032499Y-67481027D01*
X125133546Y-67582074D01*
X125133550Y-67582077D01*
X125252369Y-67661470D01*
X125252375Y-67661473D01*
X125252376Y-67661474D01*
X125384409Y-67716164D01*
X125384413Y-67716164D01*
X125384414Y-67716165D01*
X125524571Y-67744045D01*
X125524574Y-67744045D01*
X125667486Y-67744045D01*
X125761780Y-67725287D01*
X125807649Y-67716164D01*
X125939682Y-67661474D01*
X126058508Y-67582077D01*
X126159561Y-67481024D01*
X126238958Y-67362198D01*
X126293648Y-67230165D01*
X126321529Y-67090000D01*
X126321529Y-66947090D01*
X126321528Y-66947087D01*
X126315710Y-66917839D01*
X126306816Y-66873124D01*
X126313043Y-66803535D01*
X126355905Y-66748357D01*
X126421794Y-66725112D01*
X126489791Y-66741179D01*
X126515836Y-66760975D01*
X126978587Y-67220799D01*
X126982529Y-67224901D01*
X127189175Y-67450000D01*
X127383314Y-67661475D01*
X127537337Y-67829251D01*
X127541088Y-67833529D01*
X128067620Y-68462729D01*
X128071170Y-68467175D01*
X128568265Y-69119838D01*
X128571608Y-69124442D01*
X129038267Y-69799257D01*
X129041394Y-69804010D01*
X129308082Y-70230201D01*
X129443075Y-70445932D01*
X129476577Y-70499470D01*
X129479478Y-70504352D01*
X129619546Y-70752860D01*
X129882326Y-71219086D01*
X129885005Y-71224105D01*
X129973410Y-71399284D01*
X130171252Y-71791322D01*
X130172924Y-71794634D01*
X130185554Y-71863353D01*
X130159027Y-71927991D01*
X130101765Y-71968026D01*
X130062222Y-71974500D01*
X129762966Y-71974500D01*
X129695927Y-71954815D01*
X129675285Y-71938181D01*
X128026616Y-70289513D01*
X128026614Y-70289511D01*
X127975250Y-70259856D01*
X127923888Y-70230201D01*
X127911780Y-70226957D01*
X127899673Y-70223713D01*
X127899670Y-70223712D01*
X127861478Y-70213478D01*
X127809309Y-70199500D01*
X127809308Y-70199500D01*
X127774500Y-70199500D01*
X127707461Y-70179815D01*
X127661706Y-70127011D01*
X127650500Y-70075500D01*
X127650500Y-69780249D01*
X127650499Y-69780247D01*
X127638868Y-69721770D01*
X127638867Y-69721769D01*
X127594552Y-69655447D01*
X127528230Y-69611132D01*
X127528229Y-69611131D01*
X127469752Y-69599500D01*
X127469748Y-69599500D01*
X125730252Y-69599500D01*
X125730247Y-69599500D01*
X125671770Y-69611131D01*
X125671769Y-69611132D01*
X125605447Y-69655447D01*
X125561132Y-69721769D01*
X125561131Y-69721770D01*
X125549500Y-69780247D01*
X125549500Y-71519752D01*
X125561131Y-71578229D01*
X125561132Y-71578230D01*
X125605447Y-71644552D01*
X125671769Y-71688867D01*
X125671770Y-71688868D01*
X125730247Y-71700499D01*
X125730250Y-71700500D01*
X126040543Y-71700500D01*
X126107582Y-71720185D01*
X126153337Y-71772989D01*
X126163281Y-71842147D01*
X126134256Y-71905703D01*
X126092948Y-71936882D01*
X125922422Y-72016399D01*
X125922420Y-72016400D01*
X125728926Y-72151886D01*
X125728920Y-72151891D01*
X125561891Y-72318920D01*
X125561886Y-72318926D01*
X125426400Y-72512420D01*
X125426399Y-72512422D01*
X125326570Y-72726507D01*
X125326567Y-72726513D01*
X125269364Y-72939999D01*
X125269364Y-72940000D01*
X126166988Y-72940000D01*
X126134075Y-72997007D01*
X126100000Y-73124174D01*
X126100000Y-73255826D01*
X126134075Y-73382993D01*
X126166988Y-73440000D01*
X125269364Y-73440000D01*
X125326567Y-73653486D01*
X125326570Y-73653492D01*
X125426399Y-73867578D01*
X125561894Y-74061082D01*
X125728917Y-74228105D01*
X125922421Y-74363600D01*
X126136507Y-74463429D01*
X126136516Y-74463433D01*
X126258649Y-74496158D01*
X126318310Y-74532523D01*
X126348839Y-74595369D01*
X126340545Y-74664745D01*
X126296059Y-74718623D01*
X126262552Y-74734593D01*
X126196046Y-74754767D01*
X126087965Y-74812539D01*
X126013550Y-74852315D01*
X126013548Y-74852316D01*
X126013547Y-74852317D01*
X125853589Y-74983589D01*
X125722315Y-75143549D01*
X125722311Y-75143555D01*
X125684683Y-75213953D01*
X125635721Y-75263797D01*
X125575325Y-75279500D01*
X124307966Y-75279500D01*
X124240927Y-75259815D01*
X124220285Y-75243181D01*
X123916616Y-74939513D01*
X123916614Y-74939511D01*
X123813887Y-74880201D01*
X123788404Y-74873373D01*
X123788402Y-74873372D01*
X123788397Y-74873369D01*
X123788397Y-74873371D01*
X123779084Y-74870875D01*
X123719426Y-74834506D01*
X123689567Y-74775288D01*
X123688867Y-74771768D01*
X123663558Y-74733892D01*
X123642679Y-74667215D01*
X123661163Y-74599835D01*
X123663558Y-74596108D01*
X123688867Y-74558231D01*
X123688868Y-74558229D01*
X123700499Y-74499752D01*
X123700500Y-74499750D01*
X123700500Y-73560249D01*
X123700499Y-73560247D01*
X123688868Y-73501770D01*
X123688867Y-73501768D01*
X123663558Y-73463892D01*
X123642679Y-73397215D01*
X123661163Y-73329835D01*
X123663558Y-73326108D01*
X123688867Y-73288231D01*
X123688868Y-73288229D01*
X123700499Y-73229752D01*
X123700500Y-73229750D01*
X123700500Y-72476556D01*
X123720185Y-72409517D01*
X123750189Y-72377290D01*
X123857187Y-72297190D01*
X123857190Y-72297187D01*
X123943350Y-72182093D01*
X123943354Y-72182086D01*
X123993596Y-72047379D01*
X123993598Y-72047372D01*
X123999999Y-71987844D01*
X124000000Y-71987827D01*
X124000000Y-71740000D01*
X121500000Y-71740000D01*
X121500000Y-71987844D01*
X121506401Y-72047372D01*
X121506403Y-72047379D01*
X121556645Y-72182086D01*
X121556649Y-72182093D01*
X121642809Y-72297187D01*
X121648111Y-72301156D01*
X121689983Y-72357089D01*
X121694969Y-72426780D01*
X121661484Y-72488104D01*
X121635814Y-72507804D01*
X121628562Y-72511992D01*
X121628549Y-72512000D01*
X121615490Y-72519539D01*
X121615487Y-72519541D01*
X119759541Y-74375487D01*
X119759535Y-74375495D01*
X119719982Y-74444004D01*
X119719979Y-74444009D01*
X119713633Y-74467694D01*
X119705044Y-74499750D01*
X119699500Y-74520439D01*
X119699500Y-76224166D01*
X119679815Y-76291205D01*
X119663181Y-76311847D01*
X119511847Y-76463181D01*
X119450524Y-76496666D01*
X119424166Y-76499500D01*
X119328036Y-76499500D01*
X119189949Y-76540045D01*
X119068873Y-76617856D01*
X119068872Y-76617856D01*
X119068872Y-76617857D01*
X119061379Y-76626504D01*
X118974623Y-76726626D01*
X118974622Y-76726628D01*
X118914834Y-76857543D01*
X118894353Y-77000000D01*
X118914834Y-77142456D01*
X118973159Y-77270167D01*
X118974623Y-77273373D01*
X119068872Y-77382143D01*
X119189947Y-77459953D01*
X119189950Y-77459954D01*
X119189949Y-77459954D01*
X119268142Y-77482913D01*
X119327303Y-77500284D01*
X119328036Y-77500499D01*
X119328038Y-77500500D01*
X119328039Y-77500500D01*
X119471962Y-77500500D01*
X119471962Y-77500499D01*
X119610053Y-77459953D01*
X119731128Y-77382143D01*
X119825377Y-77273373D01*
X119885165Y-77142457D01*
X119905647Y-77000000D01*
X119904339Y-76990905D01*
X119914279Y-76921749D01*
X119939390Y-76885579D01*
X120240460Y-76584511D01*
X120255109Y-76559138D01*
X120280021Y-76515989D01*
X120300500Y-76439562D01*
X120300500Y-74735833D01*
X120320185Y-74668794D01*
X120336819Y-74648152D01*
X120953317Y-74031654D01*
X121603514Y-73381456D01*
X121664835Y-73347973D01*
X121734527Y-73352957D01*
X121790460Y-73394829D01*
X121814877Y-73460293D01*
X121812811Y-73493329D01*
X121799500Y-73560252D01*
X121799500Y-74499752D01*
X121811131Y-74558229D01*
X121811132Y-74558230D01*
X121836442Y-74596109D01*
X121857320Y-74662787D01*
X121838835Y-74730167D01*
X121836442Y-74733891D01*
X121811132Y-74771769D01*
X121811131Y-74771770D01*
X121799500Y-74830247D01*
X121799500Y-75769752D01*
X121811131Y-75828229D01*
X121811132Y-75828230D01*
X121836442Y-75866109D01*
X121857320Y-75932787D01*
X121838835Y-76000167D01*
X121836442Y-76003891D01*
X121811132Y-76041769D01*
X121811131Y-76041770D01*
X121799500Y-76100247D01*
X121799500Y-76776435D01*
X121779815Y-76843474D01*
X121727011Y-76889229D01*
X121675500Y-76900435D01*
X121604168Y-76900435D01*
X121466081Y-76940980D01*
X121345005Y-77018791D01*
X121250755Y-77127561D01*
X121250754Y-77127563D01*
X121190966Y-77258478D01*
X121170485Y-77400935D01*
X121190966Y-77543391D01*
X121231582Y-77632325D01*
X121250755Y-77674308D01*
X121345004Y-77783078D01*
X121466079Y-77860888D01*
X121466082Y-77860889D01*
X121466081Y-77860889D01*
X121573239Y-77892352D01*
X121601412Y-77900625D01*
X121604168Y-77901434D01*
X121604170Y-77901435D01*
X121675500Y-77901435D01*
X121742539Y-77921120D01*
X121788294Y-77973924D01*
X121799500Y-78025435D01*
X121799500Y-78309752D01*
X121811131Y-78368229D01*
X121811132Y-78368230D01*
X121836442Y-78406109D01*
X121857320Y-78472787D01*
X121838835Y-78540167D01*
X121836442Y-78543891D01*
X121811132Y-78581769D01*
X121811131Y-78581770D01*
X121799500Y-78640247D01*
X121799500Y-79579752D01*
X121811131Y-79638229D01*
X121811132Y-79638230D01*
X121836442Y-79676109D01*
X121857320Y-79742787D01*
X121838835Y-79810167D01*
X121836442Y-79813891D01*
X121811132Y-79851769D01*
X121811131Y-79851770D01*
X121799500Y-79910247D01*
X121799500Y-80849752D01*
X121811131Y-80908229D01*
X121811132Y-80908230D01*
X121836442Y-80946109D01*
X121857320Y-81012787D01*
X121838835Y-81080167D01*
X121836442Y-81083891D01*
X121811132Y-81121769D01*
X121811131Y-81121770D01*
X121799500Y-81180247D01*
X121799500Y-82119752D01*
X121811131Y-82178229D01*
X121811132Y-82178230D01*
X121836442Y-82216109D01*
X121857320Y-82282787D01*
X121838835Y-82350167D01*
X121836442Y-82353891D01*
X121811132Y-82391769D01*
X121811131Y-82391770D01*
X121799500Y-82450247D01*
X121799500Y-82575500D01*
X121779815Y-82642539D01*
X121727011Y-82688294D01*
X121675500Y-82699500D01*
X121133719Y-82699500D01*
X121066680Y-82679815D01*
X121040006Y-82656703D01*
X121038548Y-82655020D01*
X121018979Y-82632436D01*
X120897904Y-82554626D01*
X120897902Y-82554625D01*
X120897900Y-82554624D01*
X120897901Y-82554624D01*
X120759814Y-82514079D01*
X120759812Y-82514079D01*
X120615890Y-82514079D01*
X120615887Y-82514079D01*
X120477800Y-82554624D01*
X120356724Y-82632435D01*
X120262474Y-82741205D01*
X120262473Y-82741207D01*
X120202685Y-82872122D01*
X120182204Y-83014579D01*
X120202685Y-83157035D01*
X120249512Y-83259570D01*
X120262474Y-83287952D01*
X120356723Y-83396722D01*
X120477798Y-83474532D01*
X120477801Y-83474533D01*
X120477800Y-83474533D01*
X120611885Y-83513903D01*
X120670663Y-83551677D01*
X120699689Y-83615232D01*
X120699690Y-83641132D01*
X120699765Y-83641132D01*
X120699765Y-83650002D01*
X120702192Y-83666885D01*
X120692247Y-83736044D01*
X120646491Y-83788847D01*
X120614389Y-83803507D01*
X120489949Y-83840045D01*
X120368873Y-83917856D01*
X120368872Y-83917856D01*
X120368872Y-83917857D01*
X120356777Y-83931815D01*
X120274623Y-84026626D01*
X120274622Y-84026628D01*
X120214834Y-84157543D01*
X120194353Y-84300000D01*
X120214834Y-84442456D01*
X120247427Y-84513823D01*
X120274623Y-84573373D01*
X120368872Y-84682143D01*
X120489947Y-84759953D01*
X120489950Y-84759954D01*
X120489949Y-84759954D01*
X120628036Y-84800499D01*
X120628038Y-84800500D01*
X120628039Y-84800500D01*
X120688811Y-84800500D01*
X120755850Y-84820185D01*
X120776492Y-84836819D01*
X121595194Y-85655520D01*
X121595204Y-85655531D01*
X121599534Y-85659861D01*
X121599535Y-85659862D01*
X121660138Y-85720465D01*
X121660140Y-85720466D01*
X121660144Y-85720469D01*
X121689638Y-85737497D01*
X121689641Y-85737498D01*
X121689644Y-85737500D01*
X121734361Y-85763318D01*
X121734365Y-85763319D01*
X121737500Y-85765129D01*
X121785716Y-85815696D01*
X121799500Y-85872516D01*
X121799500Y-85929752D01*
X121811131Y-85988229D01*
X121811132Y-85988230D01*
X121830862Y-86017758D01*
X121851740Y-86084436D01*
X121833255Y-86151816D01*
X121781277Y-86198506D01*
X121712307Y-86209682D01*
X121692825Y-86205626D01*
X121671962Y-86199500D01*
X121671961Y-86199500D01*
X121528039Y-86199500D01*
X121528036Y-86199500D01*
X121389949Y-86240045D01*
X121268873Y-86317856D01*
X121174623Y-86426626D01*
X121174622Y-86426628D01*
X121114834Y-86557543D01*
X121094353Y-86700000D01*
X121114834Y-86842456D01*
X121134717Y-86885992D01*
X121174623Y-86973373D01*
X121268872Y-87082143D01*
X121389947Y-87159953D01*
X121389950Y-87159954D01*
X121389949Y-87159954D01*
X121528036Y-87200499D01*
X121528038Y-87200500D01*
X121528039Y-87200500D01*
X121671963Y-87200500D01*
X121680742Y-87199238D01*
X121681064Y-87201478D01*
X121738489Y-87201469D01*
X121797273Y-87239233D01*
X121806676Y-87251561D01*
X121836442Y-87296109D01*
X121857320Y-87362787D01*
X121838835Y-87430167D01*
X121836442Y-87433891D01*
X121811132Y-87471769D01*
X121811131Y-87471770D01*
X121799500Y-87530247D01*
X121799500Y-88276033D01*
X121779815Y-88343072D01*
X121727011Y-88388827D01*
X121657853Y-88398771D01*
X121594297Y-88369746D01*
X121587819Y-88363714D01*
X121579553Y-88355448D01*
X121513230Y-88311132D01*
X121513229Y-88311131D01*
X121454752Y-88299500D01*
X121454748Y-88299500D01*
X120515252Y-88299500D01*
X120515247Y-88299500D01*
X120456770Y-88311131D01*
X120456769Y-88311132D01*
X120418891Y-88336442D01*
X120352213Y-88357320D01*
X120284833Y-88338835D01*
X120281109Y-88336442D01*
X120243230Y-88311132D01*
X120243229Y-88311131D01*
X120184752Y-88299500D01*
X120184748Y-88299500D01*
X119245252Y-88299500D01*
X119245247Y-88299500D01*
X119186770Y-88311131D01*
X119186769Y-88311132D01*
X119148891Y-88336442D01*
X119082213Y-88357320D01*
X119014833Y-88338835D01*
X119011109Y-88336442D01*
X118973230Y-88311132D01*
X118973229Y-88311131D01*
X118914752Y-88299500D01*
X118914748Y-88299500D01*
X117975252Y-88299500D01*
X117975247Y-88299500D01*
X117916770Y-88311131D01*
X117916769Y-88311132D01*
X117887038Y-88330998D01*
X117820360Y-88351875D01*
X117752980Y-88333390D01*
X117706290Y-88281410D01*
X117695115Y-88212440D01*
X117723001Y-88148377D01*
X117730456Y-88140225D01*
X118583863Y-87286819D01*
X118645186Y-87253334D01*
X118671544Y-87250500D01*
X118886105Y-87250500D01*
X118953144Y-87270185D01*
X118967312Y-87280790D01*
X118968866Y-87282137D01*
X118968872Y-87282143D01*
X119089947Y-87359953D01*
X119089950Y-87359954D01*
X119089949Y-87359954D01*
X119197107Y-87391417D01*
X119224633Y-87399500D01*
X119228036Y-87400499D01*
X119228038Y-87400500D01*
X119228039Y-87400500D01*
X119371962Y-87400500D01*
X119371962Y-87400499D01*
X119510053Y-87359953D01*
X119631128Y-87282143D01*
X119725377Y-87173373D01*
X119785165Y-87042457D01*
X119805647Y-86900000D01*
X119785165Y-86757543D01*
X119725377Y-86626627D01*
X119631128Y-86517857D01*
X119510053Y-86440047D01*
X119510051Y-86440046D01*
X119510049Y-86440045D01*
X119510050Y-86440045D01*
X119371963Y-86399500D01*
X119371961Y-86399500D01*
X119228039Y-86399500D01*
X119228036Y-86399500D01*
X119089949Y-86440045D01*
X118968876Y-86517854D01*
X118968874Y-86517855D01*
X118968872Y-86517857D01*
X118968870Y-86517858D01*
X118967312Y-86519210D01*
X118965427Y-86520070D01*
X118961411Y-86522652D01*
X118961039Y-86522074D01*
X118903757Y-86548237D01*
X118886105Y-86549500D01*
X118428854Y-86549500D01*
X118393356Y-86559011D01*
X118393357Y-86559012D01*
X118339710Y-86573386D01*
X118339709Y-86573387D01*
X118259791Y-86619527D01*
X118259786Y-86619531D01*
X116894531Y-87984786D01*
X116894527Y-87984791D01*
X116854786Y-88053626D01*
X116848387Y-88064708D01*
X116848387Y-88064709D01*
X116848386Y-88064711D01*
X116848386Y-88064712D01*
X116839101Y-88099363D01*
X116824500Y-88153856D01*
X116824500Y-88175500D01*
X116804815Y-88242539D01*
X116752011Y-88288294D01*
X116711142Y-88297184D01*
X116711312Y-88298903D01*
X116705247Y-88299500D01*
X116646770Y-88311131D01*
X116646769Y-88311132D01*
X116608891Y-88336442D01*
X116542213Y-88357320D01*
X116474833Y-88338835D01*
X116471109Y-88336442D01*
X116433230Y-88311132D01*
X116433229Y-88311131D01*
X116374752Y-88299500D01*
X116374748Y-88299500D01*
X115435252Y-88299500D01*
X115435247Y-88299500D01*
X115376770Y-88311131D01*
X115376769Y-88311132D01*
X115338891Y-88336442D01*
X115272213Y-88357320D01*
X115204833Y-88338835D01*
X115201109Y-88336442D01*
X115163230Y-88311132D01*
X115163229Y-88311131D01*
X115104752Y-88299500D01*
X115104748Y-88299500D01*
X114165252Y-88299500D01*
X114165247Y-88299500D01*
X114106770Y-88311131D01*
X114106769Y-88311132D01*
X114068891Y-88336442D01*
X114002213Y-88357320D01*
X113934833Y-88338835D01*
X113931109Y-88336442D01*
X113893230Y-88311132D01*
X113893229Y-88311131D01*
X113834752Y-88299500D01*
X113834748Y-88299500D01*
X112895252Y-88299500D01*
X112895247Y-88299500D01*
X112836770Y-88311131D01*
X112836769Y-88311132D01*
X112798891Y-88336442D01*
X112732213Y-88357320D01*
X112664833Y-88338835D01*
X112661109Y-88336442D01*
X112623230Y-88311132D01*
X112623229Y-88311131D01*
X112564752Y-88299500D01*
X112558688Y-88298903D01*
X112558934Y-88296397D01*
X112502461Y-88279815D01*
X112456706Y-88227011D01*
X112445500Y-88175500D01*
X112445500Y-85548858D01*
X112445500Y-85548856D01*
X112421614Y-85459712D01*
X112387428Y-85400500D01*
X112375472Y-85379791D01*
X112375468Y-85379786D01*
X112036503Y-85040821D01*
X112003018Y-84979498D01*
X112001449Y-84970805D01*
X111985165Y-84857543D01*
X111925377Y-84726627D01*
X111831128Y-84617857D01*
X111710053Y-84540047D01*
X111710051Y-84540046D01*
X111710049Y-84540045D01*
X111710050Y-84540045D01*
X111571963Y-84499500D01*
X111571961Y-84499500D01*
X111428039Y-84499500D01*
X111428036Y-84499500D01*
X111289949Y-84540045D01*
X111168873Y-84617856D01*
X111168872Y-84617856D01*
X111168872Y-84617857D01*
X111156290Y-84632377D01*
X111074623Y-84726626D01*
X111074622Y-84726628D01*
X111014834Y-84857543D01*
X110994353Y-85000000D01*
X111014834Y-85142456D01*
X111046284Y-85211321D01*
X111074623Y-85273373D01*
X111168872Y-85382143D01*
X111289947Y-85459953D01*
X111289950Y-85459954D01*
X111289949Y-85459954D01*
X111364900Y-85481961D01*
X111417784Y-85497489D01*
X111428036Y-85500499D01*
X111428038Y-85500500D01*
X111428039Y-85500500D01*
X111453456Y-85500500D01*
X111520495Y-85520185D01*
X111541137Y-85536819D01*
X111708181Y-85703863D01*
X111741666Y-85765186D01*
X111744500Y-85791544D01*
X111744500Y-88175500D01*
X111724815Y-88242539D01*
X111672011Y-88288294D01*
X111631142Y-88297184D01*
X111631312Y-88298903D01*
X111625247Y-88299500D01*
X111566770Y-88311131D01*
X111566769Y-88311132D01*
X111528891Y-88336442D01*
X111462213Y-88357320D01*
X111394833Y-88338835D01*
X111391109Y-88336442D01*
X111353230Y-88311132D01*
X111353229Y-88311131D01*
X111294752Y-88299500D01*
X111294748Y-88299500D01*
X111051543Y-88299500D01*
X110984504Y-88279815D01*
X110963862Y-88263181D01*
X110772695Y-88072014D01*
X110570212Y-87869530D01*
X110570211Y-87869529D01*
X110570208Y-87869527D01*
X110490290Y-87823387D01*
X110490289Y-87823386D01*
X110490288Y-87823386D01*
X110401144Y-87799500D01*
X110401143Y-87799500D01*
X109988650Y-87799500D01*
X109921611Y-87779815D01*
X109900969Y-87763181D01*
X108441007Y-86303219D01*
X108407522Y-86241896D01*
X108406343Y-86208870D01*
X108405647Y-86208870D01*
X108405647Y-86200001D01*
X108401660Y-86172273D01*
X108385165Y-86057543D01*
X108325377Y-85926627D01*
X108231128Y-85817857D01*
X108110053Y-85740047D01*
X108110051Y-85740046D01*
X108110049Y-85740045D01*
X108110050Y-85740045D01*
X107971963Y-85699500D01*
X107971961Y-85699500D01*
X107828039Y-85699500D01*
X107828036Y-85699500D01*
X107689949Y-85740045D01*
X107568873Y-85817856D01*
X107474623Y-85926626D01*
X107474622Y-85926628D01*
X107414834Y-86057543D01*
X107394353Y-86200000D01*
X107414834Y-86342456D01*
X107457865Y-86436678D01*
X107474623Y-86473373D01*
X107568872Y-86582143D01*
X107689947Y-86659953D01*
X107689950Y-86659954D01*
X107689949Y-86659954D01*
X107824407Y-86699434D01*
X107877154Y-86730730D01*
X108591726Y-87445302D01*
X108625211Y-87506625D01*
X108620227Y-87576317D01*
X108578355Y-87632250D01*
X108512891Y-87656667D01*
X108504045Y-87656983D01*
X108221659Y-87656983D01*
X108154620Y-87637298D01*
X108138281Y-87623139D01*
X108137828Y-87623663D01*
X108131131Y-87617860D01*
X108131128Y-87617857D01*
X108010053Y-87540047D01*
X108010051Y-87540046D01*
X108010049Y-87540045D01*
X108010050Y-87540045D01*
X107871963Y-87499500D01*
X107871961Y-87499500D01*
X107728039Y-87499500D01*
X107728036Y-87499500D01*
X107589949Y-87540045D01*
X107468873Y-87617856D01*
X107374623Y-87726626D01*
X107374622Y-87726628D01*
X107314834Y-87857543D01*
X107294353Y-88000000D01*
X107316097Y-88151235D01*
X107314279Y-88151496D01*
X107314278Y-88210438D01*
X107276502Y-88269215D01*
X107212945Y-88298238D01*
X107195302Y-88299500D01*
X106545247Y-88299500D01*
X106486770Y-88311131D01*
X106486769Y-88311132D01*
X106420446Y-88355448D01*
X106412181Y-88363714D01*
X106350858Y-88397199D01*
X106281166Y-88392215D01*
X106225233Y-88350343D01*
X106200816Y-88284879D01*
X106200500Y-88276033D01*
X106200500Y-87530249D01*
X106200499Y-87530247D01*
X106188868Y-87471770D01*
X106188867Y-87471768D01*
X106163558Y-87433892D01*
X106142679Y-87367215D01*
X106161163Y-87299835D01*
X106163558Y-87296108D01*
X106188867Y-87258231D01*
X106188868Y-87258229D01*
X106200156Y-87201478D01*
X106200500Y-87199748D01*
X106200500Y-86260252D01*
X106200500Y-86260249D01*
X106200499Y-86260247D01*
X106188868Y-86201770D01*
X106188867Y-86201768D01*
X106163558Y-86163892D01*
X106142679Y-86097215D01*
X106161163Y-86029835D01*
X106163558Y-86026108D01*
X106188867Y-85988231D01*
X106188868Y-85988229D01*
X106200499Y-85929752D01*
X106200500Y-85929750D01*
X106200500Y-84990249D01*
X106200499Y-84990247D01*
X106188868Y-84931770D01*
X106188867Y-84931768D01*
X106163558Y-84893892D01*
X106142679Y-84827215D01*
X106161163Y-84759835D01*
X106163558Y-84756108D01*
X106188867Y-84718231D01*
X106188868Y-84718229D01*
X106199888Y-84662826D01*
X106200500Y-84659748D01*
X106200500Y-83822609D01*
X106220185Y-83755570D01*
X106272989Y-83709815D01*
X106323107Y-83698617D01*
X108324908Y-83676124D01*
X108425000Y-83675000D01*
X108425000Y-81025000D01*
X108424999Y-81024999D01*
X106320044Y-81001348D01*
X106253230Y-80980912D01*
X106208071Y-80927597D01*
X106198905Y-80858331D01*
X106199814Y-80853193D01*
X106200500Y-80849748D01*
X106200500Y-79910252D01*
X106200500Y-79910249D01*
X106200499Y-79910247D01*
X106188868Y-79851770D01*
X106188867Y-79851768D01*
X106163558Y-79813892D01*
X106142679Y-79747215D01*
X106161163Y-79679835D01*
X106163558Y-79676108D01*
X106188867Y-79638231D01*
X106188868Y-79638229D01*
X106200499Y-79579752D01*
X106200500Y-79579750D01*
X106200500Y-78896965D01*
X106220185Y-78829926D01*
X106272989Y-78784171D01*
X106342147Y-78774227D01*
X106405703Y-78803252D01*
X106412181Y-78809284D01*
X106763386Y-79160489D01*
X106866113Y-79219799D01*
X106883653Y-79224498D01*
X106883656Y-79224500D01*
X106883657Y-79224500D01*
X106897149Y-79228115D01*
X106980691Y-79250500D01*
X106980693Y-79250500D01*
X108859307Y-79250500D01*
X108859309Y-79250500D01*
X108956342Y-79224500D01*
X108973887Y-79219799D01*
X109076614Y-79160489D01*
X109087817Y-79149284D01*
X109149138Y-79115800D01*
X109218830Y-79120782D01*
X109274765Y-79162652D01*
X109299184Y-79228115D01*
X109299500Y-79236965D01*
X109299500Y-81799600D01*
X109317081Y-81865212D01*
X109330201Y-81914178D01*
X109389511Y-82016905D01*
X109389513Y-82016907D01*
X110394120Y-83021514D01*
X110419233Y-83057683D01*
X110461759Y-83150800D01*
X110556008Y-83259570D01*
X110677083Y-83337380D01*
X110677086Y-83337381D01*
X110677085Y-83337381D01*
X110815172Y-83377926D01*
X110815174Y-83377927D01*
X110815175Y-83377927D01*
X110959098Y-83377927D01*
X110959098Y-83377926D01*
X111097189Y-83337380D01*
X111218264Y-83259570D01*
X111312513Y-83150800D01*
X111372301Y-83019884D01*
X111392783Y-82877427D01*
X111372301Y-82734970D01*
X111312513Y-82604054D01*
X111218264Y-82495284D01*
X111164509Y-82460738D01*
X111097188Y-82417473D01*
X111080972Y-82412712D01*
X111028228Y-82381416D01*
X110872393Y-82225581D01*
X116019793Y-82225581D01*
X116127043Y-82367601D01*
X116277695Y-82504938D01*
X116451019Y-82612257D01*
X116641113Y-82685899D01*
X116841507Y-82723360D01*
X117045366Y-82723360D01*
X117045367Y-82723359D01*
X117075694Y-82717690D01*
X116794016Y-81943788D01*
X116019794Y-82225580D01*
X116019793Y-82225581D01*
X110872393Y-82225581D01*
X110270172Y-81623360D01*
X115838722Y-81623360D01*
X115850916Y-81754958D01*
X116085880Y-81669438D01*
X116593435Y-81669438D01*
X116617287Y-81758455D01*
X116663365Y-81838265D01*
X116728530Y-81903430D01*
X116808340Y-81949508D01*
X116897357Y-81973360D01*
X116989513Y-81973360D01*
X117078530Y-81949508D01*
X117158340Y-81903430D01*
X117223505Y-81838265D01*
X117261314Y-81772778D01*
X117263862Y-81772778D01*
X117544845Y-82544769D01*
X117609171Y-82504941D01*
X117609173Y-82504939D01*
X117759826Y-82367602D01*
X117882680Y-82204916D01*
X117973548Y-82022429D01*
X117973551Y-82022423D01*
X118029337Y-81826352D01*
X118029338Y-81826349D01*
X118048148Y-81623360D01*
X118035953Y-81491760D01*
X117263862Y-81772778D01*
X117261314Y-81772778D01*
X117269583Y-81758455D01*
X117293435Y-81669438D01*
X117293435Y-81577282D01*
X117269583Y-81488265D01*
X117223505Y-81408455D01*
X117158340Y-81343290D01*
X117078530Y-81297212D01*
X116989513Y-81273360D01*
X116897357Y-81273360D01*
X116808340Y-81297212D01*
X116728530Y-81343290D01*
X116663365Y-81408455D01*
X116617287Y-81488265D01*
X116593435Y-81577282D01*
X116593435Y-81669438D01*
X116085880Y-81669438D01*
X116623006Y-81473940D01*
X116342023Y-80701949D01*
X116277693Y-80741782D01*
X116127043Y-80879117D01*
X116004189Y-81041803D01*
X115913321Y-81224290D01*
X115913318Y-81224296D01*
X115857532Y-81420367D01*
X115857531Y-81420370D01*
X115838722Y-81623359D01*
X115838722Y-81623360D01*
X110270172Y-81623360D01*
X110236819Y-81590007D01*
X110203334Y-81528684D01*
X110200500Y-81502326D01*
X110200500Y-79352208D01*
X111267362Y-79352208D01*
X111287557Y-79531454D01*
X111287558Y-79531459D01*
X111347138Y-79701728D01*
X111391076Y-79771654D01*
X111443111Y-79854467D01*
X111570665Y-79982021D01*
X111648357Y-80030838D01*
X111698184Y-80062147D01*
X111723405Y-80077994D01*
X111860358Y-80125916D01*
X111893672Y-80137573D01*
X111893677Y-80137574D01*
X112072923Y-80157770D01*
X112072927Y-80157770D01*
X112072931Y-80157770D01*
X112252176Y-80137574D01*
X112252179Y-80137573D01*
X112252182Y-80137573D01*
X112422449Y-80077994D01*
X112447670Y-80062147D01*
X112497497Y-80030838D01*
X112564734Y-80011837D01*
X112631569Y-80032204D01*
X112676784Y-80085472D01*
X112683245Y-80103738D01*
X112726094Y-80263655D01*
X112726096Y-80263659D01*
X112726097Y-80263663D01*
X112806328Y-80435718D01*
X112825965Y-80477830D01*
X112825967Y-80477834D01*
X112907991Y-80594975D01*
X112961505Y-80671401D01*
X113128599Y-80838495D01*
X113225384Y-80906265D01*
X113322165Y-80974032D01*
X113322167Y-80974033D01*
X113322170Y-80974035D01*
X113536337Y-81073903D01*
X113764592Y-81135063D01*
X113952918Y-81151539D01*
X113999999Y-81155659D01*
X114000000Y-81155659D01*
X114000001Y-81155659D01*
X114039234Y-81152226D01*
X114235408Y-81135063D01*
X114463663Y-81073903D01*
X114677830Y-80974035D01*
X114871401Y-80838495D01*
X115038495Y-80671401D01*
X115138186Y-80529028D01*
X116811175Y-80529028D01*
X117092853Y-81302931D01*
X117867074Y-81021138D01*
X117867075Y-81021137D01*
X117759826Y-80879117D01*
X117609174Y-80741781D01*
X117435850Y-80634462D01*
X117245756Y-80560820D01*
X117045363Y-80523360D01*
X116841500Y-80523360D01*
X116811175Y-80529028D01*
X115138186Y-80529028D01*
X115174035Y-80477830D01*
X115273903Y-80263663D01*
X115335063Y-80035408D01*
X115355659Y-79800000D01*
X115335766Y-79572623D01*
X117094147Y-79572623D01*
X117114342Y-79751869D01*
X117114343Y-79751874D01*
X117173923Y-79922143D01*
X117245090Y-80035403D01*
X117269896Y-80074882D01*
X117397450Y-80202436D01*
X117550190Y-80298409D01*
X117702007Y-80351532D01*
X117720457Y-80357988D01*
X117720462Y-80357989D01*
X117899708Y-80378185D01*
X117899712Y-80378185D01*
X117899716Y-80378185D01*
X118078959Y-80357989D01*
X118078959Y-80357988D01*
X118078967Y-80357988D01*
X118087226Y-80355097D01*
X118157002Y-80351532D01*
X118215866Y-80384456D01*
X119604589Y-81773179D01*
X119638074Y-81834502D01*
X119639646Y-81843211D01*
X119641633Y-81857033D01*
X119641634Y-81857037D01*
X119691150Y-81965460D01*
X119701422Y-81987952D01*
X119795671Y-82096722D01*
X119916746Y-82174532D01*
X119916749Y-82174533D01*
X119916748Y-82174533D01*
X120020226Y-82204916D01*
X120051936Y-82214227D01*
X120054835Y-82215078D01*
X120054837Y-82215079D01*
X120054838Y-82215079D01*
X120198761Y-82215079D01*
X120198761Y-82215078D01*
X120336852Y-82174532D01*
X120457927Y-82096722D01*
X120552176Y-81987952D01*
X120611964Y-81857036D01*
X120632446Y-81714579D01*
X120611964Y-81572122D01*
X120552176Y-81441206D01*
X120457927Y-81332436D01*
X120336852Y-81254626D01*
X120336850Y-81254625D01*
X120336848Y-81254624D01*
X120336849Y-81254624D01*
X120198762Y-81214079D01*
X120198760Y-81214079D01*
X120088215Y-81214079D01*
X120021176Y-81194394D01*
X120000534Y-81177760D01*
X118711548Y-79888774D01*
X118678063Y-79827451D01*
X118682189Y-79760134D01*
X118685080Y-79751875D01*
X118686104Y-79742787D01*
X118705277Y-79572623D01*
X118705277Y-79572616D01*
X118685081Y-79393370D01*
X118685080Y-79393365D01*
X118671724Y-79355196D01*
X118625501Y-79223098D01*
X118623427Y-79219798D01*
X118562083Y-79122169D01*
X118529528Y-79070358D01*
X118401974Y-78942804D01*
X118360645Y-78916835D01*
X118249235Y-78846831D01*
X118078966Y-78787251D01*
X118078961Y-78787250D01*
X117899716Y-78767055D01*
X117899708Y-78767055D01*
X117720462Y-78787250D01*
X117720457Y-78787251D01*
X117550188Y-78846831D01*
X117397449Y-78942804D01*
X117269896Y-79070357D01*
X117173923Y-79223096D01*
X117114343Y-79393365D01*
X117114342Y-79393370D01*
X117094147Y-79572616D01*
X117094147Y-79572623D01*
X115335766Y-79572623D01*
X115335063Y-79564592D01*
X115288626Y-79391285D01*
X115273905Y-79336344D01*
X115273904Y-79336343D01*
X115273903Y-79336337D01*
X115174035Y-79122171D01*
X115173063Y-79120782D01*
X115038494Y-78928597D01*
X114871402Y-78761506D01*
X114871395Y-78761501D01*
X114677834Y-78625967D01*
X114677830Y-78625965D01*
X114654114Y-78614906D01*
X114463663Y-78526097D01*
X114463659Y-78526096D01*
X114463655Y-78526094D01*
X114235413Y-78464938D01*
X114235403Y-78464936D01*
X114000001Y-78444341D01*
X113999999Y-78444341D01*
X113764596Y-78464936D01*
X113764586Y-78464938D01*
X113536344Y-78526094D01*
X113536335Y-78526098D01*
X113322171Y-78625964D01*
X113322169Y-78625965D01*
X113128597Y-78761505D01*
X112961507Y-78928596D01*
X112958334Y-78933128D01*
X112903754Y-78976749D01*
X112834255Y-78983937D01*
X112771902Y-78952410D01*
X112751770Y-78927969D01*
X112723471Y-78882932D01*
X112702743Y-78849943D01*
X112575189Y-78722389D01*
X112543302Y-78702353D01*
X112422450Y-78626416D01*
X112252181Y-78566836D01*
X112252176Y-78566835D01*
X112072931Y-78546640D01*
X112072923Y-78546640D01*
X111893677Y-78566835D01*
X111893672Y-78566836D01*
X111723403Y-78626416D01*
X111570664Y-78722389D01*
X111443111Y-78849942D01*
X111347138Y-79002681D01*
X111287558Y-79172950D01*
X111287557Y-79172955D01*
X111267362Y-79352201D01*
X111267362Y-79352208D01*
X110200500Y-79352208D01*
X110200500Y-77676305D01*
X110220185Y-77609266D01*
X110272989Y-77563511D01*
X110342147Y-77553567D01*
X110405703Y-77582592D01*
X110412181Y-77588624D01*
X110804027Y-77980470D01*
X110883446Y-78026322D01*
X110883457Y-78026334D01*
X110883459Y-78026330D01*
X110883461Y-78026331D01*
X110883951Y-78026614D01*
X110973095Y-78050500D01*
X110973096Y-78050500D01*
X111065383Y-78050500D01*
X112471441Y-78050500D01*
X112538480Y-78070185D01*
X112555737Y-78084722D01*
X112556140Y-78084273D01*
X112560674Y-78088337D01*
X112560680Y-78088343D01*
X112665516Y-78165212D01*
X112687847Y-78181586D01*
X112830750Y-78248223D01*
X112830755Y-78248225D01*
X112983921Y-78285704D01*
X113129290Y-78292050D01*
X113141453Y-78292582D01*
X113141453Y-78292581D01*
X113141455Y-78292582D01*
X113297305Y-78268595D01*
X113445480Y-78214664D01*
X113580286Y-78132861D01*
X113696544Y-78026331D01*
X113789785Y-77899167D01*
X113856425Y-77756256D01*
X113893905Y-77603091D01*
X113900783Y-77445556D01*
X113876796Y-77289706D01*
X113686057Y-76765653D01*
X113604254Y-76630847D01*
X113497724Y-76514589D01*
X113370560Y-76421348D01*
X113370558Y-76421347D01*
X113227656Y-76354710D01*
X113227649Y-76354708D01*
X113074483Y-76317228D01*
X112916950Y-76310349D01*
X112916946Y-76310350D01*
X112761099Y-76334337D01*
X112612924Y-76388268D01*
X112478121Y-76470068D01*
X112478117Y-76470071D01*
X112361859Y-76576602D01*
X112268618Y-76703766D01*
X112201981Y-76846668D01*
X112201979Y-76846675D01*
X112164499Y-76999841D01*
X112157620Y-77157374D01*
X112157620Y-77157376D01*
X112161797Y-77184511D01*
X112165016Y-77205425D01*
X112165203Y-77206636D01*
X112155946Y-77275890D01*
X112110717Y-77329145D01*
X112043876Y-77349494D01*
X112042646Y-77349500D01*
X111983559Y-77349500D01*
X111916520Y-77329815D01*
X111870765Y-77277011D01*
X111860821Y-77207853D01*
X111870765Y-77173988D01*
X111878266Y-77157563D01*
X111885165Y-77142457D01*
X111905647Y-77000000D01*
X111887281Y-76872261D01*
X111885165Y-76857542D01*
X111885164Y-76857541D01*
X111861706Y-76806174D01*
X111850500Y-76754663D01*
X111850500Y-76080032D01*
X111850500Y-76080030D01*
X111819799Y-75965453D01*
X111810250Y-75948913D01*
X111810248Y-75948909D01*
X111810248Y-75948908D01*
X111760494Y-75862731D01*
X111760488Y-75862723D01*
X110837277Y-74939513D01*
X110837275Y-74939511D01*
X110734548Y-74880201D01*
X110709065Y-74873373D01*
X110709062Y-74873372D01*
X110671407Y-74863282D01*
X110619970Y-74849500D01*
X110619969Y-74849500D01*
X106303919Y-74849500D01*
X106236880Y-74829815D01*
X106191125Y-74777011D01*
X106189360Y-74772957D01*
X106188868Y-74771770D01*
X106163558Y-74733892D01*
X106142679Y-74667215D01*
X106161163Y-74599835D01*
X106163558Y-74596108D01*
X106188867Y-74558231D01*
X106188868Y-74558229D01*
X106200499Y-74499752D01*
X106200500Y-74499750D01*
X106200500Y-73560249D01*
X106200499Y-73560247D01*
X106188868Y-73501770D01*
X106188867Y-73501768D01*
X106163558Y-73463892D01*
X106142679Y-73397215D01*
X106161163Y-73329835D01*
X106163558Y-73326108D01*
X106188867Y-73288231D01*
X106188868Y-73288229D01*
X106200499Y-73229752D01*
X106200500Y-73229750D01*
X106200500Y-72476556D01*
X106220185Y-72409517D01*
X106250189Y-72377290D01*
X106357187Y-72297190D01*
X106357190Y-72297187D01*
X106443350Y-72182093D01*
X106443354Y-72182086D01*
X106493596Y-72047379D01*
X106493598Y-72047372D01*
X106499999Y-71987844D01*
X106500000Y-71987827D01*
X106500000Y-71740000D01*
X103999999Y-71740000D01*
X103982161Y-71757838D01*
X103920838Y-71791322D01*
X103851146Y-71786337D01*
X103795213Y-71744466D01*
X103782305Y-71720239D01*
X103782133Y-71720331D01*
X103777792Y-71712117D01*
X103777189Y-71711300D01*
X103697150Y-71602850D01*
X103587882Y-71522207D01*
X103587880Y-71522206D01*
X103459700Y-71477353D01*
X103429270Y-71474500D01*
X103429266Y-71474500D01*
X102645734Y-71474500D01*
X102645730Y-71474500D01*
X102615300Y-71477353D01*
X102615298Y-71477353D01*
X102487119Y-71522206D01*
X102487117Y-71522207D01*
X102377850Y-71602850D01*
X102297207Y-71712117D01*
X102274842Y-71776033D01*
X102234120Y-71832808D01*
X102169167Y-71858555D01*
X102100605Y-71845098D01*
X102050203Y-71796711D01*
X102040095Y-71774081D01*
X101984358Y-71605880D01*
X101984356Y-71605875D01*
X101892315Y-71456654D01*
X101768345Y-71332684D01*
X101619124Y-71240643D01*
X101619119Y-71240641D01*
X101617185Y-71240000D01*
X104000000Y-71240000D01*
X105000000Y-71240000D01*
X105000000Y-70540000D01*
X105500000Y-70540000D01*
X105500000Y-71240000D01*
X106500000Y-71240000D01*
X121500000Y-71240000D01*
X122500000Y-71240000D01*
X122500000Y-70540000D01*
X123000000Y-70540000D01*
X123000000Y-71240000D01*
X124000000Y-71240000D01*
X124000000Y-70992172D01*
X123999999Y-70992155D01*
X123993598Y-70932627D01*
X123993596Y-70932620D01*
X123943354Y-70797913D01*
X123943350Y-70797906D01*
X123857190Y-70682812D01*
X123857187Y-70682809D01*
X123742093Y-70596649D01*
X123742086Y-70596645D01*
X123607379Y-70546403D01*
X123607372Y-70546401D01*
X123547844Y-70540000D01*
X123000000Y-70540000D01*
X122500000Y-70540000D01*
X121952155Y-70540000D01*
X121892627Y-70546401D01*
X121892620Y-70546403D01*
X121757913Y-70596645D01*
X121757906Y-70596649D01*
X121642812Y-70682809D01*
X121642809Y-70682812D01*
X121556649Y-70797906D01*
X121556645Y-70797913D01*
X121506403Y-70932620D01*
X121506401Y-70932627D01*
X121500000Y-70992155D01*
X121500000Y-71240000D01*
X106500000Y-71240000D01*
X106500000Y-70992172D01*
X106499999Y-70992155D01*
X106493598Y-70932627D01*
X106493596Y-70932620D01*
X106443354Y-70797913D01*
X106443350Y-70797906D01*
X106357190Y-70682812D01*
X106357187Y-70682809D01*
X106242093Y-70596649D01*
X106242086Y-70596645D01*
X106107379Y-70546403D01*
X106107372Y-70546401D01*
X106047844Y-70540000D01*
X105500000Y-70540000D01*
X105000000Y-70540000D01*
X104452155Y-70540000D01*
X104392627Y-70546401D01*
X104392620Y-70546403D01*
X104257913Y-70596645D01*
X104257906Y-70596649D01*
X104142812Y-70682809D01*
X104142809Y-70682812D01*
X104056649Y-70797906D01*
X104056645Y-70797913D01*
X104006403Y-70932620D01*
X104006401Y-70932627D01*
X104000000Y-70992155D01*
X104000000Y-71240000D01*
X101617185Y-71240000D01*
X101452697Y-71185494D01*
X101452690Y-71185493D01*
X101349986Y-71175000D01*
X101212500Y-71175000D01*
X101212500Y-72526000D01*
X101192815Y-72593039D01*
X101140011Y-72638794D01*
X101088500Y-72650000D01*
X99875001Y-72650000D01*
X99875001Y-72924986D01*
X99885494Y-73027697D01*
X99940641Y-73194119D01*
X99940643Y-73194124D01*
X100032684Y-73343345D01*
X100107348Y-73418009D01*
X100140833Y-73479332D01*
X100135849Y-73549024D01*
X100093977Y-73604957D01*
X100081668Y-73613076D01*
X100035892Y-73639505D01*
X100035884Y-73639511D01*
X99312215Y-74363181D01*
X99250892Y-74396666D01*
X99224534Y-74399500D01*
X98866739Y-74399500D01*
X98798608Y-74409426D01*
X98693514Y-74460803D01*
X98610803Y-74543514D01*
X98559426Y-74648608D01*
X98549500Y-74716739D01*
X98549500Y-75808260D01*
X98559426Y-75876391D01*
X98610803Y-75981485D01*
X98693514Y-76064196D01*
X98693515Y-76064196D01*
X98693517Y-76064198D01*
X98798607Y-76115573D01*
X98832673Y-76120536D01*
X98866739Y-76125500D01*
X98866740Y-76125500D01*
X99233261Y-76125500D01*
X99255971Y-76122191D01*
X99301393Y-76115573D01*
X99406483Y-76064198D01*
X99489198Y-75981483D01*
X99540573Y-75876393D01*
X99550500Y-75808260D01*
X99550500Y-75450465D01*
X99570185Y-75383426D01*
X99586819Y-75362784D01*
X100010092Y-74939511D01*
X100237820Y-74711783D01*
X100299142Y-74678299D01*
X100368834Y-74683283D01*
X100424767Y-74725155D01*
X100449184Y-74790619D01*
X100449500Y-74799465D01*
X100449500Y-75808260D01*
X100459426Y-75876391D01*
X100510803Y-75981485D01*
X100593514Y-76064196D01*
X100593515Y-76064196D01*
X100593517Y-76064198D01*
X100698607Y-76115573D01*
X100732673Y-76120536D01*
X100766739Y-76125500D01*
X100766740Y-76125500D01*
X101133261Y-76125500D01*
X101167326Y-76120536D01*
X101201393Y-76115573D01*
X101296041Y-76069302D01*
X101364912Y-76057543D01*
X101429209Y-76084886D01*
X101468517Y-76142650D01*
X101474500Y-76180703D01*
X101474500Y-76619296D01*
X101454815Y-76686335D01*
X101402011Y-76732090D01*
X101332853Y-76742034D01*
X101296040Y-76730697D01*
X101243950Y-76705232D01*
X101201393Y-76684427D01*
X101201391Y-76684426D01*
X101133261Y-76674500D01*
X101133260Y-76674500D01*
X100768033Y-76674500D01*
X100700994Y-76654815D01*
X100670051Y-76626497D01*
X100667679Y-76623439D01*
X100551561Y-76507321D01*
X100551552Y-76507314D01*
X100410196Y-76423717D01*
X100410193Y-76423716D01*
X100252494Y-76377900D01*
X100252497Y-76377900D01*
X100250000Y-76377703D01*
X100250000Y-78712003D01*
X100230315Y-78779042D01*
X100199634Y-78811772D01*
X100186812Y-78821236D01*
X100177850Y-78827850D01*
X100097207Y-78937117D01*
X100097206Y-78937119D01*
X100052353Y-79065298D01*
X100052353Y-79065300D01*
X100049500Y-79095730D01*
X100049500Y-80104269D01*
X100052353Y-80134699D01*
X100052353Y-80134701D01*
X100085226Y-80228643D01*
X100097207Y-80262882D01*
X100177850Y-80372150D01*
X100287118Y-80452793D01*
X100321981Y-80464992D01*
X100415299Y-80497646D01*
X100445730Y-80500500D01*
X100445734Y-80500500D01*
X100831396Y-80500500D01*
X100898435Y-80520185D01*
X100944190Y-80572989D01*
X100954134Y-80642147D01*
X100938784Y-80686499D01*
X100920409Y-80718325D01*
X100920409Y-80718326D01*
X100905216Y-80775028D01*
X100899930Y-80794754D01*
X100899930Y-80858050D01*
X100880245Y-80925089D01*
X100863611Y-80945731D01*
X99673843Y-82135498D01*
X99612520Y-82168983D01*
X99542828Y-82163999D01*
X99486895Y-82122127D01*
X99470220Y-82091787D01*
X99457560Y-82058404D01*
X99424818Y-81972070D01*
X99420255Y-81965460D01*
X99383693Y-81912491D01*
X99328183Y-81832071D01*
X99321724Y-81826349D01*
X99255869Y-81768006D01*
X99218742Y-81708817D01*
X99219510Y-81638952D01*
X99251462Y-81589834D01*
X99250320Y-81588845D01*
X99256126Y-81582144D01*
X99256128Y-81582143D01*
X99350377Y-81473373D01*
X99410165Y-81342457D01*
X99430647Y-81200000D01*
X99410165Y-81057543D01*
X99402977Y-81041803D01*
X99386706Y-81006174D01*
X99375500Y-80954663D01*
X99375500Y-80542980D01*
X99395185Y-80475941D01*
X99425867Y-80443210D01*
X99476226Y-80406043D01*
X99522150Y-80372150D01*
X99602793Y-80262882D01*
X99626634Y-80194748D01*
X99647646Y-80134701D01*
X99647646Y-80134699D01*
X99650500Y-80104269D01*
X99650500Y-79095730D01*
X99647646Y-79065300D01*
X99647646Y-79065298D01*
X99608144Y-78952410D01*
X99602793Y-78937118D01*
X99555523Y-78873069D01*
X99531553Y-78807440D01*
X99546869Y-78739270D01*
X99596609Y-78690202D01*
X99664982Y-78675815D01*
X99689889Y-78680360D01*
X99747505Y-78697099D01*
X99747511Y-78697100D01*
X99749998Y-78697295D01*
X99750000Y-78697295D01*
X99750000Y-76377703D01*
X99747503Y-76377900D01*
X99589806Y-76423716D01*
X99589803Y-76423717D01*
X99448447Y-76507314D01*
X99448442Y-76507318D01*
X99332316Y-76623445D01*
X99329944Y-76626504D01*
X99327475Y-76628286D01*
X99326802Y-76628960D01*
X99326693Y-76628851D01*
X99273300Y-76667409D01*
X99231967Y-76674500D01*
X98866739Y-76674500D01*
X98798608Y-76684426D01*
X98693514Y-76735803D01*
X98610803Y-76818514D01*
X98559426Y-76923608D01*
X98549500Y-76991739D01*
X98549500Y-78083260D01*
X98559426Y-78151391D01*
X98586901Y-78207592D01*
X98599500Y-78262052D01*
X98599500Y-78575500D01*
X98579815Y-78642539D01*
X98527011Y-78688294D01*
X98475500Y-78699500D01*
X98445730Y-78699500D01*
X98415300Y-78702353D01*
X98415298Y-78702353D01*
X98287119Y-78747206D01*
X98287117Y-78747207D01*
X98177849Y-78827850D01*
X98145359Y-78871873D01*
X98089711Y-78914123D01*
X98020055Y-78919580D01*
X97958506Y-78886513D01*
X97924606Y-78825418D01*
X97923942Y-78821236D01*
X97922646Y-78815298D01*
X97883124Y-78702353D01*
X97877793Y-78687118D01*
X97797150Y-78577850D01*
X97687882Y-78497207D01*
X97687880Y-78497206D01*
X97623967Y-78474842D01*
X97567191Y-78434120D01*
X97541444Y-78369168D01*
X97554901Y-78300606D01*
X97603288Y-78250203D01*
X97625918Y-78240095D01*
X97794119Y-78184358D01*
X97794124Y-78184356D01*
X97943345Y-78092315D01*
X98067315Y-77968345D01*
X98159356Y-77819124D01*
X98159358Y-77819119D01*
X98214505Y-77652697D01*
X98214506Y-77652690D01*
X98224999Y-77549986D01*
X98225000Y-77549973D01*
X98225000Y-77412500D01*
X96874000Y-77412500D01*
X96806961Y-77392815D01*
X96761206Y-77340011D01*
X96750000Y-77288500D01*
X96750000Y-76075000D01*
X97250000Y-76075000D01*
X97250000Y-76912500D01*
X98224999Y-76912500D01*
X98224999Y-76775028D01*
X98224998Y-76775013D01*
X98214505Y-76672302D01*
X98159358Y-76505880D01*
X98159356Y-76505875D01*
X98067315Y-76356654D01*
X97943345Y-76232684D01*
X97794124Y-76140643D01*
X97794119Y-76140641D01*
X97627697Y-76085494D01*
X97627690Y-76085493D01*
X97524986Y-76075000D01*
X97250000Y-76075000D01*
X96750000Y-76075000D01*
X96475029Y-76075000D01*
X96475007Y-76075002D01*
X96456319Y-76076911D01*
X96387626Y-76064141D01*
X96336743Y-76016259D01*
X96319823Y-75948469D01*
X96322685Y-75926601D01*
X96447528Y-75366383D01*
X96448890Y-75360876D01*
X96463794Y-75305993D01*
X96664789Y-74565809D01*
X96666401Y-74560368D01*
X96667088Y-74558231D01*
X96918564Y-73775980D01*
X96920398Y-73770693D01*
X97208290Y-72998659D01*
X97210367Y-72993459D01*
X97533353Y-72235484D01*
X97535696Y-72230318D01*
X97574366Y-72150000D01*
X99875000Y-72150000D01*
X100712500Y-72150000D01*
X100712500Y-71175000D01*
X100575027Y-71175000D01*
X100575012Y-71175001D01*
X100472302Y-71185494D01*
X100305880Y-71240641D01*
X100305875Y-71240643D01*
X100156654Y-71332684D01*
X100032684Y-71456654D01*
X99940643Y-71605875D01*
X99940641Y-71605880D01*
X99885494Y-71772302D01*
X99885493Y-71772309D01*
X99875000Y-71875013D01*
X99875000Y-72150000D01*
X97574366Y-72150000D01*
X97893106Y-71487969D01*
X97895656Y-71482971D01*
X98286756Y-70757772D01*
X98289534Y-70752892D01*
X98713475Y-70046420D01*
X98716505Y-70041623D01*
X98721525Y-70034067D01*
X99172405Y-69355343D01*
X99175639Y-69350710D01*
X99662524Y-68686089D01*
X99665983Y-68681588D01*
X99755006Y-68571082D01*
X100182846Y-68039993D01*
X100186490Y-68035676D01*
X100732262Y-67418444D01*
X100736121Y-67414278D01*
X100756757Y-67392993D01*
X101309610Y-66822752D01*
X101313606Y-66818816D01*
X101913674Y-66254173D01*
X101917833Y-66250437D01*
X102543158Y-65713926D01*
X102547520Y-65710353D01*
X103197202Y-65202776D01*
X103200066Y-65200607D01*
X103249195Y-65164564D01*
X103249197Y-65164560D01*
X103249268Y-65164509D01*
X103250181Y-65163623D01*
X103250818Y-65163008D01*
X103251791Y-65162075D01*
X103251845Y-65162005D01*
X103251848Y-65162004D01*
X103291300Y-65112074D01*
X103291752Y-65111506D01*
X103331652Y-65061764D01*
X103331653Y-65061761D01*
X103331704Y-65061698D01*
X103332327Y-65060656D01*
X103332765Y-65059926D01*
X103333513Y-65058690D01*
X103333547Y-65058609D01*
X103333552Y-65058604D01*
X103358778Y-65000069D01*
X103359078Y-64999382D01*
X103384693Y-64941125D01*
X103384693Y-64941122D01*
X103384731Y-64941037D01*
X103385108Y-64939708D01*
X103385358Y-64938838D01*
X103385697Y-64937670D01*
X103385709Y-64937584D01*
X103385711Y-64937581D01*
X103394932Y-64874484D01*
X103395057Y-64873653D01*
X103404718Y-64810771D01*
X103404737Y-64809448D01*
X103404753Y-64808559D01*
X103404780Y-64807280D01*
X103404769Y-64807183D01*
X103397346Y-64743859D01*
X103397262Y-64743107D01*
X103390310Y-64679789D01*
X103390025Y-64678661D01*
X103389802Y-64677761D01*
X103389466Y-64676391D01*
X103389428Y-64676296D01*
X103389428Y-64676294D01*
X103365895Y-64617114D01*
X103365596Y-64616354D01*
X103342519Y-64557062D01*
X103342518Y-64557060D01*
X103342482Y-64556968D01*
X103341817Y-64555777D01*
X103341383Y-64554994D01*
X103340789Y-64553912D01*
X103340734Y-64553839D01*
X103340734Y-64553837D01*
X103302621Y-64502676D01*
X103302165Y-64502058D01*
X102706350Y-63689959D01*
X102215506Y-63020935D01*
X102210951Y-63013849D01*
X102209025Y-63011266D01*
X102209024Y-63011263D01*
X102170998Y-62960267D01*
X102170542Y-62959649D01*
X102132897Y-62908338D01*
X102131992Y-62907408D01*
X102131313Y-62906704D01*
X102130343Y-62905691D01*
X102080414Y-62866272D01*
X102079668Y-62865678D01*
X102030078Y-62825904D01*
X102028889Y-62825195D01*
X102028097Y-62824719D01*
X102026907Y-62823997D01*
X101968512Y-62798860D01*
X101967635Y-62798479D01*
X101933956Y-62783671D01*
X101909524Y-62772930D01*
X101909523Y-62772929D01*
X101909421Y-62772885D01*
X101908125Y-62772519D01*
X101907174Y-62772246D01*
X101905875Y-62771867D01*
X101843052Y-62762713D01*
X101842108Y-62762572D01*
X101779155Y-62752902D01*
X101777793Y-62752884D01*
X101776863Y-62752868D01*
X101775469Y-62752838D01*
X101775358Y-62752851D01*
X101772944Y-62753135D01*
X101712341Y-62760264D01*
X101711392Y-62760372D01*
X101648161Y-62767316D01*
X101646957Y-62767621D01*
X101646044Y-62767849D01*
X101644584Y-62768206D01*
X101585505Y-62791728D01*
X101584617Y-62792078D01*
X101525351Y-62815146D01*
X101524117Y-62815837D01*
X101523286Y-62816297D01*
X101522127Y-62816933D01*
X101471142Y-62854949D01*
X101470373Y-62855518D01*
X101416616Y-62894958D01*
X101410182Y-62900401D01*
X101110045Y-63124179D01*
X100415194Y-63689958D01*
X99745101Y-64284852D01*
X99100990Y-64907771D01*
X98484036Y-65557580D01*
X97895345Y-66233112D01*
X97335982Y-66933148D01*
X96807000Y-67656367D01*
X96309317Y-68401518D01*
X96043973Y-68838019D01*
X95869860Y-69124442D01*
X95843868Y-69167199D01*
X95411492Y-69952029D01*
X95012980Y-70754569D01*
X94649038Y-71573405D01*
X94320360Y-72406971D01*
X94027510Y-73253838D01*
X93771051Y-74112374D01*
X93771047Y-74112388D01*
X93771046Y-74112393D01*
X93682963Y-74460802D01*
X93551417Y-74981126D01*
X93369040Y-75858401D01*
X93224231Y-76742680D01*
X93117261Y-77632325D01*
X93048324Y-78525699D01*
X93017543Y-79421235D01*
X93024977Y-80317265D01*
X93070611Y-81212146D01*
X93154359Y-82104260D01*
X93276076Y-82992020D01*
X93435535Y-83873768D01*
X93632447Y-84747916D01*
X93866456Y-85612878D01*
X94137130Y-86467061D01*
X94443977Y-87308919D01*
X94668649Y-87852122D01*
X94786456Y-88136953D01*
X94885572Y-88350343D01*
X95163924Y-88949620D01*
X95575701Y-89745451D01*
X96021040Y-90523003D01*
X96430823Y-91172577D01*
X96499126Y-91280849D01*
X96729244Y-91613312D01*
X97009097Y-92017631D01*
X97550010Y-92731981D01*
X97550015Y-92731987D01*
X98120904Y-93422633D01*
X98120912Y-93422642D01*
X98120913Y-93422643D01*
X98720715Y-94088299D01*
X99122001Y-94497150D01*
X99250281Y-94627849D01*
X99348387Y-94727804D01*
X100002733Y-95339942D01*
X100002740Y-95339948D01*
X100682604Y-95923636D01*
X101386738Y-96477804D01*
X101560892Y-96603221D01*
X102113872Y-97001451D01*
X102862646Y-97493597D01*
X103631734Y-97953374D01*
X103720556Y-98001456D01*
X104419751Y-98379950D01*
X105225225Y-98772529D01*
X106046706Y-99130406D01*
X106882700Y-99452928D01*
X107452470Y-99645258D01*
X107731692Y-99739512D01*
X108500030Y-99962860D01*
X108592121Y-99989630D01*
X109462438Y-100202832D01*
X109462447Y-100202833D01*
X109462452Y-100202835D01*
X109587272Y-100227818D01*
X109852933Y-100280991D01*
X109871887Y-100286381D01*
X109886972Y-100292003D01*
X109920621Y-100295206D01*
X109933210Y-100297060D01*
X109966360Y-100303697D01*
X109982432Y-100302663D01*
X110002134Y-100302965D01*
X110018163Y-100304492D01*
X110051498Y-100298876D01*
X110064117Y-100297411D01*
X110097873Y-100295241D01*
X110113131Y-100290082D01*
X110132240Y-100285275D01*
X110148116Y-100282601D01*
X110178875Y-100268542D01*
X110190683Y-100263862D01*
X110222715Y-100253034D01*
X110236108Y-100244108D01*
X110253328Y-100234515D01*
X110267975Y-100227822D01*
X110294039Y-100206288D01*
X110304240Y-100198706D01*
X110332380Y-100179955D01*
X110343014Y-100167858D01*
X110357163Y-100154138D01*
X110369573Y-100143886D01*
X110389177Y-100116338D01*
X110397068Y-100106375D01*
X110419394Y-100080982D01*
X110426531Y-100066552D01*
X110436656Y-100049623D01*
X110445984Y-100036517D01*
X110457794Y-100004823D01*
X110462828Y-99993178D01*
X110477827Y-99962860D01*
X110480988Y-99947065D01*
X110486379Y-99928118D01*
X110492003Y-99913028D01*
X110495206Y-99879370D01*
X110497059Y-99866791D01*
X110503697Y-99833640D01*
X110502663Y-99817566D01*
X110502964Y-99797875D01*
X110677360Y-97965965D01*
X110679448Y-97952239D01*
X110685792Y-97922027D01*
X110684748Y-97903018D01*
X110685118Y-97884476D01*
X110686924Y-97865515D01*
X110681791Y-97835048D01*
X110680259Y-97821287D01*
X110678566Y-97790441D01*
X110672637Y-97772349D01*
X110668194Y-97754330D01*
X110665033Y-97735563D01*
X110665032Y-97735560D01*
X110652197Y-97707475D01*
X110647142Y-97694546D01*
X110637529Y-97665209D01*
X110627122Y-97649271D01*
X110618167Y-97633018D01*
X110610254Y-97615703D01*
X110590588Y-97591899D01*
X110582357Y-97580716D01*
X110573895Y-97567757D01*
X110565478Y-97554866D01*
X110551296Y-97542160D01*
X110538448Y-97528788D01*
X110526318Y-97514105D01*
X110526314Y-97514102D01*
X110526312Y-97514100D01*
X110501162Y-97496201D01*
X110490324Y-97487534D01*
X110467325Y-97466930D01*
X110457351Y-97461879D01*
X110450329Y-97458323D01*
X110434461Y-97448733D01*
X110418949Y-97437694D01*
X110418944Y-97437692D01*
X110418942Y-97437691D01*
X110390012Y-97426909D01*
X110377301Y-97421343D01*
X110349760Y-97407397D01*
X110349747Y-97407393D01*
X110331112Y-97403480D01*
X110313301Y-97398323D01*
X110295460Y-97391675D01*
X110295458Y-97391674D01*
X110295454Y-97391674D01*
X110270904Y-97389336D01*
X110254406Y-97386633D01*
X109480310Y-97205479D01*
X109474801Y-97204056D01*
X108682042Y-96979721D01*
X108676605Y-96978046D01*
X107895010Y-96717594D01*
X107889655Y-96715672D01*
X107433979Y-96540218D01*
X107378490Y-96497759D01*
X107354765Y-96432041D01*
X107370336Y-96363929D01*
X107420259Y-96315047D01*
X107478535Y-96300500D01*
X108204270Y-96300500D01*
X108234699Y-96297646D01*
X108234701Y-96297646D01*
X108298790Y-96275219D01*
X108362882Y-96252793D01*
X108472150Y-96172150D01*
X108552793Y-96062882D01*
X108584511Y-95972238D01*
X108597646Y-95934701D01*
X108597646Y-95934699D01*
X108600500Y-95904269D01*
X108600500Y-94895730D01*
X108597646Y-94865301D01*
X108594220Y-94855509D01*
X108590657Y-94785730D01*
X108625386Y-94725102D01*
X108687379Y-94692875D01*
X108698661Y-94691195D01*
X108715195Y-94689506D01*
X108870286Y-94638113D01*
X108940115Y-94635711D01*
X109000157Y-94671442D01*
X109031350Y-94733963D01*
X109026332Y-94796774D01*
X109002354Y-94865298D01*
X109002353Y-94865300D01*
X108999500Y-94895730D01*
X108999500Y-95904269D01*
X109002353Y-95934699D01*
X109002353Y-95934701D01*
X109047206Y-96062880D01*
X109047207Y-96062882D01*
X109127850Y-96172150D01*
X109237118Y-96252793D01*
X109279845Y-96267744D01*
X109365299Y-96297646D01*
X109395730Y-96300500D01*
X109395734Y-96300500D01*
X110204270Y-96300500D01*
X110234699Y-96297646D01*
X110234701Y-96297646D01*
X110298790Y-96275219D01*
X110362882Y-96252793D01*
X110472150Y-96172150D01*
X110552793Y-96062882D01*
X110584511Y-95972238D01*
X110597646Y-95934701D01*
X110597646Y-95934699D01*
X110600500Y-95904269D01*
X110600500Y-95874500D01*
X110620185Y-95807461D01*
X110672989Y-95761706D01*
X110724500Y-95750500D01*
X111346142Y-95750500D01*
X111346144Y-95750500D01*
X111376436Y-95742383D01*
X111446285Y-95744044D01*
X111504148Y-95783206D01*
X111531653Y-95847434D01*
X111520067Y-95916336D01*
X111508849Y-95935041D01*
X111484197Y-95968971D01*
X111405591Y-96123242D01*
X111352085Y-96287915D01*
X111325000Y-96458928D01*
X111325000Y-96595500D01*
X112025000Y-96595500D01*
X112025000Y-97095500D01*
X111325000Y-97095500D01*
X111325000Y-97232071D01*
X111352085Y-97403084D01*
X111405591Y-97567757D01*
X111484195Y-97722024D01*
X111585967Y-97862102D01*
X111708397Y-97984532D01*
X111848475Y-98086304D01*
X112002744Y-98164908D01*
X112167415Y-98218414D01*
X112167414Y-98218414D01*
X112174999Y-98219615D01*
X112175000Y-98219614D01*
X112175000Y-97461186D01*
X112179394Y-97465580D01*
X112270606Y-97518241D01*
X112372339Y-97545500D01*
X112477661Y-97545500D01*
X112579394Y-97518241D01*
X112670606Y-97465580D01*
X112675000Y-97461186D01*
X112675000Y-98219615D01*
X112682584Y-98218414D01*
X112847255Y-98164908D01*
X113001524Y-98086304D01*
X113141602Y-97984532D01*
X113264032Y-97862102D01*
X113365804Y-97722024D01*
X113444408Y-97567757D01*
X113497914Y-97403084D01*
X113525000Y-97232071D01*
X113525000Y-97095500D01*
X112825000Y-97095500D01*
X112825000Y-96595500D01*
X113525000Y-96595500D01*
X113525000Y-96458928D01*
X113497914Y-96287915D01*
X113444408Y-96123242D01*
X113365804Y-95968975D01*
X113264032Y-95828897D01*
X113141602Y-95706467D01*
X113001524Y-95604695D01*
X112847257Y-95526091D01*
X112682589Y-95472587D01*
X112682581Y-95472585D01*
X112675000Y-95471384D01*
X112675000Y-96229814D01*
X112670606Y-96225420D01*
X112579394Y-96172759D01*
X112477661Y-96145500D01*
X112372339Y-96145500D01*
X112270606Y-96172759D01*
X112179394Y-96225420D01*
X112175000Y-96229814D01*
X112175000Y-95471384D01*
X112174999Y-95471384D01*
X112167418Y-95472585D01*
X112167406Y-95472588D01*
X112000459Y-95526833D01*
X111930618Y-95528828D01*
X111870785Y-95492748D01*
X111839957Y-95430047D01*
X111847922Y-95360633D01*
X111874457Y-95321224D01*
X112208863Y-94986819D01*
X112270186Y-94953334D01*
X112296544Y-94950500D01*
X114146142Y-94950500D01*
X114146144Y-94950500D01*
X114235288Y-94926614D01*
X114245692Y-94920607D01*
X114315212Y-94880470D01*
X116020113Y-93175569D01*
X116081436Y-93142084D01*
X116107794Y-93139250D01*
X116834892Y-93139250D01*
X116834894Y-93139250D01*
X116924038Y-93115364D01*
X116936152Y-93108370D01*
X116936153Y-93108370D01*
X117003955Y-93069224D01*
X117003954Y-93069224D01*
X117003962Y-93069220D01*
X117280470Y-92792712D01*
X117326614Y-92712788D01*
X117342510Y-92653462D01*
X117350500Y-92623644D01*
X117350500Y-92552000D01*
X117370185Y-92484961D01*
X117422989Y-92439206D01*
X117474500Y-92428000D01*
X117669750Y-92428000D01*
X117725808Y-92416849D01*
X117774192Y-92416849D01*
X117830249Y-92428000D01*
X118075500Y-92428000D01*
X118142539Y-92447685D01*
X118188294Y-92500489D01*
X118199500Y-92552000D01*
X118199500Y-93060367D01*
X118203198Y-93074167D01*
X118219979Y-93136796D01*
X118219980Y-93136797D01*
X118245841Y-93181589D01*
X118245843Y-93181592D01*
X118245844Y-93181593D01*
X118256889Y-93200724D01*
X118259542Y-93205319D01*
X118259543Y-93205320D01*
X118963439Y-93909215D01*
X119638735Y-94584511D01*
X119694684Y-94640460D01*
X119694686Y-94640461D01*
X119694690Y-94640464D01*
X119763199Y-94680017D01*
X119763202Y-94680019D01*
X119763206Y-94680021D01*
X119839633Y-94700500D01*
X119839635Y-94700500D01*
X122752060Y-94700500D01*
X122752062Y-94700500D01*
X122828489Y-94680021D01*
X122894148Y-94642113D01*
X122956148Y-94625500D01*
X123595663Y-94625500D01*
X123662702Y-94645185D01*
X123708457Y-94697989D01*
X123718401Y-94767147D01*
X123689376Y-94830703D01*
X123661268Y-94854723D01*
X123168771Y-95161788D01*
X123163990Y-95164622D01*
X122475489Y-95552172D01*
X122474886Y-95552510D01*
X122461516Y-95559938D01*
X122459686Y-95560935D01*
X122406194Y-95589487D01*
X122404521Y-95590685D01*
X122404085Y-95590960D01*
X122403540Y-95591365D01*
X122401893Y-95592565D01*
X122401388Y-95592926D01*
X122401009Y-95593242D01*
X122399337Y-95594481D01*
X122355755Y-95636648D01*
X122354246Y-95638084D01*
X122309959Y-95679514D01*
X122308656Y-95681100D01*
X122308304Y-95681481D01*
X122307869Y-95682030D01*
X122306613Y-95683585D01*
X122306199Y-95684088D01*
X122305911Y-95684497D01*
X122304628Y-95686112D01*
X122273428Y-95738150D01*
X122272342Y-95739926D01*
X122240300Y-95791386D01*
X122239444Y-95793273D01*
X122239209Y-95793722D01*
X122238954Y-95794310D01*
X122238138Y-95796149D01*
X122237857Y-95796767D01*
X122237676Y-95797261D01*
X122236859Y-95799144D01*
X122236859Y-95799145D01*
X122220191Y-95857478D01*
X122219623Y-95859404D01*
X122208497Y-95896004D01*
X122170166Y-95954420D01*
X122106337Y-95982839D01*
X122037276Y-95972238D01*
X121989540Y-95932824D01*
X121914038Y-95828904D01*
X121914034Y-95828899D01*
X121791602Y-95706467D01*
X121651524Y-95604695D01*
X121497257Y-95526091D01*
X121332589Y-95472587D01*
X121332581Y-95472585D01*
X121325000Y-95471384D01*
X121325000Y-96229814D01*
X121320606Y-96225420D01*
X121229394Y-96172759D01*
X121127661Y-96145500D01*
X121022339Y-96145500D01*
X120920606Y-96172759D01*
X120829394Y-96225420D01*
X120825000Y-96229814D01*
X120825000Y-95471384D01*
X120824999Y-95471384D01*
X120817418Y-95472585D01*
X120817410Y-95472587D01*
X120652742Y-95526091D01*
X120498475Y-95604695D01*
X120358397Y-95706467D01*
X120235967Y-95828897D01*
X120134195Y-95968975D01*
X120055591Y-96123242D01*
X120002085Y-96287915D01*
X119975000Y-96458928D01*
X119975000Y-96595500D01*
X120675000Y-96595500D01*
X120675000Y-97095500D01*
X119975000Y-97095500D01*
X119975000Y-97232071D01*
X120002085Y-97403084D01*
X120055591Y-97567757D01*
X120134195Y-97722024D01*
X120235967Y-97862102D01*
X120358397Y-97984532D01*
X120498475Y-98086304D01*
X120652744Y-98164908D01*
X120817415Y-98218414D01*
X120817414Y-98218414D01*
X120824999Y-98219615D01*
X120825000Y-98219614D01*
X120825000Y-97461186D01*
X120829394Y-97465580D01*
X120920606Y-97518241D01*
X121022339Y-97545500D01*
X121127661Y-97545500D01*
X121229394Y-97518241D01*
X121320606Y-97465580D01*
X121325000Y-97461186D01*
X121325000Y-98219615D01*
X121332584Y-98218414D01*
X121497255Y-98164908D01*
X121651524Y-98086304D01*
X121791602Y-97984532D01*
X121914032Y-97862102D01*
X122015804Y-97722024D01*
X122094408Y-97567757D01*
X122147914Y-97403084D01*
X122175000Y-97232071D01*
X122175000Y-97095500D01*
X121475000Y-97095500D01*
X121475000Y-96595500D01*
X122175000Y-96595500D01*
X122175000Y-96564124D01*
X122194685Y-96497085D01*
X122247489Y-96451330D01*
X122316647Y-96441386D01*
X122380203Y-96470411D01*
X122407391Y-96503898D01*
X123260028Y-98038645D01*
X123260952Y-98040341D01*
X123289629Y-98094004D01*
X123290638Y-98095412D01*
X123290920Y-98095857D01*
X123291389Y-98096490D01*
X123292603Y-98098155D01*
X123293120Y-98098877D01*
X123293463Y-98099288D01*
X123294482Y-98100663D01*
X123336772Y-98144372D01*
X123338115Y-98145782D01*
X123356025Y-98164908D01*
X123379708Y-98190199D01*
X123381030Y-98191284D01*
X123381426Y-98191649D01*
X123382105Y-98192188D01*
X123383704Y-98193479D01*
X123384353Y-98194012D01*
X123384782Y-98194314D01*
X123386119Y-98195375D01*
X123426547Y-98219614D01*
X123438273Y-98226644D01*
X123439968Y-98227679D01*
X123491612Y-98259801D01*
X123491618Y-98259803D01*
X123493162Y-98260503D01*
X123493631Y-98260748D01*
X123494404Y-98261084D01*
X123496274Y-98261913D01*
X123497099Y-98262287D01*
X123497598Y-98262470D01*
X123499141Y-98263138D01*
X123499145Y-98263141D01*
X123557599Y-98279842D01*
X123559493Y-98280399D01*
X123617718Y-98298068D01*
X123617723Y-98298068D01*
X123619402Y-98298346D01*
X123619927Y-98298463D01*
X123620783Y-98298591D01*
X123622774Y-98298903D01*
X123623638Y-98299045D01*
X123624179Y-98299094D01*
X123625848Y-98299341D01*
X123625859Y-98299345D01*
X123686679Y-98300347D01*
X123688638Y-98300396D01*
X123749431Y-98302393D01*
X123749444Y-98302389D01*
X123751105Y-98302227D01*
X123751643Y-98302205D01*
X123752500Y-98302107D01*
X123754568Y-98301886D01*
X123755426Y-98301801D01*
X123755953Y-98301710D01*
X123757615Y-98301518D01*
X123757625Y-98301519D01*
X123816606Y-98286753D01*
X123818536Y-98286287D01*
X123877775Y-98272481D01*
X123877782Y-98272477D01*
X123879351Y-98271887D01*
X123879870Y-98271725D01*
X123880679Y-98271406D01*
X123882602Y-98270664D01*
X123883399Y-98270364D01*
X123883885Y-98270139D01*
X123885451Y-98269519D01*
X123885464Y-98269516D01*
X123938666Y-98239958D01*
X123940258Y-98239090D01*
X124323364Y-98034393D01*
X125080318Y-97588284D01*
X125817980Y-97110949D01*
X126535062Y-96603223D01*
X127230314Y-96065991D01*
X127902521Y-95500191D01*
X127932665Y-95472588D01*
X128054923Y-95360633D01*
X128550512Y-94906810D01*
X129173155Y-94286883D01*
X129769363Y-93641493D01*
X130338097Y-92971766D01*
X130878364Y-92278870D01*
X131389221Y-91564014D01*
X131869776Y-90828447D01*
X132250446Y-90188940D01*
X132319178Y-90073473D01*
X132319178Y-90073471D01*
X132319191Y-90073451D01*
X132736682Y-89300344D01*
X133121520Y-88510475D01*
X133473033Y-87705223D01*
X133790609Y-86885992D01*
X134073692Y-86054213D01*
X134321790Y-85211336D01*
X134502934Y-84485240D01*
X134534467Y-84358843D01*
X134549028Y-84288000D01*
X134603775Y-84021625D01*
X134711356Y-83498198D01*
X134764818Y-83168868D01*
X134803102Y-82933034D01*
X134833275Y-82870016D01*
X134892728Y-82833313D01*
X134962586Y-82834580D01*
X135020670Y-82873414D01*
X135048538Y-82937485D01*
X135049500Y-82952904D01*
X135049500Y-91332745D01*
X135029815Y-91399784D01*
X135013181Y-91420426D01*
X134559009Y-91874597D01*
X134506263Y-91905893D01*
X134389949Y-91940045D01*
X134268873Y-92017856D01*
X134174623Y-92126626D01*
X134174622Y-92126628D01*
X134114834Y-92257543D01*
X134094353Y-92400000D01*
X134114834Y-92542456D01*
X134174622Y-92673371D01*
X134174623Y-92673373D01*
X134268872Y-92782143D01*
X134389947Y-92859953D01*
X134389950Y-92859954D01*
X134389949Y-92859954D01*
X134493335Y-92890310D01*
X134517171Y-92897309D01*
X134528036Y-92900499D01*
X134528038Y-92900500D01*
X134528039Y-92900500D01*
X134671962Y-92900500D01*
X134671962Y-92900499D01*
X134779121Y-92869035D01*
X134810050Y-92859954D01*
X134810050Y-92859953D01*
X134810053Y-92859953D01*
X134931128Y-92782143D01*
X135025377Y-92673373D01*
X135085165Y-92542457D01*
X135089573Y-92511797D01*
X135118597Y-92448241D01*
X135124617Y-92441774D01*
X135685703Y-91880687D01*
X135685708Y-91880684D01*
X135695911Y-91870480D01*
X135695913Y-91870480D01*
X135770480Y-91795913D01*
X135823207Y-91704587D01*
X135829716Y-91680295D01*
X135832750Y-91668975D01*
X135847672Y-91613284D01*
X135850501Y-91602726D01*
X135850501Y-91497273D01*
X135850501Y-91489678D01*
X135850500Y-91489660D01*
X135850500Y-73977275D01*
X135850500Y-73977273D01*
X135823207Y-73875413D01*
X135823207Y-73875412D01*
X135770480Y-73784087D01*
X135226649Y-73240256D01*
X135193164Y-73178933D01*
X135195669Y-73116580D01*
X135235300Y-72985934D01*
X135255583Y-72780000D01*
X135235300Y-72574066D01*
X135175232Y-72376046D01*
X135077685Y-72193550D01*
X135018254Y-72121133D01*
X134946410Y-72033589D01*
X134786452Y-71902317D01*
X134786453Y-71902317D01*
X134786450Y-71902315D01*
X134603954Y-71804768D01*
X134405934Y-71744700D01*
X134405932Y-71744699D01*
X134405934Y-71744699D01*
X134200000Y-71724417D01*
X133994067Y-71744699D01*
X133796043Y-71804769D01*
X133695418Y-71858555D01*
X133613550Y-71902315D01*
X133613548Y-71902316D01*
X133613547Y-71902317D01*
X133453589Y-72033589D01*
X133322817Y-72192938D01*
X133322315Y-72193550D01*
X133289209Y-72255487D01*
X133224769Y-72376043D01*
X133164699Y-72574067D01*
X133144417Y-72780000D01*
X133164699Y-72985932D01*
X133194734Y-73084944D01*
X133224768Y-73183954D01*
X133322315Y-73366450D01*
X133343929Y-73392787D01*
X133453589Y-73526410D01*
X133501682Y-73565878D01*
X133613550Y-73657685D01*
X133796046Y-73755232D01*
X133994066Y-73815300D01*
X133994065Y-73815300D01*
X133997538Y-73815642D01*
X134200000Y-73835583D01*
X134405934Y-73815300D01*
X134536581Y-73775668D01*
X134606447Y-73775046D01*
X134660256Y-73806649D01*
X134911426Y-74057819D01*
X134944911Y-74119142D01*
X134939927Y-74188834D01*
X134898055Y-74244767D01*
X134832591Y-74269184D01*
X134823745Y-74269500D01*
X133330247Y-74269500D01*
X133271770Y-74281131D01*
X133271769Y-74281132D01*
X133205447Y-74325447D01*
X133161132Y-74391769D01*
X133161131Y-74391770D01*
X133149500Y-74450247D01*
X133149500Y-74745500D01*
X133129815Y-74812539D01*
X133077011Y-74858294D01*
X133025500Y-74869500D01*
X131624500Y-74869500D01*
X131557461Y-74849815D01*
X131511706Y-74797011D01*
X131500500Y-74745500D01*
X131500500Y-74253193D01*
X131500500Y-74253191D01*
X131469799Y-74138614D01*
X131469799Y-74138613D01*
X131410489Y-74035886D01*
X130561819Y-73187216D01*
X130528334Y-73125893D01*
X130525500Y-73099535D01*
X130525500Y-72367835D01*
X130526445Y-72367835D01*
X130542047Y-72303675D01*
X130592640Y-72255487D01*
X130659206Y-72242121D01*
X130667107Y-72242748D01*
X130731748Y-72248155D01*
X130731748Y-72248154D01*
X130731773Y-72248157D01*
X130732533Y-72248118D01*
X130733044Y-72248092D01*
X130733867Y-72248052D01*
X130733890Y-72248047D01*
X130733896Y-72248048D01*
X130797482Y-72236303D01*
X130797801Y-72236246D01*
X130861441Y-72224774D01*
X130861444Y-72224772D01*
X130861469Y-72224768D01*
X130862265Y-72224511D01*
X130862736Y-72224360D01*
X130863463Y-72224127D01*
X130863487Y-72224115D01*
X130863489Y-72224115D01*
X130922081Y-72196214D01*
X132681467Y-71367586D01*
X132685736Y-71365899D01*
X132690615Y-71363576D01*
X132690616Y-71363576D01*
X132749139Y-71335715D01*
X132807847Y-71308066D01*
X132807851Y-71308062D01*
X132807867Y-71308055D01*
X132808522Y-71307632D01*
X132808863Y-71307412D01*
X132809586Y-71306946D01*
X132809601Y-71306932D01*
X132809605Y-71306931D01*
X132858894Y-71264897D01*
X132908475Y-71222971D01*
X132908475Y-71222969D01*
X132908491Y-71222957D01*
X132908937Y-71222463D01*
X132909244Y-71222124D01*
X132909861Y-71221444D01*
X132909875Y-71221423D01*
X132909879Y-71221420D01*
X132946657Y-71167994D01*
X132983649Y-71114732D01*
X132983649Y-71114729D01*
X132983662Y-71114712D01*
X132984133Y-71113791D01*
X132984344Y-71113379D01*
X132984600Y-71112881D01*
X132984602Y-71112873D01*
X132984605Y-71112870D01*
X133006255Y-71051875D01*
X133006425Y-71051401D01*
X133012754Y-71033800D01*
X133028248Y-70990723D01*
X133028248Y-70990720D01*
X133028258Y-70990693D01*
X133028446Y-70989816D01*
X133028532Y-70989416D01*
X133028687Y-70988699D01*
X133033784Y-70924556D01*
X133033825Y-70924043D01*
X133034142Y-70920248D01*
X133039232Y-70859397D01*
X133039231Y-70859391D01*
X133039233Y-70859369D01*
X133039199Y-70858692D01*
X133039175Y-70858222D01*
X133039132Y-70857336D01*
X133039127Y-70857312D01*
X133039128Y-70857308D01*
X133027369Y-70793594D01*
X133025848Y-70785157D01*
X133033324Y-70715690D01*
X133074842Y-70664180D01*
X133013979Y-70655982D01*
X132960769Y-70610700D01*
X132952529Y-70596045D01*
X132797720Y-70270855D01*
X132386429Y-69492675D01*
X131942899Y-68732408D01*
X131911740Y-68683798D01*
X131467902Y-67991381D01*
X131438861Y-67950000D01*
X132869364Y-67950000D01*
X132926567Y-68163486D01*
X132926570Y-68163492D01*
X133026399Y-68377578D01*
X133161894Y-68571082D01*
X133328917Y-68738105D01*
X133522421Y-68873600D01*
X133736507Y-68973429D01*
X133736516Y-68973433D01*
X133858649Y-69006158D01*
X133918310Y-69042523D01*
X133948839Y-69105369D01*
X133940545Y-69174745D01*
X133896059Y-69228623D01*
X133862552Y-69244593D01*
X133796046Y-69264767D01*
X133665358Y-69334622D01*
X133613550Y-69362315D01*
X133613548Y-69362316D01*
X133613547Y-69362317D01*
X133453589Y-69493589D01*
X133322317Y-69653547D01*
X133322315Y-69653550D01*
X133285851Y-69721769D01*
X133224769Y-69836043D01*
X133164699Y-70034067D01*
X133144417Y-70240000D01*
X133164699Y-70445934D01*
X133183144Y-70506739D01*
X133183767Y-70576606D01*
X133146518Y-70635719D01*
X133127969Y-70644390D01*
X133143467Y-70639234D01*
X133211164Y-70656520D01*
X133257238Y-70704701D01*
X133322315Y-70826450D01*
X133348500Y-70858357D01*
X133453589Y-70986410D01*
X133532782Y-71051401D01*
X133613550Y-71117685D01*
X133796046Y-71215232D01*
X133994066Y-71275300D01*
X133994065Y-71275300D01*
X134012529Y-71277118D01*
X134200000Y-71295583D01*
X134405934Y-71275300D01*
X134603954Y-71215232D01*
X134786450Y-71117685D01*
X134946410Y-70986410D01*
X135077685Y-70826450D01*
X135175232Y-70643954D01*
X135235300Y-70445934D01*
X135255583Y-70240000D01*
X135235300Y-70034066D01*
X135175232Y-69836046D01*
X135077685Y-69653550D01*
X135011668Y-69573108D01*
X134946410Y-69493589D01*
X134786452Y-69362317D01*
X134786453Y-69362317D01*
X134786450Y-69362315D01*
X134603954Y-69264768D01*
X134537447Y-69244593D01*
X134479009Y-69206296D01*
X134450553Y-69142484D01*
X134461113Y-69073417D01*
X134507337Y-69021023D01*
X134541350Y-69006158D01*
X134663483Y-68973433D01*
X134663492Y-68973429D01*
X134877578Y-68873600D01*
X135071082Y-68738105D01*
X135238105Y-68571082D01*
X135373600Y-68377578D01*
X135473429Y-68163492D01*
X135473432Y-68163486D01*
X135530636Y-67950000D01*
X134633012Y-67950000D01*
X134665925Y-67892993D01*
X134700000Y-67765826D01*
X134700000Y-67634174D01*
X134665925Y-67507007D01*
X134633012Y-67450000D01*
X135530636Y-67450000D01*
X135530635Y-67449999D01*
X135473432Y-67236513D01*
X135473429Y-67236507D01*
X135373600Y-67022422D01*
X135373599Y-67022420D01*
X135238113Y-66828926D01*
X135238108Y-66828920D01*
X135071082Y-66661894D01*
X134877578Y-66526399D01*
X134663492Y-66426570D01*
X134663486Y-66426567D01*
X134450000Y-66369364D01*
X134450000Y-67266988D01*
X134392993Y-67234075D01*
X134265826Y-67200000D01*
X134134174Y-67200000D01*
X134007007Y-67234075D01*
X133950000Y-67266988D01*
X133950000Y-66369364D01*
X133949999Y-66369364D01*
X133736513Y-66426567D01*
X133736507Y-66426570D01*
X133522422Y-66526399D01*
X133522420Y-66526400D01*
X133328926Y-66661886D01*
X133328920Y-66661891D01*
X133161891Y-66828920D01*
X133161886Y-66828926D01*
X133026400Y-67022420D01*
X133026399Y-67022422D01*
X132926570Y-67236507D01*
X132926567Y-67236513D01*
X132869364Y-67449999D01*
X132869364Y-67450000D01*
X133766988Y-67450000D01*
X133734075Y-67507007D01*
X133700000Y-67634174D01*
X133700000Y-67765826D01*
X133734075Y-67892993D01*
X133766988Y-67950000D01*
X132869364Y-67950000D01*
X131438861Y-67950000D01*
X130962295Y-67270929D01*
X130925411Y-67222795D01*
X130714146Y-66947088D01*
X130426931Y-66572264D01*
X129862781Y-65896659D01*
X129748652Y-65771074D01*
X129270811Y-65245268D01*
X128652078Y-64619254D01*
X128221875Y-64219008D01*
X128007669Y-64019718D01*
X127338689Y-63447685D01*
X126646353Y-62904199D01*
X125931833Y-62390178D01*
X125196445Y-61906567D01*
X125012669Y-61796453D01*
X124441406Y-61454167D01*
X123668090Y-61033801D01*
X123401731Y-60903157D01*
X123069395Y-60740153D01*
X123017874Y-60692958D01*
X123000000Y-60628823D01*
X123000000Y-58336631D01*
X123019685Y-58269592D01*
X123072489Y-58223837D01*
X123124379Y-58212633D01*
X136375886Y-58253722D01*
X136442863Y-58273614D01*
X136488454Y-58326560D01*
X136499500Y-58377721D01*
X136499500Y-101375500D01*
X136479815Y-101442539D01*
X136427011Y-101488294D01*
X136375500Y-101499500D01*
X91624500Y-101499500D01*
X91557461Y-101479815D01*
X91511706Y-101427011D01*
X91500500Y-101375500D01*
X91500500Y-58238958D01*
X91520185Y-58171919D01*
X91572989Y-58126164D01*
X91624876Y-58114960D01*
X104876388Y-58156050D01*
G37*
%TD.AperFunction*%
%TA.AperFunction,Conductor*%
G36*
X96835837Y-84671858D02*
G01*
X96871995Y-84696966D01*
X97552989Y-85377960D01*
X97621512Y-85417522D01*
X97697938Y-85438000D01*
X97697940Y-85438000D01*
X98101000Y-85438000D01*
X98168039Y-85457685D01*
X98213794Y-85510489D01*
X98225000Y-85562000D01*
X98225000Y-85630553D01*
X98235613Y-85718943D01*
X98291079Y-85859595D01*
X98382435Y-85980064D01*
X98502905Y-86071420D01*
X98503347Y-86071595D01*
X98503691Y-86071863D01*
X98510297Y-86075577D01*
X98509739Y-86076568D01*
X98558493Y-86114499D01*
X98560963Y-86118060D01*
X98592381Y-86165082D01*
X98594399Y-86168101D01*
X98677260Y-86223466D01*
X98737193Y-86235387D01*
X98799101Y-86267771D01*
X98833676Y-86328486D01*
X98837000Y-86357004D01*
X98837000Y-88777062D01*
X98845385Y-88808353D01*
X98857479Y-88853490D01*
X98857480Y-88853491D01*
X98885825Y-88902586D01*
X98897040Y-88922011D01*
X100030044Y-90055015D01*
X100098567Y-90094577D01*
X100174993Y-90115055D01*
X100175001Y-90115055D01*
X100183053Y-90116116D01*
X100182606Y-90119503D01*
X100234495Y-90134740D01*
X100255137Y-90151374D01*
X101276132Y-91172370D01*
X101276136Y-91172373D01*
X101276138Y-91172375D01*
X101325718Y-91205503D01*
X101403947Y-91221064D01*
X101403949Y-91221064D01*
X101403951Y-91221064D01*
X101456103Y-91210690D01*
X101482180Y-91205503D01*
X101531760Y-91172375D01*
X102659771Y-90044364D01*
X102721094Y-90010879D01*
X102790786Y-90015863D01*
X102835133Y-90044364D01*
X102863181Y-90072412D01*
X102896666Y-90133735D01*
X102899500Y-90160093D01*
X102899500Y-90512027D01*
X102879815Y-90579066D01*
X102827011Y-90624821D01*
X102811496Y-90630687D01*
X102796046Y-90635373D01*
X102702430Y-90685413D01*
X102613550Y-90732921D01*
X102613548Y-90732922D01*
X102613547Y-90732923D01*
X102453589Y-90864195D01*
X102322317Y-91024153D01*
X102224769Y-91206649D01*
X102164699Y-91404673D01*
X102144417Y-91610606D01*
X102164699Y-91816538D01*
X102182311Y-91874597D01*
X102224768Y-92014560D01*
X102322315Y-92197056D01*
X102322317Y-92197058D01*
X102453589Y-92357016D01*
X102525910Y-92416367D01*
X102613550Y-92488291D01*
X102796046Y-92585838D01*
X102994066Y-92645906D01*
X102994065Y-92645906D01*
X103007265Y-92647206D01*
X103200000Y-92666189D01*
X103405934Y-92645906D01*
X103603954Y-92585838D01*
X103786450Y-92488291D01*
X103946410Y-92357016D01*
X104077685Y-92197056D01*
X104175232Y-92014560D01*
X104235300Y-91816540D01*
X104255583Y-91610606D01*
X104235300Y-91404672D01*
X104175232Y-91206652D01*
X104123900Y-91110618D01*
X104109659Y-91042217D01*
X104134659Y-90976973D01*
X104190963Y-90935602D01*
X104260697Y-90931240D01*
X104320940Y-90964485D01*
X104659232Y-91302777D01*
X104692717Y-91364100D01*
X104695551Y-91390458D01*
X104695551Y-92308078D01*
X104675866Y-92375117D01*
X104623062Y-92420872D01*
X104607547Y-92426738D01*
X104592097Y-92431424D01*
X104485709Y-92488291D01*
X104409601Y-92528972D01*
X104409599Y-92528973D01*
X104409598Y-92528974D01*
X104249640Y-92660246D01*
X104119894Y-92818345D01*
X104118366Y-92820207D01*
X104080895Y-92890310D01*
X104020820Y-93002700D01*
X103960750Y-93200724D01*
X103940468Y-93406657D01*
X103960750Y-93612589D01*
X103966444Y-93631358D01*
X104020819Y-93810611D01*
X104118366Y-93993107D01*
X104146190Y-94027011D01*
X104249640Y-94153067D01*
X104289721Y-94185960D01*
X104409601Y-94284342D01*
X104592097Y-94381889D01*
X104790117Y-94441957D01*
X104790116Y-94441957D01*
X104808580Y-94443775D01*
X104996051Y-94462240D01*
X105201985Y-94441957D01*
X105400005Y-94381889D01*
X105582501Y-94284342D01*
X105742461Y-94153067D01*
X105873736Y-93993107D01*
X105971283Y-93810611D01*
X106031351Y-93612591D01*
X106051634Y-93406657D01*
X106047876Y-93368508D01*
X106060894Y-93299866D01*
X106108958Y-93249155D01*
X106176808Y-93232479D01*
X106242903Y-93255134D01*
X106258960Y-93268675D01*
X106863181Y-93872896D01*
X106896666Y-93934219D01*
X106899500Y-93960577D01*
X106899500Y-94424306D01*
X106904230Y-94441957D01*
X106919979Y-94500734D01*
X106919982Y-94500739D01*
X106959535Y-94569248D01*
X106959541Y-94569256D01*
X107012900Y-94622615D01*
X107046385Y-94683938D01*
X107042261Y-94751250D01*
X107002353Y-94865301D01*
X106999500Y-94895730D01*
X106999500Y-95904269D01*
X107002353Y-95934699D01*
X107002353Y-95934701D01*
X107047206Y-96062880D01*
X107047207Y-96062882D01*
X107125560Y-96169048D01*
X107149531Y-96234675D01*
X107134216Y-96302845D01*
X107084476Y-96351914D01*
X107016103Y-96366301D01*
X106975972Y-96356233D01*
X106361090Y-96086473D01*
X106355934Y-96084068D01*
X105897662Y-95857405D01*
X105617457Y-95718814D01*
X105612434Y-95716185D01*
X104891483Y-95317438D01*
X104886569Y-95314571D01*
X104184673Y-94883175D01*
X104179895Y-94880085D01*
X103498530Y-94416948D01*
X103493920Y-94413658D01*
X102834489Y-93919733D01*
X102830022Y-93916224D01*
X102291396Y-93472799D01*
X102193957Y-93392582D01*
X102189656Y-93388872D01*
X102180069Y-93380212D01*
X101886874Y-93115362D01*
X101578312Y-92836631D01*
X101574178Y-92832722D01*
X100988760Y-92252970D01*
X100984811Y-92248875D01*
X100426618Y-91642896D01*
X100422907Y-91638677D01*
X99893088Y-91007718D01*
X99889539Y-91003289D01*
X99869425Y-90976973D01*
X99608337Y-90635374D01*
X99389242Y-90348717D01*
X99385892Y-90344119D01*
X98916152Y-89667295D01*
X98913016Y-89662548D01*
X98474809Y-88964874D01*
X98471894Y-88959987D01*
X98066168Y-88242975D01*
X98063480Y-88237961D01*
X97859479Y-87835410D01*
X97691052Y-87503056D01*
X97688601Y-87497930D01*
X97679713Y-87478196D01*
X97418321Y-86897800D01*
X97350278Y-86746716D01*
X97348062Y-86741476D01*
X97180201Y-86317857D01*
X97044564Y-85975561D01*
X97042592Y-85970229D01*
X97042297Y-85969373D01*
X96774549Y-85191200D01*
X96772822Y-85185782D01*
X96665333Y-84819569D01*
X96665340Y-84749700D01*
X96703121Y-84690926D01*
X96766679Y-84661907D01*
X96835837Y-84671858D01*
G37*
%TD.AperFunction*%
%TA.AperFunction,Conductor*%
G36*
X129918039Y-85444685D02*
G01*
X129963794Y-85497489D01*
X129975000Y-85549000D01*
X129975000Y-86275000D01*
X130542533Y-86275000D01*
X130609572Y-86294685D01*
X130655327Y-86347489D01*
X130665271Y-86416647D01*
X130657420Y-86445657D01*
X130500235Y-86832705D01*
X130498029Y-86837806D01*
X130164062Y-87564879D01*
X130161630Y-87569876D01*
X130085875Y-87717033D01*
X130037689Y-87767629D01*
X129969799Y-87784141D01*
X129903758Y-87761328D01*
X129860536Y-87706432D01*
X129856648Y-87695209D01*
X129855985Y-87692951D01*
X129839559Y-87656983D01*
X129796198Y-87562037D01*
X129701949Y-87453267D01*
X129580874Y-87375457D01*
X129580872Y-87375456D01*
X129580870Y-87375455D01*
X129580871Y-87375455D01*
X129442784Y-87334910D01*
X129442782Y-87334910D01*
X129298860Y-87334910D01*
X129298857Y-87334910D01*
X129160771Y-87375455D01*
X129153984Y-87379817D01*
X129086947Y-87399500D01*
X128595730Y-87399500D01*
X128565300Y-87402353D01*
X128565298Y-87402353D01*
X128437119Y-87447206D01*
X128437117Y-87447207D01*
X128327850Y-87527850D01*
X128247207Y-87637117D01*
X128247206Y-87637119D01*
X128202353Y-87765298D01*
X128202353Y-87765300D01*
X128199500Y-87795730D01*
X128199500Y-88804269D01*
X128202353Y-88834699D01*
X128202353Y-88834701D01*
X128242566Y-88949619D01*
X128247207Y-88962882D01*
X128327850Y-89072150D01*
X128437118Y-89152793D01*
X128479845Y-89167744D01*
X128565299Y-89197646D01*
X128595730Y-89200500D01*
X128595734Y-89200500D01*
X129030208Y-89200500D01*
X129097247Y-89220185D01*
X129143002Y-89272989D01*
X129152946Y-89342147D01*
X129134934Y-89390894D01*
X129113610Y-89424529D01*
X128963744Y-89660905D01*
X128960664Y-89665530D01*
X128502375Y-90321411D01*
X128499091Y-90325894D01*
X128011897Y-90960551D01*
X128008414Y-90964883D01*
X127493260Y-91577087D01*
X127489588Y-91581258D01*
X126947506Y-92169777D01*
X126943650Y-92173779D01*
X126375769Y-92737391D01*
X126371738Y-92741217D01*
X125779146Y-93278843D01*
X125774947Y-93282484D01*
X125158870Y-93793008D01*
X125154512Y-93796457D01*
X124516193Y-94278851D01*
X124511685Y-94282102D01*
X124268734Y-94449148D01*
X124202340Y-94470910D01*
X124134721Y-94453322D01*
X124087344Y-94401968D01*
X124075252Y-94333153D01*
X124081436Y-94306021D01*
X124097646Y-94259699D01*
X124100500Y-94229266D01*
X124100500Y-93595734D01*
X124097646Y-93565301D01*
X124097646Y-93565300D01*
X124097646Y-93565298D01*
X124052793Y-93437119D01*
X124052792Y-93437117D01*
X124042110Y-93422643D01*
X123972150Y-93327850D01*
X123889396Y-93266775D01*
X123847147Y-93211129D01*
X123841688Y-93141472D01*
X123874756Y-93079923D01*
X123924028Y-93049300D01*
X123969117Y-93034359D01*
X123969124Y-93034356D01*
X124118345Y-92942315D01*
X124242315Y-92818345D01*
X124334356Y-92669124D01*
X124334358Y-92669119D01*
X124389505Y-92502697D01*
X124389506Y-92502690D01*
X124399999Y-92399986D01*
X124400000Y-92399973D01*
X124400000Y-92337500D01*
X123074000Y-92337500D01*
X123006961Y-92317815D01*
X122961206Y-92265011D01*
X122950000Y-92213500D01*
X122950000Y-91075000D01*
X123450000Y-91075000D01*
X123450000Y-91837500D01*
X124399999Y-91837500D01*
X124399999Y-91775028D01*
X124399998Y-91775013D01*
X124389505Y-91672302D01*
X124334358Y-91505880D01*
X124334356Y-91505875D01*
X124242315Y-91356654D01*
X124118345Y-91232684D01*
X123969124Y-91140643D01*
X123969119Y-91140641D01*
X123802697Y-91085494D01*
X123802690Y-91085493D01*
X123699986Y-91075000D01*
X123450000Y-91075000D01*
X122950000Y-91075000D01*
X122700029Y-91075000D01*
X122700012Y-91075001D01*
X122597302Y-91085494D01*
X122430880Y-91140641D01*
X122430875Y-91140643D01*
X122281654Y-91232684D01*
X122157683Y-91356655D01*
X122157680Y-91356659D01*
X122081349Y-91480411D01*
X122029401Y-91527136D01*
X121960439Y-91538357D01*
X121896357Y-91510514D01*
X121888130Y-91502995D01*
X121791602Y-91406467D01*
X121651524Y-91304695D01*
X121497257Y-91226091D01*
X121332589Y-91172587D01*
X121332581Y-91172585D01*
X121325000Y-91171384D01*
X121325000Y-91929814D01*
X121320606Y-91925420D01*
X121229394Y-91872759D01*
X121127661Y-91845500D01*
X121022339Y-91845500D01*
X120920606Y-91872759D01*
X120829394Y-91925420D01*
X120825000Y-91929814D01*
X120825000Y-91171383D01*
X120793474Y-91144461D01*
X120755277Y-91085956D01*
X120750000Y-91050166D01*
X120750000Y-90879672D01*
X120749999Y-90879655D01*
X120743598Y-90820127D01*
X120743596Y-90820120D01*
X120693354Y-90685413D01*
X120693350Y-90685406D01*
X120607190Y-90570312D01*
X120607187Y-90570309D01*
X120492093Y-90484149D01*
X120492086Y-90484145D01*
X120357379Y-90433903D01*
X120357372Y-90433901D01*
X120297844Y-90427500D01*
X120290511Y-90427500D01*
X120223472Y-90407815D01*
X120177717Y-90355011D01*
X120167773Y-90285853D01*
X120196798Y-90222297D01*
X120233293Y-90195979D01*
X120233076Y-90195653D01*
X120242204Y-90189553D01*
X120243055Y-90188940D01*
X120243228Y-90188867D01*
X120243231Y-90188867D01*
X120281108Y-90163558D01*
X120347785Y-90142679D01*
X120415165Y-90161163D01*
X120418892Y-90163558D01*
X120456768Y-90188867D01*
X120456770Y-90188868D01*
X120515247Y-90200499D01*
X120515250Y-90200500D01*
X120515252Y-90200500D01*
X121454750Y-90200500D01*
X121454751Y-90200499D01*
X121477477Y-90195979D01*
X121513229Y-90188868D01*
X121513229Y-90188867D01*
X121513231Y-90188867D01*
X121579552Y-90144552D01*
X121623867Y-90078231D01*
X121623867Y-90078229D01*
X121623868Y-90078229D01*
X121635499Y-90019752D01*
X121635500Y-90019750D01*
X121635500Y-88673967D01*
X121655185Y-88606928D01*
X121707989Y-88561173D01*
X121777147Y-88551229D01*
X121840703Y-88580254D01*
X121847181Y-88586286D01*
X121855446Y-88594551D01*
X121921769Y-88638867D01*
X121921770Y-88638868D01*
X121980247Y-88650499D01*
X121980250Y-88650500D01*
X121980252Y-88650500D01*
X123519750Y-88650500D01*
X123519751Y-88650499D01*
X123542653Y-88645944D01*
X123578229Y-88638868D01*
X123578229Y-88638867D01*
X123578231Y-88638867D01*
X123644552Y-88594552D01*
X123683687Y-88535982D01*
X123737299Y-88491178D01*
X123806624Y-88482471D01*
X123869652Y-88512625D01*
X123903830Y-88563919D01*
X123947206Y-88687880D01*
X123947207Y-88687882D01*
X124027850Y-88797150D01*
X124137118Y-88877793D01*
X124179845Y-88892744D01*
X124265299Y-88922646D01*
X124295730Y-88925500D01*
X124295734Y-88925500D01*
X125304270Y-88925500D01*
X125334699Y-88922646D01*
X125334701Y-88922646D01*
X125398790Y-88900219D01*
X125462882Y-88877793D01*
X125572150Y-88797150D01*
X125652793Y-88687882D01*
X125684598Y-88596988D01*
X125697646Y-88559701D01*
X125697646Y-88559699D01*
X125700500Y-88529269D01*
X125700500Y-88478910D01*
X125720185Y-88411871D01*
X125772989Y-88366116D01*
X125824500Y-88354910D01*
X126075500Y-88354910D01*
X126142539Y-88374595D01*
X126188294Y-88427399D01*
X126199500Y-88478910D01*
X126199500Y-88804269D01*
X126202353Y-88834699D01*
X126202353Y-88834701D01*
X126242566Y-88949619D01*
X126247207Y-88962882D01*
X126327850Y-89072150D01*
X126437118Y-89152793D01*
X126479845Y-89167744D01*
X126565299Y-89197646D01*
X126595730Y-89200500D01*
X126595734Y-89200500D01*
X127404270Y-89200500D01*
X127434699Y-89197646D01*
X127434701Y-89197646D01*
X127498790Y-89175219D01*
X127562882Y-89152793D01*
X127672150Y-89072150D01*
X127752793Y-88962882D01*
X127789217Y-88858789D01*
X127797646Y-88834701D01*
X127797646Y-88834699D01*
X127800500Y-88804269D01*
X127800500Y-87795730D01*
X127797646Y-87765300D01*
X127797646Y-87765298D01*
X127755791Y-87645686D01*
X127752793Y-87637118D01*
X127672150Y-87527850D01*
X127562882Y-87447207D01*
X127533543Y-87436940D01*
X127476769Y-87396219D01*
X127451022Y-87331266D01*
X127450500Y-87319900D01*
X127450500Y-87250012D01*
X127470185Y-87182973D01*
X127478633Y-87171364D01*
X127594136Y-87030625D01*
X127682396Y-86865501D01*
X127736747Y-86686331D01*
X127755099Y-86500000D01*
X127736747Y-86313669D01*
X127731605Y-86296721D01*
X127730981Y-86226855D01*
X127762581Y-86173048D01*
X127924932Y-86010698D01*
X127986249Y-85977217D01*
X128055940Y-85982201D01*
X128111873Y-86024071D01*
X128192812Y-86132190D01*
X128307906Y-86218350D01*
X128307913Y-86218354D01*
X128442620Y-86268596D01*
X128442627Y-86268598D01*
X128502155Y-86274999D01*
X128502172Y-86275000D01*
X129625000Y-86275000D01*
X129625000Y-85549000D01*
X129644685Y-85481961D01*
X129697489Y-85436206D01*
X129749000Y-85425000D01*
X129851000Y-85425000D01*
X129918039Y-85444685D01*
G37*
%TD.AperFunction*%
%TA.AperFunction,Conductor*%
G36*
X112205558Y-90947685D02*
G01*
X112251313Y-91000489D01*
X112261257Y-91069647D01*
X112232232Y-91133203D01*
X112173454Y-91170977D01*
X112167454Y-91172577D01*
X112167411Y-91172587D01*
X112002742Y-91226091D01*
X111848475Y-91304695D01*
X111708397Y-91406467D01*
X111585967Y-91528897D01*
X111484195Y-91668975D01*
X111405591Y-91823242D01*
X111352085Y-91987915D01*
X111325000Y-92158928D01*
X111325000Y-92395500D01*
X112025000Y-92395500D01*
X112025000Y-92895500D01*
X111325000Y-92895500D01*
X111325000Y-93132071D01*
X111352086Y-93303085D01*
X111352086Y-93303088D01*
X111354453Y-93310371D01*
X111356448Y-93380212D01*
X111320367Y-93440045D01*
X111257666Y-93470873D01*
X111188252Y-93462908D01*
X111148841Y-93436370D01*
X110874319Y-93161848D01*
X110840834Y-93100525D01*
X110838000Y-93074167D01*
X110838000Y-92995730D01*
X110835146Y-92965300D01*
X110835146Y-92965298D01*
X110794527Y-92849219D01*
X110790293Y-92837118D01*
X110709650Y-92727850D01*
X110600382Y-92647207D01*
X110600380Y-92647206D01*
X110472200Y-92602353D01*
X110441770Y-92599500D01*
X110441766Y-92599500D01*
X109808234Y-92599500D01*
X109808230Y-92599500D01*
X109777800Y-92602353D01*
X109777798Y-92602353D01*
X109649619Y-92647206D01*
X109649617Y-92647207D01*
X109540350Y-92727850D01*
X109479276Y-92810602D01*
X109423628Y-92852853D01*
X109353972Y-92858311D01*
X109292423Y-92825243D01*
X109261800Y-92775972D01*
X109246858Y-92730880D01*
X109246856Y-92730875D01*
X109154815Y-92581654D01*
X109085342Y-92512181D01*
X109051857Y-92450858D01*
X109056841Y-92381166D01*
X109098713Y-92325233D01*
X109164177Y-92300816D01*
X109173023Y-92300500D01*
X109404270Y-92300500D01*
X109434699Y-92297646D01*
X109434701Y-92297646D01*
X109498790Y-92275219D01*
X109562882Y-92252793D01*
X109672150Y-92172150D01*
X109752793Y-92062882D01*
X109795775Y-91940047D01*
X109797646Y-91934701D01*
X109797646Y-91934699D01*
X109800500Y-91904269D01*
X109800500Y-91124043D01*
X109820185Y-91057004D01*
X109836819Y-91036362D01*
X109908862Y-90964319D01*
X109970185Y-90930834D01*
X109996543Y-90928000D01*
X112138519Y-90928000D01*
X112205558Y-90947685D01*
G37*
%TD.AperFunction*%
%TA.AperFunction,Conductor*%
G36*
X99607495Y-87497523D02*
G01*
X99618558Y-87501886D01*
X99706946Y-87512500D01*
X99775500Y-87512500D01*
X99842539Y-87532185D01*
X99888294Y-87584989D01*
X99898413Y-87631506D01*
X99898439Y-87631503D01*
X99898478Y-87631806D01*
X99899500Y-87636500D01*
X99899500Y-87639562D01*
X99919979Y-87715989D01*
X99926120Y-87726626D01*
X99928369Y-87730520D01*
X99928370Y-87730523D01*
X99959537Y-87784507D01*
X99959539Y-87784510D01*
X99959540Y-87784511D01*
X100672013Y-88496984D01*
X100727962Y-88552933D01*
X100727964Y-88552934D01*
X100727968Y-88552937D01*
X100785731Y-88586286D01*
X100796484Y-88592494D01*
X100860252Y-88609581D01*
X100919909Y-88645944D01*
X100950439Y-88708790D01*
X100942145Y-88778166D01*
X100915837Y-88817035D01*
X100366603Y-89366270D01*
X100305280Y-89399755D01*
X100235589Y-89394771D01*
X100191241Y-89366270D01*
X99474319Y-88649348D01*
X99440834Y-88588025D01*
X99438000Y-88561667D01*
X99438000Y-87612876D01*
X99457685Y-87545837D01*
X99510489Y-87500082D01*
X99579647Y-87490138D01*
X99607495Y-87497523D01*
G37*
%TD.AperFunction*%
%TA.AperFunction,Conductor*%
G36*
X102205203Y-86505620D02*
G01*
X102211681Y-86511652D01*
X102463181Y-86763152D01*
X102496666Y-86824475D01*
X102499500Y-86850833D01*
X102499500Y-88559427D01*
X102479815Y-88626466D01*
X102427011Y-88672221D01*
X102357853Y-88682165D01*
X102294297Y-88653140D01*
X102287819Y-88647108D01*
X101712725Y-88072014D01*
X101712717Y-88072008D01*
X101680878Y-88053626D01*
X101680874Y-88053625D01*
X101668078Y-88046237D01*
X101644203Y-88032452D01*
X101644198Y-88032450D01*
X101600385Y-88020710D01*
X101540725Y-87984344D01*
X101510197Y-87921497D01*
X101518492Y-87852122D01*
X101538766Y-87819735D01*
X101569289Y-87784511D01*
X101576139Y-87776606D01*
X101576139Y-87776604D01*
X101576142Y-87776602D01*
X101635930Y-87645686D01*
X101650873Y-87541751D01*
X101679898Y-87478196D01*
X101715902Y-87452710D01*
X101714703Y-87450577D01*
X101722093Y-87446421D01*
X101842564Y-87355064D01*
X101933920Y-87234595D01*
X101989386Y-87093943D01*
X102000000Y-87005553D01*
X102000000Y-86599333D01*
X102019685Y-86532294D01*
X102072489Y-86486539D01*
X102141647Y-86476595D01*
X102205203Y-86505620D01*
G37*
%TD.AperFunction*%
%TA.AperFunction,Conductor*%
G36*
X128292539Y-79720185D02*
G01*
X128338294Y-79772989D01*
X128349500Y-79824500D01*
X128349500Y-79988443D01*
X128329815Y-80055482D01*
X128299812Y-80087709D01*
X128192809Y-80167812D01*
X128106649Y-80282906D01*
X128106645Y-80282913D01*
X128056403Y-80417620D01*
X128056401Y-80417627D01*
X128050000Y-80477155D01*
X128050000Y-80525000D01*
X131550000Y-80525000D01*
X131553086Y-80521913D01*
X131569685Y-80465386D01*
X131622489Y-80419631D01*
X131626559Y-80417859D01*
X131628759Y-80416947D01*
X131628771Y-80416944D01*
X131638604Y-80411266D01*
X131657274Y-80402470D01*
X131667901Y-80398506D01*
X131667901Y-80398505D01*
X131667906Y-80398504D01*
X131693925Y-80379973D01*
X131703826Y-80373609D01*
X131731498Y-80357634D01*
X131739535Y-80349596D01*
X131755278Y-80336279D01*
X131762214Y-80331339D01*
X131828241Y-80308488D01*
X131896141Y-80324962D01*
X131944356Y-80375529D01*
X131958094Y-80435718D01*
X131953947Y-80588270D01*
X131953672Y-80593820D01*
X131896112Y-81391870D01*
X131895588Y-81397403D01*
X131802326Y-82192075D01*
X131801554Y-82197579D01*
X131672784Y-82987241D01*
X131671767Y-82992705D01*
X131507738Y-83775826D01*
X131506477Y-83781239D01*
X131470270Y-83922273D01*
X131434534Y-83982312D01*
X131372011Y-84013499D01*
X131302552Y-84005934D01*
X131248210Y-83962016D01*
X131244465Y-83955147D01*
X131220240Y-83918892D01*
X131199361Y-83852215D01*
X131217845Y-83784835D01*
X131220240Y-83781108D01*
X131238867Y-83753231D01*
X131238868Y-83753229D01*
X131250499Y-83694752D01*
X131250500Y-83694750D01*
X131250500Y-83305249D01*
X131250499Y-83305247D01*
X131238868Y-83246770D01*
X131238867Y-83246768D01*
X131220240Y-83218892D01*
X131199361Y-83152215D01*
X131217845Y-83084835D01*
X131220240Y-83081108D01*
X131238867Y-83053231D01*
X131238868Y-83053229D01*
X131250064Y-82996939D01*
X131250500Y-82994748D01*
X131250500Y-82605252D01*
X131250500Y-82605249D01*
X131250499Y-82605247D01*
X131238868Y-82546770D01*
X131238867Y-82546768D01*
X131220240Y-82518892D01*
X131199361Y-82452215D01*
X131217845Y-82384835D01*
X131220240Y-82381108D01*
X131238867Y-82353231D01*
X131238868Y-82353229D01*
X131249455Y-82300000D01*
X131250500Y-82294748D01*
X131250500Y-82111556D01*
X131270185Y-82044517D01*
X131300189Y-82012290D01*
X131407187Y-81932190D01*
X131407190Y-81932187D01*
X131493350Y-81817093D01*
X131493354Y-81817086D01*
X131543596Y-81682379D01*
X131543598Y-81682372D01*
X131549999Y-81622844D01*
X131550000Y-81622827D01*
X131550000Y-81575000D01*
X128040174Y-81575000D01*
X128000496Y-81596666D01*
X127974138Y-81599500D01*
X127928036Y-81599500D01*
X127789949Y-81640045D01*
X127668873Y-81717856D01*
X127574623Y-81826626D01*
X127574622Y-81826628D01*
X127514834Y-81957543D01*
X127494353Y-82100000D01*
X127514834Y-82242456D01*
X127558695Y-82338496D01*
X127574623Y-82373373D01*
X127668872Y-82482143D01*
X127784942Y-82556737D01*
X127830697Y-82609540D01*
X127840641Y-82678699D01*
X127811616Y-82742254D01*
X127805587Y-82748731D01*
X127793057Y-82761261D01*
X127789056Y-82768192D01*
X127772493Y-82796881D01*
X127764731Y-82810325D01*
X127764729Y-82810328D01*
X127742849Y-82848224D01*
X127741169Y-82847254D01*
X127703971Y-82893411D01*
X127637676Y-82915473D01*
X127569977Y-82898191D01*
X127523897Y-82850006D01*
X127477685Y-82763550D01*
X127425121Y-82699500D01*
X127346410Y-82603589D01*
X127214437Y-82495283D01*
X127186450Y-82472315D01*
X127003954Y-82374768D01*
X126805934Y-82314700D01*
X126805932Y-82314699D01*
X126805934Y-82314699D01*
X126600000Y-82294417D01*
X126394066Y-82314699D01*
X126394064Y-82314700D01*
X126317670Y-82337873D01*
X126247804Y-82338496D01*
X126193996Y-82306893D01*
X125359284Y-81472181D01*
X125325799Y-81410858D01*
X125330783Y-81341166D01*
X125372655Y-81285233D01*
X125438119Y-81260816D01*
X125446965Y-81260500D01*
X125575325Y-81260500D01*
X125642364Y-81280185D01*
X125684683Y-81326047D01*
X125722311Y-81396444D01*
X125722315Y-81396450D01*
X125853589Y-81556410D01*
X125935168Y-81623359D01*
X126013550Y-81687685D01*
X126196046Y-81785232D01*
X126394066Y-81845300D01*
X126394065Y-81845300D01*
X126408981Y-81846769D01*
X126600000Y-81865583D01*
X126805934Y-81845300D01*
X127003954Y-81785232D01*
X127186450Y-81687685D01*
X127346410Y-81556410D01*
X127477685Y-81396450D01*
X127575232Y-81213954D01*
X127635300Y-81015934D01*
X127649181Y-80875000D01*
X128050000Y-80875000D01*
X128050000Y-80922844D01*
X128056401Y-80982372D01*
X128056403Y-80982379D01*
X128065462Y-81006669D01*
X128070445Y-81076361D01*
X128065462Y-81093331D01*
X128056403Y-81117620D01*
X128056401Y-81117627D01*
X128050000Y-81177155D01*
X128050000Y-81225000D01*
X129625000Y-81225000D01*
X129625000Y-80875000D01*
X129975000Y-80875000D01*
X129975000Y-81225000D01*
X131550000Y-81225000D01*
X131550000Y-81177172D01*
X131549999Y-81177155D01*
X131543598Y-81117627D01*
X131543597Y-81117624D01*
X131534538Y-81093335D01*
X131529552Y-81023644D01*
X131534538Y-81006665D01*
X131543597Y-80982375D01*
X131543598Y-80982372D01*
X131549999Y-80922844D01*
X131550000Y-80922827D01*
X131550000Y-80875000D01*
X129975000Y-80875000D01*
X129625000Y-80875000D01*
X128050000Y-80875000D01*
X127649181Y-80875000D01*
X127655583Y-80810000D01*
X127635300Y-80604066D01*
X127575232Y-80406046D01*
X127477685Y-80223550D01*
X127346410Y-80063590D01*
X127332446Y-80052130D01*
X127293112Y-79994383D01*
X127291243Y-79924539D01*
X127327430Y-79864771D01*
X127349107Y-79848893D01*
X127363680Y-79840480D01*
X127467341Y-79736819D01*
X127528664Y-79703334D01*
X127555022Y-79700500D01*
X128225500Y-79700500D01*
X128292539Y-79720185D01*
G37*
%TD.AperFunction*%
%TA.AperFunction,Conductor*%
G36*
X102100701Y-81027210D02*
G01*
X102145050Y-81055711D01*
X102256656Y-81167317D01*
X102319367Y-81205998D01*
X102366091Y-81257946D01*
X102377312Y-81326909D01*
X102349469Y-81390991D01*
X102341950Y-81399217D01*
X100972787Y-82768380D01*
X100911464Y-82801865D01*
X100841772Y-82796881D01*
X100839617Y-82796054D01*
X100781442Y-82773113D01*
X100781437Y-82773112D01*
X100740468Y-82768192D01*
X100676254Y-82740654D01*
X100637122Y-82682771D01*
X100635496Y-82612921D01*
X100667570Y-82557400D01*
X101840890Y-81384081D01*
X101880452Y-81315558D01*
X101900930Y-81239132D01*
X101900930Y-81175832D01*
X101920615Y-81108793D01*
X101937238Y-81088162D01*
X101969692Y-81055708D01*
X102031009Y-81022226D01*
X102100701Y-81027210D01*
G37*
%TD.AperFunction*%
%TA.AperFunction,Conductor*%
G36*
X127855703Y-71393252D02*
G01*
X127862181Y-71399284D01*
X128654880Y-72191983D01*
X128688365Y-72253306D01*
X128684241Y-72320617D01*
X128677354Y-72340298D01*
X128677353Y-72340305D01*
X128674500Y-72370730D01*
X128674500Y-73154269D01*
X128677353Y-73184699D01*
X128677353Y-73184701D01*
X128713581Y-73288231D01*
X128722207Y-73312882D01*
X128802850Y-73422150D01*
X128912118Y-73502793D01*
X128976033Y-73525158D01*
X129032807Y-73565878D01*
X129058555Y-73630830D01*
X129045099Y-73699392D01*
X128996712Y-73749795D01*
X128974082Y-73759904D01*
X128805878Y-73815642D01*
X128805875Y-73815643D01*
X128656654Y-73907684D01*
X128532684Y-74031654D01*
X128440643Y-74180875D01*
X128440641Y-74180880D01*
X128385494Y-74347302D01*
X128385493Y-74347309D01*
X128375000Y-74450013D01*
X128375000Y-74587500D01*
X129726000Y-74587500D01*
X129793039Y-74607185D01*
X129838794Y-74659989D01*
X129850000Y-74711500D01*
X129850000Y-75924999D01*
X130124972Y-75924999D01*
X130124986Y-75924998D01*
X130227697Y-75914505D01*
X130394119Y-75859358D01*
X130394124Y-75859356D01*
X130543345Y-75767315D01*
X130667315Y-75643345D01*
X130714286Y-75567194D01*
X130766234Y-75520470D01*
X130835197Y-75509247D01*
X130899279Y-75537091D01*
X130907506Y-75544610D01*
X131013181Y-75650285D01*
X131046666Y-75711608D01*
X131049500Y-75737966D01*
X131049500Y-77091599D01*
X131033724Y-77146366D01*
X131035709Y-77147277D01*
X131033223Y-77152697D01*
X131031245Y-77154971D01*
X131030499Y-77157563D01*
X131027998Y-77161544D01*
X131026402Y-77160541D01*
X130987381Y-77205425D01*
X130920513Y-77225000D01*
X129975000Y-77225000D01*
X129975000Y-77951000D01*
X129955315Y-78018039D01*
X129902511Y-78063794D01*
X129851000Y-78075000D01*
X128400850Y-78075000D01*
X128333811Y-78055315D01*
X128310053Y-78040047D01*
X128310050Y-78040045D01*
X128171963Y-77999500D01*
X128171961Y-77999500D01*
X128028039Y-77999500D01*
X128028036Y-77999500D01*
X127889949Y-78040045D01*
X127808807Y-78092192D01*
X127741767Y-78111876D01*
X127674728Y-78092191D01*
X127628973Y-78039387D01*
X127623107Y-78023871D01*
X127575232Y-77866046D01*
X127499841Y-77725000D01*
X128050000Y-77725000D01*
X129625000Y-77725000D01*
X129625000Y-77225000D01*
X128502155Y-77225000D01*
X128442627Y-77231401D01*
X128442620Y-77231403D01*
X128307913Y-77281645D01*
X128307906Y-77281649D01*
X128192812Y-77367809D01*
X128192809Y-77367812D01*
X128106649Y-77482906D01*
X128106645Y-77482913D01*
X128056403Y-77617620D01*
X128056401Y-77617627D01*
X128050000Y-77677155D01*
X128050000Y-77725000D01*
X127499841Y-77725000D01*
X127477685Y-77683550D01*
X127416722Y-77609266D01*
X127346410Y-77523589D01*
X127222874Y-77422207D01*
X127186450Y-77392315D01*
X127003954Y-77294768D01*
X126805934Y-77234700D01*
X126805932Y-77234699D01*
X126805934Y-77234699D01*
X126600000Y-77214417D01*
X126394067Y-77234699D01*
X126196043Y-77294769D01*
X126085898Y-77353643D01*
X126013550Y-77392315D01*
X126013548Y-77392316D01*
X126013547Y-77392317D01*
X125853589Y-77523589D01*
X125727563Y-77677155D01*
X125722315Y-77683550D01*
X125683449Y-77756262D01*
X125657957Y-77803954D01*
X125608994Y-77853798D01*
X125548599Y-77869500D01*
X125497255Y-77869500D01*
X125430216Y-77849815D01*
X125409574Y-77833181D01*
X125053283Y-77476890D01*
X125021188Y-77421298D01*
X125019798Y-77416110D01*
X124960494Y-77313392D01*
X124960488Y-77313384D01*
X124504645Y-76857541D01*
X124039283Y-76392180D01*
X124005799Y-76330858D01*
X124010783Y-76261167D01*
X124052655Y-76205233D01*
X124118119Y-76180816D01*
X124126965Y-76180500D01*
X125575325Y-76180500D01*
X125642364Y-76200185D01*
X125684683Y-76246047D01*
X125722311Y-76316444D01*
X125722315Y-76316450D01*
X125853589Y-76476410D01*
X125929961Y-76539086D01*
X126013550Y-76607685D01*
X126196046Y-76705232D01*
X126394066Y-76765300D01*
X126394065Y-76765300D01*
X126411661Y-76767033D01*
X126600000Y-76785583D01*
X126805934Y-76765300D01*
X127003954Y-76705232D01*
X127186450Y-76607685D01*
X127346410Y-76476410D01*
X127477685Y-76316450D01*
X127575232Y-76133954D01*
X127635300Y-75935934D01*
X127655583Y-75730000D01*
X127635300Y-75524066D01*
X127575232Y-75326046D01*
X127477685Y-75143550D01*
X127431686Y-75087500D01*
X128375001Y-75087500D01*
X128375001Y-75224986D01*
X128385494Y-75327697D01*
X128440641Y-75494119D01*
X128440643Y-75494124D01*
X128532684Y-75643345D01*
X128656654Y-75767315D01*
X128805875Y-75859356D01*
X128805880Y-75859358D01*
X128972302Y-75914505D01*
X128972309Y-75914506D01*
X129075019Y-75924999D01*
X129349999Y-75924999D01*
X129350000Y-75924998D01*
X129350000Y-75087500D01*
X128375001Y-75087500D01*
X127431686Y-75087500D01*
X127394529Y-75042223D01*
X127346410Y-74983589D01*
X127212107Y-74873371D01*
X127186450Y-74852315D01*
X127003954Y-74754768D01*
X126937447Y-74734593D01*
X126879009Y-74696296D01*
X126850553Y-74632484D01*
X126861113Y-74563417D01*
X126907337Y-74511023D01*
X126941350Y-74496158D01*
X127063483Y-74463433D01*
X127063492Y-74463429D01*
X127277578Y-74363600D01*
X127471082Y-74228105D01*
X127638105Y-74061082D01*
X127773600Y-73867578D01*
X127873429Y-73653492D01*
X127873432Y-73653486D01*
X127930636Y-73440000D01*
X127033012Y-73440000D01*
X127065925Y-73382993D01*
X127100000Y-73255826D01*
X127100000Y-73124174D01*
X127065925Y-72997007D01*
X127033012Y-72940000D01*
X127930636Y-72940000D01*
X127930635Y-72939999D01*
X127873432Y-72726513D01*
X127873429Y-72726507D01*
X127773600Y-72512422D01*
X127773599Y-72512420D01*
X127638113Y-72318926D01*
X127638108Y-72318920D01*
X127471082Y-72151894D01*
X127277578Y-72016399D01*
X127107052Y-71936882D01*
X127054613Y-71890710D01*
X127035461Y-71823516D01*
X127055677Y-71756635D01*
X127108842Y-71711300D01*
X127159457Y-71700500D01*
X127469750Y-71700500D01*
X127469751Y-71700499D01*
X127484568Y-71697552D01*
X127528229Y-71688868D01*
X127528229Y-71688867D01*
X127528231Y-71688867D01*
X127594552Y-71644552D01*
X127638867Y-71578231D01*
X127638867Y-71578229D01*
X127638868Y-71578229D01*
X127650499Y-71519752D01*
X127650500Y-71519750D01*
X127650500Y-71486965D01*
X127670185Y-71419926D01*
X127722989Y-71374171D01*
X127792147Y-71364227D01*
X127855703Y-71393252D01*
G37*
%TD.AperFunction*%
%TD*%
M02*
