M48
; DRILL file {KiCad 8.0.1} date 2024-05-06T20:31:14+0200
; FORMAT={-:-/ absolute / inch / decimal}
; #@! TF.CreationDate,2024-05-06T20:31:14+02:00
; #@! TF.GenerationSoftware,Kicad,Pcbnew,8.0.1
; #@! TF.FileFunction,Plated,1,2,PTH
FMAT,2
INCH
; #@! TA.AperFunction,Plated,PTH,ViaDrill
T1C0.0118
; #@! TA.AperFunction,Plated,PTH,ComponentDrill
T2C0.0276
; #@! TA.AperFunction,Plated,PTH,ComponentDrill
T3C0.0315
; #@! TA.AperFunction,Plated,PTH,ComponentDrill
T4C0.0374
; #@! TA.AperFunction,Plated,PTH,ComponentDrill
T5C0.0394
; #@! TA.AperFunction,Plated,PTH,ViaDrill
T6C0.0787
; #@! TA.AperFunction,Plated,PTH,ViaDrill
T7C0.0906
; #@! TA.AperFunction,Plated,PTH,ViaDrill
T8C0.1181
%
G90
G05
T1
X3.8031Y-3.1732
X3.8425Y-2.9449
X3.8675Y-3.3755
X3.8947Y-3.1969
X3.937Y-3.0
X3.9399Y-3.4971
X3.94Y-3.1762
X3.9764Y-3.3307
X3.9823Y-3.445
X4.0079Y-2.937
X4.0236Y-3.4488
X4.0597Y-3.0906
X4.0679Y-3.3755
X4.2185Y-3.0649
X4.2441Y-3.4646
X4.248Y-3.3937
X4.249Y-3.1319
X4.2913Y-3.0157
X4.2913Y-3.0945
X4.2913Y-3.3386
X4.3346Y-3.2913
X4.3656Y-3.2629
X4.3858Y-2.7953
X4.3858Y-3.0315
X4.3898Y-3.3465
X4.437Y-3.2717
X4.502Y-3.6054
X4.5059Y-2.8091
X4.61Y-3.3998
X4.6909Y-3.6054
X4.6929Y-3.3543
X4.6969Y-3.4213
X4.7008Y-3.0315
X4.7283Y-3.0906
X4.7294Y-3.2171
X4.7515Y-3.2683
X4.752Y-3.3189
X4.7717Y-3.2441
X4.7719Y-3.2933
X4.7795Y-2.8228
X4.7795Y-3.4528
X4.7874Y-3.4134
X4.7904Y-3.0473
X4.8031Y-2.7953
X4.8327Y-2.9146
X4.8819Y-3.3248
X4.8976Y-3.4173
X4.9264Y-3.1299
X5.0394Y-3.2323
X5.0433Y-3.0906
X5.0906Y-3.4213
X5.0933Y-3.4581
X5.1102Y-3.0118
X5.1102Y-3.1496
X5.1102Y-3.2874
X5.185Y-3.1811
X5.2677Y-3.5591
X5.2992Y-3.6378
T2
X4.4123Y-3.1241
X4.45Y-3.0434
X4.6041Y-3.2135
X4.6417Y-3.1328
T4
X4.8046Y-2.5367
X4.9447Y-2.6385
T5
X3.9923Y-3.536
X4.063Y-3.6067
X4.1337Y-3.6774
X4.9843Y-2.7815
X4.9843Y-2.8815
X4.9843Y-2.9815
X4.9843Y-3.0815
X4.9843Y-3.1815
X4.9843Y-3.2815
X5.2835Y-2.6654
X5.2835Y-2.7654
X5.2835Y-2.8654
X5.2835Y-2.9654
T6
X4.4882Y-3.1417
T7
X3.7795Y-2.4016
X3.7795Y-3.8583
X5.1969Y-2.4016
X5.1969Y-3.8583
T8
X4.0472Y-2.7008
X4.9449Y-3.5669
T3
G00X4.4262Y-3.6317
M15
G01X4.4262Y-3.6632
M16
G05
G00X4.4262Y-3.801
M15
G01X4.4262Y-3.8246
M16
G05
G00X4.7667Y-3.6317
M15
G01X4.7667Y-3.6632
M16
G05
G00X4.7667Y-3.801
M15
G01X4.7667Y-3.8246
M16
G05
M30
