%TF.GenerationSoftware,KiCad,Pcbnew,8.0.1*%
%TF.CreationDate,2024-05-06T20:31:10+02:00*%
%TF.ProjectId,smartknob,736d6172-746b-46e6-9f62-2e6b69636164,rev?*%
%TF.SameCoordinates,Original*%
%TF.FileFunction,Soldermask,Top*%
%TF.FilePolarity,Negative*%
%FSLAX46Y46*%
G04 Gerber Fmt 4.6, Leading zero omitted, Abs format (unit mm)*
G04 Created by KiCad (PCBNEW 8.0.1) date 2024-05-06 20:31:10*
%MOMM*%
%LPD*%
G01*
G04 APERTURE LIST*
G04 Aperture macros list*
%AMRoundRect*
0 Rectangle with rounded corners*
0 $1 Rounding radius*
0 $2 $3 $4 $5 $6 $7 $8 $9 X,Y pos of 4 corners*
0 Add a 4 corners polygon primitive as box body*
4,1,4,$2,$3,$4,$5,$6,$7,$8,$9,$2,$3,0*
0 Add four circle primitives for the rounded corners*
1,1,$1+$1,$2,$3*
1,1,$1+$1,$4,$5*
1,1,$1+$1,$6,$7*
1,1,$1+$1,$8,$9*
0 Add four rect primitives between the rounded corners*
20,1,$1+$1,$2,$3,$4,$5,0*
20,1,$1+$1,$4,$5,$6,$7,0*
20,1,$1+$1,$6,$7,$8,$9,0*
20,1,$1+$1,$8,$9,$2,$3,0*%
%AMHorizOval*
0 Thick line with rounded ends*
0 $1 width*
0 $2 $3 position (X,Y) of the first rounded end (center of the circle)*
0 $4 $5 position (X,Y) of the second rounded end (center of the circle)*
0 Add line between two ends*
20,1,$1,$2,$3,$4,$5,0*
0 Add two circle primitives to create the rounded ends*
1,1,$1,$2,$3*
1,1,$1,$4,$5*%
%AMRotRect*
0 Rectangle, with rotation*
0 The origin of the aperture is its center*
0 $1 length*
0 $2 width*
0 $3 Rotation angle, in degrees counterclockwise*
0 Add horizontal line*
21,1,$1,$2,0,0,$3*%
G04 Aperture macros list end*
%ADD10RoundRect,0.150000X0.150000X-0.512500X0.150000X0.512500X-0.150000X0.512500X-0.150000X-0.512500X0*%
%ADD11RoundRect,0.250000X-0.475000X0.337500X-0.475000X-0.337500X0.475000X-0.337500X0.475000X0.337500X0*%
%ADD12RoundRect,0.250000X-0.450000X0.262500X-0.450000X-0.262500X0.450000X-0.262500X0.450000X0.262500X0*%
%ADD13RoundRect,0.250000X-0.262500X-0.450000X0.262500X-0.450000X0.262500X0.450000X-0.262500X0.450000X0*%
%ADD14RoundRect,0.250000X-0.350000X-0.450000X0.350000X-0.450000X0.350000X0.450000X-0.350000X0.450000X0*%
%ADD15C,1.000000*%
%ADD16C,0.750000*%
%ADD17O,1.200000X2.000000*%
%ADD18O,1.200000X1.800000*%
%ADD19R,0.300000X1.300000*%
%ADD20RoundRect,0.250000X0.450000X-0.350000X0.450000X0.350000X-0.450000X0.350000X-0.450000X-0.350000X0*%
%ADD21RoundRect,0.250000X0.475000X-0.337500X0.475000X0.337500X-0.475000X0.337500X-0.475000X-0.337500X0*%
%ADD22R,2.500000X0.350000*%
%ADD23RoundRect,0.250000X0.350000X0.450000X-0.350000X0.450000X-0.350000X-0.450000X0.350000X-0.450000X0*%
%ADD24RoundRect,0.050000X0.362500X0.050000X-0.362500X0.050000X-0.362500X-0.050000X0.362500X-0.050000X0*%
%ADD25RoundRect,0.050000X0.050000X0.362500X-0.050000X0.362500X-0.050000X-0.362500X0.050000X-0.362500X0*%
%ADD26R,1.700000X1.700000*%
%ADD27C,1.500000*%
%ADD28R,1.500000X0.900000*%
%ADD29R,0.900000X1.500000*%
%ADD30RoundRect,0.250000X0.450000X-0.262500X0.450000X0.262500X-0.450000X0.262500X-0.450000X-0.262500X0*%
%ADD31O,1.700000X1.700000*%
%ADD32RoundRect,0.250000X-0.337500X-0.475000X0.337500X-0.475000X0.337500X0.475000X-0.337500X0.475000X0*%
%ADD33HorizOval,1.200000X0.068404X-0.187939X-0.068404X0.187939X0*%
%ADD34HorizOval,1.200000X0.000000X0.000000X0.000000X0.000000X0*%
%ADD35C,0.950000*%
%ADD36RotRect,1.700000X1.700000X225.000000*%
%ADD37HorizOval,1.700000X0.000000X0.000000X0.000000X0.000000X0*%
G04 APERTURE END LIST*
D10*
%TO.C,U2*%
X99050000Y-77537500D03*
X100000000Y-77537500D03*
X100950000Y-77537500D03*
X100950000Y-75262500D03*
X99050000Y-75262500D03*
%TD*%
D11*
%TO.C,C7*%
X97000000Y-81162500D03*
X97000000Y-83237500D03*
%TD*%
D12*
%TO.C,R19*%
X124800000Y-86387500D03*
X124800000Y-88212500D03*
%TD*%
D13*
%TO.C,R5*%
X108300000Y-93500000D03*
X110125000Y-93500000D03*
%TD*%
D14*
%TO.C,R9*%
X127000000Y-88300000D03*
X129000000Y-88300000D03*
%TD*%
D15*
%TO.C,TP2*%
X103200000Y-83000000D03*
%TD*%
%TO.C,TP4*%
X98800000Y-82300000D03*
%TD*%
D16*
%TO.C,U3*%
X113850000Y-93145500D03*
X119650000Y-93145500D03*
D17*
X112425000Y-92645500D03*
D18*
X112425000Y-96845500D03*
D17*
X121075000Y-92645500D03*
D18*
X121075000Y-96845500D03*
D19*
X113400000Y-91577500D03*
X114200000Y-91577500D03*
X115500000Y-91577500D03*
X116500000Y-91577500D03*
X117000000Y-91577500D03*
X118000000Y-91577500D03*
X119300000Y-91577500D03*
X120100000Y-91577500D03*
X119800000Y-91577500D03*
X119000000Y-91577500D03*
X118500000Y-91577500D03*
X117500000Y-91577500D03*
X116000000Y-91577500D03*
X115000000Y-91577500D03*
X114500000Y-91577500D03*
X113700000Y-91577500D03*
%TD*%
D20*
%TO.C,R1*%
X102800000Y-76400000D03*
X102800000Y-74400000D03*
%TD*%
D21*
%TO.C,C1*%
X103200000Y-80237500D03*
X103200000Y-78162500D03*
%TD*%
D22*
%TO.C,U9*%
X129800000Y-77900000D03*
X129800000Y-78600000D03*
X129800000Y-79300000D03*
X129800000Y-80000000D03*
X129800000Y-80700000D03*
X129800000Y-81400000D03*
X129800000Y-82100000D03*
X129800000Y-82800000D03*
X129800000Y-83500000D03*
X129800000Y-84200000D03*
X129800000Y-84900000D03*
X129800000Y-85600000D03*
%TD*%
D23*
%TO.C,R8*%
X109800000Y-95400000D03*
X107800000Y-95400000D03*
%TD*%
D24*
%TO.C,U7*%
X102062500Y-85937500D03*
X102062500Y-85537500D03*
X102062500Y-85137500D03*
X102062500Y-84737500D03*
X102062500Y-84337500D03*
D25*
X101400000Y-83675000D03*
X101000000Y-83675000D03*
X100600000Y-83675000D03*
X100200000Y-83675000D03*
X99800000Y-83675000D03*
D24*
X99137500Y-84337500D03*
X99137500Y-84737500D03*
X99137500Y-85137500D03*
X99137500Y-85537500D03*
X99137500Y-85937500D03*
D25*
X99800000Y-86600000D03*
X100200000Y-86600000D03*
X100600000Y-86600000D03*
X101000000Y-86600000D03*
X101400000Y-86600000D03*
D26*
X100600000Y-85137500D03*
%TD*%
D27*
%TO.C,BOT*%
X126800000Y-86500000D03*
%TD*%
D14*
%TO.C,R7*%
X107000000Y-91400000D03*
X109000000Y-91400000D03*
%TD*%
D28*
%TO.C,U1*%
X105250000Y-71490000D03*
X105250000Y-72760000D03*
X105250000Y-74030000D03*
X105250000Y-75300000D03*
X105250000Y-76570000D03*
X105250000Y-77840000D03*
X105250000Y-79110000D03*
X105250000Y-80380000D03*
X105250000Y-81650000D03*
X105250000Y-82920000D03*
X105250000Y-84190000D03*
X105250000Y-85460000D03*
X105250000Y-86730000D03*
X105250000Y-88000000D03*
D29*
X107015000Y-89250000D03*
X108285000Y-89250000D03*
X109555000Y-89250000D03*
X110825000Y-89250000D03*
X112095000Y-89250000D03*
X113365000Y-89250000D03*
X114635000Y-89250000D03*
X115905000Y-89250000D03*
X117175000Y-89250000D03*
X118445000Y-89250000D03*
X119715000Y-89250000D03*
X120985000Y-89250000D03*
D28*
X122750000Y-88000000D03*
X122750000Y-86730000D03*
X122750000Y-85460000D03*
X122750000Y-84190000D03*
X122750000Y-82920000D03*
X122750000Y-81650000D03*
X122750000Y-80380000D03*
X122750000Y-79110000D03*
X122750000Y-77840000D03*
X122750000Y-76570000D03*
X122750000Y-75300000D03*
X122750000Y-74030000D03*
X122750000Y-72760000D03*
X122750000Y-71490000D03*
%TD*%
D21*
%TO.C,C6*%
X129600000Y-74837500D03*
X129600000Y-72762500D03*
%TD*%
D30*
%TO.C,R6*%
X123200000Y-93912500D03*
X123200000Y-92087500D03*
%TD*%
D23*
%TO.C,R4*%
X100850000Y-79600000D03*
X98850000Y-79600000D03*
%TD*%
D26*
%TO.C,J4*%
X134200000Y-75320000D03*
D31*
X134200000Y-72780000D03*
X134200000Y-70240000D03*
X134200000Y-67700000D03*
%TD*%
D11*
%TO.C,C2*%
X97000000Y-77162500D03*
X97000000Y-79237500D03*
%TD*%
D32*
%TO.C,C4*%
X100962500Y-72400000D03*
X103037500Y-72400000D03*
%TD*%
D33*
%TO.C,Ur1*%
X113029202Y-77301466D03*
D34*
X117899712Y-79572620D03*
X116943435Y-81623360D03*
X112072927Y-79352205D03*
%TD*%
D26*
%TO.C,J1*%
X126600000Y-70650000D03*
D31*
X126600000Y-73190000D03*
X126600000Y-75730000D03*
X126600000Y-78270000D03*
X126600000Y-80810000D03*
X126600000Y-83350000D03*
%TD*%
D35*
%TO.C,SW2*%
X122036353Y-64432289D03*
X125596029Y-67018545D03*
%TD*%
D36*
%TO.C,J2*%
X101403949Y-89814555D03*
D37*
X103200000Y-91610606D03*
X104996051Y-93406657D03*
%TD*%
M02*
