%TF.GenerationSoftware,KiCad,Pcbnew,8.0.1*%
%TF.CreationDate,2024-05-06T20:31:10+02:00*%
%TF.ProjectId,smartknob,736d6172-746b-46e6-9f62-2e6b69636164,rev?*%
%TF.SameCoordinates,Original*%
%TF.FileFunction,Other,User*%
%FSLAX46Y46*%
G04 Gerber Fmt 4.6, Leading zero omitted, Abs format (unit mm)*
G04 Created by KiCad (PCBNEW 8.0.1) date 2024-05-06 20:31:10*
%MOMM*%
%LPD*%
G01*
G04 APERTURE LIST*
%ADD10C,0.050000*%
%ADD11C,0.150000*%
G04 APERTURE END LIST*
D10*
%TO.C,U2*%
X98300000Y-74350000D02*
X98300000Y-78450000D01*
X98300000Y-78450000D02*
X101700000Y-78450000D01*
X101700000Y-74350000D02*
X98300000Y-74350000D01*
X101700000Y-78450000D02*
X101700000Y-74350000D01*
%TO.C,C7*%
X96020000Y-80320000D02*
X97980000Y-80320000D01*
X96020000Y-84080000D02*
X96020000Y-80320000D01*
X97980000Y-80320000D02*
X97980000Y-84080000D01*
X97980000Y-84080000D02*
X96020000Y-84080000D01*
%TO.C,R19*%
X123850000Y-85620000D02*
X125750000Y-85620000D01*
X123850000Y-88980000D02*
X123850000Y-85620000D01*
X125750000Y-85620000D02*
X125750000Y-88980000D01*
X125750000Y-88980000D02*
X123850000Y-88980000D01*
%TO.C,R5*%
X107532500Y-92550000D02*
X110892500Y-92550000D01*
X107532500Y-94450000D02*
X107532500Y-92550000D01*
X110892500Y-92550000D02*
X110892500Y-94450000D01*
X110892500Y-94450000D02*
X107532500Y-94450000D01*
%TO.C,R9*%
X126150000Y-87350000D02*
X129850000Y-87350000D01*
X126150000Y-89250000D02*
X126150000Y-87350000D01*
X129850000Y-87350000D02*
X129850000Y-89250000D01*
X129850000Y-89250000D02*
X126150000Y-89250000D01*
%TO.C,TP2*%
X104200000Y-83000000D02*
G75*
G02*
X102200000Y-83000000I-1000000J0D01*
G01*
X102200000Y-83000000D02*
G75*
G02*
X104200000Y-83000000I1000000J0D01*
G01*
%TO.C,TP4*%
X99800000Y-82300000D02*
G75*
G02*
X97800000Y-82300000I-1000000J0D01*
G01*
X97800000Y-82300000D02*
G75*
G02*
X99800000Y-82300000I1000000J0D01*
G01*
%TO.C,R1*%
X101850000Y-73550000D02*
X103750000Y-73550000D01*
X101850000Y-77250000D02*
X101850000Y-73550000D01*
X103750000Y-73550000D02*
X103750000Y-77250000D01*
X103750000Y-77250000D02*
X101850000Y-77250000D01*
%TO.C,C1*%
X102220000Y-77320000D02*
X104180000Y-77320000D01*
X102220000Y-81080000D02*
X102220000Y-77320000D01*
X104180000Y-77320000D02*
X104180000Y-81080000D01*
X104180000Y-81080000D02*
X102220000Y-81080000D01*
D11*
%TO.C,U9*%
X128300000Y-74450000D02*
X140750000Y-74450000D01*
X128300000Y-89050000D02*
X128300000Y-74450000D01*
X140750000Y-74450000D02*
X140750000Y-89050000D01*
X140750000Y-89050000D02*
X128300000Y-89050000D01*
D10*
%TO.C,R8*%
X106950000Y-94450000D02*
X110650000Y-94450000D01*
X106950000Y-96350000D02*
X106950000Y-94450000D01*
X110650000Y-94450000D02*
X110650000Y-96350000D01*
X110650000Y-96350000D02*
X106950000Y-96350000D01*
%TO.C,U7*%
X98480000Y-83017500D02*
X98480000Y-87257500D01*
X98480000Y-87257500D02*
X102720000Y-87257500D01*
X102720000Y-83017500D02*
X98480000Y-83017500D01*
X102720000Y-87257500D02*
X102720000Y-83017500D01*
%TO.C,BOT*%
X128050000Y-86500000D02*
G75*
G02*
X125550000Y-86500000I-1250000J0D01*
G01*
X125550000Y-86500000D02*
G75*
G02*
X128050000Y-86500000I1250000J0D01*
G01*
%TO.C,R7*%
X106150000Y-90450000D02*
X109850000Y-90450000D01*
X106150000Y-92350000D02*
X106150000Y-90450000D01*
X109850000Y-90450000D02*
X109850000Y-92350000D01*
X109850000Y-92350000D02*
X106150000Y-92350000D01*
%TO.C,U1*%
X101300000Y-48810000D02*
X101300000Y-70000000D01*
X101300000Y-70000000D02*
X104250000Y-70000000D01*
X104250000Y-90200000D02*
X104250000Y-70000000D01*
X104250000Y-90200000D02*
X123750000Y-90200000D01*
X123750000Y-70000000D02*
X123750000Y-90200000D01*
X123750000Y-70000000D02*
X126700000Y-70000000D01*
X126700000Y-49000000D02*
X101300000Y-48810000D01*
X126700000Y-70000000D02*
X126700000Y-49000000D01*
%TO.C,C6*%
X128620000Y-71920000D02*
X130580000Y-71920000D01*
X128620000Y-75680000D02*
X128620000Y-71920000D01*
X130580000Y-71920000D02*
X130580000Y-75680000D01*
X130580000Y-75680000D02*
X128620000Y-75680000D01*
%TO.C,R6*%
X122250000Y-91320000D02*
X124150000Y-91320000D01*
X122250000Y-94680000D02*
X122250000Y-91320000D01*
X124150000Y-91320000D02*
X124150000Y-94680000D01*
X124150000Y-94680000D02*
X122250000Y-94680000D01*
%TO.C,R4*%
X98000000Y-78650000D02*
X101700000Y-78650000D01*
X98000000Y-80550000D02*
X98000000Y-78650000D01*
X101700000Y-78650000D02*
X101700000Y-80550000D01*
X101700000Y-80550000D02*
X98000000Y-80550000D01*
%TO.C,J4*%
X132400000Y-65920000D02*
X132400000Y-77120000D01*
X132400000Y-77120000D02*
X136000000Y-77120000D01*
X136000000Y-65920000D02*
X132400000Y-65920000D01*
X136000000Y-77120000D02*
X136000000Y-65920000D01*
%TO.C,C2*%
X96020000Y-76320000D02*
X97980000Y-76320000D01*
X96020000Y-80080000D02*
X96020000Y-76320000D01*
X97980000Y-76320000D02*
X97980000Y-80080000D01*
X97980000Y-80080000D02*
X96020000Y-80080000D01*
%TO.C,C4*%
X100120000Y-71420000D02*
X103880000Y-71420000D01*
X100120000Y-73380000D02*
X100120000Y-71420000D01*
X103880000Y-71420000D02*
X103880000Y-73380000D01*
X103880000Y-73380000D02*
X100120000Y-73380000D01*
%TD*%
M02*
