%TF.GenerationSoftware,KiCad,Pcbnew,8.0.1*%
%TF.CreationDate,2024-05-06T20:31:10+02:00*%
%TF.ProjectId,smartknob,736d6172-746b-46e6-9f62-2e6b69636164,rev?*%
%TF.SameCoordinates,Original*%
%TF.FileFunction,Other,User*%
%FSLAX46Y46*%
G04 Gerber Fmt 4.6, Leading zero omitted, Abs format (unit mm)*
G04 Created by KiCad (PCBNEW 8.0.1) date 2024-05-06 20:31:10*
%MOMM*%
%LPD*%
G01*
G04 APERTURE LIST*
%ADD10C,0.050000*%
%ADD11C,0.150000*%
G04 APERTURE END LIST*
D10*
%TO.C,R21*%
X117750000Y-68050000D02*
X121450000Y-68050000D01*
X117750000Y-69950000D02*
X117750000Y-68050000D01*
X121450000Y-68050000D02*
X121450000Y-69950000D01*
X121450000Y-69950000D02*
X117750000Y-69950000D01*
%TO.C,C11*%
X102320000Y-74320000D02*
X106080000Y-74320000D01*
X102320000Y-76280000D02*
X102320000Y-74320000D01*
X106080000Y-74320000D02*
X106080000Y-76280000D01*
X106080000Y-76280000D02*
X102320000Y-76280000D01*
%TO.C,C16*%
X131757500Y-92420000D02*
X135517500Y-92420000D01*
X131757500Y-94380000D02*
X131757500Y-92420000D01*
X135517500Y-92420000D02*
X135517500Y-94380000D01*
X135517500Y-94380000D02*
X131757500Y-94380000D01*
%TO.C,R12*%
X111610000Y-86450000D02*
X115310000Y-86450000D01*
X111610000Y-88350000D02*
X111610000Y-86450000D01*
X115310000Y-86450000D02*
X115310000Y-88350000D01*
X115310000Y-88350000D02*
X111610000Y-88350000D01*
D11*
%TO.C,U5*%
X122175000Y-74700000D02*
X122175000Y-89300000D01*
X122175000Y-89300000D02*
X134625000Y-89300000D01*
X134625000Y-74700000D02*
X122175000Y-74700000D01*
X134625000Y-89300000D02*
X134625000Y-74700000D01*
D10*
%TO.C,R16*%
X113545000Y-83470000D02*
X116505000Y-83470000D01*
X113545000Y-84930000D02*
X113545000Y-83470000D01*
X116505000Y-83470000D02*
X116505000Y-84930000D01*
X116505000Y-84930000D02*
X113545000Y-84930000D01*
%TO.C,D8*%
X128550000Y-58250000D02*
X128550000Y-63750000D01*
X128550000Y-63750000D02*
X135450000Y-63750000D01*
X135450000Y-58250000D02*
X128550000Y-58250000D01*
X135450000Y-63750000D02*
X135450000Y-58250000D01*
%TO.C,Ur1*%
X108655522Y-76541521D02*
X112041521Y-85844477D01*
X112041521Y-85844477D02*
X121344479Y-82458479D01*
X117958479Y-73155522D02*
X108655522Y-76541521D01*
X121344479Y-82458479D02*
X117958479Y-73155522D01*
%TO.C,D2*%
X108150000Y-70250000D02*
X108150000Y-75750000D01*
X108150000Y-75750000D02*
X115050000Y-75750000D01*
X115050000Y-70250000D02*
X108150000Y-70250000D01*
X115050000Y-75750000D02*
X115050000Y-70250000D01*
%TO.C,D6*%
X93050000Y-95250000D02*
X93050000Y-100750000D01*
X93050000Y-100750000D02*
X99950000Y-100750000D01*
X99950000Y-95250000D02*
X93050000Y-95250000D01*
X99950000Y-100750000D02*
X99950000Y-95250000D01*
%TO.C,C17*%
X92857500Y-64520000D02*
X96617500Y-64520000D01*
X92857500Y-66480000D02*
X92857500Y-64520000D01*
X96617500Y-64520000D02*
X96617500Y-66480000D01*
X96617500Y-66480000D02*
X92857500Y-66480000D01*
%TO.C,JP1*%
X98650000Y-88600000D02*
X98650000Y-85300000D01*
X98650000Y-88600000D02*
X101150000Y-88600000D01*
X101150000Y-85300000D02*
X98650000Y-85300000D01*
X101150000Y-85300000D02*
X101150000Y-88600000D01*
%TO.C,C3*%
X114220000Y-92320000D02*
X116180000Y-92320000D01*
X114220000Y-96080000D02*
X114220000Y-92320000D01*
X116180000Y-92320000D02*
X116180000Y-96080000D01*
X116180000Y-96080000D02*
X114220000Y-96080000D01*
%TO.C,C10*%
X102820000Y-85720000D02*
X106580000Y-85720000D01*
X102820000Y-87680000D02*
X102820000Y-85720000D01*
X106580000Y-85720000D02*
X106580000Y-87680000D01*
X106580000Y-87680000D02*
X102820000Y-87680000D01*
%TO.C,C8*%
X98020000Y-80720000D02*
X99980000Y-80720000D01*
X98020000Y-84480000D02*
X98020000Y-80720000D01*
X99980000Y-80720000D02*
X99980000Y-84480000D01*
X99980000Y-84480000D02*
X98020000Y-84480000D01*
%TO.C,R13*%
X116850000Y-90950000D02*
X118750000Y-90950000D01*
X116850000Y-94650000D02*
X116850000Y-90950000D01*
X118750000Y-90950000D02*
X118750000Y-94650000D01*
X118750000Y-94650000D02*
X116850000Y-94650000D01*
%TO.C,C9*%
X100420000Y-81520000D02*
X102380000Y-81520000D01*
X100420000Y-85280000D02*
X100420000Y-81520000D01*
X102380000Y-81520000D02*
X102380000Y-85280000D01*
X102380000Y-85280000D02*
X100420000Y-85280000D01*
%TO.C,BLK*%
X118150000Y-75750000D02*
X118150000Y-78250000D01*
X118150000Y-75750000D02*
X120650000Y-75750000D01*
X120650000Y-78250000D02*
X118150000Y-78250000D01*
X120650000Y-78250000D02*
X120650000Y-75750000D01*
%TO.C,J1*%
X124800000Y-68850000D02*
X124800000Y-85150000D01*
X124800000Y-85150000D02*
X128400000Y-85150000D01*
X128400000Y-68850000D02*
X124800000Y-68850000D01*
X128400000Y-85150000D02*
X128400000Y-68850000D01*
%TO.C,Q1*%
X116542500Y-82650000D02*
X116542500Y-86050000D01*
X116542500Y-86050000D02*
X120382500Y-86050000D01*
X120382500Y-82650000D02*
X116542500Y-82650000D01*
X120382500Y-86050000D02*
X120382500Y-82650000D01*
%TO.C,R14*%
X102050000Y-76350000D02*
X105750000Y-76350000D01*
X102050000Y-78250000D02*
X102050000Y-76350000D01*
X105750000Y-76350000D02*
X105750000Y-78250000D01*
X105750000Y-78250000D02*
X102050000Y-78250000D01*
%TO.C,LED*%
X105950000Y-64350000D02*
X105950000Y-66850000D01*
X105950000Y-64350000D02*
X108450000Y-64350000D01*
X108450000Y-66850000D02*
X105950000Y-66850000D01*
X108450000Y-66850000D02*
X108450000Y-64350000D01*
%TO.C,SW2*%
X122561238Y-62774130D02*
X120004376Y-66293355D01*
X124453968Y-69526173D02*
X120004376Y-66293355D01*
X127010833Y-66006948D02*
X122561238Y-62774130D01*
X127010833Y-66006948D02*
X124453968Y-69526173D01*
%TO.C,GND*%
X99350000Y-75950000D02*
X99350000Y-78450000D01*
X99350000Y-75950000D02*
X101850000Y-75950000D01*
X101850000Y-78450000D02*
X99350000Y-78450000D01*
X101850000Y-78450000D02*
X101850000Y-75950000D01*
%TO.C,R2*%
X108050000Y-75750000D02*
X109950000Y-75750000D01*
X108050000Y-79450000D02*
X108050000Y-75750000D01*
X109950000Y-75750000D02*
X109950000Y-79450000D01*
X109950000Y-79450000D02*
X108050000Y-79450000D01*
%TO.C,C13*%
X106020000Y-70320000D02*
X107980000Y-70320000D01*
X106020000Y-74080000D02*
X106020000Y-70320000D01*
X107980000Y-70320000D02*
X107980000Y-74080000D01*
X107980000Y-74080000D02*
X106020000Y-74080000D01*
%TO.C,R11*%
X106950000Y-87350000D02*
X110650000Y-87350000D01*
X106950000Y-89250000D02*
X106950000Y-87350000D01*
X110650000Y-87350000D02*
X110650000Y-89250000D01*
X110650000Y-89250000D02*
X106950000Y-89250000D01*
%TO.C,D5*%
X93050000Y-58250000D02*
X93050000Y-63750000D01*
X93050000Y-63750000D02*
X99950000Y-63750000D01*
X99950000Y-58250000D02*
X93050000Y-58250000D01*
X99950000Y-63750000D02*
X99950000Y-58250000D01*
%TO.C,GND*%
X107550000Y-93750000D02*
X107550000Y-96250000D01*
X107550000Y-93750000D02*
X110050000Y-93750000D01*
X110050000Y-96250000D02*
X107550000Y-96250000D01*
X110050000Y-96250000D02*
X110050000Y-93750000D01*
%TO.C,U8*%
X104400000Y-79700000D02*
X104400000Y-85000000D01*
X109700000Y-79700000D02*
X104400000Y-79700000D01*
X109700000Y-79700000D02*
X109700000Y-85000000D01*
X109700000Y-85000000D02*
X104400000Y-85000000D01*
%TO.C,BAT*%
X106950000Y-89350000D02*
X106950000Y-91850000D01*
X106950000Y-89350000D02*
X109450000Y-89350000D01*
X109450000Y-91850000D02*
X106950000Y-91850000D01*
X109450000Y-91850000D02*
X109450000Y-89350000D01*
%TO.C,JP2*%
X119650000Y-91450000D02*
X119650000Y-88150000D01*
X119650000Y-91450000D02*
X122150000Y-91450000D01*
X122150000Y-88150000D02*
X119650000Y-88150000D01*
X122150000Y-88150000D02*
X122150000Y-91450000D01*
%TO.C,C5*%
X102920000Y-87720000D02*
X106680000Y-87720000D01*
X102920000Y-89680000D02*
X102920000Y-87720000D01*
X106680000Y-87720000D02*
X106680000Y-89680000D01*
X106680000Y-89680000D02*
X102920000Y-89680000D01*
%TO.C,R17*%
X111970000Y-82420000D02*
X113430000Y-82420000D01*
X111970000Y-85380000D02*
X111970000Y-82420000D01*
X113430000Y-82420000D02*
X113430000Y-85380000D01*
X113430000Y-85380000D02*
X111970000Y-85380000D01*
%TO.C,C12*%
X103420000Y-70157500D02*
X105380000Y-70157500D01*
X103420000Y-73917500D02*
X103420000Y-70157500D01*
X105380000Y-70157500D02*
X105380000Y-73917500D01*
X105380000Y-73917500D02*
X103420000Y-73917500D01*
%TO.C,RES*%
X101150000Y-78550000D02*
X101150000Y-81050000D01*
X101150000Y-78550000D02*
X103650000Y-78550000D01*
X103650000Y-81050000D02*
X101150000Y-81050000D01*
X103650000Y-81050000D02*
X103650000Y-78550000D01*
%TO.C,TP5*%
X121100000Y-87100000D02*
G75*
G02*
X119100000Y-87100000I-1000000J0D01*
G01*
X119100000Y-87100000D02*
G75*
G02*
X121100000Y-87100000I1000000J0D01*
G01*
%TO.C,D1*%
X117700000Y-70250000D02*
X117700000Y-75750000D01*
X117700000Y-75750000D02*
X124600000Y-75750000D01*
X124600000Y-70250000D02*
X117700000Y-70250000D01*
X124600000Y-75750000D02*
X124600000Y-70250000D01*
%TO.C,C15*%
X100220000Y-98520000D02*
X103980000Y-98520000D01*
X100220000Y-100480000D02*
X100220000Y-98520000D01*
X103980000Y-98520000D02*
X103980000Y-100480000D01*
X103980000Y-100480000D02*
X100220000Y-100480000D01*
%TO.C,BAT+*%
X98650000Y-72050000D02*
X98650000Y-74550000D01*
X98650000Y-72050000D02*
X101150000Y-72050000D01*
X101150000Y-74550000D02*
X98650000Y-74550000D01*
X101150000Y-74550000D02*
X101150000Y-72050000D01*
%TO.C,R10*%
X107050000Y-85250000D02*
X110750000Y-85250000D01*
X107050000Y-87150000D02*
X107050000Y-85250000D01*
X110750000Y-85250000D02*
X110750000Y-87150000D01*
X110750000Y-87150000D02*
X107050000Y-87150000D01*
%TO.C,R3*%
X106150000Y-74850000D02*
X108050000Y-74850000D01*
X106150000Y-78550000D02*
X106150000Y-74850000D01*
X108050000Y-74850000D02*
X108050000Y-78550000D01*
X108050000Y-78550000D02*
X106150000Y-78550000D01*
%TO.C,D3*%
X113470000Y-88740000D02*
X115370000Y-88740000D01*
X113470000Y-92100000D02*
X113470000Y-88740000D01*
X115370000Y-88740000D02*
X115370000Y-92100000D01*
X115370000Y-92100000D02*
X113470000Y-92100000D01*
%TO.C,D7*%
X128550000Y-95250000D02*
X128550000Y-100750000D01*
X128550000Y-100750000D02*
X135450000Y-100750000D01*
X135450000Y-95250000D02*
X128550000Y-95250000D01*
X135450000Y-100750000D02*
X135450000Y-95250000D01*
%TO.C,C14*%
X131220000Y-63820000D02*
X134980000Y-63820000D01*
X131220000Y-65780000D02*
X131220000Y-63820000D01*
X134980000Y-63820000D02*
X134980000Y-65780000D01*
X134980000Y-65780000D02*
X131220000Y-65780000D01*
%TO.C,R18*%
X119053126Y-81793634D02*
X120750912Y-79368944D01*
X120249088Y-82631056D02*
X119053126Y-81793634D01*
X120750912Y-79368944D02*
X121946874Y-80206366D01*
X121946874Y-80206366D02*
X120249088Y-82631056D01*
%TO.C,J2*%
X98858365Y-89814555D02*
X104974838Y-95931029D01*
X101403949Y-87268971D02*
X98858365Y-89814555D01*
X104974838Y-95931029D02*
X107520423Y-93385444D01*
X107520423Y-93385444D02*
X101403949Y-87268971D01*
%TO.C,U6*%
X110325000Y-76995000D02*
X110325000Y-82395000D01*
X110325000Y-82395000D02*
X117725000Y-82395000D01*
X117725000Y-76995000D02*
X110325000Y-76995000D01*
X117725000Y-82395000D02*
X117725000Y-76995000D01*
%TO.C,D4*%
X115250000Y-69850000D02*
X117550000Y-69850000D01*
X115250000Y-74550000D02*
X115250000Y-69850000D01*
X115250000Y-74550000D02*
X117550000Y-74550000D01*
X117550000Y-69850000D02*
X117550000Y-74550000D01*
%TD*%
M02*
