%TF.GenerationSoftware,KiCad,Pcbnew,8.0.1*%
%TF.CreationDate,2024-05-06T20:31:10+02:00*%
%TF.ProjectId,smartknob,736d6172-746b-46e6-9f62-2e6b69636164,rev?*%
%TF.SameCoordinates,Original*%
%TF.FileFunction,Legend,Bot*%
%TF.FilePolarity,Positive*%
%FSLAX46Y46*%
G04 Gerber Fmt 4.6, Leading zero omitted, Abs format (unit mm)*
G04 Created by KiCad (PCBNEW 8.0.1) date 2024-05-06 20:31:10*
%MOMM*%
%LPD*%
G01*
G04 APERTURE LIST*
%ADD10C,0.150000*%
%ADD11C,0.152000*%
%ADD12C,0.120000*%
%ADD13C,0.010000*%
%ADD14C,0.254000*%
G04 APERTURE END LIST*
D10*
G36*
X118748159Y-64643100D02*
G01*
X118828176Y-64681926D01*
X118859504Y-64712171D01*
X118895026Y-64781151D01*
X118895815Y-64841312D01*
X118862767Y-64909421D01*
X118832521Y-64940748D01*
X118758040Y-64979103D01*
X118584668Y-65023706D01*
X118364995Y-65024959D01*
X118191477Y-64982837D01*
X118111461Y-64944012D01*
X118080133Y-64913767D01*
X118044611Y-64844786D01*
X118043822Y-64784625D01*
X118076871Y-64716515D01*
X118107115Y-64685188D01*
X118181596Y-64646834D01*
X118354968Y-64602231D01*
X118574641Y-64600978D01*
X118748159Y-64643100D01*
G37*
G36*
X118732938Y-62634307D02*
G01*
X118764265Y-62664551D01*
X118799787Y-62733532D01*
X118800576Y-62793693D01*
X118767528Y-62861802D01*
X118749055Y-62880936D01*
X118524867Y-62881752D01*
X118508704Y-62866148D01*
X118473182Y-62797167D01*
X118472393Y-62737006D01*
X118505442Y-62668896D01*
X118535686Y-62637569D01*
X118604667Y-62602047D01*
X118664828Y-62601258D01*
X118732938Y-62634307D01*
G37*
G36*
X119298698Y-67235734D02*
G01*
X117736678Y-67235734D01*
X117736678Y-66679492D01*
X117847789Y-66679492D01*
X117857043Y-66707255D01*
X117876217Y-66729362D01*
X117902390Y-66742448D01*
X117931580Y-66744523D01*
X117945917Y-66741263D01*
X118561718Y-66534710D01*
X118562399Y-66834068D01*
X118288520Y-66834648D01*
X118261484Y-66845847D01*
X118240792Y-66866539D01*
X118229593Y-66893575D01*
X118229593Y-66922839D01*
X118240792Y-66949875D01*
X118261484Y-66970567D01*
X118288520Y-66981766D01*
X118303152Y-66983207D01*
X118562737Y-66982657D01*
X118562926Y-67065696D01*
X118574125Y-67092732D01*
X118594817Y-67113424D01*
X118621853Y-67124623D01*
X118651117Y-67124623D01*
X118678153Y-67113424D01*
X118698845Y-67092732D01*
X118710044Y-67065696D01*
X118711485Y-67051064D01*
X118711328Y-66982343D01*
X118984451Y-66981766D01*
X119011487Y-66970567D01*
X119032179Y-66949875D01*
X119043378Y-66922839D01*
X119043378Y-66893575D01*
X119032179Y-66866539D01*
X119011487Y-66845847D01*
X118984451Y-66834648D01*
X118969819Y-66833207D01*
X118710990Y-66833754D01*
X118710081Y-66434088D01*
X118710896Y-66422637D01*
X118710050Y-66420099D01*
X118710044Y-66417385D01*
X118705442Y-66406275D01*
X118701642Y-66394875D01*
X118699876Y-66392839D01*
X118698845Y-66390349D01*
X118690342Y-66381846D01*
X118682468Y-66372767D01*
X118680058Y-66371562D01*
X118678153Y-66369657D01*
X118667041Y-66365054D01*
X118656294Y-66359681D01*
X118653608Y-66359490D01*
X118651117Y-66358458D01*
X118639089Y-66358458D01*
X118627104Y-66357606D01*
X118623357Y-66358458D01*
X118621853Y-66358458D01*
X118620022Y-66359216D01*
X118612767Y-66360866D01*
X117885057Y-66604955D01*
X117862950Y-66624129D01*
X117849864Y-66650302D01*
X117847789Y-66679492D01*
X117736678Y-66679492D01*
X117736678Y-65622493D01*
X117894819Y-65622493D01*
X117896111Y-65849097D01*
X117895408Y-65851207D01*
X117896185Y-65862149D01*
X117896260Y-65875220D01*
X117897291Y-65877709D01*
X117897482Y-65880397D01*
X117902737Y-65894129D01*
X117951429Y-65988685D01*
X117955078Y-65997494D01*
X117957460Y-66000396D01*
X117958188Y-66001810D01*
X117959686Y-66003109D01*
X117964405Y-66008859D01*
X118013440Y-66056200D01*
X118019073Y-66062695D01*
X118022218Y-66064674D01*
X118023389Y-66065805D01*
X118025216Y-66066562D01*
X118031516Y-66070527D01*
X118117405Y-66112202D01*
X118118627Y-66113424D01*
X118127486Y-66117093D01*
X118140485Y-66123401D01*
X118143174Y-66123592D01*
X118145663Y-66124623D01*
X118160295Y-66126064D01*
X118255612Y-66124813D01*
X118264913Y-66125475D01*
X118268567Y-66124643D01*
X118270165Y-66124623D01*
X118271996Y-66123864D01*
X118279250Y-66122215D01*
X118411040Y-66077004D01*
X118413021Y-66077004D01*
X118422570Y-66073048D01*
X118435532Y-66068602D01*
X118437567Y-66066836D01*
X118440058Y-66065805D01*
X118451423Y-66056478D01*
X118895226Y-65611118D01*
X118896260Y-66065696D01*
X118907459Y-66092732D01*
X118928151Y-66113424D01*
X118955187Y-66124623D01*
X118984451Y-66124623D01*
X119011487Y-66113424D01*
X119032179Y-66092732D01*
X119043378Y-66065696D01*
X119044819Y-66051064D01*
X119043378Y-65417385D01*
X119038694Y-65406077D01*
X119032180Y-65390349D01*
X119011487Y-65369657D01*
X118984451Y-65358458D01*
X118955187Y-65358458D01*
X118947268Y-65361737D01*
X118928151Y-65369656D01*
X118916786Y-65378984D01*
X118360599Y-65937121D01*
X118246746Y-65976179D01*
X118179570Y-65977060D01*
X118111461Y-65944012D01*
X118080133Y-65913767D01*
X118044730Y-65845016D01*
X118043574Y-65642280D01*
X118076871Y-65573658D01*
X118127417Y-65521304D01*
X118138616Y-65494268D01*
X118138616Y-65465005D01*
X118127417Y-65437969D01*
X118106724Y-65417276D01*
X118079688Y-65406077D01*
X118050425Y-65406077D01*
X118023389Y-65417276D01*
X118012024Y-65426603D01*
X117964682Y-65475638D01*
X117958188Y-65481271D01*
X117956208Y-65484416D01*
X117955078Y-65485587D01*
X117954320Y-65487414D01*
X117950356Y-65493714D01*
X117908681Y-65579602D01*
X117907459Y-65580825D01*
X117903786Y-65589690D01*
X117897482Y-65602684D01*
X117897291Y-65605371D01*
X117896260Y-65607861D01*
X117894819Y-65622493D01*
X117736678Y-65622493D01*
X117736678Y-64765350D01*
X117894819Y-64765350D01*
X117895924Y-64849656D01*
X117895408Y-64851207D01*
X117896066Y-64860476D01*
X117896260Y-64875220D01*
X117897291Y-64877709D01*
X117897482Y-64880397D01*
X117902737Y-64894129D01*
X117951429Y-64988685D01*
X117955078Y-64997494D01*
X117957460Y-65000396D01*
X117958188Y-65001810D01*
X117959686Y-65003109D01*
X117964405Y-65008859D01*
X118013440Y-65056200D01*
X118019073Y-65062695D01*
X118022218Y-65064674D01*
X118023389Y-65065805D01*
X118025216Y-65066562D01*
X118031516Y-65070527D01*
X118122748Y-65114795D01*
X118128259Y-65118878D01*
X118139274Y-65122813D01*
X118140485Y-65123401D01*
X118141025Y-65123439D01*
X118142105Y-65123825D01*
X118328470Y-65169065D01*
X118336139Y-65172242D01*
X118345253Y-65173139D01*
X118347125Y-65173594D01*
X118348217Y-65173431D01*
X118350771Y-65173683D01*
X118584166Y-65172352D01*
X118592512Y-65173594D01*
X118601583Y-65172252D01*
X118603498Y-65172242D01*
X118604519Y-65171819D01*
X118607056Y-65171444D01*
X118791754Y-65123926D01*
X118799151Y-65123401D01*
X118810133Y-65119198D01*
X118811378Y-65118878D01*
X118811813Y-65118555D01*
X118812883Y-65118146D01*
X118907435Y-65069455D01*
X118916247Y-65065806D01*
X118919151Y-65063422D01*
X118920564Y-65062695D01*
X118921863Y-65061196D01*
X118927612Y-65056479D01*
X118974953Y-65007443D01*
X118981450Y-65001810D01*
X118983429Y-64998664D01*
X118984560Y-64997494D01*
X118985317Y-64995666D01*
X118989282Y-64989367D01*
X119030957Y-64903477D01*
X119032179Y-64902256D01*
X119035848Y-64893396D01*
X119042156Y-64880398D01*
X119042347Y-64877708D01*
X119043378Y-64875220D01*
X119044819Y-64860588D01*
X119043713Y-64776280D01*
X119044230Y-64774730D01*
X119043571Y-64765459D01*
X119043378Y-64750718D01*
X119042347Y-64748229D01*
X119042156Y-64745540D01*
X119036901Y-64731809D01*
X118988209Y-64637254D01*
X118984560Y-64628444D01*
X118982177Y-64625541D01*
X118981450Y-64624128D01*
X118979950Y-64622827D01*
X118975232Y-64617078D01*
X118926195Y-64569736D01*
X118920564Y-64563243D01*
X118917418Y-64561263D01*
X118916247Y-64560132D01*
X118914417Y-64559374D01*
X118908121Y-64555411D01*
X118816889Y-64511144D01*
X118811378Y-64507060D01*
X118800358Y-64503122D01*
X118799151Y-64502537D01*
X118798611Y-64502498D01*
X118797532Y-64502113D01*
X118611166Y-64456872D01*
X118603498Y-64453696D01*
X118594383Y-64452798D01*
X118592512Y-64452344D01*
X118591419Y-64452506D01*
X118588866Y-64452255D01*
X118355470Y-64453585D01*
X118347125Y-64452344D01*
X118338053Y-64453685D01*
X118336139Y-64453696D01*
X118335117Y-64454118D01*
X118332581Y-64454494D01*
X118147882Y-64502011D01*
X118140485Y-64502537D01*
X118129502Y-64506740D01*
X118128259Y-64507060D01*
X118127823Y-64507382D01*
X118126754Y-64507792D01*
X118032199Y-64556483D01*
X118023389Y-64560133D01*
X118020486Y-64562515D01*
X118019073Y-64563243D01*
X118017773Y-64564741D01*
X118012024Y-64569460D01*
X117964682Y-64618495D01*
X117958188Y-64624128D01*
X117956208Y-64627273D01*
X117955078Y-64628444D01*
X117954320Y-64630271D01*
X117950356Y-64636571D01*
X117908681Y-64722459D01*
X117907459Y-64723682D01*
X117903786Y-64732547D01*
X117897482Y-64745541D01*
X117897291Y-64748228D01*
X117896260Y-64750718D01*
X117894819Y-64765350D01*
X117736678Y-64765350D01*
X117736678Y-63717731D01*
X117894819Y-63717731D01*
X117896111Y-63944335D01*
X117895408Y-63946445D01*
X117896185Y-63957387D01*
X117896260Y-63970458D01*
X117897291Y-63972947D01*
X117897482Y-63975635D01*
X117902737Y-63989367D01*
X117951429Y-64083923D01*
X117955078Y-64092732D01*
X117957460Y-64095634D01*
X117958188Y-64097048D01*
X117959686Y-64098347D01*
X117964405Y-64104097D01*
X118013440Y-64151438D01*
X118019073Y-64157933D01*
X118022218Y-64159912D01*
X118023389Y-64161043D01*
X118025216Y-64161800D01*
X118031516Y-64165765D01*
X118117405Y-64207440D01*
X118118627Y-64208662D01*
X118127486Y-64212331D01*
X118140485Y-64218639D01*
X118143174Y-64218830D01*
X118145663Y-64219861D01*
X118160295Y-64221302D01*
X118255612Y-64220051D01*
X118264913Y-64220713D01*
X118268567Y-64219881D01*
X118270165Y-64219861D01*
X118271996Y-64219102D01*
X118279250Y-64217453D01*
X118411040Y-64172242D01*
X118413021Y-64172242D01*
X118422570Y-64168286D01*
X118435532Y-64163840D01*
X118437567Y-64162074D01*
X118440058Y-64161043D01*
X118451423Y-64151716D01*
X118895226Y-63706356D01*
X118896260Y-64160934D01*
X118907459Y-64187970D01*
X118928151Y-64208662D01*
X118955187Y-64219861D01*
X118984451Y-64219861D01*
X119011487Y-64208662D01*
X119032179Y-64187970D01*
X119043378Y-64160934D01*
X119044819Y-64146302D01*
X119043378Y-63512623D01*
X119038694Y-63501315D01*
X119032180Y-63485587D01*
X119011487Y-63464895D01*
X118984451Y-63453696D01*
X118955187Y-63453696D01*
X118947268Y-63456975D01*
X118928151Y-63464894D01*
X118916786Y-63474222D01*
X118360599Y-64032359D01*
X118246746Y-64071417D01*
X118179570Y-64072298D01*
X118111461Y-64039250D01*
X118080133Y-64009005D01*
X118044730Y-63940254D01*
X118043574Y-63737518D01*
X118076871Y-63668896D01*
X118127417Y-63616542D01*
X118138616Y-63589506D01*
X118138616Y-63560243D01*
X118127417Y-63533207D01*
X118106724Y-63512514D01*
X118079688Y-63501315D01*
X118050425Y-63501315D01*
X118023389Y-63512514D01*
X118012024Y-63521841D01*
X117964682Y-63570876D01*
X117958188Y-63576509D01*
X117956208Y-63579654D01*
X117955078Y-63580825D01*
X117954320Y-63582652D01*
X117950356Y-63588952D01*
X117908681Y-63674840D01*
X117907459Y-63676063D01*
X117903786Y-63684928D01*
X117897482Y-63697922D01*
X117897291Y-63700609D01*
X117896260Y-63703099D01*
X117894819Y-63717731D01*
X117736678Y-63717731D01*
X117736678Y-62768996D01*
X118085384Y-62768996D01*
X118087534Y-62783540D01*
X118136495Y-62973852D01*
X118138593Y-62984454D01*
X118139810Y-62986738D01*
X118140100Y-62987862D01*
X118141205Y-62989353D01*
X118145510Y-62997428D01*
X118250064Y-63151662D01*
X118250129Y-63151706D01*
X118250174Y-63151772D01*
X118261549Y-63161088D01*
X118399732Y-63251673D01*
X118404341Y-63256282D01*
X118410918Y-63259006D01*
X118417381Y-63263243D01*
X118424587Y-63264668D01*
X118431377Y-63267481D01*
X118446009Y-63268922D01*
X118446085Y-63268921D01*
X118446088Y-63268922D01*
X118446090Y-63268921D01*
X118672613Y-63267629D01*
X118674723Y-63268333D01*
X118685665Y-63267555D01*
X118698736Y-63267481D01*
X118701225Y-63266449D01*
X118703913Y-63266259D01*
X118717645Y-63261004D01*
X118809029Y-63213944D01*
X118816484Y-63211460D01*
X118820326Y-63208127D01*
X118825326Y-63205553D01*
X118831487Y-63198448D01*
X118838592Y-63192287D01*
X118843253Y-63184881D01*
X118844499Y-63183445D01*
X118844883Y-63182291D01*
X118846424Y-63179844D01*
X118888098Y-63093954D01*
X118889321Y-63092732D01*
X118892992Y-63083867D01*
X118899298Y-63070873D01*
X118899488Y-63068185D01*
X118900520Y-63065696D01*
X118901961Y-63051064D01*
X118900520Y-62988813D01*
X118889321Y-62961777D01*
X118884390Y-62955769D01*
X118886211Y-62954191D01*
X118888190Y-62951045D01*
X118889321Y-62949875D01*
X118890078Y-62948047D01*
X118894043Y-62941748D01*
X118935718Y-62855858D01*
X118936940Y-62854637D01*
X118940609Y-62845777D01*
X118946917Y-62832779D01*
X118947108Y-62830089D01*
X118948139Y-62827601D01*
X118949580Y-62812969D01*
X118948474Y-62728661D01*
X118948991Y-62727111D01*
X118948332Y-62717840D01*
X118948139Y-62703099D01*
X118947108Y-62700610D01*
X118946917Y-62697921D01*
X118941662Y-62684190D01*
X118892970Y-62589635D01*
X118889321Y-62580825D01*
X118886938Y-62577922D01*
X118886211Y-62576509D01*
X118884712Y-62575209D01*
X118879994Y-62569460D01*
X118830958Y-62522118D01*
X118825326Y-62515624D01*
X118822180Y-62513644D01*
X118821010Y-62512514D01*
X118819182Y-62511756D01*
X118812883Y-62507792D01*
X118726994Y-62466117D01*
X118725772Y-62464895D01*
X118716906Y-62461222D01*
X118703913Y-62454918D01*
X118701225Y-62454727D01*
X118698736Y-62453696D01*
X118684104Y-62452255D01*
X118599796Y-62453360D01*
X118598246Y-62452844D01*
X118588975Y-62453502D01*
X118574234Y-62453696D01*
X118571745Y-62454726D01*
X118569056Y-62454918D01*
X118555325Y-62460173D01*
X118460770Y-62508864D01*
X118451960Y-62512514D01*
X118449057Y-62514896D01*
X118447644Y-62515624D01*
X118446344Y-62517122D01*
X118440595Y-62521841D01*
X118393253Y-62570876D01*
X118386759Y-62576509D01*
X118384779Y-62579654D01*
X118383649Y-62580825D01*
X118382891Y-62582652D01*
X118378927Y-62588952D01*
X118337252Y-62674840D01*
X118336030Y-62676063D01*
X118332357Y-62684928D01*
X118326053Y-62697922D01*
X118325862Y-62700609D01*
X118324831Y-62703099D01*
X118323390Y-62717731D01*
X118324495Y-62802037D01*
X118323979Y-62803588D01*
X118324637Y-62812857D01*
X118324831Y-62827601D01*
X118325862Y-62830090D01*
X118326053Y-62832778D01*
X118331308Y-62846510D01*
X118355907Y-62894280D01*
X118336030Y-62914158D01*
X118324831Y-62941194D01*
X118324831Y-62970458D01*
X118336030Y-62997494D01*
X118356722Y-63018186D01*
X118383758Y-63029385D01*
X118398390Y-63030826D01*
X118747744Y-63029553D01*
X118752032Y-63033693D01*
X118724660Y-63090107D01*
X118668532Y-63119010D01*
X118470257Y-63120141D01*
X118358750Y-63047042D01*
X118278283Y-62928339D01*
X118236927Y-62767591D01*
X118275547Y-62608499D01*
X118354791Y-62487617D01*
X118473494Y-62407148D01*
X118634243Y-62365792D01*
X118793336Y-62404412D01*
X118914218Y-62483656D01*
X118994687Y-62602359D01*
X119036043Y-62763108D01*
X118997423Y-62922200D01*
X118900498Y-63070056D01*
X118894819Y-63098763D01*
X118900558Y-63127458D01*
X118916841Y-63151773D01*
X118941191Y-63168005D01*
X118969898Y-63173684D01*
X118998593Y-63167945D01*
X119022908Y-63151662D01*
X119032223Y-63140286D01*
X119126565Y-62996372D01*
X119132871Y-62987862D01*
X119133742Y-62985424D01*
X119134378Y-62984454D01*
X119134736Y-62982639D01*
X119137818Y-62974016D01*
X119181685Y-62793306D01*
X119183280Y-62790649D01*
X119184783Y-62780544D01*
X119187587Y-62768996D01*
X119187044Y-62765350D01*
X119187587Y-62761704D01*
X119185437Y-62747160D01*
X119136475Y-62556847D01*
X119134378Y-62546246D01*
X119133160Y-62543961D01*
X119132871Y-62542838D01*
X119131765Y-62541346D01*
X119127461Y-62533272D01*
X119022907Y-62379039D01*
X119022841Y-62378994D01*
X119022797Y-62378929D01*
X119011422Y-62369613D01*
X118867506Y-62275270D01*
X118858997Y-62268965D01*
X118856559Y-62268094D01*
X118855589Y-62267458D01*
X118853774Y-62267099D01*
X118845151Y-62264018D01*
X118664441Y-62220150D01*
X118661784Y-62218556D01*
X118651679Y-62217052D01*
X118640131Y-62214249D01*
X118636485Y-62214791D01*
X118632839Y-62214249D01*
X118618295Y-62216399D01*
X118427982Y-62265360D01*
X118417381Y-62267458D01*
X118415096Y-62268675D01*
X118413973Y-62268965D01*
X118412481Y-62270070D01*
X118404407Y-62274375D01*
X118250174Y-62378929D01*
X118250129Y-62378994D01*
X118250064Y-62379039D01*
X118240748Y-62390414D01*
X118146400Y-62534334D01*
X118140100Y-62542838D01*
X118139229Y-62545273D01*
X118138593Y-62546245D01*
X118138233Y-62548061D01*
X118135153Y-62556684D01*
X118091285Y-62737393D01*
X118089691Y-62740051D01*
X118088187Y-62750155D01*
X118085384Y-62761704D01*
X118085926Y-62765350D01*
X118085384Y-62768996D01*
X117736678Y-62768996D01*
X117736678Y-62103138D01*
X119298698Y-62103138D01*
X119298698Y-67235734D01*
G37*
G36*
X110119943Y-64935893D02*
G01*
X110086576Y-65004659D01*
X110056331Y-65035987D01*
X109987474Y-65071445D01*
X109879842Y-65072430D01*
X109811461Y-65039250D01*
X109780133Y-65009005D01*
X109744762Y-64940317D01*
X109743704Y-64649769D01*
X110118898Y-64649236D01*
X110119943Y-64935893D01*
G37*
G36*
X110432938Y-62634307D02*
G01*
X110464265Y-62664551D01*
X110499787Y-62733532D01*
X110500576Y-62793693D01*
X110467528Y-62861802D01*
X110449055Y-62880936D01*
X110224867Y-62881752D01*
X110208704Y-62866148D01*
X110173182Y-62797167D01*
X110172393Y-62737006D01*
X110205442Y-62668896D01*
X110235686Y-62637569D01*
X110304667Y-62602047D01*
X110364828Y-62601258D01*
X110432938Y-62634307D01*
G37*
G36*
X110998698Y-68237174D02*
G01*
X109483708Y-68237174D01*
X109483708Y-67765349D01*
X109594819Y-67765349D01*
X109596023Y-67896978D01*
X109595408Y-67898825D01*
X109596133Y-67909039D01*
X109596260Y-67922838D01*
X109597291Y-67925327D01*
X109597482Y-67928015D01*
X109602737Y-67941747D01*
X109658188Y-68049428D01*
X109680296Y-68068601D01*
X109708057Y-68077855D01*
X109737247Y-68075781D01*
X109763422Y-68062693D01*
X109782595Y-68040586D01*
X109791849Y-68012824D01*
X109789775Y-67983634D01*
X109784520Y-67969903D01*
X109744675Y-67892528D01*
X109743653Y-67780776D01*
X109781290Y-67664495D01*
X109854080Y-67590286D01*
X109929215Y-67551595D01*
X110102645Y-67506977D01*
X110227417Y-67505835D01*
X110400540Y-67547861D01*
X110480350Y-67586587D01*
X110556076Y-67660864D01*
X110594934Y-67774134D01*
X110595870Y-67845513D01*
X110558262Y-67961705D01*
X110544279Y-67976188D01*
X110315727Y-67977134D01*
X110314806Y-67845955D01*
X110303607Y-67818919D01*
X110282915Y-67798227D01*
X110255879Y-67787028D01*
X110226615Y-67787028D01*
X110199579Y-67798227D01*
X110178887Y-67818919D01*
X110167688Y-67845955D01*
X110166247Y-67860587D01*
X110167688Y-68065694D01*
X110167688Y-68065695D01*
X110178887Y-68092731D01*
X110199579Y-68113423D01*
X110226615Y-68124622D01*
X110241247Y-68126063D01*
X110589212Y-68124622D01*
X110600410Y-68119983D01*
X110616247Y-68113424D01*
X110627612Y-68104097D01*
X110667027Y-68063271D01*
X110668183Y-68062694D01*
X110673466Y-68056602D01*
X110684560Y-68045112D01*
X110685590Y-68042623D01*
X110687357Y-68040587D01*
X110693351Y-68027161D01*
X110739500Y-67884579D01*
X110743378Y-67875219D01*
X110743748Y-67871455D01*
X110744230Y-67869968D01*
X110744089Y-67867993D01*
X110744819Y-67860587D01*
X110743568Y-67765268D01*
X110744230Y-67755968D01*
X110743398Y-67752313D01*
X110743378Y-67750717D01*
X110742619Y-67748886D01*
X110740970Y-67741631D01*
X110695759Y-67609840D01*
X110695759Y-67607860D01*
X110691802Y-67598307D01*
X110687357Y-67585349D01*
X110685592Y-67583314D01*
X110684561Y-67580824D01*
X110675233Y-67569459D01*
X110579468Y-67475526D01*
X110572945Y-67468004D01*
X110569748Y-67465991D01*
X110568628Y-67464893D01*
X110566798Y-67464135D01*
X110560502Y-67460172D01*
X110469270Y-67415905D01*
X110463759Y-67411821D01*
X110452739Y-67407883D01*
X110451532Y-67407298D01*
X110450992Y-67407259D01*
X110449913Y-67406874D01*
X110263547Y-67361633D01*
X110255879Y-67358457D01*
X110246764Y-67357559D01*
X110244893Y-67357105D01*
X110243800Y-67357267D01*
X110241247Y-67357016D01*
X110102667Y-67358283D01*
X110094744Y-67357105D01*
X110085719Y-67358439D01*
X110083758Y-67358457D01*
X110082736Y-67358879D01*
X110080200Y-67359255D01*
X109895501Y-67406772D01*
X109888104Y-67407298D01*
X109877121Y-67411501D01*
X109875878Y-67411821D01*
X109875442Y-67412143D01*
X109874373Y-67412553D01*
X109779823Y-67461241D01*
X109771008Y-67464893D01*
X109768102Y-67467277D01*
X109766692Y-67468004D01*
X109765393Y-67469500D01*
X109759643Y-67474221D01*
X109673158Y-67562391D01*
X109671455Y-67563243D01*
X109664826Y-67570885D01*
X109655078Y-67580824D01*
X109654046Y-67583314D01*
X109652281Y-67585350D01*
X109646287Y-67598775D01*
X109600138Y-67741353D01*
X109596260Y-67750717D01*
X109595889Y-67754482D01*
X109595408Y-67755969D01*
X109595548Y-67757943D01*
X109594819Y-67765349D01*
X109483708Y-67765349D01*
X109483708Y-67018077D01*
X109596260Y-67018077D01*
X109607459Y-67045113D01*
X109628151Y-67065805D01*
X109655187Y-67077004D01*
X109669819Y-67078445D01*
X110684451Y-67077004D01*
X110711487Y-67065805D01*
X110732179Y-67045113D01*
X110743378Y-67018077D01*
X110743378Y-66988813D01*
X110732179Y-66961777D01*
X110711487Y-66941085D01*
X110684451Y-66929886D01*
X110669819Y-66928445D01*
X109655187Y-66929886D01*
X109628151Y-66941085D01*
X109607459Y-66961777D01*
X109596260Y-66988813D01*
X109596260Y-67018077D01*
X109483708Y-67018077D01*
X109483708Y-66622413D01*
X109594819Y-66622413D01*
X109596244Y-66629617D01*
X109596260Y-66637124D01*
X109599072Y-66643912D01*
X109600498Y-66651121D01*
X109604617Y-66657299D01*
X109607459Y-66664160D01*
X109612654Y-66669355D01*
X109616731Y-66675470D01*
X109622900Y-66679601D01*
X109628151Y-66684852D01*
X109634940Y-66687664D01*
X109641046Y-66691753D01*
X109648326Y-66693209D01*
X109655187Y-66696051D01*
X109662535Y-66696051D01*
X109669740Y-66697492D01*
X109677024Y-66696051D01*
X109684451Y-66696051D01*
X109691239Y-66693238D01*
X109698448Y-66691813D01*
X109711421Y-66684896D01*
X110595111Y-66094256D01*
X110596260Y-66637124D01*
X110607459Y-66664160D01*
X110628151Y-66684852D01*
X110655187Y-66696051D01*
X110684451Y-66696051D01*
X110711487Y-66684852D01*
X110732179Y-66664160D01*
X110743378Y-66637124D01*
X110744819Y-66622492D01*
X110743423Y-65962880D01*
X110744819Y-65955905D01*
X110743393Y-65948700D01*
X110743378Y-65941194D01*
X110740565Y-65934405D01*
X110739140Y-65927197D01*
X110735020Y-65921018D01*
X110732179Y-65914158D01*
X110726983Y-65908962D01*
X110722907Y-65902848D01*
X110716737Y-65898716D01*
X110711487Y-65893466D01*
X110704697Y-65890653D01*
X110698592Y-65886565D01*
X110691311Y-65885108D01*
X110684451Y-65882267D01*
X110677103Y-65882267D01*
X110669898Y-65880826D01*
X110662614Y-65882267D01*
X110655187Y-65882267D01*
X110648398Y-65885079D01*
X110641190Y-65886505D01*
X110628216Y-65893422D01*
X109744526Y-66484061D01*
X109743378Y-65941194D01*
X109732179Y-65914158D01*
X109711487Y-65893466D01*
X109684451Y-65882267D01*
X109655187Y-65882267D01*
X109628151Y-65893466D01*
X109607459Y-65914158D01*
X109596260Y-65941194D01*
X109594819Y-65955826D01*
X109596214Y-66615437D01*
X109594819Y-66622413D01*
X109483708Y-66622413D01*
X109483708Y-65589506D01*
X109596260Y-65589506D01*
X109607459Y-65616542D01*
X109628151Y-65637234D01*
X109655187Y-65648433D01*
X109669819Y-65649874D01*
X110684451Y-65648433D01*
X110711487Y-65637234D01*
X110732179Y-65616542D01*
X110743378Y-65589506D01*
X110743378Y-65560242D01*
X110732179Y-65533206D01*
X110711487Y-65512514D01*
X110684451Y-65501315D01*
X110669819Y-65499874D01*
X109655187Y-65501315D01*
X109628151Y-65512514D01*
X109607459Y-65533206D01*
X109596260Y-65560242D01*
X109596260Y-65589506D01*
X109483708Y-65589506D01*
X109483708Y-64574874D01*
X109594819Y-64574874D01*
X109596164Y-64944176D01*
X109595408Y-64946445D01*
X109596213Y-64957786D01*
X109596260Y-64970458D01*
X109597291Y-64972947D01*
X109597482Y-64975635D01*
X109602737Y-64989367D01*
X109651429Y-65083923D01*
X109655078Y-65092732D01*
X109657460Y-65095634D01*
X109658188Y-65097048D01*
X109659686Y-65098347D01*
X109664405Y-65104097D01*
X109713440Y-65151438D01*
X109719073Y-65157933D01*
X109722218Y-65159912D01*
X109723389Y-65161043D01*
X109725216Y-65161800D01*
X109731516Y-65165765D01*
X109817405Y-65207440D01*
X109818627Y-65208662D01*
X109827486Y-65212331D01*
X109840485Y-65218639D01*
X109843174Y-65218830D01*
X109845663Y-65219861D01*
X109860295Y-65221302D01*
X109991924Y-65220097D01*
X109993771Y-65220713D01*
X110003985Y-65219987D01*
X110017784Y-65219861D01*
X110020273Y-65218829D01*
X110022961Y-65218639D01*
X110036693Y-65213384D01*
X110131249Y-65164691D01*
X110140058Y-65161043D01*
X110142960Y-65158660D01*
X110144374Y-65157933D01*
X110145673Y-65156434D01*
X110151423Y-65151716D01*
X110198764Y-65102680D01*
X110205259Y-65097048D01*
X110207238Y-65093902D01*
X110208369Y-65092732D01*
X110209126Y-65090904D01*
X110213091Y-65084605D01*
X110254766Y-64998715D01*
X110255988Y-64997494D01*
X110259657Y-64988634D01*
X110265965Y-64975636D01*
X110266156Y-64972946D01*
X110267187Y-64970458D01*
X110268628Y-64955826D01*
X110267510Y-64649025D01*
X110684451Y-64648433D01*
X110711487Y-64637234D01*
X110732179Y-64616542D01*
X110743378Y-64589506D01*
X110743378Y-64560242D01*
X110732179Y-64533206D01*
X110711487Y-64512514D01*
X110684451Y-64501315D01*
X110669819Y-64499874D01*
X109655187Y-64501315D01*
X109628151Y-64512514D01*
X109607459Y-64533206D01*
X109596260Y-64560242D01*
X109594819Y-64574874D01*
X109483708Y-64574874D01*
X109483708Y-63765350D01*
X109594819Y-63765350D01*
X109596169Y-64002119D01*
X109595408Y-64012825D01*
X109596251Y-64016533D01*
X109596260Y-64018077D01*
X109597018Y-64019908D01*
X109598668Y-64027162D01*
X109652281Y-64183444D01*
X109671455Y-64205551D01*
X109697628Y-64218638D01*
X109726818Y-64220713D01*
X109754580Y-64211459D01*
X109776688Y-64192285D01*
X109789774Y-64166111D01*
X109791849Y-64136921D01*
X109788589Y-64122584D01*
X109744770Y-63994851D01*
X109743574Y-63785137D01*
X109776871Y-63716515D01*
X109807115Y-63685188D01*
X109876096Y-63649666D01*
X109936257Y-63648877D01*
X110004367Y-63681926D01*
X110035694Y-63712170D01*
X110074048Y-63786651D01*
X110120765Y-63968238D01*
X110121291Y-63975635D01*
X110125493Y-63986617D01*
X110125814Y-63987862D01*
X110126136Y-63988297D01*
X110126546Y-63989367D01*
X110175238Y-64083923D01*
X110178887Y-64092732D01*
X110181269Y-64095634D01*
X110181997Y-64097048D01*
X110183495Y-64098347D01*
X110188214Y-64104097D01*
X110237249Y-64151438D01*
X110242882Y-64157933D01*
X110246027Y-64159912D01*
X110247198Y-64161043D01*
X110249025Y-64161800D01*
X110255325Y-64165765D01*
X110341214Y-64207440D01*
X110342436Y-64208662D01*
X110351295Y-64212331D01*
X110364294Y-64218639D01*
X110366983Y-64218830D01*
X110369472Y-64219861D01*
X110384104Y-64221302D01*
X110468410Y-64220196D01*
X110469961Y-64220713D01*
X110479230Y-64220054D01*
X110493974Y-64219861D01*
X110496463Y-64218829D01*
X110499151Y-64218639D01*
X110512883Y-64213384D01*
X110607435Y-64164693D01*
X110616247Y-64161044D01*
X110619151Y-64158660D01*
X110620564Y-64157933D01*
X110621863Y-64156434D01*
X110627612Y-64151717D01*
X110674953Y-64102681D01*
X110681450Y-64097048D01*
X110683429Y-64093902D01*
X110684560Y-64092732D01*
X110685317Y-64090904D01*
X110689282Y-64084605D01*
X110730957Y-63998715D01*
X110732179Y-63997494D01*
X110735848Y-63988634D01*
X110742156Y-63975636D01*
X110742347Y-63972946D01*
X110743378Y-63970458D01*
X110744819Y-63955826D01*
X110743468Y-63719055D01*
X110744230Y-63708350D01*
X110743386Y-63704641D01*
X110743378Y-63703099D01*
X110742619Y-63701268D01*
X110740970Y-63694013D01*
X110687357Y-63537731D01*
X110668183Y-63515624D01*
X110642010Y-63502538D01*
X110612820Y-63500463D01*
X110585057Y-63509717D01*
X110562950Y-63528891D01*
X110549864Y-63555064D01*
X110547789Y-63584254D01*
X110551049Y-63598591D01*
X110594867Y-63726323D01*
X110596063Y-63936038D01*
X110562767Y-64004659D01*
X110532521Y-64035986D01*
X110463540Y-64071509D01*
X110403379Y-64072298D01*
X110335270Y-64039250D01*
X110303942Y-64009005D01*
X110265588Y-63934524D01*
X110218871Y-63752937D01*
X110218346Y-63745540D01*
X110214142Y-63734557D01*
X110213823Y-63733314D01*
X110213500Y-63732878D01*
X110213091Y-63731809D01*
X110164399Y-63637254D01*
X110160750Y-63628444D01*
X110158367Y-63625541D01*
X110157640Y-63624128D01*
X110156141Y-63622828D01*
X110151423Y-63617079D01*
X110102387Y-63569737D01*
X110096755Y-63563243D01*
X110093609Y-63561263D01*
X110092439Y-63560133D01*
X110090611Y-63559375D01*
X110084312Y-63555411D01*
X109998423Y-63513736D01*
X109997201Y-63512514D01*
X109988335Y-63508841D01*
X109975342Y-63502537D01*
X109972654Y-63502346D01*
X109970165Y-63501315D01*
X109955533Y-63499874D01*
X109871225Y-63500979D01*
X109869675Y-63500463D01*
X109860404Y-63501121D01*
X109845663Y-63501315D01*
X109843174Y-63502345D01*
X109840485Y-63502537D01*
X109826754Y-63507792D01*
X109732199Y-63556483D01*
X109723389Y-63560133D01*
X109720486Y-63562515D01*
X109719073Y-63563243D01*
X109717773Y-63564741D01*
X109712024Y-63569460D01*
X109664682Y-63618495D01*
X109658188Y-63624128D01*
X109656208Y-63627273D01*
X109655078Y-63628444D01*
X109654320Y-63630271D01*
X109650356Y-63636571D01*
X109608681Y-63722459D01*
X109607459Y-63723682D01*
X109603786Y-63732547D01*
X109597482Y-63745541D01*
X109597291Y-63748228D01*
X109596260Y-63750718D01*
X109594819Y-63765350D01*
X109483708Y-63765350D01*
X109483708Y-62768996D01*
X109785384Y-62768996D01*
X109787534Y-62783540D01*
X109836495Y-62973852D01*
X109838593Y-62984454D01*
X109839810Y-62986738D01*
X109840100Y-62987862D01*
X109841205Y-62989353D01*
X109845510Y-62997428D01*
X109950064Y-63151662D01*
X109950129Y-63151706D01*
X109950174Y-63151772D01*
X109961549Y-63161088D01*
X110099732Y-63251673D01*
X110104341Y-63256282D01*
X110110918Y-63259006D01*
X110117381Y-63263243D01*
X110124587Y-63264668D01*
X110131377Y-63267481D01*
X110146009Y-63268922D01*
X110146085Y-63268921D01*
X110146088Y-63268922D01*
X110146090Y-63268921D01*
X110372613Y-63267629D01*
X110374723Y-63268333D01*
X110385665Y-63267555D01*
X110398736Y-63267481D01*
X110401225Y-63266449D01*
X110403913Y-63266259D01*
X110417645Y-63261004D01*
X110509029Y-63213944D01*
X110516484Y-63211460D01*
X110520326Y-63208127D01*
X110525326Y-63205553D01*
X110531487Y-63198448D01*
X110538592Y-63192287D01*
X110543253Y-63184881D01*
X110544499Y-63183445D01*
X110544883Y-63182291D01*
X110546424Y-63179844D01*
X110588098Y-63093954D01*
X110589321Y-63092732D01*
X110592992Y-63083867D01*
X110599298Y-63070873D01*
X110599488Y-63068185D01*
X110600520Y-63065696D01*
X110601961Y-63051064D01*
X110600520Y-62988813D01*
X110589321Y-62961777D01*
X110584390Y-62955769D01*
X110586211Y-62954191D01*
X110588190Y-62951045D01*
X110589321Y-62949875D01*
X110590078Y-62948047D01*
X110594043Y-62941748D01*
X110635718Y-62855858D01*
X110636940Y-62854637D01*
X110640609Y-62845777D01*
X110646917Y-62832779D01*
X110647108Y-62830089D01*
X110648139Y-62827601D01*
X110649580Y-62812969D01*
X110648474Y-62728661D01*
X110648991Y-62727111D01*
X110648332Y-62717840D01*
X110648139Y-62703099D01*
X110647108Y-62700610D01*
X110646917Y-62697921D01*
X110641662Y-62684190D01*
X110592970Y-62589635D01*
X110589321Y-62580825D01*
X110586938Y-62577922D01*
X110586211Y-62576509D01*
X110584712Y-62575209D01*
X110579994Y-62569460D01*
X110530958Y-62522118D01*
X110525326Y-62515624D01*
X110522180Y-62513644D01*
X110521010Y-62512514D01*
X110519182Y-62511756D01*
X110512883Y-62507792D01*
X110426994Y-62466117D01*
X110425772Y-62464895D01*
X110416906Y-62461222D01*
X110403913Y-62454918D01*
X110401225Y-62454727D01*
X110398736Y-62453696D01*
X110384104Y-62452255D01*
X110299796Y-62453360D01*
X110298246Y-62452844D01*
X110288975Y-62453502D01*
X110274234Y-62453696D01*
X110271745Y-62454726D01*
X110269056Y-62454918D01*
X110255325Y-62460173D01*
X110160770Y-62508864D01*
X110151960Y-62512514D01*
X110149057Y-62514896D01*
X110147644Y-62515624D01*
X110146344Y-62517122D01*
X110140595Y-62521841D01*
X110093253Y-62570876D01*
X110086759Y-62576509D01*
X110084779Y-62579654D01*
X110083649Y-62580825D01*
X110082891Y-62582652D01*
X110078927Y-62588952D01*
X110037252Y-62674840D01*
X110036030Y-62676063D01*
X110032357Y-62684928D01*
X110026053Y-62697922D01*
X110025862Y-62700609D01*
X110024831Y-62703099D01*
X110023390Y-62717731D01*
X110024495Y-62802037D01*
X110023979Y-62803588D01*
X110024637Y-62812857D01*
X110024831Y-62827601D01*
X110025862Y-62830090D01*
X110026053Y-62832778D01*
X110031308Y-62846510D01*
X110055907Y-62894280D01*
X110036030Y-62914158D01*
X110024831Y-62941194D01*
X110024831Y-62970458D01*
X110036030Y-62997494D01*
X110056722Y-63018186D01*
X110083758Y-63029385D01*
X110098390Y-63030826D01*
X110447744Y-63029553D01*
X110452032Y-63033693D01*
X110424660Y-63090107D01*
X110368532Y-63119010D01*
X110170257Y-63120141D01*
X110058750Y-63047042D01*
X109978283Y-62928339D01*
X109936927Y-62767591D01*
X109975547Y-62608499D01*
X110054791Y-62487617D01*
X110173494Y-62407148D01*
X110334243Y-62365792D01*
X110493336Y-62404412D01*
X110614218Y-62483656D01*
X110694687Y-62602359D01*
X110736043Y-62763108D01*
X110697423Y-62922200D01*
X110600498Y-63070056D01*
X110594819Y-63098763D01*
X110600558Y-63127458D01*
X110616841Y-63151773D01*
X110641191Y-63168005D01*
X110669898Y-63173684D01*
X110698593Y-63167945D01*
X110722908Y-63151662D01*
X110732223Y-63140286D01*
X110826565Y-62996372D01*
X110832871Y-62987862D01*
X110833742Y-62985424D01*
X110834378Y-62984454D01*
X110834736Y-62982639D01*
X110837818Y-62974016D01*
X110881685Y-62793306D01*
X110883280Y-62790649D01*
X110884783Y-62780544D01*
X110887587Y-62768996D01*
X110887044Y-62765350D01*
X110887587Y-62761704D01*
X110885437Y-62747160D01*
X110836475Y-62556847D01*
X110834378Y-62546246D01*
X110833160Y-62543961D01*
X110832871Y-62542838D01*
X110831765Y-62541346D01*
X110827461Y-62533272D01*
X110722907Y-62379039D01*
X110722841Y-62378994D01*
X110722797Y-62378929D01*
X110711422Y-62369613D01*
X110567506Y-62275270D01*
X110558997Y-62268965D01*
X110556559Y-62268094D01*
X110555589Y-62267458D01*
X110553774Y-62267099D01*
X110545151Y-62264018D01*
X110364441Y-62220150D01*
X110361784Y-62218556D01*
X110351679Y-62217052D01*
X110340131Y-62214249D01*
X110336485Y-62214791D01*
X110332839Y-62214249D01*
X110318295Y-62216399D01*
X110127982Y-62265360D01*
X110117381Y-62267458D01*
X110115096Y-62268675D01*
X110113973Y-62268965D01*
X110112481Y-62270070D01*
X110104407Y-62274375D01*
X109950174Y-62378929D01*
X109950129Y-62378994D01*
X109950064Y-62379039D01*
X109940748Y-62390414D01*
X109846400Y-62534334D01*
X109840100Y-62542838D01*
X109839229Y-62545273D01*
X109838593Y-62546245D01*
X109838233Y-62548061D01*
X109835153Y-62556684D01*
X109791285Y-62737393D01*
X109789691Y-62740051D01*
X109788187Y-62750155D01*
X109785384Y-62761704D01*
X109785926Y-62765350D01*
X109785384Y-62768996D01*
X109483708Y-62768996D01*
X109483708Y-62103138D01*
X110998698Y-62103138D01*
X110998698Y-68237174D01*
G37*
X116842857Y-69354819D02*
X117176190Y-68878628D01*
X117414285Y-69354819D02*
X117414285Y-68354819D01*
X117414285Y-68354819D02*
X117033333Y-68354819D01*
X117033333Y-68354819D02*
X116938095Y-68402438D01*
X116938095Y-68402438D02*
X116890476Y-68450057D01*
X116890476Y-68450057D02*
X116842857Y-68545295D01*
X116842857Y-68545295D02*
X116842857Y-68688152D01*
X116842857Y-68688152D02*
X116890476Y-68783390D01*
X116890476Y-68783390D02*
X116938095Y-68831009D01*
X116938095Y-68831009D02*
X117033333Y-68878628D01*
X117033333Y-68878628D02*
X117414285Y-68878628D01*
X116461904Y-68450057D02*
X116414285Y-68402438D01*
X116414285Y-68402438D02*
X116319047Y-68354819D01*
X116319047Y-68354819D02*
X116080952Y-68354819D01*
X116080952Y-68354819D02*
X115985714Y-68402438D01*
X115985714Y-68402438D02*
X115938095Y-68450057D01*
X115938095Y-68450057D02*
X115890476Y-68545295D01*
X115890476Y-68545295D02*
X115890476Y-68640533D01*
X115890476Y-68640533D02*
X115938095Y-68783390D01*
X115938095Y-68783390D02*
X116509523Y-69354819D01*
X116509523Y-69354819D02*
X115890476Y-69354819D01*
X114938095Y-69354819D02*
X115509523Y-69354819D01*
X115223809Y-69354819D02*
X115223809Y-68354819D01*
X115223809Y-68354819D02*
X115319047Y-68497676D01*
X115319047Y-68497676D02*
X115414285Y-68592914D01*
X115414285Y-68592914D02*
X115509523Y-68640533D01*
X102942857Y-74059580D02*
X102990476Y-74107200D01*
X102990476Y-74107200D02*
X103133333Y-74154819D01*
X103133333Y-74154819D02*
X103228571Y-74154819D01*
X103228571Y-74154819D02*
X103371428Y-74107200D01*
X103371428Y-74107200D02*
X103466666Y-74011961D01*
X103466666Y-74011961D02*
X103514285Y-73916723D01*
X103514285Y-73916723D02*
X103561904Y-73726247D01*
X103561904Y-73726247D02*
X103561904Y-73583390D01*
X103561904Y-73583390D02*
X103514285Y-73392914D01*
X103514285Y-73392914D02*
X103466666Y-73297676D01*
X103466666Y-73297676D02*
X103371428Y-73202438D01*
X103371428Y-73202438D02*
X103228571Y-73154819D01*
X103228571Y-73154819D02*
X103133333Y-73154819D01*
X103133333Y-73154819D02*
X102990476Y-73202438D01*
X102990476Y-73202438D02*
X102942857Y-73250057D01*
X101990476Y-74154819D02*
X102561904Y-74154819D01*
X102276190Y-74154819D02*
X102276190Y-73154819D01*
X102276190Y-73154819D02*
X102371428Y-73297676D01*
X102371428Y-73297676D02*
X102466666Y-73392914D01*
X102466666Y-73392914D02*
X102561904Y-73440533D01*
X101038095Y-74154819D02*
X101609523Y-74154819D01*
X101323809Y-74154819D02*
X101323809Y-73154819D01*
X101323809Y-73154819D02*
X101419047Y-73297676D01*
X101419047Y-73297676D02*
X101514285Y-73392914D01*
X101514285Y-73392914D02*
X101609523Y-73440533D01*
X134280357Y-92079580D02*
X134327976Y-92127200D01*
X134327976Y-92127200D02*
X134470833Y-92174819D01*
X134470833Y-92174819D02*
X134566071Y-92174819D01*
X134566071Y-92174819D02*
X134708928Y-92127200D01*
X134708928Y-92127200D02*
X134804166Y-92031961D01*
X134804166Y-92031961D02*
X134851785Y-91936723D01*
X134851785Y-91936723D02*
X134899404Y-91746247D01*
X134899404Y-91746247D02*
X134899404Y-91603390D01*
X134899404Y-91603390D02*
X134851785Y-91412914D01*
X134851785Y-91412914D02*
X134804166Y-91317676D01*
X134804166Y-91317676D02*
X134708928Y-91222438D01*
X134708928Y-91222438D02*
X134566071Y-91174819D01*
X134566071Y-91174819D02*
X134470833Y-91174819D01*
X134470833Y-91174819D02*
X134327976Y-91222438D01*
X134327976Y-91222438D02*
X134280357Y-91270057D01*
X133327976Y-92174819D02*
X133899404Y-92174819D01*
X133613690Y-92174819D02*
X133613690Y-91174819D01*
X133613690Y-91174819D02*
X133708928Y-91317676D01*
X133708928Y-91317676D02*
X133804166Y-91412914D01*
X133804166Y-91412914D02*
X133899404Y-91460533D01*
X132470833Y-91174819D02*
X132661309Y-91174819D01*
X132661309Y-91174819D02*
X132756547Y-91222438D01*
X132756547Y-91222438D02*
X132804166Y-91270057D01*
X132804166Y-91270057D02*
X132899404Y-91412914D01*
X132899404Y-91412914D02*
X132947023Y-91603390D01*
X132947023Y-91603390D02*
X132947023Y-91984342D01*
X132947023Y-91984342D02*
X132899404Y-92079580D01*
X132899404Y-92079580D02*
X132851785Y-92127200D01*
X132851785Y-92127200D02*
X132756547Y-92174819D01*
X132756547Y-92174819D02*
X132566071Y-92174819D01*
X132566071Y-92174819D02*
X132470833Y-92127200D01*
X132470833Y-92127200D02*
X132423214Y-92079580D01*
X132423214Y-92079580D02*
X132375595Y-91984342D01*
X132375595Y-91984342D02*
X132375595Y-91746247D01*
X132375595Y-91746247D02*
X132423214Y-91651009D01*
X132423214Y-91651009D02*
X132470833Y-91603390D01*
X132470833Y-91603390D02*
X132566071Y-91555771D01*
X132566071Y-91555771D02*
X132756547Y-91555771D01*
X132756547Y-91555771D02*
X132851785Y-91603390D01*
X132851785Y-91603390D02*
X132899404Y-91651009D01*
X132899404Y-91651009D02*
X132947023Y-91746247D01*
X115942857Y-86154819D02*
X116276190Y-85678628D01*
X116514285Y-86154819D02*
X116514285Y-85154819D01*
X116514285Y-85154819D02*
X116133333Y-85154819D01*
X116133333Y-85154819D02*
X116038095Y-85202438D01*
X116038095Y-85202438D02*
X115990476Y-85250057D01*
X115990476Y-85250057D02*
X115942857Y-85345295D01*
X115942857Y-85345295D02*
X115942857Y-85488152D01*
X115942857Y-85488152D02*
X115990476Y-85583390D01*
X115990476Y-85583390D02*
X116038095Y-85631009D01*
X116038095Y-85631009D02*
X116133333Y-85678628D01*
X116133333Y-85678628D02*
X116514285Y-85678628D01*
X114990476Y-86154819D02*
X115561904Y-86154819D01*
X115276190Y-86154819D02*
X115276190Y-85154819D01*
X115276190Y-85154819D02*
X115371428Y-85297676D01*
X115371428Y-85297676D02*
X115466666Y-85392914D01*
X115466666Y-85392914D02*
X115561904Y-85440533D01*
X114609523Y-85250057D02*
X114561904Y-85202438D01*
X114561904Y-85202438D02*
X114466666Y-85154819D01*
X114466666Y-85154819D02*
X114228571Y-85154819D01*
X114228571Y-85154819D02*
X114133333Y-85202438D01*
X114133333Y-85202438D02*
X114085714Y-85250057D01*
X114085714Y-85250057D02*
X114038095Y-85345295D01*
X114038095Y-85345295D02*
X114038095Y-85440533D01*
X114038095Y-85440533D02*
X114085714Y-85583390D01*
X114085714Y-85583390D02*
X114657142Y-86154819D01*
X114657142Y-86154819D02*
X114038095Y-86154819D01*
X128829819Y-81238095D02*
X129639342Y-81238095D01*
X129639342Y-81238095D02*
X129734580Y-81285714D01*
X129734580Y-81285714D02*
X129782200Y-81333333D01*
X129782200Y-81333333D02*
X129829819Y-81428571D01*
X129829819Y-81428571D02*
X129829819Y-81619047D01*
X129829819Y-81619047D02*
X129782200Y-81714285D01*
X129782200Y-81714285D02*
X129734580Y-81761904D01*
X129734580Y-81761904D02*
X129639342Y-81809523D01*
X129639342Y-81809523D02*
X128829819Y-81809523D01*
X128829819Y-82761904D02*
X128829819Y-82285714D01*
X128829819Y-82285714D02*
X129306009Y-82238095D01*
X129306009Y-82238095D02*
X129258390Y-82285714D01*
X129258390Y-82285714D02*
X129210771Y-82380952D01*
X129210771Y-82380952D02*
X129210771Y-82619047D01*
X129210771Y-82619047D02*
X129258390Y-82714285D01*
X129258390Y-82714285D02*
X129306009Y-82761904D01*
X129306009Y-82761904D02*
X129401247Y-82809523D01*
X129401247Y-82809523D02*
X129639342Y-82809523D01*
X129639342Y-82809523D02*
X129734580Y-82761904D01*
X129734580Y-82761904D02*
X129782200Y-82714285D01*
X129782200Y-82714285D02*
X129829819Y-82619047D01*
X129829819Y-82619047D02*
X129829819Y-82380952D01*
X129829819Y-82380952D02*
X129782200Y-82285714D01*
X129782200Y-82285714D02*
X129734580Y-82238095D01*
X129379819Y-78435714D02*
X129379819Y-77864286D01*
X129379819Y-78150000D02*
X128379819Y-78150000D01*
X128379819Y-78150000D02*
X128522676Y-78054762D01*
X128522676Y-78054762D02*
X128617914Y-77959524D01*
X128617914Y-77959524D02*
X128665533Y-77864286D01*
X129379819Y-85159523D02*
X129379819Y-84588095D01*
X129379819Y-84873809D02*
X128379819Y-84873809D01*
X128379819Y-84873809D02*
X128522676Y-84778571D01*
X128522676Y-84778571D02*
X128617914Y-84683333D01*
X128617914Y-84683333D02*
X128665533Y-84588095D01*
X128475057Y-85540476D02*
X128427438Y-85588095D01*
X128427438Y-85588095D02*
X128379819Y-85683333D01*
X128379819Y-85683333D02*
X128379819Y-85921428D01*
X128379819Y-85921428D02*
X128427438Y-86016666D01*
X128427438Y-86016666D02*
X128475057Y-86064285D01*
X128475057Y-86064285D02*
X128570295Y-86111904D01*
X128570295Y-86111904D02*
X128665533Y-86111904D01*
X128665533Y-86111904D02*
X128808390Y-86064285D01*
X128808390Y-86064285D02*
X129379819Y-85492857D01*
X129379819Y-85492857D02*
X129379819Y-86111904D01*
X116042857Y-83454819D02*
X116376190Y-82978628D01*
X116614285Y-83454819D02*
X116614285Y-82454819D01*
X116614285Y-82454819D02*
X116233333Y-82454819D01*
X116233333Y-82454819D02*
X116138095Y-82502438D01*
X116138095Y-82502438D02*
X116090476Y-82550057D01*
X116090476Y-82550057D02*
X116042857Y-82645295D01*
X116042857Y-82645295D02*
X116042857Y-82788152D01*
X116042857Y-82788152D02*
X116090476Y-82883390D01*
X116090476Y-82883390D02*
X116138095Y-82931009D01*
X116138095Y-82931009D02*
X116233333Y-82978628D01*
X116233333Y-82978628D02*
X116614285Y-82978628D01*
X115090476Y-83454819D02*
X115661904Y-83454819D01*
X115376190Y-83454819D02*
X115376190Y-82454819D01*
X115376190Y-82454819D02*
X115471428Y-82597676D01*
X115471428Y-82597676D02*
X115566666Y-82692914D01*
X115566666Y-82692914D02*
X115661904Y-82740533D01*
X114233333Y-82454819D02*
X114423809Y-82454819D01*
X114423809Y-82454819D02*
X114519047Y-82502438D01*
X114519047Y-82502438D02*
X114566666Y-82550057D01*
X114566666Y-82550057D02*
X114661904Y-82692914D01*
X114661904Y-82692914D02*
X114709523Y-82883390D01*
X114709523Y-82883390D02*
X114709523Y-83264342D01*
X114709523Y-83264342D02*
X114661904Y-83359580D01*
X114661904Y-83359580D02*
X114614285Y-83407200D01*
X114614285Y-83407200D02*
X114519047Y-83454819D01*
X114519047Y-83454819D02*
X114328571Y-83454819D01*
X114328571Y-83454819D02*
X114233333Y-83407200D01*
X114233333Y-83407200D02*
X114185714Y-83359580D01*
X114185714Y-83359580D02*
X114138095Y-83264342D01*
X114138095Y-83264342D02*
X114138095Y-83026247D01*
X114138095Y-83026247D02*
X114185714Y-82931009D01*
X114185714Y-82931009D02*
X114233333Y-82883390D01*
X114233333Y-82883390D02*
X114328571Y-82835771D01*
X114328571Y-82835771D02*
X114519047Y-82835771D01*
X114519047Y-82835771D02*
X114614285Y-82883390D01*
X114614285Y-82883390D02*
X114661904Y-82931009D01*
X114661904Y-82931009D02*
X114709523Y-83026247D01*
X130238094Y-61454819D02*
X130238094Y-60454819D01*
X130238094Y-60454819D02*
X129999999Y-60454819D01*
X129999999Y-60454819D02*
X129857142Y-60502438D01*
X129857142Y-60502438D02*
X129761904Y-60597676D01*
X129761904Y-60597676D02*
X129714285Y-60692914D01*
X129714285Y-60692914D02*
X129666666Y-60883390D01*
X129666666Y-60883390D02*
X129666666Y-61026247D01*
X129666666Y-61026247D02*
X129714285Y-61216723D01*
X129714285Y-61216723D02*
X129761904Y-61311961D01*
X129761904Y-61311961D02*
X129857142Y-61407200D01*
X129857142Y-61407200D02*
X129999999Y-61454819D01*
X129999999Y-61454819D02*
X130238094Y-61454819D01*
X129095237Y-60883390D02*
X129190475Y-60835771D01*
X129190475Y-60835771D02*
X129238094Y-60788152D01*
X129238094Y-60788152D02*
X129285713Y-60692914D01*
X129285713Y-60692914D02*
X129285713Y-60645295D01*
X129285713Y-60645295D02*
X129238094Y-60550057D01*
X129238094Y-60550057D02*
X129190475Y-60502438D01*
X129190475Y-60502438D02*
X129095237Y-60454819D01*
X129095237Y-60454819D02*
X128904761Y-60454819D01*
X128904761Y-60454819D02*
X128809523Y-60502438D01*
X128809523Y-60502438D02*
X128761904Y-60550057D01*
X128761904Y-60550057D02*
X128714285Y-60645295D01*
X128714285Y-60645295D02*
X128714285Y-60692914D01*
X128714285Y-60692914D02*
X128761904Y-60788152D01*
X128761904Y-60788152D02*
X128809523Y-60835771D01*
X128809523Y-60835771D02*
X128904761Y-60883390D01*
X128904761Y-60883390D02*
X129095237Y-60883390D01*
X129095237Y-60883390D02*
X129190475Y-60931009D01*
X129190475Y-60931009D02*
X129238094Y-60978628D01*
X129238094Y-60978628D02*
X129285713Y-61073866D01*
X129285713Y-61073866D02*
X129285713Y-61264342D01*
X129285713Y-61264342D02*
X129238094Y-61359580D01*
X129238094Y-61359580D02*
X129190475Y-61407200D01*
X129190475Y-61407200D02*
X129095237Y-61454819D01*
X129095237Y-61454819D02*
X128904761Y-61454819D01*
X128904761Y-61454819D02*
X128809523Y-61407200D01*
X128809523Y-61407200D02*
X128761904Y-61359580D01*
X128761904Y-61359580D02*
X128714285Y-61264342D01*
X128714285Y-61264342D02*
X128714285Y-61073866D01*
X128714285Y-61073866D02*
X128761904Y-60978628D01*
X128761904Y-60978628D02*
X128809523Y-60931009D01*
X128809523Y-60931009D02*
X128904761Y-60883390D01*
X135864285Y-59854819D02*
X136435713Y-59854819D01*
X136149999Y-59854819D02*
X136149999Y-58854819D01*
X136149999Y-58854819D02*
X136245237Y-58997676D01*
X136245237Y-58997676D02*
X136340475Y-59092914D01*
X136340475Y-59092914D02*
X136435713Y-59140533D01*
X115271428Y-81054819D02*
X115271428Y-81864342D01*
X115271428Y-81864342D02*
X115223809Y-81959580D01*
X115223809Y-81959580D02*
X115176190Y-82007200D01*
X115176190Y-82007200D02*
X115080952Y-82054819D01*
X115080952Y-82054819D02*
X114890476Y-82054819D01*
X114890476Y-82054819D02*
X114795238Y-82007200D01*
X114795238Y-82007200D02*
X114747619Y-81959580D01*
X114747619Y-81959580D02*
X114700000Y-81864342D01*
X114700000Y-81864342D02*
X114700000Y-81054819D01*
X114223809Y-82054819D02*
X114223809Y-81388152D01*
X114223809Y-81578628D02*
X114176190Y-81483390D01*
X114176190Y-81483390D02*
X114128571Y-81435771D01*
X114128571Y-81435771D02*
X114033333Y-81388152D01*
X114033333Y-81388152D02*
X113938095Y-81388152D01*
X113080952Y-82054819D02*
X113652380Y-82054819D01*
X113366666Y-82054819D02*
X113366666Y-81054819D01*
X113366666Y-81054819D02*
X113461904Y-81197676D01*
X113461904Y-81197676D02*
X113557142Y-81292914D01*
X113557142Y-81292914D02*
X113652380Y-81340533D01*
X112338094Y-73454819D02*
X112338094Y-72454819D01*
X112338094Y-72454819D02*
X112099999Y-72454819D01*
X112099999Y-72454819D02*
X111957142Y-72502438D01*
X111957142Y-72502438D02*
X111861904Y-72597676D01*
X111861904Y-72597676D02*
X111814285Y-72692914D01*
X111814285Y-72692914D02*
X111766666Y-72883390D01*
X111766666Y-72883390D02*
X111766666Y-73026247D01*
X111766666Y-73026247D02*
X111814285Y-73216723D01*
X111814285Y-73216723D02*
X111861904Y-73311961D01*
X111861904Y-73311961D02*
X111957142Y-73407200D01*
X111957142Y-73407200D02*
X112099999Y-73454819D01*
X112099999Y-73454819D02*
X112338094Y-73454819D01*
X111385713Y-72550057D02*
X111338094Y-72502438D01*
X111338094Y-72502438D02*
X111242856Y-72454819D01*
X111242856Y-72454819D02*
X111004761Y-72454819D01*
X111004761Y-72454819D02*
X110909523Y-72502438D01*
X110909523Y-72502438D02*
X110861904Y-72550057D01*
X110861904Y-72550057D02*
X110814285Y-72645295D01*
X110814285Y-72645295D02*
X110814285Y-72740533D01*
X110814285Y-72740533D02*
X110861904Y-72883390D01*
X110861904Y-72883390D02*
X111433332Y-73454819D01*
X111433332Y-73454819D02*
X110814285Y-73454819D01*
X110314285Y-75254819D02*
X110885713Y-75254819D01*
X110599999Y-75254819D02*
X110599999Y-74254819D01*
X110599999Y-74254819D02*
X110695237Y-74397676D01*
X110695237Y-74397676D02*
X110790475Y-74492914D01*
X110790475Y-74492914D02*
X110885713Y-74540533D01*
X99238094Y-98454819D02*
X99238094Y-97454819D01*
X99238094Y-97454819D02*
X98999999Y-97454819D01*
X98999999Y-97454819D02*
X98857142Y-97502438D01*
X98857142Y-97502438D02*
X98761904Y-97597676D01*
X98761904Y-97597676D02*
X98714285Y-97692914D01*
X98714285Y-97692914D02*
X98666666Y-97883390D01*
X98666666Y-97883390D02*
X98666666Y-98026247D01*
X98666666Y-98026247D02*
X98714285Y-98216723D01*
X98714285Y-98216723D02*
X98761904Y-98311961D01*
X98761904Y-98311961D02*
X98857142Y-98407200D01*
X98857142Y-98407200D02*
X98999999Y-98454819D01*
X98999999Y-98454819D02*
X99238094Y-98454819D01*
X97809523Y-97454819D02*
X97999999Y-97454819D01*
X97999999Y-97454819D02*
X98095237Y-97502438D01*
X98095237Y-97502438D02*
X98142856Y-97550057D01*
X98142856Y-97550057D02*
X98238094Y-97692914D01*
X98238094Y-97692914D02*
X98285713Y-97883390D01*
X98285713Y-97883390D02*
X98285713Y-98264342D01*
X98285713Y-98264342D02*
X98238094Y-98359580D01*
X98238094Y-98359580D02*
X98190475Y-98407200D01*
X98190475Y-98407200D02*
X98095237Y-98454819D01*
X98095237Y-98454819D02*
X97904761Y-98454819D01*
X97904761Y-98454819D02*
X97809523Y-98407200D01*
X97809523Y-98407200D02*
X97761904Y-98359580D01*
X97761904Y-98359580D02*
X97714285Y-98264342D01*
X97714285Y-98264342D02*
X97714285Y-98026247D01*
X97714285Y-98026247D02*
X97761904Y-97931009D01*
X97761904Y-97931009D02*
X97809523Y-97883390D01*
X97809523Y-97883390D02*
X97904761Y-97835771D01*
X97904761Y-97835771D02*
X98095237Y-97835771D01*
X98095237Y-97835771D02*
X98190475Y-97883390D01*
X98190475Y-97883390D02*
X98238094Y-97931009D01*
X98238094Y-97931009D02*
X98285713Y-98026247D01*
X100364285Y-96854819D02*
X100935713Y-96854819D01*
X100649999Y-96854819D02*
X100649999Y-95854819D01*
X100649999Y-95854819D02*
X100745237Y-95997676D01*
X100745237Y-95997676D02*
X100840475Y-96092914D01*
X100840475Y-96092914D02*
X100935713Y-96140533D01*
X95742857Y-67659580D02*
X95790476Y-67707200D01*
X95790476Y-67707200D02*
X95933333Y-67754819D01*
X95933333Y-67754819D02*
X96028571Y-67754819D01*
X96028571Y-67754819D02*
X96171428Y-67707200D01*
X96171428Y-67707200D02*
X96266666Y-67611961D01*
X96266666Y-67611961D02*
X96314285Y-67516723D01*
X96314285Y-67516723D02*
X96361904Y-67326247D01*
X96361904Y-67326247D02*
X96361904Y-67183390D01*
X96361904Y-67183390D02*
X96314285Y-66992914D01*
X96314285Y-66992914D02*
X96266666Y-66897676D01*
X96266666Y-66897676D02*
X96171428Y-66802438D01*
X96171428Y-66802438D02*
X96028571Y-66754819D01*
X96028571Y-66754819D02*
X95933333Y-66754819D01*
X95933333Y-66754819D02*
X95790476Y-66802438D01*
X95790476Y-66802438D02*
X95742857Y-66850057D01*
X94790476Y-67754819D02*
X95361904Y-67754819D01*
X95076190Y-67754819D02*
X95076190Y-66754819D01*
X95076190Y-66754819D02*
X95171428Y-66897676D01*
X95171428Y-66897676D02*
X95266666Y-66992914D01*
X95266666Y-66992914D02*
X95361904Y-67040533D01*
X94457142Y-66754819D02*
X93790476Y-66754819D01*
X93790476Y-66754819D02*
X94219047Y-67754819D01*
X97554819Y-86166666D02*
X98269104Y-86166666D01*
X98269104Y-86166666D02*
X98411961Y-86119047D01*
X98411961Y-86119047D02*
X98507200Y-86023809D01*
X98507200Y-86023809D02*
X98554819Y-85880952D01*
X98554819Y-85880952D02*
X98554819Y-85785714D01*
X98554819Y-86642857D02*
X97554819Y-86642857D01*
X97554819Y-86642857D02*
X97554819Y-87023809D01*
X97554819Y-87023809D02*
X97602438Y-87119047D01*
X97602438Y-87119047D02*
X97650057Y-87166666D01*
X97650057Y-87166666D02*
X97745295Y-87214285D01*
X97745295Y-87214285D02*
X97888152Y-87214285D01*
X97888152Y-87214285D02*
X97983390Y-87166666D01*
X97983390Y-87166666D02*
X98031009Y-87119047D01*
X98031009Y-87119047D02*
X98078628Y-87023809D01*
X98078628Y-87023809D02*
X98078628Y-86642857D01*
X98554819Y-88166666D02*
X98554819Y-87595238D01*
X98554819Y-87880952D02*
X97554819Y-87880952D01*
X97554819Y-87880952D02*
X97697676Y-87785714D01*
X97697676Y-87785714D02*
X97792914Y-87690476D01*
X97792914Y-87690476D02*
X97840533Y-87595238D01*
X113879580Y-94633333D02*
X113927200Y-94585714D01*
X113927200Y-94585714D02*
X113974819Y-94442857D01*
X113974819Y-94442857D02*
X113974819Y-94347619D01*
X113974819Y-94347619D02*
X113927200Y-94204762D01*
X113927200Y-94204762D02*
X113831961Y-94109524D01*
X113831961Y-94109524D02*
X113736723Y-94061905D01*
X113736723Y-94061905D02*
X113546247Y-94014286D01*
X113546247Y-94014286D02*
X113403390Y-94014286D01*
X113403390Y-94014286D02*
X113212914Y-94061905D01*
X113212914Y-94061905D02*
X113117676Y-94109524D01*
X113117676Y-94109524D02*
X113022438Y-94204762D01*
X113022438Y-94204762D02*
X112974819Y-94347619D01*
X112974819Y-94347619D02*
X112974819Y-94442857D01*
X112974819Y-94442857D02*
X113022438Y-94585714D01*
X113022438Y-94585714D02*
X113070057Y-94633333D01*
X112974819Y-94966667D02*
X112974819Y-95585714D01*
X112974819Y-95585714D02*
X113355771Y-95252381D01*
X113355771Y-95252381D02*
X113355771Y-95395238D01*
X113355771Y-95395238D02*
X113403390Y-95490476D01*
X113403390Y-95490476D02*
X113451009Y-95538095D01*
X113451009Y-95538095D02*
X113546247Y-95585714D01*
X113546247Y-95585714D02*
X113784342Y-95585714D01*
X113784342Y-95585714D02*
X113879580Y-95538095D01*
X113879580Y-95538095D02*
X113927200Y-95490476D01*
X113927200Y-95490476D02*
X113974819Y-95395238D01*
X113974819Y-95395238D02*
X113974819Y-95109524D01*
X113974819Y-95109524D02*
X113927200Y-95014286D01*
X113927200Y-95014286D02*
X113879580Y-94966667D01*
X102569580Y-85872142D02*
X102617200Y-85824523D01*
X102617200Y-85824523D02*
X102664819Y-85681666D01*
X102664819Y-85681666D02*
X102664819Y-85586428D01*
X102664819Y-85586428D02*
X102617200Y-85443571D01*
X102617200Y-85443571D02*
X102521961Y-85348333D01*
X102521961Y-85348333D02*
X102426723Y-85300714D01*
X102426723Y-85300714D02*
X102236247Y-85253095D01*
X102236247Y-85253095D02*
X102093390Y-85253095D01*
X102093390Y-85253095D02*
X101902914Y-85300714D01*
X101902914Y-85300714D02*
X101807676Y-85348333D01*
X101807676Y-85348333D02*
X101712438Y-85443571D01*
X101712438Y-85443571D02*
X101664819Y-85586428D01*
X101664819Y-85586428D02*
X101664819Y-85681666D01*
X101664819Y-85681666D02*
X101712438Y-85824523D01*
X101712438Y-85824523D02*
X101760057Y-85872142D01*
X102664819Y-86824523D02*
X102664819Y-86253095D01*
X102664819Y-86538809D02*
X101664819Y-86538809D01*
X101664819Y-86538809D02*
X101807676Y-86443571D01*
X101807676Y-86443571D02*
X101902914Y-86348333D01*
X101902914Y-86348333D02*
X101950533Y-86253095D01*
X101664819Y-87443571D02*
X101664819Y-87538809D01*
X101664819Y-87538809D02*
X101712438Y-87634047D01*
X101712438Y-87634047D02*
X101760057Y-87681666D01*
X101760057Y-87681666D02*
X101855295Y-87729285D01*
X101855295Y-87729285D02*
X102045771Y-87776904D01*
X102045771Y-87776904D02*
X102283866Y-87776904D01*
X102283866Y-87776904D02*
X102474342Y-87729285D01*
X102474342Y-87729285D02*
X102569580Y-87681666D01*
X102569580Y-87681666D02*
X102617200Y-87634047D01*
X102617200Y-87634047D02*
X102664819Y-87538809D01*
X102664819Y-87538809D02*
X102664819Y-87443571D01*
X102664819Y-87443571D02*
X102617200Y-87348333D01*
X102617200Y-87348333D02*
X102569580Y-87300714D01*
X102569580Y-87300714D02*
X102474342Y-87253095D01*
X102474342Y-87253095D02*
X102283866Y-87205476D01*
X102283866Y-87205476D02*
X102045771Y-87205476D01*
X102045771Y-87205476D02*
X101855295Y-87253095D01*
X101855295Y-87253095D02*
X101760057Y-87300714D01*
X101760057Y-87300714D02*
X101712438Y-87348333D01*
X101712438Y-87348333D02*
X101664819Y-87443571D01*
X97679580Y-82433333D02*
X97727200Y-82385714D01*
X97727200Y-82385714D02*
X97774819Y-82242857D01*
X97774819Y-82242857D02*
X97774819Y-82147619D01*
X97774819Y-82147619D02*
X97727200Y-82004762D01*
X97727200Y-82004762D02*
X97631961Y-81909524D01*
X97631961Y-81909524D02*
X97536723Y-81861905D01*
X97536723Y-81861905D02*
X97346247Y-81814286D01*
X97346247Y-81814286D02*
X97203390Y-81814286D01*
X97203390Y-81814286D02*
X97012914Y-81861905D01*
X97012914Y-81861905D02*
X96917676Y-81909524D01*
X96917676Y-81909524D02*
X96822438Y-82004762D01*
X96822438Y-82004762D02*
X96774819Y-82147619D01*
X96774819Y-82147619D02*
X96774819Y-82242857D01*
X96774819Y-82242857D02*
X96822438Y-82385714D01*
X96822438Y-82385714D02*
X96870057Y-82433333D01*
X97203390Y-83004762D02*
X97155771Y-82909524D01*
X97155771Y-82909524D02*
X97108152Y-82861905D01*
X97108152Y-82861905D02*
X97012914Y-82814286D01*
X97012914Y-82814286D02*
X96965295Y-82814286D01*
X96965295Y-82814286D02*
X96870057Y-82861905D01*
X96870057Y-82861905D02*
X96822438Y-82909524D01*
X96822438Y-82909524D02*
X96774819Y-83004762D01*
X96774819Y-83004762D02*
X96774819Y-83195238D01*
X96774819Y-83195238D02*
X96822438Y-83290476D01*
X96822438Y-83290476D02*
X96870057Y-83338095D01*
X96870057Y-83338095D02*
X96965295Y-83385714D01*
X96965295Y-83385714D02*
X97012914Y-83385714D01*
X97012914Y-83385714D02*
X97108152Y-83338095D01*
X97108152Y-83338095D02*
X97155771Y-83290476D01*
X97155771Y-83290476D02*
X97203390Y-83195238D01*
X97203390Y-83195238D02*
X97203390Y-83004762D01*
X97203390Y-83004762D02*
X97251009Y-82909524D01*
X97251009Y-82909524D02*
X97298628Y-82861905D01*
X97298628Y-82861905D02*
X97393866Y-82814286D01*
X97393866Y-82814286D02*
X97584342Y-82814286D01*
X97584342Y-82814286D02*
X97679580Y-82861905D01*
X97679580Y-82861905D02*
X97727200Y-82909524D01*
X97727200Y-82909524D02*
X97774819Y-83004762D01*
X97774819Y-83004762D02*
X97774819Y-83195238D01*
X97774819Y-83195238D02*
X97727200Y-83290476D01*
X97727200Y-83290476D02*
X97679580Y-83338095D01*
X97679580Y-83338095D02*
X97584342Y-83385714D01*
X97584342Y-83385714D02*
X97393866Y-83385714D01*
X97393866Y-83385714D02*
X97298628Y-83338095D01*
X97298628Y-83338095D02*
X97251009Y-83290476D01*
X97251009Y-83290476D02*
X97203390Y-83195238D01*
X120054819Y-94557142D02*
X119578628Y-94223809D01*
X120054819Y-93985714D02*
X119054819Y-93985714D01*
X119054819Y-93985714D02*
X119054819Y-94366666D01*
X119054819Y-94366666D02*
X119102438Y-94461904D01*
X119102438Y-94461904D02*
X119150057Y-94509523D01*
X119150057Y-94509523D02*
X119245295Y-94557142D01*
X119245295Y-94557142D02*
X119388152Y-94557142D01*
X119388152Y-94557142D02*
X119483390Y-94509523D01*
X119483390Y-94509523D02*
X119531009Y-94461904D01*
X119531009Y-94461904D02*
X119578628Y-94366666D01*
X119578628Y-94366666D02*
X119578628Y-93985714D01*
X120054819Y-95509523D02*
X120054819Y-94938095D01*
X120054819Y-95223809D02*
X119054819Y-95223809D01*
X119054819Y-95223809D02*
X119197676Y-95128571D01*
X119197676Y-95128571D02*
X119292914Y-95033333D01*
X119292914Y-95033333D02*
X119340533Y-94938095D01*
X119054819Y-95842857D02*
X119054819Y-96461904D01*
X119054819Y-96461904D02*
X119435771Y-96128571D01*
X119435771Y-96128571D02*
X119435771Y-96271428D01*
X119435771Y-96271428D02*
X119483390Y-96366666D01*
X119483390Y-96366666D02*
X119531009Y-96414285D01*
X119531009Y-96414285D02*
X119626247Y-96461904D01*
X119626247Y-96461904D02*
X119864342Y-96461904D01*
X119864342Y-96461904D02*
X119959580Y-96414285D01*
X119959580Y-96414285D02*
X120007200Y-96366666D01*
X120007200Y-96366666D02*
X120054819Y-96271428D01*
X120054819Y-96271428D02*
X120054819Y-95985714D01*
X120054819Y-95985714D02*
X120007200Y-95890476D01*
X120007200Y-95890476D02*
X119959580Y-95842857D01*
X103459580Y-82133333D02*
X103507200Y-82085714D01*
X103507200Y-82085714D02*
X103554819Y-81942857D01*
X103554819Y-81942857D02*
X103554819Y-81847619D01*
X103554819Y-81847619D02*
X103507200Y-81704762D01*
X103507200Y-81704762D02*
X103411961Y-81609524D01*
X103411961Y-81609524D02*
X103316723Y-81561905D01*
X103316723Y-81561905D02*
X103126247Y-81514286D01*
X103126247Y-81514286D02*
X102983390Y-81514286D01*
X102983390Y-81514286D02*
X102792914Y-81561905D01*
X102792914Y-81561905D02*
X102697676Y-81609524D01*
X102697676Y-81609524D02*
X102602438Y-81704762D01*
X102602438Y-81704762D02*
X102554819Y-81847619D01*
X102554819Y-81847619D02*
X102554819Y-81942857D01*
X102554819Y-81942857D02*
X102602438Y-82085714D01*
X102602438Y-82085714D02*
X102650057Y-82133333D01*
X103554819Y-82609524D02*
X103554819Y-82800000D01*
X103554819Y-82800000D02*
X103507200Y-82895238D01*
X103507200Y-82895238D02*
X103459580Y-82942857D01*
X103459580Y-82942857D02*
X103316723Y-83038095D01*
X103316723Y-83038095D02*
X103126247Y-83085714D01*
X103126247Y-83085714D02*
X102745295Y-83085714D01*
X102745295Y-83085714D02*
X102650057Y-83038095D01*
X102650057Y-83038095D02*
X102602438Y-82990476D01*
X102602438Y-82990476D02*
X102554819Y-82895238D01*
X102554819Y-82895238D02*
X102554819Y-82704762D01*
X102554819Y-82704762D02*
X102602438Y-82609524D01*
X102602438Y-82609524D02*
X102650057Y-82561905D01*
X102650057Y-82561905D02*
X102745295Y-82514286D01*
X102745295Y-82514286D02*
X102983390Y-82514286D01*
X102983390Y-82514286D02*
X103078628Y-82561905D01*
X103078628Y-82561905D02*
X103126247Y-82609524D01*
X103126247Y-82609524D02*
X103173866Y-82704762D01*
X103173866Y-82704762D02*
X103173866Y-82895238D01*
X103173866Y-82895238D02*
X103126247Y-82990476D01*
X103126247Y-82990476D02*
X103078628Y-83038095D01*
X103078628Y-83038095D02*
X102983390Y-83085714D01*
X117811534Y-76831274D02*
X117703784Y-76777399D01*
X117703784Y-76777399D02*
X117649909Y-76777399D01*
X117649909Y-76777399D02*
X117569097Y-76804336D01*
X117569097Y-76804336D02*
X117488285Y-76885148D01*
X117488285Y-76885148D02*
X117461347Y-76965961D01*
X117461347Y-76965961D02*
X117461347Y-77019835D01*
X117461347Y-77019835D02*
X117488285Y-77100648D01*
X117488285Y-77100648D02*
X117703784Y-77316147D01*
X117703784Y-77316147D02*
X118269469Y-76750461D01*
X118269469Y-76750461D02*
X118080908Y-76561900D01*
X118080908Y-76561900D02*
X118000095Y-76534962D01*
X118000095Y-76534962D02*
X117946221Y-76534962D01*
X117946221Y-76534962D02*
X117865408Y-76561900D01*
X117865408Y-76561900D02*
X117811534Y-76615774D01*
X117811534Y-76615774D02*
X117784596Y-76696587D01*
X117784596Y-76696587D02*
X117784596Y-76750461D01*
X117784596Y-76750461D02*
X117811534Y-76831274D01*
X117811534Y-76831274D02*
X118000095Y-77019835D01*
X116868725Y-76481087D02*
X117138099Y-76750461D01*
X117138099Y-76750461D02*
X117703784Y-76184776D01*
X116680163Y-76292526D02*
X117245848Y-75726840D01*
X116356914Y-75969277D02*
X116922599Y-75888465D01*
X116922599Y-75403591D02*
X116922599Y-76050089D01*
X126866666Y-68162295D02*
X126866666Y-68733723D01*
X126866666Y-68733723D02*
X126904761Y-68848009D01*
X126904761Y-68848009D02*
X126980952Y-68924200D01*
X126980952Y-68924200D02*
X127095237Y-68962295D01*
X127095237Y-68962295D02*
X127171428Y-68962295D01*
X126066666Y-68962295D02*
X126523809Y-68962295D01*
X126295237Y-68962295D02*
X126295237Y-68162295D01*
X126295237Y-68162295D02*
X126371428Y-68276580D01*
X126371428Y-68276580D02*
X126447618Y-68352771D01*
X126447618Y-68352771D02*
X126523809Y-68390866D01*
X119220238Y-84900057D02*
X119315476Y-84852438D01*
X119315476Y-84852438D02*
X119410714Y-84757200D01*
X119410714Y-84757200D02*
X119553571Y-84614342D01*
X119553571Y-84614342D02*
X119648809Y-84566723D01*
X119648809Y-84566723D02*
X119744047Y-84566723D01*
X119696428Y-84804819D02*
X119791666Y-84757200D01*
X119791666Y-84757200D02*
X119886904Y-84661961D01*
X119886904Y-84661961D02*
X119934523Y-84471485D01*
X119934523Y-84471485D02*
X119934523Y-84138152D01*
X119934523Y-84138152D02*
X119886904Y-83947676D01*
X119886904Y-83947676D02*
X119791666Y-83852438D01*
X119791666Y-83852438D02*
X119696428Y-83804819D01*
X119696428Y-83804819D02*
X119505952Y-83804819D01*
X119505952Y-83804819D02*
X119410714Y-83852438D01*
X119410714Y-83852438D02*
X119315476Y-83947676D01*
X119315476Y-83947676D02*
X119267857Y-84138152D01*
X119267857Y-84138152D02*
X119267857Y-84471485D01*
X119267857Y-84471485D02*
X119315476Y-84661961D01*
X119315476Y-84661961D02*
X119410714Y-84757200D01*
X119410714Y-84757200D02*
X119505952Y-84804819D01*
X119505952Y-84804819D02*
X119696428Y-84804819D01*
X118315476Y-84804819D02*
X118886904Y-84804819D01*
X118601190Y-84804819D02*
X118601190Y-83804819D01*
X118601190Y-83804819D02*
X118696428Y-83947676D01*
X118696428Y-83947676D02*
X118791666Y-84042914D01*
X118791666Y-84042914D02*
X118886904Y-84090533D01*
X101542857Y-75954819D02*
X101876190Y-75478628D01*
X102114285Y-75954819D02*
X102114285Y-74954819D01*
X102114285Y-74954819D02*
X101733333Y-74954819D01*
X101733333Y-74954819D02*
X101638095Y-75002438D01*
X101638095Y-75002438D02*
X101590476Y-75050057D01*
X101590476Y-75050057D02*
X101542857Y-75145295D01*
X101542857Y-75145295D02*
X101542857Y-75288152D01*
X101542857Y-75288152D02*
X101590476Y-75383390D01*
X101590476Y-75383390D02*
X101638095Y-75431009D01*
X101638095Y-75431009D02*
X101733333Y-75478628D01*
X101733333Y-75478628D02*
X102114285Y-75478628D01*
X100590476Y-75954819D02*
X101161904Y-75954819D01*
X100876190Y-75954819D02*
X100876190Y-74954819D01*
X100876190Y-74954819D02*
X100971428Y-75097676D01*
X100971428Y-75097676D02*
X101066666Y-75192914D01*
X101066666Y-75192914D02*
X101161904Y-75240533D01*
X99733333Y-75288152D02*
X99733333Y-75954819D01*
X99971428Y-74907200D02*
X100209523Y-75621485D01*
X100209523Y-75621485D02*
X99590476Y-75621485D01*
X108142857Y-64254819D02*
X108619047Y-64254819D01*
X108619047Y-64254819D02*
X108619047Y-63254819D01*
X107809523Y-63731009D02*
X107476190Y-63731009D01*
X107333333Y-64254819D02*
X107809523Y-64254819D01*
X107809523Y-64254819D02*
X107809523Y-63254819D01*
X107809523Y-63254819D02*
X107333333Y-63254819D01*
X106904761Y-64254819D02*
X106904761Y-63254819D01*
X106904761Y-63254819D02*
X106666666Y-63254819D01*
X106666666Y-63254819D02*
X106523809Y-63302438D01*
X106523809Y-63302438D02*
X106428571Y-63397676D01*
X106428571Y-63397676D02*
X106380952Y-63492914D01*
X106380952Y-63492914D02*
X106333333Y-63683390D01*
X106333333Y-63683390D02*
X106333333Y-63826247D01*
X106333333Y-63826247D02*
X106380952Y-64016723D01*
X106380952Y-64016723D02*
X106428571Y-64111961D01*
X106428571Y-64111961D02*
X106523809Y-64207200D01*
X106523809Y-64207200D02*
X106666666Y-64254819D01*
X106666666Y-64254819D02*
X106904761Y-64254819D01*
X124431480Y-67232008D02*
X124287917Y-67186563D01*
X124287917Y-67186563D02*
X124095294Y-67046614D01*
X124095294Y-67046614D02*
X124046234Y-66952110D01*
X124046234Y-66952110D02*
X124035699Y-66885595D01*
X124035699Y-66885595D02*
X124053154Y-66780556D01*
X124053154Y-66780556D02*
X124109134Y-66703507D01*
X124109134Y-66703507D02*
X124203638Y-66654448D01*
X124203638Y-66654448D02*
X124270152Y-66643913D01*
X124270152Y-66643913D02*
X124375191Y-66661368D01*
X124375191Y-66661368D02*
X124557280Y-66734802D01*
X124557280Y-66734802D02*
X124662319Y-66752257D01*
X124662319Y-66752257D02*
X124728833Y-66741722D01*
X124728833Y-66741722D02*
X124823337Y-66692663D01*
X124823337Y-66692663D02*
X124879317Y-66615614D01*
X124879317Y-66615614D02*
X124896772Y-66510575D01*
X124896772Y-66510575D02*
X124886237Y-66444060D01*
X124886237Y-66444060D02*
X124837177Y-66349556D01*
X124837177Y-66349556D02*
X124644554Y-66209607D01*
X124644554Y-66209607D02*
X124500991Y-66164163D01*
X124259308Y-65929709D02*
X123478900Y-66598778D01*
X123478900Y-66598778D02*
X123744648Y-65908949D01*
X123744648Y-65908949D02*
X123170703Y-66374859D01*
X123170703Y-66374859D02*
X123565865Y-65425894D01*
X123240213Y-65307014D02*
X123229678Y-65240500D01*
X123229678Y-65240500D02*
X123180619Y-65145996D01*
X123180619Y-65145996D02*
X122987996Y-65006047D01*
X122987996Y-65006047D02*
X122882957Y-64988592D01*
X122882957Y-64988592D02*
X122816442Y-64999127D01*
X122816442Y-64999127D02*
X122721938Y-65048186D01*
X122721938Y-65048186D02*
X122665959Y-65125236D01*
X122665959Y-65125236D02*
X122620514Y-65268799D01*
X122620514Y-65268799D02*
X122746932Y-66066972D01*
X122746932Y-66066972D02*
X122246112Y-65703105D01*
X98386904Y-76702438D02*
X98482142Y-76654819D01*
X98482142Y-76654819D02*
X98624999Y-76654819D01*
X98624999Y-76654819D02*
X98767856Y-76702438D01*
X98767856Y-76702438D02*
X98863094Y-76797676D01*
X98863094Y-76797676D02*
X98910713Y-76892914D01*
X98910713Y-76892914D02*
X98958332Y-77083390D01*
X98958332Y-77083390D02*
X98958332Y-77226247D01*
X98958332Y-77226247D02*
X98910713Y-77416723D01*
X98910713Y-77416723D02*
X98863094Y-77511961D01*
X98863094Y-77511961D02*
X98767856Y-77607200D01*
X98767856Y-77607200D02*
X98624999Y-77654819D01*
X98624999Y-77654819D02*
X98529761Y-77654819D01*
X98529761Y-77654819D02*
X98386904Y-77607200D01*
X98386904Y-77607200D02*
X98339285Y-77559580D01*
X98339285Y-77559580D02*
X98339285Y-77226247D01*
X98339285Y-77226247D02*
X98529761Y-77226247D01*
X97910713Y-77654819D02*
X97910713Y-76654819D01*
X97910713Y-76654819D02*
X97339285Y-77654819D01*
X97339285Y-77654819D02*
X97339285Y-76654819D01*
X96863094Y-77654819D02*
X96863094Y-76654819D01*
X96863094Y-76654819D02*
X96624999Y-76654819D01*
X96624999Y-76654819D02*
X96482142Y-76702438D01*
X96482142Y-76702438D02*
X96386904Y-76797676D01*
X96386904Y-76797676D02*
X96339285Y-76892914D01*
X96339285Y-76892914D02*
X96291666Y-77083390D01*
X96291666Y-77083390D02*
X96291666Y-77226247D01*
X96291666Y-77226247D02*
X96339285Y-77416723D01*
X96339285Y-77416723D02*
X96386904Y-77511961D01*
X96386904Y-77511961D02*
X96482142Y-77607200D01*
X96482142Y-77607200D02*
X96624999Y-77654819D01*
X96624999Y-77654819D02*
X96863094Y-77654819D01*
X109054819Y-72833333D02*
X108578628Y-72500000D01*
X109054819Y-72261905D02*
X108054819Y-72261905D01*
X108054819Y-72261905D02*
X108054819Y-72642857D01*
X108054819Y-72642857D02*
X108102438Y-72738095D01*
X108102438Y-72738095D02*
X108150057Y-72785714D01*
X108150057Y-72785714D02*
X108245295Y-72833333D01*
X108245295Y-72833333D02*
X108388152Y-72833333D01*
X108388152Y-72833333D02*
X108483390Y-72785714D01*
X108483390Y-72785714D02*
X108531009Y-72738095D01*
X108531009Y-72738095D02*
X108578628Y-72642857D01*
X108578628Y-72642857D02*
X108578628Y-72261905D01*
X108150057Y-73214286D02*
X108102438Y-73261905D01*
X108102438Y-73261905D02*
X108054819Y-73357143D01*
X108054819Y-73357143D02*
X108054819Y-73595238D01*
X108054819Y-73595238D02*
X108102438Y-73690476D01*
X108102438Y-73690476D02*
X108150057Y-73738095D01*
X108150057Y-73738095D02*
X108245295Y-73785714D01*
X108245295Y-73785714D02*
X108340533Y-73785714D01*
X108340533Y-73785714D02*
X108483390Y-73738095D01*
X108483390Y-73738095D02*
X109054819Y-73166667D01*
X109054819Y-73166667D02*
X109054819Y-73785714D01*
D11*
X117884557Y-87777869D02*
X117884557Y-88703155D01*
X117884557Y-88703155D02*
X117830128Y-88812012D01*
X117830128Y-88812012D02*
X117775700Y-88866441D01*
X117775700Y-88866441D02*
X117666842Y-88920869D01*
X117666842Y-88920869D02*
X117449128Y-88920869D01*
X117449128Y-88920869D02*
X117340271Y-88866441D01*
X117340271Y-88866441D02*
X117285842Y-88812012D01*
X117285842Y-88812012D02*
X117231414Y-88703155D01*
X117231414Y-88703155D02*
X117231414Y-87777869D01*
X116197271Y-88158869D02*
X116197271Y-88920869D01*
X116469413Y-87723441D02*
X116741556Y-88539869D01*
X116741556Y-88539869D02*
X116033985Y-88539869D01*
D10*
X107759580Y-67757142D02*
X107807200Y-67709523D01*
X107807200Y-67709523D02*
X107854819Y-67566666D01*
X107854819Y-67566666D02*
X107854819Y-67471428D01*
X107854819Y-67471428D02*
X107807200Y-67328571D01*
X107807200Y-67328571D02*
X107711961Y-67233333D01*
X107711961Y-67233333D02*
X107616723Y-67185714D01*
X107616723Y-67185714D02*
X107426247Y-67138095D01*
X107426247Y-67138095D02*
X107283390Y-67138095D01*
X107283390Y-67138095D02*
X107092914Y-67185714D01*
X107092914Y-67185714D02*
X106997676Y-67233333D01*
X106997676Y-67233333D02*
X106902438Y-67328571D01*
X106902438Y-67328571D02*
X106854819Y-67471428D01*
X106854819Y-67471428D02*
X106854819Y-67566666D01*
X106854819Y-67566666D02*
X106902438Y-67709523D01*
X106902438Y-67709523D02*
X106950057Y-67757142D01*
X107854819Y-68709523D02*
X107854819Y-68138095D01*
X107854819Y-68423809D02*
X106854819Y-68423809D01*
X106854819Y-68423809D02*
X106997676Y-68328571D01*
X106997676Y-68328571D02*
X107092914Y-68233333D01*
X107092914Y-68233333D02*
X107140533Y-68138095D01*
X106854819Y-69042857D02*
X106854819Y-69661904D01*
X106854819Y-69661904D02*
X107235771Y-69328571D01*
X107235771Y-69328571D02*
X107235771Y-69471428D01*
X107235771Y-69471428D02*
X107283390Y-69566666D01*
X107283390Y-69566666D02*
X107331009Y-69614285D01*
X107331009Y-69614285D02*
X107426247Y-69661904D01*
X107426247Y-69661904D02*
X107664342Y-69661904D01*
X107664342Y-69661904D02*
X107759580Y-69614285D01*
X107759580Y-69614285D02*
X107807200Y-69566666D01*
X107807200Y-69566666D02*
X107854819Y-69471428D01*
X107854819Y-69471428D02*
X107854819Y-69185714D01*
X107854819Y-69185714D02*
X107807200Y-69090476D01*
X107807200Y-69090476D02*
X107759580Y-69042857D01*
X112542857Y-89554819D02*
X112876190Y-89078628D01*
X113114285Y-89554819D02*
X113114285Y-88554819D01*
X113114285Y-88554819D02*
X112733333Y-88554819D01*
X112733333Y-88554819D02*
X112638095Y-88602438D01*
X112638095Y-88602438D02*
X112590476Y-88650057D01*
X112590476Y-88650057D02*
X112542857Y-88745295D01*
X112542857Y-88745295D02*
X112542857Y-88888152D01*
X112542857Y-88888152D02*
X112590476Y-88983390D01*
X112590476Y-88983390D02*
X112638095Y-89031009D01*
X112638095Y-89031009D02*
X112733333Y-89078628D01*
X112733333Y-89078628D02*
X113114285Y-89078628D01*
X111590476Y-89554819D02*
X112161904Y-89554819D01*
X111876190Y-89554819D02*
X111876190Y-88554819D01*
X111876190Y-88554819D02*
X111971428Y-88697676D01*
X111971428Y-88697676D02*
X112066666Y-88792914D01*
X112066666Y-88792914D02*
X112161904Y-88840533D01*
X110638095Y-89554819D02*
X111209523Y-89554819D01*
X110923809Y-89554819D02*
X110923809Y-88554819D01*
X110923809Y-88554819D02*
X111019047Y-88697676D01*
X111019047Y-88697676D02*
X111114285Y-88792914D01*
X111114285Y-88792914D02*
X111209523Y-88840533D01*
X99238094Y-61454819D02*
X99238094Y-60454819D01*
X99238094Y-60454819D02*
X98999999Y-60454819D01*
X98999999Y-60454819D02*
X98857142Y-60502438D01*
X98857142Y-60502438D02*
X98761904Y-60597676D01*
X98761904Y-60597676D02*
X98714285Y-60692914D01*
X98714285Y-60692914D02*
X98666666Y-60883390D01*
X98666666Y-60883390D02*
X98666666Y-61026247D01*
X98666666Y-61026247D02*
X98714285Y-61216723D01*
X98714285Y-61216723D02*
X98761904Y-61311961D01*
X98761904Y-61311961D02*
X98857142Y-61407200D01*
X98857142Y-61407200D02*
X98999999Y-61454819D01*
X98999999Y-61454819D02*
X99238094Y-61454819D01*
X97761904Y-60454819D02*
X98238094Y-60454819D01*
X98238094Y-60454819D02*
X98285713Y-60931009D01*
X98285713Y-60931009D02*
X98238094Y-60883390D01*
X98238094Y-60883390D02*
X98142856Y-60835771D01*
X98142856Y-60835771D02*
X97904761Y-60835771D01*
X97904761Y-60835771D02*
X97809523Y-60883390D01*
X97809523Y-60883390D02*
X97761904Y-60931009D01*
X97761904Y-60931009D02*
X97714285Y-61026247D01*
X97714285Y-61026247D02*
X97714285Y-61264342D01*
X97714285Y-61264342D02*
X97761904Y-61359580D01*
X97761904Y-61359580D02*
X97809523Y-61407200D01*
X97809523Y-61407200D02*
X97904761Y-61454819D01*
X97904761Y-61454819D02*
X98142856Y-61454819D01*
X98142856Y-61454819D02*
X98238094Y-61407200D01*
X98238094Y-61407200D02*
X98285713Y-61359580D01*
X92064285Y-63054819D02*
X92635713Y-63054819D01*
X92349999Y-63054819D02*
X92349999Y-62054819D01*
X92349999Y-62054819D02*
X92445237Y-62197676D01*
X92445237Y-62197676D02*
X92540475Y-62292914D01*
X92540475Y-62292914D02*
X92635713Y-62340533D01*
X110302438Y-94638095D02*
X110254819Y-94542857D01*
X110254819Y-94542857D02*
X110254819Y-94400000D01*
X110254819Y-94400000D02*
X110302438Y-94257143D01*
X110302438Y-94257143D02*
X110397676Y-94161905D01*
X110397676Y-94161905D02*
X110492914Y-94114286D01*
X110492914Y-94114286D02*
X110683390Y-94066667D01*
X110683390Y-94066667D02*
X110826247Y-94066667D01*
X110826247Y-94066667D02*
X111016723Y-94114286D01*
X111016723Y-94114286D02*
X111111961Y-94161905D01*
X111111961Y-94161905D02*
X111207200Y-94257143D01*
X111207200Y-94257143D02*
X111254819Y-94400000D01*
X111254819Y-94400000D02*
X111254819Y-94495238D01*
X111254819Y-94495238D02*
X111207200Y-94638095D01*
X111207200Y-94638095D02*
X111159580Y-94685714D01*
X111159580Y-94685714D02*
X110826247Y-94685714D01*
X110826247Y-94685714D02*
X110826247Y-94495238D01*
X111254819Y-95114286D02*
X110254819Y-95114286D01*
X110254819Y-95114286D02*
X111254819Y-95685714D01*
X111254819Y-95685714D02*
X110254819Y-95685714D01*
X111254819Y-96161905D02*
X110254819Y-96161905D01*
X110254819Y-96161905D02*
X110254819Y-96400000D01*
X110254819Y-96400000D02*
X110302438Y-96542857D01*
X110302438Y-96542857D02*
X110397676Y-96638095D01*
X110397676Y-96638095D02*
X110492914Y-96685714D01*
X110492914Y-96685714D02*
X110683390Y-96733333D01*
X110683390Y-96733333D02*
X110826247Y-96733333D01*
X110826247Y-96733333D02*
X111016723Y-96685714D01*
X111016723Y-96685714D02*
X111111961Y-96638095D01*
X111111961Y-96638095D02*
X111207200Y-96542857D01*
X111207200Y-96542857D02*
X111254819Y-96400000D01*
X111254819Y-96400000D02*
X111254819Y-96161905D01*
X107811904Y-81804819D02*
X107811904Y-82614342D01*
X107811904Y-82614342D02*
X107764285Y-82709580D01*
X107764285Y-82709580D02*
X107716666Y-82757200D01*
X107716666Y-82757200D02*
X107621428Y-82804819D01*
X107621428Y-82804819D02*
X107430952Y-82804819D01*
X107430952Y-82804819D02*
X107335714Y-82757200D01*
X107335714Y-82757200D02*
X107288095Y-82709580D01*
X107288095Y-82709580D02*
X107240476Y-82614342D01*
X107240476Y-82614342D02*
X107240476Y-81804819D01*
X106621428Y-82233390D02*
X106716666Y-82185771D01*
X106716666Y-82185771D02*
X106764285Y-82138152D01*
X106764285Y-82138152D02*
X106811904Y-82042914D01*
X106811904Y-82042914D02*
X106811904Y-81995295D01*
X106811904Y-81995295D02*
X106764285Y-81900057D01*
X106764285Y-81900057D02*
X106716666Y-81852438D01*
X106716666Y-81852438D02*
X106621428Y-81804819D01*
X106621428Y-81804819D02*
X106430952Y-81804819D01*
X106430952Y-81804819D02*
X106335714Y-81852438D01*
X106335714Y-81852438D02*
X106288095Y-81900057D01*
X106288095Y-81900057D02*
X106240476Y-81995295D01*
X106240476Y-81995295D02*
X106240476Y-82042914D01*
X106240476Y-82042914D02*
X106288095Y-82138152D01*
X106288095Y-82138152D02*
X106335714Y-82185771D01*
X106335714Y-82185771D02*
X106430952Y-82233390D01*
X106430952Y-82233390D02*
X106621428Y-82233390D01*
X106621428Y-82233390D02*
X106716666Y-82281009D01*
X106716666Y-82281009D02*
X106764285Y-82328628D01*
X106764285Y-82328628D02*
X106811904Y-82423866D01*
X106811904Y-82423866D02*
X106811904Y-82614342D01*
X106811904Y-82614342D02*
X106764285Y-82709580D01*
X106764285Y-82709580D02*
X106716666Y-82757200D01*
X106716666Y-82757200D02*
X106621428Y-82804819D01*
X106621428Y-82804819D02*
X106430952Y-82804819D01*
X106430952Y-82804819D02*
X106335714Y-82757200D01*
X106335714Y-82757200D02*
X106288095Y-82709580D01*
X106288095Y-82709580D02*
X106240476Y-82614342D01*
X106240476Y-82614342D02*
X106240476Y-82423866D01*
X106240476Y-82423866D02*
X106288095Y-82328628D01*
X106288095Y-82328628D02*
X106335714Y-82281009D01*
X106335714Y-82281009D02*
X106430952Y-82233390D01*
X109931009Y-90061904D02*
X109978628Y-90204761D01*
X109978628Y-90204761D02*
X110026247Y-90252380D01*
X110026247Y-90252380D02*
X110121485Y-90299999D01*
X110121485Y-90299999D02*
X110264342Y-90299999D01*
X110264342Y-90299999D02*
X110359580Y-90252380D01*
X110359580Y-90252380D02*
X110407200Y-90204761D01*
X110407200Y-90204761D02*
X110454819Y-90109523D01*
X110454819Y-90109523D02*
X110454819Y-89728571D01*
X110454819Y-89728571D02*
X109454819Y-89728571D01*
X109454819Y-89728571D02*
X109454819Y-90061904D01*
X109454819Y-90061904D02*
X109502438Y-90157142D01*
X109502438Y-90157142D02*
X109550057Y-90204761D01*
X109550057Y-90204761D02*
X109645295Y-90252380D01*
X109645295Y-90252380D02*
X109740533Y-90252380D01*
X109740533Y-90252380D02*
X109835771Y-90204761D01*
X109835771Y-90204761D02*
X109883390Y-90157142D01*
X109883390Y-90157142D02*
X109931009Y-90061904D01*
X109931009Y-90061904D02*
X109931009Y-89728571D01*
X110169104Y-90680952D02*
X110169104Y-91157142D01*
X110454819Y-90585714D02*
X109454819Y-90919047D01*
X109454819Y-90919047D02*
X110454819Y-91252380D01*
X109454819Y-91442857D02*
X109454819Y-92014285D01*
X110454819Y-91728571D02*
X109454819Y-91728571D01*
X122504819Y-88966666D02*
X123219104Y-88966666D01*
X123219104Y-88966666D02*
X123361961Y-88919047D01*
X123361961Y-88919047D02*
X123457200Y-88823809D01*
X123457200Y-88823809D02*
X123504819Y-88680952D01*
X123504819Y-88680952D02*
X123504819Y-88585714D01*
X123504819Y-89442857D02*
X122504819Y-89442857D01*
X122504819Y-89442857D02*
X122504819Y-89823809D01*
X122504819Y-89823809D02*
X122552438Y-89919047D01*
X122552438Y-89919047D02*
X122600057Y-89966666D01*
X122600057Y-89966666D02*
X122695295Y-90014285D01*
X122695295Y-90014285D02*
X122838152Y-90014285D01*
X122838152Y-90014285D02*
X122933390Y-89966666D01*
X122933390Y-89966666D02*
X122981009Y-89919047D01*
X122981009Y-89919047D02*
X123028628Y-89823809D01*
X123028628Y-89823809D02*
X123028628Y-89442857D01*
X122600057Y-90395238D02*
X122552438Y-90442857D01*
X122552438Y-90442857D02*
X122504819Y-90538095D01*
X122504819Y-90538095D02*
X122504819Y-90776190D01*
X122504819Y-90776190D02*
X122552438Y-90871428D01*
X122552438Y-90871428D02*
X122600057Y-90919047D01*
X122600057Y-90919047D02*
X122695295Y-90966666D01*
X122695295Y-90966666D02*
X122790533Y-90966666D01*
X122790533Y-90966666D02*
X122933390Y-90919047D01*
X122933390Y-90919047D02*
X123504819Y-90347619D01*
X123504819Y-90347619D02*
X123504819Y-90966666D01*
X105366666Y-90559580D02*
X105414285Y-90607200D01*
X105414285Y-90607200D02*
X105557142Y-90654819D01*
X105557142Y-90654819D02*
X105652380Y-90654819D01*
X105652380Y-90654819D02*
X105795237Y-90607200D01*
X105795237Y-90607200D02*
X105890475Y-90511961D01*
X105890475Y-90511961D02*
X105938094Y-90416723D01*
X105938094Y-90416723D02*
X105985713Y-90226247D01*
X105985713Y-90226247D02*
X105985713Y-90083390D01*
X105985713Y-90083390D02*
X105938094Y-89892914D01*
X105938094Y-89892914D02*
X105890475Y-89797676D01*
X105890475Y-89797676D02*
X105795237Y-89702438D01*
X105795237Y-89702438D02*
X105652380Y-89654819D01*
X105652380Y-89654819D02*
X105557142Y-89654819D01*
X105557142Y-89654819D02*
X105414285Y-89702438D01*
X105414285Y-89702438D02*
X105366666Y-89750057D01*
X104461904Y-89654819D02*
X104938094Y-89654819D01*
X104938094Y-89654819D02*
X104985713Y-90131009D01*
X104985713Y-90131009D02*
X104938094Y-90083390D01*
X104938094Y-90083390D02*
X104842856Y-90035771D01*
X104842856Y-90035771D02*
X104604761Y-90035771D01*
X104604761Y-90035771D02*
X104509523Y-90083390D01*
X104509523Y-90083390D02*
X104461904Y-90131009D01*
X104461904Y-90131009D02*
X104414285Y-90226247D01*
X104414285Y-90226247D02*
X104414285Y-90464342D01*
X104414285Y-90464342D02*
X104461904Y-90559580D01*
X104461904Y-90559580D02*
X104509523Y-90607200D01*
X104509523Y-90607200D02*
X104604761Y-90654819D01*
X104604761Y-90654819D02*
X104842856Y-90654819D01*
X104842856Y-90654819D02*
X104938094Y-90607200D01*
X104938094Y-90607200D02*
X104985713Y-90559580D01*
X111162295Y-83685714D02*
X110781342Y-83419047D01*
X111162295Y-83228571D02*
X110362295Y-83228571D01*
X110362295Y-83228571D02*
X110362295Y-83533333D01*
X110362295Y-83533333D02*
X110400390Y-83609523D01*
X110400390Y-83609523D02*
X110438485Y-83647618D01*
X110438485Y-83647618D02*
X110514676Y-83685714D01*
X110514676Y-83685714D02*
X110628961Y-83685714D01*
X110628961Y-83685714D02*
X110705152Y-83647618D01*
X110705152Y-83647618D02*
X110743247Y-83609523D01*
X110743247Y-83609523D02*
X110781342Y-83533333D01*
X110781342Y-83533333D02*
X110781342Y-83228571D01*
X111162295Y-84447618D02*
X111162295Y-83990475D01*
X111162295Y-84219047D02*
X110362295Y-84219047D01*
X110362295Y-84219047D02*
X110476580Y-84142856D01*
X110476580Y-84142856D02*
X110552771Y-84066666D01*
X110552771Y-84066666D02*
X110590866Y-83990475D01*
X110362295Y-84714285D02*
X110362295Y-85247619D01*
X110362295Y-85247619D02*
X111162295Y-84904761D01*
X106059580Y-67757142D02*
X106107200Y-67709523D01*
X106107200Y-67709523D02*
X106154819Y-67566666D01*
X106154819Y-67566666D02*
X106154819Y-67471428D01*
X106154819Y-67471428D02*
X106107200Y-67328571D01*
X106107200Y-67328571D02*
X106011961Y-67233333D01*
X106011961Y-67233333D02*
X105916723Y-67185714D01*
X105916723Y-67185714D02*
X105726247Y-67138095D01*
X105726247Y-67138095D02*
X105583390Y-67138095D01*
X105583390Y-67138095D02*
X105392914Y-67185714D01*
X105392914Y-67185714D02*
X105297676Y-67233333D01*
X105297676Y-67233333D02*
X105202438Y-67328571D01*
X105202438Y-67328571D02*
X105154819Y-67471428D01*
X105154819Y-67471428D02*
X105154819Y-67566666D01*
X105154819Y-67566666D02*
X105202438Y-67709523D01*
X105202438Y-67709523D02*
X105250057Y-67757142D01*
X106154819Y-68709523D02*
X106154819Y-68138095D01*
X106154819Y-68423809D02*
X105154819Y-68423809D01*
X105154819Y-68423809D02*
X105297676Y-68328571D01*
X105297676Y-68328571D02*
X105392914Y-68233333D01*
X105392914Y-68233333D02*
X105440533Y-68138095D01*
X105250057Y-69090476D02*
X105202438Y-69138095D01*
X105202438Y-69138095D02*
X105154819Y-69233333D01*
X105154819Y-69233333D02*
X105154819Y-69471428D01*
X105154819Y-69471428D02*
X105202438Y-69566666D01*
X105202438Y-69566666D02*
X105250057Y-69614285D01*
X105250057Y-69614285D02*
X105345295Y-69661904D01*
X105345295Y-69661904D02*
X105440533Y-69661904D01*
X105440533Y-69661904D02*
X105583390Y-69614285D01*
X105583390Y-69614285D02*
X106154819Y-69042857D01*
X106154819Y-69042857D02*
X106154819Y-69661904D01*
X100119047Y-80054819D02*
X100452380Y-79578628D01*
X100690475Y-80054819D02*
X100690475Y-79054819D01*
X100690475Y-79054819D02*
X100309523Y-79054819D01*
X100309523Y-79054819D02*
X100214285Y-79102438D01*
X100214285Y-79102438D02*
X100166666Y-79150057D01*
X100166666Y-79150057D02*
X100119047Y-79245295D01*
X100119047Y-79245295D02*
X100119047Y-79388152D01*
X100119047Y-79388152D02*
X100166666Y-79483390D01*
X100166666Y-79483390D02*
X100214285Y-79531009D01*
X100214285Y-79531009D02*
X100309523Y-79578628D01*
X100309523Y-79578628D02*
X100690475Y-79578628D01*
X99690475Y-79531009D02*
X99357142Y-79531009D01*
X99214285Y-80054819D02*
X99690475Y-80054819D01*
X99690475Y-80054819D02*
X99690475Y-79054819D01*
X99690475Y-79054819D02*
X99214285Y-79054819D01*
X98833332Y-80007200D02*
X98690475Y-80054819D01*
X98690475Y-80054819D02*
X98452380Y-80054819D01*
X98452380Y-80054819D02*
X98357142Y-80007200D01*
X98357142Y-80007200D02*
X98309523Y-79959580D01*
X98309523Y-79959580D02*
X98261904Y-79864342D01*
X98261904Y-79864342D02*
X98261904Y-79769104D01*
X98261904Y-79769104D02*
X98309523Y-79673866D01*
X98309523Y-79673866D02*
X98357142Y-79626247D01*
X98357142Y-79626247D02*
X98452380Y-79578628D01*
X98452380Y-79578628D02*
X98642856Y-79531009D01*
X98642856Y-79531009D02*
X98738094Y-79483390D01*
X98738094Y-79483390D02*
X98785713Y-79435771D01*
X98785713Y-79435771D02*
X98833332Y-79340533D01*
X98833332Y-79340533D02*
X98833332Y-79245295D01*
X98833332Y-79245295D02*
X98785713Y-79150057D01*
X98785713Y-79150057D02*
X98738094Y-79102438D01*
X98738094Y-79102438D02*
X98642856Y-79054819D01*
X98642856Y-79054819D02*
X98404761Y-79054819D01*
X98404761Y-79054819D02*
X98261904Y-79102438D01*
X120954819Y-84638095D02*
X120954819Y-85209523D01*
X121954819Y-84923809D02*
X120954819Y-84923809D01*
X121954819Y-85542857D02*
X120954819Y-85542857D01*
X120954819Y-85542857D02*
X120954819Y-85923809D01*
X120954819Y-85923809D02*
X121002438Y-86019047D01*
X121002438Y-86019047D02*
X121050057Y-86066666D01*
X121050057Y-86066666D02*
X121145295Y-86114285D01*
X121145295Y-86114285D02*
X121288152Y-86114285D01*
X121288152Y-86114285D02*
X121383390Y-86066666D01*
X121383390Y-86066666D02*
X121431009Y-86019047D01*
X121431009Y-86019047D02*
X121478628Y-85923809D01*
X121478628Y-85923809D02*
X121478628Y-85542857D01*
X120954819Y-87019047D02*
X120954819Y-86542857D01*
X120954819Y-86542857D02*
X121431009Y-86495238D01*
X121431009Y-86495238D02*
X121383390Y-86542857D01*
X121383390Y-86542857D02*
X121335771Y-86638095D01*
X121335771Y-86638095D02*
X121335771Y-86876190D01*
X121335771Y-86876190D02*
X121383390Y-86971428D01*
X121383390Y-86971428D02*
X121431009Y-87019047D01*
X121431009Y-87019047D02*
X121526247Y-87066666D01*
X121526247Y-87066666D02*
X121764342Y-87066666D01*
X121764342Y-87066666D02*
X121859580Y-87019047D01*
X121859580Y-87019047D02*
X121907200Y-86971428D01*
X121907200Y-86971428D02*
X121954819Y-86876190D01*
X121954819Y-86876190D02*
X121954819Y-86638095D01*
X121954819Y-86638095D02*
X121907200Y-86542857D01*
X121907200Y-86542857D02*
X121859580Y-86495238D01*
X121888094Y-73454819D02*
X121888094Y-72454819D01*
X121888094Y-72454819D02*
X121649999Y-72454819D01*
X121649999Y-72454819D02*
X121507142Y-72502438D01*
X121507142Y-72502438D02*
X121411904Y-72597676D01*
X121411904Y-72597676D02*
X121364285Y-72692914D01*
X121364285Y-72692914D02*
X121316666Y-72883390D01*
X121316666Y-72883390D02*
X121316666Y-73026247D01*
X121316666Y-73026247D02*
X121364285Y-73216723D01*
X121364285Y-73216723D02*
X121411904Y-73311961D01*
X121411904Y-73311961D02*
X121507142Y-73407200D01*
X121507142Y-73407200D02*
X121649999Y-73454819D01*
X121649999Y-73454819D02*
X121888094Y-73454819D01*
X120364285Y-73454819D02*
X120935713Y-73454819D01*
X120649999Y-73454819D02*
X120649999Y-72454819D01*
X120649999Y-72454819D02*
X120745237Y-72597676D01*
X120745237Y-72597676D02*
X120840475Y-72692914D01*
X120840475Y-72692914D02*
X120935713Y-72740533D01*
X119814285Y-75254819D02*
X120385713Y-75254819D01*
X120099999Y-75254819D02*
X120099999Y-74254819D01*
X120099999Y-74254819D02*
X120195237Y-74397676D01*
X120195237Y-74397676D02*
X120290475Y-74492914D01*
X120290475Y-74492914D02*
X120385713Y-74540533D01*
X102742857Y-98179580D02*
X102790476Y-98227200D01*
X102790476Y-98227200D02*
X102933333Y-98274819D01*
X102933333Y-98274819D02*
X103028571Y-98274819D01*
X103028571Y-98274819D02*
X103171428Y-98227200D01*
X103171428Y-98227200D02*
X103266666Y-98131961D01*
X103266666Y-98131961D02*
X103314285Y-98036723D01*
X103314285Y-98036723D02*
X103361904Y-97846247D01*
X103361904Y-97846247D02*
X103361904Y-97703390D01*
X103361904Y-97703390D02*
X103314285Y-97512914D01*
X103314285Y-97512914D02*
X103266666Y-97417676D01*
X103266666Y-97417676D02*
X103171428Y-97322438D01*
X103171428Y-97322438D02*
X103028571Y-97274819D01*
X103028571Y-97274819D02*
X102933333Y-97274819D01*
X102933333Y-97274819D02*
X102790476Y-97322438D01*
X102790476Y-97322438D02*
X102742857Y-97370057D01*
X101790476Y-98274819D02*
X102361904Y-98274819D01*
X102076190Y-98274819D02*
X102076190Y-97274819D01*
X102076190Y-97274819D02*
X102171428Y-97417676D01*
X102171428Y-97417676D02*
X102266666Y-97512914D01*
X102266666Y-97512914D02*
X102361904Y-97560533D01*
X100885714Y-97274819D02*
X101361904Y-97274819D01*
X101361904Y-97274819D02*
X101409523Y-97751009D01*
X101409523Y-97751009D02*
X101361904Y-97703390D01*
X101361904Y-97703390D02*
X101266666Y-97655771D01*
X101266666Y-97655771D02*
X101028571Y-97655771D01*
X101028571Y-97655771D02*
X100933333Y-97703390D01*
X100933333Y-97703390D02*
X100885714Y-97751009D01*
X100885714Y-97751009D02*
X100838095Y-97846247D01*
X100838095Y-97846247D02*
X100838095Y-98084342D01*
X100838095Y-98084342D02*
X100885714Y-98179580D01*
X100885714Y-98179580D02*
X100933333Y-98227200D01*
X100933333Y-98227200D02*
X101028571Y-98274819D01*
X101028571Y-98274819D02*
X101266666Y-98274819D01*
X101266666Y-98274819D02*
X101361904Y-98227200D01*
X101361904Y-98227200D02*
X101409523Y-98179580D01*
X101257142Y-71583009D02*
X101114285Y-71630628D01*
X101114285Y-71630628D02*
X101066666Y-71678247D01*
X101066666Y-71678247D02*
X101019047Y-71773485D01*
X101019047Y-71773485D02*
X101019047Y-71916342D01*
X101019047Y-71916342D02*
X101066666Y-72011580D01*
X101066666Y-72011580D02*
X101114285Y-72059200D01*
X101114285Y-72059200D02*
X101209523Y-72106819D01*
X101209523Y-72106819D02*
X101590475Y-72106819D01*
X101590475Y-72106819D02*
X101590475Y-71106819D01*
X101590475Y-71106819D02*
X101257142Y-71106819D01*
X101257142Y-71106819D02*
X101161904Y-71154438D01*
X101161904Y-71154438D02*
X101114285Y-71202057D01*
X101114285Y-71202057D02*
X101066666Y-71297295D01*
X101066666Y-71297295D02*
X101066666Y-71392533D01*
X101066666Y-71392533D02*
X101114285Y-71487771D01*
X101114285Y-71487771D02*
X101161904Y-71535390D01*
X101161904Y-71535390D02*
X101257142Y-71583009D01*
X101257142Y-71583009D02*
X101590475Y-71583009D01*
X100638094Y-71821104D02*
X100161904Y-71821104D01*
X100733332Y-72106819D02*
X100399999Y-71106819D01*
X100399999Y-71106819D02*
X100066666Y-72106819D01*
X99876189Y-71106819D02*
X99304761Y-71106819D01*
X99590475Y-72106819D02*
X99590475Y-71106819D01*
X98971427Y-71725866D02*
X98209523Y-71725866D01*
X98590475Y-72106819D02*
X98590475Y-71344914D01*
X112942857Y-86454819D02*
X113276190Y-85978628D01*
X113514285Y-86454819D02*
X113514285Y-85454819D01*
X113514285Y-85454819D02*
X113133333Y-85454819D01*
X113133333Y-85454819D02*
X113038095Y-85502438D01*
X113038095Y-85502438D02*
X112990476Y-85550057D01*
X112990476Y-85550057D02*
X112942857Y-85645295D01*
X112942857Y-85645295D02*
X112942857Y-85788152D01*
X112942857Y-85788152D02*
X112990476Y-85883390D01*
X112990476Y-85883390D02*
X113038095Y-85931009D01*
X113038095Y-85931009D02*
X113133333Y-85978628D01*
X113133333Y-85978628D02*
X113514285Y-85978628D01*
X111990476Y-86454819D02*
X112561904Y-86454819D01*
X112276190Y-86454819D02*
X112276190Y-85454819D01*
X112276190Y-85454819D02*
X112371428Y-85597676D01*
X112371428Y-85597676D02*
X112466666Y-85692914D01*
X112466666Y-85692914D02*
X112561904Y-85740533D01*
X111371428Y-85454819D02*
X111276190Y-85454819D01*
X111276190Y-85454819D02*
X111180952Y-85502438D01*
X111180952Y-85502438D02*
X111133333Y-85550057D01*
X111133333Y-85550057D02*
X111085714Y-85645295D01*
X111085714Y-85645295D02*
X111038095Y-85835771D01*
X111038095Y-85835771D02*
X111038095Y-86073866D01*
X111038095Y-86073866D02*
X111085714Y-86264342D01*
X111085714Y-86264342D02*
X111133333Y-86359580D01*
X111133333Y-86359580D02*
X111180952Y-86407200D01*
X111180952Y-86407200D02*
X111276190Y-86454819D01*
X111276190Y-86454819D02*
X111371428Y-86454819D01*
X111371428Y-86454819D02*
X111466666Y-86407200D01*
X111466666Y-86407200D02*
X111514285Y-86359580D01*
X111514285Y-86359580D02*
X111561904Y-86264342D01*
X111561904Y-86264342D02*
X111609523Y-86073866D01*
X111609523Y-86073866D02*
X111609523Y-85835771D01*
X111609523Y-85835771D02*
X111561904Y-85645295D01*
X111561904Y-85645295D02*
X111514285Y-85550057D01*
X111514285Y-85550057D02*
X111466666Y-85502438D01*
X111466666Y-85502438D02*
X111371428Y-85454819D01*
X106866666Y-79654819D02*
X107199999Y-79178628D01*
X107438094Y-79654819D02*
X107438094Y-78654819D01*
X107438094Y-78654819D02*
X107057142Y-78654819D01*
X107057142Y-78654819D02*
X106961904Y-78702438D01*
X106961904Y-78702438D02*
X106914285Y-78750057D01*
X106914285Y-78750057D02*
X106866666Y-78845295D01*
X106866666Y-78845295D02*
X106866666Y-78988152D01*
X106866666Y-78988152D02*
X106914285Y-79083390D01*
X106914285Y-79083390D02*
X106961904Y-79131009D01*
X106961904Y-79131009D02*
X107057142Y-79178628D01*
X107057142Y-79178628D02*
X107438094Y-79178628D01*
X106533332Y-78654819D02*
X105914285Y-78654819D01*
X105914285Y-78654819D02*
X106247618Y-79035771D01*
X106247618Y-79035771D02*
X106104761Y-79035771D01*
X106104761Y-79035771D02*
X106009523Y-79083390D01*
X106009523Y-79083390D02*
X105961904Y-79131009D01*
X105961904Y-79131009D02*
X105914285Y-79226247D01*
X105914285Y-79226247D02*
X105914285Y-79464342D01*
X105914285Y-79464342D02*
X105961904Y-79559580D01*
X105961904Y-79559580D02*
X106009523Y-79607200D01*
X106009523Y-79607200D02*
X106104761Y-79654819D01*
X106104761Y-79654819D02*
X106390475Y-79654819D01*
X106390475Y-79654819D02*
X106485713Y-79607200D01*
X106485713Y-79607200D02*
X106533332Y-79559580D01*
X113224819Y-89861905D02*
X112224819Y-89861905D01*
X112224819Y-89861905D02*
X112224819Y-90100000D01*
X112224819Y-90100000D02*
X112272438Y-90242857D01*
X112272438Y-90242857D02*
X112367676Y-90338095D01*
X112367676Y-90338095D02*
X112462914Y-90385714D01*
X112462914Y-90385714D02*
X112653390Y-90433333D01*
X112653390Y-90433333D02*
X112796247Y-90433333D01*
X112796247Y-90433333D02*
X112986723Y-90385714D01*
X112986723Y-90385714D02*
X113081961Y-90338095D01*
X113081961Y-90338095D02*
X113177200Y-90242857D01*
X113177200Y-90242857D02*
X113224819Y-90100000D01*
X113224819Y-90100000D02*
X113224819Y-89861905D01*
X112224819Y-90766667D02*
X112224819Y-91385714D01*
X112224819Y-91385714D02*
X112605771Y-91052381D01*
X112605771Y-91052381D02*
X112605771Y-91195238D01*
X112605771Y-91195238D02*
X112653390Y-91290476D01*
X112653390Y-91290476D02*
X112701009Y-91338095D01*
X112701009Y-91338095D02*
X112796247Y-91385714D01*
X112796247Y-91385714D02*
X113034342Y-91385714D01*
X113034342Y-91385714D02*
X113129580Y-91338095D01*
X113129580Y-91338095D02*
X113177200Y-91290476D01*
X113177200Y-91290476D02*
X113224819Y-91195238D01*
X113224819Y-91195238D02*
X113224819Y-90909524D01*
X113224819Y-90909524D02*
X113177200Y-90814286D01*
X113177200Y-90814286D02*
X113129580Y-90766667D01*
X135238094Y-98454819D02*
X135238094Y-97454819D01*
X135238094Y-97454819D02*
X134999999Y-97454819D01*
X134999999Y-97454819D02*
X134857142Y-97502438D01*
X134857142Y-97502438D02*
X134761904Y-97597676D01*
X134761904Y-97597676D02*
X134714285Y-97692914D01*
X134714285Y-97692914D02*
X134666666Y-97883390D01*
X134666666Y-97883390D02*
X134666666Y-98026247D01*
X134666666Y-98026247D02*
X134714285Y-98216723D01*
X134714285Y-98216723D02*
X134761904Y-98311961D01*
X134761904Y-98311961D02*
X134857142Y-98407200D01*
X134857142Y-98407200D02*
X134999999Y-98454819D01*
X134999999Y-98454819D02*
X135238094Y-98454819D01*
X134333332Y-97454819D02*
X133666666Y-97454819D01*
X133666666Y-97454819D02*
X134095237Y-98454819D01*
X135864285Y-96854819D02*
X136435713Y-96854819D01*
X136149999Y-96854819D02*
X136149999Y-95854819D01*
X136149999Y-95854819D02*
X136245237Y-95997676D01*
X136245237Y-95997676D02*
X136340475Y-96092914D01*
X136340475Y-96092914D02*
X136435713Y-96140533D01*
X130959580Y-64557142D02*
X131007200Y-64509523D01*
X131007200Y-64509523D02*
X131054819Y-64366666D01*
X131054819Y-64366666D02*
X131054819Y-64271428D01*
X131054819Y-64271428D02*
X131007200Y-64128571D01*
X131007200Y-64128571D02*
X130911961Y-64033333D01*
X130911961Y-64033333D02*
X130816723Y-63985714D01*
X130816723Y-63985714D02*
X130626247Y-63938095D01*
X130626247Y-63938095D02*
X130483390Y-63938095D01*
X130483390Y-63938095D02*
X130292914Y-63985714D01*
X130292914Y-63985714D02*
X130197676Y-64033333D01*
X130197676Y-64033333D02*
X130102438Y-64128571D01*
X130102438Y-64128571D02*
X130054819Y-64271428D01*
X130054819Y-64271428D02*
X130054819Y-64366666D01*
X130054819Y-64366666D02*
X130102438Y-64509523D01*
X130102438Y-64509523D02*
X130150057Y-64557142D01*
X131054819Y-65509523D02*
X131054819Y-64938095D01*
X131054819Y-65223809D02*
X130054819Y-65223809D01*
X130054819Y-65223809D02*
X130197676Y-65128571D01*
X130197676Y-65128571D02*
X130292914Y-65033333D01*
X130292914Y-65033333D02*
X130340533Y-64938095D01*
X130388152Y-66366666D02*
X131054819Y-66366666D01*
X130007200Y-66128571D02*
X130721485Y-65890476D01*
X130721485Y-65890476D02*
X130721485Y-66509523D01*
X122191757Y-81486525D02*
X122032652Y-81049579D01*
X122453963Y-81112056D02*
X121798641Y-80653194D01*
X121798641Y-80653194D02*
X121623837Y-80902841D01*
X121623837Y-80902841D02*
X121611342Y-80987103D01*
X121611342Y-80987103D02*
X121620697Y-81040159D01*
X121620697Y-81040159D02*
X121661258Y-81115066D01*
X121661258Y-81115066D02*
X121754876Y-81180618D01*
X121754876Y-81180618D02*
X121839138Y-81193113D01*
X121839138Y-81193113D02*
X121892194Y-81183758D01*
X121892194Y-81183758D02*
X121967101Y-81143197D01*
X121967101Y-81143197D02*
X122141905Y-80893550D01*
X121754746Y-82110641D02*
X122016952Y-81736171D01*
X121885849Y-81923406D02*
X121230528Y-81464545D01*
X121230528Y-81464545D02*
X121367846Y-81467685D01*
X121367846Y-81467685D02*
X121473959Y-81448975D01*
X121473959Y-81448975D02*
X121548866Y-81408413D01*
X121118070Y-82222904D02*
X121130565Y-82138642D01*
X121130565Y-82138642D02*
X121121210Y-82085586D01*
X121121210Y-82085586D02*
X121080649Y-82010679D01*
X121080649Y-82010679D02*
X121049443Y-81988828D01*
X121049443Y-81988828D02*
X120965181Y-81976333D01*
X120965181Y-81976333D02*
X120912125Y-81985688D01*
X120912125Y-81985688D02*
X120837218Y-82026250D01*
X120837218Y-82026250D02*
X120749816Y-82151073D01*
X120749816Y-82151073D02*
X120737321Y-82235335D01*
X120737321Y-82235335D02*
X120746676Y-82288391D01*
X120746676Y-82288391D02*
X120787237Y-82363298D01*
X120787237Y-82363298D02*
X120818443Y-82385149D01*
X120818443Y-82385149D02*
X120902705Y-82397644D01*
X120902705Y-82397644D02*
X120955761Y-82388289D01*
X120955761Y-82388289D02*
X121030668Y-82347727D01*
X121030668Y-82347727D02*
X121118070Y-82222904D01*
X121118070Y-82222904D02*
X121192977Y-82182343D01*
X121192977Y-82182343D02*
X121246033Y-82172988D01*
X121246033Y-82172988D02*
X121330295Y-82185483D01*
X121330295Y-82185483D02*
X121455119Y-82272885D01*
X121455119Y-82272885D02*
X121495680Y-82347792D01*
X121495680Y-82347792D02*
X121505035Y-82400849D01*
X121505035Y-82400849D02*
X121492540Y-82485111D01*
X121492540Y-82485111D02*
X121405137Y-82609934D01*
X121405137Y-82609934D02*
X121330231Y-82650495D01*
X121330231Y-82650495D02*
X121277174Y-82659850D01*
X121277174Y-82659850D02*
X121192912Y-82647355D01*
X121192912Y-82647355D02*
X121068089Y-82559953D01*
X121068089Y-82559953D02*
X121027528Y-82485046D01*
X121027528Y-82485046D02*
X121018173Y-82431990D01*
X121018173Y-82431990D02*
X121030668Y-82347727D01*
X106550201Y-94278796D02*
X107055277Y-94783872D01*
X107055277Y-94783872D02*
X107189964Y-94851216D01*
X107189964Y-94851216D02*
X107324651Y-94851216D01*
X107324651Y-94851216D02*
X107459338Y-94783872D01*
X107459338Y-94783872D02*
X107526682Y-94716529D01*
X106314498Y-94649185D02*
X106247155Y-94649185D01*
X106247155Y-94649185D02*
X106146140Y-94682857D01*
X106146140Y-94682857D02*
X105977781Y-94851216D01*
X105977781Y-94851216D02*
X105944109Y-94952231D01*
X105944109Y-94952231D02*
X105944109Y-95019575D01*
X105944109Y-95019575D02*
X105977781Y-95120590D01*
X105977781Y-95120590D02*
X106045124Y-95187933D01*
X106045124Y-95187933D02*
X106179811Y-95255277D01*
X106179811Y-95255277D02*
X106987933Y-95255277D01*
X106987933Y-95255277D02*
X106550201Y-95693010D01*
X115361904Y-77454819D02*
X115361904Y-78264342D01*
X115361904Y-78264342D02*
X115314285Y-78359580D01*
X115314285Y-78359580D02*
X115266666Y-78407200D01*
X115266666Y-78407200D02*
X115171428Y-78454819D01*
X115171428Y-78454819D02*
X114980952Y-78454819D01*
X114980952Y-78454819D02*
X114885714Y-78407200D01*
X114885714Y-78407200D02*
X114838095Y-78359580D01*
X114838095Y-78359580D02*
X114790476Y-78264342D01*
X114790476Y-78264342D02*
X114790476Y-77454819D01*
X113885714Y-77454819D02*
X114076190Y-77454819D01*
X114076190Y-77454819D02*
X114171428Y-77502438D01*
X114171428Y-77502438D02*
X114219047Y-77550057D01*
X114219047Y-77550057D02*
X114314285Y-77692914D01*
X114314285Y-77692914D02*
X114361904Y-77883390D01*
X114361904Y-77883390D02*
X114361904Y-78264342D01*
X114361904Y-78264342D02*
X114314285Y-78359580D01*
X114314285Y-78359580D02*
X114266666Y-78407200D01*
X114266666Y-78407200D02*
X114171428Y-78454819D01*
X114171428Y-78454819D02*
X113980952Y-78454819D01*
X113980952Y-78454819D02*
X113885714Y-78407200D01*
X113885714Y-78407200D02*
X113838095Y-78359580D01*
X113838095Y-78359580D02*
X113790476Y-78264342D01*
X113790476Y-78264342D02*
X113790476Y-78026247D01*
X113790476Y-78026247D02*
X113838095Y-77931009D01*
X113838095Y-77931009D02*
X113885714Y-77883390D01*
X113885714Y-77883390D02*
X113980952Y-77835771D01*
X113980952Y-77835771D02*
X114171428Y-77835771D01*
X114171428Y-77835771D02*
X114266666Y-77883390D01*
X114266666Y-77883390D02*
X114314285Y-77931009D01*
X114314285Y-77931009D02*
X114361904Y-78026247D01*
X117054819Y-71511905D02*
X116054819Y-71511905D01*
X116054819Y-71511905D02*
X116054819Y-71750000D01*
X116054819Y-71750000D02*
X116102438Y-71892857D01*
X116102438Y-71892857D02*
X116197676Y-71988095D01*
X116197676Y-71988095D02*
X116292914Y-72035714D01*
X116292914Y-72035714D02*
X116483390Y-72083333D01*
X116483390Y-72083333D02*
X116626247Y-72083333D01*
X116626247Y-72083333D02*
X116816723Y-72035714D01*
X116816723Y-72035714D02*
X116911961Y-71988095D01*
X116911961Y-71988095D02*
X117007200Y-71892857D01*
X117007200Y-71892857D02*
X117054819Y-71750000D01*
X117054819Y-71750000D02*
X117054819Y-71511905D01*
X116388152Y-72940476D02*
X117054819Y-72940476D01*
X116007200Y-72702381D02*
X116721485Y-72464286D01*
X116721485Y-72464286D02*
X116721485Y-73083333D01*
D12*
%TO.C,R21*%
X119827064Y-68265000D02*
X119372936Y-68265000D01*
X119827064Y-69735000D02*
X119372936Y-69735000D01*
%TO.C,C11*%
X104461252Y-74565000D02*
X103938748Y-74565000D01*
X104461252Y-76035000D02*
X103938748Y-76035000D01*
%TO.C,C16*%
X133376248Y-92665000D02*
X133898752Y-92665000D01*
X133376248Y-94135000D02*
X133898752Y-94135000D01*
%TO.C,R12*%
X113687064Y-86665000D02*
X113232936Y-86665000D01*
X113687064Y-88135000D02*
X113232936Y-88135000D01*
D10*
%TO.C,U5*%
X122725000Y-76700000D02*
X122725000Y-77700000D01*
X122725000Y-86300000D02*
X122725000Y-87300000D01*
X123075000Y-76300000D02*
X125675000Y-76300000D01*
X123125000Y-87700000D02*
X132725000Y-87700000D01*
X126475000Y-75500000D02*
X132725000Y-75500000D01*
X133125000Y-87300000D02*
X133125000Y-75900000D01*
X122725000Y-76700000D02*
G75*
G02*
X123125000Y-76300000I400000J0D01*
G01*
X123125000Y-87700000D02*
G75*
G02*
X122725000Y-87300000I-1J399999D01*
G01*
X126075000Y-75900000D02*
G75*
G02*
X125675000Y-76300000I-400000J0D01*
G01*
X126075000Y-75900000D02*
G75*
G02*
X126475000Y-75500000I400000J0D01*
G01*
X132725000Y-75500000D02*
G75*
G02*
X133125000Y-75900000I0J-400000D01*
G01*
X133125000Y-87300000D02*
G75*
G02*
X132725000Y-87700000I-399999J-1D01*
G01*
D12*
%TO.C,R16*%
X115262258Y-83677500D02*
X114787742Y-83677500D01*
X115262258Y-84722500D02*
X114787742Y-84722500D01*
%TO.C,D8*%
X128350000Y-58250000D02*
X135650000Y-58250000D01*
X128350000Y-62600000D02*
X128350000Y-63750000D01*
X128350000Y-63750000D02*
X135650000Y-63750000D01*
%TO.C,Ur1*%
X109285743Y-77442255D02*
X110427690Y-77974756D01*
X109750621Y-76445317D02*
X109285743Y-77442255D01*
X110892570Y-76977815D02*
X109750621Y-76445317D01*
X110892380Y-76978128D02*
G75*
G02*
X110427691Y-77974756I4107620J-2521872D01*
G01*
%TO.C,D2*%
X115250000Y-70250000D02*
X107950000Y-70250000D01*
X115250000Y-71400000D02*
X115250000Y-70250000D01*
X115250000Y-75750000D02*
X107950000Y-75750000D01*
%TO.C,D6*%
X92850000Y-95250000D02*
X100150000Y-95250000D01*
X92850000Y-99600000D02*
X92850000Y-100750000D01*
X92850000Y-100750000D02*
X100150000Y-100750000D01*
%TO.C,C17*%
X94476248Y-64765000D02*
X94998752Y-64765000D01*
X94476248Y-66235000D02*
X94998752Y-66235000D01*
%TO.C,JP1*%
X98900000Y-87650000D02*
X98900000Y-86250000D01*
X99600000Y-85550000D02*
X100200000Y-85550000D01*
X100200000Y-88350000D02*
X99600000Y-88350000D01*
X100900000Y-86250000D02*
X100900000Y-87650000D01*
X98900000Y-86250000D02*
G75*
G02*
X99600000Y-85550000I700000J0D01*
G01*
X99600000Y-88350000D02*
G75*
G02*
X98900000Y-87650000I-1J699999D01*
G01*
X100200000Y-85550000D02*
G75*
G02*
X100900000Y-86250000I0J-700000D01*
G01*
X100900000Y-87650000D02*
G75*
G02*
X100200000Y-88350000I-699999J-1D01*
G01*
%TO.C,C3*%
X114465000Y-94461252D02*
X114465000Y-93938748D01*
X115935000Y-94461252D02*
X115935000Y-93938748D01*
%TO.C,C10*%
X104961252Y-85965000D02*
X104438748Y-85965000D01*
X104961252Y-87435000D02*
X104438748Y-87435000D01*
%TO.C,C8*%
X98265000Y-82861252D02*
X98265000Y-82338748D01*
X99735000Y-82861252D02*
X99735000Y-82338748D01*
%TO.C,R13*%
X117065000Y-93027064D02*
X117065000Y-92572936D01*
X118535000Y-93027064D02*
X118535000Y-92572936D01*
%TO.C,C9*%
X100665000Y-83661252D02*
X100665000Y-83138748D01*
X102135000Y-83661252D02*
X102135000Y-83138748D01*
%TO.C,BLK*%
X118450000Y-76050000D02*
X120350000Y-76050000D01*
X118450000Y-77950000D02*
X118450000Y-76050000D01*
X120350000Y-76050000D02*
X120350000Y-77950000D01*
X120350000Y-77950000D02*
X118450000Y-77950000D01*
%TO.C,J1*%
X125270000Y-71920000D02*
X127930000Y-71920000D01*
X125270000Y-84680000D02*
X125270000Y-71920000D01*
X125270000Y-84680000D02*
X127930000Y-84680000D01*
X126600000Y-69320000D02*
X127930000Y-69320000D01*
X127930000Y-69320000D02*
X127930000Y-70650000D01*
X127930000Y-84680000D02*
X127930000Y-71920000D01*
%TO.C,Q1*%
X117812500Y-82790000D02*
X118462500Y-82790000D01*
X117812500Y-85910000D02*
X118462500Y-85910000D01*
X119112500Y-82790000D02*
X118462500Y-82790000D01*
X119112500Y-85910000D02*
X118462500Y-85910000D01*
X119625000Y-82840000D02*
X119385000Y-82510000D01*
X119865000Y-82510000D01*
X119625000Y-82840000D01*
G36*
X119625000Y-82840000D02*
G01*
X119385000Y-82510000D01*
X119865000Y-82510000D01*
X119625000Y-82840000D01*
G37*
%TO.C,R14*%
X103672936Y-76565000D02*
X104127064Y-76565000D01*
X103672936Y-78035000D02*
X104127064Y-78035000D01*
%TO.C,LED*%
X106250000Y-64650000D02*
X108150000Y-64650000D01*
X106250000Y-66550000D02*
X106250000Y-64650000D01*
X108150000Y-64650000D02*
X108150000Y-66550000D01*
X108150000Y-66550000D02*
X106250000Y-66550000D01*
D13*
%TO.C,TP3*%
X113536552Y-62408869D02*
X113653570Y-62473166D01*
X113743438Y-62541711D01*
X113618947Y-62625548D01*
X113593650Y-62643331D01*
X113480774Y-62737490D01*
X113368655Y-62851063D01*
X113271468Y-62968714D01*
X113203390Y-63075108D01*
X113203000Y-63075872D01*
X113168311Y-63135337D01*
X113139921Y-63156044D01*
X113106107Y-63146606D01*
X113064587Y-63112681D01*
X113010969Y-63042551D01*
X112969097Y-62962542D01*
X112952200Y-62894336D01*
X112954792Y-62859501D01*
X112990535Y-62746981D01*
X113061793Y-62629985D01*
X113160288Y-62520323D01*
X113277743Y-62429806D01*
X113306196Y-62414434D01*
X113417604Y-62388927D01*
X113536552Y-62408869D01*
G36*
X113536552Y-62408869D02*
G01*
X113653570Y-62473166D01*
X113743438Y-62541711D01*
X113618947Y-62625548D01*
X113593650Y-62643331D01*
X113480774Y-62737490D01*
X113368655Y-62851063D01*
X113271468Y-62968714D01*
X113203390Y-63075108D01*
X113203000Y-63075872D01*
X113168311Y-63135337D01*
X113139921Y-63156044D01*
X113106107Y-63146606D01*
X113064587Y-63112681D01*
X113010969Y-63042551D01*
X112969097Y-62962542D01*
X112952200Y-62894336D01*
X112954792Y-62859501D01*
X112990535Y-62746981D01*
X113061793Y-62629985D01*
X113160288Y-62520323D01*
X113277743Y-62429806D01*
X113306196Y-62414434D01*
X113417604Y-62388927D01*
X113536552Y-62408869D01*
G37*
X114859820Y-67603399D02*
X114936759Y-67677612D01*
X115089785Y-67783155D01*
X115250900Y-67846366D01*
X115252776Y-67846929D01*
X115239559Y-67851076D01*
X115181199Y-67854881D01*
X115082698Y-67858236D01*
X114949056Y-67861033D01*
X114785275Y-67863165D01*
X114596356Y-67864523D01*
X114387300Y-67865000D01*
X114358956Y-67864991D01*
X114152253Y-67864393D01*
X113966341Y-67862927D01*
X113806222Y-67860702D01*
X113676897Y-67857826D01*
X113583368Y-67854406D01*
X113530635Y-67850550D01*
X113523700Y-67846366D01*
X113613775Y-67816818D01*
X113772009Y-67728985D01*
X113914781Y-67603399D01*
X114024178Y-67484717D01*
X114750423Y-67484717D01*
X114859820Y-67603399D01*
G36*
X114859820Y-67603399D02*
G01*
X114936759Y-67677612D01*
X115089785Y-67783155D01*
X115250900Y-67846366D01*
X115252776Y-67846929D01*
X115239559Y-67851076D01*
X115181199Y-67854881D01*
X115082698Y-67858236D01*
X114949056Y-67861033D01*
X114785275Y-67863165D01*
X114596356Y-67864523D01*
X114387300Y-67865000D01*
X114358956Y-67864991D01*
X114152253Y-67864393D01*
X113966341Y-67862927D01*
X113806222Y-67860702D01*
X113676897Y-67857826D01*
X113583368Y-67854406D01*
X113530635Y-67850550D01*
X113523700Y-67846366D01*
X113613775Y-67816818D01*
X113772009Y-67728985D01*
X113914781Y-67603399D01*
X114024178Y-67484717D01*
X114750423Y-67484717D01*
X114859820Y-67603399D01*
G37*
X115500754Y-62432037D02*
X115610848Y-62516213D01*
X115706771Y-62622664D01*
X115776744Y-62737507D01*
X115814379Y-62850159D01*
X115813292Y-62950034D01*
X115809111Y-62962989D01*
X115774691Y-63026545D01*
X115723570Y-63092035D01*
X115704483Y-63111959D01*
X115659735Y-63154321D01*
X115634926Y-63171200D01*
X115629496Y-63167952D01*
X115604295Y-63133863D01*
X115570963Y-63074623D01*
X115557784Y-63050509D01*
X115481530Y-62940373D01*
X115379656Y-62822633D01*
X115266313Y-62712591D01*
X115155654Y-62625548D01*
X115031163Y-62541711D01*
X115121031Y-62473166D01*
X115151137Y-62451947D01*
X115270877Y-62398722D01*
X115390083Y-62391796D01*
X115500754Y-62432037D01*
G36*
X115500754Y-62432037D02*
G01*
X115610848Y-62516213D01*
X115706771Y-62622664D01*
X115776744Y-62737507D01*
X115814379Y-62850159D01*
X115813292Y-62950034D01*
X115809111Y-62962989D01*
X115774691Y-63026545D01*
X115723570Y-63092035D01*
X115704483Y-63111959D01*
X115659735Y-63154321D01*
X115634926Y-63171200D01*
X115629496Y-63167952D01*
X115604295Y-63133863D01*
X115570963Y-63074623D01*
X115557784Y-63050509D01*
X115481530Y-62940373D01*
X115379656Y-62822633D01*
X115266313Y-62712591D01*
X115155654Y-62625548D01*
X115031163Y-62541711D01*
X115121031Y-62473166D01*
X115151137Y-62451947D01*
X115270877Y-62398722D01*
X115390083Y-62391796D01*
X115500754Y-62432037D01*
G37*
X113410181Y-66184181D02*
X113557239Y-66251720D01*
X113692457Y-66363097D01*
X113715456Y-66388333D01*
X113820841Y-66540237D01*
X113889869Y-66707368D01*
X113923260Y-66881836D01*
X113921731Y-67055754D01*
X113886003Y-67221232D01*
X113816794Y-67370382D01*
X113714823Y-67495316D01*
X113580809Y-67588146D01*
X113560334Y-67597730D01*
X113413868Y-67637211D01*
X113265903Y-67631705D01*
X113122371Y-67585702D01*
X112989206Y-67503693D01*
X112872339Y-67390168D01*
X112777703Y-67249619D01*
X112711231Y-67086535D01*
X112678856Y-66905409D01*
X112677648Y-66886533D01*
X112682251Y-66715767D01*
X112720553Y-66565935D01*
X112797204Y-66417885D01*
X112852767Y-66343281D01*
X112972575Y-66240031D01*
X113110387Y-66178793D01*
X113258743Y-66160024D01*
X113410181Y-66184181D01*
G36*
X113410181Y-66184181D02*
G01*
X113557239Y-66251720D01*
X113692457Y-66363097D01*
X113715456Y-66388333D01*
X113820841Y-66540237D01*
X113889869Y-66707368D01*
X113923260Y-66881836D01*
X113921731Y-67055754D01*
X113886003Y-67221232D01*
X113816794Y-67370382D01*
X113714823Y-67495316D01*
X113580809Y-67588146D01*
X113560334Y-67597730D01*
X113413868Y-67637211D01*
X113265903Y-67631705D01*
X113122371Y-67585702D01*
X112989206Y-67503693D01*
X112872339Y-67390168D01*
X112777703Y-67249619D01*
X112711231Y-67086535D01*
X112678856Y-66905409D01*
X112677648Y-66886533D01*
X112682251Y-66715767D01*
X112720553Y-66565935D01*
X112797204Y-66417885D01*
X112852767Y-66343281D01*
X112972575Y-66240031D01*
X113110387Y-66178793D01*
X113258743Y-66160024D01*
X113410181Y-66184181D01*
G37*
X115620561Y-66168612D02*
X115754052Y-66214837D01*
X115873337Y-66295711D01*
X115972783Y-66408220D01*
X116046756Y-66549349D01*
X116089621Y-66716083D01*
X116095745Y-66905409D01*
X116085496Y-66990959D01*
X116031218Y-67179370D01*
X115938452Y-67345754D01*
X115812160Y-67482461D01*
X115657300Y-67581837D01*
X115613008Y-67600087D01*
X115511040Y-67629634D01*
X115421535Y-67641351D01*
X115382062Y-67640063D01*
X115233089Y-67607663D01*
X115105907Y-67536575D01*
X115002259Y-67433365D01*
X114923889Y-67304601D01*
X114872540Y-67156849D01*
X114849957Y-66996675D01*
X114857882Y-66830646D01*
X114898059Y-66665329D01*
X114972232Y-66507291D01*
X115082144Y-66363097D01*
X115191201Y-66267973D01*
X115333502Y-66192165D01*
X115478500Y-66160050D01*
X115620561Y-66168612D01*
G36*
X115620561Y-66168612D02*
G01*
X115754052Y-66214837D01*
X115873337Y-66295711D01*
X115972783Y-66408220D01*
X116046756Y-66549349D01*
X116089621Y-66716083D01*
X116095745Y-66905409D01*
X116085496Y-66990959D01*
X116031218Y-67179370D01*
X115938452Y-67345754D01*
X115812160Y-67482461D01*
X115657300Y-67581837D01*
X115613008Y-67600087D01*
X115511040Y-67629634D01*
X115421535Y-67641351D01*
X115382062Y-67640063D01*
X115233089Y-67607663D01*
X115105907Y-67536575D01*
X115002259Y-67433365D01*
X114923889Y-67304601D01*
X114872540Y-67156849D01*
X114849957Y-66996675D01*
X114857882Y-66830646D01*
X114898059Y-66665329D01*
X114972232Y-66507291D01*
X115082144Y-66363097D01*
X115191201Y-66267973D01*
X115333502Y-66192165D01*
X115478500Y-66160050D01*
X115620561Y-66168612D01*
G37*
X114757808Y-62158731D02*
X114918424Y-62159785D01*
X115039075Y-62161721D01*
X115123806Y-62164700D01*
X115176659Y-62168883D01*
X115201682Y-62174431D01*
X115202917Y-62181505D01*
X115184410Y-62190266D01*
X115168477Y-62196144D01*
X115044004Y-62254860D01*
X114939722Y-62325785D01*
X114870638Y-62398939D01*
X114831469Y-62441948D01*
X114785460Y-62447443D01*
X114735508Y-62431203D01*
X114601747Y-62405422D01*
X114446977Y-62392601D01*
X114288649Y-62393033D01*
X114144214Y-62407008D01*
X114031123Y-62434819D01*
X114015898Y-62440309D01*
X113972799Y-62446943D01*
X113934079Y-62427792D01*
X113881851Y-62375779D01*
X113851296Y-62344991D01*
X113717065Y-62246770D01*
X113561965Y-62178932D01*
X113569085Y-62174746D01*
X113620951Y-62170531D01*
X113713566Y-62166746D01*
X113841720Y-62163522D01*
X114000202Y-62160986D01*
X114183799Y-62159268D01*
X114387300Y-62158498D01*
X114553181Y-62158396D01*
X114757808Y-62158731D01*
G36*
X114757808Y-62158731D02*
G01*
X114918424Y-62159785D01*
X115039075Y-62161721D01*
X115123806Y-62164700D01*
X115176659Y-62168883D01*
X115201682Y-62174431D01*
X115202917Y-62181505D01*
X115184410Y-62190266D01*
X115168477Y-62196144D01*
X115044004Y-62254860D01*
X114939722Y-62325785D01*
X114870638Y-62398939D01*
X114831469Y-62441948D01*
X114785460Y-62447443D01*
X114735508Y-62431203D01*
X114601747Y-62405422D01*
X114446977Y-62392601D01*
X114288649Y-62393033D01*
X114144214Y-62407008D01*
X114031123Y-62434819D01*
X114015898Y-62440309D01*
X113972799Y-62446943D01*
X113934079Y-62427792D01*
X113881851Y-62375779D01*
X113851296Y-62344991D01*
X113717065Y-62246770D01*
X113561965Y-62178932D01*
X113569085Y-62174746D01*
X113620951Y-62170531D01*
X113713566Y-62166746D01*
X113841720Y-62163522D01*
X114000202Y-62160986D01*
X114183799Y-62159268D01*
X114387300Y-62158498D01*
X114553181Y-62158396D01*
X114757808Y-62158731D01*
G37*
X114594326Y-65627585D02*
X114725087Y-65697506D01*
X114836139Y-65803422D01*
X114919413Y-65945334D01*
X114943951Y-66012307D01*
X114954905Y-66094141D01*
X114931407Y-66168695D01*
X114870451Y-66254968D01*
X114829681Y-66310155D01*
X114766115Y-66411632D01*
X114712754Y-66513243D01*
X114688811Y-66567802D01*
X114664964Y-66637153D01*
X114651036Y-66710256D01*
X114644380Y-66802782D01*
X114642353Y-66930400D01*
X114642931Y-67010562D01*
X114646683Y-67119381D01*
X114653170Y-67204642D01*
X114661580Y-67252729D01*
X114666009Y-67265737D01*
X114667281Y-67294917D01*
X114639844Y-67309958D01*
X114572680Y-67319086D01*
X114554397Y-67320452D01*
X114481012Y-67322193D01*
X114388004Y-67321111D01*
X114289458Y-67317776D01*
X114199458Y-67312760D01*
X114132090Y-67306635D01*
X114101436Y-67299971D01*
X114100919Y-67298940D01*
X114106027Y-67268837D01*
X114123455Y-67212529D01*
X114124802Y-67208428D01*
X114137391Y-67134903D01*
X114142835Y-67026426D01*
X114140371Y-66897261D01*
X114134832Y-66821286D01*
X114095843Y-66611259D01*
X114020357Y-66426318D01*
X113904150Y-66254968D01*
X113859688Y-66195945D01*
X113823708Y-66119518D01*
X113823210Y-66042314D01*
X113855188Y-65945334D01*
X113927315Y-65817916D01*
X114035582Y-65707859D01*
X114164486Y-65633797D01*
X114305957Y-65595731D01*
X114451927Y-65593660D01*
X114594326Y-65627585D01*
G36*
X114594326Y-65627585D02*
G01*
X114725087Y-65697506D01*
X114836139Y-65803422D01*
X114919413Y-65945334D01*
X114943951Y-66012307D01*
X114954905Y-66094141D01*
X114931407Y-66168695D01*
X114870451Y-66254968D01*
X114829681Y-66310155D01*
X114766115Y-66411632D01*
X114712754Y-66513243D01*
X114688811Y-66567802D01*
X114664964Y-66637153D01*
X114651036Y-66710256D01*
X114644380Y-66802782D01*
X114642353Y-66930400D01*
X114642931Y-67010562D01*
X114646683Y-67119381D01*
X114653170Y-67204642D01*
X114661580Y-67252729D01*
X114666009Y-67265737D01*
X114667281Y-67294917D01*
X114639844Y-67309958D01*
X114572680Y-67319086D01*
X114554397Y-67320452D01*
X114481012Y-67322193D01*
X114388004Y-67321111D01*
X114289458Y-67317776D01*
X114199458Y-67312760D01*
X114132090Y-67306635D01*
X114101436Y-67299971D01*
X114100919Y-67298940D01*
X114106027Y-67268837D01*
X114123455Y-67212529D01*
X114124802Y-67208428D01*
X114137391Y-67134903D01*
X114142835Y-67026426D01*
X114140371Y-66897261D01*
X114134832Y-66821286D01*
X114095843Y-66611259D01*
X114020357Y-66426318D01*
X113904150Y-66254968D01*
X113859688Y-66195945D01*
X113823708Y-66119518D01*
X113823210Y-66042314D01*
X113855188Y-65945334D01*
X113927315Y-65817916D01*
X114035582Y-65707859D01*
X114164486Y-65633797D01*
X114305957Y-65595731D01*
X114451927Y-65593660D01*
X114594326Y-65627585D01*
G37*
X115023116Y-63976411D02*
X115065264Y-64145092D01*
X115066467Y-64314649D01*
X115024365Y-64473515D01*
X114987995Y-64544612D01*
X114879002Y-64685139D01*
X114738225Y-64799363D01*
X114577965Y-64876188D01*
X114528256Y-64886955D01*
X114418214Y-64892144D01*
X114293266Y-64882691D01*
X114173941Y-64860593D01*
X114080768Y-64827845D01*
X114033426Y-64799936D01*
X113920653Y-64707327D01*
X113820408Y-64592251D01*
X113750236Y-64473515D01*
X113718761Y-64376274D01*
X113703954Y-64209381D01*
X113730980Y-64039014D01*
X113741023Y-64014506D01*
X114048679Y-64014506D01*
X114070584Y-64091121D01*
X114109848Y-64170322D01*
X114194207Y-64256221D01*
X114259891Y-64290376D01*
X114387300Y-64314200D01*
X114422306Y-64312551D01*
X114543899Y-64277656D01*
X114640596Y-64201878D01*
X114704017Y-64091121D01*
X114725853Y-64014905D01*
X114725922Y-63953493D01*
X114704017Y-63876878D01*
X114694706Y-63852899D01*
X114628357Y-63752810D01*
X114537140Y-63687225D01*
X114431413Y-63656146D01*
X114321536Y-63659571D01*
X114217866Y-63697502D01*
X114130763Y-63769937D01*
X114070584Y-63876878D01*
X114048748Y-63953094D01*
X114048679Y-64014506D01*
X113741023Y-64014506D01*
X113797478Y-63876739D01*
X113901089Y-63734124D01*
X113985912Y-63654995D01*
X114097172Y-63587445D01*
X114226107Y-63551177D01*
X114387300Y-63540379D01*
X114517583Y-63546965D01*
X114652125Y-63577362D01*
X114765907Y-63637811D01*
X114873512Y-63734124D01*
X114942383Y-63820173D01*
X115011274Y-63953493D01*
X115023116Y-63976411D01*
G36*
X115023116Y-63976411D02*
G01*
X115065264Y-64145092D01*
X115066467Y-64314649D01*
X115024365Y-64473515D01*
X114987995Y-64544612D01*
X114879002Y-64685139D01*
X114738225Y-64799363D01*
X114577965Y-64876188D01*
X114528256Y-64886955D01*
X114418214Y-64892144D01*
X114293266Y-64882691D01*
X114173941Y-64860593D01*
X114080768Y-64827845D01*
X114033426Y-64799936D01*
X113920653Y-64707327D01*
X113820408Y-64592251D01*
X113750236Y-64473515D01*
X113718761Y-64376274D01*
X113703954Y-64209381D01*
X113730980Y-64039014D01*
X113741023Y-64014506D01*
X114048679Y-64014506D01*
X114070584Y-64091121D01*
X114109848Y-64170322D01*
X114194207Y-64256221D01*
X114259891Y-64290376D01*
X114387300Y-64314200D01*
X114422306Y-64312551D01*
X114543899Y-64277656D01*
X114640596Y-64201878D01*
X114704017Y-64091121D01*
X114725853Y-64014905D01*
X114725922Y-63953493D01*
X114704017Y-63876878D01*
X114694706Y-63852899D01*
X114628357Y-63752810D01*
X114537140Y-63687225D01*
X114431413Y-63656146D01*
X114321536Y-63659571D01*
X114217866Y-63697502D01*
X114130763Y-63769937D01*
X114070584Y-63876878D01*
X114048748Y-63953094D01*
X114048679Y-64014506D01*
X113741023Y-64014506D01*
X113797478Y-63876739D01*
X113901089Y-63734124D01*
X113985912Y-63654995D01*
X114097172Y-63587445D01*
X114226107Y-63551177D01*
X114387300Y-63540379D01*
X114517583Y-63546965D01*
X114652125Y-63577362D01*
X114765907Y-63637811D01*
X114873512Y-63734124D01*
X114942383Y-63820173D01*
X115011274Y-63953493D01*
X115023116Y-63976411D01*
G37*
X114664297Y-62650488D02*
X114874071Y-62727763D01*
X115065909Y-62843777D01*
X115233363Y-62994814D01*
X115369981Y-63177160D01*
X115469315Y-63387100D01*
X115510319Y-63548718D01*
X115525538Y-63763182D01*
X115503177Y-63980882D01*
X115444912Y-64187742D01*
X115352417Y-64369682D01*
X115332608Y-64399183D01*
X115298478Y-64447504D01*
X115282290Y-64466571D01*
X115280450Y-64454068D01*
X115278256Y-64400442D01*
X115276715Y-64314285D01*
X115276079Y-64206221D01*
X115275624Y-64134227D01*
X115271746Y-64029443D01*
X115261978Y-63953589D01*
X115244014Y-63892397D01*
X115215549Y-63831600D01*
X115131983Y-63693284D01*
X115027673Y-63564572D01*
X114921727Y-63476634D01*
X114835788Y-63423521D01*
X114897294Y-63362015D01*
X114899764Y-63359502D01*
X114941543Y-63301453D01*
X114958800Y-63247400D01*
X114946272Y-63202176D01*
X114902818Y-63140302D01*
X114844331Y-63090220D01*
X114787807Y-63069600D01*
X114709672Y-63091082D01*
X114651169Y-63149101D01*
X114628600Y-63229790D01*
X114628600Y-63310900D01*
X114146000Y-63310900D01*
X114146000Y-63229790D01*
X114124650Y-63151172D01*
X114066988Y-63092307D01*
X113986794Y-63069600D01*
X113943302Y-63082626D01*
X113883797Y-63127811D01*
X113835632Y-63188625D01*
X113815800Y-63247400D01*
X113815850Y-63249582D01*
X113834693Y-63304500D01*
X113877307Y-63362015D01*
X113938813Y-63423521D01*
X113852874Y-63476634D01*
X113760362Y-63551038D01*
X113655406Y-63675140D01*
X113559052Y-63831600D01*
X113543420Y-63862727D01*
X113520365Y-63922305D01*
X113506756Y-63989458D01*
X113500255Y-64078574D01*
X113498522Y-64204042D01*
X113496992Y-64317283D01*
X113490230Y-64400417D01*
X113475624Y-64434473D01*
X113450569Y-64420322D01*
X113412460Y-64358837D01*
X113358692Y-64250891D01*
X113333088Y-64193320D01*
X113266854Y-63971746D01*
X113247040Y-63748854D01*
X113270761Y-63530413D01*
X113335134Y-63322192D01*
X113437274Y-63129959D01*
X113574297Y-62959485D01*
X113743319Y-62816539D01*
X113941457Y-62706889D01*
X114165826Y-62636304D01*
X114216743Y-62627015D01*
X114443038Y-62615667D01*
X114664297Y-62650488D01*
G36*
X114664297Y-62650488D02*
G01*
X114874071Y-62727763D01*
X115065909Y-62843777D01*
X115233363Y-62994814D01*
X115369981Y-63177160D01*
X115469315Y-63387100D01*
X115510319Y-63548718D01*
X115525538Y-63763182D01*
X115503177Y-63980882D01*
X115444912Y-64187742D01*
X115352417Y-64369682D01*
X115332608Y-64399183D01*
X115298478Y-64447504D01*
X115282290Y-64466571D01*
X115280450Y-64454068D01*
X115278256Y-64400442D01*
X115276715Y-64314285D01*
X115276079Y-64206221D01*
X115275624Y-64134227D01*
X115271746Y-64029443D01*
X115261978Y-63953589D01*
X115244014Y-63892397D01*
X115215549Y-63831600D01*
X115131983Y-63693284D01*
X115027673Y-63564572D01*
X114921727Y-63476634D01*
X114835788Y-63423521D01*
X114897294Y-63362015D01*
X114899764Y-63359502D01*
X114941543Y-63301453D01*
X114958800Y-63247400D01*
X114946272Y-63202176D01*
X114902818Y-63140302D01*
X114844331Y-63090220D01*
X114787807Y-63069600D01*
X114709672Y-63091082D01*
X114651169Y-63149101D01*
X114628600Y-63229790D01*
X114628600Y-63310900D01*
X114146000Y-63310900D01*
X114146000Y-63229790D01*
X114124650Y-63151172D01*
X114066988Y-63092307D01*
X113986794Y-63069600D01*
X113943302Y-63082626D01*
X113883797Y-63127811D01*
X113835632Y-63188625D01*
X113815800Y-63247400D01*
X113815850Y-63249582D01*
X113834693Y-63304500D01*
X113877307Y-63362015D01*
X113938813Y-63423521D01*
X113852874Y-63476634D01*
X113760362Y-63551038D01*
X113655406Y-63675140D01*
X113559052Y-63831600D01*
X113543420Y-63862727D01*
X113520365Y-63922305D01*
X113506756Y-63989458D01*
X113500255Y-64078574D01*
X113498522Y-64204042D01*
X113496992Y-64317283D01*
X113490230Y-64400417D01*
X113475624Y-64434473D01*
X113450569Y-64420322D01*
X113412460Y-64358837D01*
X113358692Y-64250891D01*
X113333088Y-64193320D01*
X113266854Y-63971746D01*
X113247040Y-63748854D01*
X113270761Y-63530413D01*
X113335134Y-63322192D01*
X113437274Y-63129959D01*
X113574297Y-62959485D01*
X113743319Y-62816539D01*
X113941457Y-62706889D01*
X114165826Y-62636304D01*
X114216743Y-62627015D01*
X114443038Y-62615667D01*
X114664297Y-62650488D01*
G37*
X113345900Y-62155696D02*
X113211989Y-62218039D01*
X113127229Y-62265870D01*
X113003740Y-62364667D01*
X112893451Y-62485489D01*
X112804544Y-62617400D01*
X112745200Y-62749467D01*
X112723600Y-62870755D01*
X112740109Y-62985154D01*
X112804715Y-63126605D01*
X112916309Y-63264825D01*
X113047239Y-63396551D01*
X113034805Y-63683925D01*
X113030442Y-63811638D01*
X113031353Y-63911064D01*
X113039519Y-63990864D01*
X113056607Y-64066913D01*
X113084285Y-64155083D01*
X113146199Y-64338867D01*
X112510368Y-64675618D01*
X112507520Y-64677126D01*
X112335135Y-64769866D01*
X112174300Y-64859035D01*
X112031742Y-64940703D01*
X111914189Y-65010944D01*
X111828369Y-65065831D01*
X111781008Y-65101434D01*
X111775395Y-65106865D01*
X111690255Y-65221482D01*
X111647904Y-65348019D01*
X111644930Y-65478096D01*
X111677921Y-65603330D01*
X111743466Y-65715342D01*
X111838151Y-65805750D01*
X111958567Y-65866174D01*
X112101300Y-65888231D01*
X112140037Y-65886365D01*
X112215540Y-65873558D01*
X112311095Y-65846387D01*
X112435262Y-65802265D01*
X112596600Y-65738608D01*
X112672927Y-65707807D01*
X112789688Y-65661640D01*
X112883948Y-65625577D01*
X112947553Y-65602708D01*
X112972351Y-65596125D01*
X112973079Y-65598493D01*
X112972196Y-65635617D01*
X112965897Y-65707399D01*
X112955233Y-65801226D01*
X112949633Y-65843607D01*
X112932283Y-65938811D01*
X112911496Y-65995745D01*
X112884283Y-66023780D01*
X112883136Y-66024407D01*
X112841503Y-66055655D01*
X112778698Y-66111636D01*
X112707853Y-66180671D01*
X112698268Y-66190569D01*
X112575831Y-66353142D01*
X112495118Y-66534416D01*
X112454345Y-66727520D01*
X112451725Y-66925584D01*
X112485474Y-67121736D01*
X112553806Y-67309106D01*
X112654937Y-67480824D01*
X112787080Y-67630017D01*
X112948452Y-67749816D01*
X113137266Y-67833350D01*
X113157308Y-67840538D01*
X113166895Y-67848221D01*
X113154455Y-67854323D01*
X113115876Y-67859035D01*
X113047049Y-67862551D01*
X112943863Y-67865062D01*
X112802208Y-67866763D01*
X112617974Y-67867845D01*
X112387050Y-67868500D01*
X111529800Y-67870200D01*
X111529800Y-62155200D01*
X113345900Y-62155696D01*
G36*
X113345900Y-62155696D02*
G01*
X113211989Y-62218039D01*
X113127229Y-62265870D01*
X113003740Y-62364667D01*
X112893451Y-62485489D01*
X112804544Y-62617400D01*
X112745200Y-62749467D01*
X112723600Y-62870755D01*
X112740109Y-62985154D01*
X112804715Y-63126605D01*
X112916309Y-63264825D01*
X113047239Y-63396551D01*
X113034805Y-63683925D01*
X113030442Y-63811638D01*
X113031353Y-63911064D01*
X113039519Y-63990864D01*
X113056607Y-64066913D01*
X113084285Y-64155083D01*
X113146199Y-64338867D01*
X112510368Y-64675618D01*
X112507520Y-64677126D01*
X112335135Y-64769866D01*
X112174300Y-64859035D01*
X112031742Y-64940703D01*
X111914189Y-65010944D01*
X111828369Y-65065831D01*
X111781008Y-65101434D01*
X111775395Y-65106865D01*
X111690255Y-65221482D01*
X111647904Y-65348019D01*
X111644930Y-65478096D01*
X111677921Y-65603330D01*
X111743466Y-65715342D01*
X111838151Y-65805750D01*
X111958567Y-65866174D01*
X112101300Y-65888231D01*
X112140037Y-65886365D01*
X112215540Y-65873558D01*
X112311095Y-65846387D01*
X112435262Y-65802265D01*
X112596600Y-65738608D01*
X112672927Y-65707807D01*
X112789688Y-65661640D01*
X112883948Y-65625577D01*
X112947553Y-65602708D01*
X112972351Y-65596125D01*
X112973079Y-65598493D01*
X112972196Y-65635617D01*
X112965897Y-65707399D01*
X112955233Y-65801226D01*
X112949633Y-65843607D01*
X112932283Y-65938811D01*
X112911496Y-65995745D01*
X112884283Y-66023780D01*
X112883136Y-66024407D01*
X112841503Y-66055655D01*
X112778698Y-66111636D01*
X112707853Y-66180671D01*
X112698268Y-66190569D01*
X112575831Y-66353142D01*
X112495118Y-66534416D01*
X112454345Y-66727520D01*
X112451725Y-66925584D01*
X112485474Y-67121736D01*
X112553806Y-67309106D01*
X112654937Y-67480824D01*
X112787080Y-67630017D01*
X112948452Y-67749816D01*
X113137266Y-67833350D01*
X113157308Y-67840538D01*
X113166895Y-67848221D01*
X113154455Y-67854323D01*
X113115876Y-67859035D01*
X113047049Y-67862551D01*
X112943863Y-67865062D01*
X112802208Y-67866763D01*
X112617974Y-67867845D01*
X112387050Y-67868500D01*
X111529800Y-67870200D01*
X111529800Y-62155200D01*
X113345900Y-62155696D01*
G37*
X117244800Y-67870200D02*
X116387550Y-67868500D01*
X116203857Y-67868021D01*
X116009583Y-67867051D01*
X115858804Y-67865504D01*
X115747408Y-67863190D01*
X115671287Y-67859914D01*
X115626329Y-67855485D01*
X115608424Y-67849710D01*
X115613463Y-67842396D01*
X115637335Y-67833350D01*
X115768319Y-67781610D01*
X115949071Y-67666850D01*
X116099108Y-67513387D01*
X116214088Y-67325046D01*
X116275923Y-67163951D01*
X116319095Y-66947084D01*
X116318838Y-66733138D01*
X116276079Y-66529298D01*
X116191740Y-66342747D01*
X116066748Y-66180671D01*
X116063332Y-66177205D01*
X115992957Y-66108783D01*
X115931639Y-66054163D01*
X115892308Y-66024893D01*
X115886058Y-66020921D01*
X115860670Y-65984874D01*
X115840344Y-65914340D01*
X115822535Y-65801162D01*
X115819240Y-65774685D01*
X115809110Y-65685153D01*
X115803455Y-65621095D01*
X115803427Y-65594948D01*
X115812719Y-65596947D01*
X115861097Y-65613913D01*
X115943519Y-65645254D01*
X116051860Y-65687858D01*
X116178000Y-65738608D01*
X116278493Y-65778801D01*
X116416790Y-65830580D01*
X116522985Y-65864355D01*
X116605635Y-65882710D01*
X116673300Y-65888231D01*
X116681671Y-65888156D01*
X116823200Y-65863780D01*
X116942258Y-65801517D01*
X117035431Y-65709747D01*
X117099309Y-65596850D01*
X117130477Y-65471207D01*
X117125525Y-65341197D01*
X117081039Y-65215201D01*
X116993608Y-65101600D01*
X116955152Y-65071023D01*
X116872913Y-65016089D01*
X116762359Y-64948675D01*
X116633063Y-64874576D01*
X116494597Y-64799586D01*
X116403151Y-64751477D01*
X116247207Y-64669254D01*
X116095377Y-64589000D01*
X115961288Y-64517921D01*
X115858565Y-64463223D01*
X115628030Y-64339975D01*
X115690130Y-64155637D01*
X115716979Y-64070506D01*
X115734519Y-63994220D01*
X115743053Y-63914953D01*
X115744255Y-63816817D01*
X115739796Y-63683925D01*
X115727362Y-63396551D01*
X115858292Y-63264825D01*
X115952427Y-63152969D01*
X116026022Y-63011811D01*
X116051000Y-62870755D01*
X116041390Y-62792463D01*
X115993961Y-62662834D01*
X115914188Y-62529643D01*
X115810250Y-62403824D01*
X115690331Y-62296311D01*
X115562612Y-62218039D01*
X115428700Y-62155696D01*
X117244800Y-62155200D01*
X117244800Y-67870200D01*
G36*
X117244800Y-67870200D02*
G01*
X116387550Y-67868500D01*
X116203857Y-67868021D01*
X116009583Y-67867051D01*
X115858804Y-67865504D01*
X115747408Y-67863190D01*
X115671287Y-67859914D01*
X115626329Y-67855485D01*
X115608424Y-67849710D01*
X115613463Y-67842396D01*
X115637335Y-67833350D01*
X115768319Y-67781610D01*
X115949071Y-67666850D01*
X116099108Y-67513387D01*
X116214088Y-67325046D01*
X116275923Y-67163951D01*
X116319095Y-66947084D01*
X116318838Y-66733138D01*
X116276079Y-66529298D01*
X116191740Y-66342747D01*
X116066748Y-66180671D01*
X116063332Y-66177205D01*
X115992957Y-66108783D01*
X115931639Y-66054163D01*
X115892308Y-66024893D01*
X115886058Y-66020921D01*
X115860670Y-65984874D01*
X115840344Y-65914340D01*
X115822535Y-65801162D01*
X115819240Y-65774685D01*
X115809110Y-65685153D01*
X115803455Y-65621095D01*
X115803427Y-65594948D01*
X115812719Y-65596947D01*
X115861097Y-65613913D01*
X115943519Y-65645254D01*
X116051860Y-65687858D01*
X116178000Y-65738608D01*
X116278493Y-65778801D01*
X116416790Y-65830580D01*
X116522985Y-65864355D01*
X116605635Y-65882710D01*
X116673300Y-65888231D01*
X116681671Y-65888156D01*
X116823200Y-65863780D01*
X116942258Y-65801517D01*
X117035431Y-65709747D01*
X117099309Y-65596850D01*
X117130477Y-65471207D01*
X117125525Y-65341197D01*
X117081039Y-65215201D01*
X116993608Y-65101600D01*
X116955152Y-65071023D01*
X116872913Y-65016089D01*
X116762359Y-64948675D01*
X116633063Y-64874576D01*
X116494597Y-64799586D01*
X116403151Y-64751477D01*
X116247207Y-64669254D01*
X116095377Y-64589000D01*
X115961288Y-64517921D01*
X115858565Y-64463223D01*
X115628030Y-64339975D01*
X115690130Y-64155637D01*
X115716979Y-64070506D01*
X115734519Y-63994220D01*
X115743053Y-63914953D01*
X115744255Y-63816817D01*
X115739796Y-63683925D01*
X115727362Y-63396551D01*
X115858292Y-63264825D01*
X115952427Y-63152969D01*
X116026022Y-63011811D01*
X116051000Y-62870755D01*
X116041390Y-62792463D01*
X115993961Y-62662834D01*
X115914188Y-62529643D01*
X115810250Y-62403824D01*
X115690331Y-62296311D01*
X115562612Y-62218039D01*
X115428700Y-62155696D01*
X117244800Y-62155200D01*
X117244800Y-67870200D01*
G37*
X116136832Y-64861696D02*
X116304556Y-64950007D01*
X116486124Y-65048228D01*
X116629109Y-65130010D01*
X116737602Y-65198484D01*
X116815691Y-65256785D01*
X116867465Y-65308044D01*
X116897012Y-65355396D01*
X116908421Y-65401972D01*
X116905781Y-65450906D01*
X116905580Y-65452120D01*
X116878658Y-65532559D01*
X116834979Y-65600542D01*
X116834902Y-65600624D01*
X116792842Y-65635614D01*
X116742235Y-65655088D01*
X116676865Y-65657985D01*
X116590515Y-65643245D01*
X116476968Y-65609807D01*
X116330007Y-65556612D01*
X116143415Y-65482600D01*
X116008466Y-65428783D01*
X115878656Y-65379164D01*
X115770096Y-65339905D01*
X115691324Y-65314090D01*
X115650878Y-65304800D01*
X115645129Y-65304857D01*
X115606733Y-65310602D01*
X115580115Y-65330033D01*
X115564771Y-65369211D01*
X115560199Y-65434192D01*
X115565896Y-65531037D01*
X115581360Y-65665803D01*
X115606087Y-65844550D01*
X115619801Y-65939800D01*
X115486151Y-65941732D01*
X115442360Y-65943753D01*
X115343639Y-65956085D01*
X115264556Y-65975426D01*
X115176611Y-66007188D01*
X115134722Y-65883450D01*
X115054620Y-65719890D01*
X114936829Y-65581354D01*
X114790152Y-65473543D01*
X114622660Y-65399988D01*
X114442422Y-65364222D01*
X114257511Y-65369775D01*
X114075997Y-65420180D01*
X113982838Y-65469089D01*
X113858078Y-65564855D01*
X113749351Y-65681619D01*
X113667447Y-65807245D01*
X113623157Y-65929592D01*
X113607694Y-66012015D01*
X113505354Y-65975907D01*
X113493520Y-65971958D01*
X113394039Y-65949121D01*
X113296140Y-65939800D01*
X113270131Y-65939449D01*
X113207890Y-65935251D01*
X113177297Y-65927829D01*
X113175136Y-65911814D01*
X113177237Y-65853972D01*
X113184598Y-65764876D01*
X113196436Y-65655670D01*
X113198372Y-65639259D01*
X113211331Y-65501125D01*
X113211724Y-65405260D01*
X113198172Y-65345016D01*
X113169298Y-65313746D01*
X113123723Y-65304800D01*
X113086393Y-65313174D01*
X113009400Y-65338208D01*
X112902176Y-65376844D01*
X112773259Y-65426002D01*
X112631186Y-65482600D01*
X112630784Y-65482763D01*
X112444274Y-65556735D01*
X112297384Y-65609891D01*
X112183895Y-65643291D01*
X112097591Y-65657996D01*
X112032256Y-65655066D01*
X111981672Y-65635561D01*
X111939622Y-65600542D01*
X111938864Y-65599728D01*
X111895314Y-65531230D01*
X111868820Y-65450906D01*
X111865728Y-65415684D01*
X111872880Y-65368679D01*
X111897150Y-65321656D01*
X111942627Y-65271460D01*
X112013399Y-65214933D01*
X112113553Y-65148921D01*
X112247180Y-65070267D01*
X112418366Y-64975816D01*
X112631200Y-64862412D01*
X112635927Y-64859919D01*
X112795745Y-64775786D01*
X112940046Y-64700080D01*
X113062954Y-64635865D01*
X113158588Y-64586204D01*
X113221070Y-64554161D01*
X113244522Y-64542800D01*
X113252624Y-64548913D01*
X113290156Y-64583252D01*
X113350616Y-64641061D01*
X113425823Y-64714589D01*
X113545729Y-64824271D01*
X113699552Y-64934589D01*
X113864915Y-65015425D01*
X114059271Y-65076755D01*
X114173044Y-65102473D01*
X114351008Y-65123648D01*
X114524094Y-65115075D01*
X114715330Y-65076755D01*
X114868551Y-65030769D01*
X115038449Y-64955542D01*
X115192948Y-64853246D01*
X115349432Y-64713935D01*
X115524164Y-64541491D01*
X116136832Y-64861696D01*
G36*
X116136832Y-64861696D02*
G01*
X116304556Y-64950007D01*
X116486124Y-65048228D01*
X116629109Y-65130010D01*
X116737602Y-65198484D01*
X116815691Y-65256785D01*
X116867465Y-65308044D01*
X116897012Y-65355396D01*
X116908421Y-65401972D01*
X116905781Y-65450906D01*
X116905580Y-65452120D01*
X116878658Y-65532559D01*
X116834979Y-65600542D01*
X116834902Y-65600624D01*
X116792842Y-65635614D01*
X116742235Y-65655088D01*
X116676865Y-65657985D01*
X116590515Y-65643245D01*
X116476968Y-65609807D01*
X116330007Y-65556612D01*
X116143415Y-65482600D01*
X116008466Y-65428783D01*
X115878656Y-65379164D01*
X115770096Y-65339905D01*
X115691324Y-65314090D01*
X115650878Y-65304800D01*
X115645129Y-65304857D01*
X115606733Y-65310602D01*
X115580115Y-65330033D01*
X115564771Y-65369211D01*
X115560199Y-65434192D01*
X115565896Y-65531037D01*
X115581360Y-65665803D01*
X115606087Y-65844550D01*
X115619801Y-65939800D01*
X115486151Y-65941732D01*
X115442360Y-65943753D01*
X115343639Y-65956085D01*
X115264556Y-65975426D01*
X115176611Y-66007188D01*
X115134722Y-65883450D01*
X115054620Y-65719890D01*
X114936829Y-65581354D01*
X114790152Y-65473543D01*
X114622660Y-65399988D01*
X114442422Y-65364222D01*
X114257511Y-65369775D01*
X114075997Y-65420180D01*
X113982838Y-65469089D01*
X113858078Y-65564855D01*
X113749351Y-65681619D01*
X113667447Y-65807245D01*
X113623157Y-65929592D01*
X113607694Y-66012015D01*
X113505354Y-65975907D01*
X113493520Y-65971958D01*
X113394039Y-65949121D01*
X113296140Y-65939800D01*
X113270131Y-65939449D01*
X113207890Y-65935251D01*
X113177297Y-65927829D01*
X113175136Y-65911814D01*
X113177237Y-65853972D01*
X113184598Y-65764876D01*
X113196436Y-65655670D01*
X113198372Y-65639259D01*
X113211331Y-65501125D01*
X113211724Y-65405260D01*
X113198172Y-65345016D01*
X113169298Y-65313746D01*
X113123723Y-65304800D01*
X113086393Y-65313174D01*
X113009400Y-65338208D01*
X112902176Y-65376844D01*
X112773259Y-65426002D01*
X112631186Y-65482600D01*
X112630784Y-65482763D01*
X112444274Y-65556735D01*
X112297384Y-65609891D01*
X112183895Y-65643291D01*
X112097591Y-65657996D01*
X112032256Y-65655066D01*
X111981672Y-65635561D01*
X111939622Y-65600542D01*
X111938864Y-65599728D01*
X111895314Y-65531230D01*
X111868820Y-65450906D01*
X111865728Y-65415684D01*
X111872880Y-65368679D01*
X111897150Y-65321656D01*
X111942627Y-65271460D01*
X112013399Y-65214933D01*
X112113553Y-65148921D01*
X112247180Y-65070267D01*
X112418366Y-64975816D01*
X112631200Y-64862412D01*
X112635927Y-64859919D01*
X112795745Y-64775786D01*
X112940046Y-64700080D01*
X113062954Y-64635865D01*
X113158588Y-64586204D01*
X113221070Y-64554161D01*
X113244522Y-64542800D01*
X113252624Y-64548913D01*
X113290156Y-64583252D01*
X113350616Y-64641061D01*
X113425823Y-64714589D01*
X113545729Y-64824271D01*
X113699552Y-64934589D01*
X113864915Y-65015425D01*
X114059271Y-65076755D01*
X114173044Y-65102473D01*
X114351008Y-65123648D01*
X114524094Y-65115075D01*
X114715330Y-65076755D01*
X114868551Y-65030769D01*
X115038449Y-64955542D01*
X115192948Y-64853246D01*
X115349432Y-64713935D01*
X115524164Y-64541491D01*
X116136832Y-64861696D01*
G37*
D12*
%TO.C,SW2*%
X121560398Y-66941805D02*
X120670479Y-66295241D01*
X121610936Y-65000814D02*
X121563912Y-65065536D01*
X124246335Y-68893252D02*
X123356416Y-68246690D01*
X125186792Y-67598824D02*
X125139768Y-67663546D01*
%TO.C,GND*%
X99650000Y-76250000D02*
X101550000Y-76250000D01*
X99650000Y-78150000D02*
X99650000Y-76250000D01*
X101550000Y-76250000D02*
X101550000Y-78150000D01*
X101550000Y-78150000D02*
X99650000Y-78150000D01*
%TO.C,R2*%
X108265000Y-77827064D02*
X108265000Y-77372936D01*
X109735000Y-77827064D02*
X109735000Y-77372936D01*
D14*
%TO.C,U4*%
X115650000Y-87500000D02*
X115650000Y-89300000D01*
X117600000Y-89300000D02*
X116800000Y-89300000D01*
X118750000Y-87500000D02*
X118750000Y-89300000D01*
X115676000Y-86876000D02*
G75*
G02*
X115422000Y-86876000I-127000J0D01*
G01*
X115422000Y-86876000D02*
G75*
G02*
X115676000Y-86876000I127000J0D01*
G01*
D12*
%TO.C,C13*%
X106265000Y-71938748D02*
X106265000Y-72461252D01*
X107735000Y-71938748D02*
X107735000Y-72461252D01*
%TO.C,R11*%
X108572936Y-87565000D02*
X109027064Y-87565000D01*
X108572936Y-89035000D02*
X109027064Y-89035000D01*
%TO.C,D5*%
X100150000Y-58250000D02*
X92850000Y-58250000D01*
X100150000Y-59400000D02*
X100150000Y-58250000D01*
X100150000Y-63750000D02*
X92850000Y-63750000D01*
%TO.C,GND*%
X107850000Y-94050000D02*
X109750000Y-94050000D01*
X107850000Y-95950000D02*
X107850000Y-94050000D01*
X109750000Y-94050000D02*
X109750000Y-95950000D01*
X109750000Y-95950000D02*
X107850000Y-95950000D01*
%TO.C,U8*%
X104900000Y-80725000D02*
X104900000Y-80200000D01*
X104900000Y-84260000D02*
X104900000Y-84035000D01*
X105200000Y-84500000D02*
X105425000Y-84500000D01*
X105425000Y-80200000D02*
X104900000Y-80200000D01*
X108675000Y-80200000D02*
X109200000Y-80200000D01*
X108675000Y-84500000D02*
X109200000Y-84500000D01*
X109200000Y-80725000D02*
X109200000Y-80200000D01*
X109200000Y-83975000D02*
X109200000Y-84500000D01*
X105140000Y-84830000D02*
X104660000Y-84830000D01*
X104900000Y-84500000D01*
X105140000Y-84830000D01*
G36*
X105140000Y-84830000D02*
G01*
X104660000Y-84830000D01*
X104900000Y-84500000D01*
X105140000Y-84830000D01*
G37*
%TO.C,BAT*%
X107250000Y-89650000D02*
X109150000Y-89650000D01*
X107250000Y-91550000D02*
X107250000Y-89650000D01*
X109150000Y-89650000D02*
X109150000Y-91550000D01*
X109150000Y-91550000D02*
X107250000Y-91550000D01*
%TO.C,JP2*%
X119900000Y-90500000D02*
X119900000Y-89100000D01*
X120600000Y-88400000D02*
X121200000Y-88400000D01*
X121200000Y-91200000D02*
X120600000Y-91200000D01*
X121900000Y-89100000D02*
X121900000Y-90500000D01*
X119900000Y-89100000D02*
G75*
G02*
X120600000Y-88400000I700000J0D01*
G01*
X120600000Y-91200000D02*
G75*
G02*
X119900000Y-90500000I-1J699999D01*
G01*
X121200000Y-88400000D02*
G75*
G02*
X121900000Y-89100000I0J-700000D01*
G01*
X121900000Y-90500000D02*
G75*
G02*
X121200000Y-91200000I-699999J-1D01*
G01*
%TO.C,C5*%
X105061252Y-87965000D02*
X104538748Y-87965000D01*
X105061252Y-89435000D02*
X104538748Y-89435000D01*
%TO.C,R17*%
X112177500Y-84137258D02*
X112177500Y-83662742D01*
X113222500Y-84137258D02*
X113222500Y-83662742D01*
%TO.C,C12*%
X103665000Y-71776248D02*
X103665000Y-72298752D01*
X105135000Y-71776248D02*
X105135000Y-72298752D01*
%TO.C,RES*%
X101450000Y-78850000D02*
X103350000Y-78850000D01*
X101450000Y-80750000D02*
X101450000Y-78850000D01*
X103350000Y-78850000D02*
X103350000Y-80750000D01*
X103350000Y-80750000D02*
X101450000Y-80750000D01*
%TO.C,TP5*%
X120800000Y-87100000D02*
G75*
G02*
X119400000Y-87100000I-700000J0D01*
G01*
X119400000Y-87100000D02*
G75*
G02*
X120800000Y-87100000I700000J0D01*
G01*
%TO.C,D1*%
X124800000Y-70250000D02*
X117500000Y-70250000D01*
X124800000Y-71400000D02*
X124800000Y-70250000D01*
X124800000Y-75750000D02*
X117500000Y-75750000D01*
%TO.C,C15*%
X101838748Y-98765000D02*
X102361252Y-98765000D01*
X101838748Y-100235000D02*
X102361252Y-100235000D01*
%TO.C,BAT+*%
X98950000Y-72350000D02*
X100850000Y-72350000D01*
X98950000Y-74250000D02*
X98950000Y-72350000D01*
X100850000Y-72350000D02*
X100850000Y-74250000D01*
X100850000Y-74250000D02*
X98950000Y-74250000D01*
%TO.C,R10*%
X108672936Y-85465000D02*
X109127064Y-85465000D01*
X108672936Y-86935000D02*
X109127064Y-86935000D01*
%TO.C,R3*%
X106365000Y-76927064D02*
X106365000Y-76472936D01*
X107835000Y-76927064D02*
X107835000Y-76472936D01*
%TO.C,D3*%
X113460000Y-88735000D02*
X113460000Y-91420000D01*
X115380000Y-88735000D02*
X113460000Y-88735000D01*
X115380000Y-91420000D02*
X115380000Y-88735000D01*
%TO.C,D7*%
X128350000Y-95250000D02*
X135650000Y-95250000D01*
X128350000Y-99600000D02*
X128350000Y-100750000D01*
X128350000Y-100750000D02*
X135650000Y-100750000D01*
%TO.C,C14*%
X133361252Y-64065000D02*
X132838748Y-64065000D01*
X133361252Y-65535000D02*
X132838748Y-65535000D01*
%TO.C,R18*%
X120208079Y-80505956D02*
X119935907Y-80894658D01*
X121064093Y-81105342D02*
X120791921Y-81494044D01*
%TO.C,J2*%
X100463497Y-88874103D02*
X101403949Y-87933651D01*
X101361523Y-91653033D02*
X103242427Y-89772129D01*
X101403949Y-87933651D02*
X102344401Y-88874103D01*
X104996051Y-95287561D02*
X101361523Y-91653033D01*
X104996051Y-95287561D02*
X106876955Y-93406657D01*
X106876955Y-93406657D02*
X103242427Y-89772129D01*
%TO.C,U6*%
X112075000Y-77135000D02*
X114025000Y-77135000D01*
X112075000Y-82255000D02*
X114025000Y-82255000D01*
X115975000Y-77135000D02*
X114025000Y-77135000D01*
X115975000Y-82255000D02*
X114025000Y-82255000D01*
X116725000Y-77230000D02*
X116485000Y-76900000D01*
X116965000Y-76900000D01*
X116725000Y-77230000D01*
G36*
X116725000Y-77230000D02*
G01*
X116485000Y-76900000D01*
X116965000Y-76900000D01*
X116725000Y-77230000D01*
G37*
%TO.C,D4*%
X115400000Y-70550000D02*
X115400000Y-74560000D01*
X115400000Y-74560000D02*
X117400000Y-74560000D01*
X117400000Y-70550000D02*
X117400000Y-74560000D01*
%TD*%
M02*
