%TF.GenerationSoftware,KiCad,Pcbnew,8.0.1*%
%TF.CreationDate,2024-05-06T20:31:15+02:00*%
%TF.ProjectId,smartknob,736d6172-746b-46e6-9f62-2e6b69636164,rev?*%
%TF.SameCoordinates,Original*%
%TF.FileFunction,Drillmap*%
%TF.FilePolarity,Positive*%
%FSLAX45Y45*%
G04 Gerber Fmt 4.5, Leading zero omitted, Abs format (unit mm)*
G04 Created by KiCad (PCBNEW 8.0.1) date 2024-05-06 20:31:15*
%MOMM*%
%LPD*%
G01*
G04 APERTURE LIST*
%ADD10C,0.050000*%
%ADD11C,0.200000*%
%ADD12C,0.100000*%
G04 APERTURE END LIST*
D10*
X11000000Y-9980000D02*
G75*
G02*
X10176840Y-6325762I402500J2010500D01*
G01*
X13232127Y-7731027D02*
G75*
G02*
X12270000Y-9600000I-1832128J-238973D01*
G01*
D11*
X13232128Y-7731027D02*
X13437570Y-7700321D01*
D10*
X11018243Y-9788368D02*
G75*
G02*
X10290000Y-6480000I381757J1818368D01*
G01*
D11*
X11018243Y-9788368D02*
X11000000Y-9980000D01*
D10*
X10860000Y-6200000D02*
G75*
G02*
X13070780Y-7174390I540000J-1770000D01*
G01*
X10860000Y-6200000D02*
X10800000Y-6010000D01*
X10800000Y-6010000D02*
G75*
G02*
X13253498Y-7088335I602500J-1959500D01*
G01*
D11*
X12270000Y-9600000D02*
X12370000Y-9780000D01*
D10*
X13437570Y-7700321D02*
G75*
G02*
X12370000Y-9780000I-2035070J-269179D01*
G01*
X13070780Y-7174390D02*
X13253498Y-7088335D01*
D11*
X10290000Y-6480000D02*
X10176840Y-6325762D01*
X9100000Y-5700000D02*
X13700000Y-5700000D01*
X13700000Y-10200000D01*
X9100000Y-10200000D01*
X9100000Y-5700000D01*
D12*
X11347500Y-9277050D02*
X11422500Y-9352050D01*
X11422500Y-9277050D02*
X11347500Y-9352050D01*
X11927500Y-9277050D02*
X12002500Y-9352050D01*
X12002500Y-9277050D02*
X11927500Y-9352050D01*
D11*
X9350777Y-10521484D02*
X9350777Y-10321484D01*
X9350777Y-10321484D02*
X9398396Y-10321484D01*
X9398396Y-10321484D02*
X9426967Y-10331008D01*
X9426967Y-10331008D02*
X9446015Y-10350055D01*
X9446015Y-10350055D02*
X9455539Y-10369103D01*
X9455539Y-10369103D02*
X9465063Y-10407198D01*
X9465063Y-10407198D02*
X9465063Y-10435770D01*
X9465063Y-10435770D02*
X9455539Y-10473865D01*
X9455539Y-10473865D02*
X9446015Y-10492912D01*
X9446015Y-10492912D02*
X9426967Y-10511960D01*
X9426967Y-10511960D02*
X9398396Y-10521484D01*
X9398396Y-10521484D02*
X9350777Y-10521484D01*
X9550777Y-10521484D02*
X9550777Y-10388150D01*
X9550777Y-10426246D02*
X9560301Y-10407198D01*
X9560301Y-10407198D02*
X9569824Y-10397674D01*
X9569824Y-10397674D02*
X9588872Y-10388150D01*
X9588872Y-10388150D02*
X9607920Y-10388150D01*
X9674586Y-10521484D02*
X9674586Y-10388150D01*
X9674586Y-10321484D02*
X9665063Y-10331008D01*
X9665063Y-10331008D02*
X9674586Y-10340531D01*
X9674586Y-10340531D02*
X9684110Y-10331008D01*
X9684110Y-10331008D02*
X9674586Y-10321484D01*
X9674586Y-10321484D02*
X9674586Y-10340531D01*
X9798396Y-10521484D02*
X9779348Y-10511960D01*
X9779348Y-10511960D02*
X9769824Y-10492912D01*
X9769824Y-10492912D02*
X9769824Y-10321484D01*
X9903158Y-10521484D02*
X9884110Y-10511960D01*
X9884110Y-10511960D02*
X9874586Y-10492912D01*
X9874586Y-10492912D02*
X9874586Y-10321484D01*
X10131729Y-10521484D02*
X10131729Y-10321484D01*
X10131729Y-10321484D02*
X10198396Y-10464341D01*
X10198396Y-10464341D02*
X10265063Y-10321484D01*
X10265063Y-10321484D02*
X10265063Y-10521484D01*
X10446015Y-10521484D02*
X10446015Y-10416722D01*
X10446015Y-10416722D02*
X10436491Y-10397674D01*
X10436491Y-10397674D02*
X10417444Y-10388150D01*
X10417444Y-10388150D02*
X10379348Y-10388150D01*
X10379348Y-10388150D02*
X10360301Y-10397674D01*
X10446015Y-10511960D02*
X10426967Y-10521484D01*
X10426967Y-10521484D02*
X10379348Y-10521484D01*
X10379348Y-10521484D02*
X10360301Y-10511960D01*
X10360301Y-10511960D02*
X10350777Y-10492912D01*
X10350777Y-10492912D02*
X10350777Y-10473865D01*
X10350777Y-10473865D02*
X10360301Y-10454817D01*
X10360301Y-10454817D02*
X10379348Y-10445293D01*
X10379348Y-10445293D02*
X10426967Y-10445293D01*
X10426967Y-10445293D02*
X10446015Y-10435770D01*
X10541253Y-10388150D02*
X10541253Y-10588150D01*
X10541253Y-10397674D02*
X10560301Y-10388150D01*
X10560301Y-10388150D02*
X10598396Y-10388150D01*
X10598396Y-10388150D02*
X10617444Y-10397674D01*
X10617444Y-10397674D02*
X10626967Y-10407198D01*
X10626967Y-10407198D02*
X10636491Y-10426246D01*
X10636491Y-10426246D02*
X10636491Y-10483389D01*
X10636491Y-10483389D02*
X10626967Y-10502436D01*
X10626967Y-10502436D02*
X10617444Y-10511960D01*
X10617444Y-10511960D02*
X10598396Y-10521484D01*
X10598396Y-10521484D02*
X10560301Y-10521484D01*
X10560301Y-10521484D02*
X10541253Y-10511960D01*
X10722205Y-10502436D02*
X10731729Y-10511960D01*
X10731729Y-10511960D02*
X10722205Y-10521484D01*
X10722205Y-10521484D02*
X10712682Y-10511960D01*
X10712682Y-10511960D02*
X10722205Y-10502436D01*
X10722205Y-10502436D02*
X10722205Y-10521484D01*
X10722205Y-10397674D02*
X10731729Y-10407198D01*
X10731729Y-10407198D02*
X10722205Y-10416722D01*
X10722205Y-10416722D02*
X10712682Y-10407198D01*
X10712682Y-10407198D02*
X10722205Y-10397674D01*
X10722205Y-10397674D02*
X10722205Y-10416722D01*
D12*
X9015000Y-10812500D02*
X9090000Y-10887500D01*
X9090000Y-10812500D02*
X9015000Y-10887500D01*
D11*
X9388872Y-10741484D02*
X9407920Y-10741484D01*
X9407920Y-10741484D02*
X9426967Y-10751008D01*
X9426967Y-10751008D02*
X9436491Y-10760531D01*
X9436491Y-10760531D02*
X9446015Y-10779579D01*
X9446015Y-10779579D02*
X9455539Y-10817674D01*
X9455539Y-10817674D02*
X9455539Y-10865293D01*
X9455539Y-10865293D02*
X9446015Y-10903389D01*
X9446015Y-10903389D02*
X9436491Y-10922436D01*
X9436491Y-10922436D02*
X9426967Y-10931960D01*
X9426967Y-10931960D02*
X9407920Y-10941484D01*
X9407920Y-10941484D02*
X9388872Y-10941484D01*
X9388872Y-10941484D02*
X9369824Y-10931960D01*
X9369824Y-10931960D02*
X9360301Y-10922436D01*
X9360301Y-10922436D02*
X9350777Y-10903389D01*
X9350777Y-10903389D02*
X9341253Y-10865293D01*
X9341253Y-10865293D02*
X9341253Y-10817674D01*
X9341253Y-10817674D02*
X9350777Y-10779579D01*
X9350777Y-10779579D02*
X9360301Y-10760531D01*
X9360301Y-10760531D02*
X9369824Y-10751008D01*
X9369824Y-10751008D02*
X9388872Y-10741484D01*
X9541253Y-10922436D02*
X9550777Y-10931960D01*
X9550777Y-10931960D02*
X9541253Y-10941484D01*
X9541253Y-10941484D02*
X9531729Y-10931960D01*
X9531729Y-10931960D02*
X9541253Y-10922436D01*
X9541253Y-10922436D02*
X9541253Y-10941484D01*
X9617444Y-10741484D02*
X9750777Y-10741484D01*
X9750777Y-10741484D02*
X9665063Y-10941484D01*
X9922205Y-10741484D02*
X9826967Y-10741484D01*
X9826967Y-10741484D02*
X9817444Y-10836722D01*
X9817444Y-10836722D02*
X9826967Y-10827198D01*
X9826967Y-10827198D02*
X9846015Y-10817674D01*
X9846015Y-10817674D02*
X9893634Y-10817674D01*
X9893634Y-10817674D02*
X9912682Y-10827198D01*
X9912682Y-10827198D02*
X9922205Y-10836722D01*
X9922205Y-10836722D02*
X9931729Y-10855770D01*
X9931729Y-10855770D02*
X9931729Y-10903389D01*
X9931729Y-10903389D02*
X9922205Y-10922436D01*
X9922205Y-10922436D02*
X9912682Y-10931960D01*
X9912682Y-10931960D02*
X9893634Y-10941484D01*
X9893634Y-10941484D02*
X9846015Y-10941484D01*
X9846015Y-10941484D02*
X9826967Y-10931960D01*
X9826967Y-10931960D02*
X9817444Y-10922436D01*
X10055539Y-10741484D02*
X10074586Y-10741484D01*
X10074586Y-10741484D02*
X10093634Y-10751008D01*
X10093634Y-10751008D02*
X10103158Y-10760531D01*
X10103158Y-10760531D02*
X10112682Y-10779579D01*
X10112682Y-10779579D02*
X10122205Y-10817674D01*
X10122205Y-10817674D02*
X10122205Y-10865293D01*
X10122205Y-10865293D02*
X10112682Y-10903389D01*
X10112682Y-10903389D02*
X10103158Y-10922436D01*
X10103158Y-10922436D02*
X10093634Y-10931960D01*
X10093634Y-10931960D02*
X10074586Y-10941484D01*
X10074586Y-10941484D02*
X10055539Y-10941484D01*
X10055539Y-10941484D02*
X10036491Y-10931960D01*
X10036491Y-10931960D02*
X10026967Y-10922436D01*
X10026967Y-10922436D02*
X10017444Y-10903389D01*
X10017444Y-10903389D02*
X10007920Y-10865293D01*
X10007920Y-10865293D02*
X10007920Y-10817674D01*
X10007920Y-10817674D02*
X10017444Y-10779579D01*
X10017444Y-10779579D02*
X10026967Y-10760531D01*
X10026967Y-10760531D02*
X10036491Y-10751008D01*
X10036491Y-10751008D02*
X10055539Y-10741484D01*
X10207920Y-10941484D02*
X10207920Y-10808150D01*
X10207920Y-10827198D02*
X10217444Y-10817674D01*
X10217444Y-10817674D02*
X10236491Y-10808150D01*
X10236491Y-10808150D02*
X10265063Y-10808150D01*
X10265063Y-10808150D02*
X10284110Y-10817674D01*
X10284110Y-10817674D02*
X10293634Y-10836722D01*
X10293634Y-10836722D02*
X10293634Y-10941484D01*
X10293634Y-10836722D02*
X10303158Y-10817674D01*
X10303158Y-10817674D02*
X10322205Y-10808150D01*
X10322205Y-10808150D02*
X10350777Y-10808150D01*
X10350777Y-10808150D02*
X10369825Y-10817674D01*
X10369825Y-10817674D02*
X10379348Y-10836722D01*
X10379348Y-10836722D02*
X10379348Y-10941484D01*
X10474586Y-10941484D02*
X10474586Y-10808150D01*
X10474586Y-10827198D02*
X10484110Y-10817674D01*
X10484110Y-10817674D02*
X10503158Y-10808150D01*
X10503158Y-10808150D02*
X10531729Y-10808150D01*
X10531729Y-10808150D02*
X10550777Y-10817674D01*
X10550777Y-10817674D02*
X10560301Y-10836722D01*
X10560301Y-10836722D02*
X10560301Y-10941484D01*
X10560301Y-10836722D02*
X10569825Y-10817674D01*
X10569825Y-10817674D02*
X10588872Y-10808150D01*
X10588872Y-10808150D02*
X10617444Y-10808150D01*
X10617444Y-10808150D02*
X10636491Y-10817674D01*
X10636491Y-10817674D02*
X10646015Y-10836722D01*
X10646015Y-10836722D02*
X10646015Y-10941484D01*
X11036491Y-10731960D02*
X10865063Y-10989103D01*
X11293634Y-10741484D02*
X11312682Y-10741484D01*
X11312682Y-10741484D02*
X11331729Y-10751008D01*
X11331729Y-10751008D02*
X11341253Y-10760531D01*
X11341253Y-10760531D02*
X11350777Y-10779579D01*
X11350777Y-10779579D02*
X11360301Y-10817674D01*
X11360301Y-10817674D02*
X11360301Y-10865293D01*
X11360301Y-10865293D02*
X11350777Y-10903389D01*
X11350777Y-10903389D02*
X11341253Y-10922436D01*
X11341253Y-10922436D02*
X11331729Y-10931960D01*
X11331729Y-10931960D02*
X11312682Y-10941484D01*
X11312682Y-10941484D02*
X11293634Y-10941484D01*
X11293634Y-10941484D02*
X11274586Y-10931960D01*
X11274586Y-10931960D02*
X11265063Y-10922436D01*
X11265063Y-10922436D02*
X11255539Y-10903389D01*
X11255539Y-10903389D02*
X11246015Y-10865293D01*
X11246015Y-10865293D02*
X11246015Y-10817674D01*
X11246015Y-10817674D02*
X11255539Y-10779579D01*
X11255539Y-10779579D02*
X11265063Y-10760531D01*
X11265063Y-10760531D02*
X11274586Y-10751008D01*
X11274586Y-10751008D02*
X11293634Y-10741484D01*
X11446015Y-10922436D02*
X11455539Y-10931960D01*
X11455539Y-10931960D02*
X11446015Y-10941484D01*
X11446015Y-10941484D02*
X11436491Y-10931960D01*
X11436491Y-10931960D02*
X11446015Y-10922436D01*
X11446015Y-10922436D02*
X11446015Y-10941484D01*
X11579348Y-10741484D02*
X11598396Y-10741484D01*
X11598396Y-10741484D02*
X11617444Y-10751008D01*
X11617444Y-10751008D02*
X11626967Y-10760531D01*
X11626967Y-10760531D02*
X11636491Y-10779579D01*
X11636491Y-10779579D02*
X11646015Y-10817674D01*
X11646015Y-10817674D02*
X11646015Y-10865293D01*
X11646015Y-10865293D02*
X11636491Y-10903389D01*
X11636491Y-10903389D02*
X11626967Y-10922436D01*
X11626967Y-10922436D02*
X11617444Y-10931960D01*
X11617444Y-10931960D02*
X11598396Y-10941484D01*
X11598396Y-10941484D02*
X11579348Y-10941484D01*
X11579348Y-10941484D02*
X11560301Y-10931960D01*
X11560301Y-10931960D02*
X11550777Y-10922436D01*
X11550777Y-10922436D02*
X11541253Y-10903389D01*
X11541253Y-10903389D02*
X11531729Y-10865293D01*
X11531729Y-10865293D02*
X11531729Y-10817674D01*
X11531729Y-10817674D02*
X11541253Y-10779579D01*
X11541253Y-10779579D02*
X11550777Y-10760531D01*
X11550777Y-10760531D02*
X11560301Y-10751008D01*
X11560301Y-10751008D02*
X11579348Y-10741484D01*
X11722206Y-10760531D02*
X11731729Y-10751008D01*
X11731729Y-10751008D02*
X11750777Y-10741484D01*
X11750777Y-10741484D02*
X11798396Y-10741484D01*
X11798396Y-10741484D02*
X11817444Y-10751008D01*
X11817444Y-10751008D02*
X11826967Y-10760531D01*
X11826967Y-10760531D02*
X11836491Y-10779579D01*
X11836491Y-10779579D02*
X11836491Y-10798627D01*
X11836491Y-10798627D02*
X11826967Y-10827198D01*
X11826967Y-10827198D02*
X11712682Y-10941484D01*
X11712682Y-10941484D02*
X11836491Y-10941484D01*
X11931729Y-10941484D02*
X11969825Y-10941484D01*
X11969825Y-10941484D02*
X11988872Y-10931960D01*
X11988872Y-10931960D02*
X11998396Y-10922436D01*
X11998396Y-10922436D02*
X12017444Y-10893865D01*
X12017444Y-10893865D02*
X12026967Y-10855770D01*
X12026967Y-10855770D02*
X12026967Y-10779579D01*
X12026967Y-10779579D02*
X12017444Y-10760531D01*
X12017444Y-10760531D02*
X12007920Y-10751008D01*
X12007920Y-10751008D02*
X11988872Y-10741484D01*
X11988872Y-10741484D02*
X11950777Y-10741484D01*
X11950777Y-10741484D02*
X11931729Y-10751008D01*
X11931729Y-10751008D02*
X11922206Y-10760531D01*
X11922206Y-10760531D02*
X11912682Y-10779579D01*
X11912682Y-10779579D02*
X11912682Y-10827198D01*
X11912682Y-10827198D02*
X11922206Y-10846246D01*
X11922206Y-10846246D02*
X11931729Y-10855770D01*
X11931729Y-10855770D02*
X11950777Y-10865293D01*
X11950777Y-10865293D02*
X11988872Y-10865293D01*
X11988872Y-10865293D02*
X12007920Y-10855770D01*
X12007920Y-10855770D02*
X12017444Y-10846246D01*
X12017444Y-10846246D02*
X12026967Y-10827198D01*
X12207920Y-10741484D02*
X12112682Y-10741484D01*
X12112682Y-10741484D02*
X12103158Y-10836722D01*
X12103158Y-10836722D02*
X12112682Y-10827198D01*
X12112682Y-10827198D02*
X12131729Y-10817674D01*
X12131729Y-10817674D02*
X12179348Y-10817674D01*
X12179348Y-10817674D02*
X12198396Y-10827198D01*
X12198396Y-10827198D02*
X12207920Y-10836722D01*
X12207920Y-10836722D02*
X12217444Y-10855770D01*
X12217444Y-10855770D02*
X12217444Y-10903389D01*
X12217444Y-10903389D02*
X12207920Y-10922436D01*
X12207920Y-10922436D02*
X12198396Y-10931960D01*
X12198396Y-10931960D02*
X12179348Y-10941484D01*
X12179348Y-10941484D02*
X12131729Y-10941484D01*
X12131729Y-10941484D02*
X12112682Y-10931960D01*
X12112682Y-10931960D02*
X12103158Y-10922436D01*
X12293634Y-10741484D02*
X12293634Y-10779579D01*
X12369825Y-10741484D02*
X12369825Y-10779579D01*
X12665063Y-11017674D02*
X12655539Y-11008150D01*
X12655539Y-11008150D02*
X12636491Y-10979579D01*
X12636491Y-10979579D02*
X12626968Y-10960531D01*
X12626968Y-10960531D02*
X12617444Y-10931960D01*
X12617444Y-10931960D02*
X12607920Y-10884341D01*
X12607920Y-10884341D02*
X12607920Y-10846246D01*
X12607920Y-10846246D02*
X12617444Y-10798627D01*
X12617444Y-10798627D02*
X12626968Y-10770055D01*
X12626968Y-10770055D02*
X12636491Y-10751008D01*
X12636491Y-10751008D02*
X12655539Y-10722436D01*
X12655539Y-10722436D02*
X12665063Y-10712912D01*
X12731729Y-10760531D02*
X12741253Y-10751008D01*
X12741253Y-10751008D02*
X12760301Y-10741484D01*
X12760301Y-10741484D02*
X12807920Y-10741484D01*
X12807920Y-10741484D02*
X12826968Y-10751008D01*
X12826968Y-10751008D02*
X12836491Y-10760531D01*
X12836491Y-10760531D02*
X12846015Y-10779579D01*
X12846015Y-10779579D02*
X12846015Y-10798627D01*
X12846015Y-10798627D02*
X12836491Y-10827198D01*
X12836491Y-10827198D02*
X12722206Y-10941484D01*
X12722206Y-10941484D02*
X12846015Y-10941484D01*
X13084110Y-10941484D02*
X13084110Y-10741484D01*
X13169825Y-10941484D02*
X13169825Y-10836722D01*
X13169825Y-10836722D02*
X13160301Y-10817674D01*
X13160301Y-10817674D02*
X13141253Y-10808150D01*
X13141253Y-10808150D02*
X13112682Y-10808150D01*
X13112682Y-10808150D02*
X13093634Y-10817674D01*
X13093634Y-10817674D02*
X13084110Y-10827198D01*
X13293634Y-10941484D02*
X13274587Y-10931960D01*
X13274587Y-10931960D02*
X13265063Y-10922436D01*
X13265063Y-10922436D02*
X13255539Y-10903389D01*
X13255539Y-10903389D02*
X13255539Y-10846246D01*
X13255539Y-10846246D02*
X13265063Y-10827198D01*
X13265063Y-10827198D02*
X13274587Y-10817674D01*
X13274587Y-10817674D02*
X13293634Y-10808150D01*
X13293634Y-10808150D02*
X13322206Y-10808150D01*
X13322206Y-10808150D02*
X13341253Y-10817674D01*
X13341253Y-10817674D02*
X13350777Y-10827198D01*
X13350777Y-10827198D02*
X13360301Y-10846246D01*
X13360301Y-10846246D02*
X13360301Y-10903389D01*
X13360301Y-10903389D02*
X13350777Y-10922436D01*
X13350777Y-10922436D02*
X13341253Y-10931960D01*
X13341253Y-10931960D02*
X13322206Y-10941484D01*
X13322206Y-10941484D02*
X13293634Y-10941484D01*
X13474587Y-10941484D02*
X13455539Y-10931960D01*
X13455539Y-10931960D02*
X13446015Y-10912912D01*
X13446015Y-10912912D02*
X13446015Y-10741484D01*
X13626968Y-10931960D02*
X13607920Y-10941484D01*
X13607920Y-10941484D02*
X13569825Y-10941484D01*
X13569825Y-10941484D02*
X13550777Y-10931960D01*
X13550777Y-10931960D02*
X13541253Y-10912912D01*
X13541253Y-10912912D02*
X13541253Y-10836722D01*
X13541253Y-10836722D02*
X13550777Y-10817674D01*
X13550777Y-10817674D02*
X13569825Y-10808150D01*
X13569825Y-10808150D02*
X13607920Y-10808150D01*
X13607920Y-10808150D02*
X13626968Y-10817674D01*
X13626968Y-10817674D02*
X13636491Y-10836722D01*
X13636491Y-10836722D02*
X13636491Y-10855770D01*
X13636491Y-10855770D02*
X13541253Y-10874817D01*
X13712682Y-10931960D02*
X13731730Y-10941484D01*
X13731730Y-10941484D02*
X13769825Y-10941484D01*
X13769825Y-10941484D02*
X13788872Y-10931960D01*
X13788872Y-10931960D02*
X13798396Y-10912912D01*
X13798396Y-10912912D02*
X13798396Y-10903389D01*
X13798396Y-10903389D02*
X13788872Y-10884341D01*
X13788872Y-10884341D02*
X13769825Y-10874817D01*
X13769825Y-10874817D02*
X13741253Y-10874817D01*
X13741253Y-10874817D02*
X13722206Y-10865293D01*
X13722206Y-10865293D02*
X13712682Y-10846246D01*
X13712682Y-10846246D02*
X13712682Y-10836722D01*
X13712682Y-10836722D02*
X13722206Y-10817674D01*
X13722206Y-10817674D02*
X13741253Y-10808150D01*
X13741253Y-10808150D02*
X13769825Y-10808150D01*
X13769825Y-10808150D02*
X13788872Y-10817674D01*
X13865063Y-11017674D02*
X13874587Y-11008150D01*
X13874587Y-11008150D02*
X13893634Y-10979579D01*
X13893634Y-10979579D02*
X13903158Y-10960531D01*
X13903158Y-10960531D02*
X13912682Y-10931960D01*
X13912682Y-10931960D02*
X13922206Y-10884341D01*
X13922206Y-10884341D02*
X13922206Y-10846246D01*
X13922206Y-10846246D02*
X13912682Y-10798627D01*
X13912682Y-10798627D02*
X13903158Y-10770055D01*
X13903158Y-10770055D02*
X13893634Y-10751008D01*
X13893634Y-10751008D02*
X13874587Y-10722436D01*
X13874587Y-10722436D02*
X13865063Y-10712912D01*
X14226968Y-11017674D02*
X14217444Y-11008150D01*
X14217444Y-11008150D02*
X14198396Y-10979579D01*
X14198396Y-10979579D02*
X14188872Y-10960531D01*
X14188872Y-10960531D02*
X14179349Y-10931960D01*
X14179349Y-10931960D02*
X14169825Y-10884341D01*
X14169825Y-10884341D02*
X14169825Y-10846246D01*
X14169825Y-10846246D02*
X14179349Y-10798627D01*
X14179349Y-10798627D02*
X14188872Y-10770055D01*
X14188872Y-10770055D02*
X14198396Y-10751008D01*
X14198396Y-10751008D02*
X14217444Y-10722436D01*
X14217444Y-10722436D02*
X14226968Y-10712912D01*
X14303158Y-10808150D02*
X14303158Y-10941484D01*
X14303158Y-10827198D02*
X14312682Y-10817674D01*
X14312682Y-10817674D02*
X14331730Y-10808150D01*
X14331730Y-10808150D02*
X14360301Y-10808150D01*
X14360301Y-10808150D02*
X14379349Y-10817674D01*
X14379349Y-10817674D02*
X14388872Y-10836722D01*
X14388872Y-10836722D02*
X14388872Y-10941484D01*
X14512682Y-10941484D02*
X14493634Y-10931960D01*
X14493634Y-10931960D02*
X14484111Y-10922436D01*
X14484111Y-10922436D02*
X14474587Y-10903389D01*
X14474587Y-10903389D02*
X14474587Y-10846246D01*
X14474587Y-10846246D02*
X14484111Y-10827198D01*
X14484111Y-10827198D02*
X14493634Y-10817674D01*
X14493634Y-10817674D02*
X14512682Y-10808150D01*
X14512682Y-10808150D02*
X14541253Y-10808150D01*
X14541253Y-10808150D02*
X14560301Y-10817674D01*
X14560301Y-10817674D02*
X14569825Y-10827198D01*
X14569825Y-10827198D02*
X14579349Y-10846246D01*
X14579349Y-10846246D02*
X14579349Y-10903389D01*
X14579349Y-10903389D02*
X14569825Y-10922436D01*
X14569825Y-10922436D02*
X14560301Y-10931960D01*
X14560301Y-10931960D02*
X14541253Y-10941484D01*
X14541253Y-10941484D02*
X14512682Y-10941484D01*
X14636492Y-10808150D02*
X14712682Y-10808150D01*
X14665063Y-10741484D02*
X14665063Y-10912912D01*
X14665063Y-10912912D02*
X14674587Y-10931960D01*
X14674587Y-10931960D02*
X14693634Y-10941484D01*
X14693634Y-10941484D02*
X14712682Y-10941484D01*
X14931730Y-10808150D02*
X14931730Y-11008150D01*
X14931730Y-10817674D02*
X14950777Y-10808150D01*
X14950777Y-10808150D02*
X14988873Y-10808150D01*
X14988873Y-10808150D02*
X15007920Y-10817674D01*
X15007920Y-10817674D02*
X15017444Y-10827198D01*
X15017444Y-10827198D02*
X15026968Y-10846246D01*
X15026968Y-10846246D02*
X15026968Y-10903389D01*
X15026968Y-10903389D02*
X15017444Y-10922436D01*
X15017444Y-10922436D02*
X15007920Y-10931960D01*
X15007920Y-10931960D02*
X14988873Y-10941484D01*
X14988873Y-10941484D02*
X14950777Y-10941484D01*
X14950777Y-10941484D02*
X14931730Y-10931960D01*
X15141253Y-10941484D02*
X15122206Y-10931960D01*
X15122206Y-10931960D02*
X15112682Y-10912912D01*
X15112682Y-10912912D02*
X15112682Y-10741484D01*
X15303158Y-10941484D02*
X15303158Y-10836722D01*
X15303158Y-10836722D02*
X15293634Y-10817674D01*
X15293634Y-10817674D02*
X15274587Y-10808150D01*
X15274587Y-10808150D02*
X15236492Y-10808150D01*
X15236492Y-10808150D02*
X15217444Y-10817674D01*
X15303158Y-10931960D02*
X15284111Y-10941484D01*
X15284111Y-10941484D02*
X15236492Y-10941484D01*
X15236492Y-10941484D02*
X15217444Y-10931960D01*
X15217444Y-10931960D02*
X15207920Y-10912912D01*
X15207920Y-10912912D02*
X15207920Y-10893865D01*
X15207920Y-10893865D02*
X15217444Y-10874817D01*
X15217444Y-10874817D02*
X15236492Y-10865293D01*
X15236492Y-10865293D02*
X15284111Y-10865293D01*
X15284111Y-10865293D02*
X15303158Y-10855770D01*
X15369825Y-10808150D02*
X15446015Y-10808150D01*
X15398396Y-10741484D02*
X15398396Y-10912912D01*
X15398396Y-10912912D02*
X15407920Y-10931960D01*
X15407920Y-10931960D02*
X15426968Y-10941484D01*
X15426968Y-10941484D02*
X15446015Y-10941484D01*
X15588873Y-10931960D02*
X15569825Y-10941484D01*
X15569825Y-10941484D02*
X15531730Y-10941484D01*
X15531730Y-10941484D02*
X15512682Y-10931960D01*
X15512682Y-10931960D02*
X15503158Y-10912912D01*
X15503158Y-10912912D02*
X15503158Y-10836722D01*
X15503158Y-10836722D02*
X15512682Y-10817674D01*
X15512682Y-10817674D02*
X15531730Y-10808150D01*
X15531730Y-10808150D02*
X15569825Y-10808150D01*
X15569825Y-10808150D02*
X15588873Y-10817674D01*
X15588873Y-10817674D02*
X15598396Y-10836722D01*
X15598396Y-10836722D02*
X15598396Y-10855770D01*
X15598396Y-10855770D02*
X15503158Y-10874817D01*
X15769825Y-10941484D02*
X15769825Y-10741484D01*
X15769825Y-10931960D02*
X15750777Y-10941484D01*
X15750777Y-10941484D02*
X15712682Y-10941484D01*
X15712682Y-10941484D02*
X15693634Y-10931960D01*
X15693634Y-10931960D02*
X15684111Y-10922436D01*
X15684111Y-10922436D02*
X15674587Y-10903389D01*
X15674587Y-10903389D02*
X15674587Y-10846246D01*
X15674587Y-10846246D02*
X15684111Y-10827198D01*
X15684111Y-10827198D02*
X15693634Y-10817674D01*
X15693634Y-10817674D02*
X15712682Y-10808150D01*
X15712682Y-10808150D02*
X15750777Y-10808150D01*
X15750777Y-10808150D02*
X15769825Y-10817674D01*
X15846015Y-11017674D02*
X15855539Y-11008150D01*
X15855539Y-11008150D02*
X15874587Y-10979579D01*
X15874587Y-10979579D02*
X15884111Y-10960531D01*
X15884111Y-10960531D02*
X15893634Y-10931960D01*
X15893634Y-10931960D02*
X15903158Y-10884341D01*
X15903158Y-10884341D02*
X15903158Y-10846246D01*
X15903158Y-10846246D02*
X15893634Y-10798627D01*
X15893634Y-10798627D02*
X15884111Y-10770055D01*
X15884111Y-10770055D02*
X15874587Y-10751008D01*
X15874587Y-10751008D02*
X15855539Y-10722436D01*
X15855539Y-10722436D02*
X15846015Y-10712912D01*
M02*
