%TF.GenerationSoftware,KiCad,Pcbnew,8.0.1*%
%TF.CreationDate,2024-05-06T20:31:10+02:00*%
%TF.ProjectId,smartknob,736d6172-746b-46e6-9f62-2e6b69636164,rev?*%
%TF.SameCoordinates,Original*%
%TF.FileFunction,Soldermask,Bot*%
%TF.FilePolarity,Negative*%
%FSLAX46Y46*%
G04 Gerber Fmt 4.6, Leading zero omitted, Abs format (unit mm)*
G04 Created by KiCad (PCBNEW 8.0.1) date 2024-05-06 20:31:10*
%MOMM*%
%LPD*%
G01*
G04 APERTURE LIST*
G04 Aperture macros list*
%AMRoundRect*
0 Rectangle with rounded corners*
0 $1 Rounding radius*
0 $2 $3 $4 $5 $6 $7 $8 $9 X,Y pos of 4 corners*
0 Add a 4 corners polygon primitive as box body*
4,1,4,$2,$3,$4,$5,$6,$7,$8,$9,$2,$3,0*
0 Add four circle primitives for the rounded corners*
1,1,$1+$1,$2,$3*
1,1,$1+$1,$4,$5*
1,1,$1+$1,$6,$7*
1,1,$1+$1,$8,$9*
0 Add four rect primitives between the rounded corners*
20,1,$1+$1,$2,$3,$4,$5,0*
20,1,$1+$1,$4,$5,$6,$7,0*
20,1,$1+$1,$6,$7,$8,$9,0*
20,1,$1+$1,$8,$9,$2,$3,0*%
%AMHorizOval*
0 Thick line with rounded ends*
0 $1 width*
0 $2 $3 position (X,Y) of the first rounded end (center of the circle)*
0 $4 $5 position (X,Y) of the second rounded end (center of the circle)*
0 Add line between two ends*
20,1,$1,$2,$3,$4,$5,0*
0 Add two circle primitives to create the rounded ends*
1,1,$1,$2,$3*
1,1,$1,$4,$5*%
%AMRotRect*
0 Rectangle, with rotation*
0 The origin of the aperture is its center*
0 $1 length*
0 $2 width*
0 $3 Rotation angle, in degrees counterclockwise*
0 Add horizontal line*
21,1,$1,$2,0,0,$3*%
%AMFreePoly0*
4,1,19,0.500000,-0.750000,0.000000,-0.750000,0.000000,-0.744911,-0.071157,-0.744911,-0.207708,-0.704816,-0.327430,-0.627875,-0.420627,-0.520320,-0.479746,-0.390866,-0.500000,-0.250000,-0.500000,0.250000,-0.479746,0.390866,-0.420627,0.520320,-0.327430,0.627875,-0.207708,0.704816,-0.071157,0.744911,0.000000,0.744911,0.000000,0.750000,0.500000,0.750000,0.500000,-0.750000,0.500000,-0.750000,
$1*%
%AMFreePoly1*
4,1,19,0.000000,0.744911,0.071157,0.744911,0.207708,0.704816,0.327430,0.627875,0.420627,0.520320,0.479746,0.390866,0.500000,0.250000,0.500000,-0.250000,0.479746,-0.390866,0.420627,-0.520320,0.327430,-0.627875,0.207708,-0.704816,0.071157,-0.744911,0.000000,-0.744911,0.000000,-0.750000,-0.500000,-0.750000,-0.500000,0.750000,0.000000,0.750000,0.000000,0.744911,0.000000,0.744911,
$1*%
G04 Aperture macros list end*
%ADD10C,0.750000*%
%ADD11O,1.200000X2.000000*%
%ADD12O,1.200000X1.800000*%
%ADD13R,1.700000X1.700000*%
%ADD14O,1.700000X1.700000*%
%ADD15RoundRect,0.250000X-0.350000X-0.450000X0.350000X-0.450000X0.350000X0.450000X-0.350000X0.450000X0*%
%ADD16RoundRect,0.250000X-0.337500X-0.475000X0.337500X-0.475000X0.337500X0.475000X-0.337500X0.475000X0*%
%ADD17RoundRect,0.250000X0.337500X0.475000X-0.337500X0.475000X-0.337500X-0.475000X0.337500X-0.475000X0*%
%ADD18R,2.500000X0.350000*%
%ADD19RoundRect,0.200000X-0.200000X-0.275000X0.200000X-0.275000X0.200000X0.275000X-0.200000X0.275000X0*%
%ADD20R,1.500000X0.900000*%
%ADD21HorizOval,1.200000X0.068404X-0.187939X-0.068404X0.187939X0*%
%ADD22HorizOval,1.200000X0.000000X0.000000X0.000000X0.000000X0*%
%ADD23FreePoly0,90.000000*%
%ADD24FreePoly1,90.000000*%
%ADD25RoundRect,0.250000X-0.475000X0.337500X-0.475000X-0.337500X0.475000X-0.337500X0.475000X0.337500X0*%
%ADD26RoundRect,0.250000X-0.450000X0.350000X-0.450000X-0.350000X0.450000X-0.350000X0.450000X0.350000X0*%
%ADD27R,1.500000X1.500000*%
%ADD28RoundRect,0.150000X0.587500X0.150000X-0.587500X0.150000X-0.587500X-0.150000X0.587500X-0.150000X0*%
%ADD29RoundRect,0.250000X0.350000X0.450000X-0.350000X0.450000X-0.350000X-0.450000X0.350000X-0.450000X0*%
%ADD30RoundRect,0.165000X-0.567158X-0.125625X0.055785X-0.578220X0.567158X0.125625X-0.055785X0.578220X0*%
%ADD31C,0.950000*%
%ADD32RoundRect,0.180000X-0.586657X-0.092917X0.092917X-0.586657X0.586657X0.092917X-0.092917X0.586657X0*%
%ADD33RoundRect,0.210000X-0.724884X-0.079014X0.148854X-0.713822X0.724884X0.079014X-0.148854X0.713822X0*%
%ADD34R,0.600000X1.000000*%
%ADD35RoundRect,0.250000X0.475000X-0.337500X0.475000X0.337500X-0.475000X0.337500X-0.475000X-0.337500X0*%
%ADD36RoundRect,0.075000X-0.350000X-0.075000X0.350000X-0.075000X0.350000X0.075000X-0.350000X0.075000X0*%
%ADD37RoundRect,0.075000X-0.075000X0.350000X-0.075000X-0.350000X0.075000X-0.350000X0.075000X0.350000X0*%
%ADD38RoundRect,0.200000X-0.275000X0.200000X-0.275000X-0.200000X0.275000X-0.200000X0.275000X0.200000X0*%
%ADD39C,1.000000*%
%ADD40RoundRect,0.243750X-0.456250X0.243750X-0.456250X-0.243750X0.456250X-0.243750X0.456250X0.243750X0*%
%ADD41RoundRect,0.200000X0.110552X-0.321564X0.339982X0.006097X-0.110552X0.321564X-0.339982X-0.006097X0*%
%ADD42RotRect,1.700000X1.700000X225.000000*%
%ADD43HorizOval,1.700000X0.000000X0.000000X0.000000X0.000000X0*%
%ADD44RoundRect,0.150000X0.725000X0.150000X-0.725000X0.150000X-0.725000X-0.150000X0.725000X-0.150000X0*%
%ADD45RoundRect,0.225000X0.375000X-0.225000X0.375000X0.225000X-0.375000X0.225000X-0.375000X-0.225000X0*%
G04 APERTURE END LIST*
D10*
%TO.C,U3*%
X113850000Y-93145500D03*
X119650000Y-93145500D03*
D11*
X112425000Y-92645500D03*
D12*
X112425000Y-96845500D03*
D11*
X121075000Y-92645500D03*
D12*
X121075000Y-96845500D03*
%TD*%
D13*
%TO.C,J4*%
X134200000Y-75320000D03*
D14*
X134200000Y-72780000D03*
X134200000Y-70240000D03*
X134200000Y-67700000D03*
%TD*%
D15*
%TO.C,R21*%
X118600000Y-69000000D03*
X120600000Y-69000000D03*
%TD*%
D16*
%TO.C,C11*%
X103162500Y-75300000D03*
X105237500Y-75300000D03*
%TD*%
D17*
%TO.C,C16*%
X134675000Y-93400000D03*
X132600000Y-93400000D03*
%TD*%
D15*
%TO.C,R12*%
X112460000Y-87400000D03*
X114460000Y-87400000D03*
%TD*%
D18*
%TO.C,U5*%
X123675000Y-78150000D03*
X123675000Y-78850000D03*
X123675000Y-79550000D03*
X123675000Y-80250000D03*
X123675000Y-80950000D03*
X123675000Y-81650000D03*
X123675000Y-82350000D03*
X123675000Y-83050000D03*
X123675000Y-83750000D03*
X123675000Y-84450000D03*
X123675000Y-85150000D03*
X123675000Y-85850000D03*
%TD*%
D19*
%TO.C,R16*%
X114200000Y-84200000D03*
X115850000Y-84200000D03*
%TD*%
D20*
%TO.C,D8*%
X134450000Y-59350000D03*
X134450000Y-62650000D03*
X129550000Y-62650000D03*
X129550000Y-59350000D03*
%TD*%
D21*
%TO.C,Ur1*%
X113029202Y-77301466D03*
D22*
X117899712Y-79572620D03*
X116943435Y-81623360D03*
X112072927Y-79352205D03*
%TD*%
D20*
%TO.C,D2*%
X109150000Y-74650000D03*
X109150000Y-71350000D03*
X114050000Y-71350000D03*
X114050000Y-74650000D03*
%TD*%
%TO.C,D6*%
X98950000Y-96350000D03*
X98950000Y-99650000D03*
X94050000Y-99650000D03*
X94050000Y-96350000D03*
%TD*%
D17*
%TO.C,C17*%
X95775000Y-65500000D03*
X93700000Y-65500000D03*
%TD*%
D23*
%TO.C,JP1*%
X99900000Y-87600000D03*
D24*
X99900000Y-86300000D03*
%TD*%
D25*
%TO.C,C3*%
X115200000Y-93162500D03*
X115200000Y-95237500D03*
%TD*%
D16*
%TO.C,C10*%
X103662500Y-86700000D03*
X105737500Y-86700000D03*
%TD*%
D25*
%TO.C,C8*%
X99000000Y-81562500D03*
X99000000Y-83637500D03*
%TD*%
D26*
%TO.C,R13*%
X117800000Y-91800000D03*
X117800000Y-93800000D03*
%TD*%
D25*
%TO.C,C9*%
X101400000Y-82362500D03*
X101400000Y-84437500D03*
%TD*%
D27*
%TO.C,BLK*%
X119400000Y-77000000D03*
%TD*%
D13*
%TO.C,J1*%
X126600000Y-70650000D03*
D14*
X126600000Y-73190000D03*
X126600000Y-75730000D03*
X126600000Y-78270000D03*
X126600000Y-80810000D03*
X126600000Y-83350000D03*
%TD*%
D28*
%TO.C,Q1*%
X119400000Y-83400000D03*
X119400000Y-85300000D03*
X117525000Y-84350000D03*
%TD*%
D29*
%TO.C,R14*%
X104900000Y-77300000D03*
X102900000Y-77300000D03*
%TD*%
D27*
%TO.C,LED*%
X107200000Y-65600000D03*
%TD*%
D30*
%TO.C,SW2*%
X121246640Y-65774433D03*
X124563608Y-68184353D03*
D31*
X122036353Y-64432289D03*
D32*
X122065743Y-64391839D03*
D33*
X122537758Y-67485029D03*
D32*
X125625418Y-66978094D03*
D31*
X125596029Y-67018545D03*
%TD*%
D27*
%TO.C,GND*%
X100600000Y-77200000D03*
%TD*%
D26*
%TO.C,R2*%
X109000000Y-76600000D03*
X109000000Y-78600000D03*
%TD*%
D34*
%TO.C,U4*%
X116250000Y-87100000D03*
X117200000Y-87100000D03*
X118150000Y-87100000D03*
X118150000Y-89700000D03*
X116250000Y-89700000D03*
%TD*%
D35*
%TO.C,C13*%
X107000000Y-73237500D03*
X107000000Y-71162500D03*
%TD*%
D29*
%TO.C,R11*%
X109800000Y-88300000D03*
X107800000Y-88300000D03*
%TD*%
D20*
%TO.C,D5*%
X94050000Y-62650000D03*
X94050000Y-59350000D03*
X98950000Y-59350000D03*
X98950000Y-62650000D03*
%TD*%
D27*
%TO.C,GND*%
X108800000Y-95000000D03*
%TD*%
D36*
%TO.C,U8*%
X105100000Y-83600000D03*
X105100000Y-83100000D03*
X105100000Y-82600000D03*
X105100000Y-82100000D03*
X105100000Y-81600000D03*
X105100000Y-81100000D03*
D37*
X105800000Y-80400000D03*
X106300000Y-80400000D03*
X106800000Y-80400000D03*
X107300000Y-80400000D03*
X107800000Y-80400000D03*
X108300000Y-80400000D03*
D36*
X109000000Y-81100000D03*
X109000000Y-81600000D03*
X109000000Y-82100000D03*
X109000000Y-82600000D03*
X109000000Y-83100000D03*
X109000000Y-83600000D03*
D37*
X108300000Y-84300000D03*
X107800000Y-84300000D03*
X107300000Y-84300000D03*
X106800000Y-84300000D03*
X106300000Y-84300000D03*
X105800000Y-84300000D03*
%TD*%
D27*
%TO.C,BAT*%
X108200000Y-90600000D03*
%TD*%
D23*
%TO.C,JP2*%
X120900000Y-90450000D03*
D24*
X120900000Y-89150000D03*
%TD*%
D16*
%TO.C,C5*%
X103762500Y-88700000D03*
X105837500Y-88700000D03*
%TD*%
D38*
%TO.C,R17*%
X112700000Y-83075000D03*
X112700000Y-84725000D03*
%TD*%
D35*
%TO.C,C12*%
X104400000Y-73075000D03*
X104400000Y-71000000D03*
%TD*%
D27*
%TO.C,RES*%
X102400000Y-79800000D03*
%TD*%
D39*
%TO.C,TP5*%
X120100000Y-87100000D03*
%TD*%
D20*
%TO.C,D1*%
X118700000Y-74650000D03*
X118700000Y-71350000D03*
X123600000Y-71350000D03*
X123600000Y-74650000D03*
%TD*%
D17*
%TO.C,C15*%
X103137500Y-99500000D03*
X101062500Y-99500000D03*
%TD*%
D27*
%TO.C,BAT+*%
X99900000Y-73300000D03*
%TD*%
D29*
%TO.C,R10*%
X109900000Y-86200000D03*
X107900000Y-86200000D03*
%TD*%
D26*
%TO.C,R3*%
X107100000Y-75700000D03*
X107100000Y-77700000D03*
%TD*%
D40*
%TO.C,D3*%
X114420000Y-89482500D03*
X114420000Y-91357500D03*
%TD*%
D20*
%TO.C,D7*%
X134450000Y-96350000D03*
X134450000Y-99650000D03*
X129550000Y-99650000D03*
X129550000Y-96350000D03*
%TD*%
D16*
%TO.C,C14*%
X132062500Y-64800000D03*
X134137500Y-64800000D03*
%TD*%
D41*
%TO.C,R18*%
X120026799Y-81675800D03*
X120973201Y-80324200D03*
%TD*%
D42*
%TO.C,J2*%
X101403949Y-89814555D03*
D43*
X103200000Y-91610606D03*
X104996051Y-93406657D03*
%TD*%
D44*
%TO.C,U6*%
X116600000Y-77790000D03*
X116600000Y-79060000D03*
X116600000Y-80330000D03*
X116600000Y-81600000D03*
X111450000Y-81600000D03*
X111450000Y-80330000D03*
X111450000Y-79060000D03*
X111450000Y-77790000D03*
%TD*%
D45*
%TO.C,D4*%
X116400000Y-73850000D03*
X116400000Y-70550000D03*
%TD*%
M02*
