%TF.GenerationSoftware,KiCad,Pcbnew,8.0.1*%
%TF.CreationDate,2024-05-06T20:31:10+02:00*%
%TF.ProjectId,smartknob,736d6172-746b-46e6-9f62-2e6b69636164,rev?*%
%TF.SameCoordinates,Original*%
%TF.FileFunction,AssemblyDrawing,Top*%
%FSLAX46Y46*%
G04 Gerber Fmt 4.6, Leading zero omitted, Abs format (unit mm)*
G04 Created by KiCad (PCBNEW 8.0.1) date 2024-05-06 20:31:10*
%MOMM*%
%LPD*%
G01*
G04 APERTURE LIST*
%ADD10C,0.150000*%
%ADD11C,0.060000*%
%ADD12C,0.080000*%
%ADD13C,0.110000*%
%ADD14C,0.100000*%
%ADD15C,0.120000*%
G04 APERTURE END LIST*
D10*
X102854819Y-78376190D02*
X102378628Y-78709523D01*
X102854819Y-78947618D02*
X101854819Y-78947618D01*
X101854819Y-78947618D02*
X101854819Y-78566666D01*
X101854819Y-78566666D02*
X101902438Y-78471428D01*
X101902438Y-78471428D02*
X101950057Y-78423809D01*
X101950057Y-78423809D02*
X102045295Y-78376190D01*
X102045295Y-78376190D02*
X102188152Y-78376190D01*
X102188152Y-78376190D02*
X102283390Y-78423809D01*
X102283390Y-78423809D02*
X102331009Y-78471428D01*
X102331009Y-78471428D02*
X102378628Y-78566666D01*
X102378628Y-78566666D02*
X102378628Y-78947618D01*
X101854819Y-78090475D02*
X101854819Y-77519047D01*
X102854819Y-77804761D02*
X101854819Y-77804761D01*
X102854819Y-77138094D02*
X102854819Y-76947618D01*
X102854819Y-76947618D02*
X102807200Y-76852380D01*
X102807200Y-76852380D02*
X102759580Y-76804761D01*
X102759580Y-76804761D02*
X102616723Y-76709523D01*
X102616723Y-76709523D02*
X102426247Y-76661904D01*
X102426247Y-76661904D02*
X102045295Y-76661904D01*
X102045295Y-76661904D02*
X101950057Y-76709523D01*
X101950057Y-76709523D02*
X101902438Y-76757142D01*
X101902438Y-76757142D02*
X101854819Y-76852380D01*
X101854819Y-76852380D02*
X101854819Y-77042856D01*
X101854819Y-77042856D02*
X101902438Y-77138094D01*
X101902438Y-77138094D02*
X101950057Y-77185713D01*
X101950057Y-77185713D02*
X102045295Y-77233332D01*
X102045295Y-77233332D02*
X102283390Y-77233332D01*
X102283390Y-77233332D02*
X102378628Y-77185713D01*
X102378628Y-77185713D02*
X102426247Y-77138094D01*
X102426247Y-77138094D02*
X102473866Y-77042856D01*
X102473866Y-77042856D02*
X102473866Y-76852380D01*
X102473866Y-76852380D02*
X102426247Y-76757142D01*
X102426247Y-76757142D02*
X102378628Y-76709523D01*
X102378628Y-76709523D02*
X102283390Y-76661904D01*
X101854819Y-76042856D02*
X101854819Y-75947618D01*
X101854819Y-75947618D02*
X101902438Y-75852380D01*
X101902438Y-75852380D02*
X101950057Y-75804761D01*
X101950057Y-75804761D02*
X102045295Y-75757142D01*
X102045295Y-75757142D02*
X102235771Y-75709523D01*
X102235771Y-75709523D02*
X102473866Y-75709523D01*
X102473866Y-75709523D02*
X102664342Y-75757142D01*
X102664342Y-75757142D02*
X102759580Y-75804761D01*
X102759580Y-75804761D02*
X102807200Y-75852380D01*
X102807200Y-75852380D02*
X102854819Y-75947618D01*
X102854819Y-75947618D02*
X102854819Y-76042856D01*
X102854819Y-76042856D02*
X102807200Y-76138094D01*
X102807200Y-76138094D02*
X102759580Y-76185713D01*
X102759580Y-76185713D02*
X102664342Y-76233332D01*
X102664342Y-76233332D02*
X102473866Y-76280951D01*
X102473866Y-76280951D02*
X102235771Y-76280951D01*
X102235771Y-76280951D02*
X102045295Y-76233332D01*
X102045295Y-76233332D02*
X101950057Y-76185713D01*
X101950057Y-76185713D02*
X101902438Y-76138094D01*
X101902438Y-76138094D02*
X101854819Y-76042856D01*
X102854819Y-74757142D02*
X102854819Y-75328570D01*
X102854819Y-75042856D02*
X101854819Y-75042856D01*
X101854819Y-75042856D02*
X101997676Y-75138094D01*
X101997676Y-75138094D02*
X102092914Y-75233332D01*
X102092914Y-75233332D02*
X102140533Y-75328570D01*
X101854819Y-74423808D02*
X101854819Y-73804761D01*
X101854819Y-73804761D02*
X102235771Y-74138094D01*
X102235771Y-74138094D02*
X102235771Y-73995237D01*
X102235771Y-73995237D02*
X102283390Y-73899999D01*
X102283390Y-73899999D02*
X102331009Y-73852380D01*
X102331009Y-73852380D02*
X102426247Y-73804761D01*
X102426247Y-73804761D02*
X102664342Y-73804761D01*
X102664342Y-73804761D02*
X102759580Y-73852380D01*
X102759580Y-73852380D02*
X102807200Y-73899999D01*
X102807200Y-73899999D02*
X102854819Y-73995237D01*
X102854819Y-73995237D02*
X102854819Y-74280951D01*
X102854819Y-74280951D02*
X102807200Y-74376189D01*
X102807200Y-74376189D02*
X102759580Y-74423808D01*
D11*
X99781927Y-76704761D02*
X100105737Y-76704761D01*
X100105737Y-76704761D02*
X100143832Y-76685714D01*
X100143832Y-76685714D02*
X100162880Y-76666666D01*
X100162880Y-76666666D02*
X100181927Y-76628571D01*
X100181927Y-76628571D02*
X100181927Y-76552380D01*
X100181927Y-76552380D02*
X100162880Y-76514285D01*
X100162880Y-76514285D02*
X100143832Y-76495238D01*
X100143832Y-76495238D02*
X100105737Y-76476190D01*
X100105737Y-76476190D02*
X99781927Y-76476190D01*
X99820022Y-76304761D02*
X99800975Y-76285713D01*
X99800975Y-76285713D02*
X99781927Y-76247618D01*
X99781927Y-76247618D02*
X99781927Y-76152380D01*
X99781927Y-76152380D02*
X99800975Y-76114285D01*
X99800975Y-76114285D02*
X99820022Y-76095237D01*
X99820022Y-76095237D02*
X99858118Y-76076190D01*
X99858118Y-76076190D02*
X99896213Y-76076190D01*
X99896213Y-76076190D02*
X99953356Y-76095237D01*
X99953356Y-76095237D02*
X100181927Y-76323809D01*
X100181927Y-76323809D02*
X100181927Y-76076190D01*
D10*
X95774819Y-83747619D02*
X95774819Y-84319047D01*
X95774819Y-84033333D02*
X94774819Y-84033333D01*
X94774819Y-84033333D02*
X94917676Y-84128571D01*
X94917676Y-84128571D02*
X95012914Y-84223809D01*
X95012914Y-84223809D02*
X95060533Y-84319047D01*
X94774819Y-83128571D02*
X94774819Y-83033333D01*
X94774819Y-83033333D02*
X94822438Y-82938095D01*
X94822438Y-82938095D02*
X94870057Y-82890476D01*
X94870057Y-82890476D02*
X94965295Y-82842857D01*
X94965295Y-82842857D02*
X95155771Y-82795238D01*
X95155771Y-82795238D02*
X95393866Y-82795238D01*
X95393866Y-82795238D02*
X95584342Y-82842857D01*
X95584342Y-82842857D02*
X95679580Y-82890476D01*
X95679580Y-82890476D02*
X95727200Y-82938095D01*
X95727200Y-82938095D02*
X95774819Y-83033333D01*
X95774819Y-83033333D02*
X95774819Y-83128571D01*
X95774819Y-83128571D02*
X95727200Y-83223809D01*
X95727200Y-83223809D02*
X95679580Y-83271428D01*
X95679580Y-83271428D02*
X95584342Y-83319047D01*
X95584342Y-83319047D02*
X95393866Y-83366666D01*
X95393866Y-83366666D02*
X95155771Y-83366666D01*
X95155771Y-83366666D02*
X94965295Y-83319047D01*
X94965295Y-83319047D02*
X94870057Y-83271428D01*
X94870057Y-83271428D02*
X94822438Y-83223809D01*
X94822438Y-83223809D02*
X94774819Y-83128571D01*
X94774819Y-82176190D02*
X94774819Y-82080952D01*
X94774819Y-82080952D02*
X94822438Y-81985714D01*
X94822438Y-81985714D02*
X94870057Y-81938095D01*
X94870057Y-81938095D02*
X94965295Y-81890476D01*
X94965295Y-81890476D02*
X95155771Y-81842857D01*
X95155771Y-81842857D02*
X95393866Y-81842857D01*
X95393866Y-81842857D02*
X95584342Y-81890476D01*
X95584342Y-81890476D02*
X95679580Y-81938095D01*
X95679580Y-81938095D02*
X95727200Y-81985714D01*
X95727200Y-81985714D02*
X95774819Y-82080952D01*
X95774819Y-82080952D02*
X95774819Y-82176190D01*
X95774819Y-82176190D02*
X95727200Y-82271428D01*
X95727200Y-82271428D02*
X95679580Y-82319047D01*
X95679580Y-82319047D02*
X95584342Y-82366666D01*
X95584342Y-82366666D02*
X95393866Y-82414285D01*
X95393866Y-82414285D02*
X95155771Y-82414285D01*
X95155771Y-82414285D02*
X94965295Y-82366666D01*
X94965295Y-82366666D02*
X94870057Y-82319047D01*
X94870057Y-82319047D02*
X94822438Y-82271428D01*
X94822438Y-82271428D02*
X94774819Y-82176190D01*
X95108152Y-81414285D02*
X95774819Y-81414285D01*
X95203390Y-81414285D02*
X95155771Y-81366666D01*
X95155771Y-81366666D02*
X95108152Y-81271428D01*
X95108152Y-81271428D02*
X95108152Y-81128571D01*
X95108152Y-81128571D02*
X95155771Y-81033333D01*
X95155771Y-81033333D02*
X95251009Y-80985714D01*
X95251009Y-80985714D02*
X95774819Y-80985714D01*
X95251009Y-80176190D02*
X95251009Y-80509523D01*
X95774819Y-80509523D02*
X94774819Y-80509523D01*
X94774819Y-80509523D02*
X94774819Y-80033333D01*
D12*
X97179530Y-82283333D02*
X97203340Y-82307142D01*
X97203340Y-82307142D02*
X97227149Y-82378571D01*
X97227149Y-82378571D02*
X97227149Y-82426190D01*
X97227149Y-82426190D02*
X97203340Y-82497618D01*
X97203340Y-82497618D02*
X97155720Y-82545237D01*
X97155720Y-82545237D02*
X97108101Y-82569047D01*
X97108101Y-82569047D02*
X97012863Y-82592856D01*
X97012863Y-82592856D02*
X96941435Y-82592856D01*
X96941435Y-82592856D02*
X96846197Y-82569047D01*
X96846197Y-82569047D02*
X96798578Y-82545237D01*
X96798578Y-82545237D02*
X96750959Y-82497618D01*
X96750959Y-82497618D02*
X96727149Y-82426190D01*
X96727149Y-82426190D02*
X96727149Y-82378571D01*
X96727149Y-82378571D02*
X96750959Y-82307142D01*
X96750959Y-82307142D02*
X96774768Y-82283333D01*
X96727149Y-82116666D02*
X96727149Y-81783333D01*
X96727149Y-81783333D02*
X97227149Y-81997618D01*
D10*
X122604819Y-87847618D02*
X122604819Y-87752380D01*
X122604819Y-87752380D02*
X122652438Y-87657142D01*
X122652438Y-87657142D02*
X122700057Y-87609523D01*
X122700057Y-87609523D02*
X122795295Y-87561904D01*
X122795295Y-87561904D02*
X122985771Y-87514285D01*
X122985771Y-87514285D02*
X123223866Y-87514285D01*
X123223866Y-87514285D02*
X123414342Y-87561904D01*
X123414342Y-87561904D02*
X123509580Y-87609523D01*
X123509580Y-87609523D02*
X123557200Y-87657142D01*
X123557200Y-87657142D02*
X123604819Y-87752380D01*
X123604819Y-87752380D02*
X123604819Y-87847618D01*
X123604819Y-87847618D02*
X123557200Y-87942856D01*
X123557200Y-87942856D02*
X123509580Y-87990475D01*
X123509580Y-87990475D02*
X123414342Y-88038094D01*
X123414342Y-88038094D02*
X123223866Y-88085713D01*
X123223866Y-88085713D02*
X122985771Y-88085713D01*
X122985771Y-88085713D02*
X122795295Y-88038094D01*
X122795295Y-88038094D02*
X122700057Y-87990475D01*
X122700057Y-87990475D02*
X122652438Y-87942856D01*
X122652438Y-87942856D02*
X122604819Y-87847618D01*
X123604819Y-86514285D02*
X123128628Y-86847618D01*
X123604819Y-87085713D02*
X122604819Y-87085713D01*
X122604819Y-87085713D02*
X122604819Y-86704761D01*
X122604819Y-86704761D02*
X122652438Y-86609523D01*
X122652438Y-86609523D02*
X122700057Y-86561904D01*
X122700057Y-86561904D02*
X122795295Y-86514285D01*
X122795295Y-86514285D02*
X122938152Y-86514285D01*
X122938152Y-86514285D02*
X123033390Y-86561904D01*
X123033390Y-86561904D02*
X123081009Y-86609523D01*
X123081009Y-86609523D02*
X123128628Y-86704761D01*
X123128628Y-86704761D02*
X123128628Y-87085713D01*
D12*
X125027149Y-87621428D02*
X124789054Y-87788094D01*
X125027149Y-87907142D02*
X124527149Y-87907142D01*
X124527149Y-87907142D02*
X124527149Y-87716666D01*
X124527149Y-87716666D02*
X124550959Y-87669047D01*
X124550959Y-87669047D02*
X124574768Y-87645237D01*
X124574768Y-87645237D02*
X124622387Y-87621428D01*
X124622387Y-87621428D02*
X124693816Y-87621428D01*
X124693816Y-87621428D02*
X124741435Y-87645237D01*
X124741435Y-87645237D02*
X124765244Y-87669047D01*
X124765244Y-87669047D02*
X124789054Y-87716666D01*
X124789054Y-87716666D02*
X124789054Y-87907142D01*
X125027149Y-87145237D02*
X125027149Y-87430951D01*
X125027149Y-87288094D02*
X124527149Y-87288094D01*
X124527149Y-87288094D02*
X124598578Y-87335713D01*
X124598578Y-87335713D02*
X124646197Y-87383332D01*
X124646197Y-87383332D02*
X124670006Y-87430951D01*
X125027149Y-86907142D02*
X125027149Y-86811904D01*
X125027149Y-86811904D02*
X125003340Y-86764285D01*
X125003340Y-86764285D02*
X124979530Y-86740476D01*
X124979530Y-86740476D02*
X124908101Y-86692857D01*
X124908101Y-86692857D02*
X124812863Y-86669047D01*
X124812863Y-86669047D02*
X124622387Y-86669047D01*
X124622387Y-86669047D02*
X124574768Y-86692857D01*
X124574768Y-86692857D02*
X124550959Y-86716666D01*
X124550959Y-86716666D02*
X124527149Y-86764285D01*
X124527149Y-86764285D02*
X124527149Y-86859523D01*
X124527149Y-86859523D02*
X124550959Y-86907142D01*
X124550959Y-86907142D02*
X124574768Y-86930952D01*
X124574768Y-86930952D02*
X124622387Y-86954761D01*
X124622387Y-86954761D02*
X124741435Y-86954761D01*
X124741435Y-86954761D02*
X124789054Y-86930952D01*
X124789054Y-86930952D02*
X124812863Y-86907142D01*
X124812863Y-86907142D02*
X124836673Y-86859523D01*
X124836673Y-86859523D02*
X124836673Y-86764285D01*
X124836673Y-86764285D02*
X124812863Y-86716666D01*
X124812863Y-86716666D02*
X124789054Y-86692857D01*
X124789054Y-86692857D02*
X124741435Y-86669047D01*
D10*
X108093452Y-94604819D02*
X107617262Y-94604819D01*
X107617262Y-94604819D02*
X107569643Y-95081009D01*
X107569643Y-95081009D02*
X107617262Y-95033390D01*
X107617262Y-95033390D02*
X107712500Y-94985771D01*
X107712500Y-94985771D02*
X107950595Y-94985771D01*
X107950595Y-94985771D02*
X108045833Y-95033390D01*
X108045833Y-95033390D02*
X108093452Y-95081009D01*
X108093452Y-95081009D02*
X108141071Y-95176247D01*
X108141071Y-95176247D02*
X108141071Y-95414342D01*
X108141071Y-95414342D02*
X108093452Y-95509580D01*
X108093452Y-95509580D02*
X108045833Y-95557200D01*
X108045833Y-95557200D02*
X107950595Y-95604819D01*
X107950595Y-95604819D02*
X107712500Y-95604819D01*
X107712500Y-95604819D02*
X107617262Y-95557200D01*
X107617262Y-95557200D02*
X107569643Y-95509580D01*
X108569643Y-95604819D02*
X108569643Y-94604819D01*
X108664881Y-95223866D02*
X108950595Y-95604819D01*
X108950595Y-94938152D02*
X108569643Y-95319104D01*
X109902976Y-95604819D02*
X109331548Y-95604819D01*
X109617262Y-95604819D02*
X109617262Y-94604819D01*
X109617262Y-94604819D02*
X109522024Y-94747676D01*
X109522024Y-94747676D02*
X109426786Y-94842914D01*
X109426786Y-94842914D02*
X109331548Y-94890533D01*
X110855357Y-95604819D02*
X110283929Y-95604819D01*
X110569643Y-95604819D02*
X110569643Y-94604819D01*
X110569643Y-94604819D02*
X110474405Y-94747676D01*
X110474405Y-94747676D02*
X110379167Y-94842914D01*
X110379167Y-94842914D02*
X110283929Y-94890533D01*
D12*
X109129166Y-93727149D02*
X108962500Y-93489054D01*
X108843452Y-93727149D02*
X108843452Y-93227149D01*
X108843452Y-93227149D02*
X109033928Y-93227149D01*
X109033928Y-93227149D02*
X109081547Y-93250959D01*
X109081547Y-93250959D02*
X109105357Y-93274768D01*
X109105357Y-93274768D02*
X109129166Y-93322387D01*
X109129166Y-93322387D02*
X109129166Y-93393816D01*
X109129166Y-93393816D02*
X109105357Y-93441435D01*
X109105357Y-93441435D02*
X109081547Y-93465244D01*
X109081547Y-93465244D02*
X109033928Y-93489054D01*
X109033928Y-93489054D02*
X108843452Y-93489054D01*
X109581547Y-93227149D02*
X109343452Y-93227149D01*
X109343452Y-93227149D02*
X109319643Y-93465244D01*
X109319643Y-93465244D02*
X109343452Y-93441435D01*
X109343452Y-93441435D02*
X109391071Y-93417625D01*
X109391071Y-93417625D02*
X109510119Y-93417625D01*
X109510119Y-93417625D02*
X109557738Y-93441435D01*
X109557738Y-93441435D02*
X109581547Y-93465244D01*
X109581547Y-93465244D02*
X109605357Y-93512863D01*
X109605357Y-93512863D02*
X109605357Y-93631911D01*
X109605357Y-93631911D02*
X109581547Y-93679530D01*
X109581547Y-93679530D02*
X109557738Y-93703340D01*
X109557738Y-93703340D02*
X109510119Y-93727149D01*
X109510119Y-93727149D02*
X109391071Y-93727149D01*
X109391071Y-93727149D02*
X109343452Y-93703340D01*
X109343452Y-93703340D02*
X109319643Y-93679530D01*
D10*
X127309523Y-90404819D02*
X126738095Y-90404819D01*
X127023809Y-90404819D02*
X127023809Y-89404819D01*
X127023809Y-89404819D02*
X126928571Y-89547676D01*
X126928571Y-89547676D02*
X126833333Y-89642914D01*
X126833333Y-89642914D02*
X126738095Y-89690533D01*
X127928571Y-89404819D02*
X128023809Y-89404819D01*
X128023809Y-89404819D02*
X128119047Y-89452438D01*
X128119047Y-89452438D02*
X128166666Y-89500057D01*
X128166666Y-89500057D02*
X128214285Y-89595295D01*
X128214285Y-89595295D02*
X128261904Y-89785771D01*
X128261904Y-89785771D02*
X128261904Y-90023866D01*
X128261904Y-90023866D02*
X128214285Y-90214342D01*
X128214285Y-90214342D02*
X128166666Y-90309580D01*
X128166666Y-90309580D02*
X128119047Y-90357200D01*
X128119047Y-90357200D02*
X128023809Y-90404819D01*
X128023809Y-90404819D02*
X127928571Y-90404819D01*
X127928571Y-90404819D02*
X127833333Y-90357200D01*
X127833333Y-90357200D02*
X127785714Y-90309580D01*
X127785714Y-90309580D02*
X127738095Y-90214342D01*
X127738095Y-90214342D02*
X127690476Y-90023866D01*
X127690476Y-90023866D02*
X127690476Y-89785771D01*
X127690476Y-89785771D02*
X127738095Y-89595295D01*
X127738095Y-89595295D02*
X127785714Y-89500057D01*
X127785714Y-89500057D02*
X127833333Y-89452438D01*
X127833333Y-89452438D02*
X127928571Y-89404819D01*
X128690476Y-90404819D02*
X128690476Y-89404819D01*
X129261904Y-90404819D02*
X128833333Y-89833390D01*
X129261904Y-89404819D02*
X128690476Y-89976247D01*
D12*
X127916666Y-88527149D02*
X127750000Y-88289054D01*
X127630952Y-88527149D02*
X127630952Y-88027149D01*
X127630952Y-88027149D02*
X127821428Y-88027149D01*
X127821428Y-88027149D02*
X127869047Y-88050959D01*
X127869047Y-88050959D02*
X127892857Y-88074768D01*
X127892857Y-88074768D02*
X127916666Y-88122387D01*
X127916666Y-88122387D02*
X127916666Y-88193816D01*
X127916666Y-88193816D02*
X127892857Y-88241435D01*
X127892857Y-88241435D02*
X127869047Y-88265244D01*
X127869047Y-88265244D02*
X127821428Y-88289054D01*
X127821428Y-88289054D02*
X127630952Y-88289054D01*
X128154762Y-88527149D02*
X128250000Y-88527149D01*
X128250000Y-88527149D02*
X128297619Y-88503340D01*
X128297619Y-88503340D02*
X128321428Y-88479530D01*
X128321428Y-88479530D02*
X128369047Y-88408101D01*
X128369047Y-88408101D02*
X128392857Y-88312863D01*
X128392857Y-88312863D02*
X128392857Y-88122387D01*
X128392857Y-88122387D02*
X128369047Y-88074768D01*
X128369047Y-88074768D02*
X128345238Y-88050959D01*
X128345238Y-88050959D02*
X128297619Y-88027149D01*
X128297619Y-88027149D02*
X128202381Y-88027149D01*
X128202381Y-88027149D02*
X128154762Y-88050959D01*
X128154762Y-88050959D02*
X128130952Y-88074768D01*
X128130952Y-88074768D02*
X128107143Y-88122387D01*
X128107143Y-88122387D02*
X128107143Y-88241435D01*
X128107143Y-88241435D02*
X128130952Y-88289054D01*
X128130952Y-88289054D02*
X128154762Y-88312863D01*
X128154762Y-88312863D02*
X128202381Y-88336673D01*
X128202381Y-88336673D02*
X128297619Y-88336673D01*
X128297619Y-88336673D02*
X128345238Y-88312863D01*
X128345238Y-88312863D02*
X128369047Y-88289054D01*
X128369047Y-88289054D02*
X128392857Y-88241435D01*
D10*
X99866666Y-84004819D02*
X100438094Y-84004819D01*
X100152380Y-85004819D02*
X100152380Y-84004819D01*
X101152380Y-84957200D02*
X101057142Y-85004819D01*
X101057142Y-85004819D02*
X100866666Y-85004819D01*
X100866666Y-85004819D02*
X100771428Y-84957200D01*
X100771428Y-84957200D02*
X100723809Y-84861961D01*
X100723809Y-84861961D02*
X100723809Y-84481009D01*
X100723809Y-84481009D02*
X100771428Y-84385771D01*
X100771428Y-84385771D02*
X100866666Y-84338152D01*
X100866666Y-84338152D02*
X101057142Y-84338152D01*
X101057142Y-84338152D02*
X101152380Y-84385771D01*
X101152380Y-84385771D02*
X101199999Y-84481009D01*
X101199999Y-84481009D02*
X101199999Y-84576247D01*
X101199999Y-84576247D02*
X100723809Y-84671485D01*
X101580952Y-84957200D02*
X101676190Y-85004819D01*
X101676190Y-85004819D02*
X101866666Y-85004819D01*
X101866666Y-85004819D02*
X101961904Y-84957200D01*
X101961904Y-84957200D02*
X102009523Y-84861961D01*
X102009523Y-84861961D02*
X102009523Y-84814342D01*
X102009523Y-84814342D02*
X101961904Y-84719104D01*
X101961904Y-84719104D02*
X101866666Y-84671485D01*
X101866666Y-84671485D02*
X101723809Y-84671485D01*
X101723809Y-84671485D02*
X101628571Y-84623866D01*
X101628571Y-84623866D02*
X101580952Y-84528628D01*
X101580952Y-84528628D02*
X101580952Y-84481009D01*
X101580952Y-84481009D02*
X101628571Y-84385771D01*
X101628571Y-84385771D02*
X101723809Y-84338152D01*
X101723809Y-84338152D02*
X101866666Y-84338152D01*
X101866666Y-84338152D02*
X101961904Y-84385771D01*
X102295238Y-84338152D02*
X102676190Y-84338152D01*
X102438095Y-84004819D02*
X102438095Y-84861961D01*
X102438095Y-84861961D02*
X102485714Y-84957200D01*
X102485714Y-84957200D02*
X102580952Y-85004819D01*
X102580952Y-85004819D02*
X102676190Y-85004819D01*
X103009524Y-85004819D02*
X103009524Y-84004819D01*
X103009524Y-84004819D02*
X103390476Y-84004819D01*
X103390476Y-84004819D02*
X103485714Y-84052438D01*
X103485714Y-84052438D02*
X103533333Y-84100057D01*
X103533333Y-84100057D02*
X103580952Y-84195295D01*
X103580952Y-84195295D02*
X103580952Y-84338152D01*
X103580952Y-84338152D02*
X103533333Y-84433390D01*
X103533333Y-84433390D02*
X103485714Y-84481009D01*
X103485714Y-84481009D02*
X103390476Y-84528628D01*
X103390476Y-84528628D02*
X103009524Y-84528628D01*
X104152381Y-85004819D02*
X104057143Y-84957200D01*
X104057143Y-84957200D02*
X104009524Y-84909580D01*
X104009524Y-84909580D02*
X103961905Y-84814342D01*
X103961905Y-84814342D02*
X103961905Y-84528628D01*
X103961905Y-84528628D02*
X104009524Y-84433390D01*
X104009524Y-84433390D02*
X104057143Y-84385771D01*
X104057143Y-84385771D02*
X104152381Y-84338152D01*
X104152381Y-84338152D02*
X104295238Y-84338152D01*
X104295238Y-84338152D02*
X104390476Y-84385771D01*
X104390476Y-84385771D02*
X104438095Y-84433390D01*
X104438095Y-84433390D02*
X104485714Y-84528628D01*
X104485714Y-84528628D02*
X104485714Y-84814342D01*
X104485714Y-84814342D02*
X104438095Y-84909580D01*
X104438095Y-84909580D02*
X104390476Y-84957200D01*
X104390476Y-84957200D02*
X104295238Y-85004819D01*
X104295238Y-85004819D02*
X104152381Y-85004819D01*
X104914286Y-85004819D02*
X104914286Y-84338152D01*
X104914286Y-84004819D02*
X104866667Y-84052438D01*
X104866667Y-84052438D02*
X104914286Y-84100057D01*
X104914286Y-84100057D02*
X104961905Y-84052438D01*
X104961905Y-84052438D02*
X104914286Y-84004819D01*
X104914286Y-84004819D02*
X104914286Y-84100057D01*
X105390476Y-84338152D02*
X105390476Y-85004819D01*
X105390476Y-84433390D02*
X105438095Y-84385771D01*
X105438095Y-84385771D02*
X105533333Y-84338152D01*
X105533333Y-84338152D02*
X105676190Y-84338152D01*
X105676190Y-84338152D02*
X105771428Y-84385771D01*
X105771428Y-84385771D02*
X105819047Y-84481009D01*
X105819047Y-84481009D02*
X105819047Y-85004819D01*
X106152381Y-84338152D02*
X106533333Y-84338152D01*
X106295238Y-84004819D02*
X106295238Y-84861961D01*
X106295238Y-84861961D02*
X106342857Y-84957200D01*
X106342857Y-84957200D02*
X106438095Y-85004819D01*
X106438095Y-85004819D02*
X106533333Y-85004819D01*
X101938095Y-81004819D02*
X102509523Y-81004819D01*
X102223809Y-82004819D02*
X102223809Y-81004819D01*
X102842857Y-82004819D02*
X102842857Y-81004819D01*
X102842857Y-81004819D02*
X103223809Y-81004819D01*
X103223809Y-81004819D02*
X103319047Y-81052438D01*
X103319047Y-81052438D02*
X103366666Y-81100057D01*
X103366666Y-81100057D02*
X103414285Y-81195295D01*
X103414285Y-81195295D02*
X103414285Y-81338152D01*
X103414285Y-81338152D02*
X103366666Y-81433390D01*
X103366666Y-81433390D02*
X103319047Y-81481009D01*
X103319047Y-81481009D02*
X103223809Y-81528628D01*
X103223809Y-81528628D02*
X102842857Y-81528628D01*
X103795238Y-81100057D02*
X103842857Y-81052438D01*
X103842857Y-81052438D02*
X103938095Y-81004819D01*
X103938095Y-81004819D02*
X104176190Y-81004819D01*
X104176190Y-81004819D02*
X104271428Y-81052438D01*
X104271428Y-81052438D02*
X104319047Y-81100057D01*
X104319047Y-81100057D02*
X104366666Y-81195295D01*
X104366666Y-81195295D02*
X104366666Y-81290533D01*
X104366666Y-81290533D02*
X104319047Y-81433390D01*
X104319047Y-81433390D02*
X103747619Y-82004819D01*
X103747619Y-82004819D02*
X104366666Y-82004819D01*
X95466666Y-83304819D02*
X96038094Y-83304819D01*
X95752380Y-84304819D02*
X95752380Y-83304819D01*
X96752380Y-84257200D02*
X96657142Y-84304819D01*
X96657142Y-84304819D02*
X96466666Y-84304819D01*
X96466666Y-84304819D02*
X96371428Y-84257200D01*
X96371428Y-84257200D02*
X96323809Y-84161961D01*
X96323809Y-84161961D02*
X96323809Y-83781009D01*
X96323809Y-83781009D02*
X96371428Y-83685771D01*
X96371428Y-83685771D02*
X96466666Y-83638152D01*
X96466666Y-83638152D02*
X96657142Y-83638152D01*
X96657142Y-83638152D02*
X96752380Y-83685771D01*
X96752380Y-83685771D02*
X96799999Y-83781009D01*
X96799999Y-83781009D02*
X96799999Y-83876247D01*
X96799999Y-83876247D02*
X96323809Y-83971485D01*
X97180952Y-84257200D02*
X97276190Y-84304819D01*
X97276190Y-84304819D02*
X97466666Y-84304819D01*
X97466666Y-84304819D02*
X97561904Y-84257200D01*
X97561904Y-84257200D02*
X97609523Y-84161961D01*
X97609523Y-84161961D02*
X97609523Y-84114342D01*
X97609523Y-84114342D02*
X97561904Y-84019104D01*
X97561904Y-84019104D02*
X97466666Y-83971485D01*
X97466666Y-83971485D02*
X97323809Y-83971485D01*
X97323809Y-83971485D02*
X97228571Y-83923866D01*
X97228571Y-83923866D02*
X97180952Y-83828628D01*
X97180952Y-83828628D02*
X97180952Y-83781009D01*
X97180952Y-83781009D02*
X97228571Y-83685771D01*
X97228571Y-83685771D02*
X97323809Y-83638152D01*
X97323809Y-83638152D02*
X97466666Y-83638152D01*
X97466666Y-83638152D02*
X97561904Y-83685771D01*
X97895238Y-83638152D02*
X98276190Y-83638152D01*
X98038095Y-83304819D02*
X98038095Y-84161961D01*
X98038095Y-84161961D02*
X98085714Y-84257200D01*
X98085714Y-84257200D02*
X98180952Y-84304819D01*
X98180952Y-84304819D02*
X98276190Y-84304819D01*
X98609524Y-84304819D02*
X98609524Y-83304819D01*
X98609524Y-83304819D02*
X98990476Y-83304819D01*
X98990476Y-83304819D02*
X99085714Y-83352438D01*
X99085714Y-83352438D02*
X99133333Y-83400057D01*
X99133333Y-83400057D02*
X99180952Y-83495295D01*
X99180952Y-83495295D02*
X99180952Y-83638152D01*
X99180952Y-83638152D02*
X99133333Y-83733390D01*
X99133333Y-83733390D02*
X99085714Y-83781009D01*
X99085714Y-83781009D02*
X98990476Y-83828628D01*
X98990476Y-83828628D02*
X98609524Y-83828628D01*
X99752381Y-84304819D02*
X99657143Y-84257200D01*
X99657143Y-84257200D02*
X99609524Y-84209580D01*
X99609524Y-84209580D02*
X99561905Y-84114342D01*
X99561905Y-84114342D02*
X99561905Y-83828628D01*
X99561905Y-83828628D02*
X99609524Y-83733390D01*
X99609524Y-83733390D02*
X99657143Y-83685771D01*
X99657143Y-83685771D02*
X99752381Y-83638152D01*
X99752381Y-83638152D02*
X99895238Y-83638152D01*
X99895238Y-83638152D02*
X99990476Y-83685771D01*
X99990476Y-83685771D02*
X100038095Y-83733390D01*
X100038095Y-83733390D02*
X100085714Y-83828628D01*
X100085714Y-83828628D02*
X100085714Y-84114342D01*
X100085714Y-84114342D02*
X100038095Y-84209580D01*
X100038095Y-84209580D02*
X99990476Y-84257200D01*
X99990476Y-84257200D02*
X99895238Y-84304819D01*
X99895238Y-84304819D02*
X99752381Y-84304819D01*
X100514286Y-84304819D02*
X100514286Y-83638152D01*
X100514286Y-83304819D02*
X100466667Y-83352438D01*
X100466667Y-83352438D02*
X100514286Y-83400057D01*
X100514286Y-83400057D02*
X100561905Y-83352438D01*
X100561905Y-83352438D02*
X100514286Y-83304819D01*
X100514286Y-83304819D02*
X100514286Y-83400057D01*
X100990476Y-83638152D02*
X100990476Y-84304819D01*
X100990476Y-83733390D02*
X101038095Y-83685771D01*
X101038095Y-83685771D02*
X101133333Y-83638152D01*
X101133333Y-83638152D02*
X101276190Y-83638152D01*
X101276190Y-83638152D02*
X101371428Y-83685771D01*
X101371428Y-83685771D02*
X101419047Y-83781009D01*
X101419047Y-83781009D02*
X101419047Y-84304819D01*
X101752381Y-83638152D02*
X102133333Y-83638152D01*
X101895238Y-83304819D02*
X101895238Y-84161961D01*
X101895238Y-84161961D02*
X101942857Y-84257200D01*
X101942857Y-84257200D02*
X102038095Y-84304819D01*
X102038095Y-84304819D02*
X102133333Y-84304819D01*
X97538095Y-80304819D02*
X98109523Y-80304819D01*
X97823809Y-81304819D02*
X97823809Y-80304819D01*
X98442857Y-81304819D02*
X98442857Y-80304819D01*
X98442857Y-80304819D02*
X98823809Y-80304819D01*
X98823809Y-80304819D02*
X98919047Y-80352438D01*
X98919047Y-80352438D02*
X98966666Y-80400057D01*
X98966666Y-80400057D02*
X99014285Y-80495295D01*
X99014285Y-80495295D02*
X99014285Y-80638152D01*
X99014285Y-80638152D02*
X98966666Y-80733390D01*
X98966666Y-80733390D02*
X98919047Y-80781009D01*
X98919047Y-80781009D02*
X98823809Y-80828628D01*
X98823809Y-80828628D02*
X98442857Y-80828628D01*
X99871428Y-80638152D02*
X99871428Y-81304819D01*
X99633333Y-80257200D02*
X99395238Y-80971485D01*
X99395238Y-80971485D02*
X100014285Y-80971485D01*
X104904819Y-76090476D02*
X104904819Y-76661904D01*
X104904819Y-76376190D02*
X103904819Y-76376190D01*
X103904819Y-76376190D02*
X104047676Y-76471428D01*
X104047676Y-76471428D02*
X104142914Y-76566666D01*
X104142914Y-76566666D02*
X104190533Y-76661904D01*
X103904819Y-75471428D02*
X103904819Y-75376190D01*
X103904819Y-75376190D02*
X103952438Y-75280952D01*
X103952438Y-75280952D02*
X104000057Y-75233333D01*
X104000057Y-75233333D02*
X104095295Y-75185714D01*
X104095295Y-75185714D02*
X104285771Y-75138095D01*
X104285771Y-75138095D02*
X104523866Y-75138095D01*
X104523866Y-75138095D02*
X104714342Y-75185714D01*
X104714342Y-75185714D02*
X104809580Y-75233333D01*
X104809580Y-75233333D02*
X104857200Y-75280952D01*
X104857200Y-75280952D02*
X104904819Y-75376190D01*
X104904819Y-75376190D02*
X104904819Y-75471428D01*
X104904819Y-75471428D02*
X104857200Y-75566666D01*
X104857200Y-75566666D02*
X104809580Y-75614285D01*
X104809580Y-75614285D02*
X104714342Y-75661904D01*
X104714342Y-75661904D02*
X104523866Y-75709523D01*
X104523866Y-75709523D02*
X104285771Y-75709523D01*
X104285771Y-75709523D02*
X104095295Y-75661904D01*
X104095295Y-75661904D02*
X104000057Y-75614285D01*
X104000057Y-75614285D02*
X103952438Y-75566666D01*
X103952438Y-75566666D02*
X103904819Y-75471428D01*
X104904819Y-74709523D02*
X103904819Y-74709523D01*
X104904819Y-74138095D02*
X104333390Y-74566666D01*
X103904819Y-74138095D02*
X104476247Y-74709523D01*
D12*
X103027149Y-75483333D02*
X102789054Y-75649999D01*
X103027149Y-75769047D02*
X102527149Y-75769047D01*
X102527149Y-75769047D02*
X102527149Y-75578571D01*
X102527149Y-75578571D02*
X102550959Y-75530952D01*
X102550959Y-75530952D02*
X102574768Y-75507142D01*
X102574768Y-75507142D02*
X102622387Y-75483333D01*
X102622387Y-75483333D02*
X102693816Y-75483333D01*
X102693816Y-75483333D02*
X102741435Y-75507142D01*
X102741435Y-75507142D02*
X102765244Y-75530952D01*
X102765244Y-75530952D02*
X102789054Y-75578571D01*
X102789054Y-75578571D02*
X102789054Y-75769047D01*
X103027149Y-75007142D02*
X103027149Y-75292856D01*
X103027149Y-75149999D02*
X102527149Y-75149999D01*
X102527149Y-75149999D02*
X102598578Y-75197618D01*
X102598578Y-75197618D02*
X102646197Y-75245237D01*
X102646197Y-75245237D02*
X102670006Y-75292856D01*
D10*
X105334819Y-80747619D02*
X105334819Y-81319047D01*
X105334819Y-81033333D02*
X104334819Y-81033333D01*
X104334819Y-81033333D02*
X104477676Y-81128571D01*
X104477676Y-81128571D02*
X104572914Y-81223809D01*
X104572914Y-81223809D02*
X104620533Y-81319047D01*
X104334819Y-80128571D02*
X104334819Y-80033333D01*
X104334819Y-80033333D02*
X104382438Y-79938095D01*
X104382438Y-79938095D02*
X104430057Y-79890476D01*
X104430057Y-79890476D02*
X104525295Y-79842857D01*
X104525295Y-79842857D02*
X104715771Y-79795238D01*
X104715771Y-79795238D02*
X104953866Y-79795238D01*
X104953866Y-79795238D02*
X105144342Y-79842857D01*
X105144342Y-79842857D02*
X105239580Y-79890476D01*
X105239580Y-79890476D02*
X105287200Y-79938095D01*
X105287200Y-79938095D02*
X105334819Y-80033333D01*
X105334819Y-80033333D02*
X105334819Y-80128571D01*
X105334819Y-80128571D02*
X105287200Y-80223809D01*
X105287200Y-80223809D02*
X105239580Y-80271428D01*
X105239580Y-80271428D02*
X105144342Y-80319047D01*
X105144342Y-80319047D02*
X104953866Y-80366666D01*
X104953866Y-80366666D02*
X104715771Y-80366666D01*
X104715771Y-80366666D02*
X104525295Y-80319047D01*
X104525295Y-80319047D02*
X104430057Y-80271428D01*
X104430057Y-80271428D02*
X104382438Y-80223809D01*
X104382438Y-80223809D02*
X104334819Y-80128571D01*
X104334819Y-79176190D02*
X104334819Y-79080952D01*
X104334819Y-79080952D02*
X104382438Y-78985714D01*
X104382438Y-78985714D02*
X104430057Y-78938095D01*
X104430057Y-78938095D02*
X104525295Y-78890476D01*
X104525295Y-78890476D02*
X104715771Y-78842857D01*
X104715771Y-78842857D02*
X104953866Y-78842857D01*
X104953866Y-78842857D02*
X105144342Y-78890476D01*
X105144342Y-78890476D02*
X105239580Y-78938095D01*
X105239580Y-78938095D02*
X105287200Y-78985714D01*
X105287200Y-78985714D02*
X105334819Y-79080952D01*
X105334819Y-79080952D02*
X105334819Y-79176190D01*
X105334819Y-79176190D02*
X105287200Y-79271428D01*
X105287200Y-79271428D02*
X105239580Y-79319047D01*
X105239580Y-79319047D02*
X105144342Y-79366666D01*
X105144342Y-79366666D02*
X104953866Y-79414285D01*
X104953866Y-79414285D02*
X104715771Y-79414285D01*
X104715771Y-79414285D02*
X104525295Y-79366666D01*
X104525295Y-79366666D02*
X104430057Y-79319047D01*
X104430057Y-79319047D02*
X104382438Y-79271428D01*
X104382438Y-79271428D02*
X104334819Y-79176190D01*
X104668152Y-78414285D02*
X105334819Y-78414285D01*
X104763390Y-78414285D02*
X104715771Y-78366666D01*
X104715771Y-78366666D02*
X104668152Y-78271428D01*
X104668152Y-78271428D02*
X104668152Y-78128571D01*
X104668152Y-78128571D02*
X104715771Y-78033333D01*
X104715771Y-78033333D02*
X104811009Y-77985714D01*
X104811009Y-77985714D02*
X105334819Y-77985714D01*
X104811009Y-77176190D02*
X104811009Y-77509523D01*
X105334819Y-77509523D02*
X104334819Y-77509523D01*
X104334819Y-77509523D02*
X104334819Y-77033333D01*
D12*
X103379530Y-79283333D02*
X103403340Y-79307142D01*
X103403340Y-79307142D02*
X103427149Y-79378571D01*
X103427149Y-79378571D02*
X103427149Y-79426190D01*
X103427149Y-79426190D02*
X103403340Y-79497618D01*
X103403340Y-79497618D02*
X103355720Y-79545237D01*
X103355720Y-79545237D02*
X103308101Y-79569047D01*
X103308101Y-79569047D02*
X103212863Y-79592856D01*
X103212863Y-79592856D02*
X103141435Y-79592856D01*
X103141435Y-79592856D02*
X103046197Y-79569047D01*
X103046197Y-79569047D02*
X102998578Y-79545237D01*
X102998578Y-79545237D02*
X102950959Y-79497618D01*
X102950959Y-79497618D02*
X102927149Y-79426190D01*
X102927149Y-79426190D02*
X102927149Y-79378571D01*
X102927149Y-79378571D02*
X102950959Y-79307142D01*
X102950959Y-79307142D02*
X102974768Y-79283333D01*
X103427149Y-78807142D02*
X103427149Y-79092856D01*
X103427149Y-78949999D02*
X102927149Y-78949999D01*
X102927149Y-78949999D02*
X102998578Y-78997618D01*
X102998578Y-78997618D02*
X103046197Y-79045237D01*
X103046197Y-79045237D02*
X103070006Y-79092856D01*
D10*
X141252438Y-88464286D02*
X141204819Y-88559524D01*
X141204819Y-88559524D02*
X141204819Y-88702381D01*
X141204819Y-88702381D02*
X141252438Y-88845238D01*
X141252438Y-88845238D02*
X141347676Y-88940476D01*
X141347676Y-88940476D02*
X141442914Y-88988095D01*
X141442914Y-88988095D02*
X141633390Y-89035714D01*
X141633390Y-89035714D02*
X141776247Y-89035714D01*
X141776247Y-89035714D02*
X141966723Y-88988095D01*
X141966723Y-88988095D02*
X142061961Y-88940476D01*
X142061961Y-88940476D02*
X142157200Y-88845238D01*
X142157200Y-88845238D02*
X142204819Y-88702381D01*
X142204819Y-88702381D02*
X142204819Y-88607143D01*
X142204819Y-88607143D02*
X142157200Y-88464286D01*
X142157200Y-88464286D02*
X142109580Y-88416667D01*
X142109580Y-88416667D02*
X141776247Y-88416667D01*
X141776247Y-88416667D02*
X141776247Y-88607143D01*
X142109580Y-87416667D02*
X142157200Y-87464286D01*
X142157200Y-87464286D02*
X142204819Y-87607143D01*
X142204819Y-87607143D02*
X142204819Y-87702381D01*
X142204819Y-87702381D02*
X142157200Y-87845238D01*
X142157200Y-87845238D02*
X142061961Y-87940476D01*
X142061961Y-87940476D02*
X141966723Y-87988095D01*
X141966723Y-87988095D02*
X141776247Y-88035714D01*
X141776247Y-88035714D02*
X141633390Y-88035714D01*
X141633390Y-88035714D02*
X141442914Y-87988095D01*
X141442914Y-87988095D02*
X141347676Y-87940476D01*
X141347676Y-87940476D02*
X141252438Y-87845238D01*
X141252438Y-87845238D02*
X141204819Y-87702381D01*
X141204819Y-87702381D02*
X141204819Y-87607143D01*
X141204819Y-87607143D02*
X141252438Y-87464286D01*
X141252438Y-87464286D02*
X141300057Y-87416667D01*
X142204819Y-86940476D02*
X142204819Y-86750000D01*
X142204819Y-86750000D02*
X142157200Y-86654762D01*
X142157200Y-86654762D02*
X142109580Y-86607143D01*
X142109580Y-86607143D02*
X141966723Y-86511905D01*
X141966723Y-86511905D02*
X141776247Y-86464286D01*
X141776247Y-86464286D02*
X141395295Y-86464286D01*
X141395295Y-86464286D02*
X141300057Y-86511905D01*
X141300057Y-86511905D02*
X141252438Y-86559524D01*
X141252438Y-86559524D02*
X141204819Y-86654762D01*
X141204819Y-86654762D02*
X141204819Y-86845238D01*
X141204819Y-86845238D02*
X141252438Y-86940476D01*
X141252438Y-86940476D02*
X141300057Y-86988095D01*
X141300057Y-86988095D02*
X141395295Y-87035714D01*
X141395295Y-87035714D02*
X141633390Y-87035714D01*
X141633390Y-87035714D02*
X141728628Y-86988095D01*
X141728628Y-86988095D02*
X141776247Y-86940476D01*
X141776247Y-86940476D02*
X141823866Y-86845238D01*
X141823866Y-86845238D02*
X141823866Y-86654762D01*
X141823866Y-86654762D02*
X141776247Y-86559524D01*
X141776247Y-86559524D02*
X141728628Y-86511905D01*
X141728628Y-86511905D02*
X141633390Y-86464286D01*
X141919104Y-86083333D02*
X141919104Y-85607143D01*
X142204819Y-86178571D02*
X141204819Y-85845238D01*
X141204819Y-85845238D02*
X142204819Y-85511905D01*
X141204819Y-84988095D02*
X141204819Y-84892857D01*
X141204819Y-84892857D02*
X141252438Y-84797619D01*
X141252438Y-84797619D02*
X141300057Y-84750000D01*
X141300057Y-84750000D02*
X141395295Y-84702381D01*
X141395295Y-84702381D02*
X141585771Y-84654762D01*
X141585771Y-84654762D02*
X141823866Y-84654762D01*
X141823866Y-84654762D02*
X142014342Y-84702381D01*
X142014342Y-84702381D02*
X142109580Y-84750000D01*
X142109580Y-84750000D02*
X142157200Y-84797619D01*
X142157200Y-84797619D02*
X142204819Y-84892857D01*
X142204819Y-84892857D02*
X142204819Y-84988095D01*
X142204819Y-84988095D02*
X142157200Y-85083333D01*
X142157200Y-85083333D02*
X142109580Y-85130952D01*
X142109580Y-85130952D02*
X142014342Y-85178571D01*
X142014342Y-85178571D02*
X141823866Y-85226190D01*
X141823866Y-85226190D02*
X141585771Y-85226190D01*
X141585771Y-85226190D02*
X141395295Y-85178571D01*
X141395295Y-85178571D02*
X141300057Y-85130952D01*
X141300057Y-85130952D02*
X141252438Y-85083333D01*
X141252438Y-85083333D02*
X141204819Y-84988095D01*
X142204819Y-83702381D02*
X142204819Y-84273809D01*
X142204819Y-83988095D02*
X141204819Y-83988095D01*
X141204819Y-83988095D02*
X141347676Y-84083333D01*
X141347676Y-84083333D02*
X141442914Y-84178571D01*
X141442914Y-84178571D02*
X141490533Y-84273809D01*
X142300057Y-83511905D02*
X142300057Y-82750000D01*
X142204819Y-82511904D02*
X141204819Y-82511904D01*
X142204819Y-82035714D02*
X141204819Y-82035714D01*
X141204819Y-82035714D02*
X141204819Y-81654762D01*
X141204819Y-81654762D02*
X141252438Y-81559524D01*
X141252438Y-81559524D02*
X141300057Y-81511905D01*
X141300057Y-81511905D02*
X141395295Y-81464286D01*
X141395295Y-81464286D02*
X141538152Y-81464286D01*
X141538152Y-81464286D02*
X141633390Y-81511905D01*
X141633390Y-81511905D02*
X141681009Y-81559524D01*
X141681009Y-81559524D02*
X141728628Y-81654762D01*
X141728628Y-81654762D02*
X141728628Y-82035714D01*
X142157200Y-81083333D02*
X142204819Y-80940476D01*
X142204819Y-80940476D02*
X142204819Y-80702381D01*
X142204819Y-80702381D02*
X142157200Y-80607143D01*
X142157200Y-80607143D02*
X142109580Y-80559524D01*
X142109580Y-80559524D02*
X142014342Y-80511905D01*
X142014342Y-80511905D02*
X141919104Y-80511905D01*
X141919104Y-80511905D02*
X141823866Y-80559524D01*
X141823866Y-80559524D02*
X141776247Y-80607143D01*
X141776247Y-80607143D02*
X141728628Y-80702381D01*
X141728628Y-80702381D02*
X141681009Y-80892857D01*
X141681009Y-80892857D02*
X141633390Y-80988095D01*
X141633390Y-80988095D02*
X141585771Y-81035714D01*
X141585771Y-81035714D02*
X141490533Y-81083333D01*
X141490533Y-81083333D02*
X141395295Y-81083333D01*
X141395295Y-81083333D02*
X141300057Y-81035714D01*
X141300057Y-81035714D02*
X141252438Y-80988095D01*
X141252438Y-80988095D02*
X141204819Y-80892857D01*
X141204819Y-80892857D02*
X141204819Y-80654762D01*
X141204819Y-80654762D02*
X141252438Y-80511905D01*
X142300057Y-80321429D02*
X142300057Y-79559524D01*
X142204819Y-78892857D02*
X141204819Y-78892857D01*
X142157200Y-78892857D02*
X142204819Y-78988095D01*
X142204819Y-78988095D02*
X142204819Y-79178571D01*
X142204819Y-79178571D02*
X142157200Y-79273809D01*
X142157200Y-79273809D02*
X142109580Y-79321428D01*
X142109580Y-79321428D02*
X142014342Y-79369047D01*
X142014342Y-79369047D02*
X141728628Y-79369047D01*
X141728628Y-79369047D02*
X141633390Y-79321428D01*
X141633390Y-79321428D02*
X141585771Y-79273809D01*
X141585771Y-79273809D02*
X141538152Y-79178571D01*
X141538152Y-79178571D02*
X141538152Y-78988095D01*
X141538152Y-78988095D02*
X141585771Y-78892857D01*
X142204819Y-78416666D02*
X141538152Y-78416666D01*
X141204819Y-78416666D02*
X141252438Y-78464285D01*
X141252438Y-78464285D02*
X141300057Y-78416666D01*
X141300057Y-78416666D02*
X141252438Y-78369047D01*
X141252438Y-78369047D02*
X141204819Y-78416666D01*
X141204819Y-78416666D02*
X141300057Y-78416666D01*
X142157200Y-77988095D02*
X142204819Y-77892857D01*
X142204819Y-77892857D02*
X142204819Y-77702381D01*
X142204819Y-77702381D02*
X142157200Y-77607143D01*
X142157200Y-77607143D02*
X142061961Y-77559524D01*
X142061961Y-77559524D02*
X142014342Y-77559524D01*
X142014342Y-77559524D02*
X141919104Y-77607143D01*
X141919104Y-77607143D02*
X141871485Y-77702381D01*
X141871485Y-77702381D02*
X141871485Y-77845238D01*
X141871485Y-77845238D02*
X141823866Y-77940476D01*
X141823866Y-77940476D02*
X141728628Y-77988095D01*
X141728628Y-77988095D02*
X141681009Y-77988095D01*
X141681009Y-77988095D02*
X141585771Y-77940476D01*
X141585771Y-77940476D02*
X141538152Y-77845238D01*
X141538152Y-77845238D02*
X141538152Y-77702381D01*
X141538152Y-77702381D02*
X141585771Y-77607143D01*
X141538152Y-77130952D02*
X142538152Y-77130952D01*
X141585771Y-77130952D02*
X141538152Y-77035714D01*
X141538152Y-77035714D02*
X141538152Y-76845238D01*
X141538152Y-76845238D02*
X141585771Y-76750000D01*
X141585771Y-76750000D02*
X141633390Y-76702381D01*
X141633390Y-76702381D02*
X141728628Y-76654762D01*
X141728628Y-76654762D02*
X142014342Y-76654762D01*
X142014342Y-76654762D02*
X142109580Y-76702381D01*
X142109580Y-76702381D02*
X142157200Y-76750000D01*
X142157200Y-76750000D02*
X142204819Y-76845238D01*
X142204819Y-76845238D02*
X142204819Y-77035714D01*
X142204819Y-77035714D02*
X142157200Y-77130952D01*
X142204819Y-76083333D02*
X142157200Y-76178571D01*
X142157200Y-76178571D02*
X142061961Y-76226190D01*
X142061961Y-76226190D02*
X141204819Y-76226190D01*
X142204819Y-75273809D02*
X141681009Y-75273809D01*
X141681009Y-75273809D02*
X141585771Y-75321428D01*
X141585771Y-75321428D02*
X141538152Y-75416666D01*
X141538152Y-75416666D02*
X141538152Y-75607142D01*
X141538152Y-75607142D02*
X141585771Y-75702380D01*
X142157200Y-75273809D02*
X142204819Y-75369047D01*
X142204819Y-75369047D02*
X142204819Y-75607142D01*
X142204819Y-75607142D02*
X142157200Y-75702380D01*
X142157200Y-75702380D02*
X142061961Y-75749999D01*
X142061961Y-75749999D02*
X141966723Y-75749999D01*
X141966723Y-75749999D02*
X141871485Y-75702380D01*
X141871485Y-75702380D02*
X141823866Y-75607142D01*
X141823866Y-75607142D02*
X141823866Y-75369047D01*
X141823866Y-75369047D02*
X141776247Y-75273809D01*
X141538152Y-74892856D02*
X142204819Y-74654761D01*
X141538152Y-74416666D02*
X142204819Y-74654761D01*
X142204819Y-74654761D02*
X142442914Y-74749999D01*
X142442914Y-74749999D02*
X142490533Y-74797618D01*
X142490533Y-74797618D02*
X142538152Y-74892856D01*
X108252381Y-93204819D02*
X108347619Y-93204819D01*
X108347619Y-93204819D02*
X108442857Y-93252438D01*
X108442857Y-93252438D02*
X108490476Y-93300057D01*
X108490476Y-93300057D02*
X108538095Y-93395295D01*
X108538095Y-93395295D02*
X108585714Y-93585771D01*
X108585714Y-93585771D02*
X108585714Y-93823866D01*
X108585714Y-93823866D02*
X108538095Y-94014342D01*
X108538095Y-94014342D02*
X108490476Y-94109580D01*
X108490476Y-94109580D02*
X108442857Y-94157200D01*
X108442857Y-94157200D02*
X108347619Y-94204819D01*
X108347619Y-94204819D02*
X108252381Y-94204819D01*
X108252381Y-94204819D02*
X108157143Y-94157200D01*
X108157143Y-94157200D02*
X108109524Y-94109580D01*
X108109524Y-94109580D02*
X108061905Y-94014342D01*
X108061905Y-94014342D02*
X108014286Y-93823866D01*
X108014286Y-93823866D02*
X108014286Y-93585771D01*
X108014286Y-93585771D02*
X108061905Y-93395295D01*
X108061905Y-93395295D02*
X108109524Y-93300057D01*
X108109524Y-93300057D02*
X108157143Y-93252438D01*
X108157143Y-93252438D02*
X108252381Y-93204819D01*
X109585714Y-94204819D02*
X109252381Y-93728628D01*
X109014286Y-94204819D02*
X109014286Y-93204819D01*
X109014286Y-93204819D02*
X109395238Y-93204819D01*
X109395238Y-93204819D02*
X109490476Y-93252438D01*
X109490476Y-93252438D02*
X109538095Y-93300057D01*
X109538095Y-93300057D02*
X109585714Y-93395295D01*
X109585714Y-93395295D02*
X109585714Y-93538152D01*
X109585714Y-93538152D02*
X109538095Y-93633390D01*
X109538095Y-93633390D02*
X109490476Y-93681009D01*
X109490476Y-93681009D02*
X109395238Y-93728628D01*
X109395238Y-93728628D02*
X109014286Y-93728628D01*
D12*
X108716666Y-95627149D02*
X108550000Y-95389054D01*
X108430952Y-95627149D02*
X108430952Y-95127149D01*
X108430952Y-95127149D02*
X108621428Y-95127149D01*
X108621428Y-95127149D02*
X108669047Y-95150959D01*
X108669047Y-95150959D02*
X108692857Y-95174768D01*
X108692857Y-95174768D02*
X108716666Y-95222387D01*
X108716666Y-95222387D02*
X108716666Y-95293816D01*
X108716666Y-95293816D02*
X108692857Y-95341435D01*
X108692857Y-95341435D02*
X108669047Y-95365244D01*
X108669047Y-95365244D02*
X108621428Y-95389054D01*
X108621428Y-95389054D02*
X108430952Y-95389054D01*
X109002381Y-95341435D02*
X108954762Y-95317625D01*
X108954762Y-95317625D02*
X108930952Y-95293816D01*
X108930952Y-95293816D02*
X108907143Y-95246197D01*
X108907143Y-95246197D02*
X108907143Y-95222387D01*
X108907143Y-95222387D02*
X108930952Y-95174768D01*
X108930952Y-95174768D02*
X108954762Y-95150959D01*
X108954762Y-95150959D02*
X109002381Y-95127149D01*
X109002381Y-95127149D02*
X109097619Y-95127149D01*
X109097619Y-95127149D02*
X109145238Y-95150959D01*
X109145238Y-95150959D02*
X109169047Y-95174768D01*
X109169047Y-95174768D02*
X109192857Y-95222387D01*
X109192857Y-95222387D02*
X109192857Y-95246197D01*
X109192857Y-95246197D02*
X109169047Y-95293816D01*
X109169047Y-95293816D02*
X109145238Y-95317625D01*
X109145238Y-95317625D02*
X109097619Y-95341435D01*
X109097619Y-95341435D02*
X109002381Y-95341435D01*
X109002381Y-95341435D02*
X108954762Y-95365244D01*
X108954762Y-95365244D02*
X108930952Y-95389054D01*
X108930952Y-95389054D02*
X108907143Y-95436673D01*
X108907143Y-95436673D02*
X108907143Y-95531911D01*
X108907143Y-95531911D02*
X108930952Y-95579530D01*
X108930952Y-95579530D02*
X108954762Y-95603340D01*
X108954762Y-95603340D02*
X109002381Y-95627149D01*
X109002381Y-95627149D02*
X109097619Y-95627149D01*
X109097619Y-95627149D02*
X109145238Y-95603340D01*
X109145238Y-95603340D02*
X109169047Y-95579530D01*
X109169047Y-95579530D02*
X109192857Y-95531911D01*
X109192857Y-95531911D02*
X109192857Y-95436673D01*
X109192857Y-95436673D02*
X109169047Y-95389054D01*
X109169047Y-95389054D02*
X109145238Y-95365244D01*
X109145238Y-95365244D02*
X109097619Y-95341435D01*
D10*
X100338095Y-82391366D02*
X100385714Y-82343747D01*
X100385714Y-82343747D02*
X100480952Y-82296128D01*
X100480952Y-82296128D02*
X100671428Y-82391366D01*
X100671428Y-82391366D02*
X100766666Y-82343747D01*
X100766666Y-82343747D02*
X100814285Y-82296128D01*
D13*
X100028571Y-84728744D02*
X100028571Y-85335887D01*
X100028571Y-85335887D02*
X100064285Y-85407315D01*
X100064285Y-85407315D02*
X100100000Y-85443030D01*
X100100000Y-85443030D02*
X100171428Y-85478744D01*
X100171428Y-85478744D02*
X100314285Y-85478744D01*
X100314285Y-85478744D02*
X100385714Y-85443030D01*
X100385714Y-85443030D02*
X100421428Y-85407315D01*
X100421428Y-85407315D02*
X100457142Y-85335887D01*
X100457142Y-85335887D02*
X100457142Y-84728744D01*
X100742856Y-84728744D02*
X101242856Y-84728744D01*
X101242856Y-84728744D02*
X100921428Y-85478744D01*
D10*
X123466666Y-87704819D02*
X124038094Y-87704819D01*
X123752380Y-88704819D02*
X123752380Y-87704819D01*
X124752380Y-88657200D02*
X124657142Y-88704819D01*
X124657142Y-88704819D02*
X124466666Y-88704819D01*
X124466666Y-88704819D02*
X124371428Y-88657200D01*
X124371428Y-88657200D02*
X124323809Y-88561961D01*
X124323809Y-88561961D02*
X124323809Y-88181009D01*
X124323809Y-88181009D02*
X124371428Y-88085771D01*
X124371428Y-88085771D02*
X124466666Y-88038152D01*
X124466666Y-88038152D02*
X124657142Y-88038152D01*
X124657142Y-88038152D02*
X124752380Y-88085771D01*
X124752380Y-88085771D02*
X124799999Y-88181009D01*
X124799999Y-88181009D02*
X124799999Y-88276247D01*
X124799999Y-88276247D02*
X124323809Y-88371485D01*
X125180952Y-88657200D02*
X125276190Y-88704819D01*
X125276190Y-88704819D02*
X125466666Y-88704819D01*
X125466666Y-88704819D02*
X125561904Y-88657200D01*
X125561904Y-88657200D02*
X125609523Y-88561961D01*
X125609523Y-88561961D02*
X125609523Y-88514342D01*
X125609523Y-88514342D02*
X125561904Y-88419104D01*
X125561904Y-88419104D02*
X125466666Y-88371485D01*
X125466666Y-88371485D02*
X125323809Y-88371485D01*
X125323809Y-88371485D02*
X125228571Y-88323866D01*
X125228571Y-88323866D02*
X125180952Y-88228628D01*
X125180952Y-88228628D02*
X125180952Y-88181009D01*
X125180952Y-88181009D02*
X125228571Y-88085771D01*
X125228571Y-88085771D02*
X125323809Y-88038152D01*
X125323809Y-88038152D02*
X125466666Y-88038152D01*
X125466666Y-88038152D02*
X125561904Y-88085771D01*
X125895238Y-88038152D02*
X126276190Y-88038152D01*
X126038095Y-87704819D02*
X126038095Y-88561961D01*
X126038095Y-88561961D02*
X126085714Y-88657200D01*
X126085714Y-88657200D02*
X126180952Y-88704819D01*
X126180952Y-88704819D02*
X126276190Y-88704819D01*
X126609524Y-88704819D02*
X126609524Y-87704819D01*
X126609524Y-87704819D02*
X126990476Y-87704819D01*
X126990476Y-87704819D02*
X127085714Y-87752438D01*
X127085714Y-87752438D02*
X127133333Y-87800057D01*
X127133333Y-87800057D02*
X127180952Y-87895295D01*
X127180952Y-87895295D02*
X127180952Y-88038152D01*
X127180952Y-88038152D02*
X127133333Y-88133390D01*
X127133333Y-88133390D02*
X127085714Y-88181009D01*
X127085714Y-88181009D02*
X126990476Y-88228628D01*
X126990476Y-88228628D02*
X126609524Y-88228628D01*
X127752381Y-88704819D02*
X127657143Y-88657200D01*
X127657143Y-88657200D02*
X127609524Y-88609580D01*
X127609524Y-88609580D02*
X127561905Y-88514342D01*
X127561905Y-88514342D02*
X127561905Y-88228628D01*
X127561905Y-88228628D02*
X127609524Y-88133390D01*
X127609524Y-88133390D02*
X127657143Y-88085771D01*
X127657143Y-88085771D02*
X127752381Y-88038152D01*
X127752381Y-88038152D02*
X127895238Y-88038152D01*
X127895238Y-88038152D02*
X127990476Y-88085771D01*
X127990476Y-88085771D02*
X128038095Y-88133390D01*
X128038095Y-88133390D02*
X128085714Y-88228628D01*
X128085714Y-88228628D02*
X128085714Y-88514342D01*
X128085714Y-88514342D02*
X128038095Y-88609580D01*
X128038095Y-88609580D02*
X127990476Y-88657200D01*
X127990476Y-88657200D02*
X127895238Y-88704819D01*
X127895238Y-88704819D02*
X127752381Y-88704819D01*
X128514286Y-88704819D02*
X128514286Y-88038152D01*
X128514286Y-87704819D02*
X128466667Y-87752438D01*
X128466667Y-87752438D02*
X128514286Y-87800057D01*
X128514286Y-87800057D02*
X128561905Y-87752438D01*
X128561905Y-87752438D02*
X128514286Y-87704819D01*
X128514286Y-87704819D02*
X128514286Y-87800057D01*
X128990476Y-88038152D02*
X128990476Y-88704819D01*
X128990476Y-88133390D02*
X129038095Y-88085771D01*
X129038095Y-88085771D02*
X129133333Y-88038152D01*
X129133333Y-88038152D02*
X129276190Y-88038152D01*
X129276190Y-88038152D02*
X129371428Y-88085771D01*
X129371428Y-88085771D02*
X129419047Y-88181009D01*
X129419047Y-88181009D02*
X129419047Y-88704819D01*
X129752381Y-88038152D02*
X130133333Y-88038152D01*
X129895238Y-87704819D02*
X129895238Y-88561961D01*
X129895238Y-88561961D02*
X129942857Y-88657200D01*
X129942857Y-88657200D02*
X130038095Y-88704819D01*
X130038095Y-88704819D02*
X130133333Y-88704819D01*
X125966666Y-84781009D02*
X126109523Y-84828628D01*
X126109523Y-84828628D02*
X126157142Y-84876247D01*
X126157142Y-84876247D02*
X126204761Y-84971485D01*
X126204761Y-84971485D02*
X126204761Y-85114342D01*
X126204761Y-85114342D02*
X126157142Y-85209580D01*
X126157142Y-85209580D02*
X126109523Y-85257200D01*
X126109523Y-85257200D02*
X126014285Y-85304819D01*
X126014285Y-85304819D02*
X125633333Y-85304819D01*
X125633333Y-85304819D02*
X125633333Y-84304819D01*
X125633333Y-84304819D02*
X125966666Y-84304819D01*
X125966666Y-84304819D02*
X126061904Y-84352438D01*
X126061904Y-84352438D02*
X126109523Y-84400057D01*
X126109523Y-84400057D02*
X126157142Y-84495295D01*
X126157142Y-84495295D02*
X126157142Y-84590533D01*
X126157142Y-84590533D02*
X126109523Y-84685771D01*
X126109523Y-84685771D02*
X126061904Y-84733390D01*
X126061904Y-84733390D02*
X125966666Y-84781009D01*
X125966666Y-84781009D02*
X125633333Y-84781009D01*
X126823809Y-84304819D02*
X127014285Y-84304819D01*
X127014285Y-84304819D02*
X127109523Y-84352438D01*
X127109523Y-84352438D02*
X127204761Y-84447676D01*
X127204761Y-84447676D02*
X127252380Y-84638152D01*
X127252380Y-84638152D02*
X127252380Y-84971485D01*
X127252380Y-84971485D02*
X127204761Y-85161961D01*
X127204761Y-85161961D02*
X127109523Y-85257200D01*
X127109523Y-85257200D02*
X127014285Y-85304819D01*
X127014285Y-85304819D02*
X126823809Y-85304819D01*
X126823809Y-85304819D02*
X126728571Y-85257200D01*
X126728571Y-85257200D02*
X126633333Y-85161961D01*
X126633333Y-85161961D02*
X126585714Y-84971485D01*
X126585714Y-84971485D02*
X126585714Y-84638152D01*
X126585714Y-84638152D02*
X126633333Y-84447676D01*
X126633333Y-84447676D02*
X126728571Y-84352438D01*
X126728571Y-84352438D02*
X126823809Y-84304819D01*
X127538095Y-84304819D02*
X128109523Y-84304819D01*
X127823809Y-85304819D02*
X127823809Y-84304819D01*
X107452381Y-92504819D02*
X107547619Y-92504819D01*
X107547619Y-92504819D02*
X107642857Y-92552438D01*
X107642857Y-92552438D02*
X107690476Y-92600057D01*
X107690476Y-92600057D02*
X107738095Y-92695295D01*
X107738095Y-92695295D02*
X107785714Y-92885771D01*
X107785714Y-92885771D02*
X107785714Y-93123866D01*
X107785714Y-93123866D02*
X107738095Y-93314342D01*
X107738095Y-93314342D02*
X107690476Y-93409580D01*
X107690476Y-93409580D02*
X107642857Y-93457200D01*
X107642857Y-93457200D02*
X107547619Y-93504819D01*
X107547619Y-93504819D02*
X107452381Y-93504819D01*
X107452381Y-93504819D02*
X107357143Y-93457200D01*
X107357143Y-93457200D02*
X107309524Y-93409580D01*
X107309524Y-93409580D02*
X107261905Y-93314342D01*
X107261905Y-93314342D02*
X107214286Y-93123866D01*
X107214286Y-93123866D02*
X107214286Y-92885771D01*
X107214286Y-92885771D02*
X107261905Y-92695295D01*
X107261905Y-92695295D02*
X107309524Y-92600057D01*
X107309524Y-92600057D02*
X107357143Y-92552438D01*
X107357143Y-92552438D02*
X107452381Y-92504819D01*
X108785714Y-93504819D02*
X108452381Y-93028628D01*
X108214286Y-93504819D02*
X108214286Y-92504819D01*
X108214286Y-92504819D02*
X108595238Y-92504819D01*
X108595238Y-92504819D02*
X108690476Y-92552438D01*
X108690476Y-92552438D02*
X108738095Y-92600057D01*
X108738095Y-92600057D02*
X108785714Y-92695295D01*
X108785714Y-92695295D02*
X108785714Y-92838152D01*
X108785714Y-92838152D02*
X108738095Y-92933390D01*
X108738095Y-92933390D02*
X108690476Y-92981009D01*
X108690476Y-92981009D02*
X108595238Y-93028628D01*
X108595238Y-93028628D02*
X108214286Y-93028628D01*
D12*
X107916666Y-91627149D02*
X107750000Y-91389054D01*
X107630952Y-91627149D02*
X107630952Y-91127149D01*
X107630952Y-91127149D02*
X107821428Y-91127149D01*
X107821428Y-91127149D02*
X107869047Y-91150959D01*
X107869047Y-91150959D02*
X107892857Y-91174768D01*
X107892857Y-91174768D02*
X107916666Y-91222387D01*
X107916666Y-91222387D02*
X107916666Y-91293816D01*
X107916666Y-91293816D02*
X107892857Y-91341435D01*
X107892857Y-91341435D02*
X107869047Y-91365244D01*
X107869047Y-91365244D02*
X107821428Y-91389054D01*
X107821428Y-91389054D02*
X107630952Y-91389054D01*
X108083333Y-91127149D02*
X108416666Y-91127149D01*
X108416666Y-91127149D02*
X108202381Y-91627149D01*
D10*
X101880952Y-91281009D02*
X102214285Y-91281009D01*
X102357142Y-91804819D02*
X101880952Y-91804819D01*
X101880952Y-91804819D02*
X101880952Y-90804819D01*
X101880952Y-90804819D02*
X102357142Y-90804819D01*
X102738095Y-91757200D02*
X102880952Y-91804819D01*
X102880952Y-91804819D02*
X103119047Y-91804819D01*
X103119047Y-91804819D02*
X103214285Y-91757200D01*
X103214285Y-91757200D02*
X103261904Y-91709580D01*
X103261904Y-91709580D02*
X103309523Y-91614342D01*
X103309523Y-91614342D02*
X103309523Y-91519104D01*
X103309523Y-91519104D02*
X103261904Y-91423866D01*
X103261904Y-91423866D02*
X103214285Y-91376247D01*
X103214285Y-91376247D02*
X103119047Y-91328628D01*
X103119047Y-91328628D02*
X102928571Y-91281009D01*
X102928571Y-91281009D02*
X102833333Y-91233390D01*
X102833333Y-91233390D02*
X102785714Y-91185771D01*
X102785714Y-91185771D02*
X102738095Y-91090533D01*
X102738095Y-91090533D02*
X102738095Y-90995295D01*
X102738095Y-90995295D02*
X102785714Y-90900057D01*
X102785714Y-90900057D02*
X102833333Y-90852438D01*
X102833333Y-90852438D02*
X102928571Y-90804819D01*
X102928571Y-90804819D02*
X103166666Y-90804819D01*
X103166666Y-90804819D02*
X103309523Y-90852438D01*
X103738095Y-91804819D02*
X103738095Y-90804819D01*
X103738095Y-90804819D02*
X104119047Y-90804819D01*
X104119047Y-90804819D02*
X104214285Y-90852438D01*
X104214285Y-90852438D02*
X104261904Y-90900057D01*
X104261904Y-90900057D02*
X104309523Y-90995295D01*
X104309523Y-90995295D02*
X104309523Y-91138152D01*
X104309523Y-91138152D02*
X104261904Y-91233390D01*
X104261904Y-91233390D02*
X104214285Y-91281009D01*
X104214285Y-91281009D02*
X104119047Y-91328628D01*
X104119047Y-91328628D02*
X103738095Y-91328628D01*
X104642857Y-90804819D02*
X105261904Y-90804819D01*
X105261904Y-90804819D02*
X104928571Y-91185771D01*
X104928571Y-91185771D02*
X105071428Y-91185771D01*
X105071428Y-91185771D02*
X105166666Y-91233390D01*
X105166666Y-91233390D02*
X105214285Y-91281009D01*
X105214285Y-91281009D02*
X105261904Y-91376247D01*
X105261904Y-91376247D02*
X105261904Y-91614342D01*
X105261904Y-91614342D02*
X105214285Y-91709580D01*
X105214285Y-91709580D02*
X105166666Y-91757200D01*
X105166666Y-91757200D02*
X105071428Y-91804819D01*
X105071428Y-91804819D02*
X104785714Y-91804819D01*
X104785714Y-91804819D02*
X104690476Y-91757200D01*
X104690476Y-91757200D02*
X104642857Y-91709580D01*
X105642857Y-90900057D02*
X105690476Y-90852438D01*
X105690476Y-90852438D02*
X105785714Y-90804819D01*
X105785714Y-90804819D02*
X106023809Y-90804819D01*
X106023809Y-90804819D02*
X106119047Y-90852438D01*
X106119047Y-90852438D02*
X106166666Y-90900057D01*
X106166666Y-90900057D02*
X106214285Y-90995295D01*
X106214285Y-90995295D02*
X106214285Y-91090533D01*
X106214285Y-91090533D02*
X106166666Y-91233390D01*
X106166666Y-91233390D02*
X105595238Y-91804819D01*
X105595238Y-91804819D02*
X106214285Y-91804819D01*
X106642857Y-91423866D02*
X107404762Y-91423866D01*
X107833333Y-91757200D02*
X107976190Y-91804819D01*
X107976190Y-91804819D02*
X108214285Y-91804819D01*
X108214285Y-91804819D02*
X108309523Y-91757200D01*
X108309523Y-91757200D02*
X108357142Y-91709580D01*
X108357142Y-91709580D02*
X108404761Y-91614342D01*
X108404761Y-91614342D02*
X108404761Y-91519104D01*
X108404761Y-91519104D02*
X108357142Y-91423866D01*
X108357142Y-91423866D02*
X108309523Y-91376247D01*
X108309523Y-91376247D02*
X108214285Y-91328628D01*
X108214285Y-91328628D02*
X108023809Y-91281009D01*
X108023809Y-91281009D02*
X107928571Y-91233390D01*
X107928571Y-91233390D02*
X107880952Y-91185771D01*
X107880952Y-91185771D02*
X107833333Y-91090533D01*
X107833333Y-91090533D02*
X107833333Y-90995295D01*
X107833333Y-90995295D02*
X107880952Y-90900057D01*
X107880952Y-90900057D02*
X107928571Y-90852438D01*
X107928571Y-90852438D02*
X108023809Y-90804819D01*
X108023809Y-90804819D02*
X108261904Y-90804819D01*
X108261904Y-90804819D02*
X108404761Y-90852438D01*
X108738095Y-90804819D02*
X109357142Y-90804819D01*
X109357142Y-90804819D02*
X109023809Y-91185771D01*
X109023809Y-91185771D02*
X109166666Y-91185771D01*
X109166666Y-91185771D02*
X109261904Y-91233390D01*
X109261904Y-91233390D02*
X109309523Y-91281009D01*
X109309523Y-91281009D02*
X109357142Y-91376247D01*
X109357142Y-91376247D02*
X109357142Y-91614342D01*
X109357142Y-91614342D02*
X109309523Y-91709580D01*
X109309523Y-91709580D02*
X109261904Y-91757200D01*
X109261904Y-91757200D02*
X109166666Y-91804819D01*
X109166666Y-91804819D02*
X108880952Y-91804819D01*
X108880952Y-91804819D02*
X108785714Y-91757200D01*
X108785714Y-91757200D02*
X108738095Y-91709580D01*
X109785714Y-91423866D02*
X110547619Y-91423866D01*
X110928571Y-90804819D02*
X111166666Y-91804819D01*
X111166666Y-91804819D02*
X111357142Y-91090533D01*
X111357142Y-91090533D02*
X111547618Y-91804819D01*
X111547618Y-91804819D02*
X111785714Y-90804819D01*
X112738094Y-91804819D02*
X112404761Y-91328628D01*
X112166666Y-91804819D02*
X112166666Y-90804819D01*
X112166666Y-90804819D02*
X112547618Y-90804819D01*
X112547618Y-90804819D02*
X112642856Y-90852438D01*
X112642856Y-90852438D02*
X112690475Y-90900057D01*
X112690475Y-90900057D02*
X112738094Y-90995295D01*
X112738094Y-90995295D02*
X112738094Y-91138152D01*
X112738094Y-91138152D02*
X112690475Y-91233390D01*
X112690475Y-91233390D02*
X112642856Y-91281009D01*
X112642856Y-91281009D02*
X112547618Y-91328628D01*
X112547618Y-91328628D02*
X112166666Y-91328628D01*
X113357142Y-90804819D02*
X113547618Y-90804819D01*
X113547618Y-90804819D02*
X113642856Y-90852438D01*
X113642856Y-90852438D02*
X113738094Y-90947676D01*
X113738094Y-90947676D02*
X113785713Y-91138152D01*
X113785713Y-91138152D02*
X113785713Y-91471485D01*
X113785713Y-91471485D02*
X113738094Y-91661961D01*
X113738094Y-91661961D02*
X113642856Y-91757200D01*
X113642856Y-91757200D02*
X113547618Y-91804819D01*
X113547618Y-91804819D02*
X113357142Y-91804819D01*
X113357142Y-91804819D02*
X113261904Y-91757200D01*
X113261904Y-91757200D02*
X113166666Y-91661961D01*
X113166666Y-91661961D02*
X113119047Y-91471485D01*
X113119047Y-91471485D02*
X113119047Y-91138152D01*
X113119047Y-91138152D02*
X113166666Y-90947676D01*
X113166666Y-90947676D02*
X113261904Y-90852438D01*
X113261904Y-90852438D02*
X113357142Y-90804819D01*
X114404761Y-90804819D02*
X114595237Y-90804819D01*
X114595237Y-90804819D02*
X114690475Y-90852438D01*
X114690475Y-90852438D02*
X114785713Y-90947676D01*
X114785713Y-90947676D02*
X114833332Y-91138152D01*
X114833332Y-91138152D02*
X114833332Y-91471485D01*
X114833332Y-91471485D02*
X114785713Y-91661961D01*
X114785713Y-91661961D02*
X114690475Y-91757200D01*
X114690475Y-91757200D02*
X114595237Y-91804819D01*
X114595237Y-91804819D02*
X114404761Y-91804819D01*
X114404761Y-91804819D02*
X114309523Y-91757200D01*
X114309523Y-91757200D02*
X114214285Y-91661961D01*
X114214285Y-91661961D02*
X114166666Y-91471485D01*
X114166666Y-91471485D02*
X114166666Y-91138152D01*
X114166666Y-91138152D02*
X114214285Y-90947676D01*
X114214285Y-90947676D02*
X114309523Y-90852438D01*
X114309523Y-90852438D02*
X114404761Y-90804819D01*
X115261904Y-91804819D02*
X115261904Y-90804819D01*
X115261904Y-90804819D02*
X115595237Y-91519104D01*
X115595237Y-91519104D02*
X115928570Y-90804819D01*
X115928570Y-90804819D02*
X115928570Y-91804819D01*
X116404761Y-91423866D02*
X117166666Y-91423866D01*
X118166665Y-91804819D02*
X117595237Y-91804819D01*
X117880951Y-91804819D02*
X117880951Y-90804819D01*
X117880951Y-90804819D02*
X117785713Y-90947676D01*
X117785713Y-90947676D02*
X117690475Y-91042914D01*
X117690475Y-91042914D02*
X117595237Y-91090533D01*
X118595237Y-91423866D02*
X119357142Y-91423866D01*
X119833332Y-91281009D02*
X120166665Y-91281009D01*
X120309522Y-91804819D02*
X119833332Y-91804819D01*
X119833332Y-91804819D02*
X119833332Y-90804819D01*
X119833332Y-90804819D02*
X120309522Y-90804819D01*
X120690475Y-91757200D02*
X120785713Y-91804819D01*
X120785713Y-91804819D02*
X120976189Y-91804819D01*
X120976189Y-91804819D02*
X121071427Y-91757200D01*
X121071427Y-91757200D02*
X121119046Y-91661961D01*
X121119046Y-91661961D02*
X121119046Y-91614342D01*
X121119046Y-91614342D02*
X121071427Y-91519104D01*
X121071427Y-91519104D02*
X120976189Y-91471485D01*
X120976189Y-91471485D02*
X120833332Y-91471485D01*
X120833332Y-91471485D02*
X120738094Y-91423866D01*
X120738094Y-91423866D02*
X120690475Y-91328628D01*
X120690475Y-91328628D02*
X120690475Y-91281009D01*
X120690475Y-91281009D02*
X120738094Y-91185771D01*
X120738094Y-91185771D02*
X120833332Y-91138152D01*
X120833332Y-91138152D02*
X120976189Y-91138152D01*
X120976189Y-91138152D02*
X121071427Y-91185771D01*
X121547618Y-91138152D02*
X121547618Y-92138152D01*
X121547618Y-91185771D02*
X121642856Y-91138152D01*
X121642856Y-91138152D02*
X121833332Y-91138152D01*
X121833332Y-91138152D02*
X121928570Y-91185771D01*
X121928570Y-91185771D02*
X121976189Y-91233390D01*
X121976189Y-91233390D02*
X122023808Y-91328628D01*
X122023808Y-91328628D02*
X122023808Y-91614342D01*
X122023808Y-91614342D02*
X121976189Y-91709580D01*
X121976189Y-91709580D02*
X121928570Y-91757200D01*
X121928570Y-91757200D02*
X121833332Y-91804819D01*
X121833332Y-91804819D02*
X121642856Y-91804819D01*
X121642856Y-91804819D02*
X121547618Y-91757200D01*
X122452380Y-91804819D02*
X122452380Y-91138152D01*
X122452380Y-91328628D02*
X122499999Y-91233390D01*
X122499999Y-91233390D02*
X122547618Y-91185771D01*
X122547618Y-91185771D02*
X122642856Y-91138152D01*
X122642856Y-91138152D02*
X122738094Y-91138152D01*
X123452380Y-91757200D02*
X123357142Y-91804819D01*
X123357142Y-91804819D02*
X123166666Y-91804819D01*
X123166666Y-91804819D02*
X123071428Y-91757200D01*
X123071428Y-91757200D02*
X123023809Y-91661961D01*
X123023809Y-91661961D02*
X123023809Y-91281009D01*
X123023809Y-91281009D02*
X123071428Y-91185771D01*
X123071428Y-91185771D02*
X123166666Y-91138152D01*
X123166666Y-91138152D02*
X123357142Y-91138152D01*
X123357142Y-91138152D02*
X123452380Y-91185771D01*
X123452380Y-91185771D02*
X123499999Y-91281009D01*
X123499999Y-91281009D02*
X123499999Y-91376247D01*
X123499999Y-91376247D02*
X123023809Y-91471485D01*
X123880952Y-91757200D02*
X123976190Y-91804819D01*
X123976190Y-91804819D02*
X124166666Y-91804819D01*
X124166666Y-91804819D02*
X124261904Y-91757200D01*
X124261904Y-91757200D02*
X124309523Y-91661961D01*
X124309523Y-91661961D02*
X124309523Y-91614342D01*
X124309523Y-91614342D02*
X124261904Y-91519104D01*
X124261904Y-91519104D02*
X124166666Y-91471485D01*
X124166666Y-91471485D02*
X124023809Y-91471485D01*
X124023809Y-91471485D02*
X123928571Y-91423866D01*
X123928571Y-91423866D02*
X123880952Y-91328628D01*
X123880952Y-91328628D02*
X123880952Y-91281009D01*
X123880952Y-91281009D02*
X123928571Y-91185771D01*
X123928571Y-91185771D02*
X124023809Y-91138152D01*
X124023809Y-91138152D02*
X124166666Y-91138152D01*
X124166666Y-91138152D02*
X124261904Y-91185771D01*
X124690476Y-91757200D02*
X124785714Y-91804819D01*
X124785714Y-91804819D02*
X124976190Y-91804819D01*
X124976190Y-91804819D02*
X125071428Y-91757200D01*
X125071428Y-91757200D02*
X125119047Y-91661961D01*
X125119047Y-91661961D02*
X125119047Y-91614342D01*
X125119047Y-91614342D02*
X125071428Y-91519104D01*
X125071428Y-91519104D02*
X124976190Y-91471485D01*
X124976190Y-91471485D02*
X124833333Y-91471485D01*
X124833333Y-91471485D02*
X124738095Y-91423866D01*
X124738095Y-91423866D02*
X124690476Y-91328628D01*
X124690476Y-91328628D02*
X124690476Y-91281009D01*
X124690476Y-91281009D02*
X124738095Y-91185771D01*
X124738095Y-91185771D02*
X124833333Y-91138152D01*
X124833333Y-91138152D02*
X124976190Y-91138152D01*
X124976190Y-91138152D02*
X125071428Y-91185771D01*
X125547619Y-91804819D02*
X125547619Y-91138152D01*
X125547619Y-90804819D02*
X125500000Y-90852438D01*
X125500000Y-90852438D02*
X125547619Y-90900057D01*
X125547619Y-90900057D02*
X125595238Y-90852438D01*
X125595238Y-90852438D02*
X125547619Y-90804819D01*
X125547619Y-90804819D02*
X125547619Y-90900057D01*
X125880952Y-91138152D02*
X126261904Y-91138152D01*
X126023809Y-91804819D02*
X126023809Y-90947676D01*
X126023809Y-90947676D02*
X126071428Y-90852438D01*
X126071428Y-90852438D02*
X126166666Y-90804819D01*
X126166666Y-90804819D02*
X126261904Y-90804819D01*
X113338095Y-81354819D02*
X113338095Y-82164342D01*
X113338095Y-82164342D02*
X113385714Y-82259580D01*
X113385714Y-82259580D02*
X113433333Y-82307200D01*
X113433333Y-82307200D02*
X113528571Y-82354819D01*
X113528571Y-82354819D02*
X113719047Y-82354819D01*
X113719047Y-82354819D02*
X113814285Y-82307200D01*
X113814285Y-82307200D02*
X113861904Y-82259580D01*
X113861904Y-82259580D02*
X113909523Y-82164342D01*
X113909523Y-82164342D02*
X113909523Y-81354819D01*
X114909523Y-82354819D02*
X114338095Y-82354819D01*
X114623809Y-82354819D02*
X114623809Y-81354819D01*
X114623809Y-81354819D02*
X114528571Y-81497676D01*
X114528571Y-81497676D02*
X114433333Y-81592914D01*
X114433333Y-81592914D02*
X114338095Y-81640533D01*
X131734819Y-75347619D02*
X131734819Y-75919047D01*
X131734819Y-75633333D02*
X130734819Y-75633333D01*
X130734819Y-75633333D02*
X130877676Y-75728571D01*
X130877676Y-75728571D02*
X130972914Y-75823809D01*
X130972914Y-75823809D02*
X131020533Y-75919047D01*
X130734819Y-74728571D02*
X130734819Y-74633333D01*
X130734819Y-74633333D02*
X130782438Y-74538095D01*
X130782438Y-74538095D02*
X130830057Y-74490476D01*
X130830057Y-74490476D02*
X130925295Y-74442857D01*
X130925295Y-74442857D02*
X131115771Y-74395238D01*
X131115771Y-74395238D02*
X131353866Y-74395238D01*
X131353866Y-74395238D02*
X131544342Y-74442857D01*
X131544342Y-74442857D02*
X131639580Y-74490476D01*
X131639580Y-74490476D02*
X131687200Y-74538095D01*
X131687200Y-74538095D02*
X131734819Y-74633333D01*
X131734819Y-74633333D02*
X131734819Y-74728571D01*
X131734819Y-74728571D02*
X131687200Y-74823809D01*
X131687200Y-74823809D02*
X131639580Y-74871428D01*
X131639580Y-74871428D02*
X131544342Y-74919047D01*
X131544342Y-74919047D02*
X131353866Y-74966666D01*
X131353866Y-74966666D02*
X131115771Y-74966666D01*
X131115771Y-74966666D02*
X130925295Y-74919047D01*
X130925295Y-74919047D02*
X130830057Y-74871428D01*
X130830057Y-74871428D02*
X130782438Y-74823809D01*
X130782438Y-74823809D02*
X130734819Y-74728571D01*
X130734819Y-73776190D02*
X130734819Y-73680952D01*
X130734819Y-73680952D02*
X130782438Y-73585714D01*
X130782438Y-73585714D02*
X130830057Y-73538095D01*
X130830057Y-73538095D02*
X130925295Y-73490476D01*
X130925295Y-73490476D02*
X131115771Y-73442857D01*
X131115771Y-73442857D02*
X131353866Y-73442857D01*
X131353866Y-73442857D02*
X131544342Y-73490476D01*
X131544342Y-73490476D02*
X131639580Y-73538095D01*
X131639580Y-73538095D02*
X131687200Y-73585714D01*
X131687200Y-73585714D02*
X131734819Y-73680952D01*
X131734819Y-73680952D02*
X131734819Y-73776190D01*
X131734819Y-73776190D02*
X131687200Y-73871428D01*
X131687200Y-73871428D02*
X131639580Y-73919047D01*
X131639580Y-73919047D02*
X131544342Y-73966666D01*
X131544342Y-73966666D02*
X131353866Y-74014285D01*
X131353866Y-74014285D02*
X131115771Y-74014285D01*
X131115771Y-74014285D02*
X130925295Y-73966666D01*
X130925295Y-73966666D02*
X130830057Y-73919047D01*
X130830057Y-73919047D02*
X130782438Y-73871428D01*
X130782438Y-73871428D02*
X130734819Y-73776190D01*
X131068152Y-73014285D02*
X131734819Y-73014285D01*
X131163390Y-73014285D02*
X131115771Y-72966666D01*
X131115771Y-72966666D02*
X131068152Y-72871428D01*
X131068152Y-72871428D02*
X131068152Y-72728571D01*
X131068152Y-72728571D02*
X131115771Y-72633333D01*
X131115771Y-72633333D02*
X131211009Y-72585714D01*
X131211009Y-72585714D02*
X131734819Y-72585714D01*
X131211009Y-71776190D02*
X131211009Y-72109523D01*
X131734819Y-72109523D02*
X130734819Y-72109523D01*
X130734819Y-72109523D02*
X130734819Y-71633333D01*
D12*
X129779530Y-73883333D02*
X129803340Y-73907142D01*
X129803340Y-73907142D02*
X129827149Y-73978571D01*
X129827149Y-73978571D02*
X129827149Y-74026190D01*
X129827149Y-74026190D02*
X129803340Y-74097618D01*
X129803340Y-74097618D02*
X129755720Y-74145237D01*
X129755720Y-74145237D02*
X129708101Y-74169047D01*
X129708101Y-74169047D02*
X129612863Y-74192856D01*
X129612863Y-74192856D02*
X129541435Y-74192856D01*
X129541435Y-74192856D02*
X129446197Y-74169047D01*
X129446197Y-74169047D02*
X129398578Y-74145237D01*
X129398578Y-74145237D02*
X129350959Y-74097618D01*
X129350959Y-74097618D02*
X129327149Y-74026190D01*
X129327149Y-74026190D02*
X129327149Y-73978571D01*
X129327149Y-73978571D02*
X129350959Y-73907142D01*
X129350959Y-73907142D02*
X129374768Y-73883333D01*
X129327149Y-73454761D02*
X129327149Y-73549999D01*
X129327149Y-73549999D02*
X129350959Y-73597618D01*
X129350959Y-73597618D02*
X129374768Y-73621428D01*
X129374768Y-73621428D02*
X129446197Y-73669047D01*
X129446197Y-73669047D02*
X129541435Y-73692856D01*
X129541435Y-73692856D02*
X129731911Y-73692856D01*
X129731911Y-73692856D02*
X129779530Y-73669047D01*
X129779530Y-73669047D02*
X129803340Y-73645237D01*
X129803340Y-73645237D02*
X129827149Y-73597618D01*
X129827149Y-73597618D02*
X129827149Y-73502380D01*
X129827149Y-73502380D02*
X129803340Y-73454761D01*
X129803340Y-73454761D02*
X129779530Y-73430952D01*
X129779530Y-73430952D02*
X129731911Y-73407142D01*
X129731911Y-73407142D02*
X129612863Y-73407142D01*
X129612863Y-73407142D02*
X129565244Y-73430952D01*
X129565244Y-73430952D02*
X129541435Y-73454761D01*
X129541435Y-73454761D02*
X129517625Y-73502380D01*
X129517625Y-73502380D02*
X129517625Y-73597618D01*
X129517625Y-73597618D02*
X129541435Y-73645237D01*
X129541435Y-73645237D02*
X129565244Y-73669047D01*
X129565244Y-73669047D02*
X129612863Y-73692856D01*
D10*
X124304819Y-94119047D02*
X124304819Y-94595237D01*
X124304819Y-94595237D02*
X124781009Y-94642856D01*
X124781009Y-94642856D02*
X124733390Y-94595237D01*
X124733390Y-94595237D02*
X124685771Y-94499999D01*
X124685771Y-94499999D02*
X124685771Y-94261904D01*
X124685771Y-94261904D02*
X124733390Y-94166666D01*
X124733390Y-94166666D02*
X124781009Y-94119047D01*
X124781009Y-94119047D02*
X124876247Y-94071428D01*
X124876247Y-94071428D02*
X125114342Y-94071428D01*
X125114342Y-94071428D02*
X125209580Y-94119047D01*
X125209580Y-94119047D02*
X125257200Y-94166666D01*
X125257200Y-94166666D02*
X125304819Y-94261904D01*
X125304819Y-94261904D02*
X125304819Y-94499999D01*
X125304819Y-94499999D02*
X125257200Y-94595237D01*
X125257200Y-94595237D02*
X125209580Y-94642856D01*
X125304819Y-93642856D02*
X124304819Y-93642856D01*
X124923866Y-93547618D02*
X125304819Y-93261904D01*
X124638152Y-93261904D02*
X125019104Y-93642856D01*
X125304819Y-92309523D02*
X125304819Y-92880951D01*
X125304819Y-92595237D02*
X124304819Y-92595237D01*
X124304819Y-92595237D02*
X124447676Y-92690475D01*
X124447676Y-92690475D02*
X124542914Y-92785713D01*
X124542914Y-92785713D02*
X124590533Y-92880951D01*
X125304819Y-91357142D02*
X125304819Y-91928570D01*
X125304819Y-91642856D02*
X124304819Y-91642856D01*
X124304819Y-91642856D02*
X124447676Y-91738094D01*
X124447676Y-91738094D02*
X124542914Y-91833332D01*
X124542914Y-91833332D02*
X124590533Y-91928570D01*
D12*
X123427149Y-93083333D02*
X123189054Y-93249999D01*
X123427149Y-93369047D02*
X122927149Y-93369047D01*
X122927149Y-93369047D02*
X122927149Y-93178571D01*
X122927149Y-93178571D02*
X122950959Y-93130952D01*
X122950959Y-93130952D02*
X122974768Y-93107142D01*
X122974768Y-93107142D02*
X123022387Y-93083333D01*
X123022387Y-93083333D02*
X123093816Y-93083333D01*
X123093816Y-93083333D02*
X123141435Y-93107142D01*
X123141435Y-93107142D02*
X123165244Y-93130952D01*
X123165244Y-93130952D02*
X123189054Y-93178571D01*
X123189054Y-93178571D02*
X123189054Y-93369047D01*
X122927149Y-92654761D02*
X122927149Y-92749999D01*
X122927149Y-92749999D02*
X122950959Y-92797618D01*
X122950959Y-92797618D02*
X122974768Y-92821428D01*
X122974768Y-92821428D02*
X123046197Y-92869047D01*
X123046197Y-92869047D02*
X123141435Y-92892856D01*
X123141435Y-92892856D02*
X123331911Y-92892856D01*
X123331911Y-92892856D02*
X123379530Y-92869047D01*
X123379530Y-92869047D02*
X123403340Y-92845237D01*
X123403340Y-92845237D02*
X123427149Y-92797618D01*
X123427149Y-92797618D02*
X123427149Y-92702380D01*
X123427149Y-92702380D02*
X123403340Y-92654761D01*
X123403340Y-92654761D02*
X123379530Y-92630952D01*
X123379530Y-92630952D02*
X123331911Y-92607142D01*
X123331911Y-92607142D02*
X123212863Y-92607142D01*
X123212863Y-92607142D02*
X123165244Y-92630952D01*
X123165244Y-92630952D02*
X123141435Y-92654761D01*
X123141435Y-92654761D02*
X123117625Y-92702380D01*
X123117625Y-92702380D02*
X123117625Y-92797618D01*
X123117625Y-92797618D02*
X123141435Y-92845237D01*
X123141435Y-92845237D02*
X123165244Y-92869047D01*
X123165244Y-92869047D02*
X123212863Y-92892856D01*
D10*
X99254761Y-78404819D02*
X98683333Y-78404819D01*
X98969047Y-78404819D02*
X98969047Y-77404819D01*
X98969047Y-77404819D02*
X98873809Y-77547676D01*
X98873809Y-77547676D02*
X98778571Y-77642914D01*
X98778571Y-77642914D02*
X98683333Y-77690533D01*
X99873809Y-77404819D02*
X99969047Y-77404819D01*
X99969047Y-77404819D02*
X100064285Y-77452438D01*
X100064285Y-77452438D02*
X100111904Y-77500057D01*
X100111904Y-77500057D02*
X100159523Y-77595295D01*
X100159523Y-77595295D02*
X100207142Y-77785771D01*
X100207142Y-77785771D02*
X100207142Y-78023866D01*
X100207142Y-78023866D02*
X100159523Y-78214342D01*
X100159523Y-78214342D02*
X100111904Y-78309580D01*
X100111904Y-78309580D02*
X100064285Y-78357200D01*
X100064285Y-78357200D02*
X99969047Y-78404819D01*
X99969047Y-78404819D02*
X99873809Y-78404819D01*
X99873809Y-78404819D02*
X99778571Y-78357200D01*
X99778571Y-78357200D02*
X99730952Y-78309580D01*
X99730952Y-78309580D02*
X99683333Y-78214342D01*
X99683333Y-78214342D02*
X99635714Y-78023866D01*
X99635714Y-78023866D02*
X99635714Y-77785771D01*
X99635714Y-77785771D02*
X99683333Y-77595295D01*
X99683333Y-77595295D02*
X99730952Y-77500057D01*
X99730952Y-77500057D02*
X99778571Y-77452438D01*
X99778571Y-77452438D02*
X99873809Y-77404819D01*
X100635714Y-78404819D02*
X100635714Y-77404819D01*
X100730952Y-78023866D02*
X101016666Y-78404819D01*
X101016666Y-77738152D02*
X100635714Y-78119104D01*
D12*
X99766666Y-79827149D02*
X99600000Y-79589054D01*
X99480952Y-79827149D02*
X99480952Y-79327149D01*
X99480952Y-79327149D02*
X99671428Y-79327149D01*
X99671428Y-79327149D02*
X99719047Y-79350959D01*
X99719047Y-79350959D02*
X99742857Y-79374768D01*
X99742857Y-79374768D02*
X99766666Y-79422387D01*
X99766666Y-79422387D02*
X99766666Y-79493816D01*
X99766666Y-79493816D02*
X99742857Y-79541435D01*
X99742857Y-79541435D02*
X99719047Y-79565244D01*
X99719047Y-79565244D02*
X99671428Y-79589054D01*
X99671428Y-79589054D02*
X99480952Y-79589054D01*
X100195238Y-79493816D02*
X100195238Y-79827149D01*
X100076190Y-79303340D02*
X99957143Y-79660482D01*
X99957143Y-79660482D02*
X100266666Y-79660482D01*
D10*
X133654819Y-71843333D02*
X134369104Y-71843333D01*
X134369104Y-71843333D02*
X134511961Y-71890952D01*
X134511961Y-71890952D02*
X134607200Y-71986190D01*
X134607200Y-71986190D02*
X134654819Y-72129047D01*
X134654819Y-72129047D02*
X134654819Y-72224285D01*
X133988152Y-70938571D02*
X134654819Y-70938571D01*
X133607200Y-71176666D02*
X134321485Y-71414761D01*
X134321485Y-71414761D02*
X134321485Y-70795714D01*
X95108152Y-80985714D02*
X95774819Y-80985714D01*
X94727200Y-81223809D02*
X95441485Y-81461904D01*
X95441485Y-81461904D02*
X95441485Y-80842857D01*
X95679580Y-80461904D02*
X95727200Y-80414285D01*
X95727200Y-80414285D02*
X95774819Y-80461904D01*
X95774819Y-80461904D02*
X95727200Y-80509523D01*
X95727200Y-80509523D02*
X95679580Y-80461904D01*
X95679580Y-80461904D02*
X95774819Y-80461904D01*
X94774819Y-80080952D02*
X94774819Y-79414286D01*
X94774819Y-79414286D02*
X95774819Y-79842857D01*
X95108152Y-78604762D02*
X95774819Y-78604762D01*
X95108152Y-79033333D02*
X95631961Y-79033333D01*
X95631961Y-79033333D02*
X95727200Y-78985714D01*
X95727200Y-78985714D02*
X95774819Y-78890476D01*
X95774819Y-78890476D02*
X95774819Y-78747619D01*
X95774819Y-78747619D02*
X95727200Y-78652381D01*
X95727200Y-78652381D02*
X95679580Y-78604762D01*
X95251009Y-77795238D02*
X95251009Y-78128571D01*
X95774819Y-78128571D02*
X94774819Y-78128571D01*
X94774819Y-78128571D02*
X94774819Y-77652381D01*
X94774819Y-76795238D02*
X94774819Y-77271428D01*
X94774819Y-77271428D02*
X95251009Y-77319047D01*
X95251009Y-77319047D02*
X95203390Y-77271428D01*
X95203390Y-77271428D02*
X95155771Y-77176190D01*
X95155771Y-77176190D02*
X95155771Y-76938095D01*
X95155771Y-76938095D02*
X95203390Y-76842857D01*
X95203390Y-76842857D02*
X95251009Y-76795238D01*
X95251009Y-76795238D02*
X95346247Y-76747619D01*
X95346247Y-76747619D02*
X95584342Y-76747619D01*
X95584342Y-76747619D02*
X95679580Y-76795238D01*
X95679580Y-76795238D02*
X95727200Y-76842857D01*
X95727200Y-76842857D02*
X95774819Y-76938095D01*
X95774819Y-76938095D02*
X95774819Y-77176190D01*
X95774819Y-77176190D02*
X95727200Y-77271428D01*
X95727200Y-77271428D02*
X95679580Y-77319047D01*
X94774819Y-76128571D02*
X94774819Y-76033333D01*
X94774819Y-76033333D02*
X94822438Y-75938095D01*
X94822438Y-75938095D02*
X94870057Y-75890476D01*
X94870057Y-75890476D02*
X94965295Y-75842857D01*
X94965295Y-75842857D02*
X95155771Y-75795238D01*
X95155771Y-75795238D02*
X95393866Y-75795238D01*
X95393866Y-75795238D02*
X95584342Y-75842857D01*
X95584342Y-75842857D02*
X95679580Y-75890476D01*
X95679580Y-75890476D02*
X95727200Y-75938095D01*
X95727200Y-75938095D02*
X95774819Y-76033333D01*
X95774819Y-76033333D02*
X95774819Y-76128571D01*
X95774819Y-76128571D02*
X95727200Y-76223809D01*
X95727200Y-76223809D02*
X95679580Y-76271428D01*
X95679580Y-76271428D02*
X95584342Y-76319047D01*
X95584342Y-76319047D02*
X95393866Y-76366666D01*
X95393866Y-76366666D02*
X95155771Y-76366666D01*
X95155771Y-76366666D02*
X94965295Y-76319047D01*
X94965295Y-76319047D02*
X94870057Y-76271428D01*
X94870057Y-76271428D02*
X94822438Y-76223809D01*
X94822438Y-76223809D02*
X94774819Y-76128571D01*
X94774819Y-75509523D02*
X95774819Y-75176190D01*
X95774819Y-75176190D02*
X94774819Y-74842857D01*
D12*
X97179530Y-78283333D02*
X97203340Y-78307142D01*
X97203340Y-78307142D02*
X97227149Y-78378571D01*
X97227149Y-78378571D02*
X97227149Y-78426190D01*
X97227149Y-78426190D02*
X97203340Y-78497618D01*
X97203340Y-78497618D02*
X97155720Y-78545237D01*
X97155720Y-78545237D02*
X97108101Y-78569047D01*
X97108101Y-78569047D02*
X97012863Y-78592856D01*
X97012863Y-78592856D02*
X96941435Y-78592856D01*
X96941435Y-78592856D02*
X96846197Y-78569047D01*
X96846197Y-78569047D02*
X96798578Y-78545237D01*
X96798578Y-78545237D02*
X96750959Y-78497618D01*
X96750959Y-78497618D02*
X96727149Y-78426190D01*
X96727149Y-78426190D02*
X96727149Y-78378571D01*
X96727149Y-78378571D02*
X96750959Y-78307142D01*
X96750959Y-78307142D02*
X96774768Y-78283333D01*
X96774768Y-78092856D02*
X96750959Y-78069047D01*
X96750959Y-78069047D02*
X96727149Y-78021428D01*
X96727149Y-78021428D02*
X96727149Y-77902380D01*
X96727149Y-77902380D02*
X96750959Y-77854761D01*
X96750959Y-77854761D02*
X96774768Y-77830952D01*
X96774768Y-77830952D02*
X96822387Y-77807142D01*
X96822387Y-77807142D02*
X96870006Y-77807142D01*
X96870006Y-77807142D02*
X96941435Y-77830952D01*
X96941435Y-77830952D02*
X97227149Y-78116666D01*
X97227149Y-78116666D02*
X97227149Y-77807142D01*
D10*
X100452380Y-74534819D02*
X99880952Y-74534819D01*
X100166666Y-74534819D02*
X100166666Y-73534819D01*
X100166666Y-73534819D02*
X100071428Y-73677676D01*
X100071428Y-73677676D02*
X99976190Y-73772914D01*
X99976190Y-73772914D02*
X99880952Y-73820533D01*
X101071428Y-73534819D02*
X101166666Y-73534819D01*
X101166666Y-73534819D02*
X101261904Y-73582438D01*
X101261904Y-73582438D02*
X101309523Y-73630057D01*
X101309523Y-73630057D02*
X101357142Y-73725295D01*
X101357142Y-73725295D02*
X101404761Y-73915771D01*
X101404761Y-73915771D02*
X101404761Y-74153866D01*
X101404761Y-74153866D02*
X101357142Y-74344342D01*
X101357142Y-74344342D02*
X101309523Y-74439580D01*
X101309523Y-74439580D02*
X101261904Y-74487200D01*
X101261904Y-74487200D02*
X101166666Y-74534819D01*
X101166666Y-74534819D02*
X101071428Y-74534819D01*
X101071428Y-74534819D02*
X100976190Y-74487200D01*
X100976190Y-74487200D02*
X100928571Y-74439580D01*
X100928571Y-74439580D02*
X100880952Y-74344342D01*
X100880952Y-74344342D02*
X100833333Y-74153866D01*
X100833333Y-74153866D02*
X100833333Y-73915771D01*
X100833333Y-73915771D02*
X100880952Y-73725295D01*
X100880952Y-73725295D02*
X100928571Y-73630057D01*
X100928571Y-73630057D02*
X100976190Y-73582438D01*
X100976190Y-73582438D02*
X101071428Y-73534819D01*
X102023809Y-73534819D02*
X102119047Y-73534819D01*
X102119047Y-73534819D02*
X102214285Y-73582438D01*
X102214285Y-73582438D02*
X102261904Y-73630057D01*
X102261904Y-73630057D02*
X102309523Y-73725295D01*
X102309523Y-73725295D02*
X102357142Y-73915771D01*
X102357142Y-73915771D02*
X102357142Y-74153866D01*
X102357142Y-74153866D02*
X102309523Y-74344342D01*
X102309523Y-74344342D02*
X102261904Y-74439580D01*
X102261904Y-74439580D02*
X102214285Y-74487200D01*
X102214285Y-74487200D02*
X102119047Y-74534819D01*
X102119047Y-74534819D02*
X102023809Y-74534819D01*
X102023809Y-74534819D02*
X101928571Y-74487200D01*
X101928571Y-74487200D02*
X101880952Y-74439580D01*
X101880952Y-74439580D02*
X101833333Y-74344342D01*
X101833333Y-74344342D02*
X101785714Y-74153866D01*
X101785714Y-74153866D02*
X101785714Y-73915771D01*
X101785714Y-73915771D02*
X101833333Y-73725295D01*
X101833333Y-73725295D02*
X101880952Y-73630057D01*
X101880952Y-73630057D02*
X101928571Y-73582438D01*
X101928571Y-73582438D02*
X102023809Y-73534819D01*
X102785714Y-73868152D02*
X102785714Y-74534819D01*
X102785714Y-73963390D02*
X102833333Y-73915771D01*
X102833333Y-73915771D02*
X102928571Y-73868152D01*
X102928571Y-73868152D02*
X103071428Y-73868152D01*
X103071428Y-73868152D02*
X103166666Y-73915771D01*
X103166666Y-73915771D02*
X103214285Y-74011009D01*
X103214285Y-74011009D02*
X103214285Y-74534819D01*
X104023809Y-74011009D02*
X103690476Y-74011009D01*
X103690476Y-74534819D02*
X103690476Y-73534819D01*
X103690476Y-73534819D02*
X104166666Y-73534819D01*
D12*
X101916666Y-72579530D02*
X101892857Y-72603340D01*
X101892857Y-72603340D02*
X101821428Y-72627149D01*
X101821428Y-72627149D02*
X101773809Y-72627149D01*
X101773809Y-72627149D02*
X101702381Y-72603340D01*
X101702381Y-72603340D02*
X101654762Y-72555720D01*
X101654762Y-72555720D02*
X101630952Y-72508101D01*
X101630952Y-72508101D02*
X101607143Y-72412863D01*
X101607143Y-72412863D02*
X101607143Y-72341435D01*
X101607143Y-72341435D02*
X101630952Y-72246197D01*
X101630952Y-72246197D02*
X101654762Y-72198578D01*
X101654762Y-72198578D02*
X101702381Y-72150959D01*
X101702381Y-72150959D02*
X101773809Y-72127149D01*
X101773809Y-72127149D02*
X101821428Y-72127149D01*
X101821428Y-72127149D02*
X101892857Y-72150959D01*
X101892857Y-72150959D02*
X101916666Y-72174768D01*
X102345238Y-72293816D02*
X102345238Y-72627149D01*
X102226190Y-72103340D02*
X102107143Y-72460482D01*
X102107143Y-72460482D02*
X102416666Y-72460482D01*
D14*
%TO.C,U2*%
X98550000Y-75600000D02*
X101450000Y-75600000D01*
X98550000Y-76800000D02*
X98550000Y-75600000D01*
X98950000Y-77200000D02*
X98550000Y-76800000D01*
X101450000Y-75600000D02*
X101450000Y-77200000D01*
X101450000Y-77200000D02*
X98950000Y-77200000D01*
%TO.C,C7*%
X96375000Y-81200000D02*
X97625000Y-81200000D01*
X96375000Y-83200000D02*
X96375000Y-81200000D01*
X97625000Y-81200000D02*
X97625000Y-83200000D01*
X97625000Y-83200000D02*
X96375000Y-83200000D01*
%TO.C,R19*%
X124175000Y-86300000D02*
X125425000Y-86300000D01*
X124175000Y-88300000D02*
X124175000Y-86300000D01*
X125425000Y-86300000D02*
X125425000Y-88300000D01*
X125425000Y-88300000D02*
X124175000Y-88300000D01*
%TO.C,R5*%
X108212500Y-92875000D02*
X110212500Y-92875000D01*
X108212500Y-94125000D02*
X108212500Y-92875000D01*
X110212500Y-92875000D02*
X110212500Y-94125000D01*
X110212500Y-94125000D02*
X108212500Y-94125000D01*
%TO.C,R9*%
X127000000Y-87675000D02*
X129000000Y-87675000D01*
X127000000Y-88925000D02*
X127000000Y-87675000D01*
X129000000Y-87675000D02*
X129000000Y-88925000D01*
X129000000Y-88925000D02*
X127000000Y-88925000D01*
%TO.C,R1*%
X102175000Y-74400000D02*
X103425000Y-74400000D01*
X102175000Y-76400000D02*
X102175000Y-74400000D01*
X103425000Y-74400000D02*
X103425000Y-76400000D01*
X103425000Y-76400000D02*
X102175000Y-76400000D01*
%TO.C,C1*%
X102575000Y-78200000D02*
X103825000Y-78200000D01*
X102575000Y-80200000D02*
X102575000Y-78200000D01*
X103825000Y-78200000D02*
X103825000Y-80200000D01*
X103825000Y-80200000D02*
X102575000Y-80200000D01*
D15*
%TO.C,U9*%
X129000000Y-76900000D02*
X130700000Y-76900000D01*
X129000000Y-86600000D02*
X129000000Y-76900000D01*
X129000000Y-86600000D02*
X130800000Y-86600000D01*
X131100000Y-86300000D02*
X131100000Y-77300000D01*
X130700000Y-76900000D02*
G75*
G02*
X131100000Y-77300000I1J-399999D01*
G01*
X131100000Y-86300000D02*
G75*
G02*
X130800000Y-86600000I-300000J0D01*
G01*
D14*
%TO.C,R8*%
X107800000Y-94775000D02*
X109800000Y-94775000D01*
X107800000Y-96025000D02*
X107800000Y-94775000D01*
X109800000Y-94775000D02*
X109800000Y-96025000D01*
X109800000Y-96025000D02*
X107800000Y-96025000D01*
%TO.C,U7*%
X99100000Y-83637500D02*
X102100000Y-83637500D01*
X99100000Y-86637500D02*
X99100000Y-83637500D01*
X101350000Y-86637500D02*
X99100000Y-86637500D01*
X102100000Y-83637500D02*
X102100000Y-85887500D01*
X102100000Y-85887500D02*
X101350000Y-86637500D01*
%TO.C,R7*%
X107000000Y-90775000D02*
X109000000Y-90775000D01*
X107000000Y-92025000D02*
X107000000Y-90775000D01*
X109000000Y-90775000D02*
X109000000Y-92025000D01*
X109000000Y-92025000D02*
X107000000Y-92025000D01*
%TO.C,U1*%
X105000000Y-64000000D02*
X123000000Y-64000000D01*
X105000000Y-70000000D02*
X123000000Y-70000000D01*
X105000000Y-89500000D02*
X105000000Y-64000000D01*
X105000000Y-89500000D02*
X123000000Y-89500000D01*
X123000000Y-89500000D02*
X123000000Y-64000000D01*
%TO.C,C6*%
X128975000Y-72800000D02*
X130225000Y-72800000D01*
X128975000Y-74800000D02*
X128975000Y-72800000D01*
X130225000Y-72800000D02*
X130225000Y-74800000D01*
X130225000Y-74800000D02*
X128975000Y-74800000D01*
%TO.C,R6*%
X122575000Y-92000000D02*
X123825000Y-92000000D01*
X122575000Y-94000000D02*
X122575000Y-92000000D01*
X123825000Y-92000000D02*
X123825000Y-94000000D01*
X123825000Y-94000000D02*
X122575000Y-94000000D01*
%TO.C,R4*%
X98850000Y-78975000D02*
X100850000Y-78975000D01*
X98850000Y-80225000D02*
X98850000Y-78975000D01*
X100850000Y-78975000D02*
X100850000Y-80225000D01*
X100850000Y-80225000D02*
X98850000Y-80225000D01*
%TO.C,J4*%
X132930000Y-66430000D02*
X135470000Y-66430000D01*
X132930000Y-76590000D02*
X132930000Y-66430000D01*
X134835000Y-76590000D02*
X132930000Y-76590000D01*
X135470000Y-66430000D02*
X135470000Y-75955000D01*
X135470000Y-75955000D02*
X134835000Y-76590000D01*
%TO.C,C2*%
X96375000Y-77200000D02*
X97625000Y-77200000D01*
X96375000Y-79200000D02*
X96375000Y-77200000D01*
X97625000Y-77200000D02*
X97625000Y-79200000D01*
X97625000Y-79200000D02*
X96375000Y-79200000D01*
%TO.C,C4*%
X101000000Y-71775000D02*
X103000000Y-71775000D01*
X101000000Y-73025000D02*
X101000000Y-71775000D01*
X103000000Y-71775000D02*
X103000000Y-73025000D01*
X103000000Y-73025000D02*
X101000000Y-73025000D01*
%TD*%
M02*
