%TF.GenerationSoftware,KiCad,Pcbnew,8.0.1*%
%TF.CreationDate,2024-05-06T20:31:10+02:00*%
%TF.ProjectId,smartknob,736d6172-746b-46e6-9f62-2e6b69636164,rev?*%
%TF.SameCoordinates,Original*%
%TF.FileFunction,Copper,L2,Bot*%
%TF.FilePolarity,Positive*%
%FSLAX46Y46*%
G04 Gerber Fmt 4.6, Leading zero omitted, Abs format (unit mm)*
G04 Created by KiCad (PCBNEW 8.0.1) date 2024-05-06 20:31:10*
%MOMM*%
%LPD*%
G01*
G04 APERTURE LIST*
G04 Aperture macros list*
%AMRoundRect*
0 Rectangle with rounded corners*
0 $1 Rounding radius*
0 $2 $3 $4 $5 $6 $7 $8 $9 X,Y pos of 4 corners*
0 Add a 4 corners polygon primitive as box body*
4,1,4,$2,$3,$4,$5,$6,$7,$8,$9,$2,$3,0*
0 Add four circle primitives for the rounded corners*
1,1,$1+$1,$2,$3*
1,1,$1+$1,$4,$5*
1,1,$1+$1,$6,$7*
1,1,$1+$1,$8,$9*
0 Add four rect primitives between the rounded corners*
20,1,$1+$1,$2,$3,$4,$5,0*
20,1,$1+$1,$4,$5,$6,$7,0*
20,1,$1+$1,$6,$7,$8,$9,0*
20,1,$1+$1,$8,$9,$2,$3,0*%
%AMHorizOval*
0 Thick line with rounded ends*
0 $1 width*
0 $2 $3 position (X,Y) of the first rounded end (center of the circle)*
0 $4 $5 position (X,Y) of the second rounded end (center of the circle)*
0 Add line between two ends*
20,1,$1,$2,$3,$4,$5,0*
0 Add two circle primitives to create the rounded ends*
1,1,$1,$2,$3*
1,1,$1,$4,$5*%
%AMRotRect*
0 Rectangle, with rotation*
0 The origin of the aperture is its center*
0 $1 length*
0 $2 width*
0 $3 Rotation angle, in degrees counterclockwise*
0 Add horizontal line*
21,1,$1,$2,0,0,$3*%
%AMFreePoly0*
4,1,19,0.500000,-0.750000,0.000000,-0.750000,0.000000,-0.744911,-0.071157,-0.744911,-0.207708,-0.704816,-0.327430,-0.627875,-0.420627,-0.520320,-0.479746,-0.390866,-0.500000,-0.250000,-0.500000,0.250000,-0.479746,0.390866,-0.420627,0.520320,-0.327430,0.627875,-0.207708,0.704816,-0.071157,0.744911,0.000000,0.744911,0.000000,0.750000,0.500000,0.750000,0.500000,-0.750000,0.500000,-0.750000,
$1*%
%AMFreePoly1*
4,1,19,0.000000,0.744911,0.071157,0.744911,0.207708,0.704816,0.327430,0.627875,0.420627,0.520320,0.479746,0.390866,0.500000,0.250000,0.500000,-0.250000,0.479746,-0.390866,0.420627,-0.520320,0.327430,-0.627875,0.207708,-0.704816,0.071157,-0.744911,0.000000,-0.744911,0.000000,-0.750000,-0.500000,-0.750000,-0.500000,0.750000,0.000000,0.750000,0.000000,0.744911,0.000000,0.744911,
$1*%
G04 Aperture macros list end*
%TA.AperFunction,EtchedComponent*%
%ADD10C,0.000000*%
%TD*%
%TA.AperFunction,ComponentPad*%
%ADD11O,1.200000X2.000000*%
%TD*%
%TA.AperFunction,ComponentPad*%
%ADD12O,1.200000X1.800000*%
%TD*%
%TA.AperFunction,ComponentPad*%
%ADD13R,1.700000X1.700000*%
%TD*%
%TA.AperFunction,ComponentPad*%
%ADD14O,1.700000X1.700000*%
%TD*%
%TA.AperFunction,SMDPad,CuDef*%
%ADD15RoundRect,0.250000X-0.350000X-0.450000X0.350000X-0.450000X0.350000X0.450000X-0.350000X0.450000X0*%
%TD*%
%TA.AperFunction,SMDPad,CuDef*%
%ADD16RoundRect,0.250000X-0.337500X-0.475000X0.337500X-0.475000X0.337500X0.475000X-0.337500X0.475000X0*%
%TD*%
%TA.AperFunction,SMDPad,CuDef*%
%ADD17RoundRect,0.250000X0.337500X0.475000X-0.337500X0.475000X-0.337500X-0.475000X0.337500X-0.475000X0*%
%TD*%
%TA.AperFunction,SMDPad,CuDef*%
%ADD18R,2.500000X0.350000*%
%TD*%
%TA.AperFunction,SMDPad,CuDef*%
%ADD19RoundRect,0.200000X-0.200000X-0.275000X0.200000X-0.275000X0.200000X0.275000X-0.200000X0.275000X0*%
%TD*%
%TA.AperFunction,SMDPad,CuDef*%
%ADD20R,1.500000X0.900000*%
%TD*%
%TA.AperFunction,SMDPad,CuDef*%
%ADD21FreePoly0,90.000000*%
%TD*%
%TA.AperFunction,SMDPad,CuDef*%
%ADD22FreePoly1,90.000000*%
%TD*%
%TA.AperFunction,SMDPad,CuDef*%
%ADD23RoundRect,0.250000X-0.475000X0.337500X-0.475000X-0.337500X0.475000X-0.337500X0.475000X0.337500X0*%
%TD*%
%TA.AperFunction,SMDPad,CuDef*%
%ADD24RoundRect,0.250000X-0.450000X0.350000X-0.450000X-0.350000X0.450000X-0.350000X0.450000X0.350000X0*%
%TD*%
%TA.AperFunction,SMDPad,CuDef*%
%ADD25R,1.500000X1.500000*%
%TD*%
%TA.AperFunction,SMDPad,CuDef*%
%ADD26RoundRect,0.150000X0.587500X0.150000X-0.587500X0.150000X-0.587500X-0.150000X0.587500X-0.150000X0*%
%TD*%
%TA.AperFunction,SMDPad,CuDef*%
%ADD27RoundRect,0.250000X0.350000X0.450000X-0.350000X0.450000X-0.350000X-0.450000X0.350000X-0.450000X0*%
%TD*%
%TA.AperFunction,SMDPad,CuDef*%
%ADD28RoundRect,0.165000X-0.567158X-0.125625X0.055785X-0.578220X0.567158X0.125625X-0.055785X0.578220X0*%
%TD*%
%TA.AperFunction,ComponentPad*%
%ADD29C,0.950000*%
%TD*%
%TA.AperFunction,SMDPad,CuDef*%
%ADD30RoundRect,0.180000X-0.586657X-0.092917X0.092917X-0.586657X0.586657X0.092917X-0.092917X0.586657X0*%
%TD*%
%TA.AperFunction,SMDPad,CuDef*%
%ADD31RoundRect,0.210000X-0.724884X-0.079014X0.148854X-0.713822X0.724884X0.079014X-0.148854X0.713822X0*%
%TD*%
%TA.AperFunction,SMDPad,CuDef*%
%ADD32R,0.600000X1.000000*%
%TD*%
%TA.AperFunction,SMDPad,CuDef*%
%ADD33RoundRect,0.250000X0.475000X-0.337500X0.475000X0.337500X-0.475000X0.337500X-0.475000X-0.337500X0*%
%TD*%
%TA.AperFunction,SMDPad,CuDef*%
%ADD34RoundRect,0.075000X-0.350000X-0.075000X0.350000X-0.075000X0.350000X0.075000X-0.350000X0.075000X0*%
%TD*%
%TA.AperFunction,SMDPad,CuDef*%
%ADD35RoundRect,0.075000X-0.075000X0.350000X-0.075000X-0.350000X0.075000X-0.350000X0.075000X0.350000X0*%
%TD*%
%TA.AperFunction,SMDPad,CuDef*%
%ADD36RoundRect,0.200000X-0.275000X0.200000X-0.275000X-0.200000X0.275000X-0.200000X0.275000X0.200000X0*%
%TD*%
%TA.AperFunction,SMDPad,CuDef*%
%ADD37C,1.000000*%
%TD*%
%TA.AperFunction,SMDPad,CuDef*%
%ADD38RoundRect,0.243750X-0.456250X0.243750X-0.456250X-0.243750X0.456250X-0.243750X0.456250X0.243750X0*%
%TD*%
%TA.AperFunction,SMDPad,CuDef*%
%ADD39RoundRect,0.200000X0.110552X-0.321564X0.339982X0.006097X-0.110552X0.321564X-0.339982X-0.006097X0*%
%TD*%
%TA.AperFunction,ComponentPad*%
%ADD40RotRect,1.700000X1.700000X225.000000*%
%TD*%
%TA.AperFunction,ComponentPad*%
%ADD41HorizOval,1.700000X0.000000X0.000000X0.000000X0.000000X0*%
%TD*%
%TA.AperFunction,SMDPad,CuDef*%
%ADD42RoundRect,0.150000X0.725000X0.150000X-0.725000X0.150000X-0.725000X-0.150000X0.725000X-0.150000X0*%
%TD*%
%TA.AperFunction,SMDPad,CuDef*%
%ADD43RoundRect,0.225000X0.375000X-0.225000X0.375000X0.225000X-0.375000X0.225000X-0.375000X-0.225000X0*%
%TD*%
%TA.AperFunction,ViaPad*%
%ADD44C,2.300000*%
%TD*%
%TA.AperFunction,ViaPad*%
%ADD45C,0.600000*%
%TD*%
%TA.AperFunction,ViaPad*%
%ADD46C,3.300000*%
%TD*%
%TA.AperFunction,ViaPad*%
%ADD47C,2.600000*%
%TD*%
%TA.AperFunction,ViaPad*%
%ADD48C,0.500000*%
%TD*%
%TA.AperFunction,Conductor*%
%ADD49C,0.400000*%
%TD*%
%TA.AperFunction,Conductor*%
%ADD50C,0.300000*%
%TD*%
%TA.AperFunction,Conductor*%
%ADD51C,0.500000*%
%TD*%
%TA.AperFunction,Conductor*%
%ADD52C,0.200000*%
%TD*%
%TA.AperFunction,Conductor*%
%ADD53C,0.250000*%
%TD*%
G04 APERTURE END LIST*
D10*
%TA.AperFunction,EtchedComponent*%
%TO.C,JP1*%
G36*
X100200000Y-87200000D02*
G01*
X99600000Y-87200000D01*
X99600000Y-86700000D01*
X100200000Y-86700000D01*
X100200000Y-87200000D01*
G37*
%TD.AperFunction*%
%TD*%
D11*
%TO.P,U3,0,0*%
%TO.N,GND*%
X112425000Y-92645500D03*
D12*
X112425000Y-96845500D03*
D11*
X121075000Y-92645500D03*
D12*
X121075000Y-96845500D03*
%TD*%
D13*
%TO.P,J4,1,Pin_1*%
%TO.N,+3.3VP*%
X134200000Y-75320000D03*
D14*
%TO.P,J4,2,Pin_2*%
%TO.N,+BATT*%
X134200000Y-72780000D03*
%TO.P,J4,3,Pin_3*%
%TO.N,Net-(D8-DOUT)*%
X134200000Y-70240000D03*
%TO.P,J4,4,Pin_4*%
%TO.N,GND*%
X134200000Y-67700000D03*
%TD*%
D15*
%TO.P,R21,1*%
%TO.N,+3.3VP*%
X118600000Y-69000000D03*
%TO.P,R21,2*%
%TO.N,Net-(R21-Pad2)*%
X120600000Y-69000000D03*
%TD*%
D16*
%TO.P,C11,1*%
%TO.N,GND*%
X103162500Y-75300000D03*
%TO.P,C11,2*%
%TO.N,Net-(U8-REGOUT)*%
X105237500Y-75300000D03*
%TD*%
D17*
%TO.P,C16,1*%
%TO.N,+BATT*%
X134675000Y-93400000D03*
%TO.P,C16,2*%
%TO.N,GND*%
X132600000Y-93400000D03*
%TD*%
D15*
%TO.P,R12,1*%
%TO.N,Net-(D3-K)*%
X112460000Y-87400000D03*
%TO.P,R12,2*%
%TO.N,Net-(U4-CHRG)*%
X114460000Y-87400000D03*
%TD*%
D18*
%TO.P,U5,1,GND*%
%TO.N,GND*%
X123675000Y-78150000D03*
%TO.P,U5,2,LEDK*%
%TO.N,/LEDK*%
X123675000Y-78850000D03*
%TO.P,U5,3,LEDA*%
%TO.N,/LEDA*%
X123675000Y-79550000D03*
%TO.P,U5,4,VDD*%
%TO.N,+3.3VP*%
X123675000Y-80250000D03*
%TO.P,U5,5,GND*%
%TO.N,GND*%
X123675000Y-80950000D03*
%TO.P,U5,6,GND*%
X123675000Y-81650000D03*
%TO.P,U5,7,D/C*%
%TO.N,/TFT_DC*%
X123675000Y-82350000D03*
%TO.P,U5,8,~{CS}*%
%TO.N,/TFT_CS*%
X123675000Y-83050000D03*
%TO.P,U5,9,SCK*%
%TO.N,/SCK*%
X123675000Y-83750000D03*
%TO.P,U5,10,SDI*%
%TO.N,/MOSI*%
X123675000Y-84450000D03*
%TO.P,U5,11,~{RESET}*%
%TO.N,Net-(U5-~{RESET})*%
X123675000Y-85150000D03*
%TO.P,U5,12,GND*%
%TO.N,GND*%
X123675000Y-85850000D03*
%TD*%
D19*
%TO.P,R16,1*%
%TO.N,Net-(Q1-G)*%
X114200000Y-84200000D03*
%TO.P,R16,2*%
%TO.N,/BLK*%
X115850000Y-84200000D03*
%TD*%
D20*
%TO.P,D8,1,VDD*%
%TO.N,+BATT*%
X134450000Y-59350000D03*
%TO.P,D8,2,DOUT*%
%TO.N,Net-(D8-DOUT)*%
X134450000Y-62650000D03*
%TO.P,D8,3,VSS*%
%TO.N,GND*%
X129550000Y-62650000D03*
%TO.P,D8,4,DIN*%
%TO.N,Net-(D7-DOUT)*%
X129550000Y-59350000D03*
%TD*%
%TO.P,D2,1,VDD*%
%TO.N,+BATT*%
X109150000Y-74650000D03*
%TO.P,D2,2,DOUT*%
%TO.N,Net-(D2-DOUT)*%
X109150000Y-71350000D03*
%TO.P,D2,3,VSS*%
%TO.N,GND*%
X114050000Y-71350000D03*
%TO.P,D2,4,DIN*%
%TO.N,Net-(D1-DOUT)*%
X114050000Y-74650000D03*
%TD*%
%TO.P,D6,1,VDD*%
%TO.N,+BATT*%
X98950000Y-96350000D03*
%TO.P,D6,2,DOUT*%
%TO.N,Net-(D6-DOUT)*%
X98950000Y-99650000D03*
%TO.P,D6,3,VSS*%
%TO.N,GND*%
X94050000Y-99650000D03*
%TO.P,D6,4,DIN*%
%TO.N,Net-(D5-DOUT)*%
X94050000Y-96350000D03*
%TD*%
D17*
%TO.P,C17,1*%
%TO.N,+BATT*%
X95775000Y-65500000D03*
%TO.P,C17,2*%
%TO.N,GND*%
X93700000Y-65500000D03*
%TD*%
D21*
%TO.P,JP1,1,A*%
%TO.N,Net-(JP1-A)*%
X99900000Y-87600000D03*
D22*
%TO.P,JP1,2,B*%
%TO.N,+BATT*%
X99900000Y-86300000D03*
%TD*%
D23*
%TO.P,C3,1*%
%TO.N,+5VD*%
X115200000Y-93162500D03*
%TO.P,C3,2*%
%TO.N,GND*%
X115200000Y-95237500D03*
%TD*%
D16*
%TO.P,C10,1*%
%TO.N,Net-(U7-VCP)*%
X103662500Y-86700000D03*
%TO.P,C10,2*%
%TO.N,+BATT*%
X105737500Y-86700000D03*
%TD*%
D23*
%TO.P,C8,1*%
%TO.N,+BATT*%
X99000000Y-81562500D03*
%TO.P,C8,2*%
%TO.N,GND*%
X99000000Y-83637500D03*
%TD*%
D24*
%TO.P,R13,1*%
%TO.N,Net-(U4-PROG)*%
X117800000Y-91800000D03*
%TO.P,R13,2*%
%TO.N,GND*%
X117800000Y-93800000D03*
%TD*%
D23*
%TO.P,C9,1*%
%TO.N,+BATT*%
X101400000Y-82362500D03*
%TO.P,C9,2*%
%TO.N,GND*%
X101400000Y-84437500D03*
%TD*%
D25*
%TO.P,BLK,1,1*%
%TO.N,/BLK*%
X119400000Y-77000000D03*
%TD*%
D13*
%TO.P,J1,1,Pin_1*%
%TO.N,+3.3VP*%
X126600000Y-70650000D03*
D14*
%TO.P,J1,2,Pin_2*%
%TO.N,GND*%
X126600000Y-73190000D03*
%TO.P,J1,3,Pin_3*%
%TO.N,/GPIO43*%
X126600000Y-75730000D03*
%TO.P,J1,4,Pin_4*%
%TO.N,/GPIO44*%
X126600000Y-78270000D03*
%TO.P,J1,5,Pin_5*%
%TO.N,/GPIO41*%
X126600000Y-80810000D03*
%TO.P,J1,6,Pin_6*%
%TO.N,/GPIO40*%
X126600000Y-83350000D03*
%TD*%
D26*
%TO.P,Q1,1,G*%
%TO.N,Net-(Q1-G)*%
X119400000Y-83400000D03*
%TO.P,Q1,2,S*%
%TO.N,GND*%
X119400000Y-85300000D03*
%TO.P,Q1,3,D*%
%TO.N,/LEDK*%
X117525000Y-84350000D03*
%TD*%
D27*
%TO.P,R14,1*%
%TO.N,Net-(U8-AD0)*%
X104900000Y-77300000D03*
%TO.P,R14,2*%
%TO.N,GND*%
X102900000Y-77300000D03*
%TD*%
D25*
%TO.P,LED,1,1*%
%TO.N,Net-(D2-DOUT)*%
X107200000Y-65600000D03*
%TD*%
D28*
%TO.P,SW2,1,1*%
%TO.N,Net-(R21-Pad2)*%
X121246640Y-65774433D03*
%TO.P,SW2,2,2*%
%TO.N,/SW_X*%
X124563608Y-68184353D03*
D29*
%TO.P,SW2,SH*%
%TO.N,N/C*%
X122036353Y-64432289D03*
D30*
X122065743Y-64391839D03*
D31*
X122537758Y-67485029D03*
D30*
X125625418Y-66978094D03*
D29*
X125596029Y-67018545D03*
%TD*%
D25*
%TO.P,GND,1,1*%
%TO.N,GND*%
X100600000Y-77200000D03*
%TD*%
D24*
%TO.P,R2,1*%
%TO.N,+3.3VP*%
X109000000Y-76600000D03*
%TO.P,R2,2*%
%TO.N,/MAG_DO*%
X109000000Y-78600000D03*
%TD*%
D32*
%TO.P,U4,1,CHRG*%
%TO.N,Net-(U4-CHRG)*%
X116250000Y-87100000D03*
%TO.P,U4,2,GND*%
%TO.N,GND*%
X117200000Y-87100000D03*
%TO.P,U4,3,BAT*%
%TO.N,+BATT*%
X118150000Y-87100000D03*
%TO.P,U4,4,VCC*%
%TO.N,+5VD*%
X118150000Y-89700000D03*
%TO.P,U4,5,PROG*%
%TO.N,Net-(U4-PROG)*%
X116250000Y-89700000D03*
%TD*%
D33*
%TO.P,C13,1*%
%TO.N,+BATT*%
X107000000Y-73237500D03*
%TO.P,C13,2*%
%TO.N,GND*%
X107000000Y-71162500D03*
%TD*%
D27*
%TO.P,R11,1*%
%TO.N,+3.3VP*%
X109800000Y-88300000D03*
%TO.P,R11,2*%
%TO.N,/SDA*%
X107800000Y-88300000D03*
%TD*%
D20*
%TO.P,D5,1,VDD*%
%TO.N,+BATT*%
X94050000Y-62650000D03*
%TO.P,D5,2,DOUT*%
%TO.N,Net-(D5-DOUT)*%
X94050000Y-59350000D03*
%TO.P,D5,3,VSS*%
%TO.N,GND*%
X98950000Y-59350000D03*
%TO.P,D5,4,DIN*%
%TO.N,Net-(D2-DOUT)*%
X98950000Y-62650000D03*
%TD*%
D25*
%TO.P,GND,1,1*%
%TO.N,GND*%
X108800000Y-95000000D03*
%TD*%
D34*
%TO.P,U8,1,CLKIN*%
%TO.N,GND*%
X105100000Y-83600000D03*
%TO.P,U8,2,NC*%
%TO.N,unconnected-(U8-NC-Pad2)*%
X105100000Y-83100000D03*
%TO.P,U8,3,NC*%
%TO.N,unconnected-(U8-NC-Pad3)*%
X105100000Y-82600000D03*
%TO.P,U8,4,NC*%
%TO.N,unconnected-(U8-NC-Pad4)*%
X105100000Y-82100000D03*
%TO.P,U8,5,NC*%
%TO.N,unconnected-(U8-NC-Pad5)*%
X105100000Y-81600000D03*
%TO.P,U8,6,AUX_DA*%
%TO.N,unconnected-(U8-AUX_DA-Pad6)*%
X105100000Y-81100000D03*
D35*
%TO.P,U8,7,AUX_CL*%
%TO.N,unconnected-(U8-AUX_CL-Pad7)*%
X105800000Y-80400000D03*
%TO.P,U8,8,VLOGIC*%
%TO.N,+3.3VP*%
X106300000Y-80400000D03*
%TO.P,U8,9,AD0*%
%TO.N,Net-(U8-AD0)*%
X106800000Y-80400000D03*
%TO.P,U8,10,REGOUT*%
%TO.N,Net-(U8-REGOUT)*%
X107300000Y-80400000D03*
%TO.P,U8,11,FSYNC*%
%TO.N,GND*%
X107800000Y-80400000D03*
%TO.P,U8,12,INT*%
%TO.N,/INT_MP6050*%
X108300000Y-80400000D03*
D34*
%TO.P,U8,13,VDD*%
%TO.N,+3.3VP*%
X109000000Y-81100000D03*
%TO.P,U8,14,NC*%
%TO.N,unconnected-(U8-NC-Pad14)*%
X109000000Y-81600000D03*
%TO.P,U8,15,NC*%
%TO.N,unconnected-(U8-NC-Pad15)*%
X109000000Y-82100000D03*
%TO.P,U8,16,NC*%
%TO.N,unconnected-(U8-NC-Pad16)*%
X109000000Y-82600000D03*
%TO.P,U8,17,NC*%
%TO.N,unconnected-(U8-NC-Pad17)*%
X109000000Y-83100000D03*
%TO.P,U8,18,GND*%
%TO.N,GND*%
X109000000Y-83600000D03*
D35*
%TO.P,U8,19,RESV*%
%TO.N,unconnected-(U8-RESV-Pad19)*%
X108300000Y-84300000D03*
%TO.P,U8,20,CPOUT*%
%TO.N,unconnected-(U8-CPOUT-Pad20)*%
X107800000Y-84300000D03*
%TO.P,U8,21,RESV*%
%TO.N,unconnected-(U8-RESV-Pad21)*%
X107300000Y-84300000D03*
%TO.P,U8,22,RESV*%
%TO.N,unconnected-(U8-RESV-Pad22)*%
X106800000Y-84300000D03*
%TO.P,U8,23,SCL*%
%TO.N,/SCL*%
X106300000Y-84300000D03*
%TO.P,U8,24,SDA*%
%TO.N,/SDA*%
X105800000Y-84300000D03*
%TD*%
D25*
%TO.P,BAT,1,1*%
%TO.N,+BATT*%
X108200000Y-90600000D03*
%TD*%
D21*
%TO.P,JP2,1,A*%
%TO.N,+5VD*%
X120900000Y-90450000D03*
D22*
%TO.P,JP2,2,B*%
%TO.N,+BATT*%
X120900000Y-89150000D03*
%TD*%
D16*
%TO.P,C5,1*%
%TO.N,GND*%
X103762500Y-88700000D03*
%TO.P,C5,2*%
%TO.N,+BATT*%
X105837500Y-88700000D03*
%TD*%
D36*
%TO.P,R17,1*%
%TO.N,GND*%
X112700000Y-83075000D03*
%TO.P,R17,2*%
%TO.N,Net-(Q1-G)*%
X112700000Y-84725000D03*
%TD*%
D33*
%TO.P,C12,1*%
%TO.N,+3.3VP*%
X104400000Y-73075000D03*
%TO.P,C12,2*%
%TO.N,GND*%
X104400000Y-71000000D03*
%TD*%
D25*
%TO.P,RES,1,1*%
%TO.N,Net-(U1-EN)*%
X102400000Y-79800000D03*
%TD*%
D37*
%TO.P,TP5,1,1*%
%TO.N,Net-(U1-GPIO21)*%
X120100000Y-87100000D03*
%TD*%
D20*
%TO.P,D1,1,VDD*%
%TO.N,Net-(D1-VDD)*%
X118700000Y-74650000D03*
%TO.P,D1,2,DOUT*%
%TO.N,Net-(D1-DOUT)*%
X118700000Y-71350000D03*
%TO.P,D1,3,VSS*%
%TO.N,GND*%
X123600000Y-71350000D03*
%TO.P,D1,4,DIN*%
%TO.N,/LED_WS2812*%
X123600000Y-74650000D03*
%TD*%
D17*
%TO.P,C15,1*%
%TO.N,+BATT*%
X103137500Y-99500000D03*
%TO.P,C15,2*%
%TO.N,GND*%
X101062500Y-99500000D03*
%TD*%
D25*
%TO.P,BAT+,1,1*%
%TO.N,+BATT*%
X99900000Y-73300000D03*
%TD*%
D27*
%TO.P,R10,1*%
%TO.N,+3.3VP*%
X109900000Y-86200000D03*
%TO.P,R10,2*%
%TO.N,/SCL*%
X107900000Y-86200000D03*
%TD*%
D24*
%TO.P,R3,1*%
%TO.N,+3.3VP*%
X107100000Y-75700000D03*
%TO.P,R3,2*%
%TO.N,/MAG_CLK*%
X107100000Y-77700000D03*
%TD*%
D38*
%TO.P,D3,1,K*%
%TO.N,Net-(D3-K)*%
X114420000Y-89482500D03*
%TO.P,D3,2,A*%
%TO.N,+5VD*%
X114420000Y-91357500D03*
%TD*%
D20*
%TO.P,D7,1,VDD*%
%TO.N,+BATT*%
X134450000Y-96350000D03*
%TO.P,D7,2,DOUT*%
%TO.N,Net-(D7-DOUT)*%
X134450000Y-99650000D03*
%TO.P,D7,3,VSS*%
%TO.N,GND*%
X129550000Y-99650000D03*
%TO.P,D7,4,DIN*%
%TO.N,Net-(D6-DOUT)*%
X129550000Y-96350000D03*
%TD*%
D16*
%TO.P,C14,1*%
%TO.N,+BATT*%
X132062500Y-64800000D03*
%TO.P,C14,2*%
%TO.N,GND*%
X134137500Y-64800000D03*
%TD*%
D39*
%TO.P,R18,1*%
%TO.N,+3.3VP*%
X120026799Y-81675800D03*
%TO.P,R18,2*%
%TO.N,/LEDA*%
X120973201Y-80324200D03*
%TD*%
D40*
%TO.P,J2,1,Pin_1*%
%TO.N,/BLDC_U*%
X101403949Y-89814555D03*
D41*
%TO.P,J2,2,Pin_2*%
%TO.N,/BLDC_V*%
X103200000Y-91610606D03*
%TO.P,J2,3,Pin_3*%
%TO.N,/BLDC_W*%
X104996051Y-93406657D03*
%TD*%
D42*
%TO.P,U6,1,VDD*%
%TO.N,+3.3VP*%
X116600000Y-77790000D03*
%TO.P,U6,2,MODE*%
X116600000Y-79060000D03*
%TO.P,U6,3,OUT*%
%TO.N,unconnected-(U6-OUT-Pad3)*%
X116600000Y-80330000D03*
%TO.P,U6,4,GND*%
%TO.N,GND*%
X116600000Y-81600000D03*
%TO.P,U6,5,PUSH*%
%TO.N,unconnected-(U6-PUSH-Pad5)*%
X111450000Y-81600000D03*
%TO.P,U6,6,A*%
%TO.N,/MAG_DO*%
X111450000Y-80330000D03*
%TO.P,U6,7,B*%
%TO.N,/MAG_CLK*%
X111450000Y-79060000D03*
%TO.P,U6,8,Z*%
%TO.N,/MAG_CSN*%
X111450000Y-77790000D03*
%TD*%
D43*
%TO.P,D4,1,K*%
%TO.N,Net-(D1-VDD)*%
X116400000Y-73850000D03*
%TO.P,D4,2,A*%
%TO.N,+BATT*%
X116400000Y-70550000D03*
%TD*%
D44*
%TO.N,*%
X114000000Y-79800000D03*
D45*
%TO.N,/SW_X*%
X121676132Y-77400935D03*
%TO.N,Net-(U1-EN)*%
X103115634Y-78500000D03*
%TO.N,GND*%
X121400000Y-87700000D03*
X129800000Y-76500000D03*
X97600000Y-74800000D03*
X131700000Y-80800000D03*
X109000000Y-84800000D03*
D46*
X102800000Y-68600000D03*
D45*
X119200000Y-85200000D03*
D47*
X132000000Y-61000000D03*
D45*
X121200000Y-82400000D03*
X112700000Y-83100000D03*
X121400000Y-71700000D03*
D47*
X96000000Y-98000000D03*
D45*
X122000000Y-71000000D03*
X110100000Y-83600000D03*
X101000000Y-84600000D03*
X100075735Y-80675735D03*
X102200000Y-87600000D03*
X114450000Y-71350000D03*
D47*
X132000000Y-98000000D03*
D45*
X117094669Y-86355331D03*
D46*
X125600000Y-90600000D03*
D45*
X96600000Y-80600000D03*
X133800000Y-90400000D03*
X98233482Y-85737500D03*
D48*
X120100000Y-78500000D03*
D47*
X96000000Y-61000000D03*
D45*
X100000000Y-76200000D03*
X111400000Y-71000000D03*
X100074265Y-88825735D03*
X107925000Y-79550000D03*
X129300000Y-86900000D03*
%TO.N,+3.3VP*%
X120126799Y-81714579D03*
X110887136Y-82877427D03*
X101800000Y-74600000D03*
X129370821Y-87835410D03*
X129800000Y-80000000D03*
X109000000Y-76600000D03*
%TO.N,+5VD*%
X114349998Y-91577500D03*
X119149998Y-91577500D03*
%TO.N,+BATT*%
X134600000Y-92400000D03*
X98925000Y-81200000D03*
%TO.N,/SDA*%
X107800000Y-88000000D03*
%TO.N,/LEDK*%
X128100000Y-78500000D03*
%TO.N,/BLK*%
X119400000Y-77000000D03*
%TO.N,/TFT_DC*%
X128000000Y-82100000D03*
X120687851Y-83014579D03*
%TO.N,/TFT_CS*%
X121205412Y-83650000D03*
%TO.N,/SCK*%
X120700000Y-84300000D03*
X129800000Y-83500000D03*
%TO.N,/MOSI*%
X121600000Y-86700000D03*
X124000002Y-84450000D03*
%TO.N,Net-(U5-~{RESET})*%
X124400000Y-86800000D03*
%TO.N,/MAG_DO*%
X109000000Y-78600000D03*
%TO.N,/MAG_CLK*%
X107150331Y-77849669D03*
%TO.N,/MAG_CSN*%
X111400000Y-77000000D03*
%TO.N,Net-(U7-VCP)*%
X103325000Y-85737500D03*
%TO.N,/SCL*%
X107900000Y-86200000D03*
%TO.N,/LED_WS2812*%
X122750000Y-74030000D03*
%TO.N,/INT_MP6050*%
X111500000Y-85000000D03*
%TO.N,Net-(JP1-A)*%
X101150765Y-87503229D03*
%TO.N,/LEDA*%
X125131136Y-79498278D03*
%TO.N,Net-(U1-GPIO21)*%
X119300000Y-86900000D03*
%TD*%
D49*
%TO.N,/SW_X*%
X127800000Y-74000000D02*
X127320000Y-74480000D01*
X122849065Y-77400935D02*
X121676132Y-77400935D01*
D50*
X127800000Y-74000000D02*
X127800000Y-69600000D01*
D49*
X127320000Y-74480000D02*
X125770000Y-74480000D01*
D50*
X127200000Y-69000000D02*
X125379255Y-69000000D01*
X127800000Y-69600000D02*
X127200000Y-69000000D01*
X125379255Y-69000000D02*
X124563608Y-68184353D01*
D49*
X125770000Y-74480000D02*
X122849065Y-77400935D01*
D50*
%TO.N,Net-(U1-EN)*%
X102400000Y-79215634D02*
X103115634Y-78500000D01*
D51*
%TO.N,GND*%
X127375000Y-88200000D02*
X127775000Y-88600000D01*
D50*
X109000000Y-83600000D02*
X110100000Y-83600000D01*
X113711056Y-90520000D02*
X112425000Y-91806056D01*
X121800000Y-78350000D02*
X122000000Y-78150000D01*
D51*
X108800000Y-95000000D02*
X111154500Y-92645500D01*
X126025000Y-88200000D02*
X127375000Y-88200000D01*
D50*
X103162500Y-75300000D02*
X103162500Y-77037500D01*
X117200000Y-87900000D02*
X116250000Y-88850000D01*
X94050000Y-99650000D02*
X94850000Y-98850000D01*
X116250000Y-88850000D02*
X115600000Y-88850000D01*
D51*
X129300000Y-86900000D02*
X129114590Y-87085410D01*
D50*
X107800000Y-79675000D02*
X107925000Y-79550000D01*
X114928944Y-90520000D02*
X113711056Y-90520000D01*
D51*
X107000000Y-71162500D02*
X104562500Y-71162500D01*
D50*
X101100000Y-77300000D02*
X100000000Y-76200000D01*
D52*
X109800000Y-92400000D02*
X109800000Y-92800000D01*
D50*
X109000000Y-83600000D02*
X109000000Y-84800000D01*
D53*
X127775000Y-90642577D02*
X125417577Y-93000000D01*
D50*
X121950000Y-81650000D02*
X121200000Y-82400000D01*
X115600000Y-88850000D02*
X115600000Y-89848944D01*
X117200000Y-87100000D02*
X117200000Y-86460662D01*
D53*
X127775000Y-88600000D02*
X127775000Y-90642577D01*
D50*
X120250000Y-78350000D02*
X121800000Y-78350000D01*
X117200000Y-86460662D02*
X117094669Y-86355331D01*
D51*
X114375000Y-81600000D02*
X116600000Y-81600000D01*
D50*
X117200000Y-87100000D02*
X117200000Y-87900000D01*
X100300000Y-80900000D02*
X100075735Y-80675735D01*
D51*
X129060160Y-87085410D02*
X128620821Y-87524749D01*
D50*
X94850000Y-98850000D02*
X100412500Y-98850000D01*
D53*
X125417577Y-93000000D02*
X121429500Y-93000000D01*
D51*
X128620821Y-87524749D02*
X128620821Y-87579179D01*
D50*
X115600000Y-89848944D02*
X114928944Y-90520000D01*
D52*
X100074265Y-88825735D02*
X100587527Y-88312473D01*
D51*
X112900000Y-83075000D02*
X114375000Y-81600000D01*
D50*
X107800000Y-80400000D02*
X107800000Y-79675000D01*
X112425000Y-91806056D02*
X112425000Y-92645500D01*
D52*
X100587527Y-88312473D02*
X101487527Y-88312473D01*
D50*
X122000000Y-78150000D02*
X123675000Y-78150000D01*
X102900000Y-77300000D02*
X101100000Y-77300000D01*
X120100000Y-78500000D02*
X120250000Y-78350000D01*
X104571880Y-83600000D02*
X101871880Y-80900000D01*
D53*
X123675000Y-81650000D02*
X124950000Y-81650000D01*
D50*
X123675000Y-81650000D02*
X121950000Y-81650000D01*
D51*
X129114590Y-87085410D02*
X129060160Y-87085410D01*
D53*
X123675000Y-80950000D02*
X123675000Y-81650000D01*
D50*
X101871880Y-80900000D02*
X100300000Y-80900000D01*
D52*
X101487527Y-88312473D02*
X102200000Y-87600000D01*
D50*
X105100000Y-83600000D02*
X104571880Y-83600000D01*
X100412500Y-98850000D02*
X101062500Y-99500000D01*
D51*
X111154500Y-92645500D02*
X112425000Y-92645500D01*
X104562500Y-71162500D02*
X104400000Y-71000000D01*
X128620821Y-87579179D02*
X125600000Y-90600000D01*
D49*
%TO.N,+3.3VP*%
X119850000Y-71139950D02*
X119850000Y-70250000D01*
D51*
X130700000Y-85622938D02*
X130593633Y-85927731D01*
D53*
X110887136Y-84728980D02*
X109800000Y-85816116D01*
D50*
X122425000Y-80250000D02*
X123675000Y-80250000D01*
D53*
X104325000Y-75775000D02*
X104325000Y-73475000D01*
D51*
X130700000Y-80900000D02*
X130700000Y-85622938D01*
D52*
X117387092Y-79060000D02*
X117899712Y-79572620D01*
D49*
X120300000Y-73700000D02*
X120300000Y-71589950D01*
D51*
X114300000Y-76000000D02*
X109600000Y-76000000D01*
D49*
X127750000Y-80000000D02*
X129800000Y-80000000D01*
D51*
X116090000Y-77790000D02*
X114300000Y-76000000D01*
D49*
X126059364Y-79560000D02*
X125369364Y-80250000D01*
D51*
X102287500Y-74112500D02*
X105859378Y-74112500D01*
D49*
X119850000Y-75500000D02*
X119850000Y-74150000D01*
D50*
X109528120Y-81100000D02*
X109000000Y-81100000D01*
D51*
X130593633Y-85927731D02*
X130285878Y-86693101D01*
D49*
X125369364Y-80250000D02*
X123675000Y-80250000D01*
D51*
X105859378Y-74112500D02*
X107100000Y-75353122D01*
D49*
X127750000Y-80000000D02*
X127310000Y-79560000D01*
D50*
X123675000Y-80250000D02*
X122450000Y-80250000D01*
D51*
X116600000Y-79060000D02*
X116600000Y-77790000D01*
X130285878Y-86693101D02*
X129942852Y-87443305D01*
D50*
X110887136Y-82877427D02*
X109775000Y-81765291D01*
D53*
X109800000Y-85816116D02*
X109800000Y-88300000D01*
D49*
X127310000Y-79560000D02*
X126059364Y-79560000D01*
X119850000Y-74150000D02*
X120300000Y-73700000D01*
D50*
X121964003Y-80928891D02*
X121392894Y-81500000D01*
D49*
X116600000Y-77790000D02*
X116600000Y-77000000D01*
X116600000Y-77000000D02*
X118000000Y-75600000D01*
D50*
X105128248Y-79200000D02*
X104544544Y-79200000D01*
X109775000Y-81346880D02*
X109528120Y-81100000D01*
X109775000Y-81765291D02*
X109775000Y-81346880D01*
D51*
X129800000Y-80000000D02*
X130700000Y-80900000D01*
D49*
X119750000Y-75600000D02*
X119850000Y-75500000D01*
D51*
X102287500Y-74112500D02*
X101800000Y-74600000D01*
D53*
X103975000Y-78630456D02*
X103975000Y-76125000D01*
D51*
X109600000Y-76000000D02*
X109000000Y-76600000D01*
D50*
X121964003Y-80735997D02*
X121964003Y-80928891D01*
D51*
X116600000Y-77790000D02*
X116090000Y-77790000D01*
X107100000Y-75353122D02*
X107100000Y-75700000D01*
D52*
X116600000Y-79060000D02*
X117387092Y-79060000D01*
D51*
X108100000Y-75700000D02*
X109000000Y-76600000D01*
D50*
X122450000Y-80250000D02*
X121964003Y-80735997D01*
X106300000Y-80400000D02*
X106300000Y-79700000D01*
D49*
X120300000Y-71589950D02*
X119850000Y-71139950D01*
D50*
X104544544Y-79200000D02*
X104200000Y-78855456D01*
X121392894Y-81500000D02*
X120502600Y-81500000D01*
D53*
X103975000Y-76125000D02*
X104325000Y-75775000D01*
D49*
X118000000Y-75600000D02*
X119750000Y-75600000D01*
D50*
X106225000Y-79625000D02*
X105553248Y-79625000D01*
X120502600Y-81500000D02*
X120126799Y-81875801D01*
D51*
X107100000Y-75700000D02*
X108100000Y-75700000D01*
D53*
X110887136Y-82877427D02*
X110887136Y-84728980D01*
D50*
X106300000Y-79700000D02*
X106225000Y-79625000D01*
D49*
X119850000Y-70250000D02*
X118600000Y-69000000D01*
D53*
X104200000Y-78855456D02*
X103975000Y-78630456D01*
D50*
X105553248Y-79625000D02*
X105128248Y-79200000D01*
D51*
X129942852Y-87443305D02*
X129565282Y-88176751D01*
D49*
%TO.N,+5VD*%
X119149998Y-90699998D02*
X119149998Y-91577500D01*
X118526166Y-92800000D02*
X115562500Y-92800000D01*
D51*
X120850000Y-90250000D02*
X119599996Y-90250000D01*
D49*
X119149998Y-91577500D02*
X119149998Y-92176168D01*
X118150000Y-89700000D02*
X119149998Y-90699998D01*
D51*
X119599996Y-90250000D02*
X119149998Y-90699998D01*
D49*
X119149998Y-92176168D02*
X118526166Y-92800000D01*
X114349998Y-92312498D02*
X115200000Y-93162500D01*
X114349998Y-91577500D02*
X114349998Y-92312498D01*
D53*
%TO.N,Net-(U8-REGOUT)*%
X107300000Y-79200000D02*
X107300000Y-80400000D01*
X105825000Y-78553248D02*
X105896752Y-78625000D01*
X106725000Y-78625000D02*
X107300000Y-79200000D01*
X105896752Y-78625000D02*
X106725000Y-78625000D01*
X105237500Y-75300000D02*
X105825000Y-75887500D01*
X105825000Y-75887500D02*
X105825000Y-78553248D01*
D51*
%TO.N,Net-(D1-DOUT)*%
X117150000Y-71350000D02*
X114900000Y-73600000D01*
X114900000Y-73600000D02*
X114900000Y-74300000D01*
X114900000Y-74300000D02*
X114550000Y-74650000D01*
X114550000Y-74650000D02*
X114050000Y-74650000D01*
X118700000Y-71350000D02*
X117150000Y-71350000D01*
%TO.N,Net-(D2-DOUT)*%
X107200000Y-69400000D02*
X107200000Y-65600000D01*
X109150000Y-71350000D02*
X107200000Y-69400000D01*
D49*
X107200000Y-64100000D02*
X104800000Y-61700000D01*
X104800000Y-61700000D02*
X99900000Y-61700000D01*
X99900000Y-61700000D02*
X98900000Y-62700000D01*
D51*
X109550000Y-71350000D02*
X109150000Y-71350000D01*
D49*
X107200000Y-65600000D02*
X107200000Y-64100000D01*
%TO.N,+BATT*%
X94700000Y-67700000D02*
X94700000Y-65300000D01*
D51*
X108200000Y-90600000D02*
X110100000Y-90600000D01*
D49*
X108412500Y-74650000D02*
X109150000Y-74650000D01*
X100881079Y-62518921D02*
X99300000Y-64100000D01*
D52*
X132062500Y-68538706D02*
X132062500Y-64800000D01*
D51*
X100225000Y-85975000D02*
X100225000Y-83537500D01*
D49*
X94700000Y-63300000D02*
X94050000Y-62650000D01*
X104049406Y-100549406D02*
X123450594Y-100549406D01*
X123450594Y-100549406D02*
X128500000Y-95500000D01*
D51*
X105737500Y-86700000D02*
X101400000Y-82362500D01*
D49*
X98925000Y-76285050D02*
X100905025Y-74305025D01*
X103638717Y-64608692D02*
X103638717Y-64083258D01*
X105750000Y-71987500D02*
X108412500Y-74650000D01*
D51*
X100225000Y-83537500D02*
X101400000Y-82362500D01*
X117400000Y-85600000D02*
X118150000Y-86350000D01*
X118150000Y-86350000D02*
X118150000Y-87100000D01*
D53*
X133196878Y-71298120D02*
X133196878Y-70898579D01*
D52*
X132876206Y-70198667D02*
X132876206Y-69700000D01*
X133050000Y-69526206D02*
X132062500Y-68538706D01*
D49*
X94700000Y-65300000D02*
X94700000Y-63300000D01*
D52*
X134200000Y-72779999D02*
X134200000Y-72301242D01*
D51*
X120000000Y-88950000D02*
X118150000Y-87100000D01*
X134450000Y-96350000D02*
X132750000Y-96350000D01*
D49*
X128500000Y-95500000D02*
X131900000Y-95500000D01*
D51*
X106600000Y-90800000D02*
X107000000Y-90800000D01*
X134450000Y-96350000D02*
X134450000Y-93625000D01*
D49*
X94700000Y-92100000D02*
X94700000Y-89000000D01*
D51*
X107000000Y-90800000D02*
X107200000Y-90600000D01*
D49*
X92818498Y-87118498D02*
X92818498Y-69581502D01*
X98950000Y-96350000D02*
X99850000Y-96350000D01*
X103222550Y-71987500D02*
X105750000Y-71987500D01*
X94700000Y-65300000D02*
X95575000Y-65300000D01*
D51*
X99900000Y-86300000D02*
X100225000Y-85975000D01*
D49*
X100905025Y-74305025D02*
X103222550Y-71987500D01*
X99300000Y-64100000D02*
X97200000Y-64100000D01*
D51*
X105837500Y-88700000D02*
X105837500Y-90037500D01*
D49*
X102988665Y-65616120D02*
X103557628Y-65187077D01*
X95575000Y-65300000D02*
X95775000Y-65500000D01*
D51*
X120850000Y-88950000D02*
X120000000Y-88950000D01*
D49*
X103557628Y-65187077D02*
X103638717Y-64608692D01*
D53*
X132062500Y-68538706D02*
X133025000Y-69501206D01*
D49*
X99850000Y-96350000D02*
X104049406Y-100549406D01*
D51*
X99800000Y-82075000D02*
X101475000Y-82075000D01*
D49*
X102074380Y-62518921D02*
X100881079Y-62518921D01*
D52*
X133188760Y-70845937D02*
X132876206Y-70198667D01*
D49*
X92818498Y-69581502D02*
X94700000Y-67700000D01*
D52*
X132062500Y-63200242D02*
X134450000Y-60812742D01*
D49*
X134600000Y-93325000D02*
X134675000Y-93400000D01*
X97200000Y-64100000D02*
X95800000Y-65500000D01*
X134600000Y-92400000D02*
X134600000Y-93325000D01*
D51*
X105737500Y-86700000D02*
X105737500Y-88600000D01*
D49*
X116400000Y-71000000D02*
X116400000Y-70550000D01*
X95800000Y-65500000D02*
X95775000Y-65500000D01*
D53*
X134200000Y-72780000D02*
X134200000Y-72301242D01*
D51*
X99900000Y-73300000D02*
X100905025Y-74305025D01*
D49*
X99900000Y-73300000D02*
X100626240Y-72573760D01*
X98925000Y-81200000D02*
X98925000Y-76285050D01*
D51*
X98925000Y-81200000D02*
X99800000Y-82075000D01*
X112463122Y-85600000D02*
X117400000Y-85600000D01*
D49*
X100626240Y-72573760D02*
X100626240Y-67839510D01*
X101718452Y-66708963D02*
X102339989Y-66148336D01*
D51*
X132750000Y-96350000D02*
X131900000Y-95500000D01*
D52*
X133050000Y-69526206D02*
X132876206Y-69700000D01*
D51*
X110900000Y-89800000D02*
X110900000Y-87163122D01*
X110900000Y-87163122D02*
X112463122Y-85600000D01*
D49*
X109150000Y-74650000D02*
X110050000Y-74650000D01*
X110050000Y-74650000D02*
X111600000Y-73100000D01*
D52*
X134450000Y-60812742D02*
X134450000Y-59350000D01*
X132062500Y-64800000D02*
X132062500Y-63200242D01*
D49*
X102339989Y-66148336D02*
X102988665Y-65616120D01*
D51*
X134450000Y-93625000D02*
X134675000Y-93400000D01*
D49*
X94700000Y-89000000D02*
X92818498Y-87118498D01*
X103638717Y-64083258D02*
X102074380Y-62518921D01*
X111600000Y-73100000D02*
X114300000Y-73100000D01*
X100626240Y-67839510D02*
X101123837Y-67298070D01*
X101123837Y-67298070D02*
X101718452Y-66708963D01*
D53*
X133025000Y-69501206D02*
X133025000Y-70449314D01*
D51*
X107200000Y-90600000D02*
X108200000Y-90600000D01*
D53*
X134200000Y-72301242D02*
X133196878Y-71298120D01*
D51*
X110100000Y-90600000D02*
X110900000Y-89800000D01*
D49*
X114300000Y-73100000D02*
X116400000Y-71000000D01*
X98950000Y-96350000D02*
X94700000Y-92100000D01*
D51*
X105837500Y-90037500D02*
X106600000Y-90800000D01*
D49*
%TO.N,Net-(D3-K)*%
X114420000Y-89360000D02*
X112460000Y-87400000D01*
%TO.N,Net-(U4-CHRG)*%
X114460000Y-87400000D02*
X115950000Y-87400000D01*
X115950000Y-87400000D02*
X116250000Y-87100000D01*
%TO.N,Net-(U4-PROG)*%
X117800000Y-91800000D02*
X116250000Y-90250000D01*
X116250000Y-90250000D02*
X116250000Y-89700000D01*
D50*
%TO.N,/SDA*%
X105800000Y-85035226D02*
X106232387Y-85467613D01*
D53*
X107800000Y-88300000D02*
X106800000Y-87300000D01*
D50*
X105800000Y-84300000D02*
X105800000Y-85035226D01*
D53*
X106800000Y-86035226D02*
X106232387Y-85467613D01*
X106800000Y-87300000D02*
X106800000Y-86035226D01*
D50*
%TO.N,/LEDK*%
X118800000Y-81157106D02*
X119800000Y-80157106D01*
X127097057Y-77070000D02*
X128100000Y-78072943D01*
X121100000Y-78850000D02*
X123675000Y-78850000D01*
X119800000Y-80157106D02*
X119800000Y-80150000D01*
X117525000Y-83232106D02*
X118800000Y-81957106D01*
X123675000Y-78850000D02*
X124750000Y-78850000D01*
X118800000Y-81957106D02*
X118800000Y-81157106D01*
X119800000Y-80150000D02*
X121100000Y-78850000D01*
D53*
X117525000Y-83861592D02*
X117525000Y-84350000D01*
D50*
X124925000Y-78675000D02*
X125275000Y-78675000D01*
X117525000Y-83861592D02*
X117525000Y-83232106D01*
X126102943Y-77070000D02*
X127097057Y-77070000D01*
X125400000Y-78550000D02*
X125400000Y-77772943D01*
X125400000Y-77772943D02*
X126102943Y-77070000D01*
X124750000Y-78850000D02*
X124925000Y-78675000D01*
X125275000Y-78675000D02*
X125400000Y-78550000D01*
X128100000Y-78072943D02*
X128100000Y-78500000D01*
D53*
%TO.N,Net-(Q1-G)*%
X120462500Y-85650908D02*
X120462500Y-84949092D01*
X120188408Y-85925000D02*
X120462500Y-85650908D01*
X114200000Y-84200000D02*
X115000000Y-85000000D01*
D49*
X113600000Y-84800000D02*
X114200000Y-84200000D01*
D53*
X117686592Y-85000000D02*
X118611592Y-85925000D01*
D49*
X112825000Y-84800000D02*
X113600000Y-84800000D01*
D53*
X118611592Y-85925000D02*
X120188408Y-85925000D01*
X115000000Y-85000000D02*
X117686592Y-85000000D01*
X119400000Y-83886592D02*
X119400000Y-83400000D01*
X120462500Y-84949092D02*
X119400000Y-83886592D01*
D50*
%TO.N,/BLK*%
X118200000Y-81850000D02*
X118200000Y-81050000D01*
X118200000Y-81050000D02*
X119300000Y-79950000D01*
X119300000Y-79950000D02*
X119300000Y-77700000D01*
X119300000Y-77700000D02*
X119000000Y-77400000D01*
X115850000Y-84200000D02*
X118200000Y-81850000D01*
%TO.N,/TFT_DC*%
X125225000Y-82350000D02*
X123675000Y-82350000D01*
X123675000Y-82350000D02*
X122433358Y-82350000D01*
D53*
X120930695Y-83014579D02*
X120941116Y-83025000D01*
D50*
X125475000Y-82100000D02*
X125225000Y-82350000D01*
D53*
X120687851Y-83014579D02*
X120930695Y-83014579D01*
X121523004Y-83025000D02*
X122198004Y-82350000D01*
X122198004Y-82350000D02*
X123675000Y-82350000D01*
D50*
X128000000Y-82100000D02*
X125475000Y-82100000D01*
D53*
X120941116Y-83025000D02*
X121523004Y-83025000D01*
%TO.N,/TFT_CS*%
X122238604Y-83050000D02*
X123675000Y-83050000D01*
X121205412Y-83650000D02*
X121638604Y-83650000D01*
D50*
X123675000Y-83050000D02*
X122440464Y-83050000D01*
D53*
X121638604Y-83650000D02*
X122238604Y-83050000D01*
D50*
%TO.N,/SCK*%
X123675000Y-83750000D02*
X125100000Y-83750000D01*
X126100000Y-85400000D02*
X127900000Y-85400000D01*
X125275000Y-84575000D02*
X126100000Y-85400000D01*
D53*
X122175000Y-83750000D02*
X123675000Y-83750000D01*
D50*
X125275000Y-83925000D02*
X125275000Y-84575000D01*
X127900000Y-85400000D02*
X129800000Y-83500000D01*
X125100000Y-83750000D02*
X125275000Y-83925000D01*
D53*
X120700000Y-84300000D02*
X120849352Y-84449352D01*
X120849352Y-84449352D02*
X121475648Y-84449352D01*
X121475648Y-84449352D02*
X122175000Y-83750000D01*
D50*
%TO.N,/MOSI*%
X121296752Y-86396752D02*
X121600000Y-86700000D01*
X123675000Y-84450000D02*
X122146752Y-84450000D01*
X121296752Y-85300000D02*
X121296752Y-86396752D01*
X122146752Y-84450000D02*
X121296752Y-85300000D01*
D53*
X123675000Y-84450000D02*
X122236850Y-84450000D01*
D50*
%TO.N,Net-(U5-~{RESET})*%
X125000000Y-85150000D02*
X123675000Y-85150000D01*
X122250000Y-85150000D02*
X122075000Y-85325000D01*
X122075000Y-86175000D02*
X122700000Y-86800000D01*
X123675000Y-85150000D02*
X122250000Y-85150000D01*
X122700000Y-86800000D02*
X124400000Y-86800000D01*
X122075000Y-85325000D02*
X122075000Y-86175000D01*
D51*
%TO.N,Net-(R21-Pad2)*%
X120600000Y-66421072D02*
X121246639Y-65774433D01*
X120600000Y-69000000D02*
X120600000Y-66421072D01*
D49*
%TO.N,/MAG_DO*%
X111450000Y-80330000D02*
X110730000Y-80330000D01*
X110730000Y-80330000D02*
X109000000Y-78600000D01*
%TO.N,/MAG_CLK*%
X110000000Y-77600000D02*
X107400000Y-77600000D01*
X111450000Y-79060000D02*
X110575001Y-79060000D01*
X110175000Y-78659999D02*
X110175000Y-77775000D01*
X110575001Y-79060000D02*
X110175000Y-78659999D01*
X110175000Y-77775000D02*
X110000000Y-77600000D01*
D51*
%TO.N,/MAG_CSN*%
X111400000Y-77000000D02*
X111400000Y-77740000D01*
D52*
%TO.N,Net-(U7-VCP)*%
X103662500Y-86075000D02*
X103325000Y-85737500D01*
D50*
%TO.N,/SCL*%
X106300000Y-84828120D02*
X106300000Y-84300000D01*
X107671880Y-86200000D02*
X106300000Y-84828120D01*
%TO.N,/LED_WS2812*%
X123600000Y-74650000D02*
X123370000Y-74650000D01*
X123370000Y-74650000D02*
X122750000Y-74030000D01*
D53*
%TO.N,/INT_MP6050*%
X112375908Y-80975000D02*
X110275000Y-80975000D01*
D50*
X109700000Y-80400000D02*
X109964060Y-80664060D01*
D53*
X112650000Y-82100000D02*
X112650000Y-81249092D01*
X112400000Y-82350000D02*
X112650000Y-82100000D01*
D50*
X108300000Y-80400000D02*
X109700000Y-80400000D01*
D53*
X110275000Y-80975000D02*
X109964060Y-80664060D01*
X111500000Y-83000000D02*
X112150000Y-82350000D01*
X112650000Y-81249092D02*
X112375908Y-80975000D01*
X111500000Y-85000000D02*
X111500000Y-83000000D01*
X112150000Y-82350000D02*
X112400000Y-82350000D01*
D50*
%TO.N,Net-(U8-AD0)*%
X106800000Y-80400000D02*
X106800000Y-79492894D01*
D53*
X105750000Y-79150000D02*
X104900000Y-78300000D01*
X104900000Y-78300000D02*
X104900000Y-77300000D01*
X106457106Y-79150000D02*
X105750000Y-79150000D01*
X106800000Y-79492894D02*
X106457106Y-79150000D01*
D52*
%TO.N,Net-(JP1-A)*%
X101150765Y-87503229D02*
X99996771Y-87503229D01*
D51*
%TO.N,Net-(D1-VDD)*%
X117900000Y-73850000D02*
X118700000Y-74650000D01*
X116750000Y-73850000D02*
X117900000Y-73850000D01*
D49*
%TO.N,Net-(D5-DOUT)*%
X94050000Y-59350000D02*
X92100000Y-61300000D01*
X92100000Y-94400000D02*
X94050000Y-96350000D01*
X92100000Y-61300000D02*
X92100000Y-94400000D01*
%TO.N,Net-(D7-DOUT)*%
X135900000Y-58800000D02*
X135900000Y-98200000D01*
X129550000Y-59350000D02*
X130400000Y-58500000D01*
X135600000Y-58500000D02*
X135900000Y-58800000D01*
X130400000Y-58500000D02*
X135600000Y-58500000D01*
X135900000Y-98200000D02*
X134450000Y-99650000D01*
%TO.N,Net-(D6-DOUT)*%
X98950000Y-99650000D02*
X100600000Y-101300000D01*
X124600000Y-101300000D02*
X129550000Y-96350000D01*
X100600000Y-101300000D02*
X124600000Y-101300000D01*
D52*
%TO.N,Net-(D8-DOUT)*%
X134200000Y-70239998D02*
X135350000Y-69089998D01*
X135350000Y-69089998D02*
X135350000Y-63550000D01*
X133669404Y-70272724D02*
X133863601Y-70272724D01*
X134870000Y-70699705D02*
X133799705Y-70699705D01*
X135350000Y-63550000D02*
X134450000Y-62650000D01*
D49*
%TO.N,/LEDA*%
X125079414Y-79550000D02*
X123675000Y-79550000D01*
X125131136Y-79498278D02*
X125079414Y-79550000D01*
D50*
X122357106Y-79550000D02*
X121232106Y-80675000D01*
X123675000Y-79550000D02*
X122357106Y-79550000D01*
%TO.N,Net-(U1-GPIO21)*%
X119300000Y-86900000D02*
X119900000Y-86900000D01*
X119900000Y-86900000D02*
X120100000Y-87100000D01*
%TD*%
%TA.AperFunction,Conductor*%
%TO.N,GND*%
G36*
X92705703Y-87572541D02*
G01*
X92712181Y-87578573D01*
X94263181Y-89129573D01*
X94296666Y-89190896D01*
X94299500Y-89217254D01*
X94299500Y-92047273D01*
X94299500Y-92152727D01*
X94308280Y-92185494D01*
X94326793Y-92254589D01*
X94327637Y-92256050D01*
X94379520Y-92345913D01*
X96186674Y-94153067D01*
X97963181Y-95929573D01*
X97996666Y-95990896D01*
X97999500Y-96017254D01*
X97999500Y-96819752D01*
X98011131Y-96878229D01*
X98011132Y-96878230D01*
X98055447Y-96944552D01*
X98121769Y-96988867D01*
X98121770Y-96988868D01*
X98180247Y-97000499D01*
X98180250Y-97000500D01*
X98180252Y-97000500D01*
X99719750Y-97000500D01*
X99719751Y-97000499D01*
X99778231Y-96988867D01*
X99780081Y-96987630D01*
X99784735Y-96986173D01*
X99789513Y-96984194D01*
X99789690Y-96984621D01*
X99846753Y-96966750D01*
X99914135Y-96985230D01*
X99936656Y-97003049D01*
X100996926Y-98063319D01*
X101030411Y-98124642D01*
X101025427Y-98194334D01*
X100983555Y-98250267D01*
X100918091Y-98274684D01*
X100909246Y-98275000D01*
X100675029Y-98275000D01*
X100675012Y-98275001D01*
X100572302Y-98285494D01*
X100405880Y-98340641D01*
X100405875Y-98340643D01*
X100256654Y-98432684D01*
X100132684Y-98556654D01*
X100040643Y-98705875D01*
X100040641Y-98705880D01*
X99985494Y-98872302D01*
X99985493Y-98872309D01*
X99979912Y-98926937D01*
X99953515Y-98991628D01*
X99896334Y-99031779D01*
X99826523Y-99034641D01*
X99787663Y-99017435D01*
X99778230Y-99011132D01*
X99778229Y-99011131D01*
X99719752Y-98999500D01*
X99719748Y-98999500D01*
X98180252Y-98999500D01*
X98180247Y-98999500D01*
X98121770Y-99011131D01*
X98121769Y-99011132D01*
X98055447Y-99055447D01*
X98011132Y-99121769D01*
X98011131Y-99121770D01*
X97999500Y-99180247D01*
X97999500Y-100119752D01*
X98011131Y-100178229D01*
X98011132Y-100178230D01*
X98055447Y-100244552D01*
X98121769Y-100288867D01*
X98121770Y-100288868D01*
X98180247Y-100300499D01*
X98180250Y-100300500D01*
X98180252Y-100300500D01*
X98982745Y-100300500D01*
X99049784Y-100320185D01*
X99070426Y-100336819D01*
X100021426Y-101287819D01*
X100054911Y-101349142D01*
X100049927Y-101418834D01*
X100008055Y-101474767D01*
X99942591Y-101499184D01*
X99933745Y-101499500D01*
X91624500Y-101499500D01*
X91557461Y-101479815D01*
X91511706Y-101427011D01*
X91500500Y-101375500D01*
X91500500Y-99900000D01*
X92800000Y-99900000D01*
X92800000Y-100147844D01*
X92806401Y-100207372D01*
X92806403Y-100207379D01*
X92856645Y-100342086D01*
X92856649Y-100342093D01*
X92942809Y-100457187D01*
X92942812Y-100457190D01*
X93057906Y-100543350D01*
X93057913Y-100543354D01*
X93192620Y-100593596D01*
X93192627Y-100593598D01*
X93252155Y-100599999D01*
X93252172Y-100600000D01*
X93800000Y-100600000D01*
X93800000Y-99900000D01*
X94300000Y-99900000D01*
X94300000Y-100600000D01*
X94847828Y-100600000D01*
X94847844Y-100599999D01*
X94907372Y-100593598D01*
X94907379Y-100593596D01*
X95042086Y-100543354D01*
X95042093Y-100543350D01*
X95157187Y-100457190D01*
X95157190Y-100457187D01*
X95243350Y-100342093D01*
X95243354Y-100342086D01*
X95293596Y-100207379D01*
X95293598Y-100207372D01*
X95299999Y-100147844D01*
X95300000Y-100147827D01*
X95300000Y-99900000D01*
X94300000Y-99900000D01*
X93800000Y-99900000D01*
X92800000Y-99900000D01*
X91500500Y-99900000D01*
X91500500Y-99400000D01*
X92800000Y-99400000D01*
X93800000Y-99400000D01*
X93800000Y-98700000D01*
X94300000Y-98700000D01*
X94300000Y-99400000D01*
X95300000Y-99400000D01*
X95300000Y-99152172D01*
X95299999Y-99152155D01*
X95293598Y-99092627D01*
X95293596Y-99092620D01*
X95243354Y-98957913D01*
X95243350Y-98957906D01*
X95157190Y-98842812D01*
X95157187Y-98842809D01*
X95042093Y-98756649D01*
X95042086Y-98756645D01*
X94907379Y-98706403D01*
X94907372Y-98706401D01*
X94847844Y-98700000D01*
X94300000Y-98700000D01*
X93800000Y-98700000D01*
X93252155Y-98700000D01*
X93192627Y-98706401D01*
X93192620Y-98706403D01*
X93057913Y-98756645D01*
X93057906Y-98756649D01*
X92942812Y-98842809D01*
X92942809Y-98842812D01*
X92856649Y-98957906D01*
X92856645Y-98957913D01*
X92806403Y-99092620D01*
X92806401Y-99092627D01*
X92800000Y-99152155D01*
X92800000Y-99400000D01*
X91500500Y-99400000D01*
X91500500Y-94625411D01*
X91520185Y-94558372D01*
X91572989Y-94512617D01*
X91642147Y-94502673D01*
X91705703Y-94531698D01*
X91731887Y-94563411D01*
X91779517Y-94645909D01*
X91779522Y-94645915D01*
X93063181Y-95929574D01*
X93096666Y-95990897D01*
X93099500Y-96017255D01*
X93099500Y-96819752D01*
X93111131Y-96878229D01*
X93111132Y-96878230D01*
X93155447Y-96944552D01*
X93221769Y-96988867D01*
X93221770Y-96988868D01*
X93280247Y-97000499D01*
X93280250Y-97000500D01*
X93280252Y-97000500D01*
X94819750Y-97000500D01*
X94819751Y-97000499D01*
X94834568Y-96997552D01*
X94878229Y-96988868D01*
X94878229Y-96988867D01*
X94878231Y-96988867D01*
X94944552Y-96944552D01*
X94988867Y-96878231D01*
X94988867Y-96878229D01*
X94988868Y-96878229D01*
X95000499Y-96819752D01*
X95000500Y-96819750D01*
X95000500Y-95880249D01*
X95000499Y-95880247D01*
X94988868Y-95821770D01*
X94988867Y-95821769D01*
X94944552Y-95755447D01*
X94878230Y-95711132D01*
X94878229Y-95711131D01*
X94819752Y-95699500D01*
X94819748Y-95699500D01*
X94017255Y-95699500D01*
X93950216Y-95679815D01*
X93929574Y-95663181D01*
X92536819Y-94270426D01*
X92503334Y-94209103D01*
X92500500Y-94182745D01*
X92500500Y-87666254D01*
X92520185Y-87599215D01*
X92572989Y-87553460D01*
X92642147Y-87543516D01*
X92705703Y-87572541D01*
G37*
%TD.AperFunction*%
%TA.AperFunction,Conductor*%
G36*
X131679074Y-95920185D02*
G01*
X131699716Y-95936819D01*
X132473387Y-96710490D01*
X132542687Y-96750500D01*
X132576114Y-96769799D01*
X132690691Y-96800500D01*
X133396081Y-96800500D01*
X133463120Y-96820185D01*
X133508875Y-96872989D01*
X133510640Y-96877043D01*
X133511131Y-96878228D01*
X133555447Y-96944552D01*
X133621769Y-96988867D01*
X133621770Y-96988868D01*
X133680247Y-97000499D01*
X133680250Y-97000500D01*
X133680252Y-97000500D01*
X135219750Y-97000500D01*
X135219751Y-97000499D01*
X135234568Y-96997552D01*
X135278229Y-96988868D01*
X135278231Y-96988867D01*
X135306608Y-96969906D01*
X135373285Y-96949027D01*
X135440665Y-96967511D01*
X135487356Y-97019489D01*
X135499500Y-97073007D01*
X135499500Y-97982745D01*
X135479815Y-98049784D01*
X135463181Y-98070426D01*
X134570426Y-98963181D01*
X134509103Y-98996666D01*
X134482745Y-98999500D01*
X133680247Y-98999500D01*
X133621770Y-99011131D01*
X133621769Y-99011132D01*
X133555447Y-99055447D01*
X133511132Y-99121769D01*
X133511131Y-99121770D01*
X133499500Y-99180247D01*
X133499500Y-100119752D01*
X133511131Y-100178229D01*
X133511132Y-100178230D01*
X133555447Y-100244552D01*
X133621769Y-100288867D01*
X133621770Y-100288868D01*
X133680247Y-100300499D01*
X133680250Y-100300500D01*
X133680252Y-100300500D01*
X135219750Y-100300500D01*
X135219751Y-100300499D01*
X135236595Y-100297149D01*
X135278229Y-100288868D01*
X135278229Y-100288867D01*
X135278231Y-100288867D01*
X135344552Y-100244552D01*
X135388867Y-100178231D01*
X135388867Y-100178229D01*
X135388868Y-100178229D01*
X135400499Y-100119752D01*
X135400500Y-100119750D01*
X135400500Y-99317253D01*
X135420185Y-99250214D01*
X135436815Y-99229576D01*
X136135703Y-98530687D01*
X136135708Y-98530684D01*
X136145911Y-98520480D01*
X136145913Y-98520480D01*
X136220480Y-98445913D01*
X136268114Y-98363407D01*
X136318680Y-98315193D01*
X136387287Y-98301970D01*
X136452152Y-98327938D01*
X136492680Y-98384852D01*
X136499500Y-98425409D01*
X136499500Y-101375500D01*
X136479815Y-101442539D01*
X136427011Y-101488294D01*
X136375500Y-101499500D01*
X125266255Y-101499500D01*
X125199216Y-101479815D01*
X125153461Y-101427011D01*
X125143517Y-101357853D01*
X125172542Y-101294297D01*
X125178574Y-101287819D01*
X126566393Y-99900000D01*
X128300000Y-99900000D01*
X128300000Y-100147844D01*
X128306401Y-100207372D01*
X128306403Y-100207379D01*
X128356645Y-100342086D01*
X128356649Y-100342093D01*
X128442809Y-100457187D01*
X128442812Y-100457190D01*
X128557906Y-100543350D01*
X128557913Y-100543354D01*
X128692620Y-100593596D01*
X128692627Y-100593598D01*
X128752155Y-100599999D01*
X128752172Y-100600000D01*
X129300000Y-100600000D01*
X129300000Y-99900000D01*
X129800000Y-99900000D01*
X129800000Y-100600000D01*
X130347828Y-100600000D01*
X130347844Y-100599999D01*
X130407372Y-100593598D01*
X130407379Y-100593596D01*
X130542086Y-100543354D01*
X130542093Y-100543350D01*
X130657187Y-100457190D01*
X130657190Y-100457187D01*
X130743350Y-100342093D01*
X130743354Y-100342086D01*
X130793596Y-100207379D01*
X130793598Y-100207372D01*
X130799999Y-100147844D01*
X130800000Y-100147827D01*
X130800000Y-99900000D01*
X129800000Y-99900000D01*
X129300000Y-99900000D01*
X128300000Y-99900000D01*
X126566393Y-99900000D01*
X127066393Y-99400000D01*
X128300000Y-99400000D01*
X129300000Y-99400000D01*
X129300000Y-98700000D01*
X129800000Y-98700000D01*
X129800000Y-99400000D01*
X130800000Y-99400000D01*
X130800000Y-99152172D01*
X130799999Y-99152155D01*
X130793598Y-99092627D01*
X130793596Y-99092620D01*
X130743354Y-98957913D01*
X130743350Y-98957906D01*
X130657190Y-98842812D01*
X130657187Y-98842809D01*
X130542093Y-98756649D01*
X130542086Y-98756645D01*
X130407379Y-98706403D01*
X130407372Y-98706401D01*
X130347844Y-98700000D01*
X129800000Y-98700000D01*
X129300000Y-98700000D01*
X128752155Y-98700000D01*
X128692627Y-98706401D01*
X128692620Y-98706403D01*
X128557913Y-98756645D01*
X128557906Y-98756649D01*
X128442812Y-98842809D01*
X128442809Y-98842812D01*
X128356649Y-98957906D01*
X128356645Y-98957913D01*
X128306403Y-99092620D01*
X128306401Y-99092627D01*
X128300000Y-99152155D01*
X128300000Y-99400000D01*
X127066393Y-99400000D01*
X129429574Y-97036819D01*
X129490897Y-97003334D01*
X129517255Y-97000500D01*
X130319750Y-97000500D01*
X130319751Y-97000499D01*
X130334568Y-96997552D01*
X130378229Y-96988868D01*
X130378229Y-96988867D01*
X130378231Y-96988867D01*
X130444552Y-96944552D01*
X130488867Y-96878231D01*
X130488867Y-96878229D01*
X130488868Y-96878229D01*
X130500499Y-96819752D01*
X130500500Y-96819750D01*
X130500500Y-96024500D01*
X130520185Y-95957461D01*
X130572989Y-95911706D01*
X130624500Y-95900500D01*
X131612035Y-95900500D01*
X131679074Y-95920185D01*
G37*
%TD.AperFunction*%
%TA.AperFunction,Conductor*%
G36*
X100192482Y-68253821D02*
G01*
X100223766Y-68316295D01*
X100225740Y-68338331D01*
X100225740Y-72225500D01*
X100206055Y-72292539D01*
X100153251Y-72338294D01*
X100101740Y-72349500D01*
X99130247Y-72349500D01*
X99071770Y-72361131D01*
X99071769Y-72361132D01*
X99005447Y-72405447D01*
X98961132Y-72471769D01*
X98961131Y-72471770D01*
X98949500Y-72530247D01*
X98949500Y-74069752D01*
X98961131Y-74128229D01*
X98961132Y-74128230D01*
X99005447Y-74194552D01*
X99071769Y-74238867D01*
X99071770Y-74238868D01*
X99130247Y-74250499D01*
X99130250Y-74250500D01*
X99130252Y-74250500D01*
X100093795Y-74250500D01*
X100160834Y-74270185D01*
X100206589Y-74322989D01*
X100216533Y-74392147D01*
X100187508Y-74455703D01*
X100181476Y-74462181D01*
X98604522Y-76039134D01*
X98604520Y-76039137D01*
X98551791Y-76130463D01*
X98529316Y-76214351D01*
X98529315Y-76214355D01*
X98524500Y-76232322D01*
X98524500Y-80659908D01*
X98504815Y-80726947D01*
X98452011Y-80772702D01*
X98441456Y-80776949D01*
X98312117Y-80822207D01*
X98202850Y-80902850D01*
X98122207Y-81012117D01*
X98122206Y-81012119D01*
X98077353Y-81140298D01*
X98077353Y-81140300D01*
X98074500Y-81170730D01*
X98074500Y-81954269D01*
X98077353Y-81984699D01*
X98077353Y-81984701D01*
X98121715Y-82111476D01*
X98122207Y-82112882D01*
X98202850Y-82222150D01*
X98312118Y-82302793D01*
X98376033Y-82325158D01*
X98432807Y-82365878D01*
X98458555Y-82430830D01*
X98445099Y-82499392D01*
X98396712Y-82549795D01*
X98374082Y-82559904D01*
X98205878Y-82615642D01*
X98205875Y-82615643D01*
X98056654Y-82707684D01*
X97932684Y-82831654D01*
X97840643Y-82980875D01*
X97840641Y-82980880D01*
X97785494Y-83147302D01*
X97785493Y-83147309D01*
X97775000Y-83250013D01*
X97775000Y-83387500D01*
X99126000Y-83387500D01*
X99193039Y-83407185D01*
X99238794Y-83459989D01*
X99250000Y-83511500D01*
X99250000Y-84724999D01*
X99524972Y-84724999D01*
X99524986Y-84724998D01*
X99634431Y-84713818D01*
X99634648Y-84715942D01*
X99694192Y-84720386D01*
X99749996Y-84762429D01*
X99774211Y-84827969D01*
X99774500Y-84836433D01*
X99774500Y-85467450D01*
X99754815Y-85534489D01*
X99702011Y-85580244D01*
X99650500Y-85591450D01*
X99620754Y-85591450D01*
X99478443Y-85611910D01*
X99478438Y-85611912D01*
X99422310Y-85628393D01*
X99291543Y-85688112D01*
X99291527Y-85688121D01*
X99242331Y-85719738D01*
X99242315Y-85719749D01*
X99133669Y-85813892D01*
X99095361Y-85858100D01*
X99095360Y-85858101D01*
X99017631Y-85979049D01*
X99017629Y-85979055D01*
X98993331Y-86032260D01*
X98952825Y-86170210D01*
X98952822Y-86170222D01*
X98944500Y-86228109D01*
X98944500Y-86800004D01*
X98949651Y-86845728D01*
X98971144Y-86890356D01*
X98982496Y-86959297D01*
X98966943Y-86996339D01*
X98970913Y-86998251D01*
X98964850Y-87010839D01*
X98944500Y-87099995D01*
X98944500Y-87671890D01*
X98952822Y-87729777D01*
X98952824Y-87729785D01*
X98993331Y-87867740D01*
X99010014Y-87904269D01*
X99017629Y-87920944D01*
X99017631Y-87920950D01*
X99095359Y-88041896D01*
X99095361Y-88041899D01*
X99133666Y-88086105D01*
X99149701Y-88099999D01*
X99242315Y-88180250D01*
X99242322Y-88180255D01*
X99242327Y-88180259D01*
X99276582Y-88202273D01*
X99291527Y-88211878D01*
X99291543Y-88211887D01*
X99422310Y-88271606D01*
X99422317Y-88271609D01*
X99478439Y-88288088D01*
X99478441Y-88288088D01*
X99478443Y-88288089D01*
X99520878Y-88294189D01*
X99620754Y-88308550D01*
X99620755Y-88308550D01*
X99679242Y-88308550D01*
X99679245Y-88308550D01*
X99691681Y-88306761D01*
X99709327Y-88305500D01*
X100090673Y-88305500D01*
X100108318Y-88306761D01*
X100120755Y-88308550D01*
X100120758Y-88308550D01*
X100179245Y-88308550D01*
X100179246Y-88308550D01*
X100293480Y-88292125D01*
X100321556Y-88288089D01*
X100321557Y-88288088D01*
X100321561Y-88288088D01*
X100377683Y-88271609D01*
X100445830Y-88240487D01*
X100508456Y-88211887D01*
X100508460Y-88211884D01*
X100508468Y-88211881D01*
X100557673Y-88180259D01*
X100557681Y-88180252D01*
X100557684Y-88180250D01*
X100586590Y-88155202D01*
X100666334Y-88086105D01*
X100704639Y-88041899D01*
X100742403Y-87983135D01*
X100795205Y-87937381D01*
X100864363Y-87927437D01*
X100913756Y-87945858D01*
X100940712Y-87963182D01*
X100940715Y-87963183D01*
X100940714Y-87963183D01*
X101078801Y-88003728D01*
X101078803Y-88003729D01*
X101078804Y-88003729D01*
X101222727Y-88003729D01*
X101222727Y-88003728D01*
X101360818Y-87963182D01*
X101481893Y-87885372D01*
X101576142Y-87776602D01*
X101635930Y-87645686D01*
X101656412Y-87503229D01*
X101635930Y-87360772D01*
X101576142Y-87229856D01*
X101481893Y-87121086D01*
X101360818Y-87043276D01*
X101360816Y-87043275D01*
X101360814Y-87043274D01*
X101360815Y-87043274D01*
X101222728Y-87002729D01*
X101222726Y-87002729D01*
X101078804Y-87002729D01*
X100992738Y-87027999D01*
X100922869Y-87027998D01*
X100864091Y-86990222D01*
X100835067Y-86926666D01*
X100836913Y-86881430D01*
X100855500Y-86800000D01*
X100855500Y-86228111D01*
X100847176Y-86170215D01*
X100806669Y-86032260D01*
X100782371Y-85979055D01*
X100782368Y-85979051D01*
X100782368Y-85979049D01*
X100704639Y-85858101D01*
X100701983Y-85854553D01*
X100703158Y-85853672D01*
X100676762Y-85795868D01*
X100675500Y-85778223D01*
X100675500Y-85641930D01*
X100695185Y-85574891D01*
X100747989Y-85529136D01*
X100812103Y-85518572D01*
X100875019Y-85524999D01*
X101149999Y-85524999D01*
X101150000Y-85524998D01*
X101150000Y-84687500D01*
X101650000Y-84687500D01*
X101650000Y-85524999D01*
X101924972Y-85524999D01*
X101924986Y-85524998D01*
X102027697Y-85514505D01*
X102194119Y-85459358D01*
X102194124Y-85459356D01*
X102343345Y-85367315D01*
X102467315Y-85243345D01*
X102559356Y-85094124D01*
X102559358Y-85094119D01*
X102614505Y-84927697D01*
X102614506Y-84927690D01*
X102624999Y-84824986D01*
X102625000Y-84824973D01*
X102625000Y-84687500D01*
X101650000Y-84687500D01*
X101150000Y-84687500D01*
X101150000Y-84311500D01*
X101169685Y-84244461D01*
X101222489Y-84198706D01*
X101274000Y-84187500D01*
X102536535Y-84187500D01*
X102603574Y-84207185D01*
X102624216Y-84223819D01*
X103425716Y-85025319D01*
X103459201Y-85086642D01*
X103454217Y-85156334D01*
X103412345Y-85212267D01*
X103346881Y-85236684D01*
X103338035Y-85237000D01*
X103253036Y-85237000D01*
X103114949Y-85277545D01*
X102993873Y-85355356D01*
X102899623Y-85464126D01*
X102899622Y-85464128D01*
X102839834Y-85595043D01*
X102819353Y-85737500D01*
X102839834Y-85879956D01*
X102857411Y-85918443D01*
X102891932Y-85994032D01*
X102901876Y-86063189D01*
X102896180Y-86086496D01*
X102877354Y-86140298D01*
X102877353Y-86140305D01*
X102874500Y-86170730D01*
X102874500Y-87229269D01*
X102877353Y-87259699D01*
X102877353Y-87259701D01*
X102922206Y-87387880D01*
X102922207Y-87387882D01*
X102977768Y-87463165D01*
X103001739Y-87528793D01*
X102986424Y-87596963D01*
X102961038Y-87626851D01*
X102961763Y-87627576D01*
X102832684Y-87756654D01*
X102740643Y-87905875D01*
X102740641Y-87905880D01*
X102685494Y-88072302D01*
X102685493Y-88072309D01*
X102675000Y-88175013D01*
X102675000Y-88450000D01*
X103888500Y-88450000D01*
X103955539Y-88469685D01*
X104001294Y-88522489D01*
X104012500Y-88574000D01*
X104012500Y-89924999D01*
X104149972Y-89924999D01*
X104149986Y-89924998D01*
X104252697Y-89914505D01*
X104419119Y-89859358D01*
X104419124Y-89859356D01*
X104568345Y-89767315D01*
X104692315Y-89643345D01*
X104784356Y-89494124D01*
X104784359Y-89494117D01*
X104840094Y-89325918D01*
X104879866Y-89268473D01*
X104944382Y-89241649D01*
X105013158Y-89253964D01*
X105064358Y-89301506D01*
X105074841Y-89323965D01*
X105092466Y-89374334D01*
X105097207Y-89387882D01*
X105177850Y-89497150D01*
X105265765Y-89562034D01*
X105287118Y-89577793D01*
X105287120Y-89577794D01*
X105303953Y-89583684D01*
X105360730Y-89624405D01*
X105386478Y-89689358D01*
X105387000Y-89700726D01*
X105387000Y-90096809D01*
X105401118Y-90149500D01*
X105401119Y-90149502D01*
X105417699Y-90211384D01*
X105422920Y-90220426D01*
X105477011Y-90314114D01*
X106323386Y-91160490D01*
X106426113Y-91219799D01*
X106450321Y-91226284D01*
X106450324Y-91226286D01*
X106450325Y-91226286D01*
X106480447Y-91234357D01*
X106540691Y-91250500D01*
X106540693Y-91250500D01*
X107059307Y-91250500D01*
X107059309Y-91250500D01*
X107093406Y-91241363D01*
X107163253Y-91243024D01*
X107221117Y-91282185D01*
X107248623Y-91346412D01*
X107249500Y-91361137D01*
X107249500Y-91369752D01*
X107261131Y-91428229D01*
X107261132Y-91428230D01*
X107305447Y-91494552D01*
X107371769Y-91538867D01*
X107371770Y-91538868D01*
X107430247Y-91550499D01*
X107430250Y-91550500D01*
X107430252Y-91550500D01*
X108969750Y-91550500D01*
X108969751Y-91550499D01*
X108984568Y-91547552D01*
X109028229Y-91538868D01*
X109028229Y-91538867D01*
X109028231Y-91538867D01*
X109094552Y-91494552D01*
X109138867Y-91428231D01*
X109138867Y-91428229D01*
X109138868Y-91428229D01*
X109150499Y-91369752D01*
X109150500Y-91369750D01*
X109150500Y-91174500D01*
X109170185Y-91107461D01*
X109222989Y-91061706D01*
X109274500Y-91050500D01*
X110159307Y-91050500D01*
X110159309Y-91050500D01*
X110257626Y-91024156D01*
X110273887Y-91019799D01*
X110376614Y-90960489D01*
X111260490Y-90076614D01*
X111319799Y-89973887D01*
X111328245Y-89942366D01*
X111350500Y-89859309D01*
X111350500Y-87401087D01*
X111370185Y-87334048D01*
X111386819Y-87313406D01*
X111447819Y-87252406D01*
X111509142Y-87218921D01*
X111578834Y-87223905D01*
X111634767Y-87265777D01*
X111659184Y-87331241D01*
X111659500Y-87340087D01*
X111659500Y-87904269D01*
X111662353Y-87934699D01*
X111662353Y-87934701D01*
X111707206Y-88062880D01*
X111707207Y-88062882D01*
X111787850Y-88172150D01*
X111897118Y-88252793D01*
X111939845Y-88267744D01*
X112025299Y-88297646D01*
X112055730Y-88300500D01*
X112055734Y-88300500D01*
X112742745Y-88300500D01*
X112809784Y-88320185D01*
X112830426Y-88336819D01*
X113173127Y-88679520D01*
X113500015Y-89006407D01*
X113533500Y-89067730D01*
X113529377Y-89135040D01*
X113522313Y-89155228D01*
X113519500Y-89185231D01*
X113519500Y-89779768D01*
X113522313Y-89809769D01*
X113522315Y-89809781D01*
X113566544Y-89936178D01*
X113566545Y-89936180D01*
X113646069Y-90043930D01*
X113753819Y-90123454D01*
X113753821Y-90123455D01*
X113880218Y-90167684D01*
X113880222Y-90167684D01*
X113880226Y-90167686D01*
X113895231Y-90169093D01*
X113910232Y-90170500D01*
X113910236Y-90170500D01*
X114929768Y-90170500D01*
X114943101Y-90169249D01*
X114959774Y-90167686D01*
X114959778Y-90167684D01*
X114959781Y-90167684D01*
X115041114Y-90139224D01*
X115086179Y-90123455D01*
X115193930Y-90043930D01*
X115273455Y-89936179D01*
X115292816Y-89880845D01*
X115317684Y-89809781D01*
X115317684Y-89809778D01*
X115317686Y-89809774D01*
X115319474Y-89790703D01*
X115320500Y-89779768D01*
X115320500Y-89185231D01*
X115317686Y-89155230D01*
X115317686Y-89155228D01*
X115317686Y-89155226D01*
X115317684Y-89155222D01*
X115317684Y-89155218D01*
X115273455Y-89028821D01*
X115273454Y-89028819D01*
X115193930Y-88921069D01*
X115086180Y-88841545D01*
X115086178Y-88841544D01*
X114959781Y-88797315D01*
X114959769Y-88797313D01*
X114929768Y-88794500D01*
X114929764Y-88794500D01*
X114472254Y-88794500D01*
X114405215Y-88774815D01*
X114384573Y-88758181D01*
X114138573Y-88512181D01*
X114105088Y-88450858D01*
X114110072Y-88381166D01*
X114151944Y-88325233D01*
X114217408Y-88300816D01*
X114226254Y-88300500D01*
X114864270Y-88300500D01*
X114894699Y-88297646D01*
X114894701Y-88297646D01*
X114958790Y-88275219D01*
X115022882Y-88252793D01*
X115132150Y-88172150D01*
X115212793Y-88062882D01*
X115235219Y-87998790D01*
X115257646Y-87934701D01*
X115257646Y-87934699D01*
X115259689Y-87912921D01*
X115285547Y-87848013D01*
X115342393Y-87807388D01*
X115383147Y-87800500D01*
X116363444Y-87800500D01*
X116430483Y-87820185D01*
X116462710Y-87850189D01*
X116542809Y-87957187D01*
X116542812Y-87957190D01*
X116657906Y-88043350D01*
X116657913Y-88043354D01*
X116792620Y-88093596D01*
X116792627Y-88093598D01*
X116852155Y-88099999D01*
X116852172Y-88100000D01*
X116950000Y-88100000D01*
X116950000Y-86974000D01*
X116969685Y-86906961D01*
X117022489Y-86861206D01*
X117074000Y-86850000D01*
X117326000Y-86850000D01*
X117393039Y-86869685D01*
X117438794Y-86922489D01*
X117450000Y-86974000D01*
X117450000Y-88100000D01*
X117547828Y-88100000D01*
X117547844Y-88099999D01*
X117607372Y-88093598D01*
X117607379Y-88093596D01*
X117742086Y-88043354D01*
X117742093Y-88043350D01*
X117857187Y-87957190D01*
X117857190Y-87957187D01*
X117937290Y-87850189D01*
X117993223Y-87808318D01*
X118036556Y-87800500D01*
X118162035Y-87800500D01*
X118229074Y-87820185D01*
X118249716Y-87836819D01*
X119723386Y-89310489D01*
X119826113Y-89369799D01*
X119843039Y-89374334D01*
X119843041Y-89374335D01*
X119852588Y-89376893D01*
X119912250Y-89413255D01*
X119942782Y-89476101D01*
X119944500Y-89496669D01*
X119944500Y-89650000D01*
X119945001Y-89654453D01*
X119945809Y-89661620D01*
X119933752Y-89730441D01*
X119886402Y-89781819D01*
X119822588Y-89799500D01*
X119540687Y-89799500D01*
X119426110Y-89830201D01*
X119426108Y-89830201D01*
X119426108Y-89830202D01*
X119391215Y-89850348D01*
X119391214Y-89850348D01*
X119323385Y-89889508D01*
X119323382Y-89889511D01*
X119202321Y-90010570D01*
X119141000Y-90044054D01*
X119071308Y-90039070D01*
X119026961Y-90010569D01*
X118880406Y-89864014D01*
X118686819Y-89670426D01*
X118653334Y-89609103D01*
X118650500Y-89582745D01*
X118650500Y-89180249D01*
X118650499Y-89180247D01*
X118638868Y-89121770D01*
X118638867Y-89121769D01*
X118594552Y-89055447D01*
X118528230Y-89011132D01*
X118528229Y-89011131D01*
X118469752Y-88999500D01*
X118469748Y-88999500D01*
X117830252Y-88999500D01*
X117830247Y-88999500D01*
X117771770Y-89011131D01*
X117771769Y-89011132D01*
X117705447Y-89055447D01*
X117661132Y-89121769D01*
X117661131Y-89121770D01*
X117649500Y-89180247D01*
X117649500Y-90219752D01*
X117661131Y-90278229D01*
X117661132Y-90278230D01*
X117705447Y-90344552D01*
X117771769Y-90388867D01*
X117771770Y-90388868D01*
X117830247Y-90400499D01*
X117830250Y-90400500D01*
X117830252Y-90400500D01*
X118232745Y-90400500D01*
X118299784Y-90420185D01*
X118320426Y-90436819D01*
X118696714Y-90813106D01*
X118728807Y-90868690D01*
X118730199Y-90873885D01*
X118732884Y-90878536D01*
X118749498Y-90940536D01*
X118749498Y-91013108D01*
X118729813Y-91080147D01*
X118677009Y-91125902D01*
X118607851Y-91135846D01*
X118551865Y-91112879D01*
X118507514Y-91080147D01*
X118462882Y-91047207D01*
X118462880Y-91047206D01*
X118334700Y-91002353D01*
X118304270Y-90999500D01*
X118304266Y-90999500D01*
X117617255Y-90999500D01*
X117550216Y-90979815D01*
X117529574Y-90963181D01*
X116786819Y-90220426D01*
X116753334Y-90159103D01*
X116750500Y-90132745D01*
X116750500Y-89180249D01*
X116750499Y-89180247D01*
X116738868Y-89121770D01*
X116738867Y-89121769D01*
X116694552Y-89055447D01*
X116628230Y-89011132D01*
X116628229Y-89011131D01*
X116569752Y-88999500D01*
X116569748Y-88999500D01*
X115930252Y-88999500D01*
X115930247Y-88999500D01*
X115871770Y-89011131D01*
X115871769Y-89011132D01*
X115805447Y-89055447D01*
X115761132Y-89121769D01*
X115761131Y-89121770D01*
X115749500Y-89180247D01*
X115749500Y-90219752D01*
X115761131Y-90278229D01*
X115761132Y-90278230D01*
X115805159Y-90344119D01*
X115805448Y-90344552D01*
X115841130Y-90368394D01*
X115879626Y-90409495D01*
X115929520Y-90495913D01*
X115929522Y-90495915D01*
X116863181Y-91429574D01*
X116896666Y-91490897D01*
X116899500Y-91517255D01*
X116899500Y-92204269D01*
X116902353Y-92234699D01*
X116903964Y-92242073D01*
X116902698Y-92242349D01*
X116905861Y-92304327D01*
X116871130Y-92364954D01*
X116809136Y-92397179D01*
X116785258Y-92399500D01*
X115844058Y-92399500D01*
X115803103Y-92392541D01*
X115759701Y-92377354D01*
X115759699Y-92377353D01*
X115729270Y-92374500D01*
X115729266Y-92374500D01*
X115029755Y-92374500D01*
X114962716Y-92354815D01*
X114942074Y-92338181D01*
X114859943Y-92256050D01*
X114826458Y-92194727D01*
X114831442Y-92125035D01*
X114873314Y-92069102D01*
X114936045Y-92044911D01*
X114959774Y-92042686D01*
X114959777Y-92042685D01*
X114959781Y-92042684D01*
X115040148Y-92014562D01*
X115086179Y-91998455D01*
X115193930Y-91918930D01*
X115273455Y-91811179D01*
X115305375Y-91719957D01*
X115317684Y-91684781D01*
X115317684Y-91684778D01*
X115317686Y-91684774D01*
X115320500Y-91654764D01*
X115320500Y-91060236D01*
X115317686Y-91030226D01*
X115317684Y-91030222D01*
X115317684Y-91030218D01*
X115273455Y-90903821D01*
X115273454Y-90903819D01*
X115193930Y-90796069D01*
X115086180Y-90716545D01*
X115086178Y-90716544D01*
X114959781Y-90672315D01*
X114959769Y-90672313D01*
X114929768Y-90669500D01*
X114929764Y-90669500D01*
X113910236Y-90669500D01*
X113910232Y-90669500D01*
X113880230Y-90672313D01*
X113880218Y-90672315D01*
X113753821Y-90716544D01*
X113753819Y-90716545D01*
X113646069Y-90796069D01*
X113566545Y-90903819D01*
X113566544Y-90903821D01*
X113522315Y-91030218D01*
X113522313Y-91030230D01*
X113519500Y-91060231D01*
X113519500Y-91498885D01*
X113499815Y-91565924D01*
X113447011Y-91611679D01*
X113377853Y-91621623D01*
X113314297Y-91592598D01*
X113295182Y-91571770D01*
X113264038Y-91528903D01*
X113141602Y-91406467D01*
X113001524Y-91304695D01*
X112847257Y-91226091D01*
X112682589Y-91172587D01*
X112682581Y-91172585D01*
X112675000Y-91171384D01*
X112675000Y-91929814D01*
X112670606Y-91925420D01*
X112579394Y-91872759D01*
X112477661Y-91845500D01*
X112372339Y-91845500D01*
X112270606Y-91872759D01*
X112179394Y-91925420D01*
X112175000Y-91929814D01*
X112175000Y-91171384D01*
X112174999Y-91171384D01*
X112167418Y-91172585D01*
X112167410Y-91172587D01*
X112002742Y-91226091D01*
X111848475Y-91304695D01*
X111708397Y-91406467D01*
X111585967Y-91528897D01*
X111484195Y-91668975D01*
X111405591Y-91823242D01*
X111352085Y-91987915D01*
X111325000Y-92158928D01*
X111325000Y-92395500D01*
X112025000Y-92395500D01*
X112025000Y-92895500D01*
X111325000Y-92895500D01*
X111325000Y-93132071D01*
X111352085Y-93303084D01*
X111405591Y-93467757D01*
X111484195Y-93622024D01*
X111585967Y-93762102D01*
X111708397Y-93884532D01*
X111848475Y-93986304D01*
X112002744Y-94064908D01*
X112167415Y-94118414D01*
X112167414Y-94118414D01*
X112174999Y-94119615D01*
X112175000Y-94119614D01*
X112175000Y-93361186D01*
X112179394Y-93365580D01*
X112270606Y-93418241D01*
X112372339Y-93445500D01*
X112477661Y-93445500D01*
X112579394Y-93418241D01*
X112670606Y-93365580D01*
X112675000Y-93361186D01*
X112675000Y-94119615D01*
X112682584Y-94118414D01*
X112847255Y-94064908D01*
X113001524Y-93986304D01*
X113141602Y-93884532D01*
X113264036Y-93762098D01*
X113319090Y-93686321D01*
X113374419Y-93643655D01*
X113444032Y-93637674D01*
X113488300Y-93656103D01*
X113553707Y-93699807D01*
X113553713Y-93699810D01*
X113553714Y-93699811D01*
X113667548Y-93746963D01*
X113788389Y-93770999D01*
X113788393Y-93771000D01*
X113788394Y-93771000D01*
X113911607Y-93771000D01*
X113911608Y-93770999D01*
X114032452Y-93746963D01*
X114146286Y-93699811D01*
X114150742Y-93696833D01*
X114159252Y-93691148D01*
X114225929Y-93670269D01*
X114293309Y-93688753D01*
X114327914Y-93720615D01*
X114402850Y-93822150D01*
X114512118Y-93902793D01*
X114576033Y-93925158D01*
X114632807Y-93965878D01*
X114658555Y-94030830D01*
X114645099Y-94099392D01*
X114596712Y-94149795D01*
X114574082Y-94159904D01*
X114405878Y-94215642D01*
X114405875Y-94215643D01*
X114256654Y-94307684D01*
X114132684Y-94431654D01*
X114040643Y-94580875D01*
X114040641Y-94580880D01*
X113985494Y-94747302D01*
X113985493Y-94747309D01*
X113975000Y-94850013D01*
X113975000Y-94987500D01*
X116424999Y-94987500D01*
X116424999Y-94850028D01*
X116424998Y-94850013D01*
X116414505Y-94747302D01*
X116359358Y-94580880D01*
X116359356Y-94580875D01*
X116267315Y-94431654D01*
X116143345Y-94307684D01*
X115994124Y-94215643D01*
X115994119Y-94215641D01*
X115825917Y-94159905D01*
X115768472Y-94120133D01*
X115741649Y-94055617D01*
X115742655Y-94050000D01*
X116600001Y-94050000D01*
X116600001Y-94199986D01*
X116610494Y-94302697D01*
X116665641Y-94469119D01*
X116665643Y-94469124D01*
X116757684Y-94618345D01*
X116881654Y-94742315D01*
X117030875Y-94834356D01*
X117030880Y-94834358D01*
X117197302Y-94889505D01*
X117197309Y-94889506D01*
X117300019Y-94899999D01*
X117549999Y-94899999D01*
X117550000Y-94899998D01*
X117550000Y-94050000D01*
X118050000Y-94050000D01*
X118050000Y-94899999D01*
X118299972Y-94899999D01*
X118299986Y-94899998D01*
X118402697Y-94889505D01*
X118569119Y-94834358D01*
X118569124Y-94834356D01*
X118718345Y-94742315D01*
X118842315Y-94618345D01*
X118934356Y-94469124D01*
X118934358Y-94469119D01*
X118989505Y-94302697D01*
X118989506Y-94302690D01*
X118999999Y-94199986D01*
X119000000Y-94199973D01*
X119000000Y-94050000D01*
X118050000Y-94050000D01*
X117550000Y-94050000D01*
X116600001Y-94050000D01*
X115742655Y-94050000D01*
X115753964Y-93986841D01*
X115801507Y-93935641D01*
X115823966Y-93925158D01*
X115824458Y-93924986D01*
X115887882Y-93902793D01*
X115997150Y-93822150D01*
X116077793Y-93712882D01*
X116100219Y-93648790D01*
X116122646Y-93584701D01*
X116122646Y-93584699D01*
X116125500Y-93554269D01*
X116125500Y-93324500D01*
X116145185Y-93257461D01*
X116197989Y-93211706D01*
X116249500Y-93200500D01*
X116483070Y-93200500D01*
X116550109Y-93220185D01*
X116595864Y-93272989D01*
X116606428Y-93337103D01*
X116600000Y-93400013D01*
X116600000Y-93550000D01*
X119002264Y-93550000D01*
X119058593Y-93519241D01*
X119128285Y-93524225D01*
X119172634Y-93552726D01*
X119251263Y-93631355D01*
X119251267Y-93631358D01*
X119353707Y-93699807D01*
X119353713Y-93699810D01*
X119353714Y-93699811D01*
X119467548Y-93746963D01*
X119588389Y-93770999D01*
X119588393Y-93771000D01*
X119588394Y-93771000D01*
X119711607Y-93771000D01*
X119711608Y-93770999D01*
X119832452Y-93746963D01*
X119946286Y-93699811D01*
X119946291Y-93699807D01*
X119946294Y-93699806D01*
X120011698Y-93656104D01*
X120078375Y-93635225D01*
X120145756Y-93653709D01*
X120180909Y-93686320D01*
X120235967Y-93762102D01*
X120358397Y-93884532D01*
X120498475Y-93986304D01*
X120652744Y-94064908D01*
X120817415Y-94118414D01*
X120817414Y-94118414D01*
X120824999Y-94119615D01*
X120825000Y-94119614D01*
X120825000Y-93361186D01*
X120829394Y-93365580D01*
X120920606Y-93418241D01*
X121022339Y-93445500D01*
X121127661Y-93445500D01*
X121229394Y-93418241D01*
X121320606Y-93365580D01*
X121325000Y-93361186D01*
X121325000Y-94119615D01*
X121332584Y-94118414D01*
X121497255Y-94064908D01*
X121651524Y-93986304D01*
X121791602Y-93884532D01*
X121914032Y-93762102D01*
X122015804Y-93622024D01*
X122094408Y-93467757D01*
X122147914Y-93303084D01*
X122175000Y-93132071D01*
X122175000Y-92895500D01*
X121475000Y-92895500D01*
X121475000Y-92395500D01*
X122175000Y-92395500D01*
X122175000Y-92158928D01*
X122147914Y-91987915D01*
X122094408Y-91823242D01*
X122015804Y-91668975D01*
X121914032Y-91528897D01*
X121791602Y-91406467D01*
X121651521Y-91304694D01*
X121553409Y-91254702D01*
X121502614Y-91206728D01*
X121485819Y-91138906D01*
X121508357Y-91072772D01*
X121542664Y-91039904D01*
X121557673Y-91030259D01*
X121557680Y-91030252D01*
X121557684Y-91030250D01*
X121588798Y-91003289D01*
X121666334Y-90936105D01*
X121704639Y-90891899D01*
X121782371Y-90770945D01*
X121806669Y-90717740D01*
X121847176Y-90579785D01*
X121855500Y-90521889D01*
X121855500Y-89950000D01*
X121850348Y-89904272D01*
X121843239Y-89889511D01*
X121828856Y-89859644D01*
X121817504Y-89790703D01*
X121833086Y-89753677D01*
X121829087Y-89751752D01*
X121835148Y-89739164D01*
X121835147Y-89739164D01*
X121835149Y-89739163D01*
X121855500Y-89650000D01*
X121855500Y-89078111D01*
X121847176Y-89020215D01*
X121806669Y-88882260D01*
X121782371Y-88829055D01*
X121782368Y-88829051D01*
X121782368Y-88829049D01*
X121704639Y-88708101D01*
X121704638Y-88708100D01*
X121699015Y-88701611D01*
X121666334Y-88663895D01*
X121621063Y-88624668D01*
X121557684Y-88569749D01*
X121557675Y-88569743D01*
X121557673Y-88569741D01*
X121527181Y-88550145D01*
X121508472Y-88538121D01*
X121508456Y-88538112D01*
X121377689Y-88478393D01*
X121377684Y-88478391D01*
X121377683Y-88478391D01*
X121321561Y-88461912D01*
X121321556Y-88461910D01*
X121191682Y-88443238D01*
X121179246Y-88441450D01*
X121120755Y-88441450D01*
X121120753Y-88441450D01*
X121108319Y-88443238D01*
X121090673Y-88444500D01*
X120709327Y-88444500D01*
X120691681Y-88443238D01*
X120679246Y-88441450D01*
X120679245Y-88441450D01*
X120620754Y-88441450D01*
X120478443Y-88461910D01*
X120478438Y-88461912D01*
X120422313Y-88478392D01*
X120400633Y-88488294D01*
X120349121Y-88499500D01*
X120237965Y-88499500D01*
X120170926Y-88479815D01*
X120150284Y-88463181D01*
X119577987Y-87890884D01*
X119544502Y-87829561D01*
X119549486Y-87759869D01*
X119591358Y-87703936D01*
X119656822Y-87679519D01*
X119723294Y-87693407D01*
X119843800Y-87756654D01*
X119849775Y-87759790D01*
X120014944Y-87800500D01*
X120185056Y-87800500D01*
X120350225Y-87759790D01*
X120484421Y-87689358D01*
X120500849Y-87680736D01*
X120500850Y-87680734D01*
X120500852Y-87680734D01*
X120628183Y-87567929D01*
X120724818Y-87427930D01*
X120785140Y-87268872D01*
X120805645Y-87100000D01*
X120785140Y-86931128D01*
X120783802Y-86927601D01*
X120751512Y-86842457D01*
X120724818Y-86772070D01*
X120705536Y-86744136D01*
X120669057Y-86691287D01*
X120628183Y-86632071D01*
X120507889Y-86525500D01*
X120500849Y-86519263D01*
X120343584Y-86436724D01*
X120344305Y-86435348D01*
X120295525Y-86398413D01*
X120271467Y-86332816D01*
X120286693Y-86264625D01*
X120333198Y-86217261D01*
X120337242Y-86214926D01*
X120388270Y-86185465D01*
X120662360Y-85911374D01*
X120662362Y-85911373D01*
X120722965Y-85850770D01*
X120722970Y-85850759D01*
X120723874Y-85849584D01*
X120724900Y-85848834D01*
X120728712Y-85845023D01*
X120729306Y-85845617D01*
X120780301Y-85808380D01*
X120850047Y-85804223D01*
X120910968Y-85838434D01*
X120943723Y-85900151D01*
X120946252Y-85925068D01*
X120946252Y-86442896D01*
X120953074Y-86468354D01*
X120968384Y-86525493D01*
X120968384Y-86525496D01*
X120970137Y-86532038D01*
X120970137Y-86532039D01*
X121016279Y-86611960D01*
X121016283Y-86611965D01*
X121063495Y-86659177D01*
X121096980Y-86720500D01*
X121098552Y-86729210D01*
X121114834Y-86842456D01*
X121170067Y-86963397D01*
X121174623Y-86973373D01*
X121268872Y-87082143D01*
X121389947Y-87159953D01*
X121389950Y-87159954D01*
X121389949Y-87159954D01*
X121528036Y-87200499D01*
X121528038Y-87200500D01*
X121528039Y-87200500D01*
X121671962Y-87200500D01*
X121671962Y-87200499D01*
X121810053Y-87159953D01*
X121931128Y-87082143D01*
X122025377Y-86973373D01*
X122061641Y-86893967D01*
X122107396Y-86841163D01*
X122174435Y-86821479D01*
X122241475Y-86841164D01*
X122262116Y-86857798D01*
X122484787Y-87080469D01*
X122484788Y-87080470D01*
X122484790Y-87080471D01*
X122555135Y-87121085D01*
X122555137Y-87121086D01*
X122564712Y-87126614D01*
X122653856Y-87150500D01*
X123986105Y-87150500D01*
X124053144Y-87170185D01*
X124067312Y-87180790D01*
X124068866Y-87182137D01*
X124068872Y-87182143D01*
X124189947Y-87259953D01*
X124189950Y-87259954D01*
X124189949Y-87259954D01*
X124328036Y-87300499D01*
X124328038Y-87300500D01*
X124328039Y-87300500D01*
X124471962Y-87300500D01*
X124471962Y-87300499D01*
X124610053Y-87259953D01*
X124731128Y-87182143D01*
X124825377Y-87073373D01*
X124885165Y-86942457D01*
X124905647Y-86800000D01*
X124886021Y-86663497D01*
X124895965Y-86594339D01*
X124941720Y-86541536D01*
X124995505Y-86522561D01*
X125032379Y-86518596D01*
X125167086Y-86468354D01*
X125167093Y-86468350D01*
X125282187Y-86382190D01*
X125282190Y-86382187D01*
X125368350Y-86267093D01*
X125368354Y-86267086D01*
X125418596Y-86132379D01*
X125418598Y-86132372D01*
X125424999Y-86072844D01*
X125425000Y-86072827D01*
X125425000Y-86025000D01*
X123624000Y-86025000D01*
X123556961Y-86005315D01*
X123511206Y-85952511D01*
X123500000Y-85901000D01*
X123500000Y-85799000D01*
X123519685Y-85731961D01*
X123572489Y-85686206D01*
X123624000Y-85675000D01*
X125425000Y-85675000D01*
X125425000Y-85627172D01*
X125424999Y-85627155D01*
X125418598Y-85567627D01*
X125418597Y-85567623D01*
X125407613Y-85538173D01*
X125402629Y-85468481D01*
X125436113Y-85407158D01*
X125497436Y-85373673D01*
X125567128Y-85378657D01*
X125611476Y-85407158D01*
X125884788Y-85680470D01*
X125962157Y-85725139D01*
X125962159Y-85725140D01*
X125962158Y-85725140D01*
X125964712Y-85726614D01*
X126053856Y-85750500D01*
X126053858Y-85750500D01*
X127946142Y-85750500D01*
X127946144Y-85750500D01*
X128035288Y-85726614D01*
X128037843Y-85725139D01*
X128115212Y-85680470D01*
X129758863Y-84036819D01*
X129820186Y-84003334D01*
X129846544Y-84000500D01*
X129871962Y-84000500D01*
X129871962Y-84000499D01*
X130010053Y-83959953D01*
X130058463Y-83928841D01*
X130125499Y-83909158D01*
X130192538Y-83928842D01*
X130238294Y-83981645D01*
X130249500Y-84033158D01*
X130249500Y-85525571D01*
X130242576Y-85566428D01*
X130172697Y-85766664D01*
X130170669Y-85772068D01*
X129872890Y-86512626D01*
X129870613Y-86517929D01*
X129538706Y-87243817D01*
X129536185Y-87249006D01*
X129526581Y-87267663D01*
X129478396Y-87318259D01*
X129416331Y-87334910D01*
X129298857Y-87334910D01*
X129160770Y-87375455D01*
X129039694Y-87453266D01*
X128945444Y-87562036D01*
X128945443Y-87562038D01*
X128885655Y-87692953D01*
X128865174Y-87835410D01*
X128885655Y-87977866D01*
X128929596Y-88074081D01*
X128945444Y-88108783D01*
X129039693Y-88217553D01*
X129084847Y-88246571D01*
X129130602Y-88299375D01*
X129135898Y-88313062D01*
X129154344Y-88370652D01*
X129154347Y-88370658D01*
X129218536Y-88470409D01*
X129306355Y-88550147D01*
X129411819Y-88604439D01*
X129422992Y-88606862D01*
X129484333Y-88640308D01*
X129517856Y-88701611D01*
X129512915Y-88771305D01*
X129504301Y-88789682D01*
X129395038Y-88980412D01*
X129392168Y-88985171D01*
X128963744Y-89660903D01*
X128960664Y-89665529D01*
X128502375Y-90321411D01*
X128499091Y-90325894D01*
X128011897Y-90960551D01*
X128008414Y-90964883D01*
X127493260Y-91577087D01*
X127489588Y-91581258D01*
X126947506Y-92169777D01*
X126943650Y-92173779D01*
X126375769Y-92737391D01*
X126371738Y-92741217D01*
X125779146Y-93278843D01*
X125774947Y-93282484D01*
X125158870Y-93793008D01*
X125154512Y-93796457D01*
X124516193Y-94278851D01*
X124511685Y-94282102D01*
X123852371Y-94735426D01*
X123847722Y-94738471D01*
X123168771Y-95161788D01*
X123163990Y-95164622D01*
X122475489Y-95552172D01*
X122474886Y-95552510D01*
X122461516Y-95559938D01*
X122459686Y-95560935D01*
X122406194Y-95589487D01*
X122404521Y-95590685D01*
X122404085Y-95590960D01*
X122403540Y-95591365D01*
X122401893Y-95592565D01*
X122401388Y-95592926D01*
X122401009Y-95593242D01*
X122399337Y-95594481D01*
X122355755Y-95636648D01*
X122354246Y-95638084D01*
X122309959Y-95679514D01*
X122308656Y-95681100D01*
X122308304Y-95681481D01*
X122307869Y-95682030D01*
X122306613Y-95683585D01*
X122306199Y-95684088D01*
X122305911Y-95684497D01*
X122304628Y-95686112D01*
X122273428Y-95738150D01*
X122272342Y-95739926D01*
X122240300Y-95791386D01*
X122239444Y-95793273D01*
X122239209Y-95793722D01*
X122238954Y-95794310D01*
X122238138Y-95796149D01*
X122237857Y-95796767D01*
X122237676Y-95797261D01*
X122236859Y-95799144D01*
X122236859Y-95799145D01*
X122220191Y-95857478D01*
X122219623Y-95859404D01*
X122208497Y-95896004D01*
X122170166Y-95954420D01*
X122106337Y-95982839D01*
X122037276Y-95972238D01*
X121989540Y-95932824D01*
X121914038Y-95828904D01*
X121914034Y-95828899D01*
X121791602Y-95706467D01*
X121651524Y-95604695D01*
X121497257Y-95526091D01*
X121332589Y-95472587D01*
X121332581Y-95472585D01*
X121325000Y-95471384D01*
X121325000Y-96229814D01*
X121320606Y-96225420D01*
X121229394Y-96172759D01*
X121127661Y-96145500D01*
X121022339Y-96145500D01*
X120920606Y-96172759D01*
X120829394Y-96225420D01*
X120825000Y-96229814D01*
X120825000Y-95471384D01*
X120824999Y-95471384D01*
X120817418Y-95472585D01*
X120817410Y-95472587D01*
X120652742Y-95526091D01*
X120498475Y-95604695D01*
X120358397Y-95706467D01*
X120235967Y-95828897D01*
X120134195Y-95968975D01*
X120055591Y-96123242D01*
X120002085Y-96287915D01*
X119975000Y-96458928D01*
X119975000Y-96595500D01*
X120675000Y-96595500D01*
X120675000Y-97095500D01*
X119975000Y-97095500D01*
X119975000Y-97232071D01*
X120002085Y-97403084D01*
X120055591Y-97567757D01*
X120134195Y-97722024D01*
X120235967Y-97862102D01*
X120358397Y-97984532D01*
X120498475Y-98086304D01*
X120652744Y-98164908D01*
X120817415Y-98218414D01*
X120817414Y-98218414D01*
X120824999Y-98219615D01*
X120825000Y-98219614D01*
X120825000Y-97461186D01*
X120829394Y-97465580D01*
X120920606Y-97518241D01*
X121022339Y-97545500D01*
X121127661Y-97545500D01*
X121229394Y-97518241D01*
X121320606Y-97465580D01*
X121325000Y-97461186D01*
X121325000Y-98219615D01*
X121332584Y-98218414D01*
X121497255Y-98164908D01*
X121651524Y-98086304D01*
X121791602Y-97984532D01*
X121914032Y-97862102D01*
X122015804Y-97722024D01*
X122094408Y-97567757D01*
X122147914Y-97403084D01*
X122175000Y-97232071D01*
X122175000Y-97095500D01*
X121475000Y-97095500D01*
X121475000Y-96595500D01*
X122175000Y-96595500D01*
X122175000Y-96564124D01*
X122194685Y-96497085D01*
X122247489Y-96451330D01*
X122316647Y-96441386D01*
X122380203Y-96470411D01*
X122407391Y-96503898D01*
X123260028Y-98038645D01*
X123260952Y-98040341D01*
X123289629Y-98094004D01*
X123290638Y-98095412D01*
X123290920Y-98095857D01*
X123291389Y-98096490D01*
X123292603Y-98098155D01*
X123293120Y-98098877D01*
X123293463Y-98099288D01*
X123294482Y-98100663D01*
X123336772Y-98144372D01*
X123338115Y-98145782D01*
X123356025Y-98164908D01*
X123379708Y-98190199D01*
X123381030Y-98191284D01*
X123381426Y-98191649D01*
X123382105Y-98192188D01*
X123383704Y-98193479D01*
X123384353Y-98194012D01*
X123384782Y-98194314D01*
X123386119Y-98195375D01*
X123426547Y-98219614D01*
X123438273Y-98226644D01*
X123439968Y-98227679D01*
X123491612Y-98259801D01*
X123491618Y-98259803D01*
X123493162Y-98260503D01*
X123493631Y-98260748D01*
X123494404Y-98261084D01*
X123496274Y-98261913D01*
X123497099Y-98262287D01*
X123497598Y-98262470D01*
X123499141Y-98263138D01*
X123499145Y-98263141D01*
X123557599Y-98279842D01*
X123559493Y-98280399D01*
X123617718Y-98298068D01*
X123617723Y-98298068D01*
X123619402Y-98298346D01*
X123619927Y-98298463D01*
X123620783Y-98298591D01*
X123622774Y-98298903D01*
X123623638Y-98299045D01*
X123624179Y-98299094D01*
X123625848Y-98299341D01*
X123625859Y-98299345D01*
X123686679Y-98300347D01*
X123688638Y-98300396D01*
X123749431Y-98302393D01*
X123749444Y-98302389D01*
X123751105Y-98302227D01*
X123751643Y-98302205D01*
X123752500Y-98302107D01*
X123754568Y-98301886D01*
X123755426Y-98301801D01*
X123755953Y-98301710D01*
X123757615Y-98301518D01*
X123757625Y-98301519D01*
X123816606Y-98286753D01*
X123818536Y-98286287D01*
X123877775Y-98272481D01*
X123877782Y-98272477D01*
X123879351Y-98271887D01*
X123879870Y-98271725D01*
X123880679Y-98271406D01*
X123882602Y-98270664D01*
X123883399Y-98270364D01*
X123883885Y-98270139D01*
X123885451Y-98269519D01*
X123885464Y-98269516D01*
X123938666Y-98239958D01*
X123940258Y-98239090D01*
X124323364Y-98034393D01*
X125080318Y-97588284D01*
X125817980Y-97110949D01*
X126353887Y-96731502D01*
X126419972Y-96708830D01*
X126487828Y-96725485D01*
X126535907Y-96776182D01*
X126548945Y-96844824D01*
X126522803Y-96909619D01*
X126513220Y-96920386D01*
X123321020Y-100112587D01*
X123259697Y-100146072D01*
X123233339Y-100148906D01*
X110585477Y-100148906D01*
X110518438Y-100129221D01*
X110472683Y-100076417D01*
X110462739Y-100007259D01*
X110474332Y-99969926D01*
X110476087Y-99966375D01*
X110477827Y-99962860D01*
X110480988Y-99947065D01*
X110486379Y-99928118D01*
X110492003Y-99913028D01*
X110495206Y-99879370D01*
X110497059Y-99866791D01*
X110503697Y-99833640D01*
X110502663Y-99817566D01*
X110502964Y-99797875D01*
X110677360Y-97965965D01*
X110679448Y-97952239D01*
X110685792Y-97922027D01*
X110684748Y-97903018D01*
X110685118Y-97884476D01*
X110686924Y-97865515D01*
X110681791Y-97835048D01*
X110680259Y-97821287D01*
X110678566Y-97790441D01*
X110672637Y-97772349D01*
X110668194Y-97754330D01*
X110665033Y-97735563D01*
X110665032Y-97735560D01*
X110652197Y-97707475D01*
X110647142Y-97694546D01*
X110637529Y-97665209D01*
X110627122Y-97649271D01*
X110618167Y-97633018D01*
X110610254Y-97615703D01*
X110590588Y-97591899D01*
X110582357Y-97580716D01*
X110573895Y-97567757D01*
X110565478Y-97554866D01*
X110551296Y-97542160D01*
X110538448Y-97528788D01*
X110526318Y-97514105D01*
X110526314Y-97514102D01*
X110526312Y-97514100D01*
X110501162Y-97496201D01*
X110490324Y-97487534D01*
X110467325Y-97466930D01*
X110457351Y-97461879D01*
X110450329Y-97458323D01*
X110434461Y-97448733D01*
X110418949Y-97437694D01*
X110418944Y-97437692D01*
X110418942Y-97437691D01*
X110390012Y-97426909D01*
X110377301Y-97421343D01*
X110349760Y-97407397D01*
X110349747Y-97407393D01*
X110331112Y-97403480D01*
X110313301Y-97398323D01*
X110295460Y-97391675D01*
X110295458Y-97391674D01*
X110295454Y-97391674D01*
X110270904Y-97389336D01*
X110254406Y-97386633D01*
X109593941Y-97232071D01*
X111325000Y-97232071D01*
X111352085Y-97403084D01*
X111405591Y-97567757D01*
X111484195Y-97722024D01*
X111585967Y-97862102D01*
X111708397Y-97984532D01*
X111848475Y-98086304D01*
X112002744Y-98164908D01*
X112167415Y-98218414D01*
X112167414Y-98218414D01*
X112174999Y-98219615D01*
X112175000Y-98219614D01*
X112175000Y-97461186D01*
X112179394Y-97465580D01*
X112270606Y-97518241D01*
X112372339Y-97545500D01*
X112477661Y-97545500D01*
X112579394Y-97518241D01*
X112670606Y-97465580D01*
X112675000Y-97461186D01*
X112675000Y-98219615D01*
X112682584Y-98218414D01*
X112847255Y-98164908D01*
X113001524Y-98086304D01*
X113141602Y-97984532D01*
X113264032Y-97862102D01*
X113365804Y-97722024D01*
X113444408Y-97567757D01*
X113497914Y-97403084D01*
X113525000Y-97232071D01*
X113525000Y-97095500D01*
X112825000Y-97095500D01*
X112825000Y-96595500D01*
X113525000Y-96595500D01*
X113525000Y-96458928D01*
X113497914Y-96287915D01*
X113444408Y-96123242D01*
X113365804Y-95968975D01*
X113264032Y-95828897D01*
X113141602Y-95706467D01*
X113001524Y-95604695D01*
X112847257Y-95526091D01*
X112728486Y-95487500D01*
X113975001Y-95487500D01*
X113975001Y-95624986D01*
X113985494Y-95727697D01*
X114040641Y-95894119D01*
X114040643Y-95894124D01*
X114132684Y-96043345D01*
X114256654Y-96167315D01*
X114405875Y-96259356D01*
X114405880Y-96259358D01*
X114572302Y-96314505D01*
X114572309Y-96314506D01*
X114675019Y-96324999D01*
X114949999Y-96324999D01*
X114950000Y-96324998D01*
X114950000Y-95487500D01*
X115450000Y-95487500D01*
X115450000Y-96324999D01*
X115724972Y-96324999D01*
X115724986Y-96324998D01*
X115827697Y-96314505D01*
X115994119Y-96259358D01*
X115994124Y-96259356D01*
X116143345Y-96167315D01*
X116267315Y-96043345D01*
X116359356Y-95894124D01*
X116359358Y-95894119D01*
X116414505Y-95727697D01*
X116414506Y-95727690D01*
X116424999Y-95624986D01*
X116425000Y-95624973D01*
X116425000Y-95487500D01*
X115450000Y-95487500D01*
X114950000Y-95487500D01*
X113975001Y-95487500D01*
X112728486Y-95487500D01*
X112682589Y-95472587D01*
X112682581Y-95472585D01*
X112675000Y-95471384D01*
X112675000Y-96229814D01*
X112670606Y-96225420D01*
X112579394Y-96172759D01*
X112477661Y-96145500D01*
X112372339Y-96145500D01*
X112270606Y-96172759D01*
X112179394Y-96225420D01*
X112175000Y-96229814D01*
X112175000Y-95471384D01*
X112174999Y-95471384D01*
X112167418Y-95472585D01*
X112167410Y-95472587D01*
X112002742Y-95526091D01*
X111848475Y-95604695D01*
X111708397Y-95706467D01*
X111585967Y-95828897D01*
X111484195Y-95968975D01*
X111405591Y-96123242D01*
X111352085Y-96287915D01*
X111325000Y-96458928D01*
X111325000Y-96595500D01*
X112025000Y-96595500D01*
X112025000Y-97095500D01*
X111325000Y-97095500D01*
X111325000Y-97232071D01*
X109593941Y-97232071D01*
X109480310Y-97205479D01*
X109474801Y-97204056D01*
X108682042Y-96979721D01*
X108676605Y-96978046D01*
X107895010Y-96717594D01*
X107889655Y-96715672D01*
X107120831Y-96419642D01*
X107115569Y-96417477D01*
X106361090Y-96086473D01*
X106355934Y-96084068D01*
X105897662Y-95857405D01*
X105617457Y-95718814D01*
X105612434Y-95716185D01*
X104891483Y-95317438D01*
X104886569Y-95314571D01*
X104781510Y-95250000D01*
X107550000Y-95250000D01*
X107550000Y-95797844D01*
X107556401Y-95857372D01*
X107556403Y-95857379D01*
X107606645Y-95992086D01*
X107606649Y-95992093D01*
X107692809Y-96107187D01*
X107692812Y-96107190D01*
X107807906Y-96193350D01*
X107807913Y-96193354D01*
X107942620Y-96243596D01*
X107942627Y-96243598D01*
X108002155Y-96249999D01*
X108002172Y-96250000D01*
X108550000Y-96250000D01*
X108550000Y-95250000D01*
X109050000Y-95250000D01*
X109050000Y-96250000D01*
X109597828Y-96250000D01*
X109597844Y-96249999D01*
X109657372Y-96243598D01*
X109657379Y-96243596D01*
X109792086Y-96193354D01*
X109792093Y-96193350D01*
X109907187Y-96107190D01*
X109907190Y-96107187D01*
X109993350Y-95992093D01*
X109993354Y-95992086D01*
X110043596Y-95857379D01*
X110043598Y-95857372D01*
X110049999Y-95797844D01*
X110050000Y-95797827D01*
X110050000Y-95250000D01*
X109050000Y-95250000D01*
X108550000Y-95250000D01*
X107550000Y-95250000D01*
X104781510Y-95250000D01*
X104184673Y-94883175D01*
X104179895Y-94880085D01*
X103988515Y-94750000D01*
X107550000Y-94750000D01*
X108550000Y-94750000D01*
X108550000Y-93750000D01*
X109050000Y-93750000D01*
X109050000Y-94750000D01*
X110050000Y-94750000D01*
X110050000Y-94202172D01*
X110049999Y-94202155D01*
X110043598Y-94142627D01*
X110043596Y-94142620D01*
X109993354Y-94007913D01*
X109993350Y-94007906D01*
X109907190Y-93892812D01*
X109907187Y-93892809D01*
X109792093Y-93806649D01*
X109792086Y-93806645D01*
X109657379Y-93756403D01*
X109657372Y-93756401D01*
X109597844Y-93750000D01*
X109050000Y-93750000D01*
X108550000Y-93750000D01*
X108002155Y-93750000D01*
X107942627Y-93756401D01*
X107942620Y-93756403D01*
X107807913Y-93806645D01*
X107807906Y-93806649D01*
X107692812Y-93892809D01*
X107692809Y-93892812D01*
X107606649Y-94007906D01*
X107606645Y-94007913D01*
X107556403Y-94142620D01*
X107556401Y-94142627D01*
X107550000Y-94202155D01*
X107550000Y-94750000D01*
X103988515Y-94750000D01*
X103498530Y-94416948D01*
X103493920Y-94413658D01*
X102834489Y-93919733D01*
X102830022Y-93916224D01*
X102347809Y-93519241D01*
X102211054Y-93406657D01*
X103940468Y-93406657D01*
X103960750Y-93612589D01*
X103969518Y-93641493D01*
X104020819Y-93810611D01*
X104118366Y-93993107D01*
X104125260Y-94001507D01*
X104249640Y-94153067D01*
X104332838Y-94221345D01*
X104409601Y-94284342D01*
X104592097Y-94381889D01*
X104790117Y-94441957D01*
X104790116Y-94441957D01*
X104808580Y-94443775D01*
X104996051Y-94462240D01*
X105201985Y-94441957D01*
X105400005Y-94381889D01*
X105582501Y-94284342D01*
X105742461Y-94153067D01*
X105873736Y-93993107D01*
X105971283Y-93810611D01*
X106031351Y-93612591D01*
X106051634Y-93406657D01*
X106031351Y-93200723D01*
X105971283Y-93002703D01*
X105873736Y-92820207D01*
X105801331Y-92731981D01*
X105742461Y-92660246D01*
X105600855Y-92544035D01*
X105582501Y-92528972D01*
X105412605Y-92438159D01*
X105400007Y-92431426D01*
X105400006Y-92431425D01*
X105400005Y-92431425D01*
X105201985Y-92371357D01*
X105201983Y-92371356D01*
X105201985Y-92371356D01*
X104996051Y-92351074D01*
X104790118Y-92371356D01*
X104592094Y-92431426D01*
X104503308Y-92478884D01*
X104409601Y-92528972D01*
X104409599Y-92528973D01*
X104409598Y-92528974D01*
X104249640Y-92660246D01*
X104118368Y-92820204D01*
X104118366Y-92820207D01*
X104091359Y-92870734D01*
X104020820Y-93002700D01*
X103960750Y-93200724D01*
X103940468Y-93406657D01*
X102211054Y-93406657D01*
X102193957Y-93392582D01*
X102189656Y-93388872D01*
X102163871Y-93365580D01*
X101892540Y-93120480D01*
X101578312Y-92836631D01*
X101574178Y-92832722D01*
X100988760Y-92252970D01*
X100984811Y-92248875D01*
X100978800Y-92242349D01*
X100426618Y-91642896D01*
X100422907Y-91638677D01*
X100399336Y-91610606D01*
X102144417Y-91610606D01*
X102164699Y-91816538D01*
X102183823Y-91879582D01*
X102224768Y-92014560D01*
X102322315Y-92197056D01*
X102353208Y-92234699D01*
X102453589Y-92357016D01*
X102531917Y-92421297D01*
X102613550Y-92488291D01*
X102796046Y-92585838D01*
X102994066Y-92645906D01*
X102994065Y-92645906D01*
X103012529Y-92647724D01*
X103200000Y-92666189D01*
X103405934Y-92645906D01*
X103603954Y-92585838D01*
X103786450Y-92488291D01*
X103946410Y-92357016D01*
X104077685Y-92197056D01*
X104175232Y-92014560D01*
X104235300Y-91816540D01*
X104255583Y-91610606D01*
X104235300Y-91404672D01*
X104175232Y-91206652D01*
X104077685Y-91024156D01*
X104005831Y-90936601D01*
X103946410Y-90864195D01*
X103828045Y-90767057D01*
X103786450Y-90732921D01*
X103603954Y-90635374D01*
X103405934Y-90575306D01*
X103405932Y-90575305D01*
X103405934Y-90575305D01*
X103200000Y-90555023D01*
X102994067Y-90575305D01*
X102796043Y-90635375D01*
X102685898Y-90694249D01*
X102613550Y-90732921D01*
X102613548Y-90732922D01*
X102613547Y-90732923D01*
X102453589Y-90864195D01*
X102322317Y-91024153D01*
X102322316Y-91024154D01*
X102322315Y-91024156D01*
X102302147Y-91061887D01*
X102224769Y-91206649D01*
X102164699Y-91404673D01*
X102144417Y-91610606D01*
X100399336Y-91610606D01*
X99893088Y-91007718D01*
X99889539Y-91003289D01*
X99888824Y-91002354D01*
X99565844Y-90579777D01*
X99389242Y-90348717D01*
X99385892Y-90344119D01*
X99018357Y-89814557D01*
X99997440Y-89814557D01*
X100013000Y-89892785D01*
X100013000Y-89892786D01*
X100046129Y-89942366D01*
X100046133Y-89942371D01*
X101276132Y-91172370D01*
X101276136Y-91172373D01*
X101276138Y-91172375D01*
X101325718Y-91205503D01*
X101403947Y-91221064D01*
X101403949Y-91221064D01*
X101403951Y-91221064D01*
X101476021Y-91206728D01*
X101482180Y-91205503D01*
X101531760Y-91172375D01*
X102761769Y-89942366D01*
X102794897Y-89892786D01*
X102799987Y-89867195D01*
X102832370Y-89805286D01*
X102893085Y-89770711D01*
X102962855Y-89774450D01*
X102986701Y-89785849D01*
X103105869Y-89859353D01*
X103105880Y-89859358D01*
X103272302Y-89914505D01*
X103272309Y-89914506D01*
X103375019Y-89924999D01*
X103512499Y-89924999D01*
X103512500Y-89924998D01*
X103512500Y-88950000D01*
X102675001Y-88950000D01*
X102675001Y-89224989D01*
X102682245Y-89295898D01*
X102669475Y-89364591D01*
X102621594Y-89415475D01*
X102553804Y-89432395D01*
X102487628Y-89409979D01*
X102471206Y-89396180D01*
X101531765Y-88456739D01*
X101531761Y-88456736D01*
X101482179Y-88423606D01*
X101403951Y-88408046D01*
X101403947Y-88408046D01*
X101325718Y-88423606D01*
X101325717Y-88423606D01*
X101276136Y-88456736D01*
X101276132Y-88456739D01*
X100046133Y-89686738D01*
X100046130Y-89686742D01*
X100013000Y-89736323D01*
X100013000Y-89736324D01*
X99997440Y-89814552D01*
X99997440Y-89814557D01*
X99018357Y-89814557D01*
X98916152Y-89667295D01*
X98913016Y-89662548D01*
X98474809Y-88964874D01*
X98471894Y-88959987D01*
X98066168Y-88242975D01*
X98063480Y-88237961D01*
X97852833Y-87822294D01*
X97691052Y-87503056D01*
X97688601Y-87497930D01*
X97686178Y-87492551D01*
X97413493Y-86887079D01*
X97350278Y-86746716D01*
X97348062Y-86741476D01*
X97205692Y-86382187D01*
X97044564Y-85975561D01*
X97042592Y-85970229D01*
X97011531Y-85879956D01*
X96774549Y-85191200D01*
X96772822Y-85185782D01*
X96761199Y-85146182D01*
X96540779Y-84395219D01*
X96539307Y-84389737D01*
X96535462Y-84374000D01*
X96416608Y-83887500D01*
X97775001Y-83887500D01*
X97775001Y-84024986D01*
X97785494Y-84127697D01*
X97840641Y-84294119D01*
X97840643Y-84294124D01*
X97932684Y-84443345D01*
X98056654Y-84567315D01*
X98205875Y-84659356D01*
X98205880Y-84659358D01*
X98372302Y-84714505D01*
X98372309Y-84714506D01*
X98475019Y-84724999D01*
X98749999Y-84724999D01*
X98750000Y-84724998D01*
X98750000Y-83887500D01*
X97775001Y-83887500D01*
X96416608Y-83887500D01*
X96343791Y-83589440D01*
X96342569Y-83583890D01*
X96183951Y-82775367D01*
X96182994Y-82769814D01*
X96061636Y-81954903D01*
X96060934Y-81949315D01*
X95977083Y-81129668D01*
X95976639Y-81124051D01*
X95930476Y-80301456D01*
X95930288Y-80295777D01*
X95930029Y-80270296D01*
X95921907Y-79471895D01*
X95921979Y-79466283D01*
X95951399Y-78642869D01*
X95951730Y-78637255D01*
X96018890Y-77816081D01*
X96019474Y-77810503D01*
X96124235Y-76993248D01*
X96125087Y-76987636D01*
X96127862Y-76971795D01*
X96267214Y-76176117D01*
X96268322Y-76170548D01*
X96276311Y-76134699D01*
X96447528Y-75366383D01*
X96448890Y-75360876D01*
X96465200Y-75300816D01*
X96664789Y-74565809D01*
X96666401Y-74560368D01*
X96682903Y-74509036D01*
X96918564Y-73775980D01*
X96920398Y-73770693D01*
X97208290Y-72998659D01*
X97210367Y-72993459D01*
X97533353Y-72235484D01*
X97535696Y-72230318D01*
X97538016Y-72225500D01*
X97893106Y-71487969D01*
X97895656Y-71482971D01*
X98286756Y-70757772D01*
X98289534Y-70752892D01*
X98713475Y-70046420D01*
X98716505Y-70041623D01*
X99172405Y-69355343D01*
X99175639Y-69350710D01*
X99662524Y-68686089D01*
X99665983Y-68681588D01*
X99672590Y-68673387D01*
X100005177Y-68260539D01*
X100062562Y-68220683D01*
X100132387Y-68218178D01*
X100192482Y-68253821D01*
G37*
%TD.AperFunction*%
%TA.AperFunction,Conductor*%
G36*
X126746822Y-66992617D02*
G01*
X126761529Y-67005113D01*
X126978587Y-67220799D01*
X126982529Y-67224901D01*
X127295911Y-67566266D01*
X127534352Y-67826000D01*
X127537337Y-67829251D01*
X127541082Y-67833522D01*
X127676708Y-67995593D01*
X128067620Y-68462729D01*
X128071170Y-68467175D01*
X128568265Y-69119838D01*
X128571608Y-69124442D01*
X129038267Y-69799257D01*
X129041394Y-69804010D01*
X129307668Y-70229539D01*
X129473604Y-70494720D01*
X129476577Y-70499470D01*
X129479478Y-70504352D01*
X129589471Y-70699500D01*
X129882326Y-71219086D01*
X129885005Y-71224105D01*
X130255102Y-71957476D01*
X130256567Y-71960481D01*
X130260271Y-71968344D01*
X130283090Y-72016795D01*
X130283488Y-72017408D01*
X130283768Y-72017842D01*
X130284224Y-72018552D01*
X130284244Y-72018576D01*
X130284245Y-72018577D01*
X130297050Y-72033589D01*
X130326170Y-72067728D01*
X130326429Y-72068032D01*
X130368174Y-72117398D01*
X130368177Y-72117400D01*
X130368199Y-72117426D01*
X130368760Y-72117932D01*
X130369176Y-72118308D01*
X130369744Y-72118824D01*
X130369767Y-72118839D01*
X130369768Y-72118841D01*
X130407026Y-72144482D01*
X130422856Y-72155377D01*
X130423292Y-72155678D01*
X130464586Y-72184358D01*
X130476435Y-72192587D01*
X130477212Y-72192984D01*
X130477617Y-72193192D01*
X130478302Y-72193545D01*
X130478326Y-72193553D01*
X130478327Y-72193554D01*
X130539393Y-72215222D01*
X130539569Y-72215285D01*
X130600422Y-72237171D01*
X130600423Y-72237171D01*
X130600454Y-72237182D01*
X130601277Y-72237358D01*
X130601785Y-72237467D01*
X130602494Y-72237621D01*
X130602521Y-72237623D01*
X130602524Y-72237624D01*
X130667107Y-72242748D01*
X130731748Y-72248155D01*
X130731748Y-72248154D01*
X130731773Y-72248157D01*
X130732533Y-72248118D01*
X130733044Y-72248092D01*
X130733867Y-72248052D01*
X130733890Y-72248047D01*
X130733896Y-72248048D01*
X130797482Y-72236303D01*
X130797801Y-72236246D01*
X130861441Y-72224774D01*
X130861444Y-72224772D01*
X130861469Y-72224768D01*
X130862265Y-72224511D01*
X130862736Y-72224360D01*
X130863463Y-72224127D01*
X130863487Y-72224115D01*
X130863489Y-72224115D01*
X130922081Y-72196214D01*
X132681467Y-71367586D01*
X132685736Y-71365899D01*
X132690614Y-71363576D01*
X132690616Y-71363576D01*
X132721782Y-71348738D01*
X132790772Y-71337694D01*
X132854782Y-71365703D01*
X132888859Y-71416914D01*
X132890452Y-71416255D01*
X132893559Y-71423758D01*
X132908054Y-71448863D01*
X132936413Y-71497982D01*
X133194274Y-71755843D01*
X133382428Y-71943996D01*
X133415913Y-72005319D01*
X133410929Y-72075010D01*
X133390601Y-72110341D01*
X133322317Y-72193546D01*
X133224769Y-72376043D01*
X133164699Y-72574067D01*
X133144417Y-72780000D01*
X133164699Y-72985932D01*
X133172755Y-73012489D01*
X133224768Y-73183954D01*
X133322315Y-73366450D01*
X133335929Y-73383039D01*
X133453589Y-73526410D01*
X133530479Y-73589511D01*
X133613550Y-73657685D01*
X133796046Y-73755232D01*
X133994066Y-73815300D01*
X133994065Y-73815300D01*
X134012529Y-73817118D01*
X134200000Y-73835583D01*
X134405934Y-73815300D01*
X134603954Y-73755232D01*
X134786450Y-73657685D01*
X134946410Y-73526410D01*
X135077685Y-73366450D01*
X135175232Y-73183954D01*
X135235300Y-72985934D01*
X135252097Y-72815392D01*
X135265709Y-72781681D01*
X135256523Y-72767387D01*
X135252097Y-72744606D01*
X135243055Y-72652799D01*
X135235300Y-72574066D01*
X135175232Y-72376046D01*
X135077685Y-72193550D01*
X134994604Y-72092315D01*
X134946410Y-72033589D01*
X134812912Y-71924032D01*
X134786450Y-71902315D01*
X134608513Y-71807205D01*
X134603956Y-71804769D01*
X134603955Y-71804768D01*
X134603954Y-71804768D01*
X134405934Y-71744700D01*
X134405932Y-71744699D01*
X134405934Y-71744699D01*
X134218463Y-71726235D01*
X134200000Y-71724417D01*
X134199999Y-71724417D01*
X134199997Y-71724417D01*
X134152307Y-71729113D01*
X134083662Y-71716093D01*
X134052475Y-71693391D01*
X133827809Y-71468725D01*
X133794324Y-71407402D01*
X133799308Y-71337710D01*
X133841180Y-71281777D01*
X133906644Y-71257360D01*
X133951483Y-71262382D01*
X133994066Y-71275300D01*
X133994065Y-71275300D01*
X134012529Y-71277118D01*
X134200000Y-71295583D01*
X134405934Y-71275300D01*
X134603954Y-71215232D01*
X134786450Y-71117685D01*
X134918613Y-71009221D01*
X134965181Y-70985301D01*
X134985989Y-70979726D01*
X134985993Y-70979723D01*
X134985995Y-70979723D01*
X135054504Y-70940169D01*
X135054503Y-70940169D01*
X135054511Y-70940165D01*
X135110460Y-70884216D01*
X135150021Y-70815694D01*
X135170500Y-70739267D01*
X135170500Y-70677947D01*
X135175839Y-70641952D01*
X135195997Y-70575500D01*
X135235300Y-70445934D01*
X135252097Y-70275392D01*
X135265709Y-70241681D01*
X135256523Y-70227387D01*
X135252097Y-70204606D01*
X135239084Y-70072489D01*
X135235300Y-70034066D01*
X135175232Y-69836046D01*
X135167620Y-69821805D01*
X135153378Y-69753402D01*
X135178378Y-69688158D01*
X135189281Y-69675686D01*
X135287822Y-69577146D01*
X135349143Y-69543664D01*
X135418834Y-69548648D01*
X135474767Y-69590520D01*
X135499184Y-69655985D01*
X135499500Y-69664830D01*
X135499500Y-70192452D01*
X135485276Y-70240892D01*
X135497328Y-70264442D01*
X135499500Y-70287547D01*
X135499500Y-72732452D01*
X135485276Y-72780892D01*
X135497328Y-72804442D01*
X135499500Y-72827547D01*
X135499500Y-92478884D01*
X135479815Y-92545923D01*
X135427011Y-92591678D01*
X135357853Y-92601622D01*
X135301867Y-92578655D01*
X135257516Y-92545923D01*
X135225382Y-92522207D01*
X135188689Y-92509367D01*
X135131915Y-92468645D01*
X135108116Y-92408605D01*
X135106909Y-92408779D01*
X135106182Y-92403726D01*
X135106169Y-92403692D01*
X135106164Y-92403603D01*
X135105646Y-92400003D01*
X135105647Y-92400000D01*
X135085165Y-92257543D01*
X135025377Y-92126627D01*
X134931128Y-92017857D01*
X134810053Y-91940047D01*
X134810051Y-91940046D01*
X134810049Y-91940045D01*
X134810050Y-91940045D01*
X134671963Y-91899500D01*
X134671961Y-91899500D01*
X134528039Y-91899500D01*
X134528036Y-91899500D01*
X134389949Y-91940045D01*
X134268873Y-92017856D01*
X134174623Y-92126626D01*
X134174622Y-92126628D01*
X134114834Y-92257543D01*
X134094353Y-92400000D01*
X134094353Y-92400001D01*
X134102589Y-92457289D01*
X134092645Y-92526447D01*
X134053487Y-92574703D01*
X134015349Y-92602850D01*
X133934707Y-92712117D01*
X133912342Y-92776033D01*
X133871620Y-92832808D01*
X133806667Y-92858555D01*
X133738105Y-92845098D01*
X133687703Y-92796711D01*
X133677595Y-92774081D01*
X133621858Y-92605880D01*
X133621856Y-92605875D01*
X133529815Y-92456654D01*
X133405845Y-92332684D01*
X133256624Y-92240643D01*
X133256619Y-92240641D01*
X133090197Y-92185494D01*
X133090190Y-92185493D01*
X132987486Y-92175000D01*
X132850000Y-92175000D01*
X132850000Y-94624999D01*
X132987472Y-94624999D01*
X132987486Y-94624998D01*
X133090197Y-94614505D01*
X133256619Y-94559358D01*
X133256624Y-94559356D01*
X133405845Y-94467315D01*
X133529815Y-94343345D01*
X133621856Y-94194124D01*
X133621859Y-94194117D01*
X133677594Y-94025919D01*
X133717366Y-93968474D01*
X133781882Y-93941650D01*
X133850658Y-93953965D01*
X133901858Y-94001507D01*
X133912341Y-94023966D01*
X133934706Y-94087881D01*
X133934707Y-94087882D01*
X133958509Y-94120133D01*
X133975270Y-94142842D01*
X133999241Y-94208471D01*
X133999500Y-94216476D01*
X133999500Y-95575500D01*
X133979815Y-95642539D01*
X133927011Y-95688294D01*
X133875500Y-95699500D01*
X133680247Y-95699500D01*
X133621770Y-95711131D01*
X133621769Y-95711132D01*
X133555447Y-95755447D01*
X133511131Y-95821771D01*
X133510640Y-95822957D01*
X133508878Y-95825142D01*
X133504348Y-95831923D01*
X133503741Y-95831517D01*
X133466797Y-95877359D01*
X133400502Y-95899421D01*
X133396081Y-95899500D01*
X132987965Y-95899500D01*
X132920926Y-95879815D01*
X132900284Y-95863181D01*
X132176616Y-95139513D01*
X132176614Y-95139511D01*
X132107314Y-95099500D01*
X132073885Y-95080199D01*
X131959310Y-95049501D01*
X131959309Y-95049501D01*
X131840691Y-95049501D01*
X131840689Y-95049501D01*
X131726114Y-95080199D01*
X131726112Y-95080200D01*
X131721462Y-95082886D01*
X131659461Y-95099500D01*
X128657268Y-95099500D01*
X128590229Y-95079815D01*
X128544474Y-95027011D01*
X128534530Y-94957853D01*
X128563555Y-94894297D01*
X128569779Y-94887627D01*
X129173155Y-94286883D01*
X129761504Y-93650000D01*
X131512501Y-93650000D01*
X131512501Y-93924986D01*
X131522994Y-94027697D01*
X131578141Y-94194119D01*
X131578143Y-94194124D01*
X131670184Y-94343345D01*
X131794154Y-94467315D01*
X131943375Y-94559356D01*
X131943380Y-94559358D01*
X132109802Y-94614505D01*
X132109809Y-94614506D01*
X132212519Y-94624999D01*
X132349999Y-94624999D01*
X132350000Y-94624998D01*
X132350000Y-93650000D01*
X131512501Y-93650000D01*
X129761504Y-93650000D01*
X129769363Y-93641493D01*
X130186740Y-93150000D01*
X131512500Y-93150000D01*
X132350000Y-93150000D01*
X132350000Y-92175000D01*
X132212527Y-92175000D01*
X132212512Y-92175001D01*
X132109802Y-92185494D01*
X131943380Y-92240641D01*
X131943375Y-92240643D01*
X131794154Y-92332684D01*
X131670184Y-92456654D01*
X131578143Y-92605875D01*
X131578141Y-92605880D01*
X131522994Y-92772302D01*
X131522993Y-92772309D01*
X131512500Y-92875013D01*
X131512500Y-93150000D01*
X130186740Y-93150000D01*
X130338097Y-92971766D01*
X130878364Y-92278870D01*
X131389221Y-91564014D01*
X131869776Y-90828447D01*
X132237086Y-90211384D01*
X132319178Y-90073473D01*
X132319178Y-90073471D01*
X132319191Y-90073451D01*
X132736682Y-89300344D01*
X133121520Y-88510475D01*
X133473033Y-87705223D01*
X133790609Y-86885992D01*
X134073692Y-86054213D01*
X134321790Y-85211336D01*
X134498528Y-84502899D01*
X134534467Y-84358843D01*
X134538305Y-84340172D01*
X134607535Y-84003334D01*
X134711356Y-83498198D01*
X134715904Y-83470183D01*
X134852147Y-82630914D01*
X134956593Y-81758513D01*
X135024511Y-80882511D01*
X135039561Y-80459950D01*
X135055785Y-80004454D01*
X135055629Y-79979251D01*
X135050358Y-79125822D01*
X135008242Y-78248200D01*
X134929508Y-77373104D01*
X134881527Y-77010517D01*
X134880475Y-76996409D01*
X134880440Y-76994402D01*
X134880440Y-76994399D01*
X134871462Y-76934334D01*
X134871201Y-76932478D01*
X134863237Y-76872261D01*
X134863234Y-76872256D01*
X134862703Y-76870273D01*
X134862604Y-76869799D01*
X134862437Y-76869215D01*
X134861879Y-76867206D01*
X134861693Y-76866515D01*
X134861524Y-76866030D01*
X134860960Y-76864063D01*
X134843282Y-76823407D01*
X134836786Y-76808468D01*
X134835983Y-76806578D01*
X134828910Y-76789531D01*
X134812732Y-76750539D01*
X134812727Y-76750533D01*
X134811714Y-76748779D01*
X134811491Y-76748338D01*
X134811142Y-76747756D01*
X134810085Y-76745962D01*
X134809744Y-76745372D01*
X134809457Y-76744951D01*
X134808413Y-76743213D01*
X134808411Y-76743209D01*
X134770635Y-76695720D01*
X134769449Y-76694204D01*
X134732443Y-76646036D01*
X134732440Y-76646032D01*
X134730966Y-76644560D01*
X134730643Y-76644198D01*
X134730254Y-76643823D01*
X134728742Y-76642339D01*
X134728250Y-76641848D01*
X134727856Y-76641508D01*
X134726372Y-76640075D01*
X134696345Y-76617857D01*
X134677655Y-76604027D01*
X134676019Y-76602795D01*
X134663136Y-76592922D01*
X134621898Y-76536519D01*
X134617701Y-76466776D01*
X134651876Y-76405834D01*
X134713574Y-76373044D01*
X134738562Y-76370500D01*
X135069750Y-76370500D01*
X135069751Y-76370499D01*
X135084568Y-76367552D01*
X135128229Y-76358868D01*
X135128229Y-76358867D01*
X135128231Y-76358867D01*
X135194552Y-76314552D01*
X135238867Y-76248231D01*
X135238867Y-76248229D01*
X135238868Y-76248229D01*
X135250499Y-76189752D01*
X135250500Y-76189750D01*
X135250500Y-74450249D01*
X135250499Y-74450247D01*
X135238868Y-74391770D01*
X135238867Y-74391769D01*
X135194552Y-74325447D01*
X135128230Y-74281132D01*
X135128229Y-74281131D01*
X135069752Y-74269500D01*
X135069748Y-74269500D01*
X133330252Y-74269500D01*
X133330247Y-74269500D01*
X133271770Y-74281131D01*
X133271769Y-74281132D01*
X133205447Y-74325447D01*
X133161132Y-74391769D01*
X133161131Y-74391770D01*
X133149500Y-74450247D01*
X133149500Y-76189752D01*
X133161131Y-76248229D01*
X133161132Y-76248230D01*
X133205447Y-76314552D01*
X133271769Y-76358867D01*
X133271770Y-76358868D01*
X133330247Y-76370499D01*
X133330250Y-76370500D01*
X133554587Y-76370500D01*
X133621626Y-76390185D01*
X133667381Y-76442989D01*
X133677325Y-76512147D01*
X133648300Y-76575703D01*
X133589522Y-76613477D01*
X133572916Y-76617138D01*
X132253045Y-76814405D01*
X132250756Y-76814725D01*
X132191198Y-76822494D01*
X132188044Y-76823335D01*
X132187695Y-76823407D01*
X132185609Y-76823984D01*
X132185263Y-76824105D01*
X132182132Y-76825003D01*
X132182125Y-76825005D01*
X132182125Y-76825006D01*
X132127022Y-76848965D01*
X132124929Y-76849852D01*
X132069390Y-76872780D01*
X132069389Y-76872780D01*
X132069386Y-76872782D01*
X132066574Y-76874401D01*
X132066245Y-76874566D01*
X132064365Y-76875671D01*
X132064044Y-76875890D01*
X132061269Y-76877557D01*
X132014271Y-76914941D01*
X132012450Y-76916362D01*
X131964739Y-76952881D01*
X131962422Y-76955193D01*
X131962149Y-76955436D01*
X131960660Y-76956949D01*
X131960409Y-76957241D01*
X131958136Y-76959595D01*
X131922393Y-77007897D01*
X131921003Y-77009739D01*
X131884391Y-77057335D01*
X131882764Y-77060146D01*
X131882563Y-77060451D01*
X131881489Y-77062345D01*
X131881324Y-77062688D01*
X131879752Y-77065524D01*
X131879749Y-77065530D01*
X131879749Y-77065531D01*
X131873338Y-77081805D01*
X131857726Y-77121437D01*
X131856876Y-77123536D01*
X131833815Y-77179028D01*
X131833814Y-77179030D01*
X131833811Y-77179039D01*
X131832968Y-77182169D01*
X131832854Y-77182514D01*
X131832305Y-77184627D01*
X131832236Y-77184993D01*
X131831452Y-77188137D01*
X131824652Y-77247815D01*
X131824369Y-77250105D01*
X131816457Y-77309662D01*
X131816453Y-77312931D01*
X131816431Y-77313306D01*
X131816448Y-77315440D01*
X131816477Y-77315826D01*
X131816534Y-77319085D01*
X131824827Y-77374578D01*
X131825476Y-77379626D01*
X131910957Y-78173281D01*
X131911428Y-78178819D01*
X131961376Y-78977356D01*
X131961599Y-78982909D01*
X131975717Y-79782917D01*
X131975690Y-79788475D01*
X131953947Y-80588270D01*
X131953672Y-80593820D01*
X131896112Y-81391870D01*
X131895588Y-81397403D01*
X131802326Y-82192075D01*
X131801554Y-82197579D01*
X131672784Y-82987241D01*
X131671767Y-82992705D01*
X131507738Y-83775826D01*
X131506477Y-83781238D01*
X131394605Y-84217012D01*
X131358869Y-84277052D01*
X131296346Y-84308239D01*
X131226888Y-84300674D01*
X131172545Y-84256757D01*
X131150573Y-84190432D01*
X131150500Y-84186179D01*
X131150500Y-80840693D01*
X131150500Y-80840691D01*
X131124834Y-80744905D01*
X131119800Y-80726117D01*
X131119799Y-80726114D01*
X131119799Y-80726113D01*
X131060489Y-80623386D01*
X130293014Y-79855911D01*
X130267901Y-79819741D01*
X130225379Y-79726630D01*
X130225376Y-79726626D01*
X130220433Y-79720921D01*
X130131128Y-79617857D01*
X130010053Y-79540047D01*
X130010051Y-79540046D01*
X130010049Y-79540045D01*
X130010050Y-79540045D01*
X129871963Y-79499500D01*
X129871961Y-79499500D01*
X129728039Y-79499500D01*
X129728036Y-79499500D01*
X129589950Y-79540045D01*
X129589948Y-79540045D01*
X129528064Y-79579816D01*
X129461026Y-79599500D01*
X127967255Y-79599500D01*
X127900216Y-79579815D01*
X127879574Y-79563181D01*
X127555915Y-79239522D01*
X127555913Y-79239520D01*
X127464588Y-79186793D01*
X127438853Y-79179897D01*
X127379193Y-79143533D01*
X127348664Y-79080686D01*
X127356959Y-79011311D01*
X127375094Y-78981458D01*
X127376176Y-78980140D01*
X127477685Y-78856450D01*
X127495289Y-78823514D01*
X127544249Y-78773672D01*
X127612387Y-78758211D01*
X127678066Y-78782042D01*
X127698358Y-78800765D01*
X127768872Y-78882143D01*
X127889947Y-78959953D01*
X127889950Y-78959954D01*
X127889949Y-78959954D01*
X127994813Y-78990744D01*
X128026806Y-79000138D01*
X128028036Y-79000499D01*
X128028038Y-79000500D01*
X128028039Y-79000500D01*
X128171962Y-79000500D01*
X128171962Y-79000499D01*
X128310053Y-78959953D01*
X128431128Y-78882143D01*
X128525377Y-78773373D01*
X128585165Y-78642457D01*
X128605647Y-78500000D01*
X128585165Y-78357543D01*
X128525377Y-78226627D01*
X128525374Y-78226623D01*
X128480786Y-78175164D01*
X128451762Y-78111608D01*
X128450500Y-78093963D01*
X128450500Y-78026801D01*
X128450500Y-78026799D01*
X128426614Y-77937655D01*
X128416698Y-77920480D01*
X128380470Y-77857731D01*
X127312269Y-76789530D01*
X127312268Y-76789529D01*
X127312265Y-76789527D01*
X127263497Y-76761371D01*
X127215281Y-76710804D01*
X127202058Y-76642197D01*
X127228027Y-76577332D01*
X127246833Y-76558130D01*
X127268868Y-76540047D01*
X127346410Y-76476410D01*
X127477685Y-76316450D01*
X127575232Y-76133954D01*
X127635300Y-75935934D01*
X127655583Y-75730000D01*
X127635300Y-75524066D01*
X127575232Y-75326046D01*
X127477685Y-75143550D01*
X127409079Y-75059953D01*
X127403805Y-75053526D01*
X127376493Y-74989216D01*
X127388284Y-74920349D01*
X127435437Y-74868789D01*
X127467568Y-74855087D01*
X127474588Y-74853207D01*
X127565913Y-74800480D01*
X128120480Y-74245912D01*
X128173207Y-74154587D01*
X128200501Y-74052726D01*
X128200501Y-73947273D01*
X128173207Y-73845412D01*
X128168330Y-73836964D01*
X128167112Y-73834854D01*
X128150500Y-73772856D01*
X128150500Y-69553858D01*
X128150500Y-69553856D01*
X128126614Y-69464712D01*
X128118409Y-69450500D01*
X128080470Y-69384788D01*
X127415212Y-68719530D01*
X127415211Y-68719529D01*
X127415208Y-68719527D01*
X127335290Y-68673387D01*
X127335289Y-68673386D01*
X127335288Y-68673386D01*
X127246144Y-68649500D01*
X127246143Y-68649500D01*
X125575799Y-68649500D01*
X125508760Y-68629815D01*
X125488118Y-68613181D01*
X125384380Y-68509443D01*
X125350895Y-68448120D01*
X125355879Y-68378428D01*
X125371741Y-68348878D01*
X125446851Y-68245500D01*
X125480235Y-68181940D01*
X125501307Y-68061792D01*
X125501306Y-68061785D01*
X125501325Y-68059613D01*
X125502190Y-68056751D01*
X125503082Y-68051671D01*
X125503695Y-68051778D01*
X125521564Y-67992738D01*
X125574744Y-67947421D01*
X125643982Y-67938050D01*
X125646698Y-67938494D01*
X125715146Y-67950499D01*
X125715148Y-67950498D01*
X125715149Y-67950499D01*
X125817219Y-67934332D01*
X125840571Y-67930634D01*
X125952750Y-67871119D01*
X126004941Y-67817617D01*
X126541131Y-67079615D01*
X126564349Y-67035410D01*
X126612948Y-66985215D01*
X126680972Y-66969261D01*
X126746822Y-66992617D01*
G37*
%TD.AperFunction*%
%TA.AperFunction,Conductor*%
G36*
X109792281Y-82284502D02*
G01*
X109818602Y-82304575D01*
X110350631Y-82836604D01*
X110384116Y-82897927D01*
X110385688Y-82906637D01*
X110401970Y-83019883D01*
X110445366Y-83114905D01*
X110461759Y-83150800D01*
X110531349Y-83231112D01*
X110560374Y-83294667D01*
X110561636Y-83312314D01*
X110561636Y-84542791D01*
X110541951Y-84609830D01*
X110525317Y-84630472D01*
X109892608Y-85263181D01*
X109831285Y-85296666D01*
X109804927Y-85299500D01*
X109495730Y-85299500D01*
X109465300Y-85302353D01*
X109465298Y-85302353D01*
X109337119Y-85347206D01*
X109337117Y-85347207D01*
X109227850Y-85427850D01*
X109147207Y-85537117D01*
X109147206Y-85537119D01*
X109102353Y-85665298D01*
X109102353Y-85665300D01*
X109099500Y-85695730D01*
X109099500Y-86704269D01*
X109102353Y-86734699D01*
X109102353Y-86734701D01*
X109147206Y-86862880D01*
X109147207Y-86862882D01*
X109227850Y-86972150D01*
X109337118Y-87052793D01*
X109391456Y-87071806D01*
X109448231Y-87112527D01*
X109473978Y-87177480D01*
X109474500Y-87188847D01*
X109474500Y-87279197D01*
X109454815Y-87346236D01*
X109402011Y-87391991D01*
X109372481Y-87399879D01*
X109372670Y-87400744D01*
X109365298Y-87402353D01*
X109237119Y-87447206D01*
X109237117Y-87447207D01*
X109127850Y-87527850D01*
X109047207Y-87637117D01*
X109047206Y-87637119D01*
X109002353Y-87765298D01*
X109002353Y-87765300D01*
X108999500Y-87795730D01*
X108999500Y-88804269D01*
X109002353Y-88834699D01*
X109002353Y-88834701D01*
X109032576Y-88921070D01*
X109047207Y-88962882D01*
X109127850Y-89072150D01*
X109237118Y-89152793D01*
X109244083Y-89155230D01*
X109365299Y-89197646D01*
X109395730Y-89200500D01*
X109395734Y-89200500D01*
X110204270Y-89200500D01*
X110228612Y-89198216D01*
X110234699Y-89197646D01*
X110284545Y-89180203D01*
X110354322Y-89176641D01*
X110414950Y-89211369D01*
X110447178Y-89273362D01*
X110449500Y-89297245D01*
X110449500Y-89562034D01*
X110429815Y-89629073D01*
X110413181Y-89649715D01*
X109949716Y-90113181D01*
X109888393Y-90146666D01*
X109862035Y-90149500D01*
X109274500Y-90149500D01*
X109207461Y-90129815D01*
X109161706Y-90077011D01*
X109150500Y-90025500D01*
X109150500Y-89830249D01*
X109150499Y-89830247D01*
X109138868Y-89771770D01*
X109138867Y-89771769D01*
X109094552Y-89705447D01*
X109028230Y-89661132D01*
X109028229Y-89661131D01*
X108969752Y-89649500D01*
X108969748Y-89649500D01*
X107430252Y-89649500D01*
X107430247Y-89649500D01*
X107371770Y-89661131D01*
X107371769Y-89661132D01*
X107305447Y-89705447D01*
X107261132Y-89771769D01*
X107261131Y-89771770D01*
X107249500Y-89830247D01*
X107249500Y-90026430D01*
X107229815Y-90093469D01*
X107177011Y-90139224D01*
X107141689Y-90149369D01*
X107140690Y-90149500D01*
X107050325Y-90173713D01*
X107050324Y-90173712D01*
X107026115Y-90180200D01*
X107026106Y-90180204D01*
X106923392Y-90239505D01*
X106923384Y-90239511D01*
X106887681Y-90275215D01*
X106826358Y-90308700D01*
X106756666Y-90303716D01*
X106712319Y-90275215D01*
X106324319Y-89887215D01*
X106290834Y-89825892D01*
X106288000Y-89799534D01*
X106288000Y-89700726D01*
X106307685Y-89633687D01*
X106360489Y-89587932D01*
X106371047Y-89583684D01*
X106387879Y-89577794D01*
X106387878Y-89577794D01*
X106387882Y-89577793D01*
X106497150Y-89497150D01*
X106577793Y-89387882D01*
X106608424Y-89300344D01*
X106622646Y-89259701D01*
X106622646Y-89259699D01*
X106625500Y-89229269D01*
X106625500Y-88170730D01*
X106622646Y-88140300D01*
X106622646Y-88140298D01*
X106588723Y-88043354D01*
X106577793Y-88012118D01*
X106497150Y-87902850D01*
X106387882Y-87822207D01*
X106385650Y-87821426D01*
X106316840Y-87797348D01*
X106260065Y-87756626D01*
X106234318Y-87691673D01*
X106247775Y-87623111D01*
X106284163Y-87580536D01*
X106287877Y-87577794D01*
X106287882Y-87577793D01*
X106391657Y-87501203D01*
X106457283Y-87477235D01*
X106525453Y-87492551D01*
X106552968Y-87513295D01*
X106769462Y-87729789D01*
X106963181Y-87923507D01*
X106996666Y-87984830D01*
X106999500Y-88011188D01*
X106999500Y-88804269D01*
X107002353Y-88834699D01*
X107002353Y-88834701D01*
X107032576Y-88921070D01*
X107047207Y-88962882D01*
X107127850Y-89072150D01*
X107237118Y-89152793D01*
X107244083Y-89155230D01*
X107365299Y-89197646D01*
X107395730Y-89200500D01*
X107395734Y-89200500D01*
X108204270Y-89200500D01*
X108234699Y-89197646D01*
X108234701Y-89197646D01*
X108298790Y-89175219D01*
X108362882Y-89152793D01*
X108472150Y-89072150D01*
X108552793Y-88962882D01*
X108581004Y-88882260D01*
X108597646Y-88834701D01*
X108597646Y-88834699D01*
X108600500Y-88804269D01*
X108600500Y-87795730D01*
X108597646Y-87765300D01*
X108597646Y-87765298D01*
X108555791Y-87645686D01*
X108552793Y-87637118D01*
X108472150Y-87527850D01*
X108362882Y-87447207D01*
X108362880Y-87447206D01*
X108234700Y-87402353D01*
X108204270Y-87399500D01*
X108204266Y-87399500D01*
X107411188Y-87399500D01*
X107344149Y-87379815D01*
X107323512Y-87363185D01*
X107222877Y-87262550D01*
X107189394Y-87201228D01*
X107194378Y-87131537D01*
X107236250Y-87075604D01*
X107301715Y-87051187D01*
X107351511Y-87057829D01*
X107465301Y-87097646D01*
X107465300Y-87097646D01*
X107495730Y-87100500D01*
X107495734Y-87100500D01*
X108304270Y-87100500D01*
X108334699Y-87097646D01*
X108334701Y-87097646D01*
X108398790Y-87075219D01*
X108462882Y-87052793D01*
X108572150Y-86972150D01*
X108652793Y-86862882D01*
X108675219Y-86798790D01*
X108697646Y-86734701D01*
X108697646Y-86734699D01*
X108700500Y-86704269D01*
X108700500Y-85695730D01*
X108697646Y-85665300D01*
X108697646Y-85665298D01*
X108661786Y-85562819D01*
X108652793Y-85537118D01*
X108572150Y-85427850D01*
X108462882Y-85347207D01*
X108462880Y-85347206D01*
X108334700Y-85302353D01*
X108304270Y-85299500D01*
X108304266Y-85299500D01*
X107495734Y-85299500D01*
X107495730Y-85299500D01*
X107465301Y-85302353D01*
X107394102Y-85327267D01*
X107324323Y-85330828D01*
X107265467Y-85297906D01*
X107104741Y-85137180D01*
X107071256Y-85075857D01*
X107076240Y-85006165D01*
X107118112Y-84950232D01*
X107183576Y-84925815D01*
X107192422Y-84925499D01*
X107197862Y-84925499D01*
X107197867Y-84925500D01*
X107402132Y-84925499D01*
X107482495Y-84909515D01*
X107482498Y-84909512D01*
X107493778Y-84904841D01*
X107494376Y-84906286D01*
X107547782Y-84889563D01*
X107605943Y-84905516D01*
X107606223Y-84904842D01*
X107611590Y-84907065D01*
X107615162Y-84908045D01*
X107617351Y-84909451D01*
X107617506Y-84909516D01*
X107670957Y-84920147D01*
X107697867Y-84925500D01*
X107902132Y-84925499D01*
X107982495Y-84909515D01*
X107982498Y-84909512D01*
X107993778Y-84904841D01*
X107994376Y-84906286D01*
X108047782Y-84889563D01*
X108105943Y-84905516D01*
X108106223Y-84904842D01*
X108111590Y-84907065D01*
X108115162Y-84908045D01*
X108117351Y-84909451D01*
X108117506Y-84909516D01*
X108170957Y-84920147D01*
X108197867Y-84925500D01*
X108402132Y-84925499D01*
X108482495Y-84909515D01*
X108573624Y-84848624D01*
X108634515Y-84757495D01*
X108650500Y-84677133D01*
X108650499Y-84373997D01*
X108670183Y-84306961D01*
X108722987Y-84261206D01*
X108774499Y-84250000D01*
X108850000Y-84250000D01*
X108850000Y-83750000D01*
X109150000Y-83750000D01*
X109150000Y-84250000D01*
X109387683Y-84250000D01*
X109387697Y-84249999D01*
X109500104Y-84235199D01*
X109500108Y-84235198D01*
X109639978Y-84177263D01*
X109760094Y-84085094D01*
X109852263Y-83964978D01*
X109910198Y-83825108D01*
X109910199Y-83825103D01*
X109920088Y-83750000D01*
X109150000Y-83750000D01*
X108850000Y-83750000D01*
X108850000Y-83574499D01*
X108869685Y-83507460D01*
X108922489Y-83461705D01*
X108973997Y-83450499D01*
X109377132Y-83450499D01*
X109378129Y-83450499D01*
X109388289Y-83450000D01*
X109920088Y-83450000D01*
X109920088Y-83449999D01*
X109910199Y-83374896D01*
X109910198Y-83374891D01*
X109852263Y-83235021D01*
X109760094Y-83114905D01*
X109665754Y-83042515D01*
X109624552Y-82986086D01*
X109619624Y-82968332D01*
X109609515Y-82917505D01*
X109609513Y-82917502D01*
X109604841Y-82906222D01*
X109606285Y-82905623D01*
X109589563Y-82852211D01*
X109605517Y-82794056D01*
X109604842Y-82793777D01*
X109607070Y-82788396D01*
X109608049Y-82784831D01*
X109609452Y-82782647D01*
X109609516Y-82782493D01*
X109625499Y-82702136D01*
X109625500Y-82702133D01*
X109625499Y-82497868D01*
X109609515Y-82417505D01*
X109609514Y-82417503D01*
X109609304Y-82416447D01*
X109615531Y-82346855D01*
X109658395Y-82291678D01*
X109724284Y-82268434D01*
X109792281Y-82284502D01*
G37*
%TD.AperFunction*%
%TA.AperFunction,Conductor*%
G36*
X101275032Y-74695294D02*
G01*
X101315900Y-74744790D01*
X101374622Y-74873371D01*
X101374623Y-74873373D01*
X101468872Y-74982143D01*
X101589947Y-75059953D01*
X101589950Y-75059954D01*
X101589949Y-75059954D01*
X101728036Y-75100499D01*
X101728038Y-75100500D01*
X101728039Y-75100500D01*
X101871962Y-75100500D01*
X101871962Y-75100499D01*
X101924797Y-75084985D01*
X102018563Y-75057455D01*
X102018922Y-75058680D01*
X102058822Y-75050000D01*
X103288500Y-75050000D01*
X103355539Y-75069685D01*
X103401294Y-75122489D01*
X103412500Y-75174000D01*
X103412500Y-75426000D01*
X103392815Y-75493039D01*
X103340011Y-75538794D01*
X103288500Y-75550000D01*
X102075001Y-75550000D01*
X102075001Y-75824986D01*
X102085494Y-75927697D01*
X102142914Y-76100977D01*
X102141373Y-76101487D01*
X102150552Y-76161973D01*
X102122024Y-76225753D01*
X102092781Y-76250820D01*
X102081659Y-76257680D01*
X102021628Y-76317711D01*
X101960304Y-76351195D01*
X101890613Y-76346210D01*
X101834679Y-76304339D01*
X101817765Y-76273362D01*
X101793354Y-76207913D01*
X101793350Y-76207906D01*
X101707190Y-76092812D01*
X101707187Y-76092809D01*
X101592093Y-76006649D01*
X101592086Y-76006645D01*
X101457379Y-75956403D01*
X101457372Y-75956401D01*
X101397844Y-75950000D01*
X100850000Y-75950000D01*
X100850000Y-76950000D01*
X101769000Y-76950000D01*
X101836039Y-76969685D01*
X101881794Y-77022489D01*
X101886327Y-77043327D01*
X101893000Y-77050000D01*
X103026000Y-77050000D01*
X103093039Y-77069685D01*
X103138794Y-77122489D01*
X103150000Y-77174000D01*
X103150000Y-77426000D01*
X103130315Y-77493039D01*
X103077511Y-77538794D01*
X103026000Y-77550000D01*
X101881000Y-77550000D01*
X101813961Y-77530315D01*
X101768206Y-77477511D01*
X101763672Y-77456672D01*
X101757000Y-77450000D01*
X100850000Y-77450000D01*
X100850000Y-78450000D01*
X101397828Y-78450000D01*
X101397844Y-78449999D01*
X101457372Y-78443598D01*
X101457379Y-78443596D01*
X101592086Y-78393354D01*
X101592093Y-78393350D01*
X101707187Y-78307190D01*
X101707188Y-78307189D01*
X101766705Y-78227685D01*
X101822638Y-78185813D01*
X101892330Y-78180829D01*
X101953653Y-78214314D01*
X102081654Y-78342315D01*
X102230875Y-78434356D01*
X102230880Y-78434358D01*
X102381589Y-78484298D01*
X102439034Y-78524070D01*
X102465857Y-78588586D01*
X102453542Y-78657362D01*
X102430268Y-78689683D01*
X102306769Y-78813182D01*
X102245449Y-78846666D01*
X102219090Y-78849500D01*
X101630247Y-78849500D01*
X101571770Y-78861131D01*
X101571769Y-78861132D01*
X101505447Y-78905447D01*
X101461132Y-78971769D01*
X101461131Y-78971770D01*
X101449500Y-79030247D01*
X101449500Y-80569752D01*
X101461131Y-80628229D01*
X101461132Y-80628230D01*
X101505447Y-80694552D01*
X101571769Y-80738867D01*
X101571770Y-80738868D01*
X101630247Y-80750499D01*
X101630250Y-80750500D01*
X101630252Y-80750500D01*
X103169750Y-80750500D01*
X103169751Y-80750499D01*
X103184880Y-80747490D01*
X103228229Y-80738868D01*
X103228229Y-80738867D01*
X103228231Y-80738867D01*
X103294552Y-80694552D01*
X103338867Y-80628231D01*
X103338867Y-80628229D01*
X103338868Y-80628229D01*
X103348184Y-80581391D01*
X103350500Y-80569748D01*
X103350500Y-79030252D01*
X103350500Y-79030251D01*
X103349944Y-79024613D01*
X103362962Y-78955966D01*
X103406305Y-78908142D01*
X103446762Y-78882143D01*
X103511386Y-78807561D01*
X103570161Y-78769789D01*
X103640031Y-78769789D01*
X103698809Y-78807562D01*
X103712483Y-78826764D01*
X103714535Y-78830318D01*
X103714537Y-78830320D01*
X103859690Y-78975473D01*
X103879396Y-79001154D01*
X103919527Y-79070664D01*
X103919529Y-79070667D01*
X103919530Y-79070668D01*
X104329332Y-79480470D01*
X104409256Y-79526614D01*
X104498400Y-79550500D01*
X104590688Y-79550500D01*
X104931704Y-79550500D01*
X104998743Y-79570185D01*
X105019385Y-79586819D01*
X105338036Y-79905470D01*
X105387499Y-79934027D01*
X105435715Y-79984594D01*
X105449500Y-80041415D01*
X105449500Y-80625500D01*
X105429815Y-80692539D01*
X105377011Y-80738294D01*
X105325500Y-80749500D01*
X104722870Y-80749500D01*
X104642504Y-80765485D01*
X104551375Y-80826375D01*
X104490485Y-80917505D01*
X104490483Y-80917509D01*
X104474500Y-80997863D01*
X104474500Y-81202129D01*
X104481171Y-81235669D01*
X104489654Y-81278318D01*
X104490486Y-81282498D01*
X104495159Y-81293780D01*
X104493714Y-81294378D01*
X104510436Y-81347788D01*
X104494482Y-81405938D01*
X104495159Y-81406219D01*
X104492926Y-81411609D01*
X104491950Y-81415168D01*
X104490550Y-81417345D01*
X104490484Y-81417505D01*
X104474500Y-81497863D01*
X104474500Y-81702129D01*
X104477898Y-81719210D01*
X104490082Y-81780470D01*
X104490486Y-81782498D01*
X104495159Y-81793780D01*
X104493714Y-81794378D01*
X104510436Y-81847788D01*
X104494482Y-81905938D01*
X104495159Y-81906219D01*
X104492926Y-81911609D01*
X104491950Y-81915168D01*
X104490550Y-81917345D01*
X104490484Y-81917505D01*
X104474500Y-81997863D01*
X104474500Y-82202129D01*
X104479176Y-82225638D01*
X104487688Y-82268434D01*
X104490486Y-82282498D01*
X104495159Y-82293780D01*
X104493714Y-82294378D01*
X104510436Y-82347788D01*
X104494482Y-82405938D01*
X104495159Y-82406219D01*
X104492926Y-82411609D01*
X104491950Y-82415168D01*
X104490550Y-82417345D01*
X104490484Y-82417505D01*
X104474500Y-82497863D01*
X104474500Y-82702129D01*
X104478950Y-82724500D01*
X104489072Y-82775393D01*
X104490486Y-82782498D01*
X104495159Y-82793780D01*
X104493714Y-82794378D01*
X104510436Y-82847788D01*
X104494482Y-82905938D01*
X104495159Y-82906219D01*
X104492926Y-82911609D01*
X104491950Y-82915168D01*
X104490550Y-82917345D01*
X104490484Y-82917503D01*
X104480374Y-82968332D01*
X104447988Y-83030242D01*
X104434245Y-83042514D01*
X104339906Y-83114904D01*
X104247736Y-83235021D01*
X104189801Y-83374891D01*
X104189800Y-83374896D01*
X104179911Y-83449999D01*
X104179912Y-83450000D01*
X104711699Y-83450000D01*
X104721877Y-83450499D01*
X104722862Y-83450499D01*
X104722867Y-83450500D01*
X105126001Y-83450499D01*
X105193039Y-83470183D01*
X105238794Y-83522987D01*
X105250000Y-83574499D01*
X105250000Y-84250000D01*
X105325500Y-84250000D01*
X105392539Y-84269685D01*
X105438294Y-84322489D01*
X105449500Y-84374000D01*
X105449500Y-85081370D01*
X105467755Y-85149500D01*
X105467756Y-85149503D01*
X105473385Y-85170512D01*
X105519527Y-85250434D01*
X105519531Y-85250439D01*
X105831911Y-85562819D01*
X105865396Y-85624142D01*
X105860412Y-85693834D01*
X105818540Y-85749767D01*
X105753076Y-85774184D01*
X105744230Y-85774500D01*
X105500465Y-85774500D01*
X105433426Y-85754815D01*
X105412784Y-85738181D01*
X103424603Y-83750000D01*
X104179912Y-83750000D01*
X104189800Y-83825103D01*
X104189801Y-83825108D01*
X104247736Y-83964978D01*
X104339905Y-84085094D01*
X104460021Y-84177263D01*
X104599891Y-84235198D01*
X104599895Y-84235199D01*
X104712302Y-84249999D01*
X104712317Y-84250000D01*
X104950000Y-84250000D01*
X104950000Y-83750000D01*
X104179912Y-83750000D01*
X103424603Y-83750000D01*
X102361819Y-82687216D01*
X102328334Y-82625893D01*
X102325500Y-82599535D01*
X102325500Y-81970730D01*
X102322646Y-81940300D01*
X102322646Y-81940298D01*
X102282870Y-81826627D01*
X102277793Y-81812118D01*
X102197150Y-81702850D01*
X102087882Y-81622207D01*
X102087880Y-81622206D01*
X101959700Y-81577353D01*
X101929270Y-81574500D01*
X101929266Y-81574500D01*
X100870734Y-81574500D01*
X100870730Y-81574500D01*
X100840300Y-81577353D01*
X100840298Y-81577354D01*
X100725451Y-81617541D01*
X100684496Y-81624500D01*
X100049500Y-81624500D01*
X99982461Y-81604815D01*
X99936706Y-81552011D01*
X99925500Y-81500500D01*
X99925500Y-81170730D01*
X99922646Y-81140300D01*
X99922646Y-81140298D01*
X99884189Y-81030396D01*
X99877793Y-81012118D01*
X99797150Y-80902850D01*
X99687882Y-80822207D01*
X99687880Y-80822206D01*
X99559700Y-80777353D01*
X99529270Y-80774500D01*
X99529266Y-80774500D01*
X99449500Y-80774500D01*
X99382461Y-80754815D01*
X99336706Y-80702011D01*
X99325500Y-80650500D01*
X99325500Y-78429662D01*
X99345185Y-78362623D01*
X99397989Y-78316868D01*
X99467147Y-78306924D01*
X99523812Y-78330396D01*
X99607910Y-78393352D01*
X99607913Y-78393354D01*
X99742620Y-78443596D01*
X99742627Y-78443598D01*
X99802155Y-78449999D01*
X99802172Y-78450000D01*
X100350000Y-78450000D01*
X100350000Y-75950000D01*
X100125805Y-75950000D01*
X100058766Y-75930315D01*
X100013011Y-75877511D01*
X100003067Y-75808353D01*
X100032092Y-75744797D01*
X100038124Y-75738319D01*
X100753237Y-75023205D01*
X101018135Y-74758306D01*
X101073728Y-74726212D01*
X101078912Y-74724824D01*
X101141107Y-74688915D01*
X101209004Y-74672442D01*
X101275032Y-74695294D01*
G37*
%TD.AperFunction*%
%TA.AperFunction,Conductor*%
G36*
X115449311Y-80156307D02*
G01*
X115503190Y-80200792D01*
X115524465Y-80267344D01*
X115524500Y-80270296D01*
X115524500Y-80513260D01*
X115534426Y-80581391D01*
X115534427Y-80581393D01*
X115585802Y-80686483D01*
X115585803Y-80686484D01*
X115585804Y-80686486D01*
X115591773Y-80694847D01*
X115590658Y-80695642D01*
X115618970Y-80747490D01*
X115613986Y-80817182D01*
X115572114Y-80873115D01*
X115560926Y-80880580D01*
X115473444Y-80932317D01*
X115473438Y-80932321D01*
X115357321Y-81048438D01*
X115357314Y-81048447D01*
X115273718Y-81189801D01*
X115227899Y-81347513D01*
X115227704Y-81349998D01*
X115227705Y-81350000D01*
X116726000Y-81350000D01*
X116793039Y-81369685D01*
X116838794Y-81422489D01*
X116850000Y-81474000D01*
X116850000Y-82319000D01*
X116830315Y-82386039D01*
X116777511Y-82431794D01*
X116726000Y-82443000D01*
X116707086Y-82443000D01*
X116816720Y-82464808D01*
X116878631Y-82497193D01*
X116913205Y-82557908D01*
X116909466Y-82627678D01*
X116880210Y-82674106D01*
X116066135Y-83488181D01*
X116004812Y-83521666D01*
X115978454Y-83524500D01*
X115618482Y-83524500D01*
X115537519Y-83537323D01*
X115524696Y-83539354D01*
X115411658Y-83596950D01*
X115411657Y-83596951D01*
X115411652Y-83596954D01*
X115321954Y-83686652D01*
X115321951Y-83686657D01*
X115264352Y-83799698D01*
X115249500Y-83893475D01*
X115249500Y-84489811D01*
X115229815Y-84556850D01*
X115177011Y-84602605D01*
X115107853Y-84612549D01*
X115044297Y-84583524D01*
X115037819Y-84577492D01*
X114836818Y-84376491D01*
X114803333Y-84315168D01*
X114800499Y-84288810D01*
X114800499Y-83893482D01*
X114798703Y-83882143D01*
X114785646Y-83799696D01*
X114728050Y-83686658D01*
X114728046Y-83686654D01*
X114728045Y-83686652D01*
X114638347Y-83596954D01*
X114638344Y-83596952D01*
X114638342Y-83596950D01*
X114557840Y-83555932D01*
X114525301Y-83539352D01*
X114431524Y-83524500D01*
X113968482Y-83524500D01*
X113874696Y-83539354D01*
X113841088Y-83556478D01*
X113772418Y-83569373D01*
X113707678Y-83543095D01*
X113667422Y-83485988D01*
X113664431Y-83416182D01*
X113666411Y-83409096D01*
X113668591Y-83402100D01*
X113675000Y-83331572D01*
X113675000Y-83325000D01*
X112574000Y-83325000D01*
X112506961Y-83305315D01*
X112461206Y-83252511D01*
X112450000Y-83201000D01*
X112450000Y-82949000D01*
X112469685Y-82881961D01*
X112522489Y-82836206D01*
X112574000Y-82825000D01*
X113674999Y-82825000D01*
X113674999Y-82818417D01*
X113668591Y-82747897D01*
X113668590Y-82747892D01*
X113618018Y-82585603D01*
X113530072Y-82440122D01*
X113409877Y-82319927D01*
X113264395Y-82231980D01*
X113264396Y-82231980D01*
X113102105Y-82181409D01*
X113102108Y-82181409D01*
X113088274Y-82180152D01*
X113023292Y-82154479D01*
X112982505Y-82097749D01*
X112975500Y-82056661D01*
X112975500Y-81850001D01*
X115227704Y-81850001D01*
X115227899Y-81852486D01*
X115273718Y-82010198D01*
X115357314Y-82151552D01*
X115357321Y-82151561D01*
X115473438Y-82267678D01*
X115473447Y-82267685D01*
X115614803Y-82351282D01*
X115614806Y-82351283D01*
X115772504Y-82397099D01*
X115772510Y-82397100D01*
X115809350Y-82399999D01*
X115809366Y-82400000D01*
X116350000Y-82400000D01*
X116350000Y-81850000D01*
X115227705Y-81850000D01*
X115227704Y-81850001D01*
X112975500Y-81850001D01*
X112975500Y-81301947D01*
X112975501Y-81301934D01*
X112975501Y-81206240D01*
X112975500Y-81206236D01*
X112967638Y-81176897D01*
X112953318Y-81123454D01*
X112946106Y-81110962D01*
X112910465Y-81049230D01*
X112849862Y-80988627D01*
X112849860Y-80988625D01*
X112575770Y-80714535D01*
X112575180Y-80714194D01*
X112574785Y-80713780D01*
X112569321Y-80709587D01*
X112569974Y-80708735D01*
X112526964Y-80663629D01*
X112513740Y-80595022D01*
X112514475Y-80588929D01*
X112525500Y-80513260D01*
X112525500Y-80392808D01*
X112545185Y-80325769D01*
X112597989Y-80280014D01*
X112667147Y-80270070D01*
X112730703Y-80299095D01*
X112761880Y-80340401D01*
X112816262Y-80457021D01*
X112825965Y-80477830D01*
X112825967Y-80477834D01*
X112927887Y-80623389D01*
X112961505Y-80671401D01*
X113128599Y-80838495D01*
X113193658Y-80884050D01*
X113322165Y-80974032D01*
X113322167Y-80974033D01*
X113322170Y-80974035D01*
X113536337Y-81073903D01*
X113764592Y-81135063D01*
X113929604Y-81149500D01*
X113999999Y-81155659D01*
X114000000Y-81155659D01*
X114000001Y-81155659D01*
X114039234Y-81152226D01*
X114235408Y-81135063D01*
X114463663Y-81073903D01*
X114677830Y-80974035D01*
X114871401Y-80838495D01*
X115038495Y-80671401D01*
X115174035Y-80477830D01*
X115273903Y-80263663D01*
X115280725Y-80238204D01*
X115317089Y-80178543D01*
X115379936Y-80148013D01*
X115449311Y-80156307D01*
G37*
%TD.AperFunction*%
%TA.AperFunction,Conductor*%
G36*
X121844334Y-81646756D02*
G01*
X121900267Y-81688628D01*
X121924684Y-81754092D01*
X121925000Y-81762938D01*
X121925000Y-81872844D01*
X121931401Y-81932372D01*
X121931402Y-81932376D01*
X121964377Y-82020784D01*
X121969361Y-82090476D01*
X121935877Y-82151799D01*
X121935876Y-82151799D01*
X121424496Y-82663181D01*
X121363173Y-82696666D01*
X121336815Y-82699500D01*
X121133719Y-82699500D01*
X121066680Y-82679815D01*
X121040006Y-82656703D01*
X121037073Y-82653318D01*
X121018979Y-82632436D01*
X120897904Y-82554626D01*
X120897902Y-82554625D01*
X120897900Y-82554624D01*
X120897901Y-82554624D01*
X120759814Y-82514079D01*
X120759812Y-82514079D01*
X120615890Y-82514079D01*
X120615887Y-82514079D01*
X120477800Y-82554624D01*
X120356724Y-82632435D01*
X120262474Y-82741205D01*
X120262473Y-82741207D01*
X120218249Y-82838043D01*
X120172494Y-82890847D01*
X120105454Y-82910531D01*
X120087577Y-82909235D01*
X120020761Y-82899500D01*
X120020760Y-82899500D01*
X118779240Y-82899500D01*
X118779239Y-82899500D01*
X118711107Y-82909426D01*
X118711106Y-82909426D01*
X118659213Y-82934795D01*
X118590339Y-82946553D01*
X118526043Y-82919209D01*
X118486736Y-82861444D01*
X118484900Y-82791599D01*
X118517071Y-82735715D01*
X119080469Y-82172318D01*
X119115599Y-82111472D01*
X119126613Y-82092396D01*
X119126614Y-82092394D01*
X119136058Y-82057147D01*
X119150500Y-82003250D01*
X119150500Y-82003238D01*
X119151385Y-81996520D01*
X119179649Y-81932622D01*
X119237972Y-81894149D01*
X119307836Y-81893314D01*
X119360462Y-81923501D01*
X119431280Y-81991889D01*
X119431283Y-81991891D01*
X119933452Y-82343511D01*
X120018796Y-82385138D01*
X120018794Y-82385138D01*
X120102550Y-82396908D01*
X120144427Y-82402794D01*
X120144427Y-82402793D01*
X120144428Y-82402794D01*
X120144429Y-82402794D01*
X120206896Y-82391779D01*
X120269366Y-82380764D01*
X120381382Y-82321204D01*
X120447342Y-82252900D01*
X120692080Y-81903376D01*
X120746657Y-81859752D01*
X120793655Y-81850500D01*
X121439036Y-81850500D01*
X121439038Y-81850500D01*
X121528182Y-81826614D01*
X121540450Y-81819531D01*
X121608106Y-81780470D01*
X121713319Y-81675257D01*
X121774642Y-81641772D01*
X121844334Y-81646756D01*
G37*
%TD.AperFunction*%
%TA.AperFunction,Conductor*%
G36*
X123793039Y-80794685D02*
G01*
X123838794Y-80847489D01*
X123850000Y-80899000D01*
X123850000Y-81475000D01*
X125425000Y-81475000D01*
X125425000Y-81427172D01*
X125424999Y-81427155D01*
X125418598Y-81367627D01*
X125418597Y-81367624D01*
X125409538Y-81343335D01*
X125404552Y-81273644D01*
X125409532Y-81256679D01*
X125411356Y-81251787D01*
X125453221Y-81195849D01*
X125518683Y-81171425D01*
X125586958Y-81186269D01*
X125636369Y-81235669D01*
X125636901Y-81236654D01*
X125661404Y-81282495D01*
X125696304Y-81347788D01*
X125722317Y-81396453D01*
X125845732Y-81546835D01*
X125873045Y-81611145D01*
X125861254Y-81680013D01*
X125814102Y-81731573D01*
X125749879Y-81749500D01*
X125428856Y-81749500D01*
X125345073Y-81771948D01*
X125345074Y-81771949D01*
X125339715Y-81773384D01*
X125339712Y-81773386D01*
X125279088Y-81808387D01*
X125217090Y-81825000D01*
X123624000Y-81825000D01*
X123556961Y-81805315D01*
X123511206Y-81752511D01*
X123500000Y-81701000D01*
X123500000Y-80899000D01*
X123519685Y-80831961D01*
X123572489Y-80786206D01*
X123624000Y-80775000D01*
X123726000Y-80775000D01*
X123793039Y-80794685D01*
G37*
%TD.AperFunction*%
%TA.AperFunction,Conductor*%
G36*
X108062581Y-78352654D02*
G01*
X108096483Y-78413748D01*
X108099500Y-78440932D01*
X108099500Y-79004269D01*
X108102353Y-79034699D01*
X108102353Y-79034701D01*
X108147206Y-79162880D01*
X108147207Y-79162882D01*
X108227850Y-79272150D01*
X108337118Y-79352793D01*
X108379845Y-79367744D01*
X108465299Y-79397646D01*
X108495730Y-79400500D01*
X108495734Y-79400500D01*
X109182745Y-79400500D01*
X109249784Y-79420185D01*
X109270426Y-79436819D01*
X109671426Y-79837819D01*
X109704911Y-79899142D01*
X109699927Y-79968834D01*
X109658055Y-80024767D01*
X109592591Y-80049184D01*
X109583745Y-80049500D01*
X108757562Y-80049500D01*
X108690523Y-80029815D01*
X108644768Y-79977011D01*
X108635945Y-79949693D01*
X108634515Y-79942507D01*
X108634515Y-79942505D01*
X108609769Y-79905470D01*
X108573624Y-79851375D01*
X108511424Y-79809815D01*
X108482495Y-79790485D01*
X108482493Y-79790484D01*
X108482490Y-79790483D01*
X108431668Y-79780374D01*
X108369757Y-79747989D01*
X108357483Y-79734244D01*
X108285094Y-79639905D01*
X108164978Y-79547736D01*
X108025108Y-79489801D01*
X108025103Y-79489800D01*
X107950000Y-79479911D01*
X107950000Y-80011699D01*
X107949500Y-80021877D01*
X107949500Y-80426000D01*
X107929815Y-80493039D01*
X107877011Y-80538794D01*
X107825500Y-80550000D01*
X107774500Y-80550000D01*
X107707461Y-80530315D01*
X107661706Y-80477511D01*
X107650500Y-80426000D01*
X107650499Y-80021868D01*
X107650000Y-80011710D01*
X107650000Y-79467499D01*
X107630316Y-79436465D01*
X107625500Y-79402242D01*
X107625500Y-79157148D01*
X107625500Y-79157147D01*
X107615659Y-79120421D01*
X107603318Y-79074361D01*
X107603317Y-79074360D01*
X107603317Y-79074358D01*
X107582512Y-79038325D01*
X107577851Y-79030252D01*
X107577848Y-79030247D01*
X107560466Y-79000139D01*
X107495531Y-78935204D01*
X107495520Y-78935194D01*
X107272508Y-78712181D01*
X107239023Y-78650858D01*
X107244007Y-78581166D01*
X107285879Y-78525233D01*
X107351343Y-78500816D01*
X107360189Y-78500500D01*
X107604270Y-78500500D01*
X107634699Y-78497646D01*
X107634701Y-78497646D01*
X107728173Y-78464938D01*
X107762882Y-78452793D01*
X107872150Y-78372150D01*
X107875729Y-78367299D01*
X107931375Y-78325049D01*
X108001031Y-78319589D01*
X108062581Y-78352654D01*
G37*
%TD.AperFunction*%
%TA.AperFunction,Conductor*%
G36*
X123195164Y-64226797D02*
G01*
X123221686Y-64239107D01*
X123386262Y-64340643D01*
X123800380Y-64596135D01*
X123805152Y-64599233D01*
X124482869Y-65061569D01*
X124487487Y-65064876D01*
X124873328Y-65354900D01*
X125143326Y-65557848D01*
X125147794Y-65561370D01*
X125451126Y-65811951D01*
X125490274Y-65869824D01*
X125491919Y-65939674D01*
X125455539Y-65999325D01*
X125419258Y-66020582D01*
X125419342Y-66020739D01*
X125415635Y-66022705D01*
X125411448Y-66025159D01*
X125410267Y-66025553D01*
X125298085Y-66085069D01*
X125298083Y-66085071D01*
X125245898Y-66138567D01*
X125245888Y-66138579D01*
X124709709Y-66876566D01*
X124709706Y-66876570D01*
X124709705Y-66876573D01*
X124674949Y-66942743D01*
X124674949Y-66942744D01*
X124653013Y-67067821D01*
X124653012Y-67067825D01*
X124657236Y-67094488D01*
X124648282Y-67163781D01*
X124603285Y-67217233D01*
X124536534Y-67237873D01*
X124513348Y-67236023D01*
X124510889Y-67235592D01*
X124510883Y-67235591D01*
X124390412Y-67254672D01*
X124390407Y-67254673D01*
X124390406Y-67254674D01*
X124390404Y-67254674D01*
X124390404Y-67254675D01*
X124282651Y-67311841D01*
X124282647Y-67311844D01*
X124232519Y-67363231D01*
X124232509Y-67363243D01*
X123680372Y-68123194D01*
X123680363Y-68123209D01*
X123646982Y-68186763D01*
X123646980Y-68186769D01*
X123625908Y-68306914D01*
X123625908Y-68306917D01*
X123644989Y-68427388D01*
X123644990Y-68427392D01*
X123644991Y-68427395D01*
X123665416Y-68465894D01*
X123702158Y-68535149D01*
X123702161Y-68535153D01*
X123753552Y-68585286D01*
X123753560Y-68585293D01*
X124432609Y-69078650D01*
X124432614Y-69078653D01*
X124432621Y-69078658D01*
X124496181Y-69112042D01*
X124616329Y-69133114D01*
X124616329Y-69133113D01*
X124616330Y-69133114D01*
X124700152Y-69119838D01*
X124736810Y-69114032D01*
X124826230Y-69066591D01*
X124894672Y-69052561D01*
X124959838Y-69077763D01*
X124972022Y-69088449D01*
X125164043Y-69280470D01*
X125231699Y-69319531D01*
X125243967Y-69326614D01*
X125333111Y-69350500D01*
X127003456Y-69350500D01*
X127070495Y-69370185D01*
X127091137Y-69386819D01*
X127092137Y-69387819D01*
X127125622Y-69449142D01*
X127120638Y-69518834D01*
X127078766Y-69574767D01*
X127013302Y-69599184D01*
X127004456Y-69599500D01*
X125730247Y-69599500D01*
X125671770Y-69611131D01*
X125671769Y-69611132D01*
X125605447Y-69655447D01*
X125561132Y-69721769D01*
X125561131Y-69721770D01*
X125549500Y-69780247D01*
X125549500Y-71519752D01*
X125561131Y-71578229D01*
X125561132Y-71578230D01*
X125605447Y-71644552D01*
X125671769Y-71688867D01*
X125671770Y-71688868D01*
X125730247Y-71700499D01*
X125730250Y-71700500D01*
X125730252Y-71700500D01*
X126040543Y-71700500D01*
X126107582Y-71720185D01*
X126153337Y-71772989D01*
X126163281Y-71842147D01*
X126134256Y-71905703D01*
X126092948Y-71936882D01*
X125922422Y-72016399D01*
X125922420Y-72016400D01*
X125728926Y-72151886D01*
X125728920Y-72151891D01*
X125561891Y-72318920D01*
X125561886Y-72318926D01*
X125426400Y-72512420D01*
X125426399Y-72512422D01*
X125326570Y-72726507D01*
X125326567Y-72726513D01*
X125269364Y-72939999D01*
X125269364Y-72940000D01*
X126166988Y-72940000D01*
X126134075Y-72997007D01*
X126100000Y-73124174D01*
X126100000Y-73255826D01*
X126134075Y-73382993D01*
X126166988Y-73440000D01*
X125269364Y-73440000D01*
X125326567Y-73653486D01*
X125326570Y-73653492D01*
X125426400Y-73867578D01*
X125527183Y-74011511D01*
X125549510Y-74077717D01*
X125532500Y-74145485D01*
X125513289Y-74170316D01*
X124762181Y-74921425D01*
X124700858Y-74954910D01*
X124631167Y-74949926D01*
X124575233Y-74908054D01*
X124550816Y-74842590D01*
X124550500Y-74833744D01*
X124550500Y-74180249D01*
X124550499Y-74180247D01*
X124538868Y-74121770D01*
X124538867Y-74121769D01*
X124494552Y-74055447D01*
X124428230Y-74011132D01*
X124428229Y-74011131D01*
X124369752Y-73999500D01*
X124369748Y-73999500D01*
X123358709Y-73999500D01*
X123291670Y-73979815D01*
X123245915Y-73927011D01*
X123235971Y-73893147D01*
X123235165Y-73887546D01*
X123235165Y-73887543D01*
X123175377Y-73756627D01*
X123081128Y-73647857D01*
X122960053Y-73570047D01*
X122960051Y-73570046D01*
X122960049Y-73570045D01*
X122960050Y-73570045D01*
X122821963Y-73529500D01*
X122821961Y-73529500D01*
X122678039Y-73529500D01*
X122678036Y-73529500D01*
X122539949Y-73570045D01*
X122418873Y-73647856D01*
X122418872Y-73647856D01*
X122418872Y-73647857D01*
X122413989Y-73653492D01*
X122324623Y-73756626D01*
X122324622Y-73756628D01*
X122264834Y-73887543D01*
X122244353Y-74030000D01*
X122264834Y-74172456D01*
X122309466Y-74270185D01*
X122324623Y-74303373D01*
X122418872Y-74412143D01*
X122539947Y-74489953D01*
X122560433Y-74495968D01*
X122619210Y-74533738D01*
X122648237Y-74597293D01*
X122649500Y-74614945D01*
X122649500Y-75119752D01*
X122661131Y-75178229D01*
X122661132Y-75178230D01*
X122705447Y-75244552D01*
X122771769Y-75288867D01*
X122771770Y-75288868D01*
X122830247Y-75300499D01*
X122830250Y-75300500D01*
X124083744Y-75300500D01*
X124150783Y-75320185D01*
X124196538Y-75372989D01*
X124206482Y-75442147D01*
X124177457Y-75505703D01*
X124171425Y-75512181D01*
X122719491Y-76964116D01*
X122658168Y-76997601D01*
X122631810Y-77000435D01*
X122015106Y-77000435D01*
X121948068Y-76980751D01*
X121886182Y-76940980D01*
X121748095Y-76900435D01*
X121748093Y-76900435D01*
X121604171Y-76900435D01*
X121604168Y-76900435D01*
X121466081Y-76940980D01*
X121345005Y-77018791D01*
X121250755Y-77127561D01*
X121250754Y-77127563D01*
X121190966Y-77258478D01*
X121170485Y-77400935D01*
X121190966Y-77543391D01*
X121248871Y-77670182D01*
X121250755Y-77674308D01*
X121345004Y-77783078D01*
X121466079Y-77860888D01*
X121466082Y-77860889D01*
X121466081Y-77860889D01*
X121604168Y-77901434D01*
X121604170Y-77901435D01*
X121604171Y-77901435D01*
X121748093Y-77901435D01*
X121766065Y-77896158D01*
X121835934Y-77896158D01*
X121894712Y-77933932D01*
X121903773Y-77953773D01*
X121925000Y-77975000D01*
X123500000Y-77975000D01*
X123500000Y-77468035D01*
X123474892Y-77422054D01*
X123479876Y-77352362D01*
X123508375Y-77308017D01*
X125349406Y-75466986D01*
X125410727Y-75433503D01*
X125480419Y-75438487D01*
X125536352Y-75480359D01*
X125560769Y-75545823D01*
X125560488Y-75566823D01*
X125544417Y-75729999D01*
X125564699Y-75935932D01*
X125577160Y-75977011D01*
X125624768Y-76133954D01*
X125722315Y-76316450D01*
X125790472Y-76399500D01*
X125853590Y-76476410D01*
X125953167Y-76558131D01*
X125992501Y-76615876D01*
X125994372Y-76685721D01*
X125958185Y-76745489D01*
X125936503Y-76761371D01*
X125887732Y-76789529D01*
X125887729Y-76789531D01*
X125207796Y-77469463D01*
X125146473Y-77502948D01*
X125076782Y-77497964D01*
X125032377Y-77481402D01*
X124972844Y-77475000D01*
X123850000Y-77475000D01*
X123850000Y-78201000D01*
X123830315Y-78268039D01*
X123777511Y-78313794D01*
X123726000Y-78325000D01*
X121925000Y-78325000D01*
X121925000Y-78375500D01*
X121905315Y-78442539D01*
X121852511Y-78488294D01*
X121801000Y-78499500D01*
X121053856Y-78499500D01*
X120964712Y-78523386D01*
X120964709Y-78523387D01*
X120884791Y-78569527D01*
X120884786Y-78569531D01*
X119862181Y-79592137D01*
X119800858Y-79625622D01*
X119731166Y-79620638D01*
X119675233Y-79578766D01*
X119650816Y-79513302D01*
X119650500Y-79504456D01*
X119650500Y-78074500D01*
X119670185Y-78007461D01*
X119722989Y-77961706D01*
X119774500Y-77950500D01*
X120169750Y-77950500D01*
X120169751Y-77950499D01*
X120184568Y-77947552D01*
X120228229Y-77938868D01*
X120228229Y-77938867D01*
X120228231Y-77938867D01*
X120294552Y-77894552D01*
X120338867Y-77828231D01*
X120338867Y-77828229D01*
X120338868Y-77828229D01*
X120350499Y-77769752D01*
X120350500Y-77769750D01*
X120350500Y-76230249D01*
X120350499Y-76230247D01*
X120338868Y-76171770D01*
X120338867Y-76171769D01*
X120294552Y-76105447D01*
X120228230Y-76061132D01*
X120228229Y-76061131D01*
X120169752Y-76049500D01*
X120169748Y-76049500D01*
X120166255Y-76049500D01*
X120164491Y-76048982D01*
X120163688Y-76048903D01*
X120163703Y-76048750D01*
X120099216Y-76029815D01*
X120053461Y-75977011D01*
X120043517Y-75907853D01*
X120072542Y-75844297D01*
X120078574Y-75837819D01*
X120119727Y-75796666D01*
X120170480Y-75745913D01*
X120183486Y-75723386D01*
X120223207Y-75654587D01*
X120250500Y-75552727D01*
X120250500Y-74367255D01*
X120270185Y-74300216D01*
X120286819Y-74279574D01*
X120444624Y-74121769D01*
X120620480Y-73945913D01*
X120673207Y-73854588D01*
X120700500Y-73752727D01*
X120700500Y-73647273D01*
X120700500Y-71600000D01*
X122350000Y-71600000D01*
X122350000Y-71847844D01*
X122356401Y-71907372D01*
X122356403Y-71907379D01*
X122406645Y-72042086D01*
X122406649Y-72042093D01*
X122492809Y-72157187D01*
X122492812Y-72157190D01*
X122607906Y-72243350D01*
X122607913Y-72243354D01*
X122742620Y-72293596D01*
X122742627Y-72293598D01*
X122802155Y-72299999D01*
X122802172Y-72300000D01*
X123350000Y-72300000D01*
X123350000Y-71600000D01*
X123850000Y-71600000D01*
X123850000Y-72300000D01*
X124397828Y-72300000D01*
X124397844Y-72299999D01*
X124457372Y-72293598D01*
X124457379Y-72293596D01*
X124592086Y-72243354D01*
X124592093Y-72243350D01*
X124707187Y-72157190D01*
X124707190Y-72157187D01*
X124793350Y-72042093D01*
X124793354Y-72042086D01*
X124843596Y-71907379D01*
X124843598Y-71907372D01*
X124849999Y-71847844D01*
X124850000Y-71847827D01*
X124850000Y-71600000D01*
X123850000Y-71600000D01*
X123350000Y-71600000D01*
X122350000Y-71600000D01*
X120700500Y-71600000D01*
X120700500Y-71537223D01*
X120673207Y-71435363D01*
X120673207Y-71435362D01*
X120620480Y-71344037D01*
X120376443Y-71100000D01*
X122350000Y-71100000D01*
X123350000Y-71100000D01*
X123350000Y-70400000D01*
X123850000Y-70400000D01*
X123850000Y-71100000D01*
X124850000Y-71100000D01*
X124850000Y-70852172D01*
X124849999Y-70852155D01*
X124843598Y-70792627D01*
X124843596Y-70792620D01*
X124793354Y-70657913D01*
X124793350Y-70657906D01*
X124707190Y-70542812D01*
X124707187Y-70542809D01*
X124592093Y-70456649D01*
X124592086Y-70456645D01*
X124457379Y-70406403D01*
X124457372Y-70406401D01*
X124397844Y-70400000D01*
X123850000Y-70400000D01*
X123350000Y-70400000D01*
X122802155Y-70400000D01*
X122742627Y-70406401D01*
X122742620Y-70406403D01*
X122607913Y-70456645D01*
X122607906Y-70456649D01*
X122492812Y-70542809D01*
X122492809Y-70542812D01*
X122406649Y-70657906D01*
X122406645Y-70657913D01*
X122356403Y-70792620D01*
X122356401Y-70792627D01*
X122350000Y-70852155D01*
X122350000Y-71100000D01*
X120376443Y-71100000D01*
X120286819Y-71010376D01*
X120253334Y-70949053D01*
X120250500Y-70922695D01*
X120250500Y-70197274D01*
X120248309Y-70189097D01*
X120246930Y-70183950D01*
X120239465Y-70156089D01*
X120241130Y-70086241D01*
X120280294Y-70028379D01*
X120344523Y-70000877D01*
X120359241Y-70000000D01*
X123000000Y-70000000D01*
X123000000Y-68506183D01*
X123019685Y-68439144D01*
X123023682Y-68433298D01*
X123027976Y-68427388D01*
X123613732Y-67621164D01*
X123657917Y-67534447D01*
X123657917Y-67534445D01*
X123657918Y-67534444D01*
X123678259Y-67406016D01*
X123678259Y-67406011D01*
X123657918Y-67277584D01*
X123654523Y-67270921D01*
X123598883Y-67161722D01*
X123598879Y-67161718D01*
X123530070Y-67092907D01*
X123530065Y-67092903D01*
X123051115Y-66744925D01*
X123008449Y-66689595D01*
X123000000Y-66644607D01*
X123000000Y-64488639D01*
X123014224Y-64430974D01*
X123016212Y-64427190D01*
X123034446Y-64323218D01*
X123065414Y-64260590D01*
X123125328Y-64224644D01*
X123195164Y-64226797D01*
G37*
%TD.AperFunction*%
%TA.AperFunction,Conductor*%
G36*
X115577736Y-70019685D02*
G01*
X115623491Y-70072489D01*
X115633435Y-70141647D01*
X115621182Y-70180292D01*
X115617635Y-70187253D01*
X115615279Y-70191877D01*
X115599500Y-70291506D01*
X115599500Y-70808493D01*
X115615279Y-70908123D01*
X115679085Y-71033349D01*
X115691981Y-71102018D01*
X115665704Y-71166758D01*
X115656281Y-71177324D01*
X115511680Y-71321926D01*
X115450359Y-71355410D01*
X115380667Y-71350426D01*
X115324733Y-71308555D01*
X115300316Y-71243090D01*
X115300000Y-71234244D01*
X115300000Y-70852172D01*
X115299999Y-70852155D01*
X115293598Y-70792627D01*
X115293596Y-70792620D01*
X115243354Y-70657913D01*
X115243350Y-70657906D01*
X115157190Y-70542812D01*
X115157187Y-70542809D01*
X115042093Y-70456649D01*
X115042086Y-70456645D01*
X114907379Y-70406403D01*
X114907372Y-70406401D01*
X114847844Y-70400000D01*
X114300000Y-70400000D01*
X114300000Y-72300000D01*
X114329122Y-72329122D01*
X114362607Y-72390445D01*
X114357623Y-72460137D01*
X114329123Y-72504483D01*
X114170424Y-72663182D01*
X114109103Y-72696666D01*
X114082745Y-72699500D01*
X111547273Y-72699500D01*
X111445410Y-72726793D01*
X111354087Y-72779520D01*
X111354084Y-72779522D01*
X110136656Y-73996950D01*
X110075333Y-74030435D01*
X110005641Y-74025451D01*
X109980086Y-74012372D01*
X109978231Y-74011133D01*
X109978229Y-74011132D01*
X109978227Y-74011131D01*
X109978229Y-74011131D01*
X109919752Y-73999500D01*
X109919748Y-73999500D01*
X108380252Y-73999500D01*
X108379754Y-73999500D01*
X108312715Y-73979815D01*
X108292073Y-73963181D01*
X107961819Y-73632926D01*
X107928334Y-73571603D01*
X107925500Y-73545245D01*
X107925500Y-72845730D01*
X107922646Y-72815300D01*
X107922646Y-72815298D01*
X107889006Y-72719163D01*
X107877793Y-72687118D01*
X107797150Y-72577850D01*
X107687882Y-72497207D01*
X107687880Y-72497206D01*
X107623967Y-72474842D01*
X107567191Y-72434120D01*
X107541444Y-72369168D01*
X107554901Y-72300606D01*
X107603288Y-72250203D01*
X107625918Y-72240095D01*
X107794119Y-72184358D01*
X107794124Y-72184356D01*
X107943345Y-72092315D01*
X108067316Y-71968344D01*
X108071798Y-71962677D01*
X108073402Y-71963945D01*
X108117758Y-71924032D01*
X108186718Y-71912794D01*
X108245053Y-71938125D01*
X108245293Y-71937767D01*
X108247268Y-71939086D01*
X108250806Y-71940623D01*
X108254177Y-71943703D01*
X108321769Y-71988867D01*
X108321770Y-71988868D01*
X108380247Y-72000499D01*
X108380250Y-72000500D01*
X108380252Y-72000500D01*
X109919750Y-72000500D01*
X109919751Y-72000499D01*
X109934568Y-71997552D01*
X109978229Y-71988868D01*
X109978229Y-71988867D01*
X109978231Y-71988867D01*
X110044552Y-71944552D01*
X110088867Y-71878231D01*
X110088867Y-71878229D01*
X110088868Y-71878229D01*
X110100499Y-71819752D01*
X110100500Y-71819750D01*
X110100500Y-71600000D01*
X112800000Y-71600000D01*
X112800000Y-71847844D01*
X112806401Y-71907372D01*
X112806403Y-71907379D01*
X112856645Y-72042086D01*
X112856649Y-72042093D01*
X112942809Y-72157187D01*
X112942812Y-72157190D01*
X113057906Y-72243350D01*
X113057913Y-72243354D01*
X113192620Y-72293596D01*
X113192627Y-72293598D01*
X113252155Y-72299999D01*
X113252172Y-72300000D01*
X113800000Y-72300000D01*
X113800000Y-71600000D01*
X112800000Y-71600000D01*
X110100500Y-71600000D01*
X110100500Y-71100000D01*
X112800000Y-71100000D01*
X113800000Y-71100000D01*
X113800000Y-70400000D01*
X113252155Y-70400000D01*
X113192627Y-70406401D01*
X113192620Y-70406403D01*
X113057913Y-70456645D01*
X113057906Y-70456649D01*
X112942812Y-70542809D01*
X112942809Y-70542812D01*
X112856649Y-70657906D01*
X112856645Y-70657913D01*
X112806403Y-70792620D01*
X112806401Y-70792627D01*
X112800000Y-70852155D01*
X112800000Y-71100000D01*
X110100500Y-71100000D01*
X110100500Y-70880249D01*
X110100499Y-70880247D01*
X110088868Y-70821770D01*
X110088867Y-70821769D01*
X110044552Y-70755447D01*
X109978230Y-70711132D01*
X109978229Y-70711131D01*
X109919752Y-70699500D01*
X109919748Y-70699500D01*
X109187965Y-70699500D01*
X109120926Y-70679815D01*
X109100284Y-70663181D01*
X108648784Y-70211681D01*
X108615299Y-70150358D01*
X108620283Y-70080666D01*
X108662155Y-70024733D01*
X108727619Y-70000316D01*
X108736465Y-70000000D01*
X115510697Y-70000000D01*
X115577736Y-70019685D01*
G37*
%TD.AperFunction*%
%TA.AperFunction,Conductor*%
G36*
X104649784Y-62120185D02*
G01*
X104670426Y-62136819D01*
X104963681Y-62430073D01*
X104997166Y-62491396D01*
X105000000Y-62517754D01*
X105000000Y-69788500D01*
X104980315Y-69855539D01*
X104927511Y-69901294D01*
X104876000Y-69912500D01*
X104650000Y-69912500D01*
X104650000Y-71126000D01*
X104630315Y-71193039D01*
X104577511Y-71238794D01*
X104526000Y-71250000D01*
X103175001Y-71250000D01*
X103175001Y-71387471D01*
X103175002Y-71387491D01*
X103183970Y-71475288D01*
X103171200Y-71543980D01*
X103123319Y-71594864D01*
X103092707Y-71607662D01*
X103067963Y-71614292D01*
X103067962Y-71614292D01*
X102976637Y-71667020D01*
X102976634Y-71667022D01*
X101062181Y-73581476D01*
X101000858Y-73614961D01*
X100931166Y-73609977D01*
X100875233Y-73568105D01*
X100850816Y-73502641D01*
X100850500Y-73493795D01*
X100850500Y-72967255D01*
X100870185Y-72900216D01*
X100886819Y-72879574D01*
X100888001Y-72878392D01*
X100946720Y-72819673D01*
X100999446Y-72728348D01*
X100999447Y-72728347D01*
X101026740Y-72626487D01*
X101026740Y-70750000D01*
X103175000Y-70750000D01*
X104150000Y-70750000D01*
X104150000Y-69912500D01*
X103875029Y-69912500D01*
X103875012Y-69912501D01*
X103772302Y-69922994D01*
X103605880Y-69978141D01*
X103605875Y-69978143D01*
X103456654Y-70070184D01*
X103332684Y-70194154D01*
X103240643Y-70343375D01*
X103240641Y-70343380D01*
X103185494Y-70509802D01*
X103185493Y-70509809D01*
X103175000Y-70612513D01*
X103175000Y-70750000D01*
X101026740Y-70750000D01*
X101026740Y-68043918D01*
X101046425Y-67976879D01*
X101059436Y-67960015D01*
X101410436Y-67578088D01*
X101414413Y-67573960D01*
X101991614Y-67002104D01*
X101995796Y-66998150D01*
X102599143Y-66453930D01*
X102603497Y-66450185D01*
X103234384Y-65932564D01*
X103238342Y-65929450D01*
X103761159Y-65535206D01*
X103840861Y-65475104D01*
X103856879Y-65454588D01*
X103905757Y-65391984D01*
X103946929Y-65294899D01*
X103961570Y-65190467D01*
X103961569Y-65190466D01*
X103963562Y-65176256D01*
X103963562Y-65176248D01*
X104030871Y-64696150D01*
X104033896Y-64681275D01*
X104039217Y-64661420D01*
X104039217Y-64645280D01*
X104040418Y-64628064D01*
X104041239Y-64622207D01*
X104042659Y-64612081D01*
X104040146Y-64591671D01*
X104039217Y-64576518D01*
X104039217Y-64145987D01*
X104039218Y-64145974D01*
X104039218Y-64030532D01*
X104039218Y-64030531D01*
X104011924Y-63928671D01*
X103979367Y-63872281D01*
X103959197Y-63837345D01*
X103884630Y-63762778D01*
X103884629Y-63762777D01*
X103880299Y-63758447D01*
X103880288Y-63758437D01*
X102434033Y-62312181D01*
X102400548Y-62250858D01*
X102405532Y-62181166D01*
X102447404Y-62125233D01*
X102512868Y-62100816D01*
X102521714Y-62100500D01*
X104582745Y-62100500D01*
X104649784Y-62120185D01*
G37*
%TD.AperFunction*%
%TA.AperFunction,Conductor*%
G36*
X133418834Y-62371393D02*
G01*
X133474767Y-62413265D01*
X133499184Y-62478729D01*
X133499500Y-62487575D01*
X133499500Y-63119752D01*
X133511131Y-63178229D01*
X133511132Y-63178230D01*
X133555447Y-63244552D01*
X133621769Y-63288867D01*
X133621770Y-63288868D01*
X133680247Y-63300499D01*
X133680250Y-63300500D01*
X133680252Y-63300500D01*
X134624167Y-63300500D01*
X134691206Y-63320185D01*
X134711848Y-63336819D01*
X134755510Y-63380481D01*
X134788995Y-63441804D01*
X134784011Y-63511496D01*
X134742139Y-63567429D01*
X134676675Y-63591846D01*
X134634385Y-63586563D01*
X134634311Y-63586911D01*
X134630313Y-63586055D01*
X134628832Y-63585870D01*
X134627703Y-63585496D01*
X134627690Y-63585493D01*
X134524986Y-63575000D01*
X134387500Y-63575000D01*
X134387500Y-66024999D01*
X134524972Y-66024999D01*
X134524986Y-66024998D01*
X134627697Y-66014505D01*
X134794119Y-65959358D01*
X134794126Y-65959355D01*
X134860402Y-65918475D01*
X134927794Y-65900034D01*
X134994458Y-65920956D01*
X135039228Y-65974597D01*
X135049500Y-66024013D01*
X135049500Y-66411927D01*
X135029815Y-66478966D01*
X134977011Y-66524721D01*
X134907853Y-66534665D01*
X134873095Y-66524309D01*
X134663492Y-66426570D01*
X134663486Y-66426567D01*
X134450000Y-66369364D01*
X134450000Y-67266988D01*
X134392993Y-67234075D01*
X134265826Y-67200000D01*
X134134174Y-67200000D01*
X134007007Y-67234075D01*
X133950000Y-67266988D01*
X133950000Y-66369364D01*
X133949999Y-66369364D01*
X133736513Y-66426567D01*
X133736507Y-66426570D01*
X133522422Y-66526399D01*
X133522420Y-66526400D01*
X133328926Y-66661886D01*
X133328920Y-66661891D01*
X133161891Y-66828920D01*
X133161886Y-66828926D01*
X133026400Y-67022420D01*
X133026399Y-67022422D01*
X132926570Y-67236507D01*
X132926567Y-67236513D01*
X132869364Y-67449999D01*
X132869364Y-67450000D01*
X133766988Y-67450000D01*
X133734075Y-67507007D01*
X133700000Y-67634174D01*
X133700000Y-67765826D01*
X133734075Y-67892993D01*
X133766988Y-67950000D01*
X132869364Y-67950000D01*
X132926567Y-68163486D01*
X132926570Y-68163492D01*
X133026399Y-68377578D01*
X133161894Y-68571082D01*
X133328917Y-68738105D01*
X133522421Y-68873600D01*
X133736507Y-68973429D01*
X133736516Y-68973433D01*
X133858649Y-69006158D01*
X133918310Y-69042523D01*
X133948839Y-69105369D01*
X133940545Y-69174745D01*
X133896059Y-69228623D01*
X133862552Y-69244593D01*
X133796046Y-69264767D01*
X133613546Y-69362317D01*
X133525486Y-69434586D01*
X133461176Y-69461898D01*
X133392309Y-69450107D01*
X133340749Y-69402954D01*
X133332146Y-69382780D01*
X133331429Y-69383078D01*
X133328319Y-69375572D01*
X133328318Y-69375568D01*
X133313844Y-69350499D01*
X133285465Y-69301344D01*
X133224862Y-69240741D01*
X133224861Y-69240740D01*
X133220531Y-69236410D01*
X133220520Y-69236400D01*
X132399319Y-68415198D01*
X132365834Y-68353875D01*
X132363000Y-68327517D01*
X132363000Y-65846974D01*
X132382685Y-65779935D01*
X132435489Y-65734180D01*
X132475422Y-65723515D01*
X132484699Y-65722646D01*
X132484701Y-65722645D01*
X132484703Y-65722645D01*
X132531294Y-65706341D01*
X132612882Y-65677793D01*
X132722150Y-65597150D01*
X132802793Y-65487882D01*
X132825158Y-65423964D01*
X132865877Y-65367192D01*
X132930830Y-65341444D01*
X132999392Y-65354900D01*
X133049795Y-65403287D01*
X133059904Y-65425917D01*
X133115642Y-65594121D01*
X133115643Y-65594124D01*
X133207684Y-65743345D01*
X133331654Y-65867315D01*
X133480875Y-65959356D01*
X133480880Y-65959358D01*
X133647302Y-66014505D01*
X133647309Y-66014506D01*
X133750019Y-66024999D01*
X133887499Y-66024999D01*
X133887500Y-66024998D01*
X133887500Y-63575000D01*
X133750027Y-63575000D01*
X133750012Y-63575001D01*
X133647302Y-63585494D01*
X133480880Y-63640641D01*
X133480875Y-63640643D01*
X133331654Y-63732684D01*
X133207684Y-63856654D01*
X133115643Y-64005875D01*
X133115641Y-64005880D01*
X133059905Y-64174082D01*
X133020132Y-64231527D01*
X132955617Y-64258350D01*
X132886841Y-64246035D01*
X132835641Y-64198492D01*
X132825158Y-64176033D01*
X132814640Y-64145974D01*
X132802793Y-64112118D01*
X132722150Y-64002850D01*
X132612882Y-63922207D01*
X132612880Y-63922206D01*
X132484701Y-63877353D01*
X132475418Y-63876483D01*
X132410510Y-63850623D01*
X132369887Y-63793776D01*
X132363000Y-63753025D01*
X132363000Y-63376075D01*
X132382685Y-63309036D01*
X132399319Y-63288394D01*
X133287819Y-62399894D01*
X133349142Y-62366409D01*
X133418834Y-62371393D01*
G37*
%TD.AperFunction*%
%TA.AperFunction,Conductor*%
G36*
X104943039Y-57520185D02*
G01*
X104988794Y-57572989D01*
X105000000Y-57624500D01*
X105000000Y-61177494D01*
X104980315Y-61244533D01*
X104927511Y-61290288D01*
X104859815Y-61300433D01*
X104852728Y-61299500D01*
X104852727Y-61299500D01*
X99960339Y-61299500D01*
X99960323Y-61299499D01*
X99952727Y-61299499D01*
X99847273Y-61299499D01*
X99747969Y-61326108D01*
X99747965Y-61326108D01*
X99745416Y-61326791D01*
X99654084Y-61379522D01*
X99070426Y-61963181D01*
X99009103Y-61996666D01*
X98982745Y-61999500D01*
X98180247Y-61999500D01*
X98121770Y-62011131D01*
X98121769Y-62011132D01*
X98055447Y-62055447D01*
X98011132Y-62121769D01*
X98011131Y-62121770D01*
X97999500Y-62180247D01*
X97999500Y-63119752D01*
X98011131Y-63178229D01*
X98011132Y-63178230D01*
X98055447Y-63244552D01*
X98121769Y-63288867D01*
X98121770Y-63288868D01*
X98180247Y-63300499D01*
X98180250Y-63300500D01*
X98180252Y-63300500D01*
X99233745Y-63300500D01*
X99300784Y-63320185D01*
X99346539Y-63372989D01*
X99356483Y-63442147D01*
X99327458Y-63505703D01*
X99321426Y-63512181D01*
X99170426Y-63663181D01*
X99109103Y-63696666D01*
X99082745Y-63699500D01*
X97147273Y-63699500D01*
X97045410Y-63726793D01*
X96954087Y-63779520D01*
X96954084Y-63779522D01*
X96195426Y-64538181D01*
X96134103Y-64571666D01*
X96107745Y-64574500D01*
X95383230Y-64574500D01*
X95352800Y-64577353D01*
X95352798Y-64577354D01*
X95265455Y-64607917D01*
X95195676Y-64611479D01*
X95135049Y-64576751D01*
X95102821Y-64514757D01*
X95100500Y-64490876D01*
X95100500Y-63247275D01*
X95100500Y-63247273D01*
X95098499Y-63239804D01*
X95073207Y-63145412D01*
X95020480Y-63054087D01*
X95020479Y-63054086D01*
X95017113Y-63048256D01*
X95000500Y-62986255D01*
X95000500Y-62180249D01*
X95000499Y-62180247D01*
X94988868Y-62121770D01*
X94988867Y-62121769D01*
X94944552Y-62055447D01*
X94878230Y-62011132D01*
X94878229Y-62011131D01*
X94819752Y-61999500D01*
X94819748Y-61999500D01*
X93280252Y-61999500D01*
X93280247Y-61999500D01*
X93221770Y-62011131D01*
X93221769Y-62011132D01*
X93155447Y-62055447D01*
X93111132Y-62121769D01*
X93111131Y-62121770D01*
X93099500Y-62180247D01*
X93099500Y-63119752D01*
X93111131Y-63178229D01*
X93111132Y-63178230D01*
X93155447Y-63244552D01*
X93221769Y-63288867D01*
X93221770Y-63288868D01*
X93280247Y-63300499D01*
X93280250Y-63300500D01*
X93280252Y-63300500D01*
X94082745Y-63300500D01*
X94149784Y-63320185D01*
X94170426Y-63336819D01*
X94263181Y-63429574D01*
X94296666Y-63490897D01*
X94299500Y-63517255D01*
X94299500Y-64159347D01*
X94279815Y-64226386D01*
X94227011Y-64272141D01*
X94162897Y-64282705D01*
X94087486Y-64275000D01*
X93950000Y-64275000D01*
X93950000Y-66724999D01*
X94087472Y-66724999D01*
X94087484Y-66724998D01*
X94162897Y-66717294D01*
X94231590Y-66730063D01*
X94282475Y-66777944D01*
X94299500Y-66840652D01*
X94299500Y-67482745D01*
X94279815Y-67549784D01*
X94263181Y-67570426D01*
X92712181Y-69121426D01*
X92650858Y-69154911D01*
X92581166Y-69149927D01*
X92525233Y-69108055D01*
X92500816Y-69042591D01*
X92500500Y-69033745D01*
X92500500Y-66443356D01*
X92520185Y-66376317D01*
X92572989Y-66330562D01*
X92642147Y-66320618D01*
X92705703Y-66349643D01*
X92730039Y-66378259D01*
X92770184Y-66443345D01*
X92894154Y-66567315D01*
X93043375Y-66659356D01*
X93043380Y-66659358D01*
X93209802Y-66714505D01*
X93209809Y-66714506D01*
X93312519Y-66724999D01*
X93449999Y-66724999D01*
X93450000Y-66724998D01*
X93450000Y-64275000D01*
X93312527Y-64275000D01*
X93312512Y-64275001D01*
X93209802Y-64285494D01*
X93043380Y-64340641D01*
X93043375Y-64340643D01*
X92894154Y-64432684D01*
X92770183Y-64556655D01*
X92770180Y-64556659D01*
X92730038Y-64621740D01*
X92678090Y-64668465D01*
X92609128Y-64679686D01*
X92545046Y-64651843D01*
X92506190Y-64593774D01*
X92500500Y-64556643D01*
X92500500Y-61517255D01*
X92520185Y-61450216D01*
X92536819Y-61429574D01*
X93929574Y-60036819D01*
X93990897Y-60003334D01*
X94017255Y-60000500D01*
X94819750Y-60000500D01*
X94819751Y-60000499D01*
X94834568Y-59997552D01*
X94878229Y-59988868D01*
X94878229Y-59988867D01*
X94878231Y-59988867D01*
X94944552Y-59944552D01*
X94988867Y-59878231D01*
X94988867Y-59878229D01*
X94988868Y-59878229D01*
X95000499Y-59819752D01*
X95000500Y-59819750D01*
X95000500Y-59600000D01*
X97700000Y-59600000D01*
X97700000Y-59847844D01*
X97706401Y-59907372D01*
X97706403Y-59907379D01*
X97756645Y-60042086D01*
X97756649Y-60042093D01*
X97842809Y-60157187D01*
X97842812Y-60157190D01*
X97957906Y-60243350D01*
X97957913Y-60243354D01*
X98092620Y-60293596D01*
X98092627Y-60293598D01*
X98152155Y-60299999D01*
X98152172Y-60300000D01*
X98700000Y-60300000D01*
X98700000Y-59600000D01*
X99200000Y-59600000D01*
X99200000Y-60300000D01*
X99747828Y-60300000D01*
X99747844Y-60299999D01*
X99807372Y-60293598D01*
X99807379Y-60293596D01*
X99942086Y-60243354D01*
X99942093Y-60243350D01*
X100057187Y-60157190D01*
X100057190Y-60157187D01*
X100143350Y-60042093D01*
X100143354Y-60042086D01*
X100193596Y-59907379D01*
X100193598Y-59907372D01*
X100199999Y-59847844D01*
X100200000Y-59847827D01*
X100200000Y-59600000D01*
X99200000Y-59600000D01*
X98700000Y-59600000D01*
X97700000Y-59600000D01*
X95000500Y-59600000D01*
X95000500Y-59100000D01*
X97700000Y-59100000D01*
X98700000Y-59100000D01*
X98700000Y-58400000D01*
X99200000Y-58400000D01*
X99200000Y-59100000D01*
X100200000Y-59100000D01*
X100200000Y-58852172D01*
X100199999Y-58852155D01*
X100193598Y-58792627D01*
X100193596Y-58792620D01*
X100143354Y-58657913D01*
X100143350Y-58657906D01*
X100057190Y-58542812D01*
X100057187Y-58542809D01*
X99942093Y-58456649D01*
X99942086Y-58456645D01*
X99807379Y-58406403D01*
X99807372Y-58406401D01*
X99747844Y-58400000D01*
X99200000Y-58400000D01*
X98700000Y-58400000D01*
X98152155Y-58400000D01*
X98092627Y-58406401D01*
X98092620Y-58406403D01*
X97957913Y-58456645D01*
X97957906Y-58456649D01*
X97842812Y-58542809D01*
X97842809Y-58542812D01*
X97756649Y-58657906D01*
X97756645Y-58657913D01*
X97706403Y-58792620D01*
X97706401Y-58792627D01*
X97700000Y-58852155D01*
X97700000Y-59100000D01*
X95000500Y-59100000D01*
X95000500Y-58880249D01*
X95000499Y-58880247D01*
X94988868Y-58821770D01*
X94988867Y-58821769D01*
X94944552Y-58755447D01*
X94878230Y-58711132D01*
X94878229Y-58711131D01*
X94819752Y-58699500D01*
X94819748Y-58699500D01*
X93280252Y-58699500D01*
X93280247Y-58699500D01*
X93221770Y-58711131D01*
X93221769Y-58711132D01*
X93155447Y-58755447D01*
X93111132Y-58821769D01*
X93111131Y-58821770D01*
X93099500Y-58880247D01*
X93099500Y-59682745D01*
X93079815Y-59749784D01*
X93063181Y-59770426D01*
X91779522Y-61054084D01*
X91779517Y-61054090D01*
X91731887Y-61136589D01*
X91681320Y-61184805D01*
X91612713Y-61198027D01*
X91547848Y-61172059D01*
X91507320Y-61115145D01*
X91500500Y-61074589D01*
X91500500Y-57624500D01*
X91520185Y-57557461D01*
X91572989Y-57511706D01*
X91624500Y-57500500D01*
X104876000Y-57500500D01*
X104943039Y-57520185D01*
G37*
%TD.AperFunction*%
%TA.AperFunction,Conductor*%
G36*
X136442539Y-57520185D02*
G01*
X136488294Y-57572989D01*
X136499500Y-57624500D01*
X136499500Y-58574588D01*
X136479815Y-58641627D01*
X136427011Y-58687382D01*
X136357853Y-58697326D01*
X136294297Y-58668301D01*
X136268113Y-58636589D01*
X136232316Y-58574588D01*
X136220480Y-58554087D01*
X135845913Y-58179520D01*
X135800250Y-58153156D01*
X135754589Y-58126793D01*
X135703657Y-58113146D01*
X135652727Y-58099500D01*
X135652726Y-58099500D01*
X130460339Y-58099500D01*
X130460323Y-58099499D01*
X130452727Y-58099499D01*
X130347274Y-58099499D01*
X130245413Y-58126793D01*
X130245411Y-58126793D01*
X130245411Y-58126794D01*
X130154084Y-58179522D01*
X129670426Y-58663181D01*
X129609103Y-58696666D01*
X129582745Y-58699500D01*
X128780247Y-58699500D01*
X128721770Y-58711131D01*
X128721769Y-58711132D01*
X128655447Y-58755447D01*
X128611132Y-58821769D01*
X128611131Y-58821770D01*
X128599500Y-58880247D01*
X128599500Y-59819752D01*
X128611131Y-59878229D01*
X128611132Y-59878230D01*
X128655447Y-59944552D01*
X128721769Y-59988867D01*
X128721770Y-59988868D01*
X128780247Y-60000499D01*
X128780250Y-60000500D01*
X128780252Y-60000500D01*
X130319750Y-60000500D01*
X130319751Y-60000499D01*
X130334568Y-59997552D01*
X130378229Y-59988868D01*
X130378229Y-59988867D01*
X130378231Y-59988867D01*
X130444552Y-59944552D01*
X130488867Y-59878231D01*
X130488867Y-59878229D01*
X130488868Y-59878229D01*
X130500499Y-59819752D01*
X130500500Y-59819750D01*
X130500500Y-59024500D01*
X130520185Y-58957461D01*
X130572989Y-58911706D01*
X130624500Y-58900500D01*
X133375500Y-58900500D01*
X133442539Y-58920185D01*
X133488294Y-58972989D01*
X133499500Y-59024500D01*
X133499500Y-59819752D01*
X133511131Y-59878229D01*
X133511132Y-59878230D01*
X133555447Y-59944552D01*
X133621769Y-59988867D01*
X133621770Y-59988868D01*
X133680247Y-60000499D01*
X133680250Y-60000500D01*
X133680252Y-60000500D01*
X134025500Y-60000500D01*
X134092539Y-60020185D01*
X134138294Y-60072989D01*
X134149500Y-60124500D01*
X134149500Y-60636909D01*
X134129815Y-60703948D01*
X134113181Y-60724590D01*
X131822041Y-63015729D01*
X131822035Y-63015737D01*
X131782482Y-63084246D01*
X131782479Y-63084251D01*
X131772968Y-63119748D01*
X131765440Y-63147844D01*
X131762000Y-63160681D01*
X131762000Y-63753025D01*
X131742315Y-63820064D01*
X131689511Y-63865819D01*
X131649582Y-63876483D01*
X131640299Y-63877353D01*
X131640298Y-63877353D01*
X131512119Y-63922206D01*
X131512117Y-63922207D01*
X131402850Y-64002850D01*
X131322207Y-64112117D01*
X131322206Y-64112119D01*
X131277353Y-64240298D01*
X131277353Y-64240300D01*
X131274500Y-64270730D01*
X131274500Y-65329269D01*
X131277353Y-65359699D01*
X131277353Y-65359701D01*
X131322206Y-65487880D01*
X131322207Y-65487882D01*
X131402850Y-65597150D01*
X131512118Y-65677793D01*
X131552911Y-65692067D01*
X131640296Y-65722645D01*
X131640298Y-65722645D01*
X131640301Y-65722646D01*
X131649576Y-65723515D01*
X131714484Y-65749372D01*
X131755110Y-65806216D01*
X131762000Y-65846974D01*
X131762000Y-68026966D01*
X131742315Y-68094005D01*
X131689511Y-68139760D01*
X131620353Y-68149704D01*
X131556797Y-68120679D01*
X131533606Y-68093883D01*
X131477918Y-68007007D01*
X131467907Y-67991389D01*
X131230721Y-67653416D01*
X130962295Y-67270929D01*
X130935217Y-67235592D01*
X130825883Y-67092907D01*
X130426931Y-66572264D01*
X129862781Y-65896659D01*
X129836114Y-65867315D01*
X129270811Y-65245268D01*
X128652078Y-64619254D01*
X128445639Y-64427190D01*
X128007669Y-64019718D01*
X127338689Y-63447685D01*
X126646353Y-62904199D01*
X126640516Y-62900000D01*
X128300000Y-62900000D01*
X128300000Y-63147844D01*
X128306401Y-63207372D01*
X128306403Y-63207379D01*
X128356645Y-63342086D01*
X128356649Y-63342093D01*
X128442809Y-63457187D01*
X128442812Y-63457190D01*
X128557906Y-63543350D01*
X128557913Y-63543354D01*
X128692620Y-63593596D01*
X128692627Y-63593598D01*
X128752155Y-63599999D01*
X128752172Y-63600000D01*
X129300000Y-63600000D01*
X129300000Y-62900000D01*
X129800000Y-62900000D01*
X129800000Y-63600000D01*
X130347828Y-63600000D01*
X130347844Y-63599999D01*
X130407372Y-63593598D01*
X130407379Y-63593596D01*
X130542086Y-63543354D01*
X130542093Y-63543350D01*
X130657187Y-63457190D01*
X130657190Y-63457187D01*
X130743350Y-63342093D01*
X130743354Y-63342086D01*
X130793596Y-63207379D01*
X130793598Y-63207372D01*
X130799999Y-63147844D01*
X130800000Y-63147827D01*
X130800000Y-62900000D01*
X129800000Y-62900000D01*
X129300000Y-62900000D01*
X128300000Y-62900000D01*
X126640516Y-62900000D01*
X125945486Y-62400000D01*
X128300000Y-62400000D01*
X129300000Y-62400000D01*
X129300000Y-61700000D01*
X129800000Y-61700000D01*
X129800000Y-62400000D01*
X130800000Y-62400000D01*
X130800000Y-62152172D01*
X130799999Y-62152155D01*
X130793598Y-62092627D01*
X130793596Y-62092620D01*
X130743354Y-61957913D01*
X130743350Y-61957906D01*
X130657190Y-61842812D01*
X130657187Y-61842809D01*
X130542093Y-61756649D01*
X130542086Y-61756645D01*
X130407379Y-61706403D01*
X130407372Y-61706401D01*
X130347844Y-61700000D01*
X129800000Y-61700000D01*
X129300000Y-61700000D01*
X128752155Y-61700000D01*
X128692627Y-61706401D01*
X128692620Y-61706403D01*
X128557913Y-61756645D01*
X128557906Y-61756649D01*
X128442812Y-61842809D01*
X128442809Y-61842812D01*
X128356649Y-61957906D01*
X128356645Y-61957913D01*
X128306403Y-62092620D01*
X128306401Y-62092627D01*
X128300000Y-62152155D01*
X128300000Y-62400000D01*
X125945486Y-62400000D01*
X125931833Y-62390178D01*
X125196445Y-61906567D01*
X124851692Y-61700000D01*
X124441406Y-61454167D01*
X124304087Y-61379522D01*
X123668103Y-61033808D01*
X123668101Y-61033807D01*
X123668090Y-61033801D01*
X123298050Y-60852304D01*
X123069395Y-60740153D01*
X123017874Y-60692958D01*
X123000000Y-60628823D01*
X123000000Y-57624500D01*
X123019685Y-57557461D01*
X123072489Y-57511706D01*
X123124000Y-57500500D01*
X136375500Y-57500500D01*
X136442539Y-57520185D01*
G37*
%TD.AperFunction*%
%TD*%
M02*
